<svg xmlns="http://www.w3.org/2000/svg" viewBox="0 0 116 116"><defs><style>.cls-1{fill:#00796d;}.cls-2{fill:none;stroke:#01796d;stroke-miterlimit:10;stroke-width:6px;}.cls-3{fill:#01796d;}</style></defs><g id="Layer_1" data-name="Layer 1"><g id="Group_5483" data-name="Group 5483"><g id="Group_5167-3" data-name="Group 5167-3"><g id="Group_5165-3" data-name="Group 5165-3"><path id="Path_7166-3" data-name="Path 7166-3" class="cls-1" d="M52.45,104.77a47.13,47.13,0,0,1,0-93.54V0a58.29,58.29,0,0,0,0,116Z"/></g><g id="Group_5166-3" data-name="Group 5166-3"><path id="Path_7167-3" data-name="Path 7167-3" class="cls-1" d="M63.55,0V11.23a47.13,47.13,0,0,1,0,93.54V116a58.29,58.29,0,0,0,0-116Z"/></g></g><g id="Group_5365" data-name="Group 5365"><path id="Path_7269" data-name="Path 7269" class="cls-2" d="M57.68,30S43.35,32.26,41.84,62.42"/><path id="Path_7270" data-name="Path 7270" class="cls-2" d="M57.68,30S72,32.26,73.51,62.42"/><path id="Path_7271" data-name="Path 7271" class="cls-2" d="M33.92,54.51a7.92,7.92,0,0,1,7.92,7.92h0a7.92,7.92,0,0,1,15.84-.18v.18a7.92,7.92,0,1,1,15.83,0h0a7.92,7.92,0,0,1,15.83-.25c0-.17,0-.34,0-.5A31.68,31.68,0,1,0,26,61.62v.06c0,.16,0,.33,0,.5A7.93,7.93,0,0,1,33.92,54.51Z"/><line id="Line_878" data-name="Line 878" class="cls-2" x1="57.68" y1="30" x2="57.68" y2="62.43"/><g id="Group_5364" data-name="Group 5364"><path id="Path_7272" data-name="Path 7272" class="cls-3" d="M55.79,86.94l.12-20.36h3.85l.12,20.36Z"/><rect id="Rectangle_1320" data-name="Rectangle 1320" class="cls-3" x="55.79" y="90.78" width="4.09" height="4.09"/></g></g></g></g></svg>