<svg id="bg" xmlns="http://www.w3.org/2000/svg" viewBox="0 0 1120 565.18"><defs><style>.cls-1{fill:#f8a908;}.cls-13,.cls-14,.cls-15,.cls-2{font-size:20px;fill:#333;}.cls-17,.cls-2{font-family:Arial-BoldMT, Arial;font-weight:700;}.cls-3{fill:#e4dfec;}.cls-4{fill:#bae659;}.cls-5{fill:#bb8656;}.cls-6{fill:none;stroke:#f3f3f3;stroke-miterlimit:10;}.cls-7{fill:#8bcff0;}.cls-8{fill:#73b564;}.cls-9{letter-spacing:-0.06em;}.cls-10{fill:#9c8fc4;}.cls-11{fill:#ffdc53;}.cls-12{fill:#538dd5;}.cls-13,.cls-14,.cls-15{font-family:NotoSansCJKtc-Medium-B5pc-H, Noto Sans CJK TC;}.cls-13{letter-spacing:-0.03em;}.cls-14{letter-spacing:-0.02em;}.cls-15{letter-spacing:-0.03em;}.cls-16{fill:#002a5e;}.cls-17{font-size:22px;fill:#fff;}</style></defs><rect class="cls-1" x="0.01" y="42.21" width="223.63" height="57.5"/><text class="cls-2" transform="translate(77.42 92.01) scale(0.96 1)">15.18%</text><rect class="cls-3" x="223.64" y="42.21" width="223.63" height="57.5"/><text class="cls-2" transform="translate(309.41 92.01) scale(0.96 1)">2.59%</text><rect class="cls-1" x="447.88" y="42.21" width="223.63" height="57.5"/><text class="cls-2" transform="translate(533.65 92.01) scale(0.96 1)">8.73%</text><rect class="cls-4" x="672.12" y="42.21" width="223.63" height="57.5"/><text class="cls-2" transform="translate(752.55 92.01) scale(0.96 1)">17.49%</text><rect class="cls-5" x="896.37" y="42.21" width="223.63" height="57.5"/><text class="cls-2" transform="translate(982.13 92.01) scale(0.96 1)">3.55%</text><line class="cls-6" x1="1118.18" y1="99.99" x2="0.01" y2="99.99"/><rect class="cls-7" x="0.01" y="100.4" width="223.63" height="57.5"/><text class="cls-2" transform="translate(77.42 150.19) scale(0.96 1)">14.66%</text><rect class="cls-8" x="223.64" y="100.4" width="223.63" height="57.5"/><text class="cls-2" transform="translate(309.41 150.19) scale(0.96 1)">2.09%</text><rect class="cls-4" x="447.88" y="100.4" width="223.63" height="57.5"/><text class="cls-2" transform="translate(533.65 150.19) scale(0.96 1)">7.17%</text><rect class="cls-1" x="672.12" y="100.4" width="223.63" height="57.5"/><text class="cls-2" transform="translate(753.08 150.19) scale(0.96 1)"><tspan class="cls-9">1</tspan><tspan x="10.02" y="0">1.89%</tspan></text><rect class="cls-3" x="896.37" y="100.4" width="223.63" height="57.5"/><text class="cls-2" transform="translate(987.47 150.19) scale(0.96 1)">0.8%</text><line class="cls-6" x1="1118.18" y1="158.18" x2="0.01" y2="158.18"/><rect class="cls-4" x="0.01" y="158.58" width="223.63" height="57.5"/><text class="cls-2" transform="translate(77.42 208.38) scale(0.96 1)">14.41%</text><rect class="cls-10" x="223.64" y="158.58" width="223.63" height="57.5"/><text class="cls-2" transform="translate(309.41 208.38) scale(0.96 1)">2.08%</text><rect class="cls-7" x="447.88" y="158.58" width="223.63" height="57.5"/><text class="cls-2" transform="translate(533.65 208.38) scale(0.96 1)">6.82%</text><rect class="cls-7" x="672.12" y="158.58" width="223.63" height="57.5"/><text class="cls-2" transform="translate(757.89 208.38) scale(0.96 1)">9.07%</text><rect class="cls-7" x="896.37" y="158.58" width="223.63" height="57.5"/><text class="cls-2" transform="translate(982.13 208.38) scale(0.96 1)">0.76%</text><line class="cls-6" x1="1118.18" y1="216.36" x2="0.01" y2="216.36"/><rect class="cls-11" x="0.01" y="216.76" width="223.63" height="57.5"/><text class="cls-2" transform="translate(77.42 266.56) scale(0.96 1)">14.23%</text><rect class="cls-5" x="223.64" y="216.76" width="223.63" height="57.5"/><text class="cls-2" transform="translate(314.75 266.56) scale(0.96 1)">1.4%</text><rect class="cls-11" x="447.88" y="216.76" width="223.63" height="57.5"/><text class="cls-2" transform="translate(533.65 266.56) scale(0.96 1)">5.58%</text><rect class="cls-11" x="672.12" y="216.76" width="223.63" height="57.5"/><text class="cls-2" transform="translate(757.89 266.56) scale(0.96 1)">5.96%</text><rect class="cls-8" x="896.37" y="216.76" width="223.63" height="57.5"/><text class="cls-2" transform="translate(982.13 266.56) scale(0.96 1)">0.44%</text><line class="cls-6" x1="1118.18" y1="274.54" x2="0.01" y2="274.54"/><rect class="cls-5" x="0.01" y="274.95" width="223.63" height="57.5"/><text class="cls-2" transform="translate(77.42 324.74) scale(0.96 1)">13.69%</text><rect class="cls-11" x="223.64" y="274.95" width="223.63" height="57.5"/><text class="cls-2" transform="translate(309.41 324.74) scale(0.96 1)">0.38%</text><rect class="cls-5" x="447.88" y="274.95" width="223.63" height="57.5"/><text class="cls-2" transform="translate(533.65 324.74) scale(0.96 1)">4.37%</text><rect class="cls-12" x="672.12" y="274.95" width="223.63" height="57.5"/><text class="cls-2" transform="translate(757.89 324.74) scale(0.96 1)">4.75%</text><rect class="cls-10" x="896.37" y="274.95" width="223.63" height="57.5"/><text class="cls-2" transform="translate(982.13 324.74) scale(0.96 1)">0.18%</text><line class="cls-6" x1="1118.18" y1="332.73" x2="0.01" y2="332.73"/><rect class="cls-10" x="0.01" y="333.13" width="223.63" height="57.5"/><text class="cls-2" transform="translate(82.76 382.93) scale(0.96 1)">9.74%</text><rect class="cls-1" x="223.64" y="333.13" width="223.63" height="57.5"/><text class="cls-2" transform="translate(306.21 382.93) scale(0.96 1)">-0.32%</text><rect class="cls-8" x="447.88" y="333.13" width="223.63" height="57.5"/><text class="cls-2" transform="translate(538.99 382.93) scale(0.96 1)">3.8%</text><rect class="cls-3" x="672.12" y="333.13" width="223.63" height="57.5"/><text class="cls-2" transform="translate(763.23 382.93) scale(0.96 1)">2.7%</text><rect class="cls-12" x="896.37" y="333.13" width="223.63" height="57.5"/><text class="cls-2" transform="translate(978.93 382.93) scale(0.96 1)">-0.43%</text><line class="cls-6" x1="1118.18" y1="390.91" x2="0.01" y2="390.91"/><rect class="cls-12" x="0.01" y="391.31" width="223.63" height="57.5"/><text class="cls-2" transform="translate(82.76 441.11) scale(0.96 1)">9.43%</text><rect class="cls-12" x="223.64" y="391.31" width="223.63" height="57.5"/><text class="cls-2" transform="translate(311.55 441.11) scale(0.96 1)">-0.8%</text><rect class="cls-10" x="447.88" y="391.31" width="223.63" height="57.5"/><text class="cls-2" transform="translate(533.65 441.11) scale(0.96 1)">3.78%</text><rect class="cls-10" x="672.12" y="391.31" width="223.63" height="57.5"/><text class="cls-2" transform="translate(757.89 441.11) scale(0.96 1)">2.66%</text><rect class="cls-11" x="896.37" y="391.31" width="223.63" height="57.5"/><text class="cls-2" transform="translate(978.93 441.11) scale(0.96 1)">-0.63%</text><line class="cls-6" x1="1118.18" y1="449.09" x2="0.01" y2="449.09"/><rect class="cls-8" x="0.01" y="449.5" width="223.63" height="57.5"/><text class="cls-2" transform="translate(82.76 499.29) scale(0.96 1)">9.39%</text><rect class="cls-4" x="223.64" y="449.5" width="223.63" height="57.5"/><text class="cls-2" transform="translate(306.21 499.29) scale(0.96 1)">-1.63%</text><rect class="cls-12" x="447.88" y="449.5" width="223.63" height="57.5"/><text class="cls-2" transform="translate(533.65 499.29) scale(0.96 1)">2.72%</text><rect class="cls-8" x="672.12" y="449.5" width="223.63" height="57.5"/><text class="cls-2" transform="translate(757.89 499.29) scale(0.96 1)">2.57%</text><rect class="cls-1" x="896.37" y="449.5" width="223.63" height="57.5"/><text class="cls-2" transform="translate(978.93 499.29) scale(0.96 1)">-0.85%</text><line class="cls-6" x1="1118.18" y1="507.28" x2="0.01" y2="507.28"/><rect class="cls-3" x="0.01" y="507.68" width="223.63" height="57.5"/><text class="cls-2" transform="translate(82.76 557.48) scale(0.96 1)">5.89%</text><rect class="cls-7" x="223.64" y="507.68" width="223.63" height="57.5"/><text class="cls-2" transform="translate(306.21 557.48) scale(0.96 1)">-3.47%</text><rect class="cls-3" x="447.88" y="507.68" width="223.63" height="57.5"/><text class="cls-2" transform="translate(533.65 557.48) scale(0.96 1)">2.66%</text><rect class="cls-5" x="672.12" y="507.68" width="223.63" height="57.5"/><text class="cls-2" transform="translate(757.89 557.48) scale(0.96 1)">0.44%</text><rect class="cls-4" x="896.37" y="507.68" width="223.63" height="57.5"/><text class="cls-13" transform="translate(59.44 69.49) scale(0.96 1)">新興企業債</text><text class="cls-14" transform="translate(292.41 69.49) scale(0.96 1)">ABS/MBS</text><text class="cls-15" transform="translate(510.33 69.49) scale(0.96 1)">新興企業債</text><text class="cls-14" transform="translate(734.57 69.49) scale(0.96 1)">美國高收益</text><text class="cls-14" transform="translate(958.81 69.49) scale(0.96 1)">地方政府債</text><text class="cls-13" transform="translate(59.44 127.68) scale(0.96 1)">歐洲高收益</text><text class="cls-15" transform="translate(276.73 127.68) scale(0.96 1)">機構類政府債</text><text class="cls-15" transform="translate(510.33 127.68) scale(0.96 1)">美國高收益</text><text class="cls-14" transform="translate(734.57 127.68) scale(0.96 1)">新興企業債</text><text class="cls-14" transform="translate(965.13 127.68) scale(0.96 1)">ABS/MBS</text><text class="cls-13" transform="translate(59.44 185.86) scale(0.96 1)">美國高收益</text><text class="cls-15" transform="translate(276.73 185.86) scale(0.96 1)">超國家機構債</text><text class="cls-15" transform="translate(510.33 185.86) scale(0.96 1)">歐洲高收益</text><text class="cls-14" transform="translate(734.57 185.86) scale(0.96 1)">歐洲高收益</text><text class="cls-14" transform="translate(958.81 185.86) scale(0.96 1)">歐洲高收益</text><text class="cls-13" transform="translate(59.44 244.04) scale(0.96 1)">美國投資級</text><text class="cls-15" transform="translate(286.09 244.04) scale(0.96 1)">地方政府債</text><text class="cls-15" transform="translate(510.33 244.04) scale(0.96 1)">美國投資級</text><text class="cls-14" transform="translate(734.57 244.04) scale(0.96 1)">美國投資級</text><text class="cls-14" transform="translate(949.45 244.04) scale(0.96 1)">機構類政府債</text><text class="cls-13" transform="translate(59.44 302.23) scale(0.96 1)">地方政府債</text><text class="cls-15" transform="translate(286.09 302.23) scale(0.96 1)">美國投資級</text><text class="cls-15" transform="translate(510.33 302.23) scale(0.96 1)">地方政府債</text><text class="cls-14" transform="translate(734.57 302.23) scale(0.96 1)">歐洲投資級</text><text class="cls-14" transform="translate(949.45 302.23) scale(0.96 1)">超國家機構債</text><text class="cls-14" transform="translate(50.08 360.41) scale(0.96 1)">超國家機構債</text><text class="cls-15" transform="translate(286.09 360.41) scale(0.96 1)">新興企業債</text><text class="cls-15" transform="translate(500.97 360.41) scale(0.96 1)">機構類政府債</text><text class="cls-14" transform="translate(740.89 360.41) scale(0.96 1)">ABS/MBS</text><text class="cls-14" transform="translate(958.81 360.41) scale(0.96 1)">歐洲投資級</text><text class="cls-13" transform="translate(59.44 418.59) scale(0.96 1)">歐洲投資級</text><text class="cls-15" transform="translate(286.09 418.59) scale(0.96 1)">歐洲投資級</text><text class="cls-15" transform="translate(500.97 418.59) scale(0.96 1)">超國家機構債</text><text class="cls-14" transform="translate(725.21 418.59) scale(0.96 1)">超國家機構債</text><text class="cls-14" transform="translate(958.81 418.59) scale(0.96 1)">美國投資級</text><text class="cls-14" transform="translate(50.08 476.78) scale(0.96 1)">機構類政府債</text><text class="cls-15" transform="translate(286.09 476.78) scale(0.96 1)">美國高收益</text><text class="cls-15" transform="translate(510.33 476.78) scale(0.96 1)">歐洲投資級</text><text class="cls-14" transform="translate(725.21 476.78) scale(0.96 1)">機構類政府債</text><text class="cls-14" transform="translate(958.81 476.78) scale(0.96 1)">新興企業債</text><text class="cls-13" transform="translate(65.76 534.96) scale(0.96 1)">ABS/MBS</text><text class="cls-15" transform="translate(286.09 534.96) scale(0.96 1)">歐洲高收益</text><text class="cls-14" transform="translate(516.65 534.96) scale(0.96 1)">ABS/MBS</text><text class="cls-14" transform="translate(734.57 534.96) scale(0.96 1)">地方政府債</text><text class="cls-14" transform="translate(958.81 534.96) scale(0.96 1)">美國高收益</text><text class="cls-2" transform="translate(978.93 557.48) scale(0.96 1)">-4.64%</text><line class="cls-6" x1="223.63" y1="42.21" x2="223.63" y2="564.24"/><line class="cls-6" x1="447.27" y1="42.21" x2="447.27" y2="564.24"/><line class="cls-6" x1="670.9" y1="42.21" x2="670.9" y2="564.24"/><line class="cls-6" x1="895.54" y1="42.21" x2="895.54" y2="564.24"/><rect class="cls-16" x="538.9" y="-538.89" width="42.21" height="1119.99" transform="translate(581.11 -538.9) rotate(90)"/><text class="cls-17" transform="translate(87.35 28.57)">2019</text><text class="cls-17" transform="translate(310.99 28.57)">2018</text><text class="cls-17" transform="translate(534.62 28.57)">2017</text><text class="cls-17" transform="translate(758.26 28.57)">2016</text><text class="cls-17" transform="translate(981.89 28.57)">2015</text></svg>