<svg xmlns="http://www.w3.org/2000/svg" viewBox="0 0 1120 584.62"><defs><style>.cls-1,.cls-5{fill:none;}.cls-1{stroke:#d9d9d9;stroke-linejoin:round;}.cls-2{fill:#bae659;}.cls-3{isolation:isolate;}.cls-4{fill:#002a5e;}.cls-5{stroke:#333;stroke-miterlimit:10;stroke-width:3px;}.cls-6{fill:#f3f3f3;}.cls-7{fill:#00796d;}.cls-8{fill:#fff;}.cls-9{fill:#333;}</style></defs><g id="bg"><g id="Group_5172" data-name="Group 5172"><g id="Group_5171" data-name="Group 5171"><path id="Path_7171" data-name="Path 7171" class="cls-1" d="M62.12,497.4H1113.54M62.12,390.25H1113.54M62.12,336.67H1113.54M62.12,281.42H1113.54M62.12,227.84H1113.54M62.12,174.27H1113.54"/></g></g><rect class="cls-2" x="84.73" y="208.59" width="60.27" height="236.07"/><rect class="cls-2" x="190.2" y="225.33" width="58.6" height="219.32"/><rect class="cls-2" x="294" y="437.96" width="60.27" height="6.7"/><rect class="cls-2" x="294" y="411.17" width="60.27" height="33.49"/><rect class="cls-2" x="399.48" y="431.26" width="60.27" height="13.39"/><rect class="cls-2" x="504.96" y="436.28" width="60.27" height="8.37"/><rect class="cls-2" x="715.91" y="437.95" width="60.27" height="6.7"/><rect class="cls-2" x="821.39" y="439.63" width="60.27" height="5.02"/><rect class="cls-2" x="926.86" y="442.97" width="60.27" height="1.67"/><rect class="cls-2" x="1032.34" y="444.64" width="60.27" height="13.39"/><g id="Group_5177" data-name="Group 5177"><g id="Group_5176" data-name="Group 5176"><g id="_43.7_" data-name=" 43.7 " class="cls-3"><g class="cls-3"><path d="M93.52,198v-2.88H87.66v-2.4l6.21-9.09h2.31v9.08H98v2.41H96.18V198Zm0-5.29v-4.89l-3.29,4.89Z"/><path d="M99.17,194.21l2.65-.32a2.57,2.57,0,0,0,.69,1.56,1.89,1.89,0,0,0,1.34.53,1.86,1.86,0,0,0,1.44-.64,2.54,2.54,0,0,0,.58-1.74,2.33,2.33,0,0,0-.56-1.64,1.79,1.79,0,0,0-1.36-.61,4.71,4.71,0,0,0-1.26.21l.31-2.24a2.39,2.39,0,0,0,1.69-.48,1.7,1.7,0,0,0,.59-1.36,1.55,1.55,0,0,0-.43-1.16,1.58,1.58,0,0,0-1.14-.43,1.67,1.67,0,0,0-1.2.49,2.31,2.31,0,0,0-.61,1.43l-2.53-.43a5.65,5.65,0,0,1,.8-2.08,3.67,3.67,0,0,1,1.48-1.22,5.12,5.12,0,0,1,2.14-.44,4.27,4.27,0,0,1,3.24,1.29,3.27,3.27,0,0,1-1.06,5.39,3.31,3.31,0,0,1,2,1.18,3.44,3.44,0,0,1,.74,2.22,4.31,4.31,0,0,1-1.38,3.21,5.14,5.14,0,0,1-6.65.21A4.38,4.38,0,0,1,99.17,194.21Z"/><path d="M111,198v-2.74h2.75V198Z"/><path d="M115.94,186.44v-2.55h9.39v2a14.75,14.75,0,0,0-2.36,3.29,19.11,19.11,0,0,0-1.83,4.54,16.74,16.74,0,0,0-.62,4.3h-2.65a18.26,18.26,0,0,1,1.22-6,20.6,20.6,0,0,1,3.09-5.52Z"/><path d="M127.09,187.23a4.15,4.15,0,0,1,.84-2.85,3,3,0,0,1,2.29-.93,3,3,0,0,1,2.34.93,5.2,5.2,0,0,1,0,5.7,2.94,2.94,0,0,1-2.29.93,3,3,0,0,1-2.34-.92A4.16,4.16,0,0,1,127.09,187.23Zm2.14,0a3.68,3.68,0,0,0,.32,1.88.78.78,0,0,0,.67.35.81.81,0,0,0,.69-.35,3.94,3.94,0,0,0,.31-1.88,3.81,3.81,0,0,0-.31-1.86.79.79,0,0,0-.69-.36.76.76,0,0,0-.67.35A3.63,3.63,0,0,0,129.23,187.21Zm3.08,11.35h-2l7.63-15.11h2Zm4.44-3.76a4.15,4.15,0,0,1,.84-2.85,3.35,3.35,0,0,1,4.63,0,5.27,5.27,0,0,1,0,5.71,2.94,2.94,0,0,1-2.29.93,3,3,0,0,1-2.34-.93A4.16,4.16,0,0,1,136.75,194.8Zm2.13,0a3.61,3.61,0,0,0,.33,1.87.81.81,0,0,0,1.34,0,3.65,3.65,0,0,0,.33-1.88,3.72,3.72,0,0,0-.32-1.87.77.77,0,0,0-.68-.36.75.75,0,0,0-.67.36A3.58,3.58,0,0,0,138.88,194.79Z"/></g></g></g></g><g id="Group_5179" data-name="Group 5179"><g id="Group_5178" data-name="Group 5178"><g id="_40.4_" data-name=" 40.4 " class="cls-3"><g class="cls-3"><path d="M197.13,206.38V203.5h-5.86v-2.4l6.21-9.09h2.3v9.08h1.78v2.41h-1.78v2.88Zm0-5.29V196.2l-3.3,4.89Z"/><path d="M207.51,192a3.91,3.91,0,0,1,3.25,1.48q1.4,1.77,1.39,5.83c0,2.71-.46,4.66-1.4,5.84a3.91,3.91,0,0,1-3.24,1.47,4.09,4.09,0,0,1-3.37-1.61c-.86-1.07-1.28-3-1.28-5.73s.47-4.63,1.4-5.82A3.94,3.94,0,0,1,207.51,192Zm0,2.27a1.37,1.37,0,0,0-.89.32,2.17,2.17,0,0,0-.61,1.14,23.59,23.59,0,0,0,0,7,2.52,2.52,0,0,0,.64,1.25,1.36,1.36,0,0,0,.89.31,1.4,1.4,0,0,0,.89-.31,2.18,2.18,0,0,0,.6-1.14,23.53,23.53,0,0,0,0-7,2.44,2.44,0,0,0-.64-1.26A1.36,1.36,0,0,0,207.51,194.28Z"/><path d="M214.58,206.38v-2.74h2.74v2.74Z"/><path d="M224.93,206.38V203.5h-5.86v-2.4l6.21-9.09h2.3v9.08h1.78v2.41h-1.78v2.88Zm0-5.29V196.2l-3.29,4.89Z"/><path d="M230.69,195.6a4.15,4.15,0,0,1,.84-2.85,3,3,0,0,1,2.29-.93,3,3,0,0,1,2.34.93,5.2,5.2,0,0,1,0,5.7,2.93,2.93,0,0,1-2.29.93,3,3,0,0,1-2.34-.92A4.16,4.16,0,0,1,230.69,195.6Zm2.14,0a3.79,3.79,0,0,0,.32,1.88.78.78,0,0,0,.67.35.79.79,0,0,0,.69-.35,3.82,3.82,0,0,0,.31-1.88,3.7,3.7,0,0,0-.31-1.86.78.78,0,0,0-.69-.36.76.76,0,0,0-.67.35A3.74,3.74,0,0,0,232.83,195.58Zm3.08,11.35h-2l7.63-15.11h2Zm4.44-3.76a4.15,4.15,0,0,1,.84-2.85,3.35,3.35,0,0,1,4.63,0,5.22,5.22,0,0,1,0,5.71,2.93,2.93,0,0,1-2.29.93,3,3,0,0,1-2.34-.93A4.16,4.16,0,0,1,240.35,203.17Zm2.14,0a3.63,3.63,0,0,0,.32,1.87.82.82,0,0,0,1.35,0,3.79,3.79,0,0,0,.32-1.88,3.89,3.89,0,0,0-.31-1.87.79.79,0,0,0-.69-.36.76.76,0,0,0-.67.36A3.63,3.63,0,0,0,242.49,203.16Z"/></g></g></g></g><g id="Group_5183" data-name="Group 5183"><g id="Group_5182" data-name="Group 5182"><g id="_6.0_" data-name=" 6.0 " class="cls-3"><g class="cls-3"><path d="M311.94,386.44l-2.66.29a1.91,1.91,0,0,0-.5-1.21,1.5,1.5,0,0,0-1.07-.39,1.8,1.8,0,0,0-1.47.78,6.62,6.62,0,0,0-.76,3.25A3.22,3.22,0,0,1,308,388a3.91,3.91,0,0,1,3,1.31,4.77,4.77,0,0,1,1.22,3.38,4.83,4.83,0,0,1-1.29,3.52,4.38,4.38,0,0,1-3.31,1.33,4.43,4.43,0,0,1-3.56-1.68q-1.4-1.69-1.4-5.53t1.46-5.67a4.7,4.7,0,0,1,3.78-1.74,4.08,4.08,0,0,1,2.7.91A4.34,4.34,0,0,1,311.94,386.44Zm-6.22,6a3.14,3.14,0,0,0,.61,2.07,1.83,1.83,0,0,0,1.41.73,1.6,1.6,0,0,0,1.27-.6,3,3,0,0,0,.51-1.95,3.12,3.12,0,0,0-.55-2.05,1.75,1.75,0,0,0-2.7,0A2.67,2.67,0,0,0,305.72,392.42Z"/><path d="M314.35,397.25V394.5h2.75v2.75Z"/><path d="M324,382.87a3.91,3.91,0,0,1,3.25,1.49q1.4,1.75,1.4,5.83T327.2,396a3.91,3.91,0,0,1-3.24,1.46,4.09,4.09,0,0,1-3.37-1.61q-1.27-1.61-1.28-5.72t1.41-5.82A3.89,3.89,0,0,1,324,382.87Zm0,2.28a1.38,1.38,0,0,0-.89.31,2.14,2.14,0,0,0-.6,1.14,15.59,15.59,0,0,0-.29,3.59,15.41,15.41,0,0,0,.26,3.46,2.4,2.4,0,0,0,.64,1.25,1.34,1.34,0,0,0,.88.32,1.39,1.39,0,0,0,.89-.32,2.17,2.17,0,0,0,.61-1.14,16.07,16.07,0,0,0,.28-3.57,15.52,15.52,0,0,0-.26-3.47,2.53,2.53,0,0,0-.63-1.26A1.38,1.38,0,0,0,324,385.15Z"/><path d="M330.47,386.47a4.16,4.16,0,0,1,.84-2.86,3.37,3.37,0,0,1,4.63,0,5.27,5.27,0,0,1,0,5.71,2.93,2.93,0,0,1-2.29.92,3,3,0,0,1-2.34-.92A4.13,4.13,0,0,1,330.47,386.47Zm2.13,0a3.61,3.61,0,0,0,.33,1.87.77.77,0,0,0,.67.35.79.79,0,0,0,.68-.35,3.74,3.74,0,0,0,.32-1.87,3.69,3.69,0,0,0-.32-1.87.82.82,0,0,0-1.35,0A3.63,3.63,0,0,0,332.6,386.45Zm3.09,11.34h-2l7.63-15.1h2Zm4.43-3.76a4.15,4.15,0,0,1,.85-2.85,3,3,0,0,1,2.31-.93,3,3,0,0,1,2.32.93,5.27,5.27,0,0,1,0,5.71,3,3,0,0,1-2.29.93,3,3,0,0,1-2.34-.93A4.14,4.14,0,0,1,340.12,394Zm2.14,0a3.72,3.72,0,0,0,.32,1.87.79.79,0,0,0,.68.36.76.76,0,0,0,.67-.35,3.68,3.68,0,0,0,.32-1.88,3.77,3.77,0,0,0-.31-1.87.84.84,0,0,0-1.36,0A3.74,3.74,0,0,0,342.26,394Z"/></g></g></g></g><g id="Group_5185" data-name="Group 5185"><g id="Group_5184" data-name="Group 5184"><g id="_2.5_" data-name=" 2.5 " class="cls-3"><g class="cls-3"><path d="M417.19,408.09v2.55h-9.62a6.59,6.59,0,0,1,.94-2.74,18.26,18.26,0,0,1,3.08-3.43,19.06,19.06,0,0,0,2.28-2.35,3,3,0,0,0,.56-1.67,1.91,1.91,0,0,0-.49-1.42,1.87,1.87,0,0,0-1.36-.49,1.82,1.82,0,0,0-1.37.52,2.63,2.63,0,0,0-.58,1.72l-2.74-.28a4.48,4.48,0,0,1,1.54-3.25,5.1,5.1,0,0,1,3.22-1,4.67,4.67,0,0,1,3.33,1.14,3.74,3.74,0,0,1,1.21,2.84,5,5,0,0,1-.35,1.84,7.58,7.58,0,0,1-1.1,1.83,17.57,17.57,0,0,1-1.79,1.83c-.87.79-1.42,1.32-1.65,1.58a4.47,4.47,0,0,0-.56.76Z"/><path d="M419.63,410.64V407.9h2.74v2.74Z"/><path d="M424.64,407l2.73-.28a2.38,2.38,0,0,0,.7,1.47,1.88,1.88,0,0,0,2.78-.16,3.18,3.18,0,0,0,.6-2.11,2.9,2.9,0,0,0-.59-2,2,2,0,0,0-1.54-.66,2.8,2.8,0,0,0-2.12,1L425,404l1.41-7.45h7.25v2.57h-5.17l-.43,2.43a4.19,4.19,0,0,1,5,.87,4.75,4.75,0,0,1,1.27,3.45,5.13,5.13,0,0,1-1,3.15,4.54,4.54,0,0,1-3.87,1.89,4.83,4.83,0,0,1-3.24-1.06A4.37,4.37,0,0,1,424.64,407Z"/><path d="M435.74,399.86a4.15,4.15,0,0,1,.85-2.85,2.93,2.93,0,0,1,2.29-.93,3,3,0,0,1,2.34.92,5.27,5.27,0,0,1,0,5.71,3,3,0,0,1-2.29.93,3,3,0,0,1-2.34-.92A4.16,4.16,0,0,1,435.74,399.86Zm2.14,0a3.72,3.72,0,0,0,.32,1.87.79.79,0,0,0,.68.36.77.77,0,0,0,.68-.36,5.8,5.8,0,0,0,0-3.74.77.77,0,0,0-.68-.36.8.8,0,0,0-.68.35A3.79,3.79,0,0,0,437.88,399.84ZM441,411.19h-2l7.62-15.11h2Zm4.43-3.76a4.08,4.08,0,0,1,.85-2.85,3,3,0,0,1,2.31-.93,3,3,0,0,1,2.32.93,5.27,5.27,0,0,1,0,5.71,3,3,0,0,1-2.29.93,3,3,0,0,1-2.34-.93A4.11,4.11,0,0,1,445.4,407.43Zm2.14,0a3.67,3.67,0,0,0,.32,1.86.79.79,0,0,0,.68.36.75.75,0,0,0,.67-.35,3.63,3.63,0,0,0,.32-1.87,3.82,3.82,0,0,0-.31-1.88.79.79,0,0,0-.68-.35.78.78,0,0,0-.68.35A3.79,3.79,0,0,0,447.54,407.42Z"/></g></g></g></g><g id="Group_5187" data-name="Group 5187"><g id="Group_5186" data-name="Group 5186"><g id="_1.5_" data-name=" 1.5 " class="cls-3"><g class="cls-3"><path d="M520.22,417.34h-2.74V407a9.66,9.66,0,0,1-3.55,2.08v-2.49a7.91,7.91,0,0,0,2.33-1.34A5,5,0,0,0,518,403h2.23Z"/><path d="M524.91,417.34v-2.75h2.74v2.75Z"/><path d="M529.92,413.66l2.73-.29a2.37,2.37,0,0,0,.69,1.47,1.9,1.9,0,0,0,1.33.54,1.86,1.86,0,0,0,1.46-.69,3.18,3.18,0,0,0,.59-2.11,2.86,2.86,0,0,0-.59-2,2,2,0,0,0-1.54-.65,2.76,2.76,0,0,0-2.11,1l-2.23-.32,1.41-7.45h7.25v2.56h-5.17l-.43,2.44a4.07,4.07,0,0,1,1.87-.46,4.12,4.12,0,0,1,3.1,1.33,4.79,4.79,0,0,1,1.27,3.44,5.22,5.22,0,0,1-1,3.16,4.55,4.55,0,0,1-3.88,1.89,4.8,4.8,0,0,1-3.23-1.06A4.4,4.4,0,0,1,529.92,413.66Z"/><path d="M541,406.56a4.11,4.11,0,0,1,.85-2.86,3.36,3.36,0,0,1,4.62,0,5.22,5.22,0,0,1,0,5.71,2.93,2.93,0,0,1-2.29.93,3,3,0,0,1-2.33-.93A4.06,4.06,0,0,1,541,406.56Zm2.14,0a3.74,3.74,0,0,0,.32,1.87.84.84,0,0,0,1.36,0,5.8,5.8,0,0,0,0-3.74.77.77,0,0,0-.68-.36.79.79,0,0,0-.68.35A3.79,3.79,0,0,0,543.16,406.54Zm3.09,11.34h-2l7.63-15.1h2Zm4.43-3.76a4.15,4.15,0,0,1,.84-2.85,3.37,3.37,0,0,1,4.63,0,5.24,5.24,0,0,1,0,5.72,3,3,0,0,1-2.29.92,3,3,0,0,1-2.34-.92A4.19,4.19,0,0,1,550.68,414.12Zm2.14,0a3.56,3.56,0,0,0,.32,1.86.82.82,0,0,0,1.35,0,3.74,3.74,0,0,0,.32-1.87,3.79,3.79,0,0,0-.31-1.88.81.81,0,0,0-.69-.35.77.77,0,0,0-.67.35A3.65,3.65,0,0,0,552.82,414.12Z"/></g></g></g></g><g id="Group_5189" data-name="Group 5189"><g id="Group_5188" data-name="Group 5188"><g id="_1.0_" data-name=" 1.0 " class="cls-3"><g class="cls-3"><path d="M731,419h-2.74V408.67a9.37,9.37,0,0,1-3.55,2.08v-2.49a7.89,7.89,0,0,0,2.34-1.33,5.16,5.16,0,0,0,1.73-2.29H731Z"/><path d="M735.66,419v-2.74h2.75V419Z"/><path d="M745.27,404.64a3.9,3.9,0,0,1,3.25,1.48c.93,1.17,1.4,3.12,1.4,5.83s-.47,4.66-1.41,5.84a3.89,3.89,0,0,1-3.24,1.47,4.1,4.1,0,0,1-3.37-1.61q-1.27-1.61-1.28-5.73T742,406.1A3.91,3.91,0,0,1,745.27,404.64Zm0,2.27a1.39,1.39,0,0,0-.89.32,2.1,2.1,0,0,0-.6,1.14,22.68,22.68,0,0,0,0,7,2.44,2.44,0,0,0,.64,1.26,1.4,1.4,0,0,0,1.77,0,2.1,2.1,0,0,0,.6-1.13,22.68,22.68,0,0,0,0-7,2.44,2.44,0,0,0-.64-1.26A1.34,1.34,0,0,0,745.27,406.91Z"/><path d="M751.77,408.23a4.15,4.15,0,0,1,.85-2.85,2.94,2.94,0,0,1,2.29-.93,3,3,0,0,1,2.34.92,5.27,5.27,0,0,1,0,5.71A3,3,0,0,1,755,412a3,3,0,0,1-2.34-.92A4.16,4.16,0,0,1,751.77,408.23Zm2.14,0a3.65,3.65,0,0,0,.33,1.88.77.77,0,0,0,.67.35.79.79,0,0,0,.68-.35,3.79,3.79,0,0,0,.32-1.88,3.67,3.67,0,0,0-.32-1.86.78.78,0,0,0-.68-.37.76.76,0,0,0-.67.36A3.61,3.61,0,0,0,753.91,408.21ZM757,419.56h-2l7.62-15.11h2Zm4.43-3.76a4.1,4.1,0,0,1,.85-2.85,3,3,0,0,1,2.31-.93,3,3,0,0,1,2.32.93,5.27,5.27,0,0,1,0,5.71,3,3,0,0,1-2.29.93,3,3,0,0,1-2.34-.93A4.11,4.11,0,0,1,761.43,415.8Zm2.14,0a3.67,3.67,0,0,0,.32,1.86.77.77,0,0,0,.68.37.75.75,0,0,0,.67-.36,3.61,3.61,0,0,0,.32-1.87,3.82,3.82,0,0,0-.31-1.88.79.79,0,0,0-.68-.35.78.78,0,0,0-.68.35A3.79,3.79,0,0,0,763.57,415.79Z"/></g></g></g></g><g id="Group_5191" data-name="Group 5191"><g id="Group_5190" data-name="Group 5190"><g id="_0.8_" data-name=" 0.8 " class="cls-3"><g class="cls-3"><path d="M833.87,406.31a3.91,3.91,0,0,1,3.25,1.49q1.39,1.76,1.4,5.83t-1.41,5.84a3.91,3.91,0,0,1-3.24,1.46,4.08,4.08,0,0,1-3.37-1.61q-1.28-1.6-1.28-5.72t1.41-5.82A3.89,3.89,0,0,1,833.87,406.31Zm0,2.28a1.38,1.38,0,0,0-.89.31,2.21,2.21,0,0,0-.61,1.14,16.34,16.34,0,0,0-.28,3.59,15.41,15.41,0,0,0,.26,3.46,2.4,2.4,0,0,0,.63,1.25,1.4,1.4,0,0,0,1.78,0,2.1,2.1,0,0,0,.6-1.14,15.32,15.32,0,0,0,.29-3.57,15.52,15.52,0,0,0-.26-3.47,2.53,2.53,0,0,0-.64-1.26A1.35,1.35,0,0,0,833.87,408.59Z"/><path d="M840.94,420.69v-2.75h2.74v2.75Z"/><path d="M848.26,413a3.09,3.09,0,0,1-2-3,3.44,3.44,0,0,1,1.12-2.64,5.33,5.33,0,0,1,6.35,0,3.45,3.45,0,0,1,1.13,2.64,3.18,3.18,0,0,1-.52,1.78,3.3,3.3,0,0,1-1.46,1.18,3.81,3.81,0,0,1,1.81,1.4,3.65,3.65,0,0,1,.62,2.12A4.32,4.32,0,0,1,854,419.7a4.57,4.57,0,0,1-3.36,1.24,5.07,5.07,0,0,1-3.26-1,4,4,0,0,1-1.53-3.32,4.06,4.06,0,0,1,.58-2.13A3.69,3.69,0,0,1,848.26,413Zm.32,3.37a2.5,2.5,0,0,0,.58,1.77,1.88,1.88,0,0,0,1.45.63,1.81,1.81,0,0,0,1.4-.61,2.51,2.51,0,0,0,.56-1.76,2.29,2.29,0,0,0-.57-1.62,1.87,1.87,0,0,0-1.43-.61,1.71,1.71,0,0,0-1.5.7A2.51,2.51,0,0,0,848.58,416.33Zm.25-6.13a1.73,1.73,0,0,0,.46,1.28,1.72,1.72,0,0,0,3-1.29,1.67,1.67,0,0,0-.47-1.24,1.64,1.64,0,0,0-1.22-.46,1.71,1.71,0,0,0-1.26.47A1.67,1.67,0,0,0,848.83,410.2Z"/><path d="M857.05,409.91a4.11,4.11,0,0,1,.85-2.86,3,3,0,0,1,2.29-.92,3,3,0,0,1,2.34.92,5.27,5.27,0,0,1,0,5.71,3,3,0,0,1-2.29.92,3,3,0,0,1-2.34-.92A4.08,4.08,0,0,1,857.05,409.91Zm2.14,0a3.74,3.74,0,0,0,.32,1.87.8.8,0,0,0,.68.35.79.79,0,0,0,.68-.35,3.77,3.77,0,0,0,.31-1.87,3.72,3.72,0,0,0-.31-1.87.77.77,0,0,0-.68-.36.8.8,0,0,0-.68.35A3.76,3.76,0,0,0,859.19,409.89Zm3.09,11.34h-2l7.62-15.1h2Zm4.43-3.76a4.15,4.15,0,0,1,.84-2.85,3.35,3.35,0,0,1,4.63,0,5.22,5.22,0,0,1,0,5.71,2.93,2.93,0,0,1-2.29.93,3,3,0,0,1-2.34-.93A4.14,4.14,0,0,1,866.71,417.47Zm2.14,0a3.72,3.72,0,0,0,.32,1.87.82.82,0,0,0,1.35,0,5.74,5.74,0,0,0,0-3.75.77.77,0,0,0-.68-.35.75.75,0,0,0-.68.35A3.74,3.74,0,0,0,868.85,417.46Z"/></g></g></g></g><g id="Group_5193" data-name="Group 5193"><g id="Group_5192" data-name="Group 5192"><g id="_0.2_" data-name=" 0.2 " class="cls-3"><g class="cls-3"><path d="M939.14,409.66a3.92,3.92,0,0,1,3.26,1.48q1.4,1.77,1.39,5.83t-1.4,5.84a3.92,3.92,0,0,1-3.25,1.47,4.09,4.09,0,0,1-3.36-1.61c-.86-1.07-1.28-3-1.28-5.72s.46-4.64,1.4-5.83A3.93,3.93,0,0,1,939.14,409.66Zm0,2.28a1.35,1.35,0,0,0-.88.31,2.1,2.1,0,0,0-.61,1.14,23.59,23.59,0,0,0,0,7.05,2.44,2.44,0,0,0,.64,1.25,1.42,1.42,0,0,0,1.77,0,2.14,2.14,0,0,0,.61-1.14,23.53,23.53,0,0,0,0-7,2.44,2.44,0,0,0-.64-1.26A1.36,1.36,0,0,0,939.14,411.94Z"/><path d="M946.21,424v-2.74H949V424Z"/><path d="M960.45,421.49V424h-9.62a6.69,6.69,0,0,1,.94-2.73,18,18,0,0,1,3.09-3.44,19.7,19.7,0,0,0,2.27-2.34,3,3,0,0,0,.57-1.68,2,2,0,0,0-.49-1.41,1.85,1.85,0,0,0-1.37-.49,1.82,1.82,0,0,0-1.36.51,2.65,2.65,0,0,0-.59,1.72l-2.73-.27a4.45,4.45,0,0,1,1.53-3.25,5.13,5.13,0,0,1,3.22-1,4.67,4.67,0,0,1,3.33,1.14,3.74,3.74,0,0,1,1.21,2.84,5,5,0,0,1-.34,1.85,7.58,7.58,0,0,1-1.1,1.83,17,17,0,0,1-1.8,1.82c-.87.8-1.41,1.32-1.64,1.58a4.61,4.61,0,0,0-.57.77Z"/><path d="M962.33,413.25a4.15,4.15,0,0,1,.84-2.85,3,3,0,0,1,2.29-.93,3,3,0,0,1,2.34.93,4.11,4.11,0,0,1,.85,2.85,4.16,4.16,0,0,1-.85,2.86,3,3,0,0,1-2.29.92,3,3,0,0,1-2.34-.92A4.16,4.16,0,0,1,962.33,413.25Zm2.14,0a3.65,3.65,0,0,0,.32,1.88.78.78,0,0,0,.67.35.81.81,0,0,0,.69-.35,3.91,3.91,0,0,0,.31-1.88,3.81,3.81,0,0,0-.31-1.86.79.79,0,0,0-.69-.36.76.76,0,0,0-.67.35A3.63,3.63,0,0,0,964.47,413.23Zm3.08,11.35h-2l7.63-15.11h2Zm4.44-3.76a4.15,4.15,0,0,1,.84-2.85,3.35,3.35,0,0,1,4.63,0,5.27,5.27,0,0,1,0,5.71,2.94,2.94,0,0,1-2.29.93,3,3,0,0,1-2.34-.93A4.14,4.14,0,0,1,972,420.82Zm2.13,0a3.58,3.58,0,0,0,.33,1.87.81.81,0,0,0,1.34,0,3.65,3.65,0,0,0,.33-1.88,3.74,3.74,0,0,0-.32-1.87.77.77,0,0,0-.68-.35.74.74,0,0,0-.67.35A3.61,3.61,0,0,0,974.12,420.81Z"/></g></g></g></g><g id="Group_5195" data-name="Group 5195"><g id="Group_5194" data-name="Group 5194"><g id="_-" data-name=" -" class="cls-3"><g class="cls-3"><path d="M1035.5,485v-2.2h4.31V485Z"/></g></g></g></g><g id="Group_5197" data-name="Group 5197"><g id="Group_5196" data-name="Group 5196"><g id="_2.7_" data-name=" 2.7 " class="cls-3"><g class="cls-3"><path d="M1053.39,486.78v2.55h-9.62a6.45,6.45,0,0,1,.94-2.74,18.26,18.26,0,0,1,3.08-3.43,19.83,19.83,0,0,0,2.28-2.35,3,3,0,0,0,.56-1.68,1.91,1.91,0,0,0-.49-1.41,2.1,2.1,0,0,0-2.73,0,2.69,2.69,0,0,0-.59,1.72l-2.73-.28a4.47,4.47,0,0,1,1.53-3.25,5.16,5.16,0,0,1,3.23-1,4.68,4.68,0,0,1,3.33,1.15,3.77,3.77,0,0,1,1.21,2.84,5,5,0,0,1-.35,1.84,7.58,7.58,0,0,1-1.1,1.83,18.64,18.64,0,0,1-1.79,1.83c-.87.79-1.42,1.32-1.65,1.58a4.47,4.47,0,0,0-.56.76Z"/><path d="M1055.83,489.33v-2.74h2.74v2.74Z"/><path d="M1060.8,477.76v-2.55h9.38v2a15,15,0,0,0-2.36,3.28A19.18,19.18,0,0,0,1066,485a16.68,16.68,0,0,0-.62,4.3h-2.65a18.6,18.6,0,0,1,1.23-6.06,20.16,20.16,0,0,1,3.09-5.51Z"/><path d="M1071.94,478.55a4.1,4.1,0,0,1,.85-2.85,2.93,2.93,0,0,1,2.29-.93,3,3,0,0,1,2.34.92,5.27,5.27,0,0,1,0,5.71,3,3,0,0,1-2.29.93,3,3,0,0,1-2.34-.93A4.06,4.06,0,0,1,1071.94,478.55Zm2.14,0a3.74,3.74,0,0,0,.32,1.87.78.78,0,0,0,.68.35.77.77,0,0,0,.68-.35,5.8,5.8,0,0,0,0-3.74.77.77,0,0,0-.68-.36.8.8,0,0,0-.68.35A3.79,3.79,0,0,0,1074.08,478.53Zm3.09,11.35h-2l7.62-15.11h2Zm4.43-3.76a4.11,4.11,0,0,1,.85-2.86,3.36,3.36,0,0,1,4.62,0,5.24,5.24,0,0,1,0,5.72,2.93,2.93,0,0,1-2.29.93,3,3,0,0,1-2.33-.93A4.11,4.11,0,0,1,1081.6,486.12Zm2.14,0a3.67,3.67,0,0,0,.32,1.86.77.77,0,0,0,.68.36.75.75,0,0,0,.67-.35,3.74,3.74,0,0,0,.32-1.87,3.82,3.82,0,0,0-.31-1.88.79.79,0,0,0-.68-.35.78.78,0,0,0-.68.35A3.79,3.79,0,0,0,1083.74,486.11Z"/></g></g></g></g><g id="Group_5199" data-name="Group 5199"><g id="Group_5198" data-name="Group 5198"><g id="Group"><g id="_" data-name=" " class="cls-3"><g class="cls-3"><path d="M.57,498.86v-1.59H5.43v1.59Z"/><path d="M12.45,502.72H10.87V492.64a7.67,7.67,0,0,1-1.5,1.09,10.14,10.14,0,0,1-1.67.82V493A9.58,9.58,0,0,0,10,491.51a6.14,6.14,0,0,0,1.41-1.72h1Z"/><path d="M16.25,496.37a11.63,11.63,0,0,1,.47-3.68,4.57,4.57,0,0,1,1.4-2.15,3.56,3.56,0,0,1,2.33-.75,3.91,3.91,0,0,1,1.82.41,3.47,3.47,0,0,1,1.29,1.21,6.31,6.31,0,0,1,.8,1.91,13,13,0,0,1,.29,3.05,11.83,11.83,0,0,1-.47,3.66,4.5,4.5,0,0,1-1.39,2.15,3.56,3.56,0,0,1-2.34.76,3.54,3.54,0,0,1-2.93-1.33Q16.25,500,16.25,496.37Zm1.62,0c0,2.11.25,3.52.75,4.22a2.12,2.12,0,0,0,3.66,0c.5-.71.74-2.11.74-4.22s-.24-3.53-.74-4.23a2.18,2.18,0,0,0-1.85-1,2,2,0,0,0-1.74.92C18.15,492.8,17.87,494.25,17.87,496.37Z"/><path d="M26.31,492.93a3.9,3.9,0,0,1,.69-2.34,2.3,2.3,0,0,1,2-1,2.63,2.63,0,0,1,2,.86,3.66,3.66,0,0,1,.8,2.55,3.6,3.6,0,0,1-.81,2.52,2.55,2.55,0,0,1-2,.88,2.51,2.51,0,0,1-2-.87A3.84,3.84,0,0,1,26.31,492.93Zm2.75-2.22a1.18,1.18,0,0,0-1,.51,3.23,3.23,0,0,0-.39,1.87,3,3,0,0,0,.39,1.75,1.21,1.21,0,0,0,1,.5,1.22,1.22,0,0,0,1-.51,3.21,3.21,0,0,0,.39-1.86,3,3,0,0,0-.4-1.76A1.21,1.21,0,0,0,29.06,490.71Zm0,12.49,7-13.58H37.4l-7,13.58Zm5.57-3.5a3.91,3.91,0,0,1,.69-2.35,2.34,2.34,0,0,1,2-1,2.63,2.63,0,0,1,2,.86,3.66,3.66,0,0,1,.8,2.55,3.6,3.6,0,0,1-.81,2.52,2.6,2.6,0,0,1-2,.88,2.45,2.45,0,0,1-1.94-.88A3.82,3.82,0,0,1,34.64,499.7Zm2.76-2.22a1.2,1.2,0,0,0-1,.51,3.23,3.23,0,0,0-.39,1.87,2.94,2.94,0,0,0,.39,1.74,1.22,1.22,0,0,0,2,0,3.21,3.21,0,0,0,.39-1.86,2.89,2.89,0,0,0-.4-1.76A1.21,1.21,0,0,0,37.4,497.48Z"/></g></g></g></g></g><g id="Group_5201" data-name="Group 5201"><g id="Group_5200" data-name="Group 5200"><g class="cls-3"><g class="cls-3"><path d="M12.45,442.79a11.93,11.93,0,0,1,.47-3.68,4.53,4.53,0,0,1,1.4-2.14,3.53,3.53,0,0,1,2.33-.76,3.79,3.79,0,0,1,1.82.42,3.52,3.52,0,0,1,1.29,1.2,6.38,6.38,0,0,1,.8,1.92,12.37,12.37,0,0,1,.29,3,11.83,11.83,0,0,1-.46,3.66,4.6,4.6,0,0,1-1.4,2.16,3.59,3.59,0,0,1-2.34.76A3.55,3.55,0,0,1,13.72,448Q12.44,446.42,12.45,442.79Zm1.63,0c0,2.12.24,3.53.74,4.23a2.11,2.11,0,0,0,3.66,0c.5-.7.75-2.11.75-4.22s-.25-3.53-.75-4.22a2.19,2.19,0,0,0-1.85-1.05,2.05,2.05,0,0,0-1.74.92Q14.08,439.63,14.08,442.79Z"/><path d="M22.81,439.36a3.87,3.87,0,0,1,.7-2.35,2.33,2.33,0,0,1,2-1,2.61,2.61,0,0,1,2,.87,4.42,4.42,0,0,1,0,5.06,2.58,2.58,0,0,1-2,.88,2.51,2.51,0,0,1-1.95-.87A3.82,3.82,0,0,1,22.81,439.36Zm2.75-2.23a1.21,1.21,0,0,0-1,.51,3.25,3.25,0,0,0-.39,1.87,2.94,2.94,0,0,0,.4,1.75,1.18,1.18,0,0,0,1,.5,1.2,1.2,0,0,0,1-.51,3.19,3.19,0,0,0,.39-1.86,3,3,0,0,0-.39-1.75A1.2,1.2,0,0,0,25.56,437.13Zm0,12.49,7-13.58h1.29l-7,13.58Zm5.58-3.5a3.93,3.93,0,0,1,.69-2.35,2.34,2.34,0,0,1,2-1,2.61,2.61,0,0,1,2,.87,4.38,4.38,0,0,1,0,5.06,2.58,2.58,0,0,1-2,.88,2.51,2.51,0,0,1-1.95-.87A3.86,3.86,0,0,1,31.15,446.12Zm2.76-2.22a1.2,1.2,0,0,0-1,.51,3.23,3.23,0,0,0-.39,1.87,2.94,2.94,0,0,0,.39,1.74,1.21,1.21,0,0,0,2,0,3.2,3.2,0,0,0,.4-1.86,2.92,2.92,0,0,0-.4-1.75A1.19,1.19,0,0,0,33.91,443.9Z"/></g></g></g></g><g id="Group_5203" data-name="Group 5203"><g id="Group_5202" data-name="Group 5202"><g class="cls-3"><g class="cls-3"><path d="M10.5,395.57H8.92V385.49a8.45,8.45,0,0,1-1.5,1.09,11,11,0,0,1-1.67.82v-1.53a9.58,9.58,0,0,0,2.32-1.51,6.14,6.14,0,0,0,1.41-1.72h1Z"/><path d="M14.6,389.22a11.89,11.89,0,0,1,.47-3.68,4.59,4.59,0,0,1,1.4-2.15,3.6,3.6,0,0,1,2.33-.75,3.76,3.76,0,0,1,1.82.41,3.42,3.42,0,0,1,1.3,1.21,6.58,6.58,0,0,1,.8,1.91,13,13,0,0,1,.29,3.05,11.83,11.83,0,0,1-.47,3.66A4.5,4.5,0,0,1,21.15,395a3.57,3.57,0,0,1-2.35.76,3.52,3.52,0,0,1-2.92-1.33C15,393.38,14.6,391.64,14.6,389.22Zm1.63,0c0,2.11.25,3.52.74,4.22a2.13,2.13,0,0,0,3.67,0c.49-.71.74-2.11.74-4.22s-.25-3.53-.74-4.23a2.21,2.21,0,0,0-1.85-1.05,2,2,0,0,0-1.74.93C16.5,385.65,16.23,387.1,16.23,389.22Z"/><path d="M25,385.78a4,4,0,0,1,.69-2.35,2.33,2.33,0,0,1,2-1,2.63,2.63,0,0,1,2,.86,3.66,3.66,0,0,1,.8,2.55,3.6,3.6,0,0,1-.81,2.52,2.55,2.55,0,0,1-2,.88,2.48,2.48,0,0,1-1.94-.87A3.84,3.84,0,0,1,25,385.78Zm2.75-2.22a1.19,1.19,0,0,0-1,.51,3.23,3.23,0,0,0-.39,1.87,2.9,2.9,0,0,0,.39,1.74,1.21,1.21,0,0,0,2,0,3.21,3.21,0,0,0,.39-1.86,2.89,2.89,0,0,0-.4-1.76A1.21,1.21,0,0,0,27.72,383.56Zm0,12.49,7.05-13.58h1.28l-7,13.58Zm5.57-3.5A3.91,3.91,0,0,1,34,390.2a2.36,2.36,0,0,1,2-1,2.59,2.59,0,0,1,2,.86,3.66,3.66,0,0,1,.8,2.55,3.56,3.56,0,0,1-.81,2.51,2.58,2.58,0,0,1-2,.89,2.47,2.47,0,0,1-1.94-.88A3.82,3.82,0,0,1,33.3,392.55Zm2.76-2.22a1.2,1.2,0,0,0-1,.51,3.23,3.23,0,0,0-.39,1.87,2.94,2.94,0,0,0,.39,1.74,1.22,1.22,0,0,0,2,0,3.23,3.23,0,0,0,.39-1.87,2.87,2.87,0,0,0-.4-1.75A1.18,1.18,0,0,0,36.06,390.33Z"/></g></g></g></g><g id="Group_5205" data-name="Group 5205"><g id="Group_5204" data-name="Group 5204"><g class="cls-3"><g class="cls-3"><path d="M12.85,338.8v1.52H4.34a2.77,2.77,0,0,1,.18-1.1,6,6,0,0,1,1-1.71,17,17,0,0,1,2.07-1.95,17.59,17.59,0,0,0,2.84-2.73,3.27,3.27,0,0,0,.74-1.9,2.11,2.11,0,0,0-.67-1.59,2.44,2.44,0,0,0-1.76-.64,2.43,2.43,0,0,0-1.82.68,2.61,2.61,0,0,0-.7,1.9l-1.62-.17a4,4,0,0,1,1.25-2.77,4.27,4.27,0,0,1,2.93-.95,4.08,4.08,0,0,1,2.93,1A3.37,3.37,0,0,1,12.84,331a3.84,3.84,0,0,1-.32,1.52,5.84,5.84,0,0,1-1,1.58A25.44,25.44,0,0,1,9,336.32c-.95.8-1.56,1.34-1.83,1.63a5.53,5.53,0,0,0-.67.85Z"/><path d="M14.6,334a11.93,11.93,0,0,1,.47-3.68,4.64,4.64,0,0,1,1.4-2.15,3.6,3.6,0,0,1,2.33-.75,3.88,3.88,0,0,1,1.82.41,3.42,3.42,0,0,1,1.3,1.21,6.58,6.58,0,0,1,.8,1.91A13,13,0,0,1,23,334a11.83,11.83,0,0,1-.47,3.66,4.5,4.5,0,0,1-1.39,2.15,3.57,3.57,0,0,1-2.35.76,3.52,3.52,0,0,1-2.92-1.33C15,338.13,14.6,336.39,14.6,334Zm1.63,0c0,2.11.25,3.52.74,4.22a2.13,2.13,0,0,0,3.67,0c.49-.71.74-2.11.74-4.22s-.25-3.53-.74-4.23a2.2,2.2,0,0,0-1.85-1,2,2,0,0,0-1.74.92C16.5,330.4,16.23,331.85,16.23,334Z"/><path d="M25,330.53a3.9,3.9,0,0,1,.69-2.34,2.32,2.32,0,0,1,2-1,2.63,2.63,0,0,1,2,.86,3.66,3.66,0,0,1,.8,2.55,3.6,3.6,0,0,1-.81,2.52,2.55,2.55,0,0,1-2,.88,2.48,2.48,0,0,1-1.94-.87A3.84,3.84,0,0,1,25,330.53Zm2.75-2.22a1.19,1.19,0,0,0-1,.51,3.23,3.23,0,0,0-.39,1.87,3,3,0,0,0,.39,1.75,1.22,1.22,0,0,0,1,.5,1.2,1.2,0,0,0,1-.51,3.21,3.21,0,0,0,.39-1.86,2.91,2.91,0,0,0-.4-1.76A1.21,1.21,0,0,0,27.72,328.31Zm0,12.49,7.05-13.58h1.28L29,340.8Zm5.57-3.5A3.91,3.91,0,0,1,34,335a2.36,2.36,0,0,1,2-1,2.62,2.62,0,0,1,2,.86,3.66,3.66,0,0,1,.8,2.55,3.56,3.56,0,0,1-.81,2.51,2.58,2.58,0,0,1-2,.89,2.47,2.47,0,0,1-1.94-.88A3.82,3.82,0,0,1,33.3,337.3Zm2.76-2.22a1.2,1.2,0,0,0-1,.51,3.23,3.23,0,0,0-.39,1.87,2.94,2.94,0,0,0,.39,1.74,1.22,1.22,0,0,0,2,0,3.21,3.21,0,0,0,.39-1.86,2.89,2.89,0,0,0-.4-1.76A1.18,1.18,0,0,0,36.06,335.08Z"/></g></g></g></g><g id="Group_5207" data-name="Group 5207"><g id="Group_5206" data-name="Group 5206"><g class="cls-3"><g class="cls-3"><path d="M4.55,283.35l1.58-.22a3.43,3.43,0,0,0,.93,1.94,2.26,2.26,0,0,0,1.59.6,2.56,2.56,0,0,0,1.89-.78,2.6,2.6,0,0,0,.77-1.91,2.41,2.41,0,0,0-.72-1.8,2.45,2.45,0,0,0-1.81-.71,4.43,4.43,0,0,0-1.11.18l.17-1.39.26,0a3.29,3.29,0,0,0,1.82-.53,1.8,1.8,0,0,0,.81-1.63,1.93,1.93,0,0,0-.59-1.44,2.11,2.11,0,0,0-1.52-.57,2.14,2.14,0,0,0-1.54.58,3,3,0,0,0-.79,1.74l-1.58-.28A4.1,4.1,0,0,1,6,274.68a3.84,3.84,0,0,1,2.56-.87,4.23,4.23,0,0,1,1.94.45,3.22,3.22,0,0,1,1.36,1.24,3.1,3.1,0,0,1,.47,1.66,2.71,2.71,0,0,1-.45,1.52,3,3,0,0,1-1.32,1.09,3,3,0,0,1,1.77,1.09,3.37,3.37,0,0,1,.64,2.08,3.8,3.8,0,0,1-1.24,2.86A4.33,4.33,0,0,1,8.64,287a4,4,0,0,1-2.81-1A3.85,3.85,0,0,1,4.55,283.35Z"/><path d="M14.6,280.39a11.93,11.93,0,0,1,.47-3.68,4.61,4.61,0,0,1,1.4-2.14,3.55,3.55,0,0,1,2.33-.76,3.76,3.76,0,0,1,1.82.42,3.48,3.48,0,0,1,1.3,1.2,6.64,6.64,0,0,1,.8,1.92,12.88,12.88,0,0,1,.29,3,11.83,11.83,0,0,1-.47,3.66,4.59,4.59,0,0,1-1.39,2.16,3.62,3.62,0,0,1-2.35.76,3.53,3.53,0,0,1-2.92-1.34Q14.6,284,14.6,280.39Zm1.63,0c0,2.12.25,3.53.74,4.23a2.12,2.12,0,0,0,3.67,0c.49-.7.74-2.11.74-4.22s-.25-3.53-.74-4.22a2.21,2.21,0,0,0-1.85-1.05,2,2,0,0,0-1.74.92C16.5,276.83,16.23,278.28,16.23,280.39Z"/><path d="M25,277a3.93,3.93,0,0,1,.69-2.35,2.32,2.32,0,0,1,2-1,2.61,2.61,0,0,1,2,.87,4.38,4.38,0,0,1,0,5.06,2.55,2.55,0,0,1-2,.88,2.48,2.48,0,0,1-1.94-.87A3.82,3.82,0,0,1,25,277Zm2.75-2.23a1.19,1.19,0,0,0-1,.51,3.25,3.25,0,0,0-.39,1.87,3,3,0,0,0,.39,1.75,1.21,1.21,0,0,0,2,0A3.21,3.21,0,0,0,29.1,277a2.85,2.85,0,0,0-.4-1.75A1.19,1.19,0,0,0,27.72,274.73Zm0,12.49,7.05-13.58h1.28l-7,13.58Zm5.57-3.5a3.93,3.93,0,0,1,.69-2.35,2.36,2.36,0,0,1,2-1,2.6,2.6,0,0,1,2,.87,4.38,4.38,0,0,1,0,5.06,2.57,2.57,0,0,1-2,.88,2.49,2.49,0,0,1-1.94-.87A3.86,3.86,0,0,1,33.3,283.72Zm2.76-2.22a1.2,1.2,0,0,0-1,.51,3.23,3.23,0,0,0-.39,1.87,2.94,2.94,0,0,0,.39,1.74,1.22,1.22,0,0,0,2,0,3.21,3.21,0,0,0,.39-1.86A2.85,2.85,0,0,0,37,282,1.19,1.19,0,0,0,36.06,281.5Z"/></g></g></g></g><g id="Group_5209" data-name="Group 5209"><g id="Group_5208" data-name="Group 5208"><g class="cls-3"><g class="cls-3"><path d="M9.61,233.17v-3.08H4v-1.45l5.88-8.35h1.29v8.35h1.74v1.45H11.19v3.08Zm0-4.53v-5.81l-4,5.81Z"/><path d="M14.6,226.82a11.89,11.89,0,0,1,.47-3.68,4.59,4.59,0,0,1,1.4-2.15,3.6,3.6,0,0,1,2.33-.76,3.76,3.76,0,0,1,1.82.42,3.42,3.42,0,0,1,1.3,1.21,6.58,6.58,0,0,1,.8,1.91,13,13,0,0,1,.29,3,11.83,11.83,0,0,1-.47,3.66,4.55,4.55,0,0,1-1.39,2.15,3.57,3.57,0,0,1-2.35.76,3.52,3.52,0,0,1-2.92-1.33C15,231,14.6,229.24,14.6,226.82Zm1.63,0c0,2.11.25,3.52.74,4.22a2.13,2.13,0,0,0,3.67,0c.49-.71.74-2.11.74-4.22s-.25-3.53-.74-4.23a2.21,2.21,0,0,0-1.85-1.05,2,2,0,0,0-1.74.93C16.5,223.25,16.23,224.7,16.23,226.82Z"/><path d="M25,223.38a4,4,0,0,1,.69-2.35,2.33,2.33,0,0,1,2-1,2.63,2.63,0,0,1,2,.86,3.66,3.66,0,0,1,.8,2.55,3.6,3.6,0,0,1-.81,2.52,2.58,2.58,0,0,1-2,.88,2.48,2.48,0,0,1-1.94-.87A3.84,3.84,0,0,1,25,223.38Zm2.75-2.22a1.19,1.19,0,0,0-1,.51,3.23,3.23,0,0,0-.39,1.87,2.9,2.9,0,0,0,.39,1.74,1.21,1.21,0,0,0,2,0,3.21,3.21,0,0,0,.39-1.86,2.89,2.89,0,0,0-.4-1.76A1.21,1.21,0,0,0,27.72,221.16Zm0,12.49,7.05-13.58h1.28l-7,13.58Zm5.57-3.5A3.91,3.91,0,0,1,34,227.8a2.36,2.36,0,0,1,2-1,2.59,2.59,0,0,1,2,.86,3.66,3.66,0,0,1,.8,2.55,3.57,3.57,0,0,1-.81,2.51,2.58,2.58,0,0,1-2,.89,2.47,2.47,0,0,1-1.94-.88A3.83,3.83,0,0,1,33.3,230.15Zm2.76-2.22a1.21,1.21,0,0,0-1,.5,3.26,3.26,0,0,0-.39,1.88,2.94,2.94,0,0,0,.39,1.74,1.22,1.22,0,0,0,2,0,3.23,3.23,0,0,0,.39-1.87,2.87,2.87,0,0,0-.4-1.75A1.18,1.18,0,0,0,36.06,227.93Z"/></g></g></g></g><g id="Group_5211" data-name="Group 5211"><g id="Group_5210" data-name="Group 5210"><g class="cls-3"><g class="cls-3"><path d="M4.54,176.22l1.66-.14a2.92,2.92,0,0,0,.86,1.82,2.32,2.32,0,0,0,1.62.61,2.5,2.5,0,0,0,1.93-.86,3.21,3.21,0,0,0,.79-2.28,2.93,2.93,0,0,0-.76-2.14,2.64,2.64,0,0,0-2-.78,2.77,2.77,0,0,0-1.38.35,2.6,2.6,0,0,0-1,.9l-1.49-.19,1.25-6.62h6.41v1.51H7.33l-.69,3.46a4.17,4.17,0,0,1,2.43-.81,3.85,3.85,0,0,1,2.85,1.17,4.06,4.06,0,0,1,1.16,3,4.69,4.69,0,0,1-1,3,4.08,4.08,0,0,1-3.38,1.57,4.16,4.16,0,0,1-2.87-1A3.8,3.8,0,0,1,4.54,176.22Z"/><path d="M14.6,173.24a11.93,11.93,0,0,1,.47-3.68,4.64,4.64,0,0,1,1.4-2.15,3.6,3.6,0,0,1,2.33-.75,3.76,3.76,0,0,1,1.82.42,3.4,3.4,0,0,1,1.3,1.2,6.53,6.53,0,0,1,.8,1.92,12.82,12.82,0,0,1,.29,3,11.83,11.83,0,0,1-.47,3.66,4.59,4.59,0,0,1-1.39,2.16,3.62,3.62,0,0,1-2.35.76,3.53,3.53,0,0,1-2.92-1.34Q14.6,176.88,14.6,173.24Zm1.63,0c0,2.12.25,3.52.74,4.22a2.13,2.13,0,0,0,3.67,0c.49-.7.74-2.11.74-4.22s-.25-3.53-.74-4.23a2.22,2.22,0,0,0-1.85-1,2,2,0,0,0-1.74.92C16.5,169.68,16.23,171.13,16.23,173.24Z"/><path d="M25,169.8a3.92,3.92,0,0,1,.69-2.34,2.32,2.32,0,0,1,2-1,2.61,2.61,0,0,1,2,.87,4.38,4.38,0,0,1,0,5.06,2.55,2.55,0,0,1-2,.88,2.48,2.48,0,0,1-1.94-.87A3.83,3.83,0,0,1,25,169.8Zm2.75-2.22a1.19,1.19,0,0,0-1,.51,3.23,3.23,0,0,0-.39,1.87,3,3,0,0,0,.39,1.75,1.22,1.22,0,0,0,1,.5,1.2,1.2,0,0,0,1-.51,3.21,3.21,0,0,0,.39-1.86,2.85,2.85,0,0,0-.4-1.75A1.19,1.19,0,0,0,27.72,167.58Zm0,12.49,7.05-13.58h1.28l-7,13.58Zm5.57-3.5a3.93,3.93,0,0,1,.69-2.35,2.36,2.36,0,0,1,2-1,2.62,2.62,0,0,1,2,.86,3.66,3.66,0,0,1,.8,2.55,3.6,3.6,0,0,1-.81,2.52,2.57,2.57,0,0,1-2,.88,2.49,2.49,0,0,1-1.94-.87A3.86,3.86,0,0,1,33.3,176.57Zm2.76-2.22a1.2,1.2,0,0,0-1,.51,3.23,3.23,0,0,0-.39,1.87,2.94,2.94,0,0,0,.39,1.74,1.22,1.22,0,0,0,2,0,3.21,3.21,0,0,0,.39-1.86,2.91,2.91,0,0,0-.4-1.76A1.21,1.21,0,0,0,36.06,174.35Z"/></g></g></g></g><g id="Group_5213" data-name="Group 5213"><g id="Group_5212" data-name="Group 5212"><g id="企" class="cls-3"><g class="cls-3"><path class="cls-4" d="M99.09,519l-.42.56a19.8,19.8,0,0,0,8.25,5.12,5.89,5.89,0,0,0-1.5,2.06,22.92,22.92,0,0,1-8.13-5.56,25.53,25.53,0,0,1-8,5.56,8.88,8.88,0,0,0-1.62-2c3.58-1.4,7.24-3.78,9.24-6.78Zm-.42,15.13h7.17v2.14h-17v-2.14H91v-7h2.36v7h2.8V523.84h2.52V528H104v2.14H98.67Z"/><path class="cls-4" d="M115.61,533.66a15.31,15.31,0,0,1-5.82,2.67,9.27,9.27,0,0,0-1.4-1.72,16.76,16.76,0,0,0,5.54-1.71Zm10.61-3.38v2h-7.77v4.57h-2.36v-4.57h-7.62v-2h7.62v-.88h-5.76v-1.72h5.76v-.9h-6.76V525H113a11.12,11.12,0,0,0-.74-1.46l1.34-.3h-5.1v-1.86h2.72a18.28,18.28,0,0,0-1.28-2.48l2-.68a13,13,0,0,1,1.52,2.8l-1,.36h1.84V518.1h2.2v3.26h1.5V518.1h2.25v3.26h1.78l-.72-.22a17.57,17.57,0,0,0,1.28-2.88l2.5.58c-.56.92-1.1,1.82-1.6,2.52h2.58v1.86h-5.28l1.88.48c-.44.48-.86.92-1.22,1.28h3.86v1.8h-7v.9h6v1.72h-6v.88Zm-11.55-7.06a9.29,9.29,0,0,1,.8,1.5l-1.08.26h5.47l-.73-.22c.32-.46.75-1.06,1-1.54Zm6.25,9.56c1.62.6,4,1.61,5.26,2.25l-1.68,1.3c-1.16-.66-3.5-1.72-5.19-2.43Z"/><path class="cls-4" d="M134.27,518.8a34,34,0,0,1-1.72,3.7v14.25h-2.32V526.12a17.94,17.94,0,0,1-1.46,1.7,16.33,16.33,0,0,0-1.22-2.44,20.87,20.87,0,0,0,4.52-7.28Zm5.38,15.35a17.12,17.12,0,0,1-4.58,2.68,12.42,12.42,0,0,0-1.88-1.64,14,14,0,0,0,4.18-1.89Zm-.8-13.61h-4.38v-1.48h4.38v-1h2.41v1h4.56v1.48h-4.56v.66h4.14v1.4h-4.14v.68h5.24v1.58H133.61v-1.58h5.24v-.68h-4v-1.4h4Zm4.19,12.7a24.23,24.23,0,0,1,3.6,2.47L144.5,537a21.75,21.75,0,0,0-3.66-2.78l2.06-.93H135v-7.72H145.3v7.72Zm-5.75-5.48h5.61V527h-5.61Zm0,2h5.61V529h-5.61Zm0,2h5.61V531h-5.61Z"/></g></g></g></g><g id="Group_5213-2" data-name="Group 5213"><g id="Group_5212-2" data-name="Group 5212"><g id="企-2" data-name="企" class="cls-3"><g class="cls-3"><path class="cls-4" d="M201.46,526.06v2.08h6.39v2.14h-3.16l2,.72c-.7,1.12-1.48,2.32-2.1,3.18h4.3v2.19H191.58v-2.19h3.94a16.61,16.61,0,0,0-1.66-3.24l1.58-.66h-2.9v-2.14h6.36v-2.08h-4.06v-1q-1.26.6-2.58,1.08a8.61,8.61,0,0,0-1.58-2.2c3.76-1.08,7.36-3.1,9.26-6.08l2.26,1-.56.8a22.3,22.3,0,0,0,8.21,4.26,11.54,11.54,0,0,0-1.64,2.08,26.42,26.42,0,0,1-2.72-1.16v1.18Zm-5.58,4.22a13.68,13.68,0,0,1,1.74,3.18l-1.64.72h2.92v-3.9Zm7.85-6.4a22.59,22.59,0,0,1-3.47-2.6,17.77,17.77,0,0,1-3.24,2.6Zm-2.27,6.4v3.9H204l-1.35-.56a18.37,18.37,0,0,0,1.77-3.34Z"/><path class="cls-4" d="M211,518.84H221v2H211Zm9.54,15.65c0,.86-.12,1.36-.68,1.66a4.48,4.48,0,0,1-2.2.32,7.42,7.42,0,0,0-.5-1.78c.52,0,1.08,0,1.24,0s.24-.06.24-.24v-6.11h-5.5v8.41h-1.8V526.62h9.2Zm-.54-8.57h-8v-4.34h8Zm-5.52,5.34a9.46,9.46,0,0,0-.92-2.12l1.22-.44a8.79,8.79,0,0,1,1,2.06Zm2.24,1.46v3.37h-1.68v-3.37h-1.44v-1.44h2.24a23,23,0,0,0,1.08-2.7l1.44.58c-.38.68-.74,1.46-1.1,2.12h.88v1.44Zm1.16-9.56H214v1.16h3.9Zm10,13.61c-.06-.44-.14-1-.26-1.56-2.16.4-4.34.8-6.07,1.14l-.5-2.17c.84-.09,1.86-.23,3-.42V530.1h-2.69v-8.22H224V518.4h2.06v3.48h2.72v8.22h-2.72v3.34l1.1-.18c-.18-.68-.36-1.4-.56-2l1.6-.32a38,38,0,0,1,1.38,5.43ZM223,528.06h1.23V523.9H223ZM227,523.9h-1.16v4.16H227Z"/><path class="cls-4" d="M237.18,518.8a34,34,0,0,1-1.72,3.7v14.25h-2.32V526.12a17.94,17.94,0,0,1-1.46,1.7,16.33,16.33,0,0,0-1.22-2.44A20.87,20.87,0,0,0,235,518.1Zm5.38,15.35a17.12,17.12,0,0,1-4.58,2.68,12.42,12.42,0,0,0-1.88-1.64,14,14,0,0,0,4.18-1.89Zm-.8-13.61h-4.38v-1.48h4.38v-1h2.41v1h4.56v1.48h-4.56v.66h4.14v1.4h-4.14v.68h5.24v1.58H236.52v-1.58h5.24v-.68h-4v-1.4h4Zm4.19,12.7a24.23,24.23,0,0,1,3.6,2.47L247.41,537a21.75,21.75,0,0,0-3.66-2.78l2.06-.93h-7.89v-7.72h10.29v7.72Zm-5.75-5.48h5.61V527H240.2Zm0,2h5.61V529H240.2Zm0,2h5.61V531H240.2Z"/></g></g></g></g><rect class="cls-2" x="607.65" y="437.96" width="60.27" height="6.7"/><g id="Group_5181" data-name="Group 5181"><g id="Group_5180" data-name="Group 5180"><g id="_1.2_" data-name=" 1.2 " class="cls-3"><g class="cls-3"><path d="M623.51,424h-2.74V413.69a9.44,9.44,0,0,1-3.55,2.08v-2.49a7.89,7.89,0,0,0,2.34-1.33,5.11,5.11,0,0,0,1.73-2.29h2.22Z"/><path d="M628.2,424v-2.74h2.74V424Z"/><path d="M642.44,421.49V424h-9.62a6.55,6.55,0,0,1,.94-2.73,18.24,18.24,0,0,1,3.08-3.44,19.25,19.25,0,0,0,2.28-2.34,3,3,0,0,0,.57-1.68,1.91,1.91,0,0,0-.5-1.41,1.84,1.84,0,0,0-1.36-.5,1.86,1.86,0,0,0-1.37.52,2.66,2.66,0,0,0-.58,1.72l-2.74-.27a4.46,4.46,0,0,1,1.54-3.25,5.11,5.11,0,0,1,3.22-1,4.67,4.67,0,0,1,3.33,1.14,3.74,3.74,0,0,1,1.21,2.84,4.94,4.94,0,0,1-.35,1.84,7.44,7.44,0,0,1-1.1,1.84,17.73,17.73,0,0,1-1.79,1.82c-.87.8-1.42,1.32-1.65,1.58a4.52,4.52,0,0,0-.56.77Z"/><path d="M644.31,413.25a4.15,4.15,0,0,1,.85-2.85,2.94,2.94,0,0,1,2.29-.93,3,3,0,0,1,2.34.93,5.25,5.25,0,0,1,0,5.7,3,3,0,0,1-2.29.93,3,3,0,0,1-2.34-.92A4.16,4.16,0,0,1,644.31,413.25Zm2.14,0a3.79,3.79,0,0,0,.32,1.88.8.8,0,0,0,.68.35.79.79,0,0,0,.68-.35,3.82,3.82,0,0,0,.31-1.88,3.7,3.7,0,0,0-.31-1.86.83.83,0,0,0-1.36,0A3.74,3.74,0,0,0,646.45,413.23Zm3.09,11.35h-2l7.62-15.11h2Zm4.43-3.76a4.1,4.1,0,0,1,.85-2.85,3,3,0,0,1,2.31-.93,3,3,0,0,1,2.32.93,5.27,5.27,0,0,1,0,5.71,3,3,0,0,1-2.29.93,3,3,0,0,1-2.34-.93A4.11,4.11,0,0,1,654,420.82Zm2.14,0a3.74,3.74,0,0,0,.32,1.87.79.79,0,0,0,.68.36.77.77,0,0,0,.67-.35,3.68,3.68,0,0,0,.32-1.88,3.77,3.77,0,0,0-.31-1.87.77.77,0,0,0-.68-.35.75.75,0,0,0-.68.35A3.74,3.74,0,0,0,656.11,420.81Z"/></g></g></g></g><g id="Group_5213-3" data-name="Group 5213"><g id="Group_5212-3" data-name="Group 5212"><g id="企-3" data-name="企" class="cls-3"><g class="cls-3"><path class="cls-4" d="M607.44,519.4a30.3,30.3,0,0,1-6,8.76,22.93,22.93,0,0,0-2.12-2,20.92,20.92,0,0,0,5.42-7.58Zm5.6,9.18a62.32,62.32,0,0,1,4.44,6.91l-2.46,1.3a21.59,21.59,0,0,0-1-2c-9.66.76-11,.88-12,1.24a22.24,22.24,0,0,0-1-2.55,4.73,4.73,0,0,0,2-1.6,36.44,36.44,0,0,0,4.92-7.58l2.78,1.16a44.93,44.93,0,0,1-5.4,7.54l7.34-.48c-.64-1-1.3-2-1.92-2.92Zm.38-10a12.87,12.87,0,0,0,5.14,7.12,12.33,12.33,0,0,0-1.8,2.4,17.69,17.69,0,0,1-5.18-7.06h-3.2v-2.46Z"/><path class="cls-4" d="M636.84,534c0,1.28-.28,1.92-1.08,2.28a9.29,9.29,0,0,1-3.84.42,9,9,0,0,0-.76-2.28c1.12.06,2.44,0,2.8,0s.52-.12.52-.48v-3h-4.22v5.59h-2.4v-5.59h-4.08a11.49,11.49,0,0,1-2.52,5.95,8.79,8.79,0,0,0-1.88-1.54c2.18-2.41,2.36-6,2.36-8.77v-7.14h15.1Zm-9-5.27v-2.46H624.1v.36c0,.64,0,1.36-.06,2.1Zm-3.76-7V524h3.76V521.7Zm10.38,0h-4.22V524h4.22Zm0,7v-2.46h-4.22v2.46Z"/><path class="cls-4" d="M658.1,531.22H656v3.49H653.6v-.83H650v.63c0,1.18-.28,1.66-1.06,2a10.53,10.53,0,0,1-3.54.34,7.33,7.33,0,0,0-.78-1.88c1,0,2.14,0,2.46,0s.5-.14.5-.5v-.63H641.5v-1.72h6.08v-.94h-7.92V529.4h7.92v-.86h-5.92v-1.6h5.92v-.88h-5.42v-4h5.42v-.82h-7.46V519.4h7.46v-1.3H650v1.3h7.64v1.88H650v.82h5.68v4H650v.88h6v2.46h2.08Zm-10.52-6.66v-1h-3.14v1Zm2.42-1v1h3.24v-1Zm0,5.8h3.6v-.86H650Zm3.6,1.82H650v.94h3.6Z"/><path class="cls-4" d="M667.18,533.66a15.31,15.31,0,0,1-5.82,2.67,9.27,9.27,0,0,0-1.4-1.72,16.76,16.76,0,0,0,5.54-1.71Zm10.6-3.38v2H670v4.57h-2.36v-4.57H660v-2h7.62v-.88H661.9v-1.72h5.76v-.9H660.9V525h3.68a11.12,11.12,0,0,0-.74-1.46l1.34-.3h-5.1v-1.86h2.72a18.28,18.28,0,0,0-1.28-2.48l2-.68a13,13,0,0,1,1.52,2.8l-1,.36H666V518.1h2.2v3.26h1.5V518.1h2.24v3.26h1.78l-.72-.22a17.57,17.57,0,0,0,1.28-2.88l2.5.58c-.56.92-1.1,1.82-1.6,2.52h2.58v1.86h-5.28l1.88.48c-.44.48-.86.92-1.22,1.28H677v1.8H670v.9h6v1.72h-6v.88Zm-11.54-7.06a9.29,9.29,0,0,1,.8,1.5L666,525h5.46l-.72-.22c.32-.46.74-1.06,1-1.54Zm6.24,9.56c1.62.6,4,1.61,5.26,2.25l-1.68,1.3c-1.16-.66-3.5-1.72-5.18-2.43Z"/></g></g></g></g><g id="Group_5213-4" data-name="Group 5213"><g id="Group_5212-4" data-name="Group 5212"><g id="企-4" data-name="企" class="cls-3"><g class="cls-3"><path class="cls-4" d="M299.53,529.42a20.23,20.23,0,0,0-.82-1.94v9.31h-2v-7.73a18.45,18.45,0,0,1-1.36,3.58,16,16,0,0,0-.92-2.36,20.12,20.12,0,0,0,2.16-6.26H294.9v-2.2h1.76V518.1h2v3.72h1.34V524h-1.34v.88c.44.62,1.58,2.46,1.84,2.94Zm12.66,1.38a11.78,11.78,0,0,1-2.2,2.94,2,2,0,0,0,1.24.73c.38,0,.62-.69.76-2.09a6.13,6.13,0,0,0,1.5,1.26c-.52,2.49-1.32,3.19-2.18,3.13a4.11,4.11,0,0,1-2.94-1.7,14.81,14.81,0,0,1-3.16,1.66,9.46,9.46,0,0,0-1.22-1.52,12.52,12.52,0,0,0,3.44-1.81,16.74,16.74,0,0,1-1-3.2h-2.72c0,.14,0,.3,0,.44.82.66,2,1.58,2.54,2.16l-1.44,1.41a16.42,16.42,0,0,0-1.5-1.45,8.25,8.25,0,0,1-2.72,4,7.37,7.37,0,0,0-1.58-1.36,6.51,6.51,0,0,0,2.72-5.21h-1.18v-1.82h5.58a65,65,0,0,1-.68-7,26.2,26.2,0,0,1-2.72,4.16l1.12-.12c-.1-.3-.18-.62-.26-.9l1.38-.36a24.77,24.77,0,0,1,.8,2.88l-1.48.44a6.19,6.19,0,0,0-.12-.68,14.7,14.7,0,0,0-3.14.62c-.1-.32-.36-1.18-.56-1.62a2,2,0,0,0,1-.88,15.28,15.28,0,0,0,1-1.46,5.45,5.45,0,0,0-1.6.34c-.1-.36-.38-1.16-.56-1.6a1.38,1.38,0,0,0,.72-.72,15.07,15.07,0,0,0,1.34-3.2l1.7.44a20.16,20.16,0,0,1-1.72,3.34l.9-.08c.2-.4.4-.82.56-1.24l1.66.56c0-1-.08-2-.12-3h2a66,66,0,0,0,.84,10.12h1.84c-.34-.3-.72-.6-1-.86l.9-.74a4.77,4.77,0,0,0-1.42.36,15.56,15.56,0,0,0-.54-1.64,2.27,2.27,0,0,0,1-.92,9.74,9.74,0,0,0,.92-1.42,5.19,5.19,0,0,0-1.56.34c-.12-.36-.38-1.14-.58-1.6.26-.06.48-.32.7-.68a14.49,14.49,0,0,0,1.2-3l1.7.46a16.47,16.47,0,0,1-1.56,3.08l.9-.06c.18-.4.36-.84.52-1.24l1.72.56a25.44,25.44,0,0,1-2.66,4.24l1.1-.12c-.1-.28-.18-.58-.28-.84l1.36-.38a29.27,29.27,0,0,1,.92,2.9l-1.42.5c0-.24-.1-.52-.18-.82l-1.26.2a16.08,16.08,0,0,1,1.52,1.22l-.52.48h1.6v1.82h-2.32Zm-3.76-.6a13.86,13.86,0,0,0,.54,1.74,9.19,9.19,0,0,0,1.18-1.74Z"/><path class="cls-4" d="M320.67,530.7c-.26-.62-.7-1.56-1.14-2.46v8.53h-2.17v-7.49a16.87,16.87,0,0,1-1.82,3.94,11.41,11.41,0,0,0-1-2.1,20,20,0,0,0,2.68-6.7H315v-2.2h2.4V518.1h2.17v4.12h2v2.2h-2v.94c.56.78,2,3.08,2.36,3.64Zm12.82,2.94h-1.08v.87c0,1-.2,1.5-.86,1.82a7.47,7.47,0,0,1-2.86.32,8.28,8.28,0,0,0-.62-1.88c.74,0,1.56,0,1.8,0s.34-.06.34-.3v-.85h-5.62v3h-2.14v-3h-1.22V531.9h1.22v-5h3.84v-.76h-4.7v-1.68h2.48v-.84h-1.64V522h1.64v-.82H322v-1.64h2.06V518.1h2.2v1.46h2.2V518.1h2.22v1.46h2.24v1.64h-2.24V522h1.92v1.6h-1.92v.84h2.6v1.68h-4.86v.76h4v5h1.08Zm-8.9-5.1v.86h1.7v-.86Zm0,3.36h1.7v-1h-1.7Zm1.68-9.88h2.2v-.82h-2.2Zm0,2.44h2.2v-.84h-2.2Zm2.16,4.08v.86h1.78v-.86Zm1.78,3.36v-1h-1.78v1Z"/><path class="cls-4" d="M341,518.8a34,34,0,0,1-1.72,3.7v14.25h-2.33V526.12a17.94,17.94,0,0,1-1.46,1.7,16.33,16.33,0,0,0-1.22-2.44,20.88,20.88,0,0,0,4.53-7.28Zm5.38,15.35a17.12,17.12,0,0,1-4.58,2.68,12.42,12.42,0,0,0-1.88-1.64,14,14,0,0,0,4.18-1.89Zm-.8-13.61h-4.38v-1.48h4.38v-1H348v1h4.56v1.48H348v.66h4.14v1.4H348v.68h5.24v1.58H340.33v-1.58h5.24v-.68h-4v-1.4h4Zm4.18,12.7a24.23,24.23,0,0,1,3.6,2.47L351.21,537a21.75,21.75,0,0,0-3.66-2.78l2.06-.93h-7.88v-7.72H352v7.72ZM344,527.76h5.6V527H344Zm0,2h5.6V529H344Zm0,2h5.6V531H344Z"/></g></g></g></g><g id="Group_5213-5" data-name="Group 5213"><g id="Group_5212-5" data-name="Group 5212"><g id="企-5" data-name="企" class="cls-3"><g class="cls-3"><path class="cls-4" d="M393.78,531.16a19.19,19.19,0,0,1-2,4.11,17.15,17.15,0,0,0-1.56-1.09,14.28,14.28,0,0,0,1.76-3.54Zm2.8-1.16v6.65h-2.3V530h-3.72v-2h3.72v-1.54h-3.84v-2h1.94a12,12,0,0,0-.58-2.08l1.64-.4h-2.7v-1.94h3.42c-.18-.54-.4-1.1-.6-1.58l2.38-.58c.3.66.66,1.48.9,2.16h2.86V522h-2.5l1.62.32c-.3.76-.6,1.54-.9,2.16H400v2h-3.42V528h3.1v2Zm-2.88-8a9.9,9.9,0,0,1,.66,2.08l-1.44.4h2.88a22.75,22.75,0,0,0,.86-2.48Zm15.22,4.86h-1.86v9.83h-2.32v-9.83h-1.86v.24c0,2.94-.26,7.06-2,9.63a8.88,8.88,0,0,0-1.84-1.42,7.73,7.73,0,0,0,.9-2l-1.42.89a23.56,23.56,0,0,0-1.56-3l1.56-.84a19.77,19.77,0,0,1,1.5,2.62,21.62,21.62,0,0,0,.62-5.92V520a28.39,28.39,0,0,0,6.06-1.7l1.82,1.74a31,31,0,0,1-5.68,1.5v3.14h6Z"/><path class="cls-4" d="M428.7,532.14h-5.62c1.92.9,4,2,5.2,2.73l-1.58,1.82a44.58,44.58,0,0,0-5.48-3.13l1.12-1.42h-6.1l1.78,1.44a37.6,37.6,0,0,1-6.18,3.19A20.72,20.72,0,0,0,410.5,535a26.14,26.14,0,0,0,5.48-2.85H410.5V530h1.44l-.28-10.48a22.1,22.1,0,0,0,3.32-1.26l1,1.94V519h7.26V530h2c0-.56.06-1.14.1-1.76h-1.68v-1.88h1.76c0-.56,0-1.14,0-1.72h-1.64v-1.9h1.7c0-.64,0-1.24,0-1.86h-1.78v-1.92h3.86c0,3.5-.18,7.94-.36,11h1.42ZM413.94,530h2v-9.7c-.76.22-1.52.44-2.28.62l.06,1.8h1.74v1.9h-1.7l0,1.7h1.68v1.9H413.9Zm3.7-9.14V530h3.88v-9.14Zm3.4,2.48H418.1v-1.46h3Zm-2.86,1h2.88v4.5h-2.88Zm1,3.14h.9v-1.78h-.9Z"/><path class="cls-4" d="M440.8,523.12v2.24h6.44v6.74c0,1.18-.24,1.85-1.08,2.21a9,9,0,0,1-3.52.4,8.27,8.27,0,0,0-.8-2.35c1,.06,2.18.06,2.48,0s.44-.08.44-.34v-4.38h-4v9h-2.48v-9h-3.7v7h-2.4v-9.35h6.1v-2.24h-7.78V520.8h8c-.3-.72-.68-1.54-1-2.2l2.36-.74c.5.92,1.16,2.12,1.5,2.94h7.38v2.32Z"/><path class="cls-4" d="M461,528.12c-.16.32-.36.64-.56,1h8.12s0,.54,0,.82c-.28,3.9-.6,5.51-1.14,6.09a1.86,1.86,0,0,1-1.32.68,12.57,12.57,0,0,1-2,0,4.74,4.74,0,0,0-.54-1.86c.64.06,1.16.06,1.42.06a.68.68,0,0,0,.6-.22c.28-.3.52-1.33.74-3.75h-.78a14.29,14.29,0,0,1-4,5.93,6.55,6.55,0,0,0-1.68-1.32,11,11,0,0,0,3.72-4.61h-1.18a15.29,15.29,0,0,1-4.68,5,7,7,0,0,0-1.56-1.4,12.1,12.1,0,0,0,4.08-3.63H459a12.45,12.45,0,0,1-2.32,2,8.24,8.24,0,0,0-1.56-1.4l-4.1,2-.88-2.4c.68-.26,1.52-.6,2.46-1v-5.64h-2v-2.24h2v-3.94h2.2v3.94h1.88v2.24h-1.88v4.72l1.6-.7.42,1.7a9.74,9.74,0,0,0,1.84-2.12h-2.26v-2H469v2Zm6.6-2.76h-9.46V518.6h9.46Zm-2.2-5.12h-5.16v1h5.16Zm0,2.52h-5.16v1h5.16Z"/><path class="cls-4" d="M418.62,557.83v2.34h-17.9v-2.34h7.6V554h-5.7v-2.3h5.7V548.2h-6.76v-2.32h8a29.56,29.56,0,0,0-3-2.44l2-1.36a22.71,22.71,0,0,1,3.84,3l-1.06.78h6.34v2.32h-6.7v3.46h5.74V554h-5.74v3.87Z"/><path class="cls-4" d="M425.88,553.36c-.18-.44-.5-1.1-.84-1.76v9.19H423V552.4a20.87,20.87,0,0,1-1.86,4.62,13,13,0,0,0-1-2.42A21.86,21.86,0,0,0,422.7,548h-2.14v-2.2H423V542.1H425v3.72h1.88V548H425v.88c.48.56,1.8,2.4,2.12,2.88Zm8.36,5.13h4.6v1.66H430v.66h-2.1V555c-.24.26-.5.48-.74.7a11.6,11.6,0,0,0-1.1-2,11.7,11.7,0,0,0,2.8-3.46h-1.48v-4h4.94v4h-2.22l.8.28c-.16.34-.32.68-.5,1h1.74c-.08-.26-.18-.52-.26-.76l1.94-.54h-.72v-4h5v4h-4.24c.16.4.32.86.46,1.3h4V553h-4.1v.78h3.42v1.52h-3.42v.8h3.42v1.52h-3.42Zm-4.32-13.33h-3.2v-1.72h3.2V542.1h2v3.82h-2Zm-.86,3.64h1.48v-1.08h-1.48Zm3.12,5V553H430v.78Zm0,1.52H430v.8h2.2Zm-2.2,3.15h2.2v-.83H430Zm9-15v1.72h-3.48v.74h-2.06v-3.8h2.06v1.34Zm-4.16,5.36h1.54v-1.08H434.8Z"/><path class="cls-4" d="M446.6,542.8a34,34,0,0,1-1.72,3.7v14.25h-2.32V550.12a17.94,17.94,0,0,1-1.46,1.7,16.33,16.33,0,0,0-1.22-2.44,20.87,20.87,0,0,0,4.52-7.28ZM452,558.15a17.12,17.12,0,0,1-4.58,2.68,12.42,12.42,0,0,0-1.88-1.64,14,14,0,0,0,4.18-1.89Zm-.8-13.61H446.8v-1.48h4.38v-1h2.4v1h4.56v1.48h-4.56v.66h4.14v1.4h-4.14v.68h5.24v1.58H445.94v-1.58h5.24v-.68h-4v-1.4h4Zm4.18,12.7a24.23,24.23,0,0,1,3.6,2.47L456.82,561a21.75,21.75,0,0,0-3.66-2.78l2.06-.93h-7.88v-7.72h10.28v7.72Zm-5.74-5.48h5.6V551h-5.6Zm0,2h5.6V553h-5.6Zm0,2h5.6V555h-5.6Z"/></g></g></g></g><g id="Group_5213-6" data-name="Group 5213"><g id="Group_5212-6" data-name="Group 5212"><g id="企-6" data-name="企"><g class="cls-3"><path class="cls-4" d="M511.44,518.92a22.56,22.56,0,0,1-4.61,4.88,17.2,17.2,0,0,0-1.26-1.72,15,15,0,0,0,3.76-4Zm.6,3.92a21.29,21.29,0,0,1-1.67,2.66v11.31h-2.32v-8.53c-.4.4-.82.78-1.2,1.12a14.32,14.32,0,0,0-1.24-2.18,16.47,16.47,0,0,0,4.34-5.14Zm2.92,5a18.38,18.38,0,0,0-3.52-2.12l1.28-1.7a19.18,19.18,0,0,1,3.56,1.92Zm-3.38,6.89a60.82,60.82,0,0,0,4-6.35l1.68,1.54c-1.12,2.1-2.48,4.43-3.74,6.35Zm3.74-12.15a16,16,0,0,0-3.16-2.3l1.42-1.58a19.12,19.12,0,0,1,3.26,2.1Zm9,4h-2.06v7.62c0,1.13-.18,1.77-.9,2.15a6.41,6.41,0,0,1-3,.42,9.44,9.44,0,0,0-.66-2.32c.82,0,1.66,0,1.94,0s.34-.08.34-.3v-7.59H517v-2.18h7.3Zm-.28-5.3H517.4V519.1H524Z"/><path class="cls-4" d="M544.14,533.88v2.35h-18v-2.35h7.73v-4h-5.43v-2.3h5.43V524h-4.15a16.48,16.48,0,0,1-1.86,2.9,18.91,18.91,0,0,0-2.14-1.42,17.21,17.21,0,0,0,3.54-7.16l2.47.54c-.28,1-.6,1.9-.94,2.82h3.08v-3.6h2.5v3.6h6.74V524h-6.74v3.52h6v2.3h-6v4Z"/><path class="cls-4" d="M564.34,533.88v2.27H551.9v-2.27h5.34v-4h-3.86v-2.22h3.86v-3.28H555a13.66,13.66,0,0,1-1.12,2.76,21,21,0,0,0-2.12-1.08c.2-.36.4-.74.6-1.16l-1.14.52a13.15,13.15,0,0,0-.77-2.3v13.67h-2.38V522.48a25.49,25.49,0,0,1-.9,5.3l-1.76-.64a23.77,23.77,0,0,0,1-5.2l1.68.24V518.1h2.38v3.78l1.17-.48a22.93,22.93,0,0,1,1.1,2.52,24.21,24.21,0,0,0,1.06-4.88l2.32.32c-.14.94-.3,1.88-.5,2.78h1.6v-3.92h2.38v3.92h4.08v2.24h-4.08v3.28h3.66v2.22h-3.66v4Z"/><path class="cls-4" d="M533.08,558c0,1.28-.28,1.92-1.08,2.28a9.29,9.29,0,0,1-3.84.42,9,9,0,0,0-.76-2.28c1.12.06,2.44,0,2.8,0s.52-.12.52-.48v-3H526.5v5.59h-2.4v-5.59H520a11.49,11.49,0,0,1-2.52,5.95,8.79,8.79,0,0,0-1.88-1.54c2.18-2.41,2.36-6,2.36-8.77v-7.14h15.11Zm-9-5.27v-2.46h-3.77v.36c0,.64,0,1.36-.06,2.1Zm-3.77-7V548h3.77V545.7Zm10.39,0H526.5V548h4.22Zm0,7v-2.46H526.5v2.46Z"/><path class="cls-4" d="M536.53,551.78h7.63v8.91h-2.38v-.9h-3v1h-2.26Zm2.26,2.28v3.44h3v-3.44ZM551,550.12H539.29v-7.24H551Zm-2.42-5h-7v2.7h7Zm5.12,6.62v8.93h-2.4v-.92h-3.18v1h-2.28v-9Zm-2.4,5.72v-3.44h-3.18v3.44Z"/></g></g></g></g><g id="Group_5213-7" data-name="Group 5213"><g id="Group_5212-7" data-name="Group 5212"><g id="企-7" data-name="企" class="cls-3"><g class="cls-3"><path class="cls-4" d="M719.43,521.66c1.08,1.06,3.2,1.56,5.9,1.7a7.71,7.71,0,0,0-1.32,1.9,9.55,9.55,0,0,1-5.24-2c-.76.88-2.42,1.66-5.78,2a6.74,6.74,0,0,0-.8-1.3h-5.3v-1.82h6v1.22c3.82-.4,4.32-1.3,4.32-2V521h-1.2a8.73,8.73,0,0,1-1.4,1.72,11.42,11.42,0,0,0-1.76-1.22,8.05,8.05,0,0,0,2.34-3.56l2.08.46c-.1.3-.22.6-.34.88h5.68l.36-.1,1.62.5a17.52,17.52,0,0,1-1.84,3.16L721,522.2a11.83,11.83,0,0,0,.7-1.16h-2.22v.62Zm.54,11.76c1.84.69,3.8,1.49,5,2.07l-2.14,1.28a36.82,36.82,0,0,0-5.2-2.36l1.22-1h-5.64l1.74.81a26,26,0,0,1-6.24,2.6,16.09,16.09,0,0,0-1.76-1.74,22.36,22.36,0,0,0,5.46-1.67h-2.88V525.3h13.38v8.12Zm-7.5-12.6h-5.12v-1.74h5.12Zm-.66,6.76h8.66v-.86h-8.66Zm0,2.2h8.66v-.86h-8.66Zm0,2.24h8.66v-.9h-8.66Z"/><path class="cls-4" d="M745.41,534.39v1.92h-14.7v-1.92h6.06v-1.17h-4.24v-1.44a11.22,11.22,0,0,1-1.14,1.22,13.23,13.23,0,0,0-.94-2,11.8,11.8,0,0,1-2.14,6,8.46,8.46,0,0,0-1.84-1.54c1.62-2,1.78-4.85,1.78-6.91V525H731a10,10,0,0,0-1-.92c1.44-.22,3-.5,4.56-.86-1.26-.32-2.56-.6-3.74-.82l1.12-.86h-3.44V519.7h7a11.71,11.71,0,0,0-.76-1l1.6-.78a11.85,11.85,0,0,1,1.34,1.82h6.92v1.86h-2.9l1,.6c-.72.34-1.56.68-2.46,1,1.18.32,2.26.64,3.16.94l-1.12.92h2.94v1.9H730.57v1.68a19.83,19.83,0,0,1-.1,2.1,9.81,9.81,0,0,0,2.28-3.6l2,.6c-.1.26-.2.52-.32.8h2.32v-1.22h2.34v1.22h4.94v1.86h-4.94v1h4.36v1.82h-4.36v1.17Zm-8.64-3v-1h-3.26c-.22.36-.44.7-.68,1Zm4.08-6.38c-1-.34-2.18-.68-3.44-1-1.44.38-2.9.72-4.3,1Zm-7.2-3.46c1.26.28,2.58.58,3.9.9a19.92,19.92,0,0,0,2.62-.9Z"/><path class="cls-4" d="M765.23,527.1v1.38h-9.74v-.18c-.16,2.8-.64,6.11-2,8.47a7.3,7.3,0,0,0-1.78-1.08c1.62-2.87,1.78-6.91,1.78-9.67v-1.44l-.2.16a5.19,5.19,0,0,0-.56-.66h-1.62v2.84l1.6-.44.28,2.14c-.62.2-1.26.4-1.88.58v5.07c0,1.1-.2,1.7-.8,2.08a5.11,5.11,0,0,1-2.76.44,8.85,8.85,0,0,0-.6-2.2,15.77,15.77,0,0,0,1.64,0c.24,0,.34-.08.34-.34v-4.45l-1.9.56-.52-2.28c.7-.16,1.5-.34,2.42-.58v-3.44h-2.1v-2.2H749v-3.76h2.18v3.76h1.78v.48a12.72,12.72,0,0,0,2.86-4.28l2.14.34-.42.92h2.8l.32-.08,1.48,1a16.83,16.83,0,0,1-.9,1.62H765v1.64h-2.16v.8c0,.38,0,.56.34.56h.74a4.83,4.83,0,0,0,1.08-.12c0,.48.06.9.14,1.38a4,4,0,0,1-1.18.12h-1.38c-1.44,0-1.68-.7-1.68-2v-.78h-1.16c-.2,1.7-1,2.68-3.62,3.12a4.27,4.27,0,0,0-.58-1V526c0,.34,0,.72,0,1.1h3.66c-.12-.36-.28-.74-.4-1.06l1.84-.52c.22.46.48,1.08.66,1.58Zm-9.68-2c1.54-.26,2-.74,2.22-1.62h-2.22Zm1.06-4.18c-.18.32-.4.62-.6.92h2.92a9.8,9.8,0,0,0,.42-.92Zm-.54,11.88h8.5v4h-2.18v-.68h-4.24v.68h-2.08Zm8.34-2.48h-8.14v-1.24h8.14Zm-8.14.62h8.14v1.22h-8.14Zm1.88,3.06v.85h4.24V534Z"/><path class="cls-4" d="M773.37,518.86a30.07,30.07,0,0,1-2,4.14v13.73h-2.26V526.44c-.46.58-.94,1.12-1.4,1.62a15.9,15.9,0,0,0-1.28-2.44,21.09,21.09,0,0,0,4.72-7.48Zm3.5,12.16a25.55,25.55,0,0,1-3.06,4.89,12.5,12.5,0,0,0-1.84-1.28,18.3,18.3,0,0,0,2.76-4.25Zm3.22-1.26v7h-2.4v-7h-5.22V527.6h5.22v-1.76h-3.92V519h10.5v6.88h-4.18v1.76h5.18v2.16Zm-4.06-6h5.86v-2.68H776Zm6.5,6.62a22.92,22.92,0,0,1,2.94,4.23l-1.88,1.14a26.63,26.63,0,0,0-2.82-4.39Z"/><path class="cls-4" d="M723.15,552.72c-.62.2-1.28.4-1.92.58V558c0,1.11-.18,1.69-.8,2a4.82,4.82,0,0,1-2.74.46,7.82,7.82,0,0,0-.62-2.18c.74,0,1.42,0,1.66,0s.34-.08.34-.34v-4l-1.9.56-.52-2.3c.7-.14,1.5-.36,2.42-.58v-3.54H717v-2.2h2.1v-3.76h2.16v3.76h1.82v2.2h-1.82v3c.54-.16,1.1-.3,1.62-.46Zm8.44-1.84c.42,4,1.1,6.84,1.78,6.86.26,0,.46-.86.56-2.46a6,6,0,0,0,1.58,1.22c-.46,3.15-1.36,3.91-2.14,3.91-2.18,0-3.34-3.83-3.92-9.53h-3.12v4.94l2.44-.82a12.2,12.2,0,0,0,.18,1.84c-3.86,1.43-4.54,1.77-5,2.11a6.15,6.15,0,0,0-.84-1.89,1.49,1.49,0,0,0,1-1.42V544.22l0,0,0-.06a45,45,0,0,0,8.7-2.06l1.78,1.78a27.89,27.89,0,0,1-3.42,1c0,1.32.1,2.6.2,3.8h3.76v2.2Zm-5.84,7.51h5v1.92h-5Zm3.5-9.71c-.08-1.06-.14-2.18-.18-3.34-.9.18-1.84.34-2.74.48v2.86Z"/><path class="cls-4" d="M743.37,552.88l-2,.54v4.73c0,1.12-.2,1.68-.84,2a5.6,5.6,0,0,1-2.82.44,8.64,8.64,0,0,0-.66-2.12c.72,0,1.46,0,1.7,0s.34-.08.34-.36V554l-1.82.48-.62-2.28c.72-.16,1.54-.34,2.44-.56V548.1h-2.18v-2.2h2.18v-3.78h2.28v3.78h1.92v2.2h-1.92v3l1.7-.4Zm11.42-9.64V555h-2.42V554h-1.94v6.77h-2.24V554h-2v1h-2.32V543.24Zm-8.56,2.16v2.12h2V545.4Zm2,6.46v-2.18h-2v2.18Zm4.18-6.46h-1.94v2.12h1.94Zm0,6.46v-2.18h-1.94v2.18Z"/><path class="cls-4" d="M763,542.8a34,34,0,0,1-1.72,3.7v14.25H759V550.12a17.94,17.94,0,0,1-1.46,1.7,16.33,16.33,0,0,0-1.22-2.44,20.87,20.87,0,0,0,4.52-7.28Zm5.38,15.35a17.12,17.12,0,0,1-4.58,2.68,12.42,12.42,0,0,0-1.88-1.64,14,14,0,0,0,4.18-1.89Zm-.8-13.61h-4.38v-1.48h4.38v-1H770v1h4.56v1.48H770v.66h4.14v1.4H770v.68h5.24v1.58H762.37v-1.58h5.24v-.68h-4v-1.4h4Zm4.18,12.7a24.23,24.23,0,0,1,3.6,2.47L773.25,561a21.75,21.75,0,0,0-3.66-2.78l2.06-.93h-7.88v-7.72h10.28v7.72Zm-5.74-5.48h5.6V551h-5.6Zm0,2h5.6V553h-5.6Zm0,2h5.6V555h-5.6Z"/></g></g></g></g><g id="Group_5213-8" data-name="Group 5213"><g id="Group_5212-8" data-name="Group 5212"><g id="企-8" data-name="企" class="cls-3"><g class="cls-3"><path class="cls-4" d="M840.57,527.1v1.38h-9.74v-.18c-.16,2.8-.64,6.11-2,8.47a7.3,7.3,0,0,0-1.78-1.08c1.62-2.87,1.78-6.91,1.78-9.67v-1.44l-.2.16a5.19,5.19,0,0,0-.56-.66h-1.62v2.84l1.6-.44.28,2.14c-.62.2-1.26.4-1.88.58v5.07c0,1.1-.2,1.7-.8,2.08a5.11,5.11,0,0,1-2.76.44,8.85,8.85,0,0,0-.6-2.2,15.77,15.77,0,0,0,1.64,0c.24,0,.34-.08.34-.34v-4.45l-1.9.56-.52-2.28c.7-.16,1.5-.34,2.42-.58v-3.44h-2.1v-2.2h2.1v-3.76h2.18v3.76h1.78v.48a12.72,12.72,0,0,0,2.86-4.28l2.14.34-.42.92h2.8l.32-.08,1.48,1a16.83,16.83,0,0,1-.9,1.62h3.82v1.64h-2.16v.8c0,.38,0,.56.34.56h.74a4.83,4.83,0,0,0,1.08-.12c0,.48.06.9.14,1.38a4,4,0,0,1-1.18.12h-1.38c-1.44,0-1.68-.7-1.68-2v-.78h-1.16c-.2,1.7-1,2.68-3.62,3.12a4.27,4.27,0,0,0-.58-1V526c0,.34,0,.72,0,1.1h3.66c-.12-.36-.28-.74-.4-1.06l1.84-.52c.22.46.48,1.08.66,1.58Zm-9.68-2c1.54-.26,2-.74,2.22-1.62h-2.22Zm1.06-4.18c-.18.32-.4.62-.6.92h2.92a9.8,9.8,0,0,0,.42-.92Zm-.54,11.88h8.5v4h-2.18v-.68h-4.24v.68h-2.08Zm8.34-2.48h-8.14v-1.24h8.14Zm-8.14.62h8.14v1.22h-8.14Zm1.88,3.06v.85h4.24V534Z"/><path class="cls-4" d="M848.71,518.86a30.07,30.07,0,0,1-2,4.14v13.73h-2.26V526.44c-.46.58-.94,1.12-1.4,1.62a15.9,15.9,0,0,0-1.28-2.44,21.09,21.09,0,0,0,4.72-7.48Zm3.5,12.16a25.55,25.55,0,0,1-3.06,4.89,12.5,12.5,0,0,0-1.84-1.28,18.3,18.3,0,0,0,2.76-4.25Zm3.22-1.26v7H853v-7h-5.22V527.6H853v-1.76h-3.92V519h10.5v6.88h-4.18v1.76h5.18v2.16Zm-4.06-6h5.86v-2.68h-5.86Zm6.5,6.62a22.92,22.92,0,0,1,2.94,4.23l-1.88,1.14a26.63,26.63,0,0,0-2.82-4.39Z"/><path class="cls-4" d="M876,533.74c1.64.57,3.26,1.17,4.32,1.65l-1.74,1.42a45.15,45.15,0,0,0-5.68-2.3l.76-.77h-4.88l1.46.69a25.43,25.43,0,0,1-6.26,2.4,12.7,12.7,0,0,0-1.72-1.72,24.22,24.22,0,0,0,5.22-1.37h-2.62V527.8c-.46.1-1,.2-1.48.28a8.16,8.16,0,0,0-1.14-1.86,10.29,10.29,0,0,0,4.66-1.4h-3.22a35.62,35.62,0,0,0,.58-3.64h3.82v-.8h-4.54V519h4.54v-.88h2.16V519h2.22v-.88h2.26V519H879v3.58h-4.24v.88h5.52s0,.38,0,.62a4.06,4.06,0,0,1-.56,2.3,1.57,1.57,0,0,1-1.14.48l-.32,0v6.88Zm-10-10.3h1.9a4.25,4.25,0,0,0,.14-.88h-1.9Zm1.16,4v.8h8.6v-.8Zm0,2.06v.82h8.6v-.82Zm0,2.92h8.6v-.84h-8.6Zm2.58-7.58a4.32,4.32,0,0,1-.94,1.26h3.64v-1.26Zm2.7-2.26h-2.22c0,.3,0,.6-.08.88h2.3Zm-2.22-1.38h2.22v-.8h-2.22Zm4.48-.8v.8h2.08v-.8Zm0,4.44v1.26h1.78a2.85,2.85,0,0,0-.28-.66,6.17,6.17,0,0,0,1.12.06.51.51,0,0,0,.42-.12,1.19,1.19,0,0,0,.14-.54Z"/></g></g></g></g><g id="Group_5213-9" data-name="Group 5213"><g id="Group_5212-9" data-name="Group 5212"><g id="企-9" data-name="企"><g class="cls-3"><path class="cls-4" d="M945.46,523.34a23.72,23.72,0,0,1,1.66,5.08l-2,1a21.08,21.08,0,0,0-1.18-4.44c0,4.12-.5,8.66-4.28,11.83a8.93,8.93,0,0,0-1.72-1.86,9.92,9.92,0,0,0,3.4-6.39l-1.68.8a38.31,38.31,0,0,0-1.5-5.24l1.86-.8a36,36,0,0,1,1.44,4.2,25.19,25.19,0,0,0,.12-2.72v-6.32h2.36V524Zm9.76-5v18.21h-2.38v-8.39l-1.78,1a22.65,22.65,0,0,0-1.62-4.44v10.75h-2.32V518.88h2.32v5l1.46-.72a25.8,25.8,0,0,1,1.94,4.38v-9.22Z"/><path class="cls-4" d="M975.08,523.94a23,23,0,0,1-2.32,7.7,9.79,9.79,0,0,0,3.74,3.09,8.88,8.88,0,0,0-1.62,2,10.7,10.7,0,0,1-3.58-3,12.55,12.55,0,0,1-4.08,3.11,9.28,9.28,0,0,0-1.34-2.1,10.14,10.14,0,0,0,4.08-3.11,22.33,22.33,0,0,1-1.64-4.4,9.46,9.46,0,0,1-.7,1,11.41,11.41,0,0,0-1.1-1.08v.18h-2.28v4.1l2.82-.6.2,2.18c-3.28.76-6.82,1.53-9.38,2.11l-.42-2.43,1-.18V524h2.14v8.14l1.28-.24v-10.3h-4v-2.28h9.16v2.28h-2.84v3.5h2.28v.5A20,20,0,0,0,969,518.1l2.36.36c-.18,1.12-.44,2.22-.72,3.28h5.68v2.2Zm-5.26.26a23.56,23.56,0,0,0,1.52,5,19.37,19.37,0,0,0,1.34-5.3h-2.76Z"/><path class="cls-4" d="M934,552.6l.54,2.12c-2.08,1-4.32,2.1-6.14,2.92l-1-2.4c.74-.26,1.62-.58,2.6-1V549h-2.16V546.7h2.16v-4.34h2.2v4.34h1.86V549h-1.86v4.38Zm8.92,5.69c1.08,0,1.28-.46,1.46-2.51a6.18,6.18,0,0,0,2.08.86c-.32,2.81-1,3.77-3.34,3.77H938.9c-2.7,0-3.48-.74-3.48-3.49v-5.16l-1.08.46-.88-2.1,2-.84V544h2.28v4.28l1.66-.7v-5.52h2.22v4.56l2.18-.94,1.8.58-.08.36a66.16,66.16,0,0,1-.88,8.82l-1.94-.54c.22-1.62.38-4.16.46-6.52l-1.54.68v7.06h-2.22V550l-1.66.72v6.18c0,1.17.18,1.35,1.4,1.35Z"/><path class="cls-4" d="M955.8,547.64c-.06.8-.1,1.6-.2,2.4h8.58a9.73,9.73,0,0,1-.08,1c-.36,5.42-.78,7.65-1.6,8.51a3,3,0,0,1-2.14.94,28.08,28.08,0,0,1-3.46,0,5.27,5.27,0,0,0-.84-2.35,32.9,32.9,0,0,0,3.36.17,1.39,1.39,0,0,0,1-.26c.52-.45.88-2.17,1.16-5.75h-6.3a11.9,11.9,0,0,1-5.76,8.55,7.39,7.39,0,0,0-1.74-2c4.8-2.55,5.18-7,5.38-11.27h-5V545.3h8.44c-.32-.78-.8-1.78-1.2-2.58l2.34-.88a22.54,22.54,0,0,1,1.44,2.86l-1.38.6h8.2v2.34Z"/><path class="cls-4" d="M974,542.8a34,34,0,0,1-1.72,3.7v14.25h-2.32V550.12a17.94,17.94,0,0,1-1.46,1.7,16.33,16.33,0,0,0-1.22-2.44,20.87,20.87,0,0,0,4.52-7.28Zm5.38,15.35a17.12,17.12,0,0,1-4.58,2.68,12.42,12.42,0,0,0-1.88-1.64,14,14,0,0,0,4.18-1.89Zm-.8-13.61h-4.38v-1.48h4.38v-1H981v1h4.56v1.48H981v.66h4.14v1.4H981v.68h5.24v1.58H973.32v-1.58h5.24v-.68h-4v-1.4h4Zm4.18,12.7a24.23,24.23,0,0,1,3.6,2.47L984.2,561a21.75,21.75,0,0,0-3.66-2.78l2.06-.93h-7.88v-7.72H985v7.72ZM977,551.76h5.6V551H977Zm0,2h5.6V553H977Zm0,2h5.6V555H977Z"/></g></g></g></g><g id="Group_5212-10" data-name="Group 5212"><g id="企-10" data-name="企" class="cls-3"><g class="cls-3"><path class="cls-4" d="M1030.12,527.74a16.41,16.41,0,0,0-3.7-2.16l1.24-1.82a16,16,0,0,1,3.78,2Zm2.18,2.5c-1.06,2.08-2.32,4.37-3.5,6.31l-2-1.6a60.58,60.58,0,0,0,3.78-6.31Zm-1.5-7.84a14.41,14.41,0,0,0-3.58-2.34l1.34-1.74a14.51,14.51,0,0,1,3.64,2.18Zm3.06,5.32H1036v1.94c0,2.22-.32,5-3,7.05a7,7,0,0,0-1.68-1.56,6.31,6.31,0,0,0,2.5-5.57Zm9.32.08c-.22-.34-.52-.8-.86-1.28-7.42.52-8.5.62-9.24.9a18.76,18.76,0,0,0-.74-2.18,3.51,3.51,0,0,0,1.52-1.26,12.67,12.67,0,0,0,1.08-1.36h-2.62V520.5h4c.46-.8.94-1.64,1.34-2.5l2.32.9c-.28.54-.6,1.06-.94,1.6h5.68v2.12H1042c1,1.26,2.44,2.92,3.16,4Zm-5.6-5.18c-.6.82-1.22,1.58-1.84,2.3l5.18-.28c-.34-.42-.66-.84-1-1.2l1.4-.82Zm-.36,5.28h2.08v8h-2.08Zm6.62,6.61a3.83,3.83,0,0,0,1-.12c0,.56.1,1.3.18,1.8a3.24,3.24,0,0,1-1.12.14h-1c-1.88,0-2.24-.8-2.24-2.71v-5.9h2.18v5.92c0,.65,0,.87.28.87Z"/><path class="cls-4" d="M1064.66,522.6s0,.78,0,1.06c-.18,8.18-.34,11.09-1,12a2.23,2.23,0,0,1-1.58,1,13.42,13.42,0,0,1-2.48.08,5.57,5.57,0,0,0-.7-2.28c.88.08,1.64.1,2,.1a.73.73,0,0,0,.68-.34c.42-.55.62-3,.74-9.45h-1.8c-.26,5.36-1.18,9.49-4.54,12.15a7.79,7.79,0,0,0-1.4-1.58c-2.88.3-5.76.6-7.92.78l-.28-2c1.12-.09,2.52-.18,4.06-.28v-1.21h-3.52V531h3.52v-.78H1047V524h3.44v-.78h-3.94V521.5h3.94v-.8c-1.16.08-2.3.14-3.38.16a7.41,7.41,0,0,0-.52-1.68,62,62,0,0,0,8.62-1l1,1.78c-1.06.22-2.3.4-3.6.54v1h3.84v1.1h1.88c0-1.32,0-2.7,0-4.18h2.28c0,1.46,0,2.86,0,4.18Zm-15.76,3.78h1.56v-.88h-1.56Zm1.56,2.32v-.9h-1.56v.9Zm2.16,5c1.14-.08,2.32-.18,3.48-.28,1.56-2.16,2-5,2.18-8.6h-1.82v-1.56h-3.84V524h3.54v6.18h-3.54V531h3.62v1.68h-3.62Zm1.56-7.28v-.88h-1.56v.88Zm-1.56,1.42v.9h1.56v-.9Z"/><path class="cls-4" d="M1079.12,521.66c1.08,1.06,3.2,1.56,5.9,1.7a7.71,7.71,0,0,0-1.32,1.9,9.55,9.55,0,0,1-5.24-2c-.76.88-2.42,1.66-5.78,2a6.74,6.74,0,0,0-.8-1.3h-5.3v-1.82h6v1.22c3.82-.4,4.32-1.3,4.32-2V521h-1.2a8.73,8.73,0,0,1-1.4,1.72,11.42,11.42,0,0,0-1.76-1.22,8.05,8.05,0,0,0,2.34-3.56l2.08.46c-.1.3-.22.6-.34.88h5.68l.36-.1,1.62.5a17.52,17.52,0,0,1-1.84,3.16l-1.84-.68a11.83,11.83,0,0,0,.7-1.16h-2.22v.62Zm.54,11.76c1.84.69,3.8,1.49,5,2.07l-2.14,1.28a36.82,36.82,0,0,0-5.2-2.36l1.22-1h-5.64l1.74.81a26,26,0,0,1-6.24,2.6,16.09,16.09,0,0,0-1.76-1.74,22.36,22.36,0,0,0,5.46-1.67h-2.88V525.3h13.38v8.12Zm-7.5-12.6H1067v-1.74h5.12Zm-.66,6.76h8.66v-.86h-8.66Zm0,2.2h8.66v-.86h-8.66Zm0,2.24h8.66v-.9h-8.66Z"/><path class="cls-4" d="M1105.1,534.39v1.92h-14.7v-1.92h6.06v-1.17h-4.24v-1.44a11.22,11.22,0,0,1-1.14,1.22,13.23,13.23,0,0,0-.94-2,11.8,11.8,0,0,1-2.14,6,8.46,8.46,0,0,0-1.84-1.54c1.62-2,1.78-4.85,1.78-6.91V525h2.7a10,10,0,0,0-1-.92c1.44-.22,3-.5,4.56-.86-1.26-.32-2.56-.6-3.74-.82l1.12-.86h-3.44V519.7h7a11.71,11.71,0,0,0-.76-1l1.6-.78a11.85,11.85,0,0,1,1.34,1.82h6.92v1.86h-2.9l1,.6c-.72.34-1.56.68-2.46,1,1.18.32,2.26.64,3.16.94l-1.12.92h2.94v1.9h-14.52v1.68a19.83,19.83,0,0,1-.1,2.1,9.81,9.81,0,0,0,2.28-3.6l2,.6c-.1.26-.2.52-.32.8h2.32v-1.22h2.34v1.22h4.94v1.86h-4.94v1h4.36v1.82h-4.36v1.17Zm-8.64-3v-1h-3.26c-.22.36-.44.7-.68,1Zm4.08-6.38c-1-.34-2.18-.68-3.44-1-1.44.38-2.9.72-4.3,1Zm-7.2-3.46c1.26.28,2.58.58,3.9.9a19.92,19.92,0,0,0,2.62-.9Z"/></g></g></g><g id="Group_5175" data-name="Group 5175"><g id="Group_5174" data-name="Group 5174"><path id="Path_7175" data-name="Path 7175" class="cls-5" d="M62.12,443.82H1113.54"/></g></g></g><g id="Layer_1" data-name="Layer 1"><rect id="Rectangle_2670" data-name="Rectangle 2670" class="cls-6" x="1.29" y="50" width="1120" height="50"/><rect id="Rectangle_2671" data-name="Rectangle 2671" class="cls-7" x="1.29" width="1120" height="50"/><g id="AA" class="cls-3"><g class="cls-3"><path class="cls-8" d="M423.1,33h-3.46l-1.38-3.58H412L410.67,33h-3.38l6.14-15.75h3.36Zm-5.86-6.23-2.17-5.85-2.13,5.85Z"/><path class="cls-8" d="M439.07,33h-3.46l-1.37-3.58h-6.3L426.64,33h-3.37l6.13-15.75h3.37Zm-5.85-6.23-2.17-5.85-2.13,5.85Z"/></g></g><g id="A" class="cls-3"><g class="cls-3"><path class="cls-8" d="M710.1,33h-3.46l-1.38-3.58H699L697.67,33h-3.38l6.14-15.75h3.36Zm-5.86-6.23-2.17-5.85-2.13,5.85Z"/></g></g><g id="BBB" class="cls-3"><g class="cls-3"><path class="cls-8" d="M954.91,17.25h6.29a17.29,17.29,0,0,1,2.79.16,4,4,0,0,1,2.85,2,3.58,3.58,0,0,1,.48,1.84,3.69,3.69,0,0,1-2.21,3.42,4.14,4.14,0,0,1,2.21,1.43,3.75,3.75,0,0,1,.78,2.37,4.69,4.69,0,0,1-.5,2.09,4.29,4.29,0,0,1-1.37,1.63,4.47,4.47,0,0,1-2.13.74c-.53.06-1.81.09-3.83.11h-5.36Zm3.18,2.62v3.64h2.08c1.24,0,2,0,2.31-.05a2.08,2.08,0,0,0,1.28-.56,1.68,1.68,0,0,0,.47-1.23,1.71,1.71,0,0,0-.4-1.19,1.78,1.78,0,0,0-1.2-.55c-.32,0-1.22-.06-2.72-.06Zm0,6.26v4.22H961a14.92,14.92,0,0,0,2.18-.1,2,2,0,0,0,1.15-.63,1.92,1.92,0,0,0,.45-1.34,2,2,0,0,0-.34-1.2,1.93,1.93,0,0,0-1-.72,10.72,10.72,0,0,0-2.82-.23Z"/><path class="cls-8" d="M970.88,17.25h6.3a17.23,17.23,0,0,1,2.78.16,4.05,4.05,0,0,1,1.65.65,4.24,4.24,0,0,1,1.21,1.31,3.58,3.58,0,0,1,.48,1.84,3.74,3.74,0,0,1-2.21,3.42,4.18,4.18,0,0,1,2.21,1.43,3.8,3.8,0,0,1,.77,2.37,4.56,4.56,0,0,1-.5,2.09,4.27,4.27,0,0,1-1.36,1.63,4.54,4.54,0,0,1-2.13.74c-.53.06-1.81.09-3.84.11h-5.36Zm3.18,2.62v3.64h2.08c1.24,0,2,0,2.31-.05a2.08,2.08,0,0,0,1.29-.56,1.68,1.68,0,0,0,.47-1.23,1.72,1.72,0,0,0-.41-1.19,1.78,1.78,0,0,0-1.2-.55c-.31,0-1.22-.06-2.71-.06Zm0,6.26v4.22H977a14.72,14.72,0,0,0,2.18-.1,2,2,0,0,0,1.16-.63,1.92,1.92,0,0,0,.45-1.34,2,2,0,0,0-.35-1.2,1.94,1.94,0,0,0-1-.72,10.82,10.82,0,0,0-2.82-.23Z"/><path class="cls-8" d="M986.86,17.25h6.29a17.29,17.29,0,0,1,2.79.16,4,4,0,0,1,2.85,2,3.58,3.58,0,0,1,.48,1.84,3.68,3.68,0,0,1-.59,2,3.76,3.76,0,0,1-1.62,1.38,4.14,4.14,0,0,1,2.21,1.43,3.75,3.75,0,0,1,.78,2.37,4.69,4.69,0,0,1-.5,2.09,4.21,4.21,0,0,1-1.37,1.63,4.47,4.47,0,0,1-2.13.74c-.53.06-1.81.09-3.83.11h-5.36ZM990,19.87v3.64h2.08c1.24,0,2,0,2.31-.05a2.08,2.08,0,0,0,1.28-.56,1.64,1.64,0,0,0,.47-1.23,1.71,1.71,0,0,0-.4-1.19,1.78,1.78,0,0,0-1.2-.55c-.32,0-1.22-.06-2.72-.06Zm0,6.26v4.22H993a14.82,14.82,0,0,0,2.18-.1,2,2,0,0,0,1.16-.63,2,2,0,0,0,.44-1.34,2,2,0,0,0-.34-1.2,1.93,1.93,0,0,0-1-.72,10.72,10.72,0,0,0-2.82-.23Z"/></g></g><g id="_1.1_" data-name=" 1.1 " class="cls-3"><g class="cls-3"><path class="cls-9" d="M111.49,83h-1.93V70.68A10.34,10.34,0,0,1,107.73,72a13.47,13.47,0,0,1-2,1V71.14a11.6,11.6,0,0,0,2.84-1.85,7.21,7.21,0,0,0,1.71-2.1h1.25Z"/><path class="cls-9" d="M117.53,83V80.8h2.2V83Z"/><path class="cls-9" d="M129.84,83H127.9V70.68A9.64,9.64,0,0,1,126.07,72a13,13,0,0,1-2,1V71.14a11.54,11.54,0,0,0,2.83-1.85,7.1,7.1,0,0,0,1.72-2.1h1.25Z"/><path class="cls-9" d="M135.16,71a4.84,4.84,0,0,1,.84-2.87A2.87,2.87,0,0,1,138.46,67,3.22,3.22,0,0,1,140.92,68a5.4,5.4,0,0,1,0,6.19,3.15,3.15,0,0,1-2.42,1.08,3,3,0,0,1-2.38-1.07A4.65,4.65,0,0,1,135.16,71Zm3.36-2.72a1.45,1.45,0,0,0-1.2.63,3.93,3.93,0,0,0-.48,2.29,3.47,3.47,0,0,0,.49,2.13,1.46,1.46,0,0,0,2.4,0,4,4,0,0,0,.47-2.27,3.61,3.61,0,0,0-.48-2.15A1.47,1.47,0,0,0,138.52,68.31Zm0,15.27L147.14,67h1.57l-8.58,16.6Zm6.81-4.28a4.74,4.74,0,0,1,.85-2.87,2.86,2.86,0,0,1,2.47-1.18,3.2,3.2,0,0,1,2.45,1.06,5.35,5.35,0,0,1,0,6.19,3.14,3.14,0,0,1-2.43,1.08,3.06,3.06,0,0,1-2.38-1.07A4.72,4.72,0,0,1,145.34,79.3Zm3.37-2.71a1.45,1.45,0,0,0-1.21.62A3.94,3.94,0,0,0,147,79.5a3.54,3.54,0,0,0,.48,2.12,1.47,1.47,0,0,0,2.41,0,3.88,3.88,0,0,0,.48-2.27,3.63,3.63,0,0,0-.48-2.15A1.49,1.49,0,0,0,148.71,76.59Z"/></g></g><g id="_0.8_2" data-name=" 0.8 " class="cls-3"><g class="cls-3"><path class="cls-9" d="M399.21,75.23a14.47,14.47,0,0,1,.57-4.49,5.55,5.55,0,0,1,1.71-2.63,4.36,4.36,0,0,1,2.85-.92,4.67,4.67,0,0,1,2.23.51,4.24,4.24,0,0,1,1.57,1.47,7.6,7.6,0,0,1,1,2.34,15.32,15.32,0,0,1,.36,3.72,14.49,14.49,0,0,1-.57,4.48,5.6,5.6,0,0,1-1.71,2.63,4.78,4.78,0,0,1-6.44-.71Q399.22,79.66,399.21,75.23Zm2,0c0,2.59.31,4.31.91,5.16a2.59,2.59,0,0,0,4.48,0q.92-1.29.91-5.16t-.91-5.16a2.67,2.67,0,0,0-2.26-1.28,2.46,2.46,0,0,0-2.13,1.13C401.53,70.88,401.19,72.65,401.19,75.23Z"/><path class="cls-9" d="M412.53,83V80.8h2.2V83Z"/><path class="cls-9" d="M420.53,74.46a3.56,3.56,0,0,1-1.78-1.26,3.24,3.24,0,0,1-.58-2,3.82,3.82,0,0,1,1.23-2.89,4.6,4.6,0,0,1,3.29-1.17A4.66,4.66,0,0,1,426,68.38a3.89,3.89,0,0,1,1.26,2.92,3.25,3.25,0,0,1-.58,1.91A3.57,3.57,0,0,1,425,74.46a4,4,0,0,1,3,4,4.52,4.52,0,0,1-1.43,3.39,5.81,5.81,0,0,1-7.52,0,4.61,4.61,0,0,1-1.43-3.45,4.15,4.15,0,0,1,.78-2.57A3.9,3.9,0,0,1,420.53,74.46Zm-1,4a3.53,3.53,0,0,0,.39,1.6,2.74,2.74,0,0,0,1.17,1.19,3.31,3.31,0,0,0,1.66.43,3.13,3.13,0,0,0,2.29-.89,3.07,3.07,0,0,0,.9-2.27,3.1,3.1,0,0,0-.93-2.31,3.15,3.15,0,0,0-2.32-.91,3.08,3.08,0,0,0-3.16,3.16Zm.62-7.28a2.45,2.45,0,0,0,.72,1.83,2.57,2.57,0,0,0,1.87.71,2.48,2.48,0,0,0,1.83-.71,2.29,2.29,0,0,0,.72-1.72,2.43,2.43,0,0,0-.74-1.79,2.71,2.71,0,0,0-3.67,0A2.29,2.29,0,0,0,420.14,71.18Z"/><path class="cls-9" d="M430.16,71a4.84,4.84,0,0,1,.84-2.87A2.87,2.87,0,0,1,433.46,67,3.22,3.22,0,0,1,435.92,68a5.4,5.4,0,0,1,0,6.19,3.15,3.15,0,0,1-2.42,1.08,3,3,0,0,1-2.38-1.07A4.65,4.65,0,0,1,430.16,71Zm3.36-2.72a1.45,1.45,0,0,0-1.2.63,3.93,3.93,0,0,0-.48,2.29,3.47,3.47,0,0,0,.49,2.13,1.46,1.46,0,0,0,2.4,0,4,4,0,0,0,.47-2.27,3.61,3.61,0,0,0-.48-2.15A1.47,1.47,0,0,0,433.52,68.31Zm0,15.27L442.14,67h1.57l-8.58,16.6Zm6.81-4.28a4.74,4.74,0,0,1,.85-2.87,2.86,2.86,0,0,1,2.47-1.18,3.2,3.2,0,0,1,2.45,1.06,5.35,5.35,0,0,1,0,6.19,3.14,3.14,0,0,1-2.43,1.08,3.06,3.06,0,0,1-2.38-1.07A4.72,4.72,0,0,1,440.34,79.3Zm3.37-2.71a1.45,1.45,0,0,0-1.21.62A3.94,3.94,0,0,0,442,79.5a3.54,3.54,0,0,0,.48,2.12,1.47,1.47,0,0,0,2.41,0,3.88,3.88,0,0,0,.48-2.27,3.63,3.63,0,0,0-.48-2.15A1.49,1.49,0,0,0,443.71,76.59Z"/></g></g><g id="_54.5_" data-name=" 54.5 " class="cls-3"><g class="cls-3"><path class="cls-9" d="M953.21,78.87l2-.17a3.68,3.68,0,0,0,1,2.23,2.85,2.85,0,0,0,2,.75,3.08,3.08,0,0,0,2.36-1.05,4,4,0,0,0,1-2.8,3.59,3.59,0,0,0-.93-2.61,3.23,3.23,0,0,0-2.44-1,3.38,3.38,0,0,0-1.68.42,3.21,3.21,0,0,0-1.18,1.1l-1.82-.24,1.53-8.08h7.83v1.84h-6.29l-.85,4.24a5.14,5.14,0,0,1,3-1A4.67,4.67,0,0,1,962.23,74a5,5,0,0,1,1.42,3.67,5.75,5.75,0,0,1-1.25,3.7,5,5,0,0,1-4.13,1.91,5.06,5.06,0,0,1-3.51-1.21A4.66,4.66,0,0,1,953.21,78.87Z"/><path class="cls-9" d="M971.64,83V79.23h-6.83V77.46L972,67.25h1.57V77.46h2.13v1.77h-2.13V83Zm0-5.54v-7.1l-4.93,7.1Z"/><path class="cls-9" d="M978.76,83V80.8H981V83Z"/><path class="cls-9" d="M983.79,78.87l2-.17a3.63,3.63,0,0,0,1,2.23,2.84,2.84,0,0,0,2,.75,3.08,3.08,0,0,0,2.36-1.05,4,4,0,0,0,1-2.8,3.59,3.59,0,0,0-.93-2.61,3.22,3.22,0,0,0-2.43-1,3.39,3.39,0,0,0-1.69.42,3.29,3.29,0,0,0-1.18,1.1l-1.82-.24,1.53-8.08h7.83v1.84h-6.28l-.85,4.24a5.09,5.09,0,0,1,3-1A4.67,4.67,0,0,1,992.81,74a5,5,0,0,1,1.42,3.67,5.74,5.74,0,0,1-1.24,3.7,5,5,0,0,1-4.14,1.91,5.08,5.08,0,0,1-3.51-1.21A4.71,4.71,0,0,1,983.79,78.87Z"/><path class="cls-9" d="M996.39,71a4.78,4.78,0,0,1,.85-2.87A2.86,2.86,0,0,1,999.7,67a3.19,3.19,0,0,1,2.45,1.06,5.35,5.35,0,0,1,0,6.19,3.13,3.13,0,0,1-2.42,1.08,3.08,3.08,0,0,1-2.38-1.07A4.7,4.7,0,0,1,996.39,71Zm3.36-2.72a1.42,1.42,0,0,0-1.19.63,3.93,3.93,0,0,0-.48,2.29,3.55,3.55,0,0,0,.48,2.13,1.46,1.46,0,0,0,2.4,0,3.88,3.88,0,0,0,.48-2.27,3.61,3.61,0,0,0-.48-2.15A1.5,1.5,0,0,0,999.75,68.31Zm0,15.27,8.62-16.6H1010l-8.59,16.6Zm6.81-4.28a4.8,4.8,0,0,1,.85-2.87,2.87,2.87,0,0,1,2.47-1.18,3.22,3.22,0,0,1,2.46,1.06,5.4,5.4,0,0,1,0,6.19,3.17,3.17,0,0,1-2.44,1.08,3,3,0,0,1-2.37-1.07A4.67,4.67,0,0,1,1006.57,79.3Zm3.38-2.71a1.45,1.45,0,0,0-1.21.62,3.93,3.93,0,0,0-.48,2.29,3.54,3.54,0,0,0,.48,2.12,1.48,1.48,0,0,0,2.42,0,4,4,0,0,0,.47-2.27,3.63,3.63,0,0,0-.48-2.15A1.46,1.46,0,0,0,1010,76.59Z"/></g></g><g id="_21.4_" data-name=" 21.4 " class="cls-3"><g class="cls-3"><path class="cls-9" d="M684.37,81.14V83H674a3.38,3.38,0,0,1,.23-1.34,6.9,6.9,0,0,1,1.27-2.1A19.57,19.57,0,0,1,678,77.18a21.71,21.71,0,0,0,3.47-3.34,4,4,0,0,0,.9-2.32,2.56,2.56,0,0,0-.82-1.94,3,3,0,0,0-2.14-.79,3,3,0,0,0-2.24.84,3.16,3.16,0,0,0-.85,2.32l-2-.21a4.87,4.87,0,0,1,1.53-3.39,5.28,5.28,0,0,1,3.58-1.16A5,5,0,0,1,683,68.44a4.14,4.14,0,0,1,1.32,3.12,4.7,4.7,0,0,1-.39,1.86,7.12,7.12,0,0,1-1.28,1.92,31.26,31.26,0,0,1-3,2.77c-1.16,1-1.91,1.64-2.24,2a6.18,6.18,0,0,0-.81,1Z"/><path class="cls-9" d="M693.73,83h-1.94V70.68A9.64,9.64,0,0,1,690,72a13.42,13.42,0,0,1-2,1V71.14a11.54,11.54,0,0,0,2.83-1.85,7.27,7.27,0,0,0,1.72-2.1h1.25Z"/><path class="cls-9" d="M699.76,83V80.8H702V83Z"/><path class="cls-9" d="M711,83V79.23h-6.83V77.46l7.18-10.21h1.58V77.46h2.13v1.77h-2.13V83Zm0-5.54v-7.1l-4.93,7.1Z"/><path class="cls-9" d="M717.39,71a4.78,4.78,0,0,1,.85-2.87A2.86,2.86,0,0,1,720.7,67,3.19,3.19,0,0,1,723.15,68a5.35,5.35,0,0,1,0,6.19,3.13,3.13,0,0,1-2.42,1.08,3.08,3.08,0,0,1-2.38-1.07A4.7,4.7,0,0,1,717.39,71Zm3.36-2.72a1.42,1.42,0,0,0-1.19.63,3.93,3.93,0,0,0-.48,2.29,3.55,3.55,0,0,0,.48,2.13,1.46,1.46,0,0,0,2.4,0,3.88,3.88,0,0,0,.48-2.27,3.61,3.61,0,0,0-.48-2.15A1.5,1.5,0,0,0,720.75,68.31Zm0,15.27L729.38,67H731l-8.59,16.6Zm6.81-4.28a4.8,4.8,0,0,1,.85-2.87,2.87,2.87,0,0,1,2.47-1.18,3.22,3.22,0,0,1,2.46,1.06,5.4,5.4,0,0,1,0,6.19,3.17,3.17,0,0,1-2.44,1.08,3,3,0,0,1-2.37-1.07A4.67,4.67,0,0,1,727.57,79.3ZM731,76.59a1.45,1.45,0,0,0-1.21.62,3.93,3.93,0,0,0-.48,2.29,3.54,3.54,0,0,0,.48,2.12,1.48,1.48,0,0,0,2.42,0,4,4,0,0,0,.47-2.27,3.63,3.63,0,0,0-.48-2.15A1.46,1.46,0,0,0,731,76.59Z"/></g></g><g id="AAA" class="cls-3"><g class="cls-3"><path class="cls-8" d="M121.1,33h-3.46l-1.38-3.58H110L108.67,33h-3.38l6.14-15.75h3.36Zm-5.86-6.23-2.17-5.85-2.13,5.85Z"/><path class="cls-8" d="M137.07,33h-3.46l-1.37-3.58h-6.3L124.64,33h-3.37l6.13-15.75h3.37Zm-5.85-6.23-2.17-5.85-2.13,5.85Z"/><path class="cls-8" d="M153.05,33h-3.46l-1.38-3.58h-6.29L140.62,33h-3.37l6.13-15.75h3.36Zm-5.86-6.23L145,20.92l-2.12,5.85Z"/></g></g></g></svg>