<svg id="bg" xmlns="http://www.w3.org/2000/svg" viewBox="0 0 1120 500.34"><defs><style>.cls-1,.cls-5{fill:none;}.cls-1{stroke:#d9d9d9;stroke-linejoin:round;}.cls-2{fill:#bae659;}.cls-3{isolation:isolate;}.cls-4{fill:#002a5e;}.cls-5{stroke:#333;stroke-miterlimit:10;stroke-width:3px;}</style></defs><g id="Group_5172" data-name="Group 5172"><g id="Group_5171" data-name="Group 5171"><path id="Path_7171" data-name="Path 7171" class="cls-1" d="M62.12,413.12H1113.54M62.12,306H1113.54M62.12,252.39H1113.54M62.12,197.14H1113.54M62.12,143.57H1113.54M62.12,90H1113.54"/></g></g><rect class="cls-2" x="84.73" y="124.31" width="60.27" height="236.07"/><rect class="cls-2" x="190.2" y="141.06" width="58.6" height="219.32"/><rect class="cls-2" x="294" y="353.68" width="60.27" height="6.7"/><rect class="cls-2" x="294" y="326.89" width="60.27" height="33.49"/><rect class="cls-2" x="399.48" y="346.98" width="60.27" height="13.39"/><rect class="cls-2" x="504.96" y="352" width="60.27" height="8.37"/><rect class="cls-2" x="715.91" y="353.68" width="60.27" height="6.7"/><rect class="cls-2" x="821.39" y="355.35" width="60.27" height="5.02"/><rect class="cls-2" x="926.86" y="358.69" width="60.27" height="1.67"/><rect class="cls-2" x="1032.34" y="360.37" width="60.27" height="13.39"/><g id="Group_5177" data-name="Group 5177"><g id="Group_5176" data-name="Group 5176"><g id="_43.7_" data-name=" 43.7 " class="cls-3"><g class="cls-3"><path d="M93.52,113.74v-2.88H87.66v-2.41l6.21-9.09h2.31v9.08H98v2.42H96.18v2.88Zm0-5.3v-4.89l-3.29,4.89Z"/><path d="M99.17,109.94l2.65-.33a2.57,2.57,0,0,0,.69,1.56,1.95,1.95,0,0,0,2.78-.11,2.54,2.54,0,0,0,.58-1.74,2.35,2.35,0,0,0-.56-1.64,1.78,1.78,0,0,0-1.36-.6,4.64,4.64,0,0,0-1.26.2L103,105a2.39,2.39,0,0,0,1.69-.48,1.68,1.68,0,0,0,.59-1.36,1.48,1.48,0,0,0-1.57-1.58,1.63,1.63,0,0,0-1.2.49,2.28,2.28,0,0,0-.61,1.42l-2.53-.43a5.59,5.59,0,0,1,.8-2.07,3.51,3.51,0,0,1,1.48-1.22,5,5,0,0,1,2.14-.45,4.27,4.27,0,0,1,3.24,1.29A3.27,3.27,0,0,1,106,106a3.36,3.36,0,0,1,2,1.18,3.44,3.44,0,0,1,.74,2.22,4.28,4.28,0,0,1-1.38,3.21,5.14,5.14,0,0,1-6.65.21A4.36,4.36,0,0,1,99.17,109.94Z"/><path d="M111,113.74V111h2.75v2.75Z"/><path d="M115.94,102.16V99.61h9.39v2a14.43,14.43,0,0,0-2.36,3.28,19.11,19.11,0,0,0-1.83,4.54,16.75,16.75,0,0,0-.62,4.31h-2.65a18.32,18.32,0,0,1,1.22-6.06,20.6,20.6,0,0,1,3.09-5.52Z"/><path d="M127.09,103a4.15,4.15,0,0,1,.84-2.85,3,3,0,0,1,2.29-.92,3,3,0,0,1,2.34.92,5.22,5.22,0,0,1,0,5.71,3,3,0,0,1-2.29.92,3,3,0,0,1-2.34-.92A4.14,4.14,0,0,1,127.09,103Zm2.14,0a3.63,3.63,0,0,0,.32,1.87.78.78,0,0,0,.67.35.81.81,0,0,0,.69-.35,3.89,3.89,0,0,0,.31-1.87,3.83,3.83,0,0,0-.31-1.87.79.79,0,0,0-.69-.36.78.78,0,0,0-.67.35A3.65,3.65,0,0,0,129.23,102.94Zm3.08,11.34h-2l7.63-15.1h2Zm4.44-3.76a4.15,4.15,0,0,1,.84-2.85,3.35,3.35,0,0,1,4.63,0,5.27,5.27,0,0,1,0,5.71,2.94,2.94,0,0,1-2.29.93,3,3,0,0,1-2.34-.93A4.14,4.14,0,0,1,136.75,110.52Zm2.13,0a3.58,3.58,0,0,0,.33,1.87.81.81,0,0,0,1.34,0,3.65,3.65,0,0,0,.33-1.88,3.74,3.74,0,0,0-.32-1.87.77.77,0,0,0-.68-.35.74.74,0,0,0-.67.35A3.61,3.61,0,0,0,138.88,110.51Z"/></g></g></g></g><g id="Group_5179" data-name="Group 5179"><g id="Group_5178" data-name="Group 5178"><g id="_40.4_" data-name=" 40.4 " class="cls-3"><g class="cls-3"><path d="M197.13,122.11v-2.88h-5.86v-2.41l6.21-9.09h2.3v9.08h1.78v2.42h-1.78v2.88Zm0-5.3v-4.89l-3.3,4.89Z"/><path d="M207.51,107.73a3.92,3.92,0,0,1,3.25,1.49q1.4,1.75,1.39,5.83c0,2.7-.46,4.65-1.4,5.84a3.93,3.93,0,0,1-3.24,1.46,4.06,4.06,0,0,1-3.37-1.61c-.86-1.07-1.28-3-1.28-5.72s.47-4.64,1.4-5.82A3.92,3.92,0,0,1,207.51,107.73Zm0,2.28a1.36,1.36,0,0,0-.89.31,2.26,2.26,0,0,0-.61,1.14,15.73,15.73,0,0,0-.28,3.59,15.59,15.59,0,0,0,.25,3.46,2.47,2.47,0,0,0,.64,1.25,1.37,1.37,0,0,0,.89.32,1.41,1.41,0,0,0,.89-.32,2.1,2.1,0,0,0,.6-1.14,15.47,15.47,0,0,0,.28-3.57,15.7,15.7,0,0,0-.25-3.47,2.53,2.53,0,0,0-.64-1.26A1.35,1.35,0,0,0,207.51,110Z"/><path d="M214.58,122.11v-2.75h2.74v2.75Z"/><path d="M224.93,122.11v-2.88h-5.86v-2.41l6.21-9.09h2.3v9.08h1.78v2.42h-1.78v2.88Zm0-5.3v-4.89l-3.29,4.89Z"/><path d="M230.69,111.33a4.16,4.16,0,0,1,.84-2.86,3.37,3.37,0,0,1,4.63,0,5.22,5.22,0,0,1,0,5.71,2.92,2.92,0,0,1-2.29.92,3,3,0,0,1-2.34-.92A4.13,4.13,0,0,1,230.69,111.33Zm2.14,0a3.74,3.74,0,0,0,.32,1.87.76.76,0,0,0,.67.35.77.77,0,0,0,.69-.35,3.77,3.77,0,0,0,.31-1.87,3.72,3.72,0,0,0-.31-1.87.83.83,0,0,0-1.36,0A3.76,3.76,0,0,0,232.83,111.31Zm3.08,11.34h-2l7.63-15.1h2Zm4.44-3.76a4.15,4.15,0,0,1,.84-2.85,3.35,3.35,0,0,1,4.63,0,5.22,5.22,0,0,1,0,5.71,2.93,2.93,0,0,1-2.29.93,3,3,0,0,1-2.34-.93A4.14,4.14,0,0,1,240.35,118.89Zm2.14,0a3.58,3.58,0,0,0,.32,1.87.82.82,0,0,0,1.35,0,3.76,3.76,0,0,0,.32-1.88,3.89,3.89,0,0,0-.31-1.87.78.78,0,0,0-.69-.35.75.75,0,0,0-.67.35A3.63,3.63,0,0,0,242.49,118.88Z"/></g></g></g></g><g id="Group_5183" data-name="Group 5183"><g id="Group_5182" data-name="Group 5182"><g id="_6.0_" data-name=" 6.0 " class="cls-3"><g class="cls-3"><path d="M311.94,302.16l-2.66.29a1.91,1.91,0,0,0-.5-1.21,1.5,1.5,0,0,0-1.07-.39,1.8,1.8,0,0,0-1.47.78,6.66,6.66,0,0,0-.76,3.25,3.25,3.25,0,0,1,2.55-1.21,3.91,3.91,0,0,1,3,1.31,4.77,4.77,0,0,1,1.22,3.38,4.83,4.83,0,0,1-1.29,3.52,4.38,4.38,0,0,1-3.31,1.33,4.43,4.43,0,0,1-3.56-1.68c-.93-1.12-1.4-3-1.4-5.52s.49-4.52,1.46-5.68a4.7,4.7,0,0,1,3.78-1.74,4,4,0,0,1,2.7.92A4.31,4.31,0,0,1,311.94,302.16Zm-6.22,6a3.1,3.1,0,0,0,.61,2.07,1.8,1.8,0,0,0,1.41.73,1.6,1.6,0,0,0,1.27-.6,3,3,0,0,0,.51-1.95,3.14,3.14,0,0,0-.55-2.05,1.75,1.75,0,0,0-2.7,0A2.69,2.69,0,0,0,305.72,308.14Z"/><path d="M314.35,313v-2.75h2.75V313Z"/><path d="M324,298.59a3.91,3.91,0,0,1,3.25,1.49q1.4,1.76,1.4,5.83c0,2.71-.47,4.65-1.41,5.84a3.91,3.91,0,0,1-3.24,1.46,4.11,4.11,0,0,1-3.37-1.6q-1.27-1.61-1.28-5.73t1.41-5.82A3.89,3.89,0,0,1,324,298.59Zm0,2.28a1.39,1.39,0,0,0-.89.32,2.1,2.1,0,0,0-.6,1.13,15.59,15.59,0,0,0-.29,3.59,15.41,15.41,0,0,0,.26,3.46,2.44,2.44,0,0,0,.64,1.26,1.4,1.4,0,0,0,1.77,0,2.17,2.17,0,0,0,.61-1.14,16.07,16.07,0,0,0,.28-3.57,15.35,15.35,0,0,0-.26-3.46,2.44,2.44,0,0,0-.63-1.26A1.39,1.39,0,0,0,324,300.87Z"/><path d="M330.47,302.19a4.13,4.13,0,0,1,.84-2.85,2.94,2.94,0,0,1,2.29-.93,3,3,0,0,1,2.34.92,5.27,5.27,0,0,1,0,5.71,2.94,2.94,0,0,1-2.29.93,3,3,0,0,1-2.34-.93A4.11,4.11,0,0,1,330.47,302.19Zm2.13,0a3.61,3.61,0,0,0,.33,1.87.75.75,0,0,0,.67.35.77.77,0,0,0,.68-.35,5.62,5.62,0,0,0,0-3.74.82.82,0,0,0-1.35,0A3.65,3.65,0,0,0,332.6,302.17Zm3.09,11.35h-2l7.63-15.11h2Zm4.43-3.76a4.16,4.16,0,0,1,.85-2.86,3,3,0,0,1,2.31-.92,3,3,0,0,1,2.32.92,5.29,5.29,0,0,1,0,5.72,3,3,0,0,1-2.29.93,3,3,0,0,1-2.34-.93A4.16,4.16,0,0,1,340.12,309.76Zm2.14,0a3.67,3.67,0,0,0,.32,1.86.79.79,0,0,0,.68.36.74.74,0,0,0,.67-.35,3.63,3.63,0,0,0,.32-1.87,3.82,3.82,0,0,0-.31-1.88.84.84,0,0,0-1.36,0A3.79,3.79,0,0,0,342.26,309.75Z"/></g></g></g></g><g id="Group_5185" data-name="Group 5185"><g id="Group_5184" data-name="Group 5184"><g id="_2.5_" data-name=" 2.5 " class="cls-3"><g class="cls-3"><path d="M417.19,323.81v2.55h-9.62a6.64,6.64,0,0,1,.94-2.74,18.57,18.57,0,0,1,3.08-3.43,19.25,19.25,0,0,0,2.28-2.34,3,3,0,0,0,.56-1.68,1.91,1.91,0,0,0-.49-1.41,1.84,1.84,0,0,0-1.36-.5,1.86,1.86,0,0,0-1.37.52,2.66,2.66,0,0,0-.58,1.72l-2.74-.27a4.5,4.5,0,0,1,1.54-3.26,5.16,5.16,0,0,1,3.22-1,4.67,4.67,0,0,1,3.33,1.14,3.74,3.74,0,0,1,1.21,2.84,4.94,4.94,0,0,1-.35,1.84,7.22,7.22,0,0,1-1.1,1.83,16.62,16.62,0,0,1-1.79,1.83c-.87.79-1.42,1.32-1.65,1.58a4.9,4.9,0,0,0-.56.76Z"/><path d="M419.63,326.36v-2.74h2.74v2.74Z"/><path d="M424.64,322.68l2.73-.28a2.32,2.32,0,0,0,.7,1.47,1.87,1.87,0,0,0,1.33.54,1.83,1.83,0,0,0,1.45-.7,3.15,3.15,0,0,0,.6-2.1,2.91,2.91,0,0,0-.59-2,2,2,0,0,0-1.54-.66,2.78,2.78,0,0,0-2.12,1l-2.23-.33,1.41-7.45h7.25v2.57h-5.17l-.43,2.43a4.23,4.23,0,0,1,1.87-.46,4.15,4.15,0,0,1,3.1,1.33,4.79,4.79,0,0,1,1.27,3.45,5.11,5.11,0,0,1-1,3.15,4.52,4.52,0,0,1-3.87,1.9,4.83,4.83,0,0,1-3.24-1.07A4.37,4.37,0,0,1,424.64,322.68Z"/><path d="M435.74,315.58a4.15,4.15,0,0,1,.85-2.85,2.93,2.93,0,0,1,2.29-.93,3,3,0,0,1,2.34.93,5.25,5.25,0,0,1,0,5.7,3,3,0,0,1-2.29.93,3,3,0,0,1-2.34-.92A4.16,4.16,0,0,1,435.74,315.58Zm2.14,0a3.79,3.79,0,0,0,.32,1.88.8.8,0,0,0,.68.35.79.79,0,0,0,.68-.35,3.82,3.82,0,0,0,.31-1.88,3.7,3.7,0,0,0-.31-1.86.83.83,0,0,0-1.36,0A3.74,3.74,0,0,0,437.88,315.56ZM441,326.91h-2l7.62-15.11h2Zm4.43-3.76a4.1,4.1,0,0,1,.85-2.85,3,3,0,0,1,2.31-.93,3,3,0,0,1,2.32.93,5.27,5.27,0,0,1,0,5.71,3,3,0,0,1-2.29.93,3,3,0,0,1-2.34-.93A4.11,4.11,0,0,1,445.4,323.15Zm2.14,0a3.74,3.74,0,0,0,.32,1.87.79.79,0,0,0,.68.36.77.77,0,0,0,.67-.35,3.68,3.68,0,0,0,.32-1.88,3.74,3.74,0,0,0-.31-1.87.77.77,0,0,0-.68-.36.76.76,0,0,0-.68.36A3.72,3.72,0,0,0,447.54,323.14Z"/></g></g></g></g><g id="Group_5187" data-name="Group 5187"><g id="Group_5186" data-name="Group 5186"><g id="_1.5_" data-name=" 1.5 " class="cls-3"><g class="cls-3"><path d="M520.22,333.06h-2.74V322.72a9.52,9.52,0,0,1-3.55,2.08v-2.49a8.09,8.09,0,0,0,2.33-1.33,5.09,5.09,0,0,0,1.73-2.29h2.23Z"/><path d="M524.91,333.06v-2.74h2.74v2.74Z"/><path d="M529.92,329.38l2.73-.28a2.42,2.42,0,0,0,.69,1.47,1.9,1.9,0,0,0,1.33.54,1.87,1.87,0,0,0,1.46-.7,3.18,3.18,0,0,0,.59-2.11,2.85,2.85,0,0,0-.59-2,2,2,0,0,0-1.54-.66,2.8,2.8,0,0,0-2.11,1l-2.23-.32,1.41-7.45h7.25v2.57h-5.17l-.43,2.43a4.07,4.07,0,0,1,1.87-.46,4.12,4.12,0,0,1,3.1,1.33,4.8,4.8,0,0,1,1.27,3.45,5.19,5.19,0,0,1-1,3.15,4.55,4.55,0,0,1-3.88,1.89,4.8,4.8,0,0,1-3.23-1.06A4.37,4.37,0,0,1,529.92,329.38Z"/><path d="M541,322.28a4.1,4.1,0,0,1,.85-2.85,2.93,2.93,0,0,1,2.29-.93,3,3,0,0,1,2.33.92,5.22,5.22,0,0,1,0,5.71,2.93,2.93,0,0,1-2.29.93,3,3,0,0,1-2.33-.92A4.11,4.11,0,0,1,541,322.28Zm2.14,0a3.72,3.72,0,0,0,.32,1.87.82.82,0,0,0,1.36,0,5.8,5.8,0,0,0,0-3.74.77.77,0,0,0-.68-.36.79.79,0,0,0-.68.35A3.79,3.79,0,0,0,543.16,322.26Zm3.09,11.35h-2l7.63-15.11h2Zm4.43-3.76a4.11,4.11,0,0,1,.84-2.85,3.35,3.35,0,0,1,4.63,0,4.06,4.06,0,0,1,.85,2.85,4.11,4.11,0,0,1-.85,2.86,2.93,2.93,0,0,1-2.29.93,3,3,0,0,1-2.34-.93A4.16,4.16,0,0,1,550.68,329.85Zm2.14,0a3.56,3.56,0,0,0,.32,1.86.77.77,0,0,0,.67.36.75.75,0,0,0,.68-.35,3.74,3.74,0,0,0,.32-1.87,3.82,3.82,0,0,0-.31-1.88.81.81,0,0,0-.69-.35.77.77,0,0,0-.67.35A3.68,3.68,0,0,0,552.82,329.84Z"/></g></g></g></g><g id="Group_5189" data-name="Group 5189"><g id="Group_5188" data-name="Group 5188"><g id="_1.0_" data-name=" 1.0 " class="cls-3"><g class="cls-3"><path d="M731,334.73h-2.74V324.39a9.37,9.37,0,0,1-3.55,2.08V324a7.89,7.89,0,0,0,2.34-1.33,5.11,5.11,0,0,0,1.73-2.29H731Z"/><path d="M735.66,334.73V332h2.75v2.74Z"/><path d="M745.27,320.36a3.9,3.9,0,0,1,3.25,1.48q1.4,1.77,1.4,5.83t-1.41,5.84a3.89,3.89,0,0,1-3.24,1.47,4.1,4.1,0,0,1-3.37-1.61q-1.27-1.61-1.28-5.73t1.41-5.82A3.91,3.91,0,0,1,745.27,320.36Zm0,2.27a1.39,1.39,0,0,0-.89.32,2.1,2.1,0,0,0-.6,1.14,22.74,22.74,0,0,0,0,7.05,2.44,2.44,0,0,0,.64,1.25,1.33,1.33,0,0,0,.88.31,1.38,1.38,0,0,0,.89-.31,2.14,2.14,0,0,0,.6-1.14,22.68,22.68,0,0,0,0-7,2.44,2.44,0,0,0-.64-1.26A1.34,1.34,0,0,0,745.27,322.63Z"/><path d="M751.77,324a4.15,4.15,0,0,1,.85-2.85,2.94,2.94,0,0,1,2.29-.93,3,3,0,0,1,2.34.93,5.25,5.25,0,0,1,0,5.7,3,3,0,0,1-2.29.93,3,3,0,0,1-2.34-.92A4.16,4.16,0,0,1,751.77,324Zm2.14,0a3.65,3.65,0,0,0,.33,1.88.77.77,0,0,0,.67.35.79.79,0,0,0,.68-.35,3.79,3.79,0,0,0,.32-1.88,3.67,3.67,0,0,0-.32-1.86.77.77,0,0,0-.68-.36.75.75,0,0,0-.67.35A3.61,3.61,0,0,0,753.91,323.93ZM757,335.28h-2l7.62-15.11h2Zm4.43-3.76a4.1,4.1,0,0,1,.85-2.85,3,3,0,0,1,2.31-.93,3,3,0,0,1,2.32.93,5.27,5.27,0,0,1,0,5.71,3,3,0,0,1-2.29.93,3,3,0,0,1-2.34-.93A4.11,4.11,0,0,1,761.43,331.52Zm2.14,0a3.74,3.74,0,0,0,.32,1.87.79.79,0,0,0,.68.36.76.76,0,0,0,.67-.35,3.68,3.68,0,0,0,.32-1.88,3.77,3.77,0,0,0-.31-1.87.77.77,0,0,0-.68-.35.75.75,0,0,0-.68.35A3.74,3.74,0,0,0,763.57,331.51Z"/></g></g></g></g><g id="Group_5191" data-name="Group 5191"><g id="Group_5190" data-name="Group 5190"><g id="_0.8_" data-name=" 0.8 " class="cls-3"><g class="cls-3"><path d="M833.87,322a3.91,3.91,0,0,1,3.25,1.49q1.39,1.75,1.4,5.83c0,2.71-.47,4.65-1.41,5.84a3.91,3.91,0,0,1-3.24,1.46,4.1,4.1,0,0,1-3.37-1.6q-1.28-1.6-1.28-5.73t1.41-5.82A3.89,3.89,0,0,1,833.87,322Zm0,2.28a1.39,1.39,0,0,0-.89.32,2.18,2.18,0,0,0-.61,1.13,16.34,16.34,0,0,0-.28,3.59,15.41,15.41,0,0,0,.26,3.46,2.44,2.44,0,0,0,.63,1.26,1.44,1.44,0,0,0,.89.31,1.39,1.39,0,0,0,.89-.32,2.1,2.1,0,0,0,.6-1.14,22.62,22.62,0,0,0,0-7,2.44,2.44,0,0,0-.64-1.26A1.36,1.36,0,0,0,833.87,324.31Z"/><path d="M840.94,336.41v-2.75h2.74v2.75Z"/><path d="M848.26,328.68a3.08,3.08,0,0,1-2-2.95,3.46,3.46,0,0,1,1.12-2.65,5.33,5.33,0,0,1,6.35,0,3.47,3.47,0,0,1,1.13,2.65,3.17,3.17,0,0,1-.52,1.77,3.24,3.24,0,0,1-1.46,1.18,3.81,3.81,0,0,1,1.81,1.4,3.65,3.65,0,0,1,.62,2.12,4.31,4.31,0,0,1-1.26,3.22,4.57,4.57,0,0,1-3.36,1.24,5.12,5.12,0,0,1-3.26-1,4,4,0,0,1-1.53-3.32,4.07,4.07,0,0,1,.58-2.14A3.8,3.8,0,0,1,848.26,328.68Zm.32,3.37a2.5,2.5,0,0,0,.58,1.77,1.89,1.89,0,0,0,1.45.64,1.84,1.84,0,0,0,1.4-.61,2.56,2.56,0,0,0,.56-1.77,2.25,2.25,0,0,0-.57-1.61,1.84,1.84,0,0,0-1.43-.61,1.72,1.72,0,0,0-1.5.69A2.51,2.51,0,0,0,848.58,332.05Zm.25-6.13a1.72,1.72,0,0,0,.46,1.28,1.67,1.67,0,0,0,1.24.46,1.62,1.62,0,0,0,1.72-1.75,1.61,1.61,0,0,0-1.69-1.7,1.62,1.62,0,0,0-1.73,1.71Z"/><path d="M857.05,325.63a4.08,4.08,0,0,1,.85-2.85,2.93,2.93,0,0,1,2.29-.93,3,3,0,0,1,2.34.92,5.27,5.27,0,0,1,0,5.71,3,3,0,0,1-2.29.93,3,3,0,0,1-2.34-.93A4.06,4.06,0,0,1,857.05,325.63Zm2.14,0a3.74,3.74,0,0,0,.32,1.87.78.78,0,0,0,.68.35.77.77,0,0,0,.68-.35,5.8,5.8,0,0,0,0-3.74.77.77,0,0,0-.68-.36.8.8,0,0,0-.68.35A3.79,3.79,0,0,0,859.19,325.61ZM862.28,337h-2l7.62-15.11h2Zm4.43-3.76a4.16,4.16,0,0,1,.84-2.86,3.37,3.37,0,0,1,4.63,0,5.24,5.24,0,0,1,0,5.72,2.92,2.92,0,0,1-2.29.92,3,3,0,0,1-2.34-.92A4.18,4.18,0,0,1,866.71,333.2Zm2.14,0a3.67,3.67,0,0,0,.32,1.86.77.77,0,0,0,.68.36.75.75,0,0,0,.67-.35,3.74,3.74,0,0,0,.32-1.87,3.82,3.82,0,0,0-.31-1.88.79.79,0,0,0-.68-.35.78.78,0,0,0-.68.35A3.79,3.79,0,0,0,868.85,333.19Z"/></g></g></g></g><g id="Group_5193" data-name="Group 5193"><g id="Group_5192" data-name="Group 5192"><g id="_0.2_" data-name=" 0.2 " class="cls-3"><g class="cls-3"><path d="M939.14,325.38a3.92,3.92,0,0,1,3.26,1.49q1.4,1.75,1.39,5.83c0,2.71-.47,4.65-1.4,5.84a3.94,3.94,0,0,1-3.25,1.46,4.08,4.08,0,0,1-3.36-1.6c-.86-1.08-1.28-3-1.28-5.73s.46-4.64,1.4-5.82A3.91,3.91,0,0,1,939.14,325.38Zm0,2.28a1.31,1.31,0,0,0-.88.32,2.11,2.11,0,0,0-.61,1.13,23.59,23.59,0,0,0,0,7.05,2.36,2.36,0,0,0,.64,1.25,1.38,1.38,0,0,0,1.77,0,2.1,2.1,0,0,0,.61-1.14,15.47,15.47,0,0,0,.28-3.57,15.7,15.7,0,0,0-.25-3.47A2.44,2.44,0,0,0,940,328,1.32,1.32,0,0,0,939.14,327.66Z"/><path d="M946.21,339.76V337H949v2.75Z"/><path d="M960.45,337.21v2.55h-9.62a6.68,6.68,0,0,1,.94-2.74,18,18,0,0,1,3.09-3.43,20.31,20.31,0,0,0,2.27-2.35,3,3,0,0,0,.57-1.68,2,2,0,0,0-.49-1.41,1.85,1.85,0,0,0-1.37-.49,1.79,1.79,0,0,0-1.36.52,2.6,2.6,0,0,0-.59,1.71l-2.73-.27a4.47,4.47,0,0,1,1.53-3.25,5.13,5.13,0,0,1,3.22-1,4.67,4.67,0,0,1,3.33,1.14,3.76,3.76,0,0,1,1.21,2.85,5,5,0,0,1-.34,1.84A7.58,7.58,0,0,1,959,333a17,17,0,0,1-1.8,1.82c-.87.8-1.41,1.33-1.64,1.59a4.56,4.56,0,0,0-.57.76Z"/><path d="M962.33,329a4.16,4.16,0,0,1,.84-2.86,3.37,3.37,0,0,1,4.63,0,5.22,5.22,0,0,1,0,5.71,2.94,2.94,0,0,1-2.29.93,3,3,0,0,1-2.34-.93A4.11,4.11,0,0,1,962.33,329Zm2.14,0a3.63,3.63,0,0,0,.32,1.87.76.76,0,0,0,.67.35.78.78,0,0,0,.69-.35,5.8,5.8,0,0,0,0-3.74.79.79,0,0,0-.69-.36.78.78,0,0,0-.67.35A3.68,3.68,0,0,0,964.47,329Zm3.08,11.34h-2l7.63-15.1h2Zm4.44-3.76a4.15,4.15,0,0,1,.84-2.85,3.37,3.37,0,0,1,4.63,0,5.29,5.29,0,0,1,0,5.72,3,3,0,0,1-2.29.92,3,3,0,0,1-2.34-.92A4.19,4.19,0,0,1,972,336.54Zm2.13,0a3.56,3.56,0,0,0,.33,1.87.81.81,0,0,0,1.34,0,3.63,3.63,0,0,0,.33-1.88,3.74,3.74,0,0,0-.32-1.87.79.79,0,0,0-.68-.35.76.76,0,0,0-.67.35A3.61,3.61,0,0,0,974.12,336.53Z"/></g></g></g></g><g id="Group_5195" data-name="Group 5195"><g id="Group_5194" data-name="Group 5194"><g id="_-" data-name=" -" class="cls-3"><g class="cls-3"><path d="M1035.5,400.71v-2.19h4.31v2.19Z"/></g></g></g></g><g id="Group_5197" data-name="Group 5197"><g id="Group_5196" data-name="Group 5196"><g id="_2.7_" data-name=" 2.7 " class="cls-3"><g class="cls-3"><path d="M1053.39,402.5v2.55h-9.62a6.5,6.5,0,0,1,.94-2.74,18.57,18.57,0,0,1,3.08-3.43,19.25,19.25,0,0,0,2.28-2.34,3.09,3.09,0,0,0,.56-1.68,1.87,1.87,0,0,0-.49-1.41,2.08,2.08,0,0,0-2.73,0,2.69,2.69,0,0,0-.59,1.72l-2.73-.28a4.47,4.47,0,0,1,1.53-3.25,5.21,5.21,0,0,1,3.23-1,4.67,4.67,0,0,1,3.33,1.14,3.77,3.77,0,0,1,1.21,2.84,4.94,4.94,0,0,1-.35,1.84,7.58,7.58,0,0,1-1.1,1.83,17.57,17.57,0,0,1-1.79,1.83c-.87.79-1.42,1.32-1.65,1.58a4.9,4.9,0,0,0-.56.76Z"/><path d="M1055.83,405.05v-2.74h2.74v2.74Z"/><path d="M1060.8,393.48v-2.55h9.38v2a15,15,0,0,0-2.36,3.28,19.35,19.35,0,0,0-1.83,4.55,16.68,16.68,0,0,0-.62,4.3h-2.65A18.49,18.49,0,0,1,1064,399a20.07,20.07,0,0,1,3.09-5.52Z"/><path d="M1071.94,394.27a4.1,4.1,0,0,1,.85-2.85,2.93,2.93,0,0,1,2.29-.93,3,3,0,0,1,2.34.92,5.27,5.27,0,0,1,0,5.71,3,3,0,0,1-2.29.93,3,3,0,0,1-2.34-.92A4.11,4.11,0,0,1,1071.94,394.27Zm2.14,0a3.79,3.79,0,0,0,.32,1.88.8.8,0,0,0,.68.35.79.79,0,0,0,.68-.35,3.82,3.82,0,0,0,.31-1.88,3.7,3.7,0,0,0-.31-1.86.76.76,0,0,0-.68-.37.79.79,0,0,0-.68.36A3.72,3.72,0,0,0,1074.08,394.25Zm3.09,11.35h-2l7.62-15.11h2Zm4.43-3.76a4.1,4.1,0,0,1,.85-2.85,3.33,3.33,0,0,1,4.62,0,5.22,5.22,0,0,1,0,5.71,2.93,2.93,0,0,1-2.29.93,3,3,0,0,1-2.33-.93A4.11,4.11,0,0,1,1081.6,401.84Zm2.14,0a3.67,3.67,0,0,0,.32,1.86.81.81,0,0,0,1.35,0,3.72,3.72,0,0,0,.32-1.87,3.82,3.82,0,0,0-.31-1.88.79.79,0,0,0-.68-.35.78.78,0,0,0-.68.35A3.79,3.79,0,0,0,1083.74,401.83Z"/></g></g></g></g><g id="Group_5199" data-name="Group 5199"><g id="Group_5198" data-name="Group 5198"><g id="Group"><g id="_" data-name=" " class="cls-3"><g class="cls-3"><path d="M.57,414.58V413H5.43v1.59Z"/><path d="M12.45,418.45H10.87V408.37a8.1,8.1,0,0,1-1.5,1.08,10.14,10.14,0,0,1-1.67.82v-1.53A9.29,9.29,0,0,0,10,407.23a6,6,0,0,0,1.41-1.72h1Z"/><path d="M16.25,412.09a11.63,11.63,0,0,1,.47-3.68,4.57,4.57,0,0,1,1.4-2.15,3.56,3.56,0,0,1,2.33-.75,3.79,3.79,0,0,1,1.82.42,3.44,3.44,0,0,1,1.29,1.2,6.27,6.27,0,0,1,.8,1.92,12.82,12.82,0,0,1,.29,3,11.83,11.83,0,0,1-.47,3.66,4.59,4.59,0,0,1-1.39,2.16,3.61,3.61,0,0,1-2.34.76,3.55,3.55,0,0,1-2.93-1.34Q16.25,415.73,16.25,412.09Zm1.62,0c0,2.12.25,3.52.75,4.22a2.11,2.11,0,0,0,3.66,0c.5-.7.74-2.11.74-4.22s-.24-3.53-.74-4.23a2.21,2.21,0,0,0-1.85-1,2,2,0,0,0-1.74.92A8.24,8.24,0,0,0,17.87,412.09Z"/><path d="M26.31,408.66a3.93,3.93,0,0,1,.69-2.35,2.3,2.3,0,0,1,2-1,2.61,2.61,0,0,1,2,.87,4.38,4.38,0,0,1,0,5.06,2.55,2.55,0,0,1-2,.88,2.51,2.51,0,0,1-2-.87A3.81,3.81,0,0,1,26.31,408.66Zm2.75-2.23a1.18,1.18,0,0,0-1,.51,3.25,3.25,0,0,0-.39,1.87,3,3,0,0,0,.39,1.75,1.21,1.21,0,0,0,1,.5,1.22,1.22,0,0,0,1-.51,3.21,3.21,0,0,0,.39-1.86,2.92,2.92,0,0,0-.4-1.75A1.19,1.19,0,0,0,29.06,406.43Zm0,12.49,7-13.58H37.4l-7,13.58Zm5.57-3.5a3.93,3.93,0,0,1,.69-2.35,2.34,2.34,0,0,1,2-1,2.63,2.63,0,0,1,2,.86,3.66,3.66,0,0,1,.8,2.55,3.6,3.6,0,0,1-.81,2.52,2.57,2.57,0,0,1-2,.88,2.48,2.48,0,0,1-1.94-.87A3.86,3.86,0,0,1,34.64,415.42Zm2.76-2.22a1.2,1.2,0,0,0-1,.51,3.23,3.23,0,0,0-.39,1.87,2.94,2.94,0,0,0,.39,1.74,1.22,1.22,0,0,0,2,0,3.21,3.21,0,0,0,.39-1.86,2.91,2.91,0,0,0-.4-1.76A1.21,1.21,0,0,0,37.4,413.2Z"/></g></g></g></g></g><g id="Group_5201" data-name="Group 5201"><g id="Group_5200" data-name="Group 5200"><g class="cls-3"><g class="cls-3"><path d="M12.45,358.52a11.89,11.89,0,0,1,.47-3.68,4.52,4.52,0,0,1,1.4-2.15,3.53,3.53,0,0,1,2.33-.76,3.79,3.79,0,0,1,1.82.42,3.52,3.52,0,0,1,1.29,1.2,6.49,6.49,0,0,1,.8,1.92,12.41,12.41,0,0,1,.29,3,11.87,11.87,0,0,1-.46,3.66,4.62,4.62,0,0,1-1.4,2.15,3.54,3.54,0,0,1-2.34.76,3.55,3.55,0,0,1-2.93-1.34Q12.44,362.15,12.45,358.52Zm1.63,0c0,2.11.24,3.52.74,4.22a2.11,2.11,0,0,0,3.66,0c.5-.7.75-2.11.75-4.21s-.25-3.53-.75-4.23a2.19,2.19,0,0,0-1.85-1.05,2.05,2.05,0,0,0-1.74.92C14.35,355,14.08,356.4,14.08,358.52Z"/><path d="M22.81,355.08a3.89,3.89,0,0,1,.7-2.35,2.32,2.32,0,0,1,2-1,2.6,2.6,0,0,1,2,.86,3.66,3.66,0,0,1,.79,2.55,3.57,3.57,0,0,1-.8,2.51,2.59,2.59,0,0,1-2,.89,2.51,2.51,0,0,1-1.95-.87A3.84,3.84,0,0,1,22.81,355.08Zm2.75-2.22a1.21,1.21,0,0,0-1,.51,3.2,3.2,0,0,0-.39,1.87,2.93,2.93,0,0,0,.4,1.74,1.2,1.2,0,0,0,2,0,3.23,3.23,0,0,0,.39-1.87,3,3,0,0,0-.39-1.75A1.19,1.19,0,0,0,25.56,352.86Zm0,12.48,7-13.57h1.29l-7,13.57Zm5.58-3.49a3.91,3.91,0,0,1,.69-2.35,2.32,2.32,0,0,1,2-1,2.61,2.61,0,0,1,2,.87,4.38,4.38,0,0,1,0,5.06,2.58,2.58,0,0,1-2,.88,2.51,2.51,0,0,1-1.95-.87A3.83,3.83,0,0,1,31.15,361.85Zm2.76-2.23a1.2,1.2,0,0,0-1,.51,3.25,3.25,0,0,0-.39,1.87,2.9,2.9,0,0,0,.39,1.74,1.21,1.21,0,0,0,2,0,3.17,3.17,0,0,0,.4-1.86,2.94,2.94,0,0,0-.4-1.75A1.19,1.19,0,0,0,33.91,359.62Z"/></g></g></g></g><g id="Group_5203" data-name="Group 5203"><g id="Group_5202" data-name="Group 5202"><g class="cls-3"><g class="cls-3"><path d="M10.5,311.3H8.92V301.21a8,8,0,0,1-1.5,1.09,10.14,10.14,0,0,1-1.67.82v-1.53a9.29,9.29,0,0,0,2.32-1.51,6.14,6.14,0,0,0,1.41-1.72h1Z"/><path d="M14.6,304.94a11.93,11.93,0,0,1,.47-3.68,4.64,4.64,0,0,1,1.4-2.15,3.6,3.6,0,0,1,2.33-.75,3.88,3.88,0,0,1,1.82.41,3.42,3.42,0,0,1,1.3,1.21,6.53,6.53,0,0,1,.8,1.92,12.82,12.82,0,0,1,.29,3,11.83,11.83,0,0,1-.47,3.66,4.5,4.5,0,0,1-1.39,2.15,3.57,3.57,0,0,1-2.35.76,3.52,3.52,0,0,1-2.92-1.33Q14.6,308.58,14.6,304.94Zm1.63,0c0,2.12.25,3.52.74,4.22a2.13,2.13,0,0,0,3.67,0c.49-.7.74-2.11.74-4.22s-.25-3.53-.74-4.23a2.22,2.22,0,0,0-1.85-1,2,2,0,0,0-1.74.92C16.5,301.38,16.23,302.83,16.23,304.94Z"/><path d="M25,301.5a3.9,3.9,0,0,1,.69-2.34,2.32,2.32,0,0,1,2-1,2.61,2.61,0,0,1,2,.87,4.38,4.38,0,0,1,0,5.06,2.55,2.55,0,0,1-2,.88,2.48,2.48,0,0,1-1.94-.87A3.83,3.83,0,0,1,25,301.5Zm2.75-2.22a1.19,1.19,0,0,0-1,.51,3.23,3.23,0,0,0-.39,1.87,3,3,0,0,0,.39,1.75,1.22,1.22,0,0,0,1,.5,1.2,1.2,0,0,0,1-.51,3.21,3.21,0,0,0,.39-1.86,2.85,2.85,0,0,0-.4-1.75A1.19,1.19,0,0,0,27.72,299.28Zm0,12.49,7.05-13.58h1.28l-7,13.58Zm5.57-3.5a3.93,3.93,0,0,1,.69-2.35,2.36,2.36,0,0,1,2-1,2.62,2.62,0,0,1,2,.86,3.66,3.66,0,0,1,.8,2.55,3.6,3.6,0,0,1-.81,2.52,2.57,2.57,0,0,1-2,.88,2.49,2.49,0,0,1-1.94-.87A3.86,3.86,0,0,1,33.3,308.27Zm2.76-2.22a1.2,1.2,0,0,0-1,.51,3.23,3.23,0,0,0-.39,1.87,2.94,2.94,0,0,0,.39,1.74,1.22,1.22,0,0,0,2,0,3.21,3.21,0,0,0,.39-1.86,2.89,2.89,0,0,0-.4-1.76A1.21,1.21,0,0,0,36.06,306.05Z"/></g></g></g></g><g id="Group_5205" data-name="Group 5205"><g id="Group_5204" data-name="Group 5204"><g class="cls-3"><g class="cls-3"><path d="M12.85,254.53v1.52H4.34a2.71,2.71,0,0,1,.18-1.1,6.17,6.17,0,0,1,1-1.72,17,17,0,0,1,2.07-1.95,17.59,17.59,0,0,0,2.84-2.73,3.27,3.27,0,0,0,.74-1.9,2.11,2.11,0,0,0-.67-1.59,2.44,2.44,0,0,0-1.76-.64A2.47,2.47,0,0,0,7,245.1a2.61,2.61,0,0,0-.7,1.9l-1.62-.17a4,4,0,0,1,1.25-2.77,4.32,4.32,0,0,1,2.93-.95,4,4,0,0,1,2.93,1,3.34,3.34,0,0,1,1.09,2.55,3.91,3.91,0,0,1-.32,1.52,6,6,0,0,1-1,1.57A25.25,25.25,0,0,1,9,252.05a24.36,24.36,0,0,0-1.83,1.62,5.14,5.14,0,0,0-.67.86Z"/><path d="M14.6,249.69a11.93,11.93,0,0,1,.47-3.68,4.64,4.64,0,0,1,1.4-2.15,3.6,3.6,0,0,1,2.33-.75,3.76,3.76,0,0,1,1.82.42,3.4,3.4,0,0,1,1.3,1.2,6.53,6.53,0,0,1,.8,1.92,12.82,12.82,0,0,1,.29,3,11.83,11.83,0,0,1-.47,3.66,4.59,4.59,0,0,1-1.39,2.16,3.62,3.62,0,0,1-2.35.76,3.53,3.53,0,0,1-2.92-1.34Q14.6,253.33,14.6,249.69Zm1.63,0c0,2.12.25,3.52.74,4.22a2.13,2.13,0,0,0,3.67,0c.49-.7.74-2.11.74-4.22s-.25-3.53-.74-4.23a2.22,2.22,0,0,0-1.85-1,2,2,0,0,0-1.74.92C16.5,246.13,16.23,247.58,16.23,249.69Z"/><path d="M25,246.25a3.9,3.9,0,0,1,.69-2.34,2.32,2.32,0,0,1,2-1,2.61,2.61,0,0,1,2,.87,4.38,4.38,0,0,1,0,5.06,2.55,2.55,0,0,1-2,.88,2.48,2.48,0,0,1-1.94-.87A3.83,3.83,0,0,1,25,246.25ZM27.72,244a1.19,1.19,0,0,0-1,.51,3.23,3.23,0,0,0-.39,1.87,3,3,0,0,0,.39,1.75,1.22,1.22,0,0,0,1,.5,1.2,1.2,0,0,0,1-.51,3.21,3.21,0,0,0,.39-1.86,2.85,2.85,0,0,0-.4-1.75A1.19,1.19,0,0,0,27.72,244Zm0,12.49,7.05-13.58h1.28l-7,13.58ZM33.3,253a3.93,3.93,0,0,1,.69-2.35,2.36,2.36,0,0,1,2-1,2.62,2.62,0,0,1,2,.86,3.66,3.66,0,0,1,.8,2.55,3.6,3.6,0,0,1-.81,2.52,2.57,2.57,0,0,1-2,.88,2.49,2.49,0,0,1-1.94-.87A3.86,3.86,0,0,1,33.3,253Zm2.76-2.22a1.2,1.2,0,0,0-1,.51,3.23,3.23,0,0,0-.39,1.87,2.94,2.94,0,0,0,.39,1.74,1.22,1.22,0,0,0,2,0,3.21,3.21,0,0,0,.39-1.86,2.91,2.91,0,0,0-.4-1.76A1.21,1.21,0,0,0,36.06,250.8Z"/></g></g></g></g><g id="Group_5207" data-name="Group 5207"><g id="Group_5206" data-name="Group 5206"><g class="cls-3"><g class="cls-3"><path d="M4.55,199.07l1.58-.21a3.5,3.5,0,0,0,.93,1.94,2.3,2.3,0,0,0,1.59.59,2.59,2.59,0,0,0,1.89-.77,2.64,2.64,0,0,0,.77-1.92,2.41,2.41,0,0,0-.72-1.8,2.45,2.45,0,0,0-1.81-.71,4.43,4.43,0,0,0-1.11.18L7.84,195l.26,0a3.29,3.29,0,0,0,1.82-.53,1.79,1.79,0,0,0,.81-1.62,2,2,0,0,0-.59-1.45,2.11,2.11,0,0,0-1.52-.57,2.18,2.18,0,0,0-1.54.58,3,3,0,0,0-.79,1.74l-1.58-.28A4,4,0,0,1,6,190.41a3.79,3.79,0,0,1,2.56-.88,4.23,4.23,0,0,1,1.94.45,3.28,3.28,0,0,1,1.36,1.24,3.1,3.1,0,0,1,.47,1.66,2.71,2.71,0,0,1-.45,1.52,3,3,0,0,1-1.32,1.09,3,3,0,0,1,1.77,1.1,3.32,3.32,0,0,1,.64,2.07,3.8,3.8,0,0,1-1.24,2.86,4.29,4.29,0,0,1-3.11,1.18,4,4,0,0,1-2.81-1A3.89,3.89,0,0,1,4.55,199.07Z"/><path d="M14.6,196.12a11.89,11.89,0,0,1,.47-3.68,4.59,4.59,0,0,1,1.4-2.15,3.55,3.55,0,0,1,2.33-.76,3.76,3.76,0,0,1,1.82.42,3.48,3.48,0,0,1,1.3,1.2,6.76,6.76,0,0,1,.8,1.92,12.92,12.92,0,0,1,.29,3.05,11.83,11.83,0,0,1-.47,3.66,4.6,4.6,0,0,1-1.39,2.15,3.57,3.57,0,0,1-2.35.76,3.53,3.53,0,0,1-2.92-1.34Q14.6,199.75,14.6,196.12Zm1.63,0c0,2.11.25,3.52.74,4.22a2.12,2.12,0,0,0,3.67,0c.49-.7.74-2.11.74-4.21s-.25-3.54-.74-4.23a2.21,2.21,0,0,0-1.85-1,2,2,0,0,0-1.74.92C16.5,192.55,16.23,194,16.23,196.12Z"/><path d="M25,192.68a4,4,0,0,1,.69-2.35,2.33,2.33,0,0,1,2-1,2.6,2.6,0,0,1,2,.86,3.66,3.66,0,0,1,.8,2.55,3.57,3.57,0,0,1-.81,2.51,2.56,2.56,0,0,1-2,.89,2.48,2.48,0,0,1-1.94-.87A3.84,3.84,0,0,1,25,192.68Zm2.75-2.23a1.19,1.19,0,0,0-1,.51,3.26,3.26,0,0,0-.39,1.88,2.94,2.94,0,0,0,.39,1.74,1.21,1.21,0,0,0,2,0,3.23,3.23,0,0,0,.39-1.87,2.87,2.87,0,0,0-.4-1.75A1.19,1.19,0,0,0,27.72,190.45Zm0,12.49,7.05-13.57h1.28l-7,13.57Zm5.57-3.49A3.91,3.91,0,0,1,34,197.1a2.34,2.34,0,0,1,2-1,2.6,2.6,0,0,1,2,.87,4.38,4.38,0,0,1,0,5.06,2.57,2.57,0,0,1-2,.88,2.49,2.49,0,0,1-1.94-.87A3.83,3.83,0,0,1,33.3,199.45Zm2.76-2.23a1.2,1.2,0,0,0-1,.51,3.25,3.25,0,0,0-.39,1.87,2.94,2.94,0,0,0,.39,1.74,1.22,1.22,0,0,0,2,0,3.21,3.21,0,0,0,.39-1.86,2.85,2.85,0,0,0-.4-1.75A1.19,1.19,0,0,0,36.06,197.22Z"/></g></g></g></g><g id="Group_5209" data-name="Group 5209"><g id="Group_5208" data-name="Group 5208"><g class="cls-3"><g class="cls-3"><path d="M9.61,148.89v-3.08H4v-1.45L9.9,136h1.29v8.35h1.74v1.45H11.19v3.08Zm0-4.53v-5.81l-4,5.81Z"/><path d="M14.6,142.54a11.93,11.93,0,0,1,.47-3.68,4.64,4.64,0,0,1,1.4-2.15A3.6,3.6,0,0,1,18.8,136a3.88,3.88,0,0,1,1.82.41,3.42,3.42,0,0,1,1.3,1.21,6.58,6.58,0,0,1,.8,1.91,13,13,0,0,1,.29,3,11.83,11.83,0,0,1-.47,3.66,4.5,4.5,0,0,1-1.39,2.15,3.57,3.57,0,0,1-2.35.76,3.52,3.52,0,0,1-2.92-1.33Q14.6,146.18,14.6,142.54Zm1.63,0c0,2.12.25,3.52.74,4.22a2.13,2.13,0,0,0,3.67,0c.49-.7.74-2.11.74-4.22s-.25-3.53-.74-4.23a2.22,2.22,0,0,0-1.85-1,2,2,0,0,0-1.74.92C16.5,139,16.23,140.43,16.23,142.54Z"/><path d="M25,139.1a3.9,3.9,0,0,1,.69-2.34,2.32,2.32,0,0,1,2-1,2.61,2.61,0,0,1,2,.87,4.38,4.38,0,0,1,0,5.06,2.55,2.55,0,0,1-2,.88,2.48,2.48,0,0,1-1.94-.87A3.83,3.83,0,0,1,25,139.1Zm2.75-2.22a1.19,1.19,0,0,0-1,.51,3.23,3.23,0,0,0-.39,1.87,3,3,0,0,0,.39,1.75,1.22,1.22,0,0,0,1,.5,1.2,1.2,0,0,0,1-.51,3.21,3.21,0,0,0,.39-1.86,2.85,2.85,0,0,0-.4-1.75A1.19,1.19,0,0,0,27.72,136.88Zm0,12.49,7.05-13.58h1.28l-7,13.58Zm5.57-3.5a3.93,3.93,0,0,1,.69-2.35,2.36,2.36,0,0,1,2-1,2.62,2.62,0,0,1,2,.86,3.66,3.66,0,0,1,.8,2.55,3.6,3.6,0,0,1-.81,2.52,2.6,2.6,0,0,1-2,.88,2.47,2.47,0,0,1-1.94-.88A3.82,3.82,0,0,1,33.3,145.87Zm2.76-2.22a1.2,1.2,0,0,0-1,.51,3.23,3.23,0,0,0-.39,1.87,2.94,2.94,0,0,0,.39,1.74,1.22,1.22,0,0,0,2,0,3.21,3.21,0,0,0,.39-1.86,2.89,2.89,0,0,0-.4-1.76A1.21,1.21,0,0,0,36.06,143.65Z"/></g></g></g></g><g id="Group_5211" data-name="Group 5211"><g id="Group_5210" data-name="Group 5210"><g class="cls-3"><g class="cls-3"><path d="M4.54,91.94,6.2,91.8a3,3,0,0,0,.86,1.83,2.36,2.36,0,0,0,1.62.61,2.54,2.54,0,0,0,1.93-.86,3.25,3.25,0,0,0,.79-2.29A2.91,2.91,0,0,0,10.64,89a2.61,2.61,0,0,0-2-.79,2.77,2.77,0,0,0-1.38.35,2.6,2.6,0,0,0-1,.9l-1.49-.19,1.25-6.62h6.41v1.51H7.33l-.69,3.46a4.22,4.22,0,0,1,2.43-.8,3.88,3.88,0,0,1,2.85,1.16,4.08,4.08,0,0,1,1.16,3,4.67,4.67,0,0,1-1,3,4.05,4.05,0,0,1-3.38,1.57,4.16,4.16,0,0,1-2.87-1A3.8,3.8,0,0,1,4.54,91.94Z"/><path d="M14.6,89a11.82,11.82,0,0,1,.47-3.67,4.59,4.59,0,0,1,1.4-2.15,3.55,3.55,0,0,1,2.33-.76,3.76,3.76,0,0,1,1.82.42,3.48,3.48,0,0,1,1.3,1.2,6.76,6.76,0,0,1,.8,1.92A12.88,12.88,0,0,1,23,89a11.75,11.75,0,0,1-.47,3.66,4.59,4.59,0,0,1-1.39,2.16,3.62,3.62,0,0,1-2.35.76,3.53,3.53,0,0,1-2.92-1.34Q14.6,92.6,14.6,89Zm1.63,0c0,2.12.25,3.53.74,4.23a2.12,2.12,0,0,0,3.67,0c.49-.7.74-2.11.74-4.22s-.25-3.53-.74-4.22a2.21,2.21,0,0,0-1.85-1,2,2,0,0,0-1.74.92C16.5,85.4,16.23,86.85,16.23,89Z"/><path d="M25,85.53a4,4,0,0,1,.69-2.35,2.34,2.34,0,0,1,2-1,2.61,2.61,0,0,1,2,.87,4.38,4.38,0,0,1,0,5.06,2.56,2.56,0,0,1-2,.89,2.48,2.48,0,0,1-1.94-.87A3.84,3.84,0,0,1,25,85.53Zm2.75-2.23a1.19,1.19,0,0,0-1,.51,3.26,3.26,0,0,0-.39,1.88,2.94,2.94,0,0,0,.39,1.74,1.21,1.21,0,0,0,2,0,3.25,3.25,0,0,0,.39-1.87,2.87,2.87,0,0,0-.4-1.75A1.19,1.19,0,0,0,27.72,83.3Zm0,12.49,7.05-13.58h1.28L29,95.79ZM33.3,92.3A4,4,0,0,1,34,89.94a2.36,2.36,0,0,1,2-1,2.6,2.6,0,0,1,2,.87,4.38,4.38,0,0,1,0,5.06,2.57,2.57,0,0,1-2,.88,2.49,2.49,0,0,1-1.94-.87A3.83,3.83,0,0,1,33.3,92.3Zm2.76-2.23a1.2,1.2,0,0,0-1,.51,3.25,3.25,0,0,0-.39,1.87,2.94,2.94,0,0,0,.39,1.74,1.22,1.22,0,0,0,2,0,3.21,3.21,0,0,0,.39-1.86,2.85,2.85,0,0,0-.4-1.75A1.19,1.19,0,0,0,36.06,90.07Z"/></g></g></g></g><g id="Group_5213" data-name="Group 5213"><g id="Group_5212" data-name="Group 5212"><g id="企" class="cls-3"><g class="cls-3"><path class="cls-4" d="M99.09,434.7l-.42.56a19.83,19.83,0,0,0,8.25,5.13,5.89,5.89,0,0,0-1.5,2.06,22.83,22.83,0,0,1-8.13-5.57,25.4,25.4,0,0,1-8,5.57,8.88,8.88,0,0,0-1.62-2c3.58-1.4,7.24-3.79,9.24-6.79Zm-.42,15.13h7.17V452h-17v-2.14H91v-7h2.36v7h2.8V439.57h2.52v4.12H104v2.14H98.67Z"/><path class="cls-4" d="M115.61,449.39a15.45,15.45,0,0,1-5.82,2.66,9.27,9.27,0,0,0-1.4-1.72,16.77,16.77,0,0,0,5.54-1.7ZM126.22,446v2h-7.77v4.56h-2.36V448h-7.62v-2h7.62v-.88h-5.76v-1.72h5.76v-.9h-6.76v-1.8H113a11.12,11.12,0,0,0-.74-1.46l1.34-.3h-5.1v-1.87h2.72A18.28,18.28,0,0,0,110,434.6l2-.68a13,13,0,0,1,1.52,2.8l-1,.36h1.84v-3.26h2.2v3.26h1.5v-3.26h2.25v3.26h1.78l-.72-.22a17.57,17.57,0,0,0,1.28-2.88l2.5.58c-.56.92-1.1,1.82-1.6,2.52h2.58V439h-5.28l1.88.48c-.44.48-.86.92-1.22,1.28h3.86v1.8h-7v.9h6v1.72h-6V446ZM114.67,439a9.29,9.29,0,0,1,.8,1.5l-1.08.26h5.47l-.73-.22c.32-.46.75-1.06,1-1.54Zm6.25,9.56c1.62.6,4,1.6,5.26,2.24l-1.68,1.3c-1.16-.66-3.5-1.72-5.19-2.42Z"/><path class="cls-4" d="M134.27,434.52a34,34,0,0,1-1.72,3.7v14.25h-2.32V441.85a17.94,17.94,0,0,1-1.46,1.7,16.33,16.33,0,0,0-1.22-2.44,20.91,20.91,0,0,0,4.52-7.29Zm5.38,15.35a17.12,17.12,0,0,1-4.58,2.68,12.42,12.42,0,0,0-1.88-1.64,14,14,0,0,0,4.18-1.88Zm-.8-13.61h-4.38v-1.48h4.38v-1h2.41v1h4.56v1.48h-4.56v.66h4.14v1.41h-4.14V439h5.24v1.58H133.61V439h5.24v-.68h-4v-1.41h4ZM143,449a24.24,24.24,0,0,1,3.6,2.46l-2.14,1.24a21.75,21.75,0,0,0-3.66-2.78l2.06-.92H135v-7.72H145.3V449Zm-5.75-5.48h5.61v-.78h-5.61Zm0,2h5.61v-.8h-5.61Zm0,2h5.61v-.8h-5.61Z"/></g></g></g></g><g id="Group_5213-2" data-name="Group 5213"><g id="Group_5212-2" data-name="Group 5212"><g id="企-2" data-name="企" class="cls-3"><g class="cls-3"><path class="cls-4" d="M201.46,441.79v2.08h6.39V446h-3.16l2,.72c-.7,1.12-1.48,2.32-2.1,3.18h4.3v2.18H191.58v-2.18h3.94a16.61,16.61,0,0,0-1.66-3.24l1.58-.66h-2.9v-2.14h6.36v-2.08h-4.06v-1q-1.26.6-2.58,1.08a8.61,8.61,0,0,0-1.58-2.2c3.76-1.08,7.36-3.11,9.26-6.09l2.26,1-.56.8a22.31,22.31,0,0,0,8.21,4.27,11.54,11.54,0,0,0-1.64,2.08,26.42,26.42,0,0,1-2.72-1.16v1.18ZM195.88,446a13.68,13.68,0,0,1,1.74,3.18l-1.64.72h2.92V446Zm7.85-6.4a22.64,22.64,0,0,1-3.47-2.61,17.82,17.82,0,0,1-3.24,2.61Zm-2.27,6.4v3.9H204l-1.35-.56a18.37,18.37,0,0,0,1.77-3.34Z"/><path class="cls-4" d="M211,434.56H221v2H211Zm9.54,15.65c0,.86-.12,1.36-.68,1.66a4.48,4.48,0,0,1-2.2.32,7.42,7.42,0,0,0-.5-1.78c.52,0,1.08,0,1.24,0s.24-.06.24-.24v-6.1h-5.5v8.4h-1.8V442.35h9.2Zm-.54-8.56h-8V437.3h8ZM214.52,447a9.46,9.46,0,0,0-.92-2.12l1.22-.44a8.79,8.79,0,0,1,1,2.06Zm2.24,1.46v3.36h-1.68v-3.36h-1.44V447h2.24a23,23,0,0,0,1.08-2.7l1.44.58c-.38.68-.74,1.46-1.1,2.12h.88v1.44Zm1.16-9.56H214v1.16h3.9Zm10,13.6c-.06-.44-.14-1-.26-1.56-2.16.4-4.34.8-6.07,1.14l-.5-2.16c.84-.1,1.86-.24,3-.42v-3.66h-2.69V437.6H224v-3.48h2.06v3.48h2.72v8.23h-2.72v3.34l1.1-.18c-.18-.68-.36-1.4-.56-2l1.6-.32a37.89,37.89,0,0,1,1.38,5.42Zm-4.89-8.7h1.23v-4.16H223Zm4.05-4.16h-1.16v4.16H227Z"/><path class="cls-4" d="M237.18,434.52a34,34,0,0,1-1.72,3.7v14.25h-2.32V441.85a17.94,17.94,0,0,1-1.46,1.7,16.33,16.33,0,0,0-1.22-2.44,20.91,20.91,0,0,0,4.52-7.29Zm5.38,15.35a17.12,17.12,0,0,1-4.58,2.68,12.42,12.42,0,0,0-1.88-1.64,14,14,0,0,0,4.18-1.88Zm-.8-13.61h-4.38v-1.48h4.38v-1h2.41v1h4.56v1.48h-4.56v.66h4.14v1.41h-4.14V439h5.24v1.58H236.52V439h5.24v-.68h-4v-1.41h4ZM246,449a24.24,24.24,0,0,1,3.6,2.46l-2.14,1.24a21.75,21.75,0,0,0-3.66-2.78l2.06-.92h-7.89v-7.72h10.29V449Zm-5.75-5.48h5.61v-.78H240.2Zm0,2h5.61v-.8H240.2Zm0,2h5.61v-.8H240.2Z"/></g></g></g></g><rect class="cls-2" x="607.65" y="353.68" width="60.27" height="6.7"/><g id="Group_5181" data-name="Group 5181"><g id="Group_5180" data-name="Group 5180"><g id="_1.2_" data-name=" 1.2 " class="cls-3"><g class="cls-3"><path d="M623.51,339.76h-2.74V329.42a9.58,9.58,0,0,1-3.55,2.08V329a7.68,7.68,0,0,0,2.34-1.33,5.11,5.11,0,0,0,1.73-2.29h2.22Z"/><path d="M628.2,339.76V337h2.74v2.75Z"/><path d="M642.44,337.21v2.55h-9.62a6.54,6.54,0,0,1,.94-2.74,18.26,18.26,0,0,1,3.08-3.43,19.83,19.83,0,0,0,2.28-2.35,3,3,0,0,0,.57-1.68,1.91,1.91,0,0,0-.5-1.41,1.83,1.83,0,0,0-1.36-.49,1.86,1.86,0,0,0-1.37.51,2.66,2.66,0,0,0-.58,1.72l-2.74-.27a4.48,4.48,0,0,1,1.54-3.25,5.11,5.11,0,0,1,3.22-1,4.67,4.67,0,0,1,3.33,1.14,3.76,3.76,0,0,1,1.21,2.85,5,5,0,0,1-.35,1.84A7.58,7.58,0,0,1,641,333a17.73,17.73,0,0,1-1.79,1.82q-1.31,1.2-1.65,1.59a4.47,4.47,0,0,0-.56.76Z"/><path d="M644.31,329a4.16,4.16,0,0,1,.85-2.86,3,3,0,0,1,2.29-.92,3,3,0,0,1,2.34.92,5.27,5.27,0,0,1,0,5.71,3,3,0,0,1-2.29.92,3,3,0,0,1-2.34-.92A4.13,4.13,0,0,1,644.31,329Zm2.14,0a3.74,3.74,0,0,0,.32,1.87.78.78,0,0,0,.68.35.77.77,0,0,0,.68-.35,5.8,5.8,0,0,0,0-3.74.77.77,0,0,0-.68-.36.8.8,0,0,0-.68.35A3.79,3.79,0,0,0,646.45,329Zm3.09,11.34h-2l7.62-15.1h2Zm4.43-3.76a4.1,4.1,0,0,1,.85-2.85,3,3,0,0,1,2.31-.93,3,3,0,0,1,2.32.93,5.29,5.29,0,0,1,0,5.72,3,3,0,0,1-2.29.92,3,3,0,0,1-2.34-.92A4.14,4.14,0,0,1,654,336.54Zm2.14,0a3.69,3.69,0,0,0,.32,1.87.79.79,0,0,0,.68.36.77.77,0,0,0,.67-.35,3.65,3.65,0,0,0,.32-1.88,3.77,3.77,0,0,0-.31-1.87.77.77,0,0,0-.68-.35.75.75,0,0,0-.68.35A3.74,3.74,0,0,0,656.11,336.53Z"/></g></g></g></g><g id="Group_5213-3" data-name="Group 5213"><g id="Group_5212-3" data-name="Group 5212"><g id="企-3" data-name="企" class="cls-3"><g class="cls-3"><path class="cls-4" d="M607.44,435.12a30.35,30.35,0,0,1-6,8.77,22.93,22.93,0,0,0-2.12-2,21,21,0,0,0,5.42-7.59Zm5.6,9.19a63.21,63.21,0,0,1,4.44,6.9l-2.46,1.3a21.59,21.59,0,0,0-1-2c-9.66.76-11,.88-12,1.24a21.47,21.47,0,0,0-1-2.54,4.73,4.73,0,0,0,2-1.6,36.44,36.44,0,0,0,4.92-7.58l2.78,1.16a44.93,44.93,0,0,1-5.4,7.54l7.34-.48c-.64-1-1.3-2-1.92-2.92Zm.38-10a12.9,12.9,0,0,0,5.14,7.13,12.33,12.33,0,0,0-1.8,2.4,17.65,17.65,0,0,1-5.18-7.07h-3.2V434.3Z"/><path class="cls-4" d="M636.84,449.69c0,1.28-.28,1.92-1.08,2.28a9.29,9.29,0,0,1-3.84.42,9,9,0,0,0-.76-2.28c1.12.06,2.44,0,2.8,0s.52-.12.52-.48v-3h-4.22v5.58h-2.4v-5.58h-4.08a11.45,11.45,0,0,1-2.52,5.94,8.79,8.79,0,0,0-1.88-1.54c2.18-2.4,2.36-6,2.36-8.76v-7.15h15.1Zm-9-5.26V442H624.1v.36c0,.64,0,1.36-.06,2.1Zm-3.76-7v2.33h3.76v-2.33Zm10.38,0h-4.22v2.33h4.22Zm0,7V442h-4.22v2.46Z"/><path class="cls-4" d="M658.1,447H656v3.48H653.6v-.82H650v.62c0,1.18-.28,1.66-1.06,2a10.53,10.53,0,0,1-3.54.34,7.33,7.33,0,0,0-.78-1.88c1,0,2.14,0,2.46,0s.5-.14.5-.5v-.62H641.5v-1.72h6.08V447h-7.92v-1.82h7.92v-.86h-5.92v-1.6h5.92v-.88h-5.42v-4h5.42V437h-7.46v-1.88h7.46v-1.3H650v1.3h7.64V437H650v.82h5.68v4H650v.88h6v2.46h2.08Zm-10.52-6.66v-1h-3.14v1Zm2.42-1v1h3.24v-1Zm0,5.8h3.6v-.86H650Zm3.6,1.82H650v.94h3.6Z"/><path class="cls-4" d="M667.18,449.39a15.45,15.45,0,0,1-5.82,2.66,9.27,9.27,0,0,0-1.4-1.72,16.77,16.77,0,0,0,5.54-1.7Zm10.6-3.38v2H670v4.56h-2.36V448H660v-2h7.62v-.88H661.9v-1.72h5.76v-.9H660.9v-1.8h3.68a11.12,11.12,0,0,0-.74-1.46l1.34-.3h-5.1v-1.87h2.72a18.28,18.28,0,0,0-1.28-2.48l2-.68a13,13,0,0,1,1.52,2.8l-1,.36H666v-3.26h2.2v3.26h1.5v-3.26h2.24v3.26h1.78l-.72-.22a17.57,17.57,0,0,0,1.28-2.88l2.5.58c-.56.92-1.1,1.82-1.6,2.52h2.58V439h-5.28l1.88.48c-.44.48-.86.92-1.22,1.28H677v1.8H670v.9h6v1.72h-6V446ZM666.24,439a9.29,9.29,0,0,1,.8,1.5l-1.08.26h5.46l-.72-.22c.32-.46.74-1.06,1-1.54Zm6.24,9.56c1.62.6,4,1.6,5.26,2.24l-1.68,1.3c-1.16-.66-3.5-1.72-5.18-2.42Z"/></g></g></g></g><g id="Group_5213-4" data-name="Group 5213"><g id="Group_5212-4" data-name="Group 5212"><g id="企-4" data-name="企" class="cls-3"><g class="cls-3"><path class="cls-4" d="M299.53,445.15a20.23,20.23,0,0,0-.82-1.94v9.3h-2v-7.72a18.45,18.45,0,0,1-1.36,3.58,16,16,0,0,0-.92-2.36,20.12,20.12,0,0,0,2.16-6.26H294.9v-2.21h1.76v-3.72h2v3.72h1.34v2.21h-1.34v.88c.44.62,1.58,2.46,1.84,2.94Zm12.66,1.38a11.78,11.78,0,0,1-2.2,2.94,2,2,0,0,0,1.24.72c.38,0,.62-.68.76-2.08a6.13,6.13,0,0,0,1.5,1.26c-.52,2.48-1.32,3.18-2.18,3.12a4.11,4.11,0,0,1-2.94-1.7,14.81,14.81,0,0,1-3.16,1.66,9.46,9.46,0,0,0-1.22-1.52,12.77,12.77,0,0,0,3.44-1.8,16.74,16.74,0,0,1-1-3.2h-2.72c0,.14,0,.3,0,.44.82.66,2,1.58,2.54,2.16l-1.44,1.4a18,18,0,0,0-1.5-1.44,8.22,8.22,0,0,1-2.72,4,7.37,7.37,0,0,0-1.58-1.36,6.49,6.49,0,0,0,2.72-5.2h-1.18v-1.82h5.58a64.9,64.9,0,0,1-.68-7,25.85,25.85,0,0,1-2.72,4.17l1.12-.12c-.1-.3-.18-.62-.26-.9l1.38-.36a24.77,24.77,0,0,1,.8,2.88l-1.48.44a6.19,6.19,0,0,0-.12-.68,14.7,14.7,0,0,0-3.14.62c-.1-.32-.36-1.18-.56-1.62a2,2,0,0,0,1-.88,15.28,15.28,0,0,0,1-1.46,5.45,5.45,0,0,0-1.6.34c-.1-.36-.38-1.16-.56-1.61a1.38,1.38,0,0,0,.72-.72,15.07,15.07,0,0,0,1.34-3.2l1.7.44a20.16,20.16,0,0,1-1.72,3.34l.9-.08c.2-.4.4-.82.56-1.24l1.66.56c0-1-.08-2-.12-3h2a66.13,66.13,0,0,0,.84,10.13h1.84c-.34-.3-.72-.6-1-.86l.9-.74a4.77,4.77,0,0,0-1.42.36,15.56,15.56,0,0,0-.54-1.64,2.27,2.27,0,0,0,1-.92,9.74,9.74,0,0,0,.92-1.42,5.19,5.19,0,0,0-1.56.34c-.12-.36-.38-1.15-.58-1.61.26-.06.48-.32.7-.68a14.49,14.49,0,0,0,1.2-3l1.7.46a16.47,16.47,0,0,1-1.56,3.08l.9-.06c.18-.4.36-.84.52-1.24l1.72.56a25.54,25.54,0,0,1-2.66,4.25l1.1-.12c-.1-.28-.18-.58-.28-.84l1.36-.38a29.27,29.27,0,0,1,.92,2.9l-1.42.5c0-.24-.1-.52-.18-.82l-1.26.2a16.08,16.08,0,0,1,1.52,1.22l-.52.48h1.6v1.82h-2.32Zm-3.76-.6a13.86,13.86,0,0,0,.54,1.74,9.19,9.19,0,0,0,1.18-1.74Z"/><path class="cls-4" d="M320.67,446.43c-.26-.62-.7-1.56-1.14-2.46v8.52h-2.17V445a16.87,16.87,0,0,1-1.82,3.94,11.41,11.41,0,0,0-1-2.1,20,20,0,0,0,2.68-6.7H315v-2.21h2.4v-4.12h2.17v4.12h2v2.21h-2v.94c.56.78,2,3.08,2.36,3.64Zm12.82,2.94h-1.08v.86c0,1-.2,1.5-.86,1.82a7.47,7.47,0,0,1-2.86.32,8.28,8.28,0,0,0-.62-1.88c.74,0,1.56,0,1.8,0s.34-.06.34-.3v-.84h-5.62v3h-2.14v-3h-1.22v-1.74h1.22v-5h3.84v-.76h-4.7v-1.68h2.48v-.84h-1.64v-1.61h1.64v-.82H322v-1.64h2.06v-1.46h2.2v1.46h2.2v-1.46h2.22v1.46h2.24v1.64h-2.24v.82h1.92v1.61h-1.92v.84h2.6v1.68h-4.86v.76h4v5h1.08Zm-8.9-5.1v.86h1.7v-.86Zm0,3.36h1.7v-1h-1.7Zm1.68-9.89h2.2v-.82h-2.2Zm0,2.45h2.2v-.84h-2.2Zm2.16,4.08v.86h1.78v-.86Zm1.78,3.36v-1h-1.78v1Z"/><path class="cls-4" d="M341,434.52a34,34,0,0,1-1.72,3.7v14.25h-2.33V441.85a17.94,17.94,0,0,1-1.46,1.7,16.33,16.33,0,0,0-1.22-2.44,20.93,20.93,0,0,0,4.53-7.29Zm5.38,15.35a17.12,17.12,0,0,1-4.58,2.68,12.42,12.42,0,0,0-1.88-1.64,14,14,0,0,0,4.18-1.88Zm-.8-13.61h-4.38v-1.48h4.38v-1H348v1h4.56v1.48H348v.66h4.14v1.41H348V439h5.24v1.58H340.33V439h5.24v-.68h-4v-1.41h4ZM349.75,449a24.24,24.24,0,0,1,3.6,2.46l-2.14,1.24a21.75,21.75,0,0,0-3.66-2.78l2.06-.92h-7.88v-7.72H352V449ZM344,443.49h5.6v-.78H344Zm0,2h5.6v-.8H344Zm0,2h5.6v-.8H344Z"/></g></g></g></g><g id="Group_5213-5" data-name="Group 5213"><g id="Group_5212-5" data-name="Group 5212"><g id="企-5" data-name="企" class="cls-3"><g class="cls-3"><path class="cls-4" d="M393.78,446.89a19.1,19.1,0,0,1-2,4.1,15.31,15.31,0,0,0-1.56-1.08,14.28,14.28,0,0,0,1.76-3.54Zm2.8-1.16v6.64h-2.3v-6.64h-3.72v-2h3.72v-1.54h-3.84v-2h1.94a12.38,12.38,0,0,0-.58-2.09l1.64-.4h-2.7V435.8h3.42c-.18-.54-.4-1.1-.6-1.58l2.38-.58c.3.66.66,1.48.9,2.16h2.86v1.94h-2.5l1.62.32c-.3.77-.6,1.55-.9,2.17H400v2h-3.42v1.54h3.1v2Zm-2.88-8a10,10,0,0,1,.66,2.09l-1.44.4h2.88a22.2,22.2,0,0,0,.86-2.49Zm15.22,4.87h-1.86v9.82h-2.32v-9.82h-1.86v.24c0,2.94-.26,7.06-2,9.62a8.88,8.88,0,0,0-1.84-1.42,7.83,7.83,0,0,0,.9-1.94l-1.42.88a24.16,24.16,0,0,0-1.56-3l1.56-.84a19.77,19.77,0,0,1,1.5,2.62,21.62,21.62,0,0,0,.62-5.92v-7.13a28.39,28.39,0,0,0,6.06-1.7l1.82,1.74a31,31,0,0,1-5.68,1.5v3.15h6Z"/><path class="cls-4" d="M428.7,447.87h-5.62c1.92.9,4,2,5.2,2.72l-1.58,1.82a43.38,43.38,0,0,0-5.48-3.12l1.12-1.42h-6.1l1.78,1.44a38.35,38.35,0,0,1-6.18,3.18,20.72,20.72,0,0,0-1.34-1.78,26.12,26.12,0,0,0,5.48-2.84H410.5v-2.18h1.44l-.28-10.49a22.1,22.1,0,0,0,3.32-1.26l1,1.94v-1.12h7.26v10.93h2c0-.56.06-1.14.1-1.76h-1.68v-1.88h1.76c0-.56,0-1.14,0-1.72h-1.64v-1.9h1.7c0-.65,0-1.25,0-1.87h-1.78v-1.92h3.86c0,3.5-.18,7.95-.36,11.05h1.42Zm-14.76-2.18h2V436c-.76.22-1.52.44-2.28.62l.06,1.8h1.74v1.91h-1.7l0,1.7h1.68v1.9H413.9Zm3.7-9.15v9.15h3.88v-9.15ZM421,439H418.1v-1.47h3Zm-2.86,1h2.88v4.5h-2.88Zm1,3.14h.9v-1.78h-.9Z"/><path class="cls-4" d="M440.8,438.85v2.24h6.44v6.74c0,1.18-.24,1.84-1.08,2.2a9,9,0,0,1-3.52.4,8.32,8.32,0,0,0-.8-2.34c1,.06,2.18.06,2.48,0s.44-.08.44-.34v-4.38h-4v9h-2.48v-9h-3.7v7h-2.4v-9.34h6.1v-2.24h-7.78v-2.33h8c-.3-.72-.68-1.54-1-2.2l2.36-.74c.5.92,1.16,2.12,1.5,2.94h7.38v2.33Z"/><path class="cls-4" d="M461,443.85c-.16.32-.36.64-.56,1h8.12s0,.54,0,.82c-.28,3.9-.6,5.5-1.14,6.08a1.86,1.86,0,0,1-1.32.68,12.57,12.57,0,0,1-2,0,4.74,4.74,0,0,0-.54-1.86c.64.06,1.16.06,1.42.06a.68.68,0,0,0,.6-.22c.28-.3.52-1.32.74-3.74h-.78a14.25,14.25,0,0,1-4,5.92,6.55,6.55,0,0,0-1.68-1.32,11,11,0,0,0,3.72-4.6h-1.18a15.26,15.26,0,0,1-4.68,5,7,7,0,0,0-1.56-1.4,12.06,12.06,0,0,0,4.08-3.62H459a12.45,12.45,0,0,1-2.32,2,8.24,8.24,0,0,0-1.56-1.4l-4.1,2-.88-2.4c.68-.26,1.52-.6,2.46-1v-5.64h-2V438h2v-3.94h2.2V438h1.88v2.25h-1.88V445l1.6-.7.42,1.7a9.74,9.74,0,0,0,1.84-2.12h-2.26v-2H469v2Zm6.6-2.76h-9.46v-6.77h9.46ZM465.4,436h-5.16v1h5.16Zm0,2.53h-5.16v1h5.16Z"/><path class="cls-4" d="M418.62,473.55v2.34h-17.9v-2.34h7.6v-3.86h-5.7v-2.3h5.7v-3.46h-6.76V461.6h8a29.56,29.56,0,0,0-3-2.44l2-1.36a22.71,22.71,0,0,1,3.84,3l-1.06.78h6.34v2.33h-6.7v3.46h5.74v2.3h-5.74v3.86Z"/><path class="cls-4" d="M425.88,469.09c-.18-.44-.5-1.1-.84-1.76v9.18H423v-8.38a20.87,20.87,0,0,1-1.86,4.62,13,13,0,0,0-1-2.42,21.86,21.86,0,0,0,2.62-6.58h-2.14v-2.21H423v-3.72H425v3.72h1.88v2.21H425v.88c.48.56,1.8,2.4,2.12,2.88Zm8.36,5.12h4.6v1.66H430v.66h-2.1v-5.8c-.24.26-.5.48-.74.7a11.6,11.6,0,0,0-1.1-2,11.7,11.7,0,0,0,2.8-3.46h-1.48v-4h4.94v4h-2.22l.8.28c-.16.34-.32.68-.5,1h1.74c-.08-.26-.18-.52-.26-.76l1.94-.54h-.72v-4h5v4h-4.24c.16.4.32.86.46,1.3h4v1.48h-4.1v.78h3.42v1.52h-3.42v.8h3.42v1.52h-3.42Zm-4.32-13.33h-3.2v-1.72h3.2v-1.34h2v3.82h-2Zm-.86,3.65h1.48v-1.08h-1.48Zm3.12,5v-.78H430v.78Zm0,1.52H430v.8h2.2Zm-2.2,3.14h2.2v-.82H430Zm9-15v1.72h-3.48v.74h-2.06v-3.8h2.06v1.34Zm-4.16,5.37h1.54v-1.08H434.8Z"/><path class="cls-4" d="M446.6,458.52a34,34,0,0,1-1.72,3.7v14.25h-2.32V465.85a17.94,17.94,0,0,1-1.46,1.7,16.33,16.33,0,0,0-1.22-2.44,20.91,20.91,0,0,0,4.52-7.29ZM452,473.87a17.12,17.12,0,0,1-4.58,2.68,12.42,12.42,0,0,0-1.88-1.64A14,14,0,0,0,449.7,473Zm-.8-13.61H446.8v-1.48h4.38v-1h2.4v1h4.56v1.48h-4.56v.66h4.14v1.41h-4.14V463h5.24v1.58H445.94V463h5.24v-.68h-4v-1.41h4ZM455.36,473a24.24,24.24,0,0,1,3.6,2.46l-2.14,1.24a21.75,21.75,0,0,0-3.66-2.78l2.06-.92h-7.88v-7.72h10.28V473Zm-5.74-5.48h5.6v-.78h-5.6Zm0,2h5.6v-.8h-5.6Zm0,2h5.6v-.8h-5.6Z"/></g></g></g></g><g id="Group_5213-6" data-name="Group 5213"><g id="Group_5212-6" data-name="Group 5212"><g id="企-6" data-name="企"><g class="cls-3"><path class="cls-4" d="M511.44,434.64a22.61,22.61,0,0,1-4.61,4.89,17.32,17.32,0,0,0-1.26-1.73,15,15,0,0,0,3.76-4Zm.6,3.93a21.29,21.29,0,0,1-1.67,2.66v11.3h-2.32V444c-.4.4-.82.78-1.2,1.12a14.32,14.32,0,0,0-1.24-2.18A16.4,16.4,0,0,0,510,437.8Zm2.92,5a18.38,18.38,0,0,0-3.52-2.12l1.28-1.7a19.18,19.18,0,0,1,3.56,1.92Zm-3.38,6.88a59.55,59.55,0,0,0,4-6.34l1.68,1.54c-1.12,2.1-2.48,4.42-3.74,6.34Zm3.74-12.14a15.57,15.57,0,0,0-3.16-2.31l1.42-1.58a19.12,19.12,0,0,1,3.26,2.1Zm9,4h-2.06v7.62c0,1.12-.18,1.76-.9,2.14a6.41,6.41,0,0,1-3,.42,9.44,9.44,0,0,0-.66-2.32c.82,0,1.66,0,1.94,0s.34-.08.34-.3v-7.58H517v-2.18h7.3ZM524,437H517.4v-2.16H524Z"/><path class="cls-4" d="M544.14,449.61V452h-18v-2.34h7.73v-4h-5.43v-2.3h5.43v-3.52h-4.15a16.48,16.48,0,0,1-1.86,2.9,18.91,18.91,0,0,0-2.14-1.42,17.25,17.25,0,0,0,3.54-7.17l2.47.54c-.28,1-.6,1.9-.94,2.82h3.08v-3.6h2.5v3.6h6.74v2.33h-6.74v3.52h6v2.3h-6v4Z"/><path class="cls-4" d="M564.34,449.61v2.26H551.9v-2.26h5.34v-4h-3.86v-2.22h3.86v-3.28H555a13.66,13.66,0,0,1-1.12,2.76,21,21,0,0,0-2.12-1.08c.2-.36.4-.74.6-1.16l-1.14.52a13.15,13.15,0,0,0-.77-2.3v13.66h-2.38V438.2a25.47,25.47,0,0,1-.9,5.31l-1.76-.64a23.75,23.75,0,0,0,1-5.21l1.68.24v-4.08h2.38v3.78l1.17-.48a23.07,23.07,0,0,1,1.1,2.53,24.31,24.31,0,0,0,1.06-4.89l2.32.32c-.14.94-.3,1.88-.5,2.78h1.6v-3.92h2.38v3.92h4.08v2.25h-4.08v3.28h3.66v2.22h-3.66v4Z"/><path class="cls-4" d="M533.08,473.69c0,1.28-.28,1.92-1.08,2.28a9.29,9.29,0,0,1-3.84.42,9,9,0,0,0-.76-2.28c1.12.06,2.44,0,2.8,0s.52-.12.52-.48v-3H526.5v5.58h-2.4v-5.58H520a11.45,11.45,0,0,1-2.52,5.94,8.79,8.79,0,0,0-1.88-1.54c2.18-2.4,2.36-6,2.36-8.76v-7.15h15.11Zm-9-5.26V466h-3.77v.36c0,.64,0,1.36-.06,2.1Zm-3.77-7v2.33h3.77v-2.33Zm10.39,0H526.5v2.33h4.22Zm0,7V466H526.5v2.46Z"/><path class="cls-4" d="M536.53,467.51h7.63v8.9h-2.38v-.9h-3v1h-2.26Zm2.26,2.28v3.44h3v-3.44ZM551,465.85H539.29V458.6H551Zm-2.42-5h-7v2.71h7Zm5.12,6.63v8.92h-2.4v-.92h-3.18v1h-2.28v-9Zm-2.4,5.72v-3.44h-3.18v3.44Z"/></g></g></g></g><g id="Group_5213-7" data-name="Group 5213"><g id="Group_5212-7" data-name="Group 5212"><g id="企-7" data-name="企" class="cls-3"><g class="cls-3"><path class="cls-4" d="M719.43,437.38c1.08,1.07,3.2,1.57,5.9,1.71A7.71,7.71,0,0,0,724,441a9.55,9.55,0,0,1-5.24-2c-.76.88-2.42,1.66-5.78,2a6.74,6.74,0,0,0-.8-1.3h-5.3v-1.83h6v1.23c3.82-.4,4.32-1.31,4.32-2.05v-.3h-1.2a9.11,9.11,0,0,1-1.4,1.73,10.81,10.81,0,0,0-1.76-1.23,8.05,8.05,0,0,0,2.34-3.56l2.08.46c-.1.3-.22.6-.34.88h5.68l.36-.1,1.62.5a18,18,0,0,1-1.84,3.17l-1.84-.69a11.83,11.83,0,0,0,.7-1.16h-2.22v.62Zm.54,11.77c1.84.68,3.8,1.48,5,2.06l-2.14,1.28a36.82,36.82,0,0,0-5.2-2.36l1.22-1h-5.64l1.74.8a26,26,0,0,1-6.24,2.6,16.09,16.09,0,0,0-1.76-1.74,22.81,22.81,0,0,0,5.46-1.66h-2.88V441h13.38v8.12Zm-7.5-12.61h-5.12V434.8h5.12Zm-.66,6.77h8.66v-.86h-8.66Zm0,2.2h8.66v-.86h-8.66Zm0,2.24h8.66v-.9h-8.66Z"/><path class="cls-4" d="M745.41,450.11V452h-14.7v-1.92h6.06V449h-4.24v-1.44a11.22,11.22,0,0,1-1.14,1.22,13.23,13.23,0,0,0-.94-2,11.76,11.76,0,0,1-2.14,6,8.46,8.46,0,0,0-1.84-1.54c1.62-2,1.78-4.84,1.78-6.9v-3.56H731a10,10,0,0,0-1-.92c1.44-.22,3-.5,4.56-.86-1.26-.32-2.56-.6-3.74-.83l1.12-.86h-3.44v-1.86h7a11.71,11.71,0,0,0-.76-1l1.6-.78a11.85,11.85,0,0,1,1.34,1.82h6.92v1.86h-2.9l1,.6c-.72.34-1.56.69-2.46,1,1.18.32,2.26.64,3.16.94l-1.12.92h2.94v1.9H730.57v1.68a19.83,19.83,0,0,1-.1,2.1,9.81,9.81,0,0,0,2.28-3.6l2,.6c-.1.26-.2.52-.32.8h2.32V443h2.34v1.22h4.94v1.86h-4.94v1h4.36V449h-4.36v1.16Zm-8.64-3v-1h-3.26c-.22.36-.44.7-.68,1Zm4.08-6.38c-1-.34-2.18-.68-3.44-1-1.44.38-2.9.72-4.3,1Zm-7.2-3.47c1.26.28,2.58.58,3.9.91a21.44,21.44,0,0,0,2.62-.91Z"/><path class="cls-4" d="M765.23,442.83v1.38h-9.74V444c-.16,2.8-.64,6.1-2,8.46a7.3,7.3,0,0,0-1.78-1.08c1.62-2.86,1.78-6.9,1.78-9.66v-1.44l-.2.16a5.19,5.19,0,0,0-.56-.66h-1.62v2.84l1.6-.44.28,2.14c-.62.2-1.26.4-1.88.58V450c0,1.1-.2,1.7-.8,2.08a5.11,5.11,0,0,1-2.76.44,8.85,8.85,0,0,0-.6-2.2,15.77,15.77,0,0,0,1.64,0c.24,0,.34-.08.34-.34v-4.44l-1.9.56-.52-2.28c.7-.16,1.5-.34,2.42-.58v-3.44h-2.1V437.6H749v-3.76h2.18v3.76h1.78v.48a12.72,12.72,0,0,0,2.86-4.28l2.14.34-.42.92h2.8l.32-.08,1.48,1a16.83,16.83,0,0,1-.9,1.62H765v1.65h-2.16v.8c0,.38,0,.56.34.56h.74a4.83,4.83,0,0,0,1.08-.12c0,.48.06.9.14,1.38A4,4,0,0,1,764,442h-1.38c-1.44,0-1.68-.7-1.68-2v-.78h-1.16c-.2,1.7-1,2.68-3.62,3.12a4.27,4.27,0,0,0-.58-1v.44c0,.34,0,.72,0,1.1h3.66c-.12-.36-.28-.74-.4-1.06l1.84-.52c.22.46.48,1.08.66,1.58Zm-9.68-2c1.54-.26,2-.74,2.22-1.62h-2.22Zm1.06-4.19c-.18.32-.4.62-.6.92h2.92a9.8,9.8,0,0,0,.42-.92Zm-.54,11.89h8.5v4h-2.18v-.68h-4.24v.68h-2.08Zm8.34-2.48h-8.14v-1.24h8.14Zm-8.14.62h8.14v1.22h-8.14Zm1.88,3.06v.84h4.24v-.84Z"/><path class="cls-4" d="M773.37,434.58a30.74,30.74,0,0,1-2,4.15v13.72h-2.26V442.17c-.46.58-.94,1.12-1.4,1.62a15.9,15.9,0,0,0-1.28-2.44,21.14,21.14,0,0,0,4.72-7.49Zm3.5,12.17a25.46,25.46,0,0,1-3.06,4.88,12.5,12.5,0,0,0-1.84-1.28,18,18,0,0,0,2.76-4.24Zm3.22-1.26v7h-2.4v-7h-5.22v-2.16h5.22v-1.76h-3.92v-6.89h10.5v6.89h-4.18v1.76h5.18v2.16Zm-4.06-6h5.86v-2.69H776Zm6.5,6.62a23.21,23.21,0,0,1,2.94,4.22l-1.88,1.14a26.58,26.58,0,0,0-2.82-4.38Z"/><path class="cls-4" d="M723.15,468.45c-.62.2-1.28.4-1.92.58v4.7c0,1.1-.18,1.68-.8,2a4.82,4.82,0,0,1-2.74.46,7.82,7.82,0,0,0-.62-2.18c.74,0,1.42,0,1.66,0s.34-.08.34-.34v-4l-1.9.56-.52-2.3c.7-.14,1.5-.36,2.42-.58v-3.54H717V461.6h2.1v-3.76h2.16v3.76h1.82v2.21h-1.82v3c.54-.16,1.1-.3,1.62-.46Zm8.44-1.84c.42,4,1.1,6.84,1.78,6.86.26,0,.46-.86.56-2.46a6,6,0,0,0,1.58,1.22c-.46,3.14-1.36,3.9-2.14,3.9-2.18,0-3.34-3.82-3.92-9.52h-3.12v4.94l2.44-.82a12.2,12.2,0,0,0,.18,1.84c-3.86,1.42-4.54,1.76-5,2.1a6.1,6.1,0,0,0-.84-1.88,1.49,1.49,0,0,0,1-1.42V459.94l0,0,0-.06a45,45,0,0,0,8.7-2.06l1.78,1.78a27.89,27.89,0,0,1-3.42,1c0,1.32.1,2.61.2,3.81h3.76v2.2Zm-5.84,7.5h5V476h-5Zm3.5-9.7c-.08-1.06-.14-2.19-.18-3.35-.9.18-1.84.34-2.74.48v2.87Z"/><path class="cls-4" d="M743.37,468.61l-2,.54v4.72c0,1.12-.2,1.68-.84,2a5.6,5.6,0,0,1-2.82.44,8.64,8.64,0,0,0-.66-2.12c.72,0,1.46,0,1.7,0s.34-.08.34-.36v-4.12l-1.82.48-.62-2.28c.72-.16,1.54-.34,2.44-.56v-3.56h-2.18v-2.21h2.18v-3.78h2.28v3.78h1.92v2.21h-1.92v3l1.7-.4ZM754.79,459v11.73h-2.42v-.94h-1.94v6.76h-2.24v-6.76h-2v1h-2.32V459Zm-8.56,2.16v2.13h2v-2.13Zm2,6.47v-2.18h-2v2.18Zm4.18-6.47h-1.94v2.13h1.94Zm0,6.47v-2.18h-1.94v2.18Z"/><path class="cls-4" d="M763,458.52a34,34,0,0,1-1.72,3.7v14.25H759V465.85a17.94,17.94,0,0,1-1.46,1.7,16.33,16.33,0,0,0-1.22-2.44,20.91,20.91,0,0,0,4.52-7.29Zm5.38,15.35a17.12,17.12,0,0,1-4.58,2.68,12.42,12.42,0,0,0-1.88-1.64,14,14,0,0,0,4.18-1.88Zm-.8-13.61h-4.38v-1.48h4.38v-1H770v1h4.56v1.48H770v.66h4.14v1.41H770V463h5.24v1.58H762.37V463h5.24v-.68h-4v-1.41h4ZM771.79,473a24.24,24.24,0,0,1,3.6,2.46l-2.14,1.24a21.75,21.75,0,0,0-3.66-2.78l2.06-.92h-7.88v-7.72h10.28V473Zm-5.74-5.48h5.6v-.78h-5.6Zm0,2h5.6v-.8h-5.6Zm0,2h5.6v-.8h-5.6Z"/></g></g></g></g><g id="Group_5213-8" data-name="Group 5213"><g id="Group_5212-8" data-name="Group 5212"><g id="企-8" data-name="企" class="cls-3"><g class="cls-3"><path class="cls-4" d="M840.57,442.83v1.38h-9.74V444c-.16,2.8-.64,6.1-2,8.46a7.3,7.3,0,0,0-1.78-1.08c1.62-2.86,1.78-6.9,1.78-9.66v-1.44l-.2.16a5.19,5.19,0,0,0-.56-.66h-1.62v2.84l1.6-.44.28,2.14c-.62.2-1.26.4-1.88.58V450c0,1.1-.2,1.7-.8,2.08a5.11,5.11,0,0,1-2.76.44,8.85,8.85,0,0,0-.6-2.2,15.77,15.77,0,0,0,1.64,0c.24,0,.34-.08.34-.34v-4.44l-1.9.56-.52-2.28c.7-.16,1.5-.34,2.42-.58v-3.44h-2.1V437.6h2.1v-3.76h2.18v3.76h1.78v.48a12.72,12.72,0,0,0,2.86-4.28l2.14.34-.42.92h2.8L836,435l1.48,1a16.83,16.83,0,0,1-.9,1.62h3.82v1.65h-2.16v.8c0,.38,0,.56.34.56h.74a4.83,4.83,0,0,0,1.08-.12c0,.48.06.9.14,1.38a4,4,0,0,1-1.18.12h-1.38c-1.44,0-1.68-.7-1.68-2v-.78h-1.16c-.2,1.7-1,2.68-3.62,3.12a4.27,4.27,0,0,0-.58-1v.44c0,.34,0,.72,0,1.1h3.66c-.12-.36-.28-.74-.4-1.06l1.84-.52c.22.46.48,1.08.66,1.58Zm-9.68-2c1.54-.26,2-.74,2.22-1.62h-2.22Zm1.06-4.19c-.18.32-.4.62-.6.92h2.92a9.8,9.8,0,0,0,.42-.92Zm-.54,11.89h8.5v4h-2.18v-.68h-4.24v.68h-2.08Zm8.34-2.48h-8.14v-1.24h8.14Zm-8.14.62h8.14v1.22h-8.14Zm1.88,3.06v.84h4.24v-.84Z"/><path class="cls-4" d="M848.71,434.58a30.74,30.74,0,0,1-2,4.15v13.72h-2.26V442.17c-.46.58-.94,1.12-1.4,1.62a15.9,15.9,0,0,0-1.28-2.44,21.14,21.14,0,0,0,4.72-7.49Zm3.5,12.17a25.46,25.46,0,0,1-3.06,4.88,12.5,12.5,0,0,0-1.84-1.28,18,18,0,0,0,2.76-4.24Zm3.22-1.26v7H853v-7h-5.22v-2.16H853v-1.76h-3.92v-6.89h10.5v6.89h-4.18v1.76h5.18v2.16Zm-4.06-6h5.86v-2.69h-5.86Zm6.5,6.62a23.21,23.21,0,0,1,2.94,4.22l-1.88,1.14a26.58,26.58,0,0,0-2.82-4.38Z"/><path class="cls-4" d="M876,449.47c1.64.56,3.26,1.16,4.32,1.64l-1.74,1.42a45.15,45.15,0,0,0-5.68-2.3l.76-.76h-4.88l1.46.68a25.43,25.43,0,0,1-6.26,2.4,12.7,12.7,0,0,0-1.72-1.72,24.82,24.82,0,0,0,5.22-1.36h-2.62v-5.94c-.46.1-1,.2-1.48.28a8.16,8.16,0,0,0-1.14-1.86,10.29,10.29,0,0,0,4.66-1.4h-3.22a35.83,35.83,0,0,0,.58-3.65h3.82v-.8h-4.54v-1.4h4.54v-.88h2.16v.88h2.22v-.88h2.26v.88H879v3.58h-4.24v.89h5.52s0,.38,0,.62a4.06,4.06,0,0,1-.56,2.3,1.57,1.57,0,0,1-1.14.48l-.32,0v6.88Zm-10-10.3h1.9a4.24,4.24,0,0,0,.14-.89h-1.9Zm1.16,4v.8h8.6v-.8Zm0,2.06V446h8.6v-.82Zm0,2.92h8.6v-.84h-8.6Zm2.58-7.58a4.32,4.32,0,0,1-.94,1.26h3.64v-1.26Zm2.7-2.27h-2.22c0,.31,0,.61-.08.89h2.3Zm-2.22-1.38h2.22v-.8h-2.22Zm4.48-.8v.8h2.08v-.8Zm0,4.45v1.26h1.78a2.85,2.85,0,0,0-.28-.66,6.17,6.17,0,0,0,1.12.06.51.51,0,0,0,.42-.12,1.19,1.19,0,0,0,.14-.54Z"/></g></g></g></g><g id="Group_5213-9" data-name="Group 5213"><g id="Group_5212-9" data-name="Group 5212"><g id="企-9" data-name="企"><g class="cls-3"><path class="cls-4" d="M945.46,439.07a23.72,23.72,0,0,1,1.66,5.08l-2,1a21.08,21.08,0,0,0-1.18-4.44c0,4.12-.5,8.66-4.28,11.82a8.93,8.93,0,0,0-1.72-1.86,9.87,9.87,0,0,0,3.4-6.38l-1.68.8a38.31,38.31,0,0,0-1.5-5.24L940,439a36,36,0,0,1,1.44,4.2,25.19,25.19,0,0,0,.12-2.72v-6.33h2.36v5.55Zm9.76-5v18.21h-2.38v-8.38l-1.78,1a22.65,22.65,0,0,0-1.62-4.44v10.74h-2.32V434.6h2.32v5l1.46-.72a25.8,25.8,0,0,1,1.94,4.38v-9.23Z"/><path class="cls-4" d="M975.08,439.67a23,23,0,0,1-2.32,7.7,9.67,9.67,0,0,0,3.74,3.08,8.88,8.88,0,0,0-1.62,2,10.79,10.79,0,0,1-3.58-3,12.67,12.67,0,0,1-4.08,3.1,9.28,9.28,0,0,0-1.34-2.1,10.12,10.12,0,0,0,4.08-3.1,22.33,22.33,0,0,1-1.64-4.4,9.46,9.46,0,0,1-.7,1,11.41,11.41,0,0,0-1.1-1.08V443h-2.28v4.1l2.82-.6.2,2.18c-3.28.76-6.82,1.52-9.38,2.1l-.42-2.42,1-.18v-8.52h2.14v8.14l1.28-.24V437.28h-4V435h9.16v2.28h-2.84v3.51h2.28v.5a20.06,20.06,0,0,0,2.48-7.47l2.36.36c-.18,1.12-.44,2.22-.72,3.28h5.68v2.21Zm-5.26.26a23.56,23.56,0,0,0,1.52,5,19.37,19.37,0,0,0,1.34-5.3h-2.76Z"/><path class="cls-4" d="M934,468.33l.54,2.12c-2.08,1-4.32,2.1-6.14,2.92l-1-2.4c.74-.26,1.62-.58,2.6-1v-5.3h-2.16v-2.26h2.16v-4.35h2.2v4.35h1.86v2.26h-1.86v4.38ZM943,474c1.08,0,1.28-.46,1.46-2.5a6.18,6.18,0,0,0,2.08.86c-.32,2.8-1,3.76-3.34,3.76H938.9c-2.7,0-3.48-.74-3.48-3.48v-5.16l-1.08.46-.88-2.1,2-.84v-5.27h2.28V464l1.66-.7V457.8h2.22v4.57l2.18-.95,1.8.58-.08.37a66.16,66.16,0,0,1-.88,8.82l-1.94-.54c.22-1.62.38-4.16.46-6.52l-1.54.68v7.06h-2.22v-6.1l-1.66.72v6.18c0,1.16.18,1.34,1.4,1.34Z"/><path class="cls-4" d="M955.8,463.37c-.06.8-.1,1.6-.2,2.4h8.58a9.73,9.73,0,0,1-.08,1c-.36,5.42-.78,7.64-1.6,8.5a3,3,0,0,1-2.14.94,28.08,28.08,0,0,1-3.46,0,5.19,5.19,0,0,0-.84-2.34c1.36.14,2.76.16,3.36.16a1.39,1.39,0,0,0,1-.26c.52-.44.88-2.16,1.16-5.74h-6.3a11.88,11.88,0,0,1-5.76,8.54,7.39,7.39,0,0,0-1.74-2c4.8-2.54,5.18-7,5.38-11.26h-5V461h8.44c-.32-.78-.8-1.78-1.2-2.58l2.34-.88a22.54,22.54,0,0,1,1.44,2.86l-1.38.6h8.2v2.35Z"/><path class="cls-4" d="M974,458.52a34,34,0,0,1-1.72,3.7v14.25h-2.32V465.85a17.94,17.94,0,0,1-1.46,1.7,16.33,16.33,0,0,0-1.22-2.44,20.91,20.91,0,0,0,4.52-7.29Zm5.38,15.35a17.12,17.12,0,0,1-4.58,2.68,12.42,12.42,0,0,0-1.88-1.64,14,14,0,0,0,4.18-1.88Zm-.8-13.61h-4.38v-1.48h4.38v-1H981v1h4.56v1.48H981v.66h4.14v1.41H981V463h5.24v1.58H973.32V463h5.24v-.68h-4v-1.41h4ZM982.74,473a24.24,24.24,0,0,1,3.6,2.46l-2.14,1.24a21.75,21.75,0,0,0-3.66-2.78l2.06-.92h-7.88v-7.72H985V473ZM977,467.49h5.6v-.78H977Zm0,2h5.6v-.8H977Zm0,2h5.6v-.8H977Z"/></g></g></g></g><g id="Group_5212-10" data-name="Group 5212"><g id="企-10" data-name="企" class="cls-3"><g class="cls-3"><path class="cls-4" d="M1030.12,443.47a16.41,16.41,0,0,0-3.7-2.16l1.24-1.82a16,16,0,0,1,3.78,2Zm2.18,2.5c-1.06,2.08-2.32,4.36-3.5,6.3l-2-1.6a59.29,59.29,0,0,0,3.78-6.3Zm-1.5-7.85a14.41,14.41,0,0,0-3.58-2.34l1.34-1.74a14.51,14.51,0,0,1,3.64,2.18Zm3.06,5.33H1036v1.94c0,2.22-.32,5-3,7a7,7,0,0,0-1.68-1.56,6.28,6.28,0,0,0,2.5-5.56Zm9.32.08c-.22-.34-.52-.8-.86-1.28-7.42.52-8.5.62-9.24.9a18.76,18.76,0,0,0-.74-2.18,3.51,3.51,0,0,0,1.52-1.26,12.67,12.67,0,0,0,1.08-1.36h-2.62v-2.13h4c.46-.8.94-1.64,1.34-2.5l2.32.9c-.28.54-.6,1.06-.94,1.6h5.68v2.13H1042c1,1.26,2.44,2.92,3.16,4Zm-5.6-5.18c-.6.82-1.22,1.58-1.84,2.3l5.18-.28c-.34-.42-.66-.84-1-1.2l1.4-.82Zm-.36,5.28h2.08v8h-2.08Zm6.62,6.6a3.83,3.83,0,0,0,1-.12c0,.56.1,1.3.18,1.8a3.24,3.24,0,0,1-1.12.14h-1c-1.88,0-2.24-.8-2.24-2.7v-5.9h2.18v5.92c0,.64,0,.86.28.86Z"/><path class="cls-4" d="M1064.66,438.33s0,.78,0,1.06c-.18,8.18-.34,11.08-1,12a2.23,2.23,0,0,1-1.58,1,13.42,13.42,0,0,1-2.48.08,5.57,5.57,0,0,0-.7-2.28c.88.08,1.64.1,2,.1a.73.73,0,0,0,.68-.34c.42-.54.62-3,.74-9.44h-1.8c-.26,5.36-1.18,9.48-4.54,12.14a7.79,7.79,0,0,0-1.4-1.58c-2.88.3-5.76.6-7.92.78l-.28-2,4.06-.28v-1.2h-3.52v-1.68h3.52v-.78H1047v-6.18h3.44V439h-3.94v-1.73h3.94v-.8c-1.16.08-2.3.14-3.38.16a7.41,7.41,0,0,0-.52-1.68,62,62,0,0,0,8.62-1l1,1.78c-1.06.22-2.3.4-3.6.54v1h3.84v1.11h1.88c0-1.33,0-2.71,0-4.19h2.28c0,1.46,0,2.86,0,4.19Zm-15.76,3.78h1.56v-.88h-1.56Zm1.56,2.32v-.9h-1.56v.9Zm2.16,5c1.14-.08,2.32-.18,3.48-.28,1.56-2.16,2-5,2.18-8.6h-1.82V439h-3.84v.78h3.54v6.18h-3.54v.78h3.62v1.68h-3.62Zm1.56-7.28v-.88h-1.56v.88Zm-1.56,1.42v.9h1.56v-.9Z"/><path class="cls-4" d="M1079.12,437.38c1.08,1.07,3.2,1.57,5.9,1.71a7.71,7.71,0,0,0-1.32,1.9,9.55,9.55,0,0,1-5.24-2c-.76.88-2.42,1.66-5.78,2a6.74,6.74,0,0,0-.8-1.3h-5.3v-1.83h6v1.23c3.82-.4,4.32-1.31,4.32-2.05v-.3h-1.2a9.11,9.11,0,0,1-1.4,1.73,10.81,10.81,0,0,0-1.76-1.23,8.05,8.05,0,0,0,2.34-3.56l2.08.46c-.1.3-.22.6-.34.88h5.68l.36-.1,1.62.5a18,18,0,0,1-1.84,3.17l-1.84-.69a11.83,11.83,0,0,0,.7-1.16h-2.22v.62Zm.54,11.77c1.84.68,3.8,1.48,5,2.06l-2.14,1.28a36.82,36.82,0,0,0-5.2-2.36l1.22-1h-5.64l1.74.8a26,26,0,0,1-6.24,2.6,16.09,16.09,0,0,0-1.76-1.74,22.81,22.81,0,0,0,5.46-1.66h-2.88V441h13.38v8.12Zm-7.5-12.61H1067V434.8h5.12Zm-.66,6.77h8.66v-.86h-8.66Zm0,2.2h8.66v-.86h-8.66Zm0,2.24h8.66v-.9h-8.66Z"/><path class="cls-4" d="M1105.1,450.11V452h-14.7v-1.92h6.06V449h-4.24v-1.44a11.22,11.22,0,0,1-1.14,1.22,13.23,13.23,0,0,0-.94-2,11.76,11.76,0,0,1-2.14,6,8.46,8.46,0,0,0-1.84-1.54c1.62-2,1.78-4.84,1.78-6.9v-3.56h2.7a10,10,0,0,0-1-.92c1.44-.22,3-.5,4.56-.86-1.26-.32-2.56-.6-3.74-.83l1.12-.86h-3.44v-1.86h7a11.71,11.71,0,0,0-.76-1l1.6-.78a11.85,11.85,0,0,1,1.34,1.82h6.92v1.86h-2.9l1,.6c-.72.34-1.56.69-2.46,1,1.18.32,2.26.64,3.16.94l-1.12.92h2.94v1.9h-14.52v1.68a19.83,19.83,0,0,1-.1,2.1,9.81,9.81,0,0,0,2.28-3.6l2,.6c-.1.26-.2.52-.32.8h2.32V443h2.34v1.22h4.94v1.86h-4.94v1h4.36V449h-4.36v1.16Zm-8.64-3v-1h-3.26c-.22.36-.44.7-.68,1Zm4.08-6.38c-1-.34-2.18-.68-3.44-1-1.44.38-2.9.72-4.3,1Zm-7.2-3.47c1.26.28,2.58.58,3.9.91a21.44,21.44,0,0,0,2.62-.91Z"/></g></g></g><g id="Group_5175" data-name="Group 5175"><g id="Group_5174" data-name="Group 5174"><path id="Path_7175" data-name="Path 7175" class="cls-5" d="M62.12,359.54H1113.54"/></g></g></svg>