<svg xmlns="http://www.w3.org/2000/svg" width="172.35" height="172.352" viewBox="0 0 172.35 172.352">
  <g id="Group_9898" data-name="Group 9898" transform="translate(1897 8192)">
    <g id="Group_6709" data-name="Group 6709" transform="translate(-2604.37 -8349.561)">
      <g id="Group_6706" data-name="Group 6706">
        <path id="Path_8188" data-name="Path 8188" d="M784.928,321.2a77.988,77.988,0,0,1,0-154.922v-8.714a86.654,86.654,0,0,0,0,172.351Z" fill="#00796d"/>
        <path id="Path_8189" data-name="Path 8189" d="M802.163,157.561v8.714a77.988,77.988,0,0,1,0,154.922v8.715a86.654,86.654,0,0,0,0-172.351" fill="#00796d"/>
      </g>
      <g id="Group_6708" data-name="Group 6708">
        <circle id="Ellipse_746" data-name="Ellipse 746" cx="54.041" cy="54.041" r="54.041" transform="translate(739.504 188.584)" fill="#f7a823"/>
        <circle id="Ellipse_747" data-name="Ellipse 747" cx="54.041" cy="54.041" r="54.041" transform="translate(739.504 188.584)" fill="#00796d"/>
        <circle id="Ellipse_748" data-name="Ellipse 748" cx="47.369" cy="47.369" r="47.369" transform="translate(746.176 195.256)" fill="none" stroke="#fff" stroke-miterlimit="10" stroke-width="3"/>
        <g id="Group_6707" data-name="Group 6707">
          <path id="Path_8190" data-name="Path 8190" d="M791.381,257.232V244.279q-6.059-1.731-8.888-5.24a13.137,13.137,0,0,1-2.828-8.517,12.046,12.046,0,0,1,3.2-8.516,12.9,12.9,0,0,1,8.517-3.973v-3.06h4.483v3.06a13.27,13.27,0,0,1,7.821,3.354,12.948,12.948,0,0,1,3.71,7.4l-7.822,1.02a6.3,6.3,0,0,0-3.709-4.946v12.087q7.419,2.01,10.109,5.209a12.32,12.32,0,0,1,2.689,8.208,13.733,13.733,0,0,1-3.385,9.429,14.877,14.877,0,0,1-9.413,4.7v5.78h-4.483v-5.626a14.309,14.309,0,0,1-8.687-3.988q-3.339-3.338-4.266-9.429l8.069-.865a10.266,10.266,0,0,0,1.854,4.266A8.455,8.455,0,0,0,791.381,257.232Zm0-32.46a5.806,5.806,0,0,0-2.906,2.1,5.441,5.441,0,0,0-1.082,3.277,5.188,5.188,0,0,0,.989,3.045,6.853,6.853,0,0,0,3,2.272Zm4.483,32.893a6.3,6.3,0,0,0,3.771-2.149,6.046,6.046,0,0,0,1.453-4.034,5.479,5.479,0,0,0-1.221-3.571,7.809,7.809,0,0,0-4-2.3Z" fill="#fff"/>
        </g>
      </g>
    </g>
  </g>
</svg>
