<svg xmlns="http://www.w3.org/2000/svg" viewBox="0 0 1120 420"><defs><style>.cls-1{fill:#f3f3f3;}.cls-2{fill:#002a5e;}.cls-3{opacity:0.3;}.cls-10,.cls-11,.cls-12,.cls-13,.cls-14,.cls-15,.cls-19,.cls-20,.cls-21,.cls-22,.cls-4,.cls-5,.cls-9{fill:none;stroke-miterlimit:10;}.cls-19,.cls-21,.cls-4,.cls-5{stroke:#fff;}.cls-5{stroke-linecap:round;}.cls-6{fill:#0074b7;}.cls-7{isolation:isolate;}.cls-8{fill:#333;}.cls-10,.cls-11,.cls-12,.cls-13,.cls-14,.cls-15,.cls-9{stroke:#b3b3b3;stroke-width:2px;}.cls-10{stroke-dasharray:4.91 4.91;}.cls-11{stroke-dasharray:4.7 4.7;}.cls-12{stroke-dasharray:4.99 4.99;}.cls-13{stroke-dasharray:5.1 5.1;}.cls-14{stroke-dasharray:5.07 5.07;}.cls-15{stroke-dasharray:5 5;}.cls-16{fill:#df536a;}.cls-17{fill:#ff90a1;}.cls-18{fill:#fff;}.cls-19,.cls-22{stroke-width:3px;}.cls-20{stroke:#002a5e;}.cls-21{stroke-width:0.5px;}.cls-22{stroke:#ff90a1;}</style></defs><g id="Layer_1" data-name="Layer 1"><path id="Path_20218" data-name="Path 20218" class="cls-1" d="M759.47,212.1a49.19,49.19,0,0,0-36.64-45.21,34.4,34.4,0,0,0-54.7-17.84,25.64,25.64,0,0,0-47.35,12.38,25.34,25.34,0,0,0-4.26-.36A25.65,25.65,0,0,0,592,179.25a34.77,34.77,0,0,0-30.69,32.86Z"/><path id="Path_20218-2" data-name="Path 20218" class="cls-1" d="M509.1,160.29a34.52,34.52,0,0,0-25.71-31.72A24.13,24.13,0,0,0,445,116.05a18,18,0,0,0-33.22,8.69,17.66,17.66,0,0,0-3-.25,18,18,0,0,0-17.22,12.75,24.39,24.39,0,0,0-21.53,23.06Z"/><path class="cls-2" d="M578.3,128.93,597.87,124l14.68,4.89L637,133.82,651.7,124a139.29,139.29,0,0,1,21,28.52l-1.47.83-29.36,9.79-29.35-4.89-9.79-14.68H573.41l-14.68,14.68,4.89,34.25,34.26,14.68,19.57-4.89,14.68,9.78v19.58l9.78,19.57,9.79,19.57v19.58l13.21,13.21A141.91,141.91,0,0,1,418.09,167l8.52,25.59,14.68,9.79L456,212.11l-9.79,9.79v14.68L456,256.15l24.47,4.9V310l9.78,24.47,14.68,4.89V314.87l19.57-14.68V285.51l19.58-19.57,4.89-24.47H529.37L514.69,217H480.44l-9.79-19.58L456,212.11V192.54l-9.79-9.79V168.07l34.26-4.89L504.9,148.5,519.58,124l14.68-4.89,4.9-14.68L509.8,99.57l-13.9-9.3a141.92,141.92,0,0,1,116.26,4.6L593,104.46H573.41L563.62,124Z"/><g class="cls-3"><line class="cls-4" x1="548.94" y1="80" x2="548.94" y2="363.71"/><path class="cls-5" d="M586.75,86.19c12.79,30.21,20.91,75.41,20.91,125.92,0,63.34-12.77,118.32-31.5,145.88"/><path class="cls-5" d="M521.63,358.2C502.82,330.71,490,275.61,490,212.11c0-50.17,8-95.11,20.66-125.32"/><path class="cls-5" d="M487.16,349.55c-30.25-29.47-50.21-80-50.21-137.44,0-37.38,8.47-71.86,22.72-99.51"/><path class="cls-5" d="M638,112.6c14.26,27.65,22.73,62.13,22.73,99.51,0,56.85-19.57,107-49.33,136.57"/><line class="cls-4" x1="406.97" y1="221.74" x2="690.68" y2="221.74"/><path class="cls-5" d="M413.16,183.93C443.37,171.14,488.57,163,539.08,163c63.34,0,118.32,12.77,145.88,31.5"/><path class="cls-5" d="M685.17,249.05c-27.49,18.81-82.59,31.64-146.09,31.64-50.18,0-95.11-8-125.32-20.66"/><path class="cls-5" d="M676.52,283.52c-29.47,30.25-80,50.21-137.44,50.21-37.38,0-71.86-8.47-99.51-22.73"/><path class="cls-5" d="M439.57,132.7C467.22,118.45,501.7,110,539.08,110c56.85,0,107,19.57,136.57,49.33"/></g><path class="cls-6" d="M651.7,124,637,133.82l-24.47-4.89L597.87,124l-19.57,4.89L563.62,124l9.79-19.58H593l19.18-9.59A140,140,0,0,1,651.7,124Z"/><path class="cls-6" d="M539.15,104.46l-4.89,14.68L519.58,124,504.9,148.5l-24.47,14.68-34.25,4.89v14.69l9.79,9.78v19.57l-14.68-9.78-14.68-9.79L418.09,167A141.85,141.85,0,0,1,495.9,90.27l13.89,9.3Z"/><polygon class="cls-6" points="548.94 241.47 544.05 265.94 524.48 285.51 524.48 300.19 504.9 314.87 504.9 339.34 490.22 334.45 480.44 309.98 480.44 261.05 455.97 256.15 446.18 236.58 446.18 221.9 455.97 212.11 470.65 197.43 480.44 217.01 514.69 217.01 529.37 241.47 548.94 241.47"/><path class="cls-6" d="M672.74,152.56a141.78,141.78,0,0,1-7.83,151.06h0L651.7,290.41V270.83l-9.79-19.57-9.78-19.57V212.11l-14.68-9.78-19.58,4.89-34.25-14.68-4.89-34.25,14.68-14.68h29.36l9.78,14.68,29.36,4.89,29.22-9.74a1.11,1.11,0,0,0,.27-.12Z"/><g id="Group_5212" data-name="Group 5212"><g id="企" class="cls-7"><g class="cls-7"><path class="cls-8" d="M957.34,360.43c-.94.48-1.88,1-2.76,1.36a9.67,9.67,0,0,0,3.33,1.56,10,10,0,0,0-1.68,2.19,10.45,10.45,0,0,1-6.5-6.41,16.45,16.45,0,0,1-2.33,1.66v2.06l3.38-.65a12.24,12.24,0,0,0,0,2.09c-4.44,1-5.23,1.18-5.69,1.46a6.9,6.9,0,0,0-.91-1.92,1.67,1.67,0,0,0,1-1.63V362c-.67.28-1.32.5-2,.72a13.32,13.32,0,0,0-1.1-1.4l0,.17c-2.21.65-4.56,1.25-6.5,1.78l-.48-2.59c.69-.15,1.46-.34,2.35-.56v-5.9h-1.87v-2.47h1.87v-4.47h-2v-2.49h6.5v2.49h-2v4.47h1.76v2.47h-1.76v5.3l1.8-.48.22,1.64a21.76,21.76,0,0,0,4.92-1.95h-2.76v-5.26h11.95v5.26h-4a6.53,6.53,0,0,0,1,1.63,18.65,18.65,0,0,0,2.37-1.6Zm.07-7.81H942.72v-2.25h14.69Zm-.77-3H943.56v-5.45h13.08Zm-9.26-3.53h-1.52v1.61h1.52Zm-.75,10.68h6.75v-1.34h-6.75Zm4.15-10.68h-1.53v1.61h1.53Zm3.41,0h-1.58v1.61h1.58Z"/><path class="cls-8" d="M967.46,360c-2.47,1-5.21,2.13-7.37,3l-.93-2.92c.79-.24,1.73-.53,2.76-.89v-7.4h-2.33v-2.71h2.33V343.7h2.78v5.37h2v2.71h-2v6.44l2.21-.8Zm11.09,3.24a1.42,1.42,0,0,0,.48-.05c.12,0,.22-.19.29-.48s.07-.94.1-1.8a7.26,7.26,0,0,0,2.18,1.18,8.82,8.82,0,0,1-.36,2.25,1.93,1.93,0,0,1-1,.89,5,5,0,0,1-1.49.22h-1.53a3,3,0,0,1-1.83-.58c-.45-.41-.67-.91-.67-2.38v-2.9H973c-.4,3.17-1.6,5.14-6.09,6.26a6.72,6.72,0,0,0-1.47-2.18c3.7-.72,4.56-1.94,4.9-4.08h-2v-7.25h11.49v7.25h-2.47v3c0,.31,0,.48.1.57a.72.72,0,0,0,.43.1ZM981,351.54H967.39v-2.35h2.91a11.27,11.27,0,0,0-.53-1.58l2.3-.46a12,12,0,0,1,.75,2h2.71a21.37,21.37,0,0,0,.69-2l2.6.48c-.29.55-.53,1.08-.8,1.56h3Zm-.62-4.41H968.06v-2.31h4.76c-.15-.38-.29-.79-.41-1.12l2.69-.51c.21.48.45,1.11.64,1.63h4.64Zm-9.44,8h6.15v-1h-6.15Zm0,2.67h6.15v-1h-6.15Z"/></g></g></g><g id="Group_5212-2" data-name="Group 5212"><g id="企-2" data-name="企" class="cls-7"><g class="cls-7"><path class="cls-8" d="M990.93,226.7c0-.29-.12-.65-.19-1-4.8.72-5.66.89-6.19,1.15-.14-.5-.58-1.78-.89-2.5.6-.14,1.13-.67,1.87-1.56.29-.33.84-1,1.52-2a9.33,9.33,0,0,0-2.69.53c-.15-.5-.55-1.7-.84-2.35a3,3,0,0,0,1.37-1.32,27.72,27.72,0,0,0,2.85-5.91l2.47,1a33.72,33.72,0,0,1-3.21,5.74l1.58-.12a31.74,31.74,0,0,0,1.61-3.12l2.35,1.44a43,43,0,0,1-4.89,7.15l2.52-.31c-.17-.65-.39-1.29-.58-1.87l2-.65a34.81,34.81,0,0,1,1.49,5Zm-4,1.25a28.19,28.19,0,0,1-1.11,6.14,14.66,14.66,0,0,0-2.23-.81,21.3,21.3,0,0,0,1-5.69Zm2.44-.41a45.19,45.19,0,0,1,.65,4.94l-2.18.44a45.09,45.09,0,0,0-.51-5Zm2.38-.74a30.93,30.93,0,0,1,1.1,3.64l-2,.72a29.7,29.7,0,0,0-1-3.74Zm14.33,4.27v2.61H992.35v-2.61h5.42v-3.31h-4.32v-2.55h11.65v2.55h-4.45v3.31Zm-8.64-14.74c-.72,1.25-1.54,2.59-2.31,3.72a26.38,26.38,0,0,1,2.48,3.84l-2.28.89a24.63,24.63,0,0,0-2.84-4.68,35.61,35.61,0,0,0,2.52-4.34Zm8.38-1H992.88v-2.54h12.94Zm-6.41,9.31a25.29,25.29,0,0,0-2.91-4.63,39,39,0,0,0,2.55-4.25l2.4.55c-.72,1.23-1.56,2.57-2.31,3.68a26.92,26.92,0,0,1,2.52,3.72Zm4.22.1a24,24,0,0,0-3.17-4.68,36.39,36.39,0,0,0,2.64-4.34l2.45.57c-.74,1.27-1.61,2.59-2.4,3.72a26.05,26.05,0,0,1,2.74,3.75Z"/><path class="cls-8" d="M1011.05,223.27a24.35,24.35,0,0,0-3.53-2.91l1.39-1.63a24.25,24.25,0,0,1,3.58,2.71Zm1.53,3.17c-.77,2.47-1.75,5.23-2.66,7.46l-2-1.32c.84-1.82,2-4.8,2.88-7.49Zm-.91-9.46a22.6,22.6,0,0,0-3.5-3.34l1.46-1.56a21.74,21.74,0,0,1,3.62,3.12Zm13.32,7.08h2.67v10.22H1025V231h-7.82a7,7,0,0,1-2.52,3.32,12.75,12.75,0,0,0-2.09-1.52c2.28-1.53,2.59-4.1,2.59-5.76v-3h2.64v1.25h7.2Zm-8.42-4.54a6.28,6.28,0,0,1-2.74,4.54,6,6,0,0,0-1.08-1.44,4.55,4.55,0,0,0,2-3.1h-1v-1.77h5.49s0,.45,0,.69c0,2.86-.12,4.16-.48,4.59a1.37,1.37,0,0,1-1.06.57,6.8,6.8,0,0,1-1.37.08,5.68,5.68,0,0,0-.43-1.76,4.08,4.08,0,0,0,.87.08.44.44,0,0,0,.43-.2,7.28,7.28,0,0,0,.21-2.28Zm3.38-3.19h-6.31v-2.28H1020a19.38,19.38,0,0,0-.41-2l2.59-.34a12.92,12.92,0,0,1,.63,2.38h7v2.28h-6.46l1.44.48c-.79.75-1.66,1.56-2.42,2.19h.12v4.94h-2V219h0l0,0a18.68,18.68,0,0,0,2.28-2.67h-2.28a7,7,0,0,1,.88,1.75l-1.56.68a8.15,8.15,0,0,0-.88-2Zm5,12.51v-1.32h-7.2c0,.4,0,.86-.1,1.32Zm4.2-10.66a9.42,9.42,0,0,1-1.39.65,6.86,6.86,0,0,0,2.3,3.6,5.76,5.76,0,0,0-1.17,1.34,8.26,8.26,0,0,1-2.45-4.44c-.31.1-.63.17-.91.27v2.18l1.17-.31a6.58,6.58,0,0,0,.29,1.39,10.46,10.46,0,0,0-2.93,1.2V224a7.85,7.85,0,0,0-.79-1.66c.31-.17.62-.6.62-1.53v-2.38a15.35,15.35,0,0,0,3.68-1.56Z"/></g></g></g><g id="Group_5212-3" data-name="Group 5212"><g id="企-3" data-name="企" class="cls-7"><g class="cls-7"><path class="cls-8" d="M977.59,129.59h2.88V132H958.58v-2.44h2.78v-5.48h16.23Zm2.88-15.94v2.4h-7.25a13.89,13.89,0,0,1-1.78,2.88,19.29,19.29,0,0,0-2.11-1.56v2h-3.24v1.41h4.06V123H959.2v-11.9H970v2.16h-3.91v1.24h3.24v2.77a16.77,16.77,0,0,0,3-7l2.64.53a26.94,26.94,0,0,1-.84,2.86Zm-18.7-.43v1.24h2v-1.24Zm5.23,3.07h-5.23v1.27H967Zm-3.19,3.1h-2v1.41h2Zm.22,10.2h1.8v-3.27H964Zm4.41-3.27v3.27h1.9v-3.27Zm11.6-4.13h-8.28v-2.56H980Zm-7.11,4.13v3.27h1.85v-3.27Z"/><path class="cls-8" d="M1004.57,113.89h-4.18a14.66,14.66,0,0,1,1.85,1.63l-1.59,1.42h3.2v4.17h-2.93v-2H986.11v2h-2.76v-4.17h.86a16.16,16.16,0,0,0-1.85-1.85,13.9,13.9,0,0,0,3.51-5l2.52.72a10.11,10.11,0,0,1-.43,1h5.28v2a10.12,10.12,0,0,0,2.52-3.67l2.56.67a7.28,7.28,0,0,1-.43,1h6.65Zm-15.1,3a17,17,0,0,0-2.19-2.24l.89-.79h-1.41a19.54,19.54,0,0,1-2.4,3Zm-.34,9.57h13v6.2h-2.86v-.65H989.13v.65h-2.9V120.06h14.62v5.35H989.13Zm0-4.39v1.25h8.93v-1.25Zm0,6.48V130h10.13V128.6Zm5-13.51a12.08,12.08,0,0,0-1.35-1l.22-.17h-3.17a15.77,15.77,0,0,1,1.42,1.44l-1.73,1.59h2.74a13.25,13.25,0,0,0-.63-1.37Zm5.93,1.85a21.72,21.72,0,0,0-2.38-2.16l1-.89H996.6a10.3,10.3,0,0,1-1.68,1.87c-.17-.17-.41-.36-.68-.58a9.5,9.5,0,0,1,.92,1.76Z"/><path class="cls-8" d="M1010.9,121.64a22.16,22.16,0,0,0-4.49-2.59l1.51-2.14a21.63,21.63,0,0,1,4.56,2.36Zm-3.65,8.86a66.82,66.82,0,0,0,4.54-7.56l2.11,1.92c-1.27,2.49-2.81,5.23-4.22,7.56Zm5-15.22a22.26,22.26,0,0,0-4.46-2.66l1.56-2.12a23.11,23.11,0,0,1,4.56,2.43Zm13.68,17.4a10.14,10.14,0,0,0-.84-2.11c-8,1-9.21,1.15-10,1.56a24.85,24.85,0,0,0-1-2.86c.55-.16,1-.67,1.56-1.53a35.63,35.63,0,0,0,2.54-5.14h-4.51v-2.69h5.69v-3.38h-4.73v-2.71h4.73v-3.58h2.9v3.58h4.9v2.71h-4.9v3.38h5.79v2.69h-6.53a44.44,44.44,0,0,1-3.34,6.17l5.64-.58a26.28,26.28,0,0,0-1.61-2.47l2.33-1.15a27,27,0,0,1,4,6.82Z"/><path class="cls-8" d="M1038.4,129.18c-.57-.94-1.56-2.4-2.49-3.63a14.08,14.08,0,0,1-3.67,6.75,10.85,10.85,0,0,0-2-2c2.42-2.13,3.31-5.3,3.62-8.28h-3.31v-2.59H1034c0-.5,0-1,0-1.46v-1.56h-3.12v-2.52H1034V110.5h2.67v3.44h3v2.52h-3V118c0,.46,0,.94,0,1.44H1040v2.59h-3.56l0,.53c1,1,3.33,3.82,3.91,4.51Zm11.72.57c.33,0,.43-.21.5-1.63a6.9,6.9,0,0,0,2.31,1c-.29,2.44-1,3.12-2.5,3.12h-1.63c-2.11,0-2.57-.77-2.57-3.15v-4.17h-1c-.4,3.55-1.46,6.21-5.68,7.82a6.75,6.75,0,0,0-1.56-2.14c3.5-1.15,4.24-3.12,4.58-5.68h-1.8V111.1h10.66v13.81h-2.57v4.15c0,.62.05.69.41.69Zm-6.7-14.71h5.26v-1.42h-5.26Zm0,3.67h5.26V117.3h-5.26Zm0,3.68h5.26V121h-5.26Z"/></g></g></g><g id="Group_5212-4" data-name="Group 5212"><g id="企-4" data-name="企" class="cls-7"><g class="cls-7"><path class="cls-8" d="M765,57.69a25.82,25.82,0,0,0-1.44-2.64V64.8h-2.76V56.16a22.25,22.25,0,0,1-2.62,4.75,14.77,14.77,0,0,0-1.32-2.71,22.6,22.6,0,0,0,3.56-6.44H757.2V49.1h3.62V46.39c-.94.14-1.82.29-2.71.38a9,9,0,0,0-.77-2.21,36.42,36.42,0,0,0,7.73-2l1.61,2.32a21.75,21.75,0,0,1-3.1.89V49.1h3.17v2.66h-3.17V52c.7.67,2.66,2.92,3.12,3.48Zm11.83,1v6H774V59.23l-7.24,1.25-.46-2.72,7.7-1.32V42.38h2.81V56l2.38-.4.46,2.66Zm-6-3.33A21.79,21.79,0,0,0,767,51.72l1.83-1.64a21.36,21.36,0,0,1,3.93,3.48Zm.62-6.34a18,18,0,0,0-3.57-3.6l1.87-1.63a19.06,19.06,0,0,1,3.69,3.46Z"/><path class="cls-8" d="M789.5,55.2c-.84.24-1.7.48-2.57.69v5.74c0,1.39-.26,2.06-1.08,2.52a8,8,0,0,1-3.62.5,12.11,12.11,0,0,0-.82-2.59c.94,0,1.92,0,2.23,0s.46-.12.46-.48V56.66l-2.33.58L781,54.52c.89-.16,1.92-.4,3.07-.69V49.58h-2.76V46.94h2.76V42.38h2.83v4.56h2.35v2.64h-2.35v3.55l2.21-.55ZM802.8,52a17.47,17.47,0,0,1-4.47,8,16.14,16.14,0,0,0,5.55,2.43,12.46,12.46,0,0,0-1.83,2.47,17.22,17.22,0,0,1-6-3,22.5,22.5,0,0,1-6.32,3,11.4,11.4,0,0,0-1.53-2.59A18.65,18.65,0,0,0,794,59.8a18.89,18.89,0,0,1-3.4-5.71l.72-.21H790V51.31h4.73V48.43H789.6V45.79h5.16V42.36h2.83v3.43H803v2.64h-5.38v2.88h2.88l.5-.12Zm-9.46,1.92a13.64,13.64,0,0,0,2.83,4.24,13.33,13.33,0,0,0,3-4.24Z"/></g></g></g><line class="cls-9" x1="685.17" y1="300.85" x2="687.67" y2="300.85"/><polyline class="cls-10" points="692.58 300.85 806.02 300.85 857.44 349.11"/><line class="cls-9" x1="859.23" y1="350.78" x2="861.05" y2="352.49"/><line class="cls-9" x1="625.03" y1="117.92" x2="626.86" y2="116.21"/><line class="cls-11" x1="630.28" y1="112.99" x2="676.52" y2="69.59"/><line class="cls-9" x1="678.24" y1="67.98" x2="680.06" y2="66.27"/><line class="cls-9" x1="655.22" y1="162.32" x2="657.72" y2="162.32"/><polyline class="cls-12" points="662.7 162.32 839.06 162.32 890.45 114.09"/><line class="cls-9" x1="892.26" y1="112.38" x2="894.09" y2="110.67"/><line class="cls-9" x1="662.45" y1="232.15" x2="664.95" y2="232.15"/><line class="cls-13" x1="670.05" y1="232.15" x2="891.73" y2="232.15"/><line class="cls-9" x1="894.28" y1="232.15" x2="896.78" y2="232.15"/><line class="cls-9" x1="498.03" y1="258.4" x2="495.53" y2="258.4"/><polyline class="cls-14" points="490.46 258.4 259.34 258.4 207.99 306.6"/><line class="cls-9" x1="206.14" y1="308.34" x2="204.32" y2="310.05"/><line class="cls-9" x1="445.87" y1="129.45" x2="443.37" y2="129.45"/><polyline class="cls-15" points="438.38 129.45 341.48 129.45 290.1 81.22"/><line class="cls-9" x1="288.28" y1="79.51" x2="286.46" y2="77.8"/><line class="cls-9" x1="438.64" y1="184.87" x2="436.14" y2="184.87"/><line class="cls-13" x1="431.04" y1="184.87" x2="209.36" y2="184.87"/><line class="cls-9" x1="206.82" y1="184.87" x2="204.32" y2="184.87"/><circle class="cls-16" cx="879.43" cy="348.68" r="39.37"/><path class="cls-17" d="M855.38,333.22c0,14,4.23,16.6,4.23,16.6a9.19,9.19,0,0,0,12.6-13.38S869.41,332.42,855.38,333.22Z"/><path class="cls-17" d="M903.47,333.22c0,14-4.22,16.6-4.22,16.6a9.19,9.19,0,1,1-12.61-13.38S889.44,332.42,903.47,333.22Z"/><rect class="cls-18" x="859.27" y="346.57" width="22.99" height="2.26" transform="translate(475.22 -502.4) rotate(43.28)"/><rect class="cls-18" x="876.6" y="346.57" width="22.99" height="2.26" transform="translate(1773.01 -8.02) rotate(136.72)"/><rect class="cls-18" x="878.48" y="354.27" width="1.9" height="18.31"/><g id="Group_5212-5" data-name="Group 5212"><g id="企-5" data-name="企" class="cls-7"><g class="cls-7"><path class="cls-8" d="M30.65,309.78v5.72c0,1.39-.27,2.09-1.08,2.49a7.61,7.61,0,0,1-3.63.53,9.36,9.36,0,0,0-.81-2.59c1,0,1.94,0,2.25,0s.46-.12.46-.45v-5l-2.43.62-.74-2.73,3.17-.7V303.5H25v-2.64h2.86V296.3h2.81v4.56h2.52v2.64H30.65V307l1.75-.43.36,2.62Zm15.17-2.44a15.16,15.16,0,0,1-4.11,6.93,20.68,20.68,0,0,0,5.55,1.83,14,14,0,0,0-1.8,2.64,19.79,19.79,0,0,1-6.2-2.59,22.7,22.7,0,0,1-6.53,2.56,12.07,12.07,0,0,0-1.39-2.61,19.58,19.58,0,0,0,5.55-1.83,17.63,17.63,0,0,1-3.32-4.63l.89-.31H33.07v-2.67H43.49l.5-.12Zm-12-1a11.09,11.09,0,0,0-1.9-2c2.83-1.29,3.2-3,3.2-4.68v-2.57h8.47v5.24c0,.69,0,1,.38,1h1.3a5.58,5.58,0,0,0,1.34-.17c0,.72.12,1.71.22,2.38a4.79,4.79,0,0,1-1.51.17H43.73c-2.35,0-2.86-1-2.86-3.41V299.7l-3.09,0A6.72,6.72,0,0,1,33.84,306.35Zm2.5,3a11.44,11.44,0,0,0,2.95,3.36,11.46,11.46,0,0,0,2.78-3.36Z"/><path class="cls-8" d="M64.06,300.57c1.29,1.27,3.84,1.87,7.08,2a9.16,9.16,0,0,0-1.59,2.28,11.52,11.52,0,0,1-6.29-2.43c-.91,1.06-2.9,2-6.93,2.45a9.17,9.17,0,0,0-1-1.56H49v-2.18h7.24v1.46c4.59-.48,5.19-1.56,5.19-2.45v-.36H60a10.1,10.1,0,0,1-1.68,2.07,14.35,14.35,0,0,0-2.11-1.47A9.72,9.72,0,0,0,59,296.15l2.49.55c-.12.36-.26.72-.41,1.06h6.82l.43-.12,2,.6A21.25,21.25,0,0,1,68.09,302l-2.21-.81a14.37,14.37,0,0,0,.84-1.4H64.06v.75Zm.64,14.11c2.21.82,4.56,1.78,6,2.47l-2.57,1.54a43.87,43.87,0,0,0-6.24-2.83l1.47-1.18H56.57l2.08,1a30.86,30.86,0,0,1-7.48,3.12,19.07,19.07,0,0,0-2.12-2.09,27.26,27.26,0,0,0,6.56-2H52.15v-9.74H68.21v9.74Zm-9-15.12H49.56v-2.09H55.7Zm-.79,8.11H65.3v-1H54.91Zm0,2.64H65.3v-1H54.91Zm0,2.69H65.3v-1.08H54.91Z"/><path class="cls-8" d="M85.42,296.32c0,1-.08,2.3-.17,3.74.33,3.24,1.8,12.29,10.17,16a7.73,7.73,0,0,0-2.08,2.47C88,316,85.34,311.3,84,307.17a19.58,19.58,0,0,1-8.83,11.5,9.28,9.28,0,0,0-2.38-2.33c9.75-5.21,9.29-16,9.39-20Z"/><path class="cls-8" d="M103.82,314.54a14.2,14.2,0,0,0,5.6.79c1.75,0,7.84,0,9.91-.05a10,10,0,0,0-1.08,2.79h-8.86c-4.68,0-7.68-.65-9.65-3.75a14.16,14.16,0,0,1-1.58,4.35,5.56,5.56,0,0,0-1.8-1.66c1.51-2.76,1.63-6.53,1.53-9.77l2.31.14c0,.82,0,1.64,0,2.48a10.19,10.19,0,0,0,1.13,2.54v-6.7H97.1v-2.52h3.51v-2h-3v-2.48h3V296.3h2.56v2.44h2.72v1.49a11.29,11.29,0,0,0,2.78-4.05l2.38.57c-.1.24-.22.51-.34.75h7.75s0,.57,0,.84c-.19,4-.41,5.56-.91,6.16a1.92,1.92,0,0,1-1.44.7,13.57,13.57,0,0,1-2.26,0,4.09,4.09,0,0,0-.5-1.72,14.86,14.86,0,0,0,1.56.07.73.73,0,0,0,.6-.19c.24-.34.41-1.37.55-4h-6.38l-.58.82h0v1.53h1.08V299.9H112v1.84h1.18v-1.53H115v3.12h-3.09a2.85,2.85,0,0,1-1.83,1.92l.84.21c-.12.27-.24.51-.38.77l5.66,0h2.4s0,.6,0,.89c-.19,4.48-.43,6.19-1,6.86a2,2,0,0,1-1.49.72,18.14,18.14,0,0,1-2.33.05,4.62,4.62,0,0,0-.52-1.85,15.83,15.83,0,0,0,1.6.07c.32,0,.48,0,.65-.24s.46-1.53.6-4.56h-6.79a10.23,10.23,0,0,1-.7.87h.27v1.58H110v-1.92h2v1.92h1.2V309h1.88v3.26h-3.27c-.41,1.18-1.56,2.19-4.37,2.83a6.56,6.56,0,0,0-1.2-1.44,5.49,5.49,0,0,0,3.29-1.39H107v-2.14c-.27-.19-.58-.43-.91-.64v1.05h-2.31Zm0-8.84v2.38h2.31v.1a9.73,9.73,0,0,0,1.82-2.36l-.5.1a6.73,6.73,0,0,0-1-1.34c2.06-.22,3.07-.68,3.48-1.25H107.3v-1.49c-.38-.29-.93-.67-1.41-1v.34h-2.72v2h3.2v2.52Z"/><path class="cls-8" d="M141.17,298.89c0,5-.1,9.12.55,9.12.26,0,.34-1.18.36-2.76a11.57,11.57,0,0,0,1.54,1.63c-.2,2.42-.6,3.6-2.12,3.6-2.47,0-2.78-4-2.85-9.31H137a21.57,21.57,0,0,1-.46,3c.89.51,1.68,1,2.26,1.39l-1.2,2c-.46-.33-1.08-.74-1.78-1.2a7.81,7.81,0,0,1-2.9,3.53,6.41,6.41,0,0,0-1.37-1.65v1.15c-3.72.26-7.56.5-10.32.69l-.15-2,4.15-.19v-1.13H122v-1.68h3.21v-1h2.36a2.33,2.33,0,0,1-.48-1.78v-.48h-1.28c-.5,1.66-1.82,2.69-3.84,3.26a7.52,7.52,0,0,0-1.05-1.65c1.37-.29,2.4-.72,2.78-1.61h-2.49V300h4v-.86H122V297.5h3.26v-1.2h2.6v1.2h3.33v1.68h-3.33V300H132v1.8h-2.81v.5c0,.41,0,.6.36.6h.82a5.34,5.34,0,0,0,1.23-.14,14.19,14.19,0,0,0,.12,1.56,4.83,4.83,0,0,1-1.3.14H129a2.12,2.12,0,0,1-1.15-.24v.89h3.36v1.68h-3.36v1l3.72-.22V308a6.49,6.49,0,0,0,2.21-2.85c-.68-.41-1.3-.8-1.88-1.13l1.2-1.78,1.3.7a18.38,18.38,0,0,0,.22-1.83h-2.14v-2.25h2.26c0-.82,0-1.66,0-2.59h2.43c0,.88,0,1.75-.07,2.59Zm0,12.31s-.05.74-.12,1.08c-.33,3.29-.77,4.9-1.44,5.55a3.05,3.05,0,0,1-2.11.81c-.74.07-2,.07-3.43.05a5.59,5.59,0,0,0-.82-2.57c1.23.12,2.52.15,3,.15a1.35,1.35,0,0,0,1-.24c.33-.27.6-1.09.79-2.67h-5.5c-1.1,2.81-3.58,4.51-9.91,5.4a8.7,8.7,0,0,0-1.27-2.33c4.87-.52,7-1.49,8.06-3.07h-6.67V311.2h7.44c.07-.38.14-.77.19-1.2h2.91c-.05.43-.12.82-.15,1.2Z"/></g></g></g><g id="Group_5212-6" data-name="Group 5212"><g id="企-6" data-name="企" class="cls-7"><g class="cls-7"><path class="cls-8" d="M106.52,71.24c-1-.7-3-1.83-4.49-2.6l1.56-2.11c1.32.65,3.46,1.68,4.51,2.33Zm3,3c-1.27,2.49-2.79,5.23-4.23,7.56l-2.42-1.92a64.23,64.23,0,0,0,4.54-7.56Zm-1.78-9.39A45.13,45.13,0,0,0,103.45,62l1.68-2c1.32.72,3.33,1.84,4.34,2.54ZM123.44,79c0,1.39-.24,2.11-1.15,2.57a9.9,9.9,0,0,1-4,.48,9.37,9.37,0,0,0-.86-2.69c1.1.07,2.35.07,2.74.05s.48-.12.48-.44V75.68c-2.41.64-4.9,1.27-6.89,1.77l-.84-2.35c2-.38,4.89-1,7.73-1.7V69h-7.73v4.81c0,2.68-.2,6.28-1.52,8.49a11.78,11.78,0,0,0-2.28-1.56c1.11-1.94,1.18-4.68,1.18-6.93v-7.4h5.18V59.67h2.88v6.69h5.07ZM111.82,65.88a16.65,16.65,0,0,0-2.16-4.44l2.4-1a16.38,16.38,0,0,1,2.35,4.32Zm2.59,3.91a23.24,23.24,0,0,1,5.38,1.93l-1.22,1.94a24,24,0,0,0-5.31-2.14Zm9.92-8.59a39.55,39.55,0,0,1-2.4,4.51l-2.47-.91a29.93,29.93,0,0,0,2.08-4.58Z"/><path class="cls-8" d="M143,78.44c2,.67,3.91,1.39,5.19,2l-2.09,1.71a54.34,54.34,0,0,0-6.82-2.76l.91-.91h-5.85l1.75.81a30.5,30.5,0,0,1-7.51,2.88,15.51,15.51,0,0,0-2.07-2.06,29.85,29.85,0,0,0,6.27-1.63h-3.15V71.31c-.55.12-1.15.24-1.77.33a10.14,10.14,0,0,0-1.37-2.23c2.85-.36,4.56-.94,5.59-1.68h-3.86a42.67,42.67,0,0,0,.69-4.37h4.59v-1H128V60.72h5.45v-1H136v1h2.66v-1h2.71v1h5.09V65h-5.09v1H148s0,.46,0,.75c-.12,1.49-.27,2.33-.68,2.76a1.91,1.91,0,0,1-1.36.58l-.39,0v8.26ZM131,66.07h2.28a4.52,4.52,0,0,0,.17-1h-2.28Zm1.4,4.78v1h10.32v-1Zm0,2.47v1h10.32v-1Zm0,3.51h10.32v-1H132.37Zm3.09-9.1a5.07,5.07,0,0,1-1.13,1.51h4.37V67.73ZM138.7,65H136c0,.36,0,.72-.1,1h2.76ZM136,63.36h2.66v-1H136Zm5.37-1v1h2.5v-1Zm0,5.33v1.51h2.14a3,3,0,0,0-.34-.79,7.09,7.09,0,0,0,1.35.07.6.6,0,0,0,.5-.14,1.28,1.28,0,0,0,.17-.65Z"/><path class="cls-8" d="M163.52,69.43c-.94.68-1.85,1.3-2.83,1.93h8.71V82h-3v-.62h-8.25v.72h-2.86V74.26c-1.2.53-2.45,1.06-3.67,1.51a16.26,16.26,0,0,0-1.75-2.35,42.15,42.15,0,0,0,8.92-4h-8.16V66.91h7.71V64.73h-5.64V62.26h5.64V59.67h2.83v2.59h5.21v1.17a29.07,29.07,0,0,0,2.47-3l2.45,1.24a34.76,34.76,0,0,1-4.73,5.28h5.57v2.52Zm2.9,4.25h-8.25v1.54h8.25Zm0,5.33V77.38h-8.25V79Zm-5.23-12.1h1.32a30.44,30.44,0,0,0,2.59-2.18h-3.91Z"/><path class="cls-8" d="M181.23,77.91a14,14,0,0,0,5.59.79c1.75,0,7.85,0,9.92,0a9.71,9.71,0,0,0-1.08,2.79H186.8c-4.68,0-7.68-.65-9.65-3.75A14.43,14.43,0,0,1,175.57,82a5.56,5.56,0,0,0-1.8-1.66c1.51-2.76,1.63-6.53,1.53-9.77l2.31.15c0,.81,0,1.63,0,2.47a10.39,10.39,0,0,0,1.12,2.54v-6.7h-4.22V66.55H178v-2h-3V62.11h3V59.67h2.57v2.44h2.71V63.6a11.32,11.32,0,0,0,2.79-4.05l2.37.57a8.15,8.15,0,0,1-.33.75h7.75s0,.57,0,.84c-.19,4-.41,5.56-.91,6.16a1.92,1.92,0,0,1-1.44.7,14.53,14.53,0,0,1-2.26,0,4.1,4.1,0,0,0-.51-1.73,15.12,15.12,0,0,0,1.57.07.74.74,0,0,0,.6-.19c.24-.34.4-1.37.55-4h-6.39c-.19.29-.38.55-.57.82h0v1.53h1.08V63.27h1.8v1.84h1.18V63.58h1.82V66.7h-3.1a2.86,2.86,0,0,1-1.82,1.92l.84.22c-.12.26-.24.5-.38.76l5.66,0H196s0,.6,0,.89c-.19,4.49-.43,6.19-1,6.86a2,2,0,0,1-1.49.72,18.2,18.2,0,0,1-2.33,0,4.48,4.48,0,0,0-.53-1.85,16,16,0,0,0,1.61.07c.31,0,.48,0,.65-.24s.46-1.53.6-4.56h-6.79a8.86,8.86,0,0,1-.7.87h.26V74h1.13V72.05h2V74h1.2V72.39h1.87v3.26H189.2c-.41,1.18-1.56,2.19-4.37,2.83a6.56,6.56,0,0,0-1.2-1.44,5.53,5.53,0,0,0,3.29-1.39h-2.47V73.52c-.27-.2-.58-.44-.92-.65v1h-2.3Zm0-8.84v2.38h2.3v.1a9.58,9.58,0,0,0,1.83-2.36l-.51.1a6.31,6.31,0,0,0-1-1.34c2.06-.22,3.07-.68,3.48-1.25h-2.62V65.21c-.38-.29-.94-.67-1.42-1v.34h-2.71v2h3.19v2.52Z"/><path class="cls-8" d="M218.58,62.26c-.05,5-.1,9.12.55,9.12.26,0,.33-1.18.36-2.76A11,11,0,0,0,221,70.25c-.19,2.43-.6,3.6-2.11,3.6-2.47,0-2.78-4-2.85-9.31h-1.64a21.62,21.62,0,0,1-.45,3c.88.51,1.68,1,2.25,1.39L215,71c-.45-.34-1.08-.75-1.77-1.21a7.71,7.71,0,0,1-2.91,3.53A6.18,6.18,0,0,0,209,71.67v1.15c-3.72.26-7.56.5-10.32.7l-.14-2c1.15,0,2.59-.12,4.15-.19V70.2h-3.21V68.52h3.21v-1H205a2.38,2.38,0,0,1-.48-1.78v-.48h-1.27c-.5,1.66-1.82,2.69-3.84,3.26a7.52,7.52,0,0,0-1-1.65c1.36-.29,2.4-.72,2.78-1.61h-2.5v-1.8h4v-.86H199.4V60.87h3.26v-1.2h2.59v1.2h3.34v1.68h-3.34v.86h4.18v1.8h-2.81v.5c0,.41,0,.6.36.6h.82a5.19,5.19,0,0,0,1.22-.14c0,.5,0,1,.12,1.56a4.8,4.8,0,0,1-1.29.14h-1.44a2.18,2.18,0,0,1-1.16-.24v.89h3.36V70.2h-3.36v1L209,71v.43a6.25,6.25,0,0,0,2.21-2.85c-.67-.41-1.29-.8-1.87-1.13l1.2-1.78,1.3.7c.09-.55.16-1.18.21-1.83h-2.13V62.26h2.25c0-.82.05-1.66.05-2.59h2.42c0,.88,0,1.75-.07,2.59Zm0,12.31s0,.75-.12,1.08c-.34,3.29-.77,4.9-1.44,5.55a3.05,3.05,0,0,1-2.11.81c-.75.07-2,.07-3.44,0a5.58,5.58,0,0,0-.81-2.57c1.22.12,2.52.15,3,.15a1.33,1.33,0,0,0,1-.24c.34-.27.6-1.08.8-2.67H210c-1.11,2.81-3.58,4.51-9.91,5.4a8.74,8.74,0,0,0-1.28-2.33c4.88-.52,7-1.48,8.07-3.07h-6.67V74.57h7.44c.07-.38.14-.77.19-1.2h2.9c0,.43-.12.82-.14,1.2Z"/></g></g></g><g id="Group_5212-7" data-name="Group 5212"><g id="企-7" data-name="企" class="cls-7"><g class="cls-7"><path class="cls-8" d="M39.44,170.8c0,1-.08,2.31-.17,3.75.33,3.24,1.8,12.29,10.17,16A7.65,7.65,0,0,0,47.36,193c-5.33-2.55-8-7.23-9.39-11.36a19.55,19.55,0,0,1-8.83,11.5,9.28,9.28,0,0,0-2.38-2.33c9.75-5.21,9.29-16,9.39-20Z"/><path class="cls-8" d="M71.48,173.13v19.54H68.33v-1.9H55.61v1.95h-3V173.13Zm-3.15,14.69V176H55.61v11.78Z"/><path class="cls-8" d="M77.71,186.91a25.71,25.71,0,0,1-1,5.86,9.45,9.45,0,0,0-2.11-.77,21,21,0,0,0,1-5.45ZM82,185.49c0-.33-.12-.67-.21-1.08-4.8.84-5.6,1.11-6.12,1.37a17.78,17.78,0,0,0-.89-2.54c.65-.17,1.15-.67,1.87-1.59a16.7,16.7,0,0,0,1.46-1.89,9,9,0,0,0-2.64.5c-.14-.55-.57-1.8-.86-2.52.46-.12.86-.57,1.34-1.29a27.82,27.82,0,0,0,2.81-5.89l2.55,1.11a35.54,35.54,0,0,1-3.34,6l1.58-.12a39.39,39.39,0,0,0,1.85-3.6l2.35,1.46a42,42,0,0,1-5,7.37l2.4-.39c-.21-.62-.45-1.24-.69-1.77l1.92-.75a21.12,21.12,0,0,1,1.68,4.8Zm-1.75.84a43.82,43.82,0,0,1,.65,4.95l-2.11.53a49.57,49.57,0,0,0-.53-4.95Zm2.54-.69c.44,1.25.94,2.85,1.18,3.89l-2,.74a28.76,28.76,0,0,0-1.11-4Zm11.57,4.61c.44,0,.51-.46.58-3.27A7.54,7.54,0,0,0,97.3,188c-.24,3.69-.89,4.73-2.69,4.73H92.88c-2.18,0-2.66-.84-2.66-3.36v-7.16l-1.37.17c-.19,5.14-.84,8.74-4.75,10.87a7.49,7.49,0,0,0-1.73-2.23c3.17-1.63,3.65-4.27,3.79-8.28a5.47,5.47,0,0,0-1.63.39,23.46,23.46,0,0,0-1-2.74c.58-.17,1.06-.74,1.66-1.73a19.62,19.62,0,0,0,1.44-2.49H83.81v-2.67h4.08c.39-.93.77-1.89,1.08-2.88l3.1.82c-.29.69-.58,1.37-.89,2.06h5.64v2.67h-7c-.72,1.36-1.52,2.64-2.28,3.79l5.06-.48c-.38-.65-.77-1.27-1.1-1.87l2.3-1a32.53,32.53,0,0,1,3.24,6l-2.5,1.15a15.27,15.27,0,0,0-.74-1.87l-.94.12v7.44c0,.74.05.84.46.84Z"/><path class="cls-8" d="M109.54,177H99.43v-2.26h4.18a21.52,21.52,0,0,0-1.54-3l2.24-1a22.42,22.42,0,0,1,1.75,3.2l-1.59.86h5.07Zm-9.05,3.24v-2.16h8v2.16Zm8,3.21h-8v-2.16h8Zm.1,8.43H103v1h-2.4v-8.28h8Zm-5.59-5v2.68h3.12v-2.68Zm18.07-5.33h-4.44V193.2h-3V181.56h-4.2v-2.81h4.2v-7.54h3v7.54h4.44Z"/><path class="cls-8" d="M144.84,188.81h-9.16v1.72c0,1.28-.29,1.9-1.28,2.28a13.56,13.56,0,0,1-4.1.36,9.32,9.32,0,0,0-.87-2.4c1.13,0,2.57,0,2.93,0s.51-.07.51-.36v-1.63h-9.72v-2.26h9.72v-.7a17.24,17.24,0,0,0,2.64-1.39H127.8v-2h10.44l.6-.14,1.61,1.46a34.08,34.08,0,0,1-4.58,2.76h9Zm-18.55-4.52h-2.71v-4.92h1.8l-.43-7.13a32.7,32.7,0,0,0,4.84-1.34l1.16,1.66a23.06,23.06,0,0,1-3.27.91l0,.7h3v1.77h-3l0,.82h3V178c.57-.29,1.15-.57,1.68-.91-.46-.29-.92-.55-1.35-.79l1.32-1.13c.48.24,1,.53,1.49.82a9.86,9.86,0,0,0,1-1l1.87.55a10.57,10.57,0,0,1-1.27,1.44,9.27,9.27,0,0,1,1.44,1.1l-1.41,1.25a17.89,17.89,0,0,0-1.4-1.17,17.49,17.49,0,0,1-1.94,1.24H140l.09-.84h-2.83v-1.77h3l.05-.82h-2.93v-1.77h3.05l0-.8h-3.24v-1.8h6c-.12,2.52-.29,5.57-.5,7.8h1.77v4.92H141.7v-2.85H126.29Zm1.73-4.92h3.89c-.27-.31-.72-.76-1.08-1.1v.26H128Zm7.44-4.41a12.61,12.61,0,0,0-1.25-1,12.46,12.46,0,0,1-1.94,1.2,13.57,13.57,0,0,0-1.49-1.27,10.82,10.82,0,0,0,1.82-.94c-.45-.26-.86-.5-1.29-.72l1.27-1.1c.45.21,1,.48,1.46.77a8.65,8.65,0,0,0,.87-1l1.87.56a9.19,9.19,0,0,1-1.2,1.32,15.41,15.41,0,0,1,1.25,1Z"/></g></g></g><circle class="cls-16" cx="198.41" cy="305.1" r="39.37"/><circle class="cls-17" cx="197.54" cy="308.72" r="4.99"/><circle class="cls-17" cx="212.22" cy="305.13" r="4.99"/><path class="cls-17" d="M197.54,315.2a9.91,9.91,0,0,0-9.9,9.91h19.8A9.91,9.91,0,0,0,197.54,315.2Z"/><path class="cls-17" d="M207.84,321.74h13.28a9.9,9.9,0,0,0-17.79-6A9.9,9.9,0,0,1,207.84,321.74Z"/><circle class="cls-17" cx="182.86" cy="305.13" r="4.99"/><path class="cls-17" d="M187.24,321.74H174a9.9,9.9,0,0,1,17.79-6A9.9,9.9,0,0,0,187.24,321.74Z"/><polyline class="cls-19" points="184.41 295.25 194.6 286.71 201.06 294.42 213.6 283.63"/><polygon class="cls-18" points="217 280.16 206.99 282.85 214.32 290.18 217 280.16"/><circle class="cls-17" cx="490.98" cy="301.94" r="1.47"/><circle class="cls-17" cx="495.31" cy="300.88" r="1.47"/><path class="cls-17" d="M491,303.85a2.93,2.93,0,0,0-2.93,2.93h5.85A2.93,2.93,0,0,0,491,303.85Z"/><path class="cls-17" d="M494,305.79h3.92a2.92,2.92,0,0,0-5.25-1.77A2.94,2.94,0,0,1,494,305.79Z"/><circle class="cls-17" cx="486.64" cy="300.88" r="1.47"/><path class="cls-17" d="M487.94,305.79H484a2.92,2.92,0,0,1,5.25-1.77A2.91,2.91,0,0,0,487.94,305.79Z"/><polygon class="cls-18" points="491.96 298.43 490.05 296.14 487.42 298.35 486.78 297.58 490.17 294.74 492.07 297.01 495.39 294.15 496.04 294.91 491.96 298.43"/><polygon class="cls-18" points="496.72 293.51 493.77 294.3 495.93 296.47 496.72 293.51"/><circle class="cls-17" cx="521.63" cy="266.62" r="1.47"/><circle class="cls-17" cx="525.96" cy="265.56" r="1.47"/><path class="cls-17" d="M521.63,268.54a2.93,2.93,0,0,0-2.93,2.92h5.85A2.92,2.92,0,0,0,521.63,268.54Z"/><path class="cls-17" d="M524.67,270.47h3.92a2.92,2.92,0,0,0-5.25-1.77A2.94,2.94,0,0,1,524.67,270.47Z"/><circle class="cls-17" cx="517.29" cy="265.56" r="1.47"/><path class="cls-17" d="M518.59,270.47h-3.92a2.92,2.92,0,0,1,5.25-1.77A2.91,2.91,0,0,0,518.59,270.47Z"/><polygon class="cls-18" points="522.61 263.11 520.7 260.83 518.07 263.03 517.43 262.26 520.82 259.43 522.73 261.69 526.04 258.84 526.69 259.59 522.61 263.11"/><polygon class="cls-18" points="527.37 258.19 524.42 258.98 526.58 261.15 527.37 258.19"/><circle class="cls-16" cx="198.41" cy="184.87" r="39.37"/><circle class="cls-16" cx="277.86" cy="68.22" r="39.37"/><path id="Path_20218-3" data-name="Path 20218" class="cls-1" d="M497.68,362.37a43.37,43.37,0,0,0-32.3-39.86,30.31,30.31,0,0,0-48.21-15.72,22.61,22.61,0,0,0-41.75,10.91A22.63,22.63,0,0,0,350,333.41a30.64,30.64,0,0,0-27.05,29Z"/><path id="Path_20218-4" data-name="Path 20218" class="cls-18" d="M514.73,331.27A13,13,0,0,0,503.24,319a9.6,9.6,0,0,0-9.19-6.81,9.49,9.49,0,0,0-1.59.14,9.6,9.6,0,0,0-17.73-4.64,12.87,12.87,0,0,0-20.48,6.68,18.41,18.41,0,0,0-13.72,16.93Z"/><path id="Path_20218-5" data-name="Path 20218" class="cls-18" d="M690.75,158.46a6.83,6.83,0,0,0-6-6.46,5,5,0,0,0-4.82-3.58,4.76,4.76,0,0,0-.84.07,5,5,0,0,0-9.31-2.43,6.75,6.75,0,0,0-10.75,3.5,9.69,9.69,0,0,0-7.21,8.9Z"/><path id="Path_20218-6" data-name="Path 20218" class="cls-18" d="M472.32,141a9.94,9.94,0,0,0-8.77-9.39,7.31,7.31,0,0,0-7-5.19,7.09,7.09,0,0,0-1.22.1A7.33,7.33,0,0,0,441.79,123a9.82,9.82,0,0,0-15.63,5.1A14.07,14.07,0,0,0,415.68,141Z"/><circle class="cls-17" cx="653.22" cy="163.02" r="2.97"/><circle class="cls-17" cx="663.29" cy="232.15" r="2.97"/><circle class="cls-17" cx="624.79" cy="118.32" r="2.97"/><circle class="cls-17" cx="439.57" cy="185.12" r="2.97"/><circle class="cls-17" cx="497.68" cy="257.87" r="2.97"/><circle class="cls-17" cx="660.38" cy="287.25" r="2.97"/><circle class="cls-16" cx="931.53" cy="224.23" r="39.37"/><circle class="cls-17" cx="931.53" cy="224.23" r="23.02"/><circle class="cls-4" cx="931.53" cy="224.23" r="19.46"/><path class="cls-18" d="M930.48,231.31V225a8.31,8.31,0,0,1-4.31-2.54,6.4,6.4,0,0,1-1.37-4.13,5.87,5.87,0,0,1,1.55-4.13,6.28,6.28,0,0,1,4.13-1.92v-1.48h2.17v1.48a6.39,6.39,0,0,1,3.79,1.63,6.23,6.23,0,0,1,1.8,3.58l-3.79.5a3.05,3.05,0,0,0-1.8-2.4v5.86q3.6,1,4.9,2.52a6,6,0,0,1,1.3,4,6.6,6.6,0,0,1-1.64,4.56,7.19,7.19,0,0,1-4.56,2.28v2.8h-2.17V234.9a6.87,6.87,0,0,1-4.21-1.93,7.88,7.88,0,0,1-2.06-4.57l3.9-.41a5,5,0,0,0,.9,2.06A4.1,4.1,0,0,0,930.48,231.31Zm0-15.72a2.8,2.8,0,0,0-1.41,1,2.63,2.63,0,0,0-.52,1.59,2.54,2.54,0,0,0,.48,1.48,3.35,3.35,0,0,0,1.45,1.1Zm2.17,15.93a3.08,3.08,0,0,0,1.83-1,2.93,2.93,0,0,0,.7-2,2.6,2.6,0,0,0-.59-1.72,3.73,3.73,0,0,0-1.94-1.12Z"/><circle class="cls-16" cx="703.32" cy="57.89" r="39.37"/><rect class="cls-18" x="688.39" y="31.9" width="30.84" height="49.89" rx="3.54"/><rect class="cls-16" x="690.95" y="35.44" width="25.71" height="40.72"/><circle class="cls-16" cx="703.81" cy="79.13" r="1.33"/><path class="cls-17" d="M703.81,59.26A1.73,1.73,0,1,0,705.54,61,1.73,1.73,0,0,0,703.81,59.26Z"/><path class="cls-17" d="M708,56.91a6,6,0,0,0-8.43,0,1.16,1.16,0,0,0,0,1.64,1.17,1.17,0,0,0,.83.34,1.15,1.15,0,0,0,.82-.34,3.66,3.66,0,0,1,5.14,0,1.15,1.15,0,0,0,.82.34,1.16,1.16,0,0,0,.83-2Z"/><path class="cls-17" d="M713.45,51.5a13.68,13.68,0,0,0-19.28,0,1.17,1.17,0,0,0,1.65,1.65,11.31,11.31,0,0,1,16,0,1.17,1.17,0,0,0,.83.34,1.17,1.17,0,0,0,.82-2Z"/><path class="cls-17" d="M710.67,54.27a9.74,9.74,0,0,0-13.72,0,1.17,1.17,0,0,0-.34.83,1.17,1.17,0,0,0,2,.82,7.38,7.38,0,0,1,10.42,0,1.17,1.17,0,0,0,.83.34A1.16,1.16,0,0,0,711,55.1,1.17,1.17,0,0,0,710.67,54.27Z"/><rect class="cls-16" x="699.73" y="33.28" width="8.17" height="0.9"/><rect class="cls-18" x="603.6" y="163.87" width="9.5" height="15.37" rx="1.09"/><rect class="cls-16" x="604.39" y="164.96" width="7.92" height="12.55"/><circle class="cls-16" cx="608.35" cy="178.42" r="0.41"/><path class="cls-17" d="M608.35,172.3a.53.53,0,0,0-.53.53.54.54,0,0,0,1.07,0A.54.54,0,0,0,608.35,172.3Z"/><path class="cls-17" d="M609.65,171.58a1.82,1.82,0,0,0-1.3-.54,1.86,1.86,0,0,0-1.3.53.37.37,0,0,0,.26.62.36.36,0,0,0,.25-.11,1.14,1.14,0,0,1,1.58,0,.36.36,0,0,0,.26.11.36.36,0,0,0,.25-.11A.35.35,0,0,0,609.65,171.58Z"/><path class="cls-17" d="M611.32,169.91a4.2,4.2,0,0,0-5.94,0,.36.36,0,0,0,0,.51.4.4,0,0,0,.26.1.39.39,0,0,0,.25-.1,3.48,3.48,0,0,1,4.92,0,.35.35,0,0,0,.26.1.35.35,0,0,0,.25-.1A.36.36,0,0,0,611.32,169.91Z"/><path class="cls-17" d="M610.47,170.77a3,3,0,0,0-4.23,0,.36.36,0,0,0-.11.26.36.36,0,0,0,.11.25.35.35,0,0,0,.25.1.35.35,0,0,0,.26-.1,2.28,2.28,0,0,1,3.21,0,.36.36,0,0,0,.25.11.36.36,0,0,0,.26-.11.39.39,0,0,0,.1-.25A.36.36,0,0,0,610.47,170.77Z"/><rect class="cls-16" x="607.09" y="164.3" width="2.52" height="0.28"/><rect class="cls-18" x="676.79" y="208.84" width="9.5" height="15.37" rx="1.09"/><rect class="cls-16" x="677.58" y="209.93" width="7.92" height="12.55"/><circle class="cls-16" cx="681.55" cy="223.39" r="0.41"/><path class="cls-17" d="M681.55,217.27a.53.53,0,0,0-.54.53.54.54,0,0,0,1.07,0A.53.53,0,0,0,681.55,217.27Z"/><path class="cls-17" d="M682.84,216.54a1.83,1.83,0,0,0-1.3-.54,1.78,1.78,0,0,0-1.29.54.36.36,0,0,0,0,.51.36.36,0,0,0,.5,0,1.12,1.12,0,0,1,1.59,0,.36.36,0,0,0,.5,0A.36.36,0,0,0,682.84,216.54Z"/><path class="cls-17" d="M684.52,214.88a4.23,4.23,0,0,0-5.95,0,.37.37,0,0,0,.26.62.36.36,0,0,0,.25-.11,3.51,3.51,0,0,1,4.93,0,.36.36,0,0,0,.25.11.36.36,0,0,0,.26-.11A.35.35,0,0,0,684.52,214.88Z"/><path class="cls-17" d="M683.66,215.73a3,3,0,0,0-4.23,0,.36.36,0,0,0,0,.5.36.36,0,0,0,.26.11.36.36,0,0,0,.25-.11,2.29,2.29,0,0,1,1.6-.66,2.26,2.26,0,0,1,1.61.67.39.39,0,0,0,.25.1.4.4,0,0,0,.26-.1.35.35,0,0,0,.1-.26A.35.35,0,0,0,683.66,215.73Z"/><rect class="cls-16" x="680.29" y="209.26" width="2.52" height="0.28"/><rect class="cls-18" x="578.45" y="103.85" width="9.5" height="15.37" rx="1.09"/><rect class="cls-16" x="579.24" y="104.94" width="7.92" height="12.55"/><circle class="cls-16" cx="583.2" cy="118.4" r="0.41"/><path class="cls-17" d="M583.2,112.28a.53.53,0,1,0,.53.53A.54.54,0,0,0,583.2,112.28Z"/><path class="cls-17" d="M584.5,111.56a1.82,1.82,0,0,0-1.3-.54,1.86,1.86,0,0,0-1.3.53.36.36,0,0,0,0,.51.35.35,0,0,0,.25.1.35.35,0,0,0,.26-.1,1.11,1.11,0,0,1,1.58,0,.36.36,0,0,0,.25.11.36.36,0,0,0,.26-.11A.35.35,0,0,0,584.5,111.56Z"/><path class="cls-17" d="M586.17,109.89a4.2,4.2,0,0,0-5.94,0,.35.35,0,0,0,0,.5.34.34,0,0,0,.5,0,3.5,3.5,0,0,1,2.47-1,3.45,3.45,0,0,1,2.46,1,.39.39,0,0,0,.25.1.4.4,0,0,0,.26-.1A.36.36,0,0,0,586.17,109.89Z"/><path class="cls-17" d="M585.31,110.74a3,3,0,0,0-4.23,0,.39.39,0,0,0-.1.25.34.34,0,0,0,.36.36.39.39,0,0,0,.25-.1,2.28,2.28,0,0,1,3.21,0,.35.35,0,0,0,.26.1.35.35,0,0,0,.25-.1.36.36,0,0,0,.11-.25A.36.36,0,0,0,585.31,110.74Z"/><rect class="cls-16" x="581.94" y="104.28" width="2.52" height="0.28"/><rect class="cls-18" x="471.41" y="138.78" width="9.5" height="15.37" rx="1.09"/><rect class="cls-16" x="472.2" y="139.87" width="7.92" height="12.55"/><circle class="cls-16" cx="476.16" cy="153.33" r="0.41"/><path class="cls-17" d="M476.16,147.21a.53.53,0,1,0,.53.53A.53.53,0,0,0,476.16,147.21Z"/><path class="cls-17" d="M477.46,146.48a1.86,1.86,0,0,0-2.6,0,.36.36,0,0,0,0,.51.35.35,0,0,0,.25.1.35.35,0,0,0,.26-.1,1.11,1.11,0,0,1,1.58,0,.36.36,0,0,0,.25.11.37.37,0,0,0,.26-.62Z"/><path class="cls-17" d="M479.13,144.82a4.2,4.2,0,0,0-5.94,0,.35.35,0,0,0,0,.5.36.36,0,0,0,.25.11.36.36,0,0,0,.26-.11,3.49,3.49,0,0,1,4.92,0,.4.4,0,0,0,.26.1.39.39,0,0,0,.25-.1A.36.36,0,0,0,479.13,144.82Z"/><path class="cls-17" d="M478.27,145.67a3,3,0,0,0-4.22,0,.36.36,0,0,0-.11.25.36.36,0,0,0,.11.26.36.36,0,0,0,.5,0,2.25,2.25,0,0,1,1.61-.66,2.23,2.23,0,0,1,1.6.66.35.35,0,0,0,.26.1.35.35,0,0,0,.25-.1.36.36,0,0,0,.11-.25A.36.36,0,0,0,478.27,145.67Z"/><rect class="cls-16" x="474.9" y="139.21" width="2.52" height="0.28"/><rect class="cls-18" x="446.43" y="222.96" width="9.5" height="15.37" rx="1.09"/><rect class="cls-16" x="447.22" y="224.05" width="7.92" height="12.55"/><circle class="cls-16" cx="451.18" cy="237.51" r="0.41"/><path class="cls-17" d="M451.18,231.39a.53.53,0,0,0-.53.53.53.53,0,1,0,1.06,0A.53.53,0,0,0,451.18,231.39Z"/><path class="cls-17" d="M452.48,230.66a1.87,1.87,0,0,0-1.3-.54,1.82,1.82,0,0,0-1.3.54.36.36,0,0,0,0,.51.4.4,0,0,0,.26.1.39.39,0,0,0,.25-.1,1.11,1.11,0,0,1,1.58,0,.35.35,0,0,0,.26.1.35.35,0,0,0,.25-.1A.36.36,0,0,0,452.48,230.66Z"/><path class="cls-17" d="M454.15,229a4.21,4.21,0,0,0-5.94,0,.36.36,0,0,0,0,.51.36.36,0,0,0,.25.11.36.36,0,0,0,.26-.11,3.5,3.5,0,0,1,4.92,0,.36.36,0,0,0,.26.11.36.36,0,0,0,.25-.11A.35.35,0,0,0,454.15,229Z"/><path class="cls-17" d="M453.29,229.85a3,3,0,0,0-4.22,0,.36.36,0,0,0-.11.25.33.33,0,0,0,.11.25.34.34,0,0,0,.25.11.36.36,0,0,0,.26-.11,2.27,2.27,0,0,1,3.21,0,.36.36,0,0,0,.5,0,.36.36,0,0,0,.11-.26A.36.36,0,0,0,453.29,229.85Z"/><rect class="cls-16" x="449.92" y="223.38" width="2.52" height="0.28"/><polyline class="cls-20" points="653.96 221.17 653.96 206.42 661.22 206.42 661.22 221.17"/><rect class="cls-2" x="655.33" y="209.57" width="1.12" height="1.12"/><rect class="cls-2" x="657.03" y="209.57" width="1.12" height="1.12"/><rect class="cls-2" x="658.73" y="209.57" width="1.12" height="1.12"/><rect class="cls-2" x="655.33" y="211.21" width="1.12" height="1.12"/><rect class="cls-2" x="657.03" y="211.21" width="1.12" height="1.12"/><rect class="cls-2" x="658.73" y="211.21" width="1.12" height="1.12"/><rect class="cls-2" x="655.33" y="212.86" width="1.12" height="1.12"/><rect class="cls-2" x="657.03" y="212.86" width="1.12" height="1.12"/><rect class="cls-2" x="658.73" y="212.86" width="1.12" height="1.12"/><rect class="cls-2" x="655.33" y="214.5" width="1.12" height="1.12"/><rect class="cls-2" x="657.03" y="214.5" width="1.12" height="1.12"/><rect class="cls-2" x="658.73" y="214.5" width="1.12" height="1.12"/><rect class="cls-2" x="655.33" y="216.15" width="1.12" height="1.12"/><rect class="cls-2" x="657.03" y="216.15" width="1.12" height="1.12"/><rect class="cls-2" x="658.73" y="216.15" width="1.12" height="1.12"/><polyline class="cls-20" points="662.81 221.17 662.81 210.69 667.97 212.34 667.97 221.17"/><line class="cls-20" x1="664.61" y1="211.08" x2="664.61" y2="221.22"/><line class="cls-20" x1="666.46" y1="211.83" x2="666.46" y2="221.22"/><line class="cls-20" x1="647.17" y1="221.17" x2="669.6" y2="221.17"/><line class="cls-20" x1="653.96" y1="208.03" x2="661.22" y2="208.03"/><polyline class="cls-20" points="653.96 213.79 650.57 213.79 650.57 221.17"/><polyline class="cls-20" points="588.05 187.27 588.05 172.52 595.31 172.52 595.31 187.27"/><rect class="cls-2" x="589.42" y="175.67" width="1.12" height="1.12"/><rect class="cls-2" x="591.12" y="175.67" width="1.12" height="1.12"/><rect class="cls-2" x="592.82" y="175.67" width="1.12" height="1.12"/><rect class="cls-2" x="589.42" y="177.31" width="1.12" height="1.12"/><rect class="cls-2" x="591.12" y="177.31" width="1.12" height="1.12"/><rect class="cls-2" x="592.82" y="177.31" width="1.12" height="1.12"/><rect class="cls-2" x="589.42" y="178.96" width="1.12" height="1.12"/><rect class="cls-2" x="591.12" y="178.96" width="1.12" height="1.12"/><rect class="cls-2" x="592.82" y="178.96" width="1.12" height="1.12"/><rect class="cls-2" x="589.42" y="180.6" width="1.12" height="1.12"/><rect class="cls-2" x="591.12" y="180.6" width="1.12" height="1.12"/><rect class="cls-2" x="592.82" y="180.6" width="1.12" height="1.12"/><rect class="cls-2" x="589.42" y="182.24" width="1.12" height="1.12"/><rect class="cls-2" x="591.12" y="182.24" width="1.12" height="1.12"/><rect class="cls-2" x="592.82" y="182.24" width="1.12" height="1.12"/><polyline class="cls-20" points="596.91 187.27 596.91 176.79 602.06 178.44 602.06 187.27"/><line class="cls-20" x1="598.7" y1="177.17" x2="598.7" y2="187.31"/><line class="cls-20" x1="600.55" y1="177.93" x2="600.55" y2="187.31"/><line class="cls-20" x1="577.33" y1="187.27" x2="603.69" y2="187.27"/><line class="cls-20" x1="588.05" y1="174.13" x2="595.31" y2="174.13"/><polyline class="cls-20" points="588.05 179.89 584.66 179.89 584.66 187.27"/><polyline class="cls-20" points="469.75 122.71 469.75 107.95 477.01 107.95 477.01 122.71"/><rect class="cls-2" x="471.12" y="111.1" width="1.12" height="1.12"/><rect class="cls-2" x="472.82" y="111.1" width="1.12" height="1.12"/><rect class="cls-2" x="474.52" y="111.1" width="1.12" height="1.12"/><rect class="cls-2" x="471.12" y="112.75" width="1.12" height="1.12"/><rect class="cls-2" x="472.82" y="112.75" width="1.12" height="1.12"/><rect class="cls-2" x="474.52" y="112.75" width="1.12" height="1.12"/><rect class="cls-2" x="471.12" y="114.39" width="1.12" height="1.12"/><rect class="cls-2" x="472.82" y="114.39" width="1.12" height="1.12"/><rect class="cls-2" x="474.52" y="114.39" width="1.12" height="1.12"/><rect class="cls-2" x="471.12" y="116.04" width="1.12" height="1.12"/><rect class="cls-2" x="472.82" y="116.04" width="1.12" height="1.12"/><rect class="cls-2" x="474.52" y="116.04" width="1.12" height="1.12"/><rect class="cls-2" x="471.12" y="117.68" width="1.12" height="1.12"/><rect class="cls-2" x="472.82" y="117.68" width="1.12" height="1.12"/><rect class="cls-2" x="474.52" y="117.68" width="1.12" height="1.12"/><polyline class="cls-20" points="478.61 122.71 478.61 112.22 483.76 113.87 483.76 122.71"/><line class="cls-20" x1="480.4" y1="112.61" x2="480.4" y2="122.75"/><line class="cls-20" x1="482.25" y1="113.37" x2="482.25" y2="122.75"/><line class="cls-20" x1="462.97" y1="122.71" x2="485.39" y2="122.71"/><line class="cls-20" x1="469.75" y1="109.57" x2="477.01" y2="109.57"/><polyline class="cls-20" points="469.75 115.33 466.36 115.33 466.36 122.71"/><polyline class="cls-20" points="662.67 264.83 662.67 250.07 669.93 250.07 669.93 264.83"/><rect class="cls-2" x="664.04" y="253.22" width="1.12" height="1.12"/><rect class="cls-2" x="665.74" y="253.22" width="1.12" height="1.12"/><rect class="cls-2" x="667.44" y="253.22" width="1.12" height="1.12"/><rect class="cls-2" x="664.04" y="254.87" width="1.12" height="1.12"/><rect class="cls-2" x="665.74" y="254.87" width="1.12" height="1.12"/><rect class="cls-2" x="667.44" y="254.87" width="1.12" height="1.12"/><rect class="cls-2" x="664.04" y="256.51" width="1.12" height="1.12"/><rect class="cls-2" x="665.74" y="256.51" width="1.12" height="1.12"/><rect class="cls-2" x="667.44" y="256.51" width="1.12" height="1.12"/><rect class="cls-2" x="664.04" y="258.16" width="1.12" height="1.12"/><rect class="cls-2" x="665.74" y="258.16" width="1.12" height="1.12"/><rect class="cls-2" x="667.44" y="258.16" width="1.12" height="1.12"/><rect class="cls-2" x="664.04" y="259.8" width="1.12" height="1.12"/><rect class="cls-2" x="665.74" y="259.8" width="1.12" height="1.12"/><rect class="cls-2" x="667.44" y="259.8" width="1.12" height="1.12"/><polyline class="cls-20" points="670.16 264.83 670.16 254.34 675.32 255.99 675.32 264.83"/><line class="cls-20" x1="655.89" y1="264.83" x2="678.31" y2="264.83"/><line class="cls-20" x1="662.67" y1="251.69" x2="669.93" y2="251.69"/><polyline class="cls-20" points="662.67 257.45 659.28 257.45 659.28 264.83"/><rect class="cls-2" x="672.18" y="257.33" width="1.12" height="1.12"/><rect class="cls-2" x="672.18" y="258.98" width="1.12" height="1.12"/><rect class="cls-2" x="660.42" y="259.28" width="1.12" height="1.12"/><rect class="cls-2" x="660.42" y="260.92" width="1.12" height="1.12"/><polyline class="cls-20" points="505.97 289.37 505.97 274.62 498.71 274.62 498.71 289.37"/><rect class="cls-2" x="503.48" y="277.77" width="1.12" height="1.12" transform="translate(1008.09 556.66) rotate(-180)"/><rect class="cls-2" x="501.78" y="277.77" width="1.12" height="1.12" transform="translate(1004.69 556.66) rotate(-180)"/><rect class="cls-2" x="500.08" y="277.77" width="1.12" height="1.12" transform="translate(1001.29 556.66) rotate(-180)"/><rect class="cls-2" x="503.48" y="279.41" width="1.12" height="1.12" transform="translate(1008.09 559.95) rotate(-180)"/><rect class="cls-2" x="501.78" y="279.41" width="1.12" height="1.12" transform="translate(1004.69 559.95) rotate(-180)"/><rect class="cls-2" x="500.08" y="279.41" width="1.12" height="1.12" transform="translate(1001.29 559.95) rotate(-180)"/><rect class="cls-2" x="503.48" y="281.06" width="1.12" height="1.12" transform="translate(1008.09 563.23) rotate(-180)"/><rect class="cls-2" x="501.78" y="281.06" width="1.12" height="1.12" transform="translate(1004.69 563.23) rotate(-180)"/><rect class="cls-2" x="500.08" y="281.06" width="1.12" height="1.12" transform="translate(1001.29 563.23) rotate(-180)"/><rect class="cls-2" x="503.48" y="282.7" width="1.12" height="1.12" transform="translate(1008.09 566.52) rotate(-180)"/><rect class="cls-2" x="501.78" y="282.7" width="1.12" height="1.12" transform="translate(1004.69 566.52) rotate(-180)"/><rect class="cls-2" x="500.08" y="282.7" width="1.12" height="1.12" transform="translate(1001.29 566.52) rotate(-180)"/><rect class="cls-2" x="503.48" y="284.35" width="1.12" height="1.12" transform="translate(1008.09 569.81) rotate(-180)"/><rect class="cls-2" x="501.78" y="284.35" width="1.12" height="1.12" transform="translate(1004.69 569.81) rotate(-180)"/><rect class="cls-2" x="500.08" y="284.35" width="1.12" height="1.12" transform="translate(1001.29 569.81) rotate(-180)"/><polyline class="cls-20" points="498.48 289.37 498.48 278.89 493.32 280.54 493.32 289.37"/><line class="cls-20" x1="512.76" y1="289.37" x2="490.33" y2="289.37"/><line class="cls-20" x1="505.97" y1="276.23" x2="498.71" y2="276.23"/><polyline class="cls-20" points="505.97 282 509.36 282 509.36 289.37"/><rect class="cls-2" x="495.34" y="281.88" width="1.12" height="1.12" transform="translate(991.8 564.88) rotate(-180)"/><rect class="cls-2" x="495.34" y="283.52" width="1.12" height="1.12" transform="translate(991.8 568.17) rotate(-180)"/><rect class="cls-2" x="507.11" y="283.82" width="1.12" height="1.12" transform="translate(1015.33 568.76) rotate(-180)"/><rect class="cls-2" x="507.11" y="285.47" width="1.12" height="1.12" transform="translate(1015.33 572.05) rotate(-180)"/><polyline class="cls-20" points="474.18 241.45 474.18 226.69 466.92 226.69 466.92 241.45"/><rect class="cls-2" x="471.69" y="229.85" width="1.12" height="1.12" transform="translate(944.5 460.81) rotate(-180)"/><rect class="cls-2" x="469.99" y="229.85" width="1.12" height="1.12" transform="translate(941.1 460.81) rotate(-180)"/><rect class="cls-2" x="468.29" y="229.85" width="1.12" height="1.12" transform="translate(937.7 460.81) rotate(-180)"/><rect class="cls-2" x="471.69" y="231.49" width="1.12" height="1.12" transform="translate(944.5 464.1) rotate(-180)"/><rect class="cls-2" x="469.99" y="231.49" width="1.12" height="1.12" transform="translate(941.1 464.1) rotate(-180)"/><rect class="cls-2" x="468.29" y="231.49" width="1.12" height="1.12" transform="translate(937.7 464.1) rotate(-180)"/><rect class="cls-2" x="471.69" y="233.13" width="1.12" height="1.12" transform="translate(944.5 467.39) rotate(-180)"/><rect class="cls-2" x="469.99" y="233.13" width="1.12" height="1.12" transform="translate(941.1 467.39) rotate(-180)"/><rect class="cls-2" x="468.29" y="233.13" width="1.12" height="1.12" transform="translate(937.7 467.39) rotate(-180)"/><rect class="cls-2" x="471.69" y="234.78" width="1.12" height="1.12" transform="translate(944.5 470.68) rotate(-180)"/><rect class="cls-2" x="469.99" y="234.78" width="1.12" height="1.12" transform="translate(941.1 470.68) rotate(-180)"/><rect class="cls-2" x="468.29" y="234.78" width="1.12" height="1.12" transform="translate(937.7 470.68) rotate(-180)"/><rect class="cls-2" x="471.69" y="236.42" width="1.12" height="1.12" transform="translate(944.5 473.97) rotate(-180)"/><rect class="cls-2" x="469.99" y="236.42" width="1.12" height="1.12" transform="translate(941.1 473.97) rotate(-180)"/><rect class="cls-2" x="468.29" y="236.42" width="1.12" height="1.12" transform="translate(937.7 473.97) rotate(-180)"/><polyline class="cls-20" points="466.69 241.45 466.69 230.97 461.53 232.61 461.53 241.45"/><line class="cls-20" x1="480.96" y1="241.45" x2="458.54" y2="241.45"/><line class="cls-20" x1="474.18" y1="228.31" x2="466.92" y2="228.31"/><polyline class="cls-20" points="474.18 234.07 477.57 234.07 477.57 241.45"/><rect class="cls-2" x="463.55" y="233.96" width="1.12" height="1.12" transform="translate(928.22 469.03) rotate(-180)"/><rect class="cls-2" x="463.55" y="235.6" width="1.12" height="1.12" transform="translate(928.22 472.32) rotate(-180)"/><rect class="cls-2" x="475.31" y="235.9" width="1.12" height="1.12" transform="translate(951.75 472.92) rotate(-180)"/><rect class="cls-2" x="475.31" y="237.54" width="1.12" height="1.12" transform="translate(951.75 476.2) rotate(-180)"/><polyline class="cls-20" points="510.16 250.07 510.16 239.59 504.46 241.24 504.46 250.07"/><line class="cls-20" x1="516.19" y1="250.07" x2="502.01" y2="250.07"/><polyline class="cls-20" points="510.16 242.7 513.54 242.7 513.54 250.07"/><rect class="cls-2" x="511.29" y="244.52" width="1.12" height="1.12" transform="translate(1023.7 490.17) rotate(-180)"/><rect class="cls-2" x="511.29" y="246.17" width="1.12" height="1.12" transform="translate(1023.7 493.46) rotate(-180)"/><line class="cls-20" x1="506.38" y1="240.68" x2="506.38" y2="250.07"/><line class="cls-20" x1="508.31" y1="240.43" x2="508.31" y2="250.07"/><polyline class="cls-20" points="658.64 190.87 658.64 180.38 652.95 182.03 652.95 190.87"/><line class="cls-20" x1="664.68" y1="190.87" x2="650.49" y2="190.87"/><polyline class="cls-20" points="658.64 183.49 662.03 183.49 662.03 190.87"/><rect class="cls-2" x="659.78" y="185.32" width="1.12" height="1.12" transform="translate(1320.68 371.75) rotate(-180)"/><rect class="cls-2" x="659.78" y="186.96" width="1.12" height="1.12" transform="translate(1320.68 375.04) rotate(-180)"/><line class="cls-20" x1="654.87" y1="181.47" x2="654.87" y2="190.87"/><line class="cls-20" x1="656.8" y1="181.22" x2="656.8" y2="190.87"/><polyline class="cls-20" points="600 115.22 600 104.74 594.3 106.39 594.3 115.22"/><line class="cls-20" x1="606.03" y1="115.22" x2="591.85" y2="115.22"/><polyline class="cls-20" points="600 107.85 603.38 107.85 603.38 115.22"/><rect class="cls-2" x="601.13" y="109.67" width="1.12" height="1.12" transform="translate(1203.38 220.47) rotate(-180)"/><rect class="cls-2" x="601.13" y="111.32" width="1.12" height="1.12" transform="translate(1203.38 223.76) rotate(-180)"/><line class="cls-20" x1="596.22" y1="105.83" x2="596.22" y2="115.22"/><line class="cls-20" x1="598.15" y1="105.58" x2="598.15" y2="115.22"/><polyline class="cls-20" points="495.77 139.89 495.77 129.4 490.07 131.05 490.07 139.89"/><line class="cls-20" x1="506.77" y1="139.89" x2="487.62" y2="139.89"/><polyline class="cls-20" points="495.77 132.51 499.16 132.51 499.16 139.89"/><rect class="cls-2" x="496.9" y="134.34" width="1.12" height="1.12" transform="translate(994.93 269.79) rotate(-180)"/><rect class="cls-2" x="496.9" y="135.98" width="1.12" height="1.12" transform="translate(994.93 273.08) rotate(-180)"/><line class="cls-20" x1="491.99" y1="130.49" x2="491.99" y2="139.89"/><line class="cls-20" x1="493.93" y1="130.24" x2="493.93" y2="139.89"/><polyline class="cls-20" points="439.69 161.68 439.69 151.19 434 152.84 434 161.68"/><line class="cls-20" x1="445.73" y1="161.68" x2="431.54" y2="161.68"/><polyline class="cls-20" points="439.69 154.3 443.08 154.3 443.08 161.68"/><rect class="cls-2" x="440.83" y="156.13" width="1.12" height="1.12" transform="translate(882.77 313.37) rotate(-180)"/><rect class="cls-2" x="440.83" y="157.77" width="1.12" height="1.12" transform="translate(882.77 316.66) rotate(-180)"/><line class="cls-20" x1="435.92" y1="152.28" x2="435.92" y2="161.68"/><line class="cls-20" x1="437.85" y1="152.03" x2="437.85" y2="161.68"/><circle class="cls-2" cx="580.88" cy="182.24" r="2.31"/><line class="cls-20" x1="580.88" y1="181.16" x2="580.88" y2="187.31"/><circle class="cls-2" cx="504.46" cy="134.82" r="2.31"/><line class="cls-20" x1="504.46" y1="133.73" x2="504.46" y2="139.89"/><circle class="cls-2" cx="611.37" cy="110.5" r="2.31"/><line class="cls-20" x1="611.37" y1="109.42" x2="611.37" y2="115.57"/><circle class="cls-2" cx="482.25" cy="235.6" r="2.31"/><line class="cls-20" x1="482.25" y1="234.52" x2="482.25" y2="240.67"/><circle class="cls-2" cx="646.12" cy="186.55" r="2.31"/><line class="cls-20" x1="646.12" y1="185.46" x2="646.12" y2="191.62"/><path class="cls-17" d="M647.22,262.92c0,5.85,1.76,6.91,1.76,6.91a3.82,3.82,0,1,0,5.24-5.57S653.06,262.59,647.22,262.92Z"/><path class="cls-17" d="M667.23,262.92c0,5.85-1.76,6.91-1.76,6.91a3.82,3.82,0,0,1-5.24-5.57S661.39,262.59,667.23,262.92Z"/><rect class="cls-18" x="648.84" y="268.48" width="9.56" height="0.94" transform="translate(362.17 -374.95) rotate(43.28)"/><rect class="cls-18" x="656.05" y="268.48" width="9.56" height="0.94" transform="translate(1326.31 11.7) rotate(136.72)"/><rect class="cls-18" x="656.83" y="271.68" width="0.79" height="7.62"/><path class="cls-17" d="M617.75,189c0,5.85,1.76,6.91,1.76,6.91a3.82,3.82,0,0,0,5.24-5.57S623.59,188.67,617.75,189Z"/><path class="cls-17" d="M637.76,189c0,5.85-1.76,6.91-1.76,6.91a3.82,3.82,0,1,1-5.24-5.57S631.92,188.67,637.76,189Z"/><rect class="cls-18" x="619.37" y="194.56" width="9.56" height="0.94" transform="translate(303.47 -374.85) rotate(43.28)"/><rect class="cls-18" x="626.58" y="194.56" width="9.56" height="0.94" transform="translate(1224.7 -95.84) rotate(136.72)"/><rect class="cls-18" x="627.36" y="197.76" width="0.79" height="7.62"/><circle class="cls-17" cx="646.12" cy="230.41" r="7.83"/><circle class="cls-21" cx="646.12" cy="230.41" r="6.62"/><path class="cls-18" d="M645.77,232.81v-2.13a2.78,2.78,0,0,1-1.47-.87,2.15,2.15,0,0,1-.46-1.4,2,2,0,0,1,.52-1.4,2.16,2.16,0,0,1,1.41-.66v-.5h.74v.5a2.25,2.25,0,0,1,1.29.55,2.15,2.15,0,0,1,.61,1.22l-1.29.17a1,1,0,0,0-.61-.81v2a3.27,3.27,0,0,1,1.66.86,2,2,0,0,1,.45,1.35,2.28,2.28,0,0,1-.56,1.56,2.43,2.43,0,0,1-1.55.77v1h-.74V234a2.31,2.31,0,0,1-1.43-.66,2.7,2.7,0,0,1-.71-1.56l1.33-.14a1.83,1.83,0,0,0,.31.71A1.31,1.31,0,0,0,645.77,232.81Zm0-5.35a1,1,0,0,0-.48.35.88.88,0,0,0-.18.54.83.83,0,0,0,.16.5,1.17,1.17,0,0,0,.5.38Zm.74,5.42a1,1,0,0,0,.86-1,.92.92,0,0,0-.2-.59,1.31,1.31,0,0,0-.66-.38Z"/><circle class="cls-17" cx="681.9" cy="191.32" r="7.83"/><circle class="cls-21" cx="681.9" cy="191.32" r="6.62"/><path class="cls-18" d="M681.55,193.73v-2.14a2.84,2.84,0,0,1-1.47-.86,2.17,2.17,0,0,1-.47-1.4,2,2,0,0,1,.53-1.41,2.08,2.08,0,0,1,1.41-.65v-.51h.73v.51a2,2,0,0,1,1.91,1.77l-1.29.17a1.07,1.07,0,0,0-.62-.82v2a3.27,3.27,0,0,1,1.67.85,2,2,0,0,1,.44,1.36,2.26,2.26,0,0,1-.55,1.55,2.51,2.51,0,0,1-1.56.78v.95h-.73V195a2.36,2.36,0,0,1-1.44-.66,2.7,2.7,0,0,1-.7-1.55l1.33-.14a1.65,1.65,0,0,0,.31.7A1.34,1.34,0,0,0,681.55,193.73Zm0-5.35a.9.9,0,0,0-.48.34.92.92,0,0,0-.18.54.88.88,0,0,0,.16.51,1.1,1.1,0,0,0,.5.37Zm.73,5.42a1.1,1.1,0,0,0,.63-.35,1,1,0,0,0,.24-.67.89.89,0,0,0-.21-.59,1.3,1.3,0,0,0-.66-.38Z"/><circle class="cls-17" cx="576.16" cy="154.3" r="7.83"/><circle class="cls-21" cx="576.16" cy="154.3" r="6.62"/><path class="cls-18" d="M575.81,156.71v-2.14a2.84,2.84,0,0,1-1.47-.86,2.2,2.2,0,0,1-.47-1.41,2,2,0,0,1,.53-1.4,2.08,2.08,0,0,1,1.41-.65v-.51h.73v.51a2.1,2.1,0,0,1,1.29.55,2.13,2.13,0,0,1,.62,1.22l-1.29.17a1.05,1.05,0,0,0-.62-.82v2a3.34,3.34,0,0,1,1.67.86,2,2,0,0,1,.44,1.36,2.26,2.26,0,0,1-.55,1.55,2.51,2.51,0,0,1-1.56.78v1h-.73v-.93a2.36,2.36,0,0,1-1.44-.66,2.7,2.7,0,0,1-.7-1.55l1.33-.14a1.65,1.65,0,0,0,.31.7A1.34,1.34,0,0,0,575.81,156.71Zm0-5.35a.93.93,0,0,0-.66.88.88.88,0,0,0,.16.51,1.17,1.17,0,0,0,.5.37Zm.73,5.42a1.1,1.1,0,0,0,.63-.35,1,1,0,0,0,.24-.67.89.89,0,0,0-.21-.59,1.3,1.3,0,0,0-.66-.38Z"/><rect class="cls-17" x="268.9" y="66.66" width="7.48" height="17.12"/><rect class="cls-17" x="258.46" y="71.6" width="7.48" height="12.17"/><rect class="cls-17" x="279.34" y="59.43" width="7.48" height="24.34"/><rect class="cls-17" x="289.78" y="52.67" width="7.48" height="31.11"/><polyline class="cls-19" points="256.09 61.03 266.28 52.49 272.74 60.2 285.28 49.41"/><polygon class="cls-18" points="288.68 45.94 278.67 48.63 286 55.96 288.68 45.94"/><rect class="cls-17" x="485.56" y="225.08" width="2.32" height="5.3"/><rect class="cls-17" x="482.33" y="226.61" width="2.32" height="3.77"/><rect class="cls-17" x="488.8" y="222.84" width="2.32" height="7.54"/><rect class="cls-17" x="492.03" y="220.75" width="2.32" height="9.64"/><polygon class="cls-18" points="486.69 223.82 484.69 221.43 481.93 223.74 481.26 222.94 484.82 219.96 486.81 222.34 490.3 219.34 490.98 220.13 486.69 223.82"/><polygon class="cls-18" points="491.69 218.66 488.59 219.5 490.86 221.77 491.69 218.66"/><rect class="cls-17" x="504.14" y="109.22" width="2.32" height="5.3"/><rect class="cls-17" x="500.9" y="110.75" width="2.32" height="3.77"/><rect class="cls-17" x="507.37" y="106.98" width="2.32" height="7.54"/><rect class="cls-17" x="510.61" y="104.89" width="2.32" height="9.64"/><polygon class="cls-18" points="505.27 107.96 503.26 105.57 500.51 107.88 499.83 107.08 503.39 104.09 505.39 106.48 508.87 103.48 509.55 104.27 505.27 107.96"/><polygon class="cls-18" points="510.27 102.8 507.16 103.63 509.44 105.91 510.27 102.8"/><circle class="cls-18" cx="199.01" cy="187.56" r="4.99"/><circle class="cls-18" cx="213.69" cy="183.97" r="4.99"/><path class="cls-18" d="M199,194a9.91,9.91,0,0,0-9.91,9.9h19.81A9.9,9.9,0,0,0,199,194Z"/><path class="cls-18" d="M209.3,200.57h13.28a9.89,9.89,0,0,0-17.78-6A9.89,9.89,0,0,1,209.3,200.57Z"/><circle class="cls-18" cx="184.32" cy="183.97" r="4.99"/><path class="cls-18" d="M188.71,200.57H175.43a9.9,9.9,0,0,1,17.79-6A9.91,9.91,0,0,0,188.71,200.57Z"/><line class="cls-22" x1="182.86" y1="164.68" x2="215.37" y2="164.68"/><line class="cls-22" x1="182.86" y1="171.83" x2="215.37" y2="171.83"/><circle class="cls-18" cx="448.33" cy="198.64" r="1.47"/><circle class="cls-18" cx="452.65" cy="197.58" r="1.47"/><path class="cls-18" d="M448.33,200.54a2.92,2.92,0,0,0-2.92,2.92h5.83A2.91,2.91,0,0,0,448.33,200.54Z"/><path class="cls-18" d="M451.36,202.47h3.91a2.91,2.91,0,0,0-5.24-1.76A2.92,2.92,0,0,1,451.36,202.47Z"/><circle class="cls-18" cx="444" cy="197.58" r="1.47"/><path class="cls-18" d="M445.3,202.47h-3.91a2.91,2.91,0,0,1,5.23-1.76A2.87,2.87,0,0,0,445.3,202.47Z"/><rect class="cls-17" x="443.57" y="191.41" width="9.57" height="0.99"/><rect class="cls-17" x="443.57" y="193.51" width="9.57" height="0.99"/><circle class="cls-18" cx="434" cy="172.76" r="1.47"/><circle class="cls-18" cx="438.32" cy="171.71" r="1.47"/><path class="cls-18" d="M434,174.67a2.91,2.91,0,0,0-2.92,2.91h5.83A2.91,2.91,0,0,0,434,174.67Z"/><path class="cls-18" d="M437,176.59h3.91a2.92,2.92,0,0,0-5.24-1.76A3,3,0,0,1,437,176.59Z"/><circle class="cls-18" cx="429.67" cy="171.71" r="1.47"/><path class="cls-18" d="M431,176.59h-3.91a2.92,2.92,0,0,1,5.24-1.76A3,3,0,0,0,431,176.59Z"/><rect class="cls-17" x="429.24" y="165.53" width="9.57" height="0.99"/><rect class="cls-17" x="429.24" y="167.64" width="9.57" height="0.99"/><circle class="cls-16" cx="908.95" cy="119.51" r="39.37"/><path class="cls-18" d="M921.13,133.37a9.59,9.59,0,0,1-1-7.62c.78-2.41,3.48-2.71,4.89-2.69V99.44H892v40.14h28.06C923.42,136.69,921.93,135,921.13,133.37Z"/><rect class="cls-17" x="897.54" y="107.47" width="21.95" height="2.35" rx="1.18"/><rect class="cls-17" x="897.54" y="113.98" width="21.95" height="2.35" rx="1.18"/><rect class="cls-17" x="897.54" y="120.48" width="21.95" height="2.35" rx="1.18"/><rect class="cls-17" x="897.54" y="126.98" width="21.95" height="2.35" rx="1.18"/><rect class="cls-18" x="920.38" y="141.4" width="9.26" height="1.64" rx="0.82"/><path class="cls-17" d="M925,137.68a3.71,3.71,0,0,0-3.72,3.72h7.43A3.71,3.71,0,0,0,925,137.68Z"/><path class="cls-17" d="M925,136.93a3.59,3.59,0,0,1,1.14.2c.31-2.44,2.52-5.2,2.73-8.55.25-3.9-3.87-3.78-3.87-3.78s-4.12-.12-3.87,3.78c.21,3.35,2.42,6.11,2.72,8.55A3.7,3.7,0,0,1,925,136.93Z"/><path class="cls-16" d="M920,139.87s1.06-3.27,2.6-3.38S920,139.87,920,139.87Z"/><path class="cls-18" d="M636.6,173.77a3.29,3.29,0,0,1-.35-2.6c.27-.82,1.19-.92,1.67-.92v-8.06H626.66v13.7h9.58C637.38,174.91,636.87,174.31,636.6,173.77Z"/><rect class="cls-17" x="628.54" y="164.93" width="7.49" height="0.8" rx="0.4"/><rect class="cls-17" x="628.54" y="167.15" width="7.49" height="0.8" rx="0.4"/><rect class="cls-17" x="628.54" y="169.37" width="7.49" height="0.8" rx="0.4"/><rect class="cls-17" x="628.54" y="171.59" width="7.49" height="0.8" rx="0.4"/><rect class="cls-18" x="636.34" y="176.51" width="3.16" height="0.56" rx="0.28"/><path class="cls-17" d="M637.92,175.24a1.27,1.27,0,0,0-1.27,1.27h2.54A1.27,1.27,0,0,0,637.92,175.24Z"/><path class="cls-17" d="M637.92,175a1.23,1.23,0,0,1,.39.07c.11-.84.86-1.78.93-2.92.09-1.33-1.32-1.29-1.32-1.29s-1.4,0-1.32,1.29c.07,1.14.83,2.08.93,2.92A1.34,1.34,0,0,1,637.92,175Z"/><path class="cls-16" d="M636.22,176s.37-1.11.89-1.15S636.22,176,636.22,176Z"/><path class="cls-18" d="M456,152.41a3.29,3.29,0,0,1-.34-2.6c.27-.82,1.19-.92,1.67-.92v-8.06H446v13.71h9.58C456.74,153.55,456.23,153,456,152.41Z"/><rect class="cls-17" x="447.9" y="143.57" width="7.49" height="0.8" rx="0.4"/><rect class="cls-17" x="447.9" y="145.79" width="7.49" height="0.8" rx="0.4"/><rect class="cls-17" x="447.9" y="148.01" width="7.49" height="0.8" rx="0.4"/><rect class="cls-17" x="447.9" y="150.23" width="7.49" height="0.8" rx="0.4"/><rect class="cls-18" x="455.7" y="155.15" width="3.16" height="0.56" rx="0.28"/><path class="cls-17" d="M457.28,153.89a1.26,1.26,0,0,0-1.27,1.26h2.54A1.26,1.26,0,0,0,457.28,153.89Z"/><path class="cls-17" d="M457.28,153.63a1.23,1.23,0,0,1,.39.07c.11-.84.86-1.78.93-2.92.09-1.33-1.32-1.29-1.32-1.29s-1.41,0-1.32,1.29c.07,1.14.82,2.08.93,2.92A1.23,1.23,0,0,1,457.28,153.63Z"/><path class="cls-16" d="M455.58,154.63s.36-1.11.89-1.15S455.58,154.63,455.58,154.63Z"/><path class="cls-18" d="M532.11,247.83a3.25,3.25,0,0,1-.35-2.6c.27-.82,1.19-.92,1.67-.92v-8.06H522.17V250h9.58C532.89,249,532.38,248.37,532.11,247.83Z"/><rect class="cls-17" x="524.05" y="238.99" width="7.49" height="0.8" rx="0.4"/><rect class="cls-17" x="524.05" y="241.21" width="7.49" height="0.8" rx="0.4"/><rect class="cls-17" x="524.05" y="243.43" width="7.49" height="0.8" rx="0.4"/><rect class="cls-17" x="524.05" y="245.65" width="7.49" height="0.8" rx="0.4"/><rect class="cls-18" x="531.85" y="250.57" width="3.16" height="0.56" rx="0.28"/><path class="cls-17" d="M533.43,249.3a1.27,1.27,0,0,0-1.27,1.27h2.54A1.27,1.27,0,0,0,533.43,249.3Z"/><path class="cls-17" d="M533.43,249.05a1.23,1.23,0,0,1,.39.07c.11-.84.86-1.78.93-2.92.09-1.33-1.32-1.29-1.32-1.29s-1.41,0-1.32,1.29c.07,1.14.82,2.08.93,2.92A1.23,1.23,0,0,1,533.43,249.05Z"/><path class="cls-16" d="M531.73,250.05s.36-1.12.89-1.15S531.73,250.05,531.73,250.05Z"/></g></svg>