<svg xmlns="http://www.w3.org/2000/svg" viewBox="0 0 116 116"><defs><style>.cls-1{fill:#00796d;}</style></defs><g id="Layer_1" data-name="Layer 1"><g id="Group_5368" data-name="Group 5368"><g id="Group_5167-2" data-name="Group 5167-2"><g id="Group_5165-2" data-name="Group 5165-2"><path id="Path_7166-2" data-name="Path 7166-2" class="cls-1" d="M52.45,104.77a47.13,47.13,0,0,1,0-93.54V0a58.29,58.29,0,0,0,0,116Z"/></g><g id="Group_5166-2" data-name="Group 5166-2"><path id="Path_7167-2" data-name="Path 7167-2" class="cls-1" d="M63.55,0V11.23a47.13,47.13,0,0,1,0,93.54V116a58.29,58.29,0,0,0,0-116Z"/></g></g></g><path id="Path_7278" data-name="Path 7278" class="cls-1" d="M58.27,23.6A33.68,33.68,0,1,0,91.83,57.27,33.65,33.65,0,0,0,58.27,23.6ZM58.1,84.91a45.51,45.51,0,0,1-10-12.86h19.9a45.29,45.29,0,0,1-9.94,12.86ZM46.21,67.29a31.56,31.56,0,0,1-1.17-14,36.13,36.13,0,0,1,1.37-6.06H69.79a36.93,36.93,0,0,1,1.38,6.06,31.71,31.71,0,0,1-1.18,14Zm12.1-38.93v.27l-.21,0-.22,0v-.26h.42Zm-.21.46C60,30.15,64.66,35.29,68,42.45H48.27c3.28-7.16,7.94-12.3,9.84-13.63ZM74.77,47.21h10.5a29,29,0,0,1,0,20.08H75a37.21,37.21,0,0,0-.22-20.08ZM83,42.45H73.14a51.51,51.51,0,0,0-8-13.24A28.9,28.9,0,0,1,83,42.45ZM50.91,29.32a55.47,55.47,0,0,0-7.85,13.13H33.55A28.94,28.94,0,0,1,50.92,29.32ZM31.27,47.22H41.44a37.08,37.08,0,0,0-.23,20.07h-10a29.05,29.05,0,0,1,0-20.08Zm2.25,24.83h9.36a45.87,45.87,0,0,0,9,13.42A28.87,28.87,0,0,1,33.53,72.05ZM64.2,85.57a46.06,46.06,0,0,0,9.13-13.52H83a28.87,28.87,0,0,1-18.8,13.52Z"/></g></svg>