<svg xmlns="http://www.w3.org/2000/svg" width="172.351" height="172.352" viewBox="0 0 172.351 172.352">
  <g id="Group_9895" data-name="Group 9895" transform="translate(1883 8789)">
    <g id="Group_6691" data-name="Group 6691" transform="translate(-1950.431 -8946.561)">
      <g id="Group_6685" data-name="Group 6685">
        <path id="Path_8174" data-name="Path 8174" d="M144.989,321.2a77.988,77.988,0,0,1,0-154.922v-8.714a86.654,86.654,0,0,0,0,172.351Z" fill="#00796d"/>
        <path id="Path_8175" data-name="Path 8175" d="M162.224,157.561v8.714a77.987,77.987,0,0,1,0,154.922v8.715a86.654,86.654,0,0,0,0-172.351" fill="#00796d"/>
      </g>
      <g id="Group_6690" data-name="Group 6690">
        <rect id="Rectangle_1472" data-name="Rectangle 1472" width="104.402" height="73.344" rx="3.978" transform="translate(101.405 208.39)" fill="#00796d"/>
        <g id="Group_6686" data-name="Group 6686">
          <path id="Path_8176" data-name="Path 8176" d="M171.384,228.7H135.829a6.585,6.585,0,0,1-6.578-6.577V202.036a6.586,6.586,0,0,1,6.578-6.578h35.555a6.585,6.585,0,0,1,6.577,6.578v20.083A6.584,6.584,0,0,1,171.384,228.7Zm-35.555-27.624a.964.964,0,0,0-.963.964v20.083a.964.964,0,0,0,.963.963h35.555a.964.964,0,0,0,.963-.963V202.036a.964.964,0,0,0-.963-.964Z" fill="#00796d"/>
        </g>
        <g id="Group_6689" data-name="Group 6689">
          <g id="Group_6687" data-name="Group 6687">
            <rect id="Rectangle_1473" data-name="Rectangle 1473" width="9.398" height="28.265" transform="translate(167.739 242.218) rotate(90)" fill="#fff"/>
          </g>
          <g id="Group_6688" data-name="Group 6688">
            <rect id="Rectangle_1474" data-name="Rectangle 1474" width="9.398" height="28.265" transform="translate(158.305 261.049) rotate(180)" fill="#fff"/>
          </g>
        </g>
        <path id="Path_8177" data-name="Path 8177" d="M116.938,281.735h-5.131V208.39h5.131" fill="#fff"/>
        <path id="Path_8178" data-name="Path 8178" d="M191.087,208.39h5.131v73.344h-5.131" fill="#fff"/>
      </g>
    </g>
  </g>
</svg>
