<svg id="bg" xmlns="http://www.w3.org/2000/svg" viewBox="0 0 320 80"><defs><style>.cls-1{fill:#f3f3f3;}.cls-2{fill:#00796d;}.cls-3{isolation:isolate;}.cls-4{fill:#333;}.cls-5{fill:#fff;}</style></defs><rect id="Rectangle_2673" data-name="Rectangle 2673" class="cls-1" y="40" width="320" height="40"/><rect id="Rectangle_2672" data-name="Rectangle 2672" class="cls-2" width="320" height="40"/><g id="Group_12130" data-name="Group 12130"><g id="_1.1_2" data-name=" 1.1 2" class="cls-3"><g class="cls-3"><path class="cls-4" d="M26.71,66H25.12V55.92A8.34,8.34,0,0,1,23.63,57a12.05,12.05,0,0,1-1.67.82V56.3a9.77,9.77,0,0,0,2.32-1.51,6.17,6.17,0,0,0,1.41-1.73h1Z"/><path class="cls-4" d="M31.65,66V64.2h1.8V66Z"/><path class="cls-4" d="M41.72,66H40.14V55.92A8.45,8.45,0,0,1,38.64,57a12.05,12.05,0,0,1-1.67.82V56.3a9.58,9.58,0,0,0,2.32-1.51,6.17,6.17,0,0,0,1.41-1.73h1Z"/><path class="cls-4" d="M46.07,56.21a4,4,0,0,1,.69-2.35,2.35,2.35,0,0,1,2-1,2.59,2.59,0,0,1,2,.86,3.66,3.66,0,0,1,.8,2.55,3.57,3.57,0,0,1-.81,2.51,2.56,2.56,0,0,1-2,.89,2.48,2.48,0,0,1-1.94-.87A3.84,3.84,0,0,1,46.07,56.21ZM48.82,54a1.19,1.19,0,0,0-1,.51,3.23,3.23,0,0,0-.39,1.87,2.92,2.92,0,0,0,.39,1.74,1.21,1.21,0,0,0,2,0,3.23,3.23,0,0,0,.39-1.87,2.87,2.87,0,0,0-.4-1.75A1.18,1.18,0,0,0,48.82,54Zm0,12.48L55.88,52.9h1.28l-7,13.57ZM54.4,63a3.91,3.91,0,0,1,.69-2.35,2.34,2.34,0,0,1,2-1,2.6,2.6,0,0,1,2,.87,4.4,4.4,0,0,1,0,5.06,2.59,2.59,0,0,1-2,.88,2.5,2.5,0,0,1-1.94-.87A3.83,3.83,0,0,1,54.4,63Zm2.76-2.23a1.2,1.2,0,0,0-1,.51,3.25,3.25,0,0,0-.39,1.87,2.87,2.87,0,0,0,.4,1.75,1.16,1.16,0,0,0,1,.5,1.19,1.19,0,0,0,1-.5A3.25,3.25,0,0,0,58.54,63a2.87,2.87,0,0,0-.4-1.75A1.19,1.19,0,0,0,57.16,60.75Z"/></g></g><g id="AAA-2" class="cls-3"><g class="cls-3"><path class="cls-5" d="M33.93,26H31.1L30,23.07H24.82L23.76,26H21l5-12.88h2.75Zm-4.79-5.1-1.78-4.78L25.62,20.9Z"/><path class="cls-5" d="M47,26H44.17L43,23.07H37.89L36.83,26H34.07l5-12.88h2.75Zm-4.79-5.1-1.78-4.78L38.69,20.9Z"/><path class="cls-5" d="M60.07,26H57.24l-1.12-2.93H51L49.9,26H47.14l5-12.88h2.75Zm-4.79-5.1-1.77-4.78L51.77,20.9Z"/></g></g></g><g id="AA-2" class="cls-3"><g class="cls-3"><path class="cls-5" d="M120.93,26H118.1L117,23.07h-5.15L110.76,26H108l5-12.88h2.75Zm-4.79-5.1-1.78-4.78-1.74,4.78Z"/><path class="cls-5" d="M134,26h-2.83L130,23.07h-5.15L123.83,26h-2.76l5-12.88h2.75Zm-4.79-5.1-1.78-4.78-1.74,4.78Z"/></g></g><g id="_0.8_2" data-name=" 0.8 2" class="cls-3"><g class="cls-3"><path class="cls-4" d="M102.75,59.65a11.59,11.59,0,0,1,.47-3.68,4.58,4.58,0,0,1,1.39-2.15,3.56,3.56,0,0,1,2.34-.76,3.79,3.79,0,0,1,1.82.42,3.52,3.52,0,0,1,1.29,1.2,6.49,6.49,0,0,1,.8,1.92,12.92,12.92,0,0,1,.29,3,11.83,11.83,0,0,1-.47,3.66,4.55,4.55,0,0,1-1.39,2.15,3.92,3.92,0,0,1-5.27-.58Q102.75,63.28,102.75,59.65Zm1.62,0c0,2.11.25,3.52.75,4.22a2.11,2.11,0,0,0,3.66,0c.5-.7.74-2.1.74-4.21s-.24-3.53-.74-4.23a2.19,2.19,0,0,0-1.85-1.05,2,2,0,0,0-1.74.93C104.65,56.08,104.37,57.53,104.37,59.65Z"/><path class="cls-4" d="M113.65,66V64.2h1.8V66Z"/><path class="cls-4" d="M120.19,59a3,3,0,0,1-1.46-1,2.7,2.7,0,0,1-.47-1.6,3.15,3.15,0,0,1,1-2.36,3.74,3.74,0,0,1,2.69-1,3.81,3.81,0,0,1,2.72,1,3.2,3.2,0,0,1,1,2.39,2.57,2.57,0,0,1-.47,1.56,3,3,0,0,1-1.42,1,3.3,3.3,0,0,1,2.42,3.31,3.69,3.69,0,0,1-1.17,2.77,4.75,4.75,0,0,1-6.15,0,3.75,3.75,0,0,1-1.17-2.82,3.36,3.36,0,0,1,.64-2.1A3.19,3.19,0,0,1,120.19,59Zm-.82,3.27a2.79,2.79,0,0,0,.32,1.31,2.25,2.25,0,0,0,1,1,2.81,2.81,0,0,0,1.36.35,2.56,2.56,0,0,0,1.88-.73,2.72,2.72,0,0,0,0-3.74,2.59,2.59,0,0,0-1.9-.75,2.51,2.51,0,0,0-2.58,2.58Zm.51-6a2,2,0,0,0,.59,1.5,2.1,2.1,0,0,0,1.52.58,2,2,0,0,0,1.5-.58,1.89,1.89,0,0,0,.59-1.41,2,2,0,0,0-.6-1.46,2.05,2.05,0,0,0-1.5-.6,2.11,2.11,0,0,0-1.51.58A1.9,1.9,0,0,0,119.88,56.33Z"/><path class="cls-4" d="M128.07,56.21a4,4,0,0,1,.69-2.35,2.35,2.35,0,0,1,2-1,2.59,2.59,0,0,1,2,.86,3.66,3.66,0,0,1,.8,2.55,3.57,3.57,0,0,1-.81,2.51,2.56,2.56,0,0,1-2,.89,2.48,2.48,0,0,1-1.94-.87A3.84,3.84,0,0,1,128.07,56.21ZM130.82,54a1.19,1.19,0,0,0-1,.51,3.23,3.23,0,0,0-.39,1.87,2.92,2.92,0,0,0,.39,1.74,1.21,1.21,0,0,0,2,0,3.23,3.23,0,0,0,.39-1.87,2.87,2.87,0,0,0-.4-1.75A1.18,1.18,0,0,0,130.82,54Zm0,12.48,7-13.57h1.28l-7,13.57ZM136.4,63a3.91,3.91,0,0,1,.69-2.35,2.34,2.34,0,0,1,2-1,2.6,2.6,0,0,1,2,.87,4.4,4.4,0,0,1,0,5.06,2.59,2.59,0,0,1-2,.88,2.5,2.5,0,0,1-1.94-.87A3.83,3.83,0,0,1,136.4,63Zm2.76-2.23a1.2,1.2,0,0,0-1,.51,3.25,3.25,0,0,0-.39,1.87,2.87,2.87,0,0,0,.4,1.75,1.16,1.16,0,0,0,1,.5,1.19,1.19,0,0,0,1-.5,3.25,3.25,0,0,0,.39-1.87,2.87,2.87,0,0,0-.4-1.75A1.19,1.19,0,0,0,139.16,60.75Z"/></g></g><g id="A-2" class="cls-3"><g class="cls-3"><path class="cls-5" d="M206.93,26H204.1L203,23.07h-5.15L196.76,26H194l5-12.88h2.75Zm-4.79-5.1-1.78-4.78-1.74,4.78Z"/></g></g><g id="_21.4_2" data-name=" 21.4 2" class="cls-3"><g class="cls-3"><path class="cls-4" d="M184.06,64.48V66h-8.52a2.74,2.74,0,0,1,.19-1.1,5.77,5.77,0,0,1,1-1.71,16.24,16.24,0,0,1,2.07-1.95,17.59,17.59,0,0,0,2.84-2.73,3.3,3.3,0,0,0,.74-1.91,2.14,2.14,0,0,0-.67-1.58,2.74,2.74,0,0,0-3.59,0,2.63,2.63,0,0,0-.69,1.9l-1.63-.17A4,4,0,0,1,177.1,54a4.27,4.27,0,0,1,2.93-1,4.1,4.1,0,0,1,2.93,1A3.39,3.39,0,0,1,184,56.64a3.86,3.86,0,0,1-.31,1.52,5.81,5.81,0,0,1-1,1.57A26.53,26.53,0,0,1,180.24,62q-1.43,1.2-1.83,1.62a5.59,5.59,0,0,0-.67.86Z"/><path class="cls-4" d="M191.72,66h-1.59V55.92A8.34,8.34,0,0,1,188.64,57a12.05,12.05,0,0,1-1.67.82V56.3a9.58,9.58,0,0,0,2.32-1.51,6.17,6.17,0,0,0,1.41-1.73h1Z"/><path class="cls-4" d="M196.66,66V64.2h1.8V66Z"/><path class="cls-4" d="M205.84,66V62.92h-5.59V61.47l5.88-8.35h1.29v8.35h1.74v1.45h-1.74V66Zm0-4.53V55.66l-4,5.81Z"/><path class="cls-4" d="M211.08,56.21a4,4,0,0,1,.69-2.35,2.35,2.35,0,0,1,2-1,2.59,2.59,0,0,1,2,.86,3.66,3.66,0,0,1,.8,2.55,3.62,3.62,0,0,1-.8,2.51,2.59,2.59,0,0,1-2,.89,2.49,2.49,0,0,1-1.94-.87A3.84,3.84,0,0,1,211.08,56.21ZM213.83,54a1.19,1.19,0,0,0-1,.51,3.23,3.23,0,0,0-.39,1.87,2.92,2.92,0,0,0,.39,1.74,1.21,1.21,0,0,0,2,0,3.23,3.23,0,0,0,.39-1.87,2.87,2.87,0,0,0-.4-1.75A1.18,1.18,0,0,0,213.83,54Zm0,12.48,7-13.57h1.28l-7,13.57ZM219.41,63a3.85,3.85,0,0,1,.7-2.35,2.31,2.31,0,0,1,2-1,2.62,2.62,0,0,1,2,.87,4.42,4.42,0,0,1,0,5.06,2.58,2.58,0,0,1-2,.88,2.51,2.51,0,0,1-1.95-.87A3.83,3.83,0,0,1,219.41,63Zm2.76-2.23a1.2,1.2,0,0,0-1,.51,3.25,3.25,0,0,0-.39,1.87,2.87,2.87,0,0,0,.4,1.75,1.18,1.18,0,0,0,1,.5,1.19,1.19,0,0,0,1-.5,3.25,3.25,0,0,0,.39-1.87,3,3,0,0,0-.39-1.75A1.22,1.22,0,0,0,222.17,60.75Z"/></g></g><g id="BBB-2" class="cls-3"><g class="cls-3"><path class="cls-5" d="M262.32,13.12h5.15a15.76,15.76,0,0,1,2.28.12,3.52,3.52,0,0,1,1.34.53,3.22,3.22,0,0,1,1,1.08,2.87,2.87,0,0,1,.4,1.51A3,3,0,0,1,272,18a3,3,0,0,1-1.32,1.13,3.42,3.42,0,0,1,1.81,1.17,3.11,3.11,0,0,1,.63,1.94A3.84,3.84,0,0,1,272.7,24a3.38,3.38,0,0,1-1.11,1.33,3.69,3.69,0,0,1-1.75.61c-.43.05-1.48.08-3.14.09h-4.38Zm2.6,2.14v3h1.7c1,0,1.65,0,1.89,0a1.71,1.71,0,0,0,1.05-.47,1.33,1.33,0,0,0,.39-1,1.41,1.41,0,0,0-.33-1,1.54,1.54,0,0,0-1-.46c-.26,0-1,0-2.23,0Zm0,5.12v3.45h2.41a12,12,0,0,0,1.78-.08,1.64,1.64,0,0,0,.95-.51,1.62,1.62,0,0,0,.36-1.1,1.66,1.66,0,0,0-.28-1,1.59,1.59,0,0,0-.81-.59,9,9,0,0,0-2.31-.19Z"/><path class="cls-5" d="M275.39,13.12h5.15a15.76,15.76,0,0,1,2.28.12,3.52,3.52,0,0,1,1.34.53,3.22,3.22,0,0,1,1,1.08,2.87,2.87,0,0,1,.4,1.51,3.05,3.05,0,0,1-1.81,2.79,3.42,3.42,0,0,1,1.81,1.17,3.11,3.11,0,0,1,.63,1.94,3.71,3.71,0,0,1-.41,1.71,3.38,3.38,0,0,1-1.11,1.33,3.65,3.65,0,0,1-1.75.61c-.43.05-1.48.08-3.14.09h-4.38Zm2.6,2.14v3h1.71c1,0,1.64,0,1.89,0a1.77,1.77,0,0,0,1.05-.47,1.37,1.37,0,0,0,.38-1,1.41,1.41,0,0,0-.33-1,1.54,1.54,0,0,0-1-.46c-.26,0-1,0-2.23,0Zm0,5.12v3.45h2.41a12,12,0,0,0,1.78-.08,1.64,1.64,0,0,0,.95-.51,1.62,1.62,0,0,0,.36-1.1,1.66,1.66,0,0,0-.28-1,1.59,1.59,0,0,0-.81-.59,9,9,0,0,0-2.31-.19Z"/><path class="cls-5" d="M288.46,13.12h5.15a15.76,15.76,0,0,1,2.28.12,3.64,3.64,0,0,1,1.35.53,3.3,3.3,0,0,1,1,1.08,2.87,2.87,0,0,1,.4,1.51,3.05,3.05,0,0,1-1.81,2.79,3.38,3.38,0,0,1,1.81,1.17,3.11,3.11,0,0,1,.63,1.94,3.71,3.71,0,0,1-.41,1.71,3.38,3.38,0,0,1-1.11,1.33,3.61,3.61,0,0,1-1.75.61c-.43.05-1.48.08-3.13.09h-4.39Zm2.6,2.14v3h1.71c1,0,1.64,0,1.89,0a1.77,1.77,0,0,0,1-.47,1.37,1.37,0,0,0,.38-1,1.41,1.41,0,0,0-.33-1,1.54,1.54,0,0,0-1-.46c-.26,0-1,0-2.22,0Zm0,5.12v3.45h2.41a12,12,0,0,0,1.78-.08,1.5,1.5,0,0,0,1.31-1.61,1.66,1.66,0,0,0-.28-1,1.55,1.55,0,0,0-.81-.59,8.86,8.86,0,0,0-2.31-.19Z"/></g></g><g id="_54.5_2" data-name=" 54.5 2" class="cls-3"><g class="cls-3"><path class="cls-4" d="M255.75,62.63l1.66-.15a3,3,0,0,0,.86,1.83,2.28,2.28,0,0,0,1.62.61,2.54,2.54,0,0,0,1.93-.86,3.25,3.25,0,0,0,.79-2.29,2.91,2.91,0,0,0-.76-2.13,2.67,2.67,0,0,0-2-.79,2.77,2.77,0,0,0-1.38.35,2.71,2.71,0,0,0-1,.9L256,59.91l1.25-6.62h6.4V54.8h-5.14l-.69,3.47a4.17,4.17,0,0,1,2.43-.81,3.85,3.85,0,0,1,2.85,1.17,4.09,4.09,0,0,1,1.16,3,4.7,4.7,0,0,1-1,3,4.09,4.09,0,0,1-3.38,1.56,4.18,4.18,0,0,1-2.87-1A3.84,3.84,0,0,1,255.75,62.63Z"/><path class="cls-4" d="M270.83,66V62.92h-5.59V61.47l5.88-8.35h1.29v8.35h1.74v1.45h-1.74V66Zm0-4.53V55.66l-4,5.81Z"/><path class="cls-4" d="M276.66,66V64.2h1.8V66Z"/><path class="cls-4" d="M280.77,62.63l1.66-.15a3,3,0,0,0,.86,1.83,2.32,2.32,0,0,0,1.62.61,2.52,2.52,0,0,0,1.93-.86,3.25,3.25,0,0,0,.79-2.29,2.91,2.91,0,0,0-.76-2.13,2.65,2.65,0,0,0-2-.79,2.77,2.77,0,0,0-1.38.35,2.6,2.6,0,0,0-1,.9l-1.49-.19,1.25-6.62h6.41V54.8h-5.15l-.69,3.47a4.17,4.17,0,0,1,2.43-.81,3.85,3.85,0,0,1,2.85,1.17,4.05,4.05,0,0,1,1.16,3,4.7,4.7,0,0,1-1,3,4.07,4.07,0,0,1-3.38,1.56,4.2,4.2,0,0,1-2.87-1A3.84,3.84,0,0,1,280.77,62.63Z"/><path class="cls-4" d="M291.08,56.21a4,4,0,0,1,.69-2.35,2.35,2.35,0,0,1,2-1,2.59,2.59,0,0,1,2,.86,3.66,3.66,0,0,1,.8,2.55,3.62,3.62,0,0,1-.8,2.51,2.59,2.59,0,0,1-2,.89,2.49,2.49,0,0,1-1.94-.87A3.84,3.84,0,0,1,291.08,56.21ZM293.83,54a1.19,1.19,0,0,0-1,.51,3.23,3.23,0,0,0-.39,1.87,2.92,2.92,0,0,0,.39,1.74,1.21,1.21,0,0,0,2,0,3.23,3.23,0,0,0,.39-1.87,2.87,2.87,0,0,0-.4-1.75A1.18,1.18,0,0,0,293.83,54Zm0,12.48,7.05-13.57h1.28l-7,13.57ZM299.41,63a3.85,3.85,0,0,1,.7-2.35,2.31,2.31,0,0,1,2-1,2.62,2.62,0,0,1,2,.87,4.42,4.42,0,0,1,0,5.06,2.58,2.58,0,0,1-2,.88,2.51,2.51,0,0,1-1.95-.87A3.83,3.83,0,0,1,299.41,63Zm2.76-2.23a1.2,1.2,0,0,0-1,.51,3.25,3.25,0,0,0-.39,1.87,2.87,2.87,0,0,0,.4,1.75,1.18,1.18,0,0,0,1,.5,1.19,1.19,0,0,0,1-.5,3.25,3.25,0,0,0,.39-1.87,3,3,0,0,0-.39-1.75A1.22,1.22,0,0,0,302.17,60.75Z"/></g></g></svg>