<svg id="bg" xmlns="http://www.w3.org/2000/svg" viewBox="0 0 320 260"><defs><style>.cls-1,.cls-13{fill:#002a5e;}.cls-11,.cls-13,.cls-2{isolation:isolate;}.cls-3{fill:#fff;}.cls-10,.cls-12,.cls-4,.cls-6,.cls-7,.cls-8,.cls-9{fill:none;}.cls-4{stroke:#888;stroke-width:0.5px;}.cls-10,.cls-4,.cls-6,.cls-8,.cls-9{stroke-linejoin:round;}.cls-5{fill:#f3f3f3;}.cls-6{stroke:#d9d9d9;}.cls-7{stroke:#333;}.cls-12,.cls-7{stroke-miterlimit:10;}.cls-10,.cls-7,.cls-8,.cls-9{stroke-width:3px;}.cls-8{stroke:#df536a;}.cls-10,.cls-8,.cls-9{stroke-linecap:round;}.cls-9{stroke:#00796d;}.cls-10{stroke:#bae659;}.cls-11,.cls-13{font-size:12px;font-family:Arial-BoldMT, Arial;font-weight:700;}.cls-11{fill:#333;letter-spacing:0em;}.cls-12{stroke:#002a5e;}</style></defs><rect class="cls-1" x="97.43" y="6.88" width="86.08" height="24.34" rx="12.17"/><g id="Group_5213" data-name="Group 5213"><g id="Group_5212" data-name="Group 5212"><g id="ä¼" class="cls-2"><g class="cls-2"><path class="cls-3" d="M116.79,18v2.18h5.58v1.09h-5.58v3.9h6.3v1.11H109.34V25.16h6.21v-3.9h-5.49V20.17h5.49V18H112.1v-.88a18.9,18.9,0,0,1-2.55,1.17,4,4,0,0,0-.8-1.09A14.35,14.35,0,0,0,116.2,12l1.08.51a6.07,6.07,0,0,1-.4.58,17.52,17.52,0,0,0,6.84,4.13,4.13,4.13,0,0,0-.83,1A18.82,18.82,0,0,1,120.31,17v1Zm-4.4,3.62a13,13,0,0,1,1.53,2.86l-1,.43A12.72,12.72,0,0,0,111.41,22Zm7.73-4.72a18.62,18.62,0,0,1-3.89-3,16.81,16.81,0,0,1-3.75,3Zm-1.88,7.66a18.89,18.89,0,0,0,1.67-2.94L121,22a28.1,28.1,0,0,1-1.89,2.9Z"/><path class="cls-3" d="M125.12,12.82h7.51v1h-7.51Zm7.27,12.6c0,.51-.1.78-.45,1a5.12,5.12,0,0,1-1.71.16,3.77,3.77,0,0,0-.31-.93c.59,0,1.12,0,1.27,0s.21-.07.21-.23V19.83h-5.1V26.7h-1V18.9h7ZM131.86,18h-6V14.77h6Zm-2.53,5.18V26.3h-.91V23.19h-1.65v-.81H129A15.59,15.59,0,0,0,130,20.1l.8.32c-.34.64-.71,1.36-1.06,2h1.12v.81Zm1.46-7.55h-3.86v1.5h3.86Zm-3.11,4.53a8.89,8.89,0,0,1,.93,1.85l-.72.28a8.64,8.64,0,0,0-.9-1.89Zm11,6.58a13,13,0,0,0-.27-1.32c-1.86.36-3.78.68-5.22,1l-.29-1.1c.74-.1,1.65-.24,2.64-.42V21.3h-2.37v-6h2.37v-3h1.06v3h2.32v6H136.6v3.43l1.53-.27a20.39,20.39,0,0,0-.72-2l.87-.22a20.9,20.9,0,0,1,1.33,4.27Zm-4.61-6.49h1.55v-4h-1.55Zm3.92-4h-1.47v4H138Z"/><path class="cls-3" d="M155.33,16.5v1.11H144.15V19.4c0,2.21-.39,5.28-2.45,7.33a4,4,0,0,0-.9-.8C142.74,24,143,21.38,143,19.4V16.76c-.4.32-.8.64-1.24.94a4.15,4.15,0,0,0-.8-.91,12.59,12.59,0,0,0,4.33-4.72l1.29.25a8.93,8.93,0,0,1-.81,1.33h5.41l.2-.08.84.63c-.4.69-1,1.55-1.48,2.3Zm-5.87,0,1-1.77H145a14.68,14.68,0,0,1-1.69,1.77Zm3.47,8.93c1,0,1.19-.3,1.3-2.06a3.83,3.83,0,0,0,1.1.46c-.19,2.13-.57,2.69-2.35,2.69h-4.54c-2,0-2.61-.35-2.61-1.89V19.11H153s0,.32,0,.46c-.14,2.33-.29,3.29-.66,3.67a1.37,1.37,0,0,1-1,.38,18.25,18.25,0,0,1-2.22,0,3.22,3.22,0,0,0-.32-1c.86.08,1.72.08,2,.08s.46,0,.57-.13.32-.83.43-2.37H147v4.48c0,.64.22.8,1.49.8Z"/><path class="cls-3" d="M160.63,20.66c-.16-.43-.52-1.18-.85-1.85v7.92h-1V19.11a17.26,17.26,0,0,1-1.51,4.19,8.53,8.53,0,0,0-.51-1.15,20.2,20.2,0,0,0,1.92-5.84H157V15.19h1.7V12.12h1v3.07H161v1.12h-1.26v1c.35.56,1.21,2,1.42,2.43Zm9.79,1.19a9,9,0,0,1-2,2.56,2.3,2.3,0,0,0,1.67,1.15c.33,0,.54-.57.67-1.73a3.15,3.15,0,0,0,.8.61c-.3,1.75-.8,2.34-1.44,2.29a3.24,3.24,0,0,1-2.53-1.63,13.26,13.26,0,0,1-2.8,1.55,4,4,0,0,0-.64-.75,11.79,11.79,0,0,0,3-1.67,15.11,15.11,0,0,1-.93-2.93h-2.61v.24a2.36,2.36,0,0,1,0,.37,23.3,23.3,0,0,1,2.21,1.91l-.73.72c-.37-.39-1-1-1.62-1.51a6.24,6.24,0,0,1-2.35,3.73,3.37,3.37,0,0,0-.79-.72,5.38,5.38,0,0,0,2.27-4.51V21.3h-1.21v-1h4.67a63.41,63.41,0,0,1-.69-8.1h1a54.93,54.93,0,0,0,.7,8.1h2.29a12.88,12.88,0,0,0-1.42-1l.61-.56a10.9,10.9,0,0,1,1.66,1.15l-.42.43h1.33v1h-3.86a13.69,13.69,0,0,0,.69,2.2,7.45,7.45,0,0,0,1.43-2Zm-5.66-2.4c0-.2-.12-.42-.18-.67a12.49,12.49,0,0,0-2.88.54,4.72,4.72,0,0,0-.27-.9c.22-.05.49-.32.81-.72.16-.19.58-.75,1-1.44a7.12,7.12,0,0,0-1.72.34,4.86,4.86,0,0,0-.27-.88c.19-.05.39-.26.59-.6a12.51,12.51,0,0,0,1.35-2.75l.9.29a16,16,0,0,1-1.61,2.9l1.27-.13c.19-.35.38-.7.54-1.07l.87.33a21.92,21.92,0,0,1-2.4,3.54l1.55-.21c-.11-.35-.24-.69-.37-1l.75-.2a14.55,14.55,0,0,1,.82,2.36Zm5.77-.28c0-.19-.11-.44-.2-.72a13.62,13.62,0,0,0-2.9.56c-.07-.19-.21-.68-.32-.92.25-.05.49-.32.8-.71a15,15,0,0,0,1-1.42,5.91,5.91,0,0,0-1.62.32,7.29,7.29,0,0,0-.3-.9c.19,0,.37-.22.56-.53a12.35,12.35,0,0,0,1.15-2.51l.9.27a15.84,15.84,0,0,1-1.4,2.63l1.17-.13a9.61,9.61,0,0,0,.56-1.11l.92.34a22.47,22.47,0,0,1-2.34,3.59l1.6-.23-.38-1,.72-.21a18,18,0,0,1,.89,2.37Z"/></g></g></g></g><g id="Group_5667" data-name="Group 5667"><g id="Group_5666" data-name="Group 5666"><path id="Path_7451" data-name="Path 7451" class="cls-4" d="M24.35,172.52v5.26m6.94-5.26v5.26m6.55-5.26v5.26m6.56-5.26v5.26M51,172.52v5.26m6.94-5.26v5.26m6.55-5.26v5.26M71,172.52v5.26M78,172.52v5.26m6.56-5.26v5.26m6.55-5.26v5.26m6.56-5.26v5.26m6.94-5.26v5.26m6.56-5.26v5.26m6.55-5.26v5.26m6.94-5.26v5.26m6.56-5.26v5.26m6.56-5.26v5.26m6.55-5.26v5.26m6.94-5.26v5.26m6.56-5.26v5.26m6.56-5.26v5.26m6.94-5.26v5.26m6.55-5.26v5.26m6.56-5.26v5.26m6.56-5.26v5.26m6.94-5.26v5.26m6.55-5.26v5.26m6.56-5.26v5.26m6.94-5.26v5.26m6.56-5.26v5.26m6.55-5.26v5.26m6.56-5.26v5.26m6.94-5.26v5.26m6.56-5.26v5.26m6.55-5.26v5.26m6.95-5.26v5.26m6.55-5.26v5.26m6.56-5.26v5.26m6.55-5.26v5.26m6.94-5.26v5.26m6.56-5.26v5.26m6.56-5.26v5.26m6.94-5.26v5.26m6.55-5.26v5.26"/></g></g><g id="Group_5808" data-name="Group 5808"><path id="Path_7529" data-name="Path 7529" class="cls-5" d="M133.14,34.93H147.8V195.19H133.14Z"/></g><g id="Group_5659" data-name="Group 5659"><g id="Group_5658" data-name="Group 5658"><path id="Path_7443" data-name="Path 7443" class="cls-6" d="M24.35,149.23H317.82M24.35,126.55H317.82M24.35,103.88H317.82M24.35,81.2H317.82M24.35,58.52H317.82M24.35,35.24H317.82"/></g></g><g id="Group_5665" data-name="Group 5665"><g id="Group_5664" data-name="Group 5664"><path id="Path_7449" data-name="Path 7449" class="cls-7" d="M24.35,172.52H317.82"/></g></g><g id="Group_5669" data-name="Group 5669"><g id="Group_5668" data-name="Group 5668"><path id="Path_7453" data-name="Path 7453" class="cls-8" d="M25.12,172.52l1.15-.62H29l1.55-.61h1.15l1.55.61,1.15.62,1.55-1.23h2.7l1.15-1.23,1.16-1.22,1.54-.61,1.16-.62h1.54l1.16-1.84,1.54-1.22H49l1.54,1.22,1.16-.61,1.54-1.22h2.31l1.55-1.23h1.15l1.55-.61,1.15-.62,1.55,1.23,1.15.61,1.54-.61,1.16-.61,1.54-1.23,1.16-.61,1.16-.61h1.54l1.16-.62,1.54-.61h1.16l1.54,1.23,1.16-.62,1.54-1.22,1.16-.62h1.54l1.16-.61,1.54.61,1.16.62,1.15-.62,1.54-.61h1.16l1.54-.61,1.16.61h2.7l1.54.61L98.39,156l1.54-1.23,1.16-.61,1.16-.61,1.54-.62,1.16.62,1.54-.62,1.16-.61h1.54l1.16-.61,1.54.61,1.16.61h1.54l1.15-.61,1.55-.61,1.15-.61,1.16.61,1.54-.61h1.16l1.54.61,1.16.61,1.54-1.22,1.16.61,1.54.61,1.16.61,1.54-.61,1.16,4.29,1.16,4.9,1.54-.61,1.16-2.45,1.54-.61,1.15,1.22,1.55-.61,1.15-2.45,1.55-2.45,1.15-1.84,1.55-2.45,1.15-1.23,1.16-1.84,1.54-.61,1.16-1.23h1.54l1.16-1.22h1.54l1.16-1.23,1.54-1.22,1.16,1.22,1.54-1.22,1.16-1.84,1.54-1.23,1.16-.61,1.15-.61,1.55,1.22h2.7l1.15-1.22h1.55l1.15-1.23,1.55-.61,1.15.61,1.55-1.22,1.15.61,1.16,1.22,1.54-2.45,1.16,1.84,1.54-1.84,1.16-2.45,1.54-1.22H189l1.54-.62h1.16l1.54-.61,1.16-2.45,1.54-.61,1.16-1.23,1.15-1.23,1.55-.61,1.15-.61,1.55.61,1.15-.61,1.55-.61,1.15-1.84,1.54,1.84,1.16,2.45,1.54-1.23,1.16.61,1.16-.61,1.54-1.84h2.7l1.16-1.22,1.54-1.23H221l1.54-1.22,1.16-1.23,1.54-.61h1.16l1.15-1.23,1.55,1.23,1.15-1.23,1.54-.61,1.16.61,1.54-2.45h3.86l1.54.61,1.16,1.84,1.54-1.22,1.16,1.22,1.16.61,1.54-1.22h1.16l1.54.61h1.16l1.54-.61L253,110l1.54-1.22h1.16l1.54-1.84,1.15-2.45,1.16-.61h1.54l1.16.61,1.54,2.45,1.16-1.23,1.54-.61,1.16-1.22h1.54l1.16-1.23,1.54-1.23h1.16l1.16-.61,1.54-1.22H277l1.54-.62h1.16l1.54-.61,1.15.61,1.55,1.23h3.85l1.55.61,1.15-1.22h2.7l1.16,1.22h1.54l1.16-.61,1.54-3.07,1.16-.61,1.54-2.45,1.16-1.23,1.54-.61,1.16-3.06,1.16-1.23,1.54-2.45,1.15.61,1.55-.61h1.15l1.55-1.23,1.15-2.45h1.55l1.15,10.42"/></g></g><g id="Group_5671" data-name="Group 5671"><g id="Group_5670" data-name="Group 5670"><path id="Path_7455" data-name="Path 7455" class="cls-9" d="M25.12,172.52l1.15-.62,1.55-.61L29,172.52l1.55-1.23h1.15l1.55-.61,1.15-1.23,1.55-1.22L37.07,167l1.55.61,1.15.62L40.93,167h1.54l1.16-.61h2.7l1.54-1.84,1.16.61L50.57,167h1.16l1.54-1.84,1.16,1.23h1.15l1.55-.62,1.15-.61,1.55-.61,1.15-.61,1.55,1.83h2.69l1.16-.61,1.54-1.22h2.32l1.54.61,1.16-.61,1.54-.62,1.16.62h1.54l1.16-.62,1.54-.61L81,162.1l1.54.61,1.16-.61,1.54.61,1.16.61,1.15-.61,1.54-.61,1.16.61h1.54l1.16.61h4.24l1.16-1.22,1.54-.62,1.16-.61h1.16l1.54-.61,1.16.61h1.54l1.16-1.22h2.7l1.54.61h1.16l1.54-1.23,1.15-.61,1.55-.61,1.15-.62,1.16-1.83h1.54l1.16-1.23,1.54-1.23H125l1.54,1.23,1.16.61,1.54-.61,1.16-.61,1.54-.62h2.32l1.54-3.67,1.16-2.45,1.54,2.45h1.15L141.2,148l1.15,1.23,1.55.61h2.7l1.15-.61,1.16-.62h1.54l1.16-1.22,1.54,1.84,1.16-.62,1.54-.61,1.16.61,1.54-.61,1.16-1.22,1.54-1.23,1.16-.61,1.54-1.23h2.31l1.55.61,1.15,1.23h4.25l1.15-.61,1.55-1.23h1.15l1.55-1.22,1.15-1.84,1.16-1.84,1.54.61,1.16-.61,1.54-.61h1.16l1.54.61,1.16.61,1.54-1.22,1.16-1.23h1.54l1.16-.61H196l1.16.61h1.15l1.55-.61L201,137l1.55.61,1.15-.61h1.55l1.15-.61,1.54,1.22,1.16.62,1.54.61h1.16l1.16-.61h2.7l1.54.61,1.16-.61,1.54-.62,1.16.62,1.54-.62,1.16-.61h2.7l1.15-.61h1.55l1.15-.62,1.54-.61H233l1.54-2.45,1.16,1.23h2.7l1.54.61,1.16.61,1.54-.61h1.16l1.16-1.23,1.54.62h1.16l1.54.61,1.16-1.84,1.54-1.23h3.86l1.54-1.83h1.15l1.16.61h1.54l1.16.61,1.54,2.45h2.7l1.16-.61h1.54l1.16-.61,1.54-.62,1.16.62,1.16-.62,1.54-.61,1.16.61h4.24l1.15,1.23,1.55.61,1.15-.61,1.55.61,1.15-.61h2.7l1.16-.61,1.54.61,1.16.61,1.54-.61,1.16-1.84,1.54-.61,1.16.61,1.54-1.84h1.16l1.54-1.84,1.16-1.22,1.16.61,1.54-3.06,1.15.61h2.7l1.55.61,1.15-2.45,1.55-2.45,1.15-2.45"/></g></g><g id="Group_5673" data-name="Group 5673"><g id="Group_5672" data-name="Group 5672"><path id="Path_7457" data-name="Path 7457" class="cls-10" d="M25.12,172.52l1.15.61,1.55.61L29,171.9,30.52,175h1.15L33.22,178l1.15,3.07h1.55l1.15,4.29,1.55-3.07,1.15-1.84,1.16,1.84,1.54,1.23,1.16.61,1.54-.61,1.16-2.45,1.54-2.46H49l1.54-.61,1.16-1.22,1.54.61L54.43,175h1.15l1.55-2.45,1.15-.62,1.55-.61,1.15.61,1.55.62,1.15-.62,1.54-.61,1.16,1.23h1.54l1.16-.62,1.16-.61,1.54-1.84,1.16-1.22,1.54,1.22,1.16-1.22,1.54.61,1.16,1.22,1.54-1.22,1.16-.61,1.54-1.84,1.16.61h1.54l1.16.61,1.15-1.84h1.54l1.16-1.22h1.54l1.16-.61,1.54-1.23,1.16,1.84h1.54l1.16-.61,1.54-1.23,1.16-1.23,1.16-1.83,1.54-1.23,1.16-.61,1.54-.62,1.16,1.23,1.54-.61,1.16-3.07,1.54-1.84,1.16,1.23,1.54,1.84,1.15-1.23,1.55-1.84,1.15-1.22,1.16,3.06h1.54L122.3,159l1.54,1.84H125l1.54-2.45,1.16-.61,1.54,4.9,1.16.61,1.54-1.22,1.16,5.51,1.16,8,1.54,3.06H137l1.54,3.07,1.15,4.29,1.55-3.07,1.15-3.06,1.55-2.45h1.15l1.55-3.07,1.15-1.22,1.16-1.84,1.54.61,1.16-2.45,1.54-1.22,1.16,1.83,1.54-1.22,1.16-3.07,1.54-.61,1.16,4.29,1.54,2.45,1.16-3.06,1.54,1.84,1.16-3.68,1.15-2.45,1.55.61,1.15-3.68,1.55-1.22,1.15-2.45,1.55.61,1.15-1.84,1.55.61,1.15,1.23,1.55,1.23,1.15,3.06,1.16,3.68,1.54-5.52h1.16l1.54-.61,1.16-2.45,1.54-2.45,1.16-1.84,1.54.61,1.16,3.68,1.54-2.45,1.16-.62L196,152.9l1.16-1.22,1.15,1.22,1.55-.61,1.15-.61,1.55-3.07,1.15-1.22,1.55-2.45,1.15-1.23,1.54-1.84,1.16,1.23,1.54-3.68,1.16,1.84,1.16-1.84,1.54-3.68,1.16-2.45,1.54-2.45,1.16,3.07,1.54-3.68,1.16-.61,1.54-.62,1.16-1.84,1.54-1.83,1.16,1.22,1.15-3.68,1.55,1.23,1.15-2.45,1.54-2.45,1.16.61,1.54,3.06,1.16-5.51,1.54,1.84,1.16-1.23,1.54-1.22,1.16,1.83,1.54-1.83,1.16,6.12,1.16,2.46,1.54-8h1.16l1.54,1.84,1.16,4.9h1.54L253,118l1.54-.61,1.16-1.84h1.54l1.15-3.68h2.7l1.16,1.84,1.54-3.68,1.16-1.83,1.54-2.46,1.16-4.29h1.54l1.16-1.22L271.93,99l1.16-1.22,1.16-2.45h1.54L277,92.84l1.54-3.06,1.16-3.68,1.54-1.22,1.15-8,1.55,5.52L285,86.1l1.55-.61,1.15-3.06,1.55-.62,1.15-5.51L291.6,72l1.54-.62,1.16,9.81,1.54-2.45L297,91l1.54-9.81,1.16-4.29,1.54-2.45,1.16-6.13,1.54,9.81,1.16-9.81,1.16-1.84,1.54,2.45L309,65.88l1.55-3.07,1.15-5.51,1.55-4.9h1.15l1.55,14.09,1.15,18.39"/></g></g><g id="Group_5675" data-name="Group 5675"><g id="Group_5674" data-name="Group 5674"><g id="Group"><g id="_-5" data-name=" -5" class="cls-2"><text class="cls-11" transform="translate(2.86 197.34)">-50</text></g></g></g></g><g id="Group_5679" data-name="Group 5679"><g id="Group_5678" data-name="Group 5678"><g id="_0-2" data-name=" 0-2" class="cls-2"><text class="cls-11" transform="translate(11.64 174.66)">0</text></g></g></g><g id="Group_5683" data-name="Group 5683"><g id="Group_5682" data-name="Group 5682"><g id="_50" data-name=" 50" class="cls-2"><text class="cls-11" transform="translate(6.16 151.98)">50</text></g></g></g><g id="Group_5687" data-name="Group 5687"><g id="Group_5686" data-name="Group 5686"><g id="Group-3"><g id="_10" data-name=" 10" class="cls-2"><text class="cls-11" transform="translate(0.67 128.7)">100</text></g></g></g></g><g id="Group_5691" data-name="Group 5691"><g id="Group_5690" data-name="Group 5690"><g id="Group-5"><g id="_15" data-name=" 15" class="cls-2"><text class="cls-11" transform="translate(0.67 106.02)">150</text></g></g></g></g><g id="Group_5695" data-name="Group 5695"><g id="Group_5694" data-name="Group 5694"><g id="Group-7"><g id="_20" data-name=" 20" class="cls-2"><text class="cls-11" transform="translate(0.67 83.34)">200</text></g></g></g></g><g id="Group_5699" data-name="Group 5699"><g id="Group_5698" data-name="Group 5698"><g id="Group-9"><g id="_25-2" data-name=" 25-2" class="cls-2"><text class="cls-11" transform="translate(0.67 60.67)">250</text></g></g></g></g><g id="Group_5703" data-name="Group 5703"><g id="Group_5702" data-name="Group 5702"><g id="Group-11"><g id="_30" data-name=" 30" class="cls-2"><text class="cls-11" transform="translate(0.67 37.99)">300</text></g></g></g></g><g id="Group_5703-2" data-name="Group 5703"><g id="Group_5702-2" data-name="Group 5702"><g id="Group-11-2" data-name="Group-11"><g id="_30-2" data-name=" 30" class="cls-2"><text class="cls-11" transform="translate(2.86 19.77)">(%)</text></g></g></g></g><line class="cls-6" x1="24.35" y1="195.19" x2="317.82" y2="195.19"/><circle class="cls-1" cx="140.47" cy="49.43" r="1.94"/><line class="cls-12" x1="140.47" y1="31.44" x2="140.47" y2="49.43"/><line class="cls-4" x1="24.35" y1="172.52" x2="24.35" y2="177.78"/><line class="cls-4" x1="137.73" y1="172.52" x2="137.73" y2="177.78"/><line class="cls-4" x1="317.82" y1="172.52" x2="317.82" y2="177.78"/><g id="Group_5681" data-name="Group 5681"><g id="Group_5680" data-name="Group 5680"><g id="_25" data-name=" 25" class="cls-2"><text class="cls-13" transform="translate(33.73 254.75) rotate(-90)">12/1/2001</text></g></g></g><g id="Group_5681-2" data-name="Group 5681"><g id="Group_5680-2" data-name="Group 5680"><g id="_25-2-2" data-name=" 25" class="cls-2"><text class="cls-13" transform="translate(57.58 248.08) rotate(-90)">9/1/2003</text></g></g></g><g id="Group_5681-3" data-name="Group 5681"><g id="Group_5680-3" data-name="Group 5680"><g id="_25-3" data-name=" 25" class="cls-2"><text class="cls-13" transform="translate(84.83 248.08) rotate(-90)">6/1/2005</text></g></g></g><g id="Group_5681-4" data-name="Group 5681"><g id="Group_5680-4" data-name="Group 5680"><g id="_25-4" data-name=" 25" class="cls-2"><text class="cls-13" transform="translate(113.64 248.08) rotate(-90)">3/1/2007</text></g></g></g><g id="Group_5681-5" data-name="Group 5681"><g id="Group_5680-5" data-name="Group 5680"><g id="_25-5" data-name=" 25" class="cls-2"><text class="cls-13" transform="translate(144.3 254.75) rotate(-90)">12/1/2008</text></g></g></g><g id="Group_5681-6" data-name="Group 5681"><g id="Group_5680-6" data-name="Group 5680"><g id="_25-6" data-name=" 25" class="cls-2"><text class="cls-13" transform="translate(170.79 248.08) rotate(-90)">9/1/2010</text></g></g></g><g id="Group_5681-7" data-name="Group 5681"><g id="Group_5680-7" data-name="Group 5680"><g id="_25-7" data-name=" 25" class="cls-2"><text class="cls-13" transform="translate(200.05 248.08) rotate(-90)">6/1/2012</text></g></g></g><g id="Group_5681-8" data-name="Group 5681"><g id="Group_5680-8" data-name="Group 5680"><g id="_25-8" data-name=" 25" class="cls-2"><text class="cls-13" transform="translate(229.3 248.08) rotate(-90)">3/1/2014</text></g></g></g><g id="Group_5681-9" data-name="Group 5681"><g id="Group_5680-9" data-name="Group 5680"><g id="_25-9" data-name=" 25" class="cls-2"><text class="cls-13" transform="translate(258.55 254.75) rotate(-90)">12/1/2015</text></g></g></g><g id="Group_5681-10" data-name="Group 5681"><g id="Group_5680-10" data-name="Group 5680"><g id="_25-10" data-name=" 25" class="cls-2"><text class="cls-13" transform="translate(287.8 248.08) rotate(-90)">9/1/2017</text></g></g></g><g id="Group_5681-11" data-name="Group 5681"><g id="Group_5680-11" data-name="Group 5680"><g id="_25-11" data-name=" 25" class="cls-2"><text class="cls-13" transform="translate(317.05 248.08) rotate(-90)">6/1/2019</text></g></g></g></svg>