<svg xmlns="http://www.w3.org/2000/svg" viewBox="0 0 320 406"><defs><style>.cls-1{fill:#f3f3f3;}.cls-2{fill:#002a5e;}.cls-3{opacity:0.3;}.cls-12,.cls-13,.cls-4,.cls-5{fill:none;stroke-miterlimit:10;}.cls-13,.cls-4,.cls-5{stroke:#fff;}.cls-5{stroke-linecap:round;}.cls-6{fill:#0074b7;}.cls-7,.cls-8{isolation:isolate;}.cls-8{font-size:16px;fill:#333;font-family:NotoSansCJKtc-Bold-B5pc-H, Noto Sans CJK TC;}.cls-9{fill:#df536a;}.cls-10{fill:#ff90a1;}.cls-11{fill:#fff;}.cls-12{stroke:#002a5e;}.cls-13{stroke-width:0.5px;}</style></defs><g id="Layer_1" data-name="Layer 1"><path id="Path_20218" data-name="Path 20218" class="cls-1" d="M303.69,91.74a33.71,33.71,0,0,0-25.11-31,23.56,23.56,0,0,0-37.46-12.22A17.56,17.56,0,0,0,208.69,57a16.85,16.85,0,0,0-2.92-.25A17.59,17.59,0,0,0,189,69.23a23.83,23.83,0,0,0-21,22.51Z"/><path id="Path_20218-2" data-name="Path 20218" class="cls-1" d="M132.19,56.25a23.63,23.63,0,0,0-17.61-21.73A16.53,16.53,0,0,0,88.3,25.94a12.33,12.33,0,0,0-22.76,5.95,12.79,12.79,0,0,0-2.05-.17A12.33,12.33,0,0,0,51.7,40.46,16.7,16.7,0,0,0,37,56.25Z"/><path class="cls-2" d="M179.59,34.77,193,31.41l10.05,3.36,16.76,3.35,10.06-6.71A96.14,96.14,0,0,1,244.28,51l-1,.57-20.11,6.71-20.11-3.36-6.7-10H176.24l-10.05,10,3.35,23.47,23.46,10L206.41,85l10.05,6.7v13.41l6.7,13.41,6.71,13.4v13.41l9,9A97.2,97.2,0,0,1,69.86,60.81l5.83,17.53L85.75,85l10,6.7-6.7,6.71v10l6.7,13.41,16.76,3.35v33.52l6.7,16.75,10.06,3.35V162.13l13.4-10.06V142l13.41-13.41,3.35-16.76h-13.4L136,95.09H112.56l-6.7-13.4-10.06,10V78.34l-6.7-6.71v-10l23.46-3.35,16.76-10.06,10.05-16.76,10.06-3.35,3.35-10-20.11-3.35-9.52-6.37a97.19,97.19,0,0,1,79.64,3.15L189.65,18H176.24l-6.7,13.4Z"/><g class="cls-3"><line class="cls-4" x1="159.48" y1="1.25" x2="159.48" y2="195.58"/><path class="cls-5" d="M185.38,5.49c8.76,20.69,14.32,51.65,14.32,86.25,0,43.38-8.75,81-21.57,99.92"/><path class="cls-5" d="M140.77,191.8C127.89,173,119.1,135.23,119.1,91.74c0-34.37,5.49-65.15,14.16-85.84"/><path class="cls-5" d="M117.17,185.88c-20.73-20.19-34.39-54.81-34.39-94.14,0-25.61,5.79-49.22,15.56-68.16"/><path class="cls-5" d="M220.47,23.58C230.23,42.52,236,66.13,236,91.74c0,38.94-13.4,73.27-33.79,93.54"/><line class="cls-4" x1="62.24" y1="98.33" x2="256.57" y2="98.33"/><path class="cls-5" d="M66.48,72.44c20.69-8.76,51.65-14.33,86.25-14.33,43.38,0,81,8.75,99.92,21.58"/><path class="cls-5" d="M252.79,117c-18.83,12.88-56.57,21.67-100.06,21.67-34.37,0-65.15-5.49-85.84-14.15"/><path class="cls-5" d="M246.87,140.65C226.68,161.37,192.05,175,152.73,175c-25.61,0-49.22-5.8-68.16-15.56"/><path class="cls-5" d="M84.57,37.35c18.94-9.76,42.55-15.56,68.16-15.56,38.94,0,73.27,13.4,93.54,33.78"/></g><path class="cls-6" d="M229.87,31.41l-10.06,6.71-16.76-3.35L193,31.41l-13.41,3.36-10.05-3.36,6.7-13.4h13.41l13.14-6.57A96.13,96.13,0,0,1,229.87,31.41Z"/><path class="cls-6" d="M152.78,18l-3.35,10-10.06,3.35L129.32,48.17,112.56,58.23,89.1,61.58v10l6.7,6.71v13.4l-10-6.7-10.06-6.7L69.86,60.81A97.16,97.16,0,0,1,123.15,8.29l9.52,6.37Z"/><polygon class="cls-6" points="159.48 111.85 156.13 128.61 142.72 142.02 142.72 152.07 129.32 162.13 129.32 178.88 119.26 175.53 112.56 158.78 112.56 125.26 95.8 121.91 89.1 108.5 89.1 98.45 95.8 91.74 105.86 81.69 112.56 95.09 136.02 95.09 146.08 111.85 159.48 111.85"/><path class="cls-6" d="M244.28,51a97.11,97.11,0,0,1-5.36,103.47h0l-9-9V132l-6.71-13.4-6.7-13.41V91.74L206.41,85,193,88.39l-23.46-10-3.35-23.47,10.05-10h20.11l6.7,10,20.11,3.36,20-6.68a.71.71,0,0,0,.18-.08Z"/><g id="Group_5212" data-name="Group 5212"><g id="企" class="cls-7"><text class="cls-8" transform="translate(235.76 283.08)">環境</text></g></g><g id="Group_5212-2" data-name="Group 5212"><g id="企-2" data-name="企" class="cls-7"><text class="cls-8" transform="translate(65.65 283.08)">經濟</text></g></g><circle class="cls-9" cx="206.68" cy="276.57" r="20"/><path class="cls-10" d="M194.47,268.72c0,7.14,2.14,8.43,2.14,8.43a4.67,4.67,0,0,0,6.41-6.8S201.59,268.31,194.47,268.72Z"/><path class="cls-10" d="M218.9,268.72c0,7.14-2.15,8.43-2.15,8.43a4.67,4.67,0,0,1-6.4-6.8S211.77,268.31,218.9,268.72Z"/><rect class="cls-11" x="196.44" y="275.5" width="11.68" height="1.15" transform="translate(244.29 -63.59) rotate(43.28)"/><rect class="cls-11" x="205.25" y="275.5" width="11.68" height="1.15" transform="translate(554.02 332.34) rotate(136.72)"/><rect class="cls-11" x="206.2" y="279.41" width="0.97" height="9.3"/><g id="Group_5212-3" data-name="Group 5212"><g id="企-3" data-name="企" class="cls-7"><text class="cls-8" transform="translate(65.65 394.89)">投資人趨勢</text></g></g><g id="Group_5212-4" data-name="Group 5212"><g id="企-4" data-name="企" class="cls-7"><text class="cls-8" transform="translate(65.65 334.38)">消費者趨勢</text></g></g><g id="Group_5212-5" data-name="Group 5212"><g id="企-5" data-name="企" class="cls-7"><text class="cls-8" transform="translate(235.76 334.2)">人口統計學</text></g></g><circle class="cls-9" cx="37.31" cy="383.47" r="20"/><circle class="cls-10" cx="36.87" cy="385.31" r="2.53"/><circle class="cls-10" cx="44.33" cy="383.49" r="2.53"/><path class="cls-10" d="M36.87,388.61a5,5,0,0,0-5,5H41.91A5,5,0,0,0,36.87,388.61Z"/><path class="cls-10" d="M42.1,391.93h6.75a5,5,0,0,0-9-3A5,5,0,0,1,42.1,391.93Z"/><circle class="cls-10" cx="29.41" cy="383.49" r="2.53"/><path class="cls-10" d="M31.64,391.93H24.9a5,5,0,0,1,9-3A5.07,5.07,0,0,0,31.64,391.93Z"/><polygon class="cls-11" points="38.58 379.13 35.29 375.21 30.7 379.06 29.72 377.89 35.48 373.06 38.75 376.97 44.53 371.99 45.53 373.14 38.58 379.13"/><polygon class="cls-11" points="46.76 370.81 41.67 372.17 45.4 375.89 46.76 370.81"/><circle class="cls-10" cx="140.77" cy="130.31" r="2.02"/><circle class="cls-10" cx="146.71" cy="128.86" r="2.02"/><path class="cls-10" d="M140.77,132.93a4,4,0,0,0-4,4h8A4,4,0,0,0,140.77,132.93Z"/><path class="cls-10" d="M144.94,135.58h5.37a4,4,0,0,0-4-4,4,4,0,0,0-3.18,1.59A4,4,0,0,1,144.94,135.58Z"/><circle class="cls-10" cx="134.83" cy="128.86" r="2.02"/><path class="cls-10" d="M136.61,135.58h-5.37a4,4,0,0,1,7.19-2.42A4,4,0,0,0,136.61,135.58Z"/><polygon class="cls-11" points="142.12 125.49 139.5 122.37 135.9 125.38 135.03 124.34 139.67 120.45 142.28 123.56 146.82 119.64 147.72 120.68 142.12 125.49"/><polygon class="cls-11" points="148.65 118.76 144.59 119.84 147.56 122.81 148.65 118.76"/><path id="Path_20218-3" data-name="Path 20218" class="cls-1" d="M124.37,194.66a29.69,29.69,0,0,0-22.12-27.3,20.76,20.76,0,0,0-33-10.77,15.49,15.49,0,0,0-28.6,7.47,15.73,15.73,0,0,0-2.57-.21,15.48,15.48,0,0,0-14.81,11A21,21,0,0,0,4.72,194.66Z"/><path id="Path_20218-4" data-name="Path 20218" class="cls-11" d="M136.05,173.36a8.92,8.92,0,0,0-7.87-8.43,6.58,6.58,0,0,0-7.38-4.57,6.58,6.58,0,0,0-12.15-3.18,8.83,8.83,0,0,0-14,4.58,12.61,12.61,0,0,0-9.39,11.6Z"/><path id="Path_20218-5" data-name="Path 20218" class="cls-11" d="M256.61,55a4.69,4.69,0,0,0-4.13-4.43,3.46,3.46,0,0,0-3.31-2.44,3.64,3.64,0,0,0-.57,0,3.46,3.46,0,0,0-6.38-1.66,4.62,4.62,0,0,0-7.36,2.4A6.62,6.62,0,0,0,229.92,55Z"/><path id="Path_20218-6" data-name="Path 20218" class="cls-11" d="M103,34.67a6.81,6.81,0,0,0-6-6.43,5,5,0,0,0-4.8-3.56,4.76,4.76,0,0,0-.84.07,5,5,0,0,0-9.27-2.42,6.72,6.72,0,0,0-10.7,3.49,9.63,9.63,0,0,0-7.18,8.85Z"/><circle class="cls-10" cx="237.81" cy="105.46" r="2.03"/><circle class="cls-10" cx="84.57" cy="73.25" r="2.03"/><circle class="cls-10" cx="235.82" cy="143.2" r="2.03"/><circle class="cls-9" cx="37.31" cy="276.57" r="20"/><circle class="cls-10" cx="37.31" cy="276.57" r="11.69"/><path class="cls-11" d="M37.31,286.71a10.14,10.14,0,1,1,10.14-10.14A10.14,10.14,0,0,1,37.31,286.71Zm0-19.77a9.63,9.63,0,1,0,9.63,9.63A9.64,9.64,0,0,0,37.31,266.94Z"/><path class="cls-11" d="M36.78,280.17V277a4.19,4.19,0,0,1-2.19-1.29,3.26,3.26,0,0,1-.69-2.1,2.92,2.92,0,0,1,.79-2.09,3.15,3.15,0,0,1,2.09-1v-.75h1.11v.75a3.27,3.27,0,0,1,1.92.83,3.13,3.13,0,0,1,.91,1.82l-1.92.25a1.55,1.55,0,0,0-.91-1.22v3a4.87,4.87,0,0,1,2.48,1.28,3,3,0,0,1,.66,2,3.35,3.35,0,0,1-.83,2.32A3.63,3.63,0,0,1,37.89,282v1.43H36.78V282a3.48,3.48,0,0,1-2.14-1,4.14,4.14,0,0,1-1-2.32l2-.21a2.5,2.5,0,0,0,.46,1A2.21,2.21,0,0,0,36.78,280.17Zm0-8a1.34,1.34,0,0,0-.71.52,1.31,1.31,0,0,0-.27.8,1.29,1.29,0,0,0,.24.75,1.73,1.73,0,0,0,.74.56Zm1.11,8.09a1.49,1.49,0,0,0,.92-.53,1.47,1.47,0,0,0,.36-1,1.36,1.36,0,0,0-.3-.88,2,2,0,0,0-1-.56Z"/><g id="Group_5212-6" data-name="Group 5212"><g id="企-6" data-name="企" class="cls-7"><text class="cls-8" transform="translate(65.65 233.13)">科技</text></g></g><circle class="cls-9" cx="37.31" cy="225.72" r="20"/><rect class="cls-11" x="29.73" y="212.52" width="15.67" height="25.34" rx="1.8"/><rect class="cls-9" x="31.03" y="214.32" width="13.06" height="20.69"/><circle class="cls-9" cx="37.57" cy="236.51" r="0.68"/><path class="cls-10" d="M37.57,226.42a.88.88,0,1,0,0,1.75.88.88,0,1,0,0-1.75Z"/><path class="cls-10" d="M39.71,225.22a3,3,0,0,0-4.29,0,.59.59,0,0,0,0,.83.62.62,0,0,0,.42.18.6.6,0,0,0,.42-.18,1.86,1.86,0,0,1,1.3-.53,1.83,1.83,0,0,1,1.31.54.6.6,0,0,0,.84,0A.6.6,0,0,0,39.71,225.22Z"/><path class="cls-10" d="M42.46,222.48a6.93,6.93,0,0,0-9.79,0,.6.6,0,0,0,0,.84.59.59,0,0,0,.42.17.61.61,0,0,0,.42-.17,5.75,5.75,0,0,1,8.12,0,.59.59,0,0,0,.42.17.58.58,0,0,0,.41-.17A.57.57,0,0,0,42.46,222.48Z"/><path class="cls-10" d="M41.05,223.88a4.94,4.94,0,0,0-7,0,.59.59,0,0,0-.17.42.58.58,0,0,0,.17.41.58.58,0,0,0,.84,0,3.75,3.75,0,0,1,2.64-1.09,3.7,3.7,0,0,1,2.65,1.1.61.61,0,0,0,.42.17.59.59,0,0,0,.42-.17.6.6,0,0,0,.18-.42A.62.62,0,0,0,41.05,223.88Z"/><rect class="cls-9" x="35.49" y="213.22" width="4.15" height="0.46"/><rect class="cls-11" x="197.88" y="45.18" width="13.02" height="21.05" rx="1.49"/><rect class="cls-9" x="198.96" y="46.67" width="10.85" height="17.19"/><circle class="cls-9" cx="204.39" cy="65.11" r="0.56"/><path class="cls-10" d="M204.39,56.72a.73.73,0,1,0,.73.73A.73.73,0,0,0,204.39,56.72Z"/><path class="cls-10" d="M206.17,55.73a2.54,2.54,0,0,0-1.78-.74,2.5,2.5,0,0,0-1.78.74.49.49,0,0,0,0,.69.5.5,0,0,0,.35.14.52.52,0,0,0,.35-.14,1.5,1.5,0,0,1,1.08-.45,1.51,1.51,0,0,1,1.08.45.49.49,0,0,0,.35.15.47.47,0,0,0,.35-.15A.49.49,0,0,0,206.17,55.73Z"/><path class="cls-10" d="M208.46,53.45a5.78,5.78,0,0,0-8.14,0,.49.49,0,0,0,.35.84.52.52,0,0,0,.35-.14,4.78,4.78,0,0,1,6.74,0,.48.48,0,0,0,.7,0A.49.49,0,0,0,208.46,53.45Z"/><path class="cls-10" d="M207.28,54.62a4.1,4.1,0,0,0-5.79,0,.52.52,0,0,0-.14.35.5.5,0,0,0,.14.35.52.52,0,0,0,.35.14.5.5,0,0,0,.35-.14,3.09,3.09,0,0,1,2.2-.91,3.13,3.13,0,0,1,2.2.91.49.49,0,0,0,.35.15.49.49,0,0,0,.34-.15.45.45,0,0,0,.15-.34A.45.45,0,0,0,207.28,54.62Z"/><rect class="cls-9" x="202.67" y="45.76" width="3.45" height="0.38"/><rect class="cls-11" x="243.8" y="84.24" width="13.02" height="21.05" rx="1.49"/><rect class="cls-9" x="244.88" y="85.73" width="10.85" height="17.19"/><circle class="cls-9" cx="250.31" cy="104.17" r="0.56"/><path class="cls-10" d="M250.31,95.78a.73.73,0,1,0,.73.73A.73.73,0,0,0,250.31,95.78Z"/><path class="cls-10" d="M252.09,94.79a2.52,2.52,0,0,0-3.56,0,.49.49,0,0,0,.35.84.48.48,0,0,0,.34-.14,1.54,1.54,0,0,1,1.09-.45,1.51,1.51,0,0,1,1.08.45.48.48,0,0,0,.7,0A.49.49,0,0,0,252.09,94.79Z"/><path class="cls-10" d="M254.38,92.51a5.78,5.78,0,0,0-8.14,0,.49.49,0,0,0,.35.84.52.52,0,0,0,.35-.14,4.78,4.78,0,0,1,6.74,0,.5.5,0,0,0,.35.14.52.52,0,0,0,.35-.14A.49.49,0,0,0,254.38,92.51Z"/><path class="cls-10" d="M253.2,93.68a4,4,0,0,0-2.89-1.2,4.08,4.08,0,0,0-2.9,1.19.5.5,0,0,0-.14.35.48.48,0,0,0,.49.49.5.5,0,0,0,.35-.14,3.11,3.11,0,0,1,4.4,0,.48.48,0,0,0,.35.14.48.48,0,0,0,.34-.14.47.47,0,0,0,.15-.35A.45.45,0,0,0,253.2,93.68Z"/><rect class="cls-9" x="248.59" y="84.82" width="3.45" height="0.38"/><rect class="cls-11" x="173.4" y="8.05" width="13.02" height="21.05" rx="1.49"/><rect class="cls-9" x="174.48" y="9.54" width="10.85" height="17.19"/><circle class="cls-9" cx="179.91" cy="27.98" r="0.56"/><path class="cls-10" d="M179.91,19.59a.73.73,0,1,0,.73.73A.73.73,0,0,0,179.91,19.59Z"/><path class="cls-10" d="M181.69,18.6a2.52,2.52,0,0,0-3.56,0,.49.49,0,0,0,0,.7.48.48,0,0,0,.35.14.48.48,0,0,0,.34-.14,1.53,1.53,0,0,1,2.17,0,.51.51,0,0,0,.35.15.53.53,0,0,0,.35-.15A.49.49,0,0,0,181.69,18.6Z"/><path class="cls-10" d="M184,16.32a5.78,5.78,0,0,0-8.14,0,.5.5,0,0,0,0,.7.48.48,0,0,0,.35.14.48.48,0,0,0,.34-.14,4.79,4.79,0,0,1,6.75,0,.5.5,0,0,0,.35.14A.52.52,0,0,0,184,17,.49.49,0,0,0,184,16.32Z"/><path class="cls-10" d="M182.8,17.49a4.1,4.1,0,0,0-5.79,0,.5.5,0,0,0-.14.35.52.52,0,0,0,.14.35.5.5,0,0,0,.35.14.52.52,0,0,0,.35-.14,3.11,3.11,0,0,1,4.4,0,.48.48,0,0,0,.34.14.48.48,0,0,0,.35-.14.51.51,0,0,0,.15-.35A.45.45,0,0,0,182.8,17.49Z"/><rect class="cls-9" x="178.18" y="8.63" width="3.45" height="0.38"/><rect class="cls-11" x="103.51" y="40.39" width="13.02" height="21.05" rx="1.49"/><rect class="cls-9" x="104.59" y="41.88" width="10.85" height="17.19"/><circle class="cls-9" cx="110.02" cy="60.32" r="0.56"/><path class="cls-10" d="M110,51.93a.73.73,0,1,0,.73.73A.73.73,0,0,0,110,51.93Z"/><path class="cls-10" d="M111.8,50.94A2.5,2.5,0,0,0,110,50.2a2.46,2.46,0,0,0-1.77.74.49.49,0,0,0,.34.83.48.48,0,0,0,.35-.14,1.53,1.53,0,0,1,2.17,0,.47.47,0,0,0,.35.15.5.5,0,0,0,.35-.84Z"/><path class="cls-10" d="M114.09,48.66a5.78,5.78,0,0,0-8.14,0,.48.48,0,0,0,0,.7.48.48,0,0,0,.34.14.48.48,0,0,0,.35-.14,4.79,4.79,0,0,1,6.75,0,.51.51,0,0,0,.35.15.49.49,0,0,0,.34-.15A.48.48,0,0,0,114.09,48.66Z"/><path class="cls-10" d="M112.91,49.83a4.1,4.1,0,0,0-5.79,0,.51.51,0,0,0,0,.7.5.5,0,0,0,.35.14.52.52,0,0,0,.35-.14,3.1,3.1,0,0,1,4.39,0,.53.53,0,0,0,.35.15.51.51,0,0,0,.35-.15.49.49,0,0,0,.15-.35A.49.49,0,0,0,112.91,49.83Z"/><rect class="cls-9" x="108.29" y="40.97" width="3.45" height="0.38"/><rect class="cls-11" x="86.07" y="105.12" width="13.02" height="21.05" rx="1.49"/><rect class="cls-9" x="87.15" y="106.62" width="10.85" height="17.19"/><circle class="cls-9" cx="92.58" cy="125.05" r="0.56"/><path class="cls-10" d="M92.58,116.67a.73.73,0,1,0,.73.73A.73.73,0,0,0,92.58,116.67Z"/><path class="cls-10" d="M94.36,115.68a2.52,2.52,0,0,0-3.56,0,.49.49,0,0,0,0,.69.47.47,0,0,0,.35.15.48.48,0,0,0,.34-.14,1.54,1.54,0,0,1,1.09-.45,1.51,1.51,0,0,1,1.08.45.5.5,0,0,0,.35.14.52.52,0,0,0,.35-.14A.49.49,0,0,0,94.36,115.68Z"/><path class="cls-10" d="M96.65,113.39a5.77,5.77,0,0,0-8.14,0,.49.49,0,0,0,0,.69.47.47,0,0,0,.35.15.49.49,0,0,0,.35-.15,4.77,4.77,0,0,1,6.74,0,.5.5,0,0,0,.35.14.52.52,0,0,0,.35-.14A.5.5,0,0,0,96.65,113.39Z"/><path class="cls-10" d="M95.47,114.56a4.12,4.12,0,0,0-5.79,0,.5.5,0,0,0-.14.35.48.48,0,0,0,.14.34.49.49,0,0,0,.35.15.47.47,0,0,0,.35-.15,3.12,3.12,0,0,1,2.2-.9,3.09,3.09,0,0,1,2.2.91.48.48,0,0,0,.35.14.48.48,0,0,0,.34-.14.47.47,0,0,0,.15-.35A.49.49,0,0,0,95.47,114.56Z"/><rect class="cls-9" x="90.86" y="105.7" width="3.45" height="0.38"/><polyline class="cls-12" points="231.41 97.95 231.41 87.84 236.38 87.84 236.38 97.95"/><rect class="cls-2" x="232.35" y="90" width="0.77" height="0.77"/><rect class="cls-2" x="233.52" y="90" width="0.77" height="0.77"/><rect class="cls-2" x="234.68" y="90" width="0.77" height="0.77"/><rect class="cls-2" x="232.35" y="91.13" width="0.77" height="0.77"/><rect class="cls-2" x="233.52" y="91.13" width="0.77" height="0.77"/><rect class="cls-2" x="234.68" y="91.13" width="0.77" height="0.77"/><rect class="cls-2" x="232.35" y="92.25" width="0.77" height="0.77"/><rect class="cls-2" x="233.52" y="92.25" width="0.77" height="0.77"/><rect class="cls-2" x="234.68" y="92.25" width="0.77" height="0.77"/><rect class="cls-2" x="232.35" y="93.38" width="0.77" height="0.77"/><rect class="cls-2" x="233.52" y="93.38" width="0.77" height="0.77"/><rect class="cls-2" x="234.68" y="93.38" width="0.77" height="0.77"/><rect class="cls-2" x="232.35" y="94.5" width="0.77" height="0.77"/><rect class="cls-2" x="233.52" y="94.5" width="0.77" height="0.77"/><rect class="cls-2" x="234.68" y="94.5" width="0.77" height="0.77"/><polyline class="cls-12" points="237.48 97.95 237.48 90.77 241.01 91.89 241.01 97.95"/><line class="cls-12" x1="238.71" y1="91.03" x2="238.71" y2="97.98"/><line class="cls-12" x1="239.97" y1="91.55" x2="239.97" y2="97.98"/><line class="cls-12" x1="226.77" y1="97.95" x2="242.13" y2="97.95"/><line class="cls-12" x1="231.41" y1="88.95" x2="236.39" y2="88.95"/><polyline class="cls-12" points="231.41 92.89 229.09 92.89 229.09 97.95"/><polyline class="cls-12" points="186.27 74.72 186.27 64.62 191.24 64.62 191.24 74.72"/><rect class="cls-2" x="187.21" y="66.78" width="0.77" height="0.77"/><rect class="cls-2" x="188.37" y="66.78" width="0.77" height="0.77"/><rect class="cls-2" x="189.54" y="66.78" width="0.77" height="0.77"/><rect class="cls-2" x="187.21" y="67.9" width="0.77" height="0.77"/><rect class="cls-2" x="188.37" y="67.9" width="0.77" height="0.77"/><rect class="cls-2" x="189.54" y="67.9" width="0.77" height="0.77"/><rect class="cls-2" x="187.21" y="69.03" width="0.77" height="0.77"/><rect class="cls-2" x="188.37" y="69.03" width="0.77" height="0.77"/><rect class="cls-2" x="189.54" y="69.03" width="0.77" height="0.77"/><rect class="cls-2" x="187.21" y="70.16" width="0.77" height="0.77"/><rect class="cls-2" x="188.37" y="70.16" width="0.77" height="0.77"/><rect class="cls-2" x="189.54" y="70.16" width="0.77" height="0.77"/><rect class="cls-2" x="187.21" y="71.28" width="0.77" height="0.77"/><rect class="cls-2" x="188.37" y="71.28" width="0.77" height="0.77"/><rect class="cls-2" x="189.54" y="71.28" width="0.77" height="0.77"/><polyline class="cls-12" points="192.34 74.72 192.34 67.55 195.87 68.67 195.87 74.72"/><line class="cls-12" x1="193.57" y1="67.81" x2="193.57" y2="74.76"/><line class="cls-12" x1="194.83" y1="68.33" x2="194.83" y2="74.76"/><line class="cls-12" x1="178.93" y1="74.73" x2="196.99" y2="74.73"/><line class="cls-12" x1="186.27" y1="65.72" x2="191.24" y2="65.72"/><polyline class="cls-12" points="186.27 69.67 183.95 69.67 183.95 74.72"/><polyline class="cls-12" points="105.24 30.5 105.24 20.4 110.21 20.4 110.21 30.5"/><rect class="cls-2" x="106.18" y="22.56" width="0.77" height="0.77"/><rect class="cls-2" x="107.34" y="22.56" width="0.77" height="0.77"/><rect class="cls-2" x="108.51" y="22.56" width="0.77" height="0.77"/><rect class="cls-2" x="106.18" y="23.68" width="0.77" height="0.77"/><rect class="cls-2" x="107.34" y="23.68" width="0.77" height="0.77"/><rect class="cls-2" x="108.51" y="23.68" width="0.77" height="0.77"/><rect class="cls-2" x="106.18" y="24.81" width="0.77" height="0.77"/><rect class="cls-2" x="107.34" y="24.81" width="0.77" height="0.77"/><rect class="cls-2" x="108.51" y="24.81" width="0.77" height="0.77"/><rect class="cls-2" x="106.18" y="25.93" width="0.77" height="0.77"/><rect class="cls-2" x="107.34" y="25.93" width="0.77" height="0.77"/><rect class="cls-2" x="108.51" y="25.93" width="0.77" height="0.77"/><rect class="cls-2" x="106.18" y="27.06" width="0.77" height="0.77"/><rect class="cls-2" x="107.34" y="27.06" width="0.77" height="0.77"/><rect class="cls-2" x="108.51" y="27.06" width="0.77" height="0.77"/><polyline class="cls-12" points="111.31 30.5 111.31 23.32 114.84 24.45 114.84 30.5"/><line class="cls-12" x1="112.54" y1="23.59" x2="112.54" y2="30.53"/><line class="cls-12" x1="113.8" y1="24.11" x2="113.8" y2="30.53"/><line class="cls-12" x1="100.6" y1="30.5" x2="115.96" y2="30.5"/><line class="cls-12" x1="105.24" y1="21.5" x2="110.21" y2="21.5"/><polyline class="cls-12" points="105.24 25.45 102.92 25.45 102.92 30.5"/><polyline class="cls-12" points="237.38 127.85 237.38 117.74 242.35 117.74 242.35 127.85"/><rect class="cls-2" x="238.32" y="119.9" width="0.77" height="0.77"/><rect class="cls-2" x="239.48" y="119.9" width="0.77" height="0.77"/><rect class="cls-2" x="240.65" y="119.9" width="0.77" height="0.77"/><rect class="cls-2" x="238.32" y="121.03" width="0.77" height="0.77"/><rect class="cls-2" x="239.48" y="121.03" width="0.77" height="0.77"/><rect class="cls-2" x="240.65" y="121.03" width="0.77" height="0.77"/><rect class="cls-2" x="238.32" y="122.15" width="0.77" height="0.77"/><rect class="cls-2" x="239.48" y="122.15" width="0.77" height="0.77"/><rect class="cls-2" x="240.65" y="122.15" width="0.77" height="0.77"/><rect class="cls-2" x="238.32" y="123.28" width="0.77" height="0.77"/><rect class="cls-2" x="239.48" y="123.28" width="0.77" height="0.77"/><rect class="cls-2" x="240.65" y="123.28" width="0.77" height="0.77"/><rect class="cls-2" x="238.32" y="124.41" width="0.77" height="0.77"/><rect class="cls-2" x="239.48" y="124.41" width="0.77" height="0.77"/><rect class="cls-2" x="240.65" y="124.41" width="0.77" height="0.77"/><polyline class="cls-12" points="242.51 127.85 242.51 120.67 246.05 121.8 246.05 127.85"/><line class="cls-12" x1="232.74" y1="127.85" x2="248.09" y2="127.85"/><line class="cls-12" x1="237.38" y1="118.85" x2="242.35" y2="118.85"/><polyline class="cls-12" points="237.38 122.8 235.06 122.8 235.06 127.85"/><rect class="cls-2" x="243.9" y="122.72" width="0.77" height="0.77"/><rect class="cls-2" x="243.9" y="123.84" width="0.77" height="0.77"/><rect class="cls-2" x="235.84" y="124.05" width="0.77" height="0.77"/><rect class="cls-2" x="235.84" y="125.17" width="0.77" height="0.77"/><polyline class="cls-12" points="130.05 144.66 130.05 134.56 125.08 134.56 125.08 144.66"/><rect class="cls-2" x="128.35" y="136.71" width="0.77" height="0.77" transform="translate(257.46 274.19) rotate(-180)"/><rect class="cls-2" x="127.18" y="136.71" width="0.77" height="0.77" transform="translate(255.13 274.19) rotate(-180)"/><rect class="cls-2" x="126.02" y="136.71" width="0.77" height="0.77" transform="translate(252.8 274.19) rotate(-180)"/><rect class="cls-2" x="128.35" y="137.84" width="0.77" height="0.77" transform="translate(257.46 276.44) rotate(-180)"/><rect class="cls-2" x="127.18" y="137.84" width="0.77" height="0.77" transform="translate(255.13 276.44) rotate(-180)"/><rect class="cls-2" x="126.02" y="137.84" width="0.77" height="0.77" transform="translate(252.8 276.44) rotate(-180)"/><rect class="cls-2" x="128.35" y="138.96" width="0.77" height="0.77" transform="translate(257.46 278.7) rotate(-180)"/><rect class="cls-2" x="127.18" y="138.96" width="0.77" height="0.77" transform="translate(255.13 278.7) rotate(-180)"/><rect class="cls-2" x="126.02" y="138.96" width="0.77" height="0.77" transform="translate(252.8 278.7) rotate(-180)"/><rect class="cls-2" x="128.35" y="140.09" width="0.77" height="0.77" transform="translate(257.46 280.95) rotate(-180)"/><rect class="cls-2" x="127.18" y="140.09" width="0.77" height="0.77" transform="translate(255.13 280.95) rotate(-180)"/><rect class="cls-2" x="126.02" y="140.09" width="0.77" height="0.77" transform="translate(252.8 280.95) rotate(-180)"/><rect class="cls-2" x="128.35" y="141.22" width="0.77" height="0.77" transform="translate(257.46 283.2) rotate(-180)"/><rect class="cls-2" x="127.18" y="141.22" width="0.77" height="0.77" transform="translate(255.13 283.2) rotate(-180)"/><rect class="cls-2" x="126.02" y="141.22" width="0.77" height="0.77" transform="translate(252.8 283.2) rotate(-180)"/><polyline class="cls-12" points="124.92 144.66 124.92 137.48 121.39 138.61 121.39 144.66"/><line class="cls-12" x1="134.7" y1="144.66" x2="119.34" y2="144.66"/><line class="cls-12" x1="130.05" y1="135.66" x2="125.08" y2="135.66"/><polyline class="cls-12" points="130.05 139.61 132.37 139.61 132.37 144.66"/><rect class="cls-2" x="122.77" y="139.53" width="0.77" height="0.77" transform="translate(246.31 279.82) rotate(-180)"/><rect class="cls-2" x="122.77" y="140.65" width="0.77" height="0.77" transform="translate(246.31 282.08) rotate(-180)"/><rect class="cls-2" x="130.83" y="140.86" width="0.77" height="0.77" transform="translate(262.42 282.48) rotate(-180)"/><rect class="cls-2" x="130.83" y="141.98" width="0.77" height="0.77" transform="translate(262.42 284.74) rotate(-180)"/><polyline class="cls-12" points="108.28 111.83 108.28 101.73 103.3 101.73 103.3 111.83"/><rect class="cls-2" x="106.57" y="103.89" width="0.77" height="0.77" transform="translate(213.91 208.54) rotate(-180)"/><rect class="cls-2" x="105.41" y="103.89" width="0.77" height="0.77" transform="translate(211.58 208.54) rotate(-180)"/><rect class="cls-2" x="104.24" y="103.89" width="0.77" height="0.77" transform="translate(209.25 208.54) rotate(-180)"/><rect class="cls-2" x="106.57" y="105.01" width="0.77" height="0.77" transform="translate(213.91 210.79) rotate(-180)"/><rect class="cls-2" x="105.41" y="105.01" width="0.77" height="0.77" transform="translate(211.58 210.79) rotate(-180)"/><rect class="cls-2" x="104.24" y="105.01" width="0.77" height="0.77" transform="translate(209.25 210.79) rotate(-180)"/><rect class="cls-2" x="106.57" y="106.14" width="0.77" height="0.77" transform="translate(213.91 213.05) rotate(-180)"/><rect class="cls-2" x="105.41" y="106.14" width="0.77" height="0.77" transform="translate(211.58 213.05) rotate(-180)"/><rect class="cls-2" x="104.24" y="106.14" width="0.77" height="0.77" transform="translate(209.25 213.05) rotate(-180)"/><rect class="cls-2" x="106.57" y="107.27" width="0.77" height="0.77" transform="translate(213.91 215.3) rotate(-180)"/><rect class="cls-2" x="105.41" y="107.27" width="0.77" height="0.77" transform="translate(211.58 215.3) rotate(-180)"/><rect class="cls-2" x="104.24" y="107.27" width="0.77" height="0.77" transform="translate(209.25 215.3) rotate(-180)"/><rect class="cls-2" x="106.57" y="108.39" width="0.77" height="0.77" transform="translate(213.91 217.55) rotate(-180)"/><rect class="cls-2" x="105.41" y="108.39" width="0.77" height="0.77" transform="translate(211.58 217.55) rotate(-180)"/><rect class="cls-2" x="104.24" y="108.39" width="0.77" height="0.77" transform="translate(209.25 217.55) rotate(-180)"/><polyline class="cls-12" points="103.14 111.83 103.14 104.65 99.61 105.78 99.61 111.83"/><line class="cls-12" x1="112.92" y1="111.83" x2="97.56" y2="111.83"/><line class="cls-12" x1="108.28" y1="102.83" x2="103.3" y2="102.83"/><polyline class="cls-12" points="108.28 106.78 110.6 106.78 110.6 111.83"/><rect class="cls-2" x="100.99" y="106.7" width="0.77" height="0.77" transform="translate(202.76 214.17) rotate(-180)"/><rect class="cls-2" x="100.99" y="107.83" width="0.77" height="0.77" transform="translate(202.76 216.43) rotate(-180)"/><rect class="cls-2" x="109.05" y="108.03" width="0.77" height="0.77" transform="translate(218.87 216.83) rotate(-180)"/><rect class="cls-2" x="109.05" y="109.16" width="0.77" height="0.77" transform="translate(218.87 219.09) rotate(-180)"/><polyline class="cls-12" points="132.92 117.74 132.92 110.56 129.02 111.69 129.02 117.74"/><line class="cls-12" x1="137.05" y1="117.74" x2="127.34" y2="117.74"/><polyline class="cls-12" points="132.92 112.69 135.24 112.69 135.24 117.74"/><rect class="cls-2" x="133.69" y="113.94" width="0.77" height="0.77" transform="translate(268.16 228.65) rotate(-180)"/><rect class="cls-2" x="133.69" y="115.07" width="0.77" height="0.77" transform="translate(268.16 230.9) rotate(-180)"/><line class="cls-12" x1="130.33" y1="111.31" x2="130.33" y2="117.74"/><line class="cls-12" x1="131.66" y1="111.14" x2="131.66" y2="117.74"/><polyline class="cls-12" points="234.62 77.19 234.62 70.01 230.72 71.14 230.72 77.19"/><line class="cls-12" x1="238.76" y1="77.19" x2="229.04" y2="77.19"/><polyline class="cls-12" points="234.62 72.14 236.94 72.14 236.94 77.19"/><rect class="cls-2" x="235.4" y="73.39" width="0.77" height="0.77" transform="translate(471.57 147.54) rotate(-180)"/><rect class="cls-2" x="235.4" y="74.51" width="0.77" height="0.77" transform="translate(471.57 149.8) rotate(-180)"/><line class="cls-12" x1="232.04" y1="70.75" x2="232.04" y2="77.19"/><line class="cls-12" x1="233.36" y1="70.58" x2="233.36" y2="77.19"/><polyline class="cls-12" points="194.45 25.38 194.45 18.2 190.55 19.33 190.55 25.38"/><line class="cls-12" x1="198.59" y1="25.38" x2="188.87" y2="25.38"/><polyline class="cls-12" points="194.45 20.33 196.77 20.33 196.77 25.38"/><rect class="cls-2" x="195.23" y="21.58" width="0.77" height="0.77" transform="translate(391.23 43.92) rotate(-180)"/><rect class="cls-2" x="195.23" y="22.7" width="0.77" height="0.77" transform="translate(391.23 46.17) rotate(-180)"/><line class="cls-12" x1="191.87" y1="18.94" x2="191.87" y2="25.38"/><line class="cls-12" x1="193.19" y1="18.77" x2="193.19" y2="25.38"/><polyline class="cls-12" points="123.06 42.27 123.06 35.09 119.16 36.22 119.16 42.27"/><line class="cls-12" x1="130.6" y1="42.27" x2="117.48" y2="42.27"/><polyline class="cls-12" points="123.06 37.22 125.39 37.22 125.39 42.27"/><rect class="cls-2" x="123.84" y="38.47" width="0.77" height="0.77" transform="translate(248.45 77.7) rotate(-180)"/><rect class="cls-2" x="123.84" y="39.6" width="0.77" height="0.77" transform="translate(248.45 79.96) rotate(-180)"/><line class="cls-12" x1="120.48" y1="35.83" x2="120.48" y2="42.27"/><line class="cls-12" x1="121.8" y1="35.66" x2="121.8" y2="42.27"/><polyline class="cls-12" points="84.65 57.2 84.65 50.02 80.75 51.14 80.75 57.2"/><line class="cls-12" x1="88.79" y1="57.2" x2="79.07" y2="57.2"/><polyline class="cls-12" points="84.65 52.14 86.97 52.14 86.97 57.2"/><rect class="cls-2" x="85.43" y="53.39" width="0.77" height="0.77" transform="translate(171.63 107.55) rotate(-180)"/><rect class="cls-2" x="85.43" y="54.52" width="0.77" height="0.77" transform="translate(171.63 109.81) rotate(-180)"/><line class="cls-12" x1="82.07" y1="50.76" x2="82.07" y2="57.2"/><line class="cls-12" x1="83.39" y1="50.59" x2="83.39" y2="57.2"/><circle class="cls-2" cx="181.36" cy="71.28" r="1.58"/><line class="cls-12" x1="181.36" y1="70.54" x2="181.36" y2="74.76"/><circle class="cls-2" cx="129.02" cy="38.8" r="1.58"/><line class="cls-12" x1="129.02" y1="38.06" x2="129.02" y2="42.27"/><circle class="cls-2" cx="202.24" cy="22.14" r="1.58"/><line class="cls-12" x1="202.24" y1="21.4" x2="202.24" y2="25.62"/><circle class="cls-2" cx="113.8" cy="107.83" r="1.58"/><line class="cls-12" x1="113.8" y1="107.09" x2="113.8" y2="111.3"/><circle class="cls-2" cx="226.05" cy="74.23" r="1.58"/><line class="cls-12" x1="226.05" y1="73.49" x2="226.05" y2="77.71"/><path class="cls-10" d="M220,121c0,8,2.41,9.46,2.41,9.46a5.23,5.23,0,0,0,7.18-7.62S227.94,120.49,220,121Z"/><path class="cls-10" d="M247.36,121c0,8-2.41,9.46-2.41,9.46a5.23,5.23,0,1,1-7.18-7.62S239.36,120.49,247.36,121Z"/><rect class="cls-11" x="222.16" y="128.56" width="13.1" height="1.29" transform="translate(150.79 -121.66) rotate(43.28)"/><rect class="cls-11" x="232.04" y="128.56" width="13.1" height="1.29" transform="translate(500.87 59.69) rotate(136.72)"/><rect class="cls-11" x="233.11" y="132.95" width="1.09" height="10.44"/><path class="cls-10" d="M199.76,70.32c0,8,2.41,9.46,2.41,9.46a5.23,5.23,0,1,0,7.18-7.62S207.76,69.86,199.76,70.32Z"/><path class="cls-10" d="M227.17,70.32c0,8-2.41,9.46-2.41,9.46a5.23,5.23,0,1,1-7.18-7.62S219.17,69.86,227.17,70.32Z"/><rect class="cls-11" x="201.98" y="77.93" width="13.1" height="1.29" transform="translate(110.59 -121.59) rotate(43.28)"/><rect class="cls-11" x="211.85" y="77.93" width="13.1" height="1.29" transform="translate(431.27 -13.96) rotate(136.72)"/><rect class="cls-11" x="212.92" y="82.32" width="1.09" height="10.44"/><circle class="cls-10" cx="226.05" cy="104.27" r="10.73"/><circle class="cls-13" cx="226.05" cy="104.27" r="9.07"/><path class="cls-11" d="M225.56,107.57v-2.93a3.87,3.87,0,0,1-2-1.18,3,3,0,0,1-.64-1.92,2.7,2.7,0,0,1,.73-1.93,2.89,2.89,0,0,1,1.92-.89V98h1v.69a3.06,3.06,0,0,1,1.77.75,3,3,0,0,1,.84,1.68l-1.77.23a1.44,1.44,0,0,0-.84-1.12V103a4.38,4.38,0,0,1,2.28,1.18,2.75,2.75,0,0,1,.61,1.85,3.11,3.11,0,0,1-.76,2.13,3.35,3.35,0,0,1-2.13,1.06v1.31h-1v-1.27a3.19,3.19,0,0,1-2-.91,3.65,3.65,0,0,1-1-2.12l1.83-.2a2.31,2.31,0,0,0,.41,1A2,2,0,0,0,225.56,107.57Zm0-7.33a1.32,1.32,0,0,0-.66.47,1.26,1.26,0,0,0-.24.74,1.16,1.16,0,0,0,.22.69,1.59,1.59,0,0,0,.68.51Zm1,7.43a1.44,1.44,0,0,0,.85-.49,1.36,1.36,0,0,0,.33-.91,1.28,1.28,0,0,0-.27-.81,1.92,1.92,0,0,0-.91-.52Z"/><circle class="cls-10" cx="246.05" cy="62.15" r="10.73"/><circle class="cls-13" cx="246.05" cy="62.15" r="9.07"/><path class="cls-11" d="M245.56,65.45V62.53a3.83,3.83,0,0,1-2-1.19,2.93,2.93,0,0,1-.64-1.92,2.73,2.73,0,0,1,.72-1.92,3,3,0,0,1,1.93-.9v-.69h1v.69a3,3,0,0,1,1.77.76,2.92,2.92,0,0,1,.83,1.67l-1.76.23a1.44,1.44,0,0,0-.84-1.12v2.73a4.53,4.53,0,0,1,2.28,1.18,2.75,2.75,0,0,1,.61,1.85A3.07,3.07,0,0,1,248.7,66a3.35,3.35,0,0,1-2.13,1.06V68.4h-1V67.13a3.23,3.23,0,0,1-2-.9,3.65,3.65,0,0,1-1-2.13l1.82-.2a2.45,2.45,0,0,0,.42,1A2,2,0,0,0,245.56,65.45Zm0-7.33a1.29,1.29,0,0,0-.9,1.22,1.15,1.15,0,0,0,.22.68,1.47,1.47,0,0,0,.68.52Zm1,7.43a1.43,1.43,0,0,0,.85-.48,1.39,1.39,0,0,0,.33-.92,1.18,1.18,0,0,0-.28-.8,1.69,1.69,0,0,0-.9-.52Z"/><circle class="cls-10" cx="178.13" cy="52.14" r="10.73"/><circle class="cls-13" cx="178.13" cy="52.14" r="9.07"/><path class="cls-11" d="M177.64,55.44V52.52a3.87,3.87,0,0,1-2-1.19,3,3,0,0,1-.64-1.92,2.69,2.69,0,0,1,.73-1.92,2.9,2.9,0,0,1,1.92-.9V45.9h1v.69a3,3,0,0,1,1.77.76,2.93,2.93,0,0,1,.84,1.67l-1.77.23a1.44,1.44,0,0,0-.84-1.12v2.73A4.45,4.45,0,0,1,180.93,52a2.75,2.75,0,0,1,.61,1.85,3.11,3.11,0,0,1-.76,2.13,3.35,3.35,0,0,1-2.13,1.06v1.31h-1V57.12a3.23,3.23,0,0,1-2-.9,3.71,3.71,0,0,1-1-2.13l1.83-.2a2.36,2.36,0,0,0,.41,1A2,2,0,0,0,177.64,55.44Zm0-7.33a1.28,1.28,0,0,0-.66.48,1.23,1.23,0,0,0-.24.74A1.15,1.15,0,0,0,177,50a1.53,1.53,0,0,0,.68.52Zm1,7.43a1.44,1.44,0,0,0,.85-.49,1.34,1.34,0,0,0,.33-.91,1.23,1.23,0,0,0-.27-.8,1.77,1.77,0,0,0-.91-.52Z"/><circle class="cls-9" cx="37.31" cy="328.37" r="20"/><rect class="cls-10" x="32.76" y="327.58" width="3.8" height="8.7"/><rect class="cls-10" x="27.46" y="330.09" width="3.8" height="6.18"/><rect class="cls-10" x="38.07" y="323.91" width="3.8" height="12.37"/><rect class="cls-10" x="43.37" y="320.47" width="3.8" height="15.8"/><polygon class="cls-11" points="34.63 325.38 31.34 321.45 26.75 325.3 25.77 324.13 31.53 319.31 34.8 323.21 40.59 318.24 41.58 319.39 34.63 325.38"/><polygon class="cls-11" points="42.81 317.05 37.72 318.42 41.45 322.14 42.81 317.05"/><rect class="cls-10" x="122.31" y="97.5" width="3.17" height="7.26"/><rect class="cls-10" x="117.88" y="99.6" width="3.17" height="5.17"/><rect class="cls-10" x="126.75" y="94.44" width="3.17" height="10.33"/><rect class="cls-10" x="131.18" y="91.57" width="3.17" height="13.2"/><polygon class="cls-11" points="123.86 95.78 121.11 92.5 117.34 95.66 116.42 94.57 121.29 90.48 124.03 93.75 128.8 89.64 129.73 90.72 123.86 95.78"/><polygon class="cls-11" points="130.71 88.71 126.46 89.85 129.57 92.96 130.71 88.71"/><rect class="cls-10" x="126.87" y="16.47" width="3.17" height="7.26"/><rect class="cls-10" x="122.44" y="18.57" width="3.17" height="5.17"/><rect class="cls-10" x="131.3" y="13.41" width="3.17" height="10.33"/><rect class="cls-10" x="135.73" y="10.54" width="3.17" height="13.2"/><polygon class="cls-11" points="128.42 14.75 125.67 11.47 121.89 14.63 120.97 13.54 125.85 9.45 128.58 12.72 133.35 8.61 134.29 9.7 128.42 14.75"/><polygon class="cls-11" points="135.26 7.68 131.01 8.82 134.12 11.93 135.26 7.68"/><circle class="cls-9" cx="206.68" cy="330.52" r="20"/><circle class="cls-11" cx="206.99" cy="331.89" r="2.53"/><circle class="cls-11" cx="214.45" cy="330.06" r="2.53"/><path class="cls-11" d="M207,335.18a5,5,0,0,0-5,5H212A5,5,0,0,0,207,335.18Z"/><path class="cls-11" d="M212.22,338.5H219a5,5,0,0,0-9-3A5.07,5.07,0,0,1,212.22,338.5Z"/><circle class="cls-11" cx="199.53" cy="330.06" r="2.53"/><path class="cls-11" d="M201.75,338.5H195a5,5,0,0,1,9-3A5.07,5.07,0,0,0,201.75,338.5Z"/><rect class="cls-10" x="198.78" y="319.5" width="16.52" height="1.52"/><rect class="cls-10" x="198.78" y="323.14" width="16.52" height="1.52"/><circle class="cls-11" cx="89.75" cy="81.62" r="2.01"/><circle class="cls-11" cx="95.67" cy="80.18" r="2.01"/><path class="cls-11" d="M89.75,84.24a4,4,0,0,0-4,4h8A4,4,0,0,0,89.75,84.24Z"/><path class="cls-11" d="M93.9,86.87h5.36a4,4,0,0,0-7.18-2.41A4,4,0,0,1,93.9,86.87Z"/><circle class="cls-11" cx="83.83" cy="80.18" r="2.01"/><path class="cls-11" d="M85.6,86.87H80.24a4,4,0,0,1,7.17-2.41A4,4,0,0,0,85.6,86.87Z"/><rect class="cls-10" x="83.23" y="71.72" width="13.11" height="1.36"/><rect class="cls-10" x="83.23" y="74.6" width="13.11" height="1.36"/><g id="Group_5212-7" data-name="Group 5212"><g id="企-7" data-name="企" class="cls-7"><text class="cls-8" transform="translate(235.76 233.13)">監管法規</text></g></g><circle class="cls-9" cx="206.68" cy="224.86" r="20"/><path class="cls-11" d="M212.87,231.9a4.87,4.87,0,0,1-.51-3.87,2.37,2.37,0,0,1,2.48-1.37v-12H198.08v20.39h14.25C214,233.58,213.28,232.7,212.87,231.9Z"/><rect class="cls-10" x="200.88" y="218.74" width="11.15" height="1.2" rx="0.6"/><rect class="cls-10" x="200.88" y="222.04" width="11.15" height="1.2" rx="0.6"/><rect class="cls-10" x="200.88" y="225.35" width="11.15" height="1.2" rx="0.6"/><rect class="cls-10" x="200.88" y="228.65" width="11.15" height="1.2" rx="0.6"/><rect class="cls-11" x="212.49" y="235.97" width="4.71" height="0.83" rx="0.42"/><path class="cls-10" d="M214.84,234.09A1.89,1.89,0,0,0,213,236h3.78A1.89,1.89,0,0,0,214.84,234.09Z"/><path class="cls-10" d="M214.84,233.71a1.86,1.86,0,0,1,.58.1c.16-1.24,1.28-2.64,1.39-4.35.12-2-2-1.91-2-1.91s-2.09-.07-2,1.91c.11,1.71,1.23,3.11,1.39,4.35A1.86,1.86,0,0,1,214.84,233.71Z"/><path class="cls-9" d="M212.31,235.2s.54-1.66,1.32-1.72S212.31,235.2,212.31,235.2Z"/><path class="cls-11" d="M221.63,43.5a4.48,4.48,0,0,1-.47-3.57c.36-1.13,1.63-1.27,2.28-1.26v-11H208V46.4h13.13C222.7,45.05,222,44.23,221.63,43.5Z"/><rect class="cls-10" x="210.6" y="31.38" width="10.27" height="1.1" rx="0.55"/><rect class="cls-10" x="210.6" y="34.42" width="10.27" height="1.1" rx="0.55"/><rect class="cls-10" x="210.6" y="37.46" width="10.27" height="1.1" rx="0.55"/><rect class="cls-10" x="210.6" y="40.51" width="10.27" height="1.1" rx="0.55"/><rect class="cls-11" x="221.28" y="47.25" width="4.33" height="0.77" rx="0.38"/><path class="cls-10" d="M223.44,45.51a1.74,1.74,0,0,0-1.74,1.74h3.48A1.74,1.74,0,0,0,223.44,45.51Z"/><path class="cls-10" d="M223.44,45.16a1.91,1.91,0,0,1,.54.09c.14-1.14,1.17-2.43,1.27-4,.12-1.83-1.81-1.77-1.81-1.77s-1.92-.06-1.81,1.77c.1,1.56,1.13,2.85,1.28,4A1.9,1.9,0,0,1,223.44,45.16Z"/><path class="cls-9" d="M221.11,46.54s.5-1.54,1.22-1.58S221.11,46.54,221.11,46.54Z"/><path class="cls-11" d="M89.47,61.93A4.52,4.52,0,0,1,89,58.36a2.2,2.2,0,0,1,2.29-1.26v-11H75.85V64.83H89C90.54,63.48,89.85,62.66,89.47,61.93Z"/><rect class="cls-10" x="78.44" y="49.81" width="10.27" height="1.1" rx="0.55"/><rect class="cls-10" x="78.44" y="52.85" width="10.27" height="1.1" rx="0.55"/><rect class="cls-10" x="78.44" y="55.89" width="10.27" height="1.1" rx="0.55"/><rect class="cls-10" x="78.44" y="58.94" width="10.27" height="1.1" rx="0.55"/><rect class="cls-11" x="89.12" y="65.68" width="4.33" height="0.77" rx="0.38"/><path class="cls-10" d="M91.29,63.94a1.74,1.74,0,0,0-1.74,1.74H93A1.73,1.73,0,0,0,91.29,63.94Z"/><path class="cls-10" d="M91.29,63.59a1.9,1.9,0,0,1,.53.09c.14-1.14,1.18-2.43,1.28-4,.11-1.83-1.81-1.77-1.81-1.77s-1.93-.06-1.82,1.77c.1,1.56,1.14,2.85,1.28,4A1.91,1.91,0,0,1,91.29,63.59Z"/><path class="cls-9" d="M89,65s.5-1.54,1.21-1.58S89,65,89,65Z"/><path class="cls-11" d="M156,112.61a4.46,4.46,0,0,1-.47-3.56c.36-1.13,1.63-1.27,2.28-1.26V96.74H142.42v18.77h13.13C157.11,114.16,156.41,113.35,156,112.61Z"/><rect class="cls-10" x="145.01" y="100.5" width="10.27" height="1.1" rx="0.55"/><rect class="cls-10" x="145.01" y="103.54" width="10.27" height="1.1" rx="0.55"/><rect class="cls-10" x="145.01" y="106.58" width="10.27" height="1.1" rx="0.55"/><rect class="cls-10" x="145.01" y="109.62" width="10.27" height="1.1" rx="0.55"/><rect class="cls-11" x="155.69" y="116.36" width="4.33" height="0.77" rx="0.38"/><path class="cls-10" d="M157.85,114.62a1.73,1.73,0,0,0-1.73,1.74h3.47A1.74,1.74,0,0,0,157.85,114.62Z"/><path class="cls-10" d="M157.85,114.27a1.62,1.62,0,0,1,.54.1c.14-1.14,1.17-2.43,1.27-4,.12-1.82-1.81-1.77-1.81-1.77s-1.92,0-1.81,1.77c.1,1.57,1.13,2.86,1.28,4A1.61,1.61,0,0,1,157.85,114.27Z"/><path class="cls-9" d="M155.52,115.65s.5-1.53,1.22-1.58S155.52,115.65,155.52,115.65Z"/><circle class="cls-10" cx="115.96" cy="147.7" r="2.02"/><circle class="cls-10" cx="121.89" cy="146.25" r="2.02"/><path class="cls-10" d="M116,150.32a4,4,0,0,0-4,4h8A4,4,0,0,0,116,150.32Z"/><path class="cls-10" d="M120.12,153h5.37a4,4,0,0,0-7.19-2.41A4,4,0,0,1,120.12,153Z"/><circle class="cls-10" cx="110.02" cy="146.25" r="2.02"/><path class="cls-10" d="M111.79,153h-5.37a4,4,0,0,1,7.19-2.41A4,4,0,0,0,111.79,153Z"/><polygon class="cls-11" points="117.3 142.88 114.68 139.76 111.08 142.77 110.21 141.73 114.85 137.84 117.46 140.94 122 137.03 122.9 138.06 117.3 142.88"/><polygon class="cls-11" points="123.83 136.15 119.78 137.23 122.74 140.2 123.83 136.15"/></g></svg>