<svg id="bg" xmlns="http://www.w3.org/2000/svg" viewBox="0 0 320 677"><defs><style>.cls-1{fill:#ff90a1;}.cls-2,.cls-3,.cls-9{font-size:16px;}.cls-2,.cls-3,.cls-5{fill:#333;}.cls-2{font-family:NotoSansCJKtc-Regular-B5pc-H, Noto Sans CJK TC;letter-spacing:-0.02em;}.cls-3,.cls-9{font-family:Arial-BoldMT, Arial;font-weight:700;}.cls-4{fill:#e4dfec;}.cls-6{fill:#bae659;}.cls-7{fill:#eee;}.cls-8{fill:#002a5e;}.cls-9{fill:#fff;}.cls-10{fill:none;stroke:#f3f3f3;stroke-miterlimit:10;}.cls-11{fill:#d2f4ff;}.cls-12{fill:#b9d3b2;}.cls-13{letter-spacing:-0.06em;}.cls-14{fill:#b8afe0;}.cls-15{fill:#ffe388;}.cls-16{fill:#9bccf9;}</style></defs><rect class="cls-1" y="28.26" width="63.93" height="71.41"/><text class="cls-2" transform="translate(14.64 49.94)">新興<tspan x="-7.8" y="20.04">企業債</tspan></text><text class="cls-3" transform="translate(4.3 90.1)">15.18%</text><rect class="cls-4" x="63.93" y="28.26" width="63.93" height="71.41"/><path class="cls-5" d="M84.79,46.36H80.5l-1.14,3.58H77.85l4-11.73h1.65l4,11.73H85.91Zm-.37-1.19-.56-1.79c-.44-1.33-.8-2.61-1.19-4h-.06c-.37,1.38-.75,2.64-1.17,4l-.58,1.79Z"/><path class="cls-5" d="M88.72,38.21h3.49c2.38,0,4,.8,4,2.87a2.55,2.55,0,0,1-1.73,2.54v.08a2.7,2.7,0,0,1,2.4,2.8c0,2.31-1.82,3.44-4.45,3.44H88.72Zm3.23,5c2,0,2.84-.75,2.84-1.93,0-1.38-1-1.89-2.77-1.89H90.21V43.2Zm.31,5.56c2,0,3.2-.72,3.2-2.31s-1.15-2.11-3.2-2.11H90.21v4.42Z"/><path class="cls-5" d="M98,48.41l.88-1a4.62,4.62,0,0,0,3.25,1.45c1.54,0,2.47-.76,2.47-1.92s-.85-1.58-2-2.08l-1.69-.73a3.33,3.33,0,0,1-2.39-3c0-1.81,1.57-3.12,3.7-3.12a4.83,4.83,0,0,1,3.46,1.45l-.79,1a3.76,3.76,0,0,0-2.67-1.11c-1.33,0-2.19.67-2.19,1.73s1,1.57,1.93,2l1.68.72c1.37.6,2.42,1.4,2.42,3.14s-1.53,3.33-4,3.33A5.63,5.63,0,0,1,98,48.41Z"/><path class="cls-5" d="M111.36,37.25h1.06l-4.79,15.56h-1.07Z"/><path class="cls-5" d="M80.7,57.21h1.8l2.25,6.27c.27.82.55,1.64.83,2.45h.08c.28-.81.53-1.63.81-2.45l2.24-6.27H90.5V68.94H89.11v-6.5c0-1,.11-2.43.19-3.45h-.07l-.92,2.67-2.23,6.1h-1l-2.23-6.1L81.94,59h-.07c.07,1,.18,2.45.18,3.45v6.5H80.7Z"/><path class="cls-5" d="M93.29,57.21h3.49c2.39,0,4,.8,4,2.87a2.56,2.56,0,0,1-1.73,2.54v.08a2.7,2.7,0,0,1,2.4,2.8c0,2.31-1.82,3.44-4.45,3.44H93.29Zm3.24,5c2,0,2.83-.75,2.83-1.93,0-1.38-.94-1.89-2.77-1.89H94.78V62.2Zm.3,5.56c2,0,3.2-.72,3.2-2.31s-1.15-2.11-3.2-2.11h-2v4.42Z"/><path class="cls-5" d="M102.56,67.41l.88-1a4.6,4.6,0,0,0,3.25,1.45c1.53,0,2.46-.76,2.46-1.92s-.85-1.58-2-2.08l-1.7-.73a3.33,3.33,0,0,1-2.38-3c0-1.81,1.57-3.12,3.7-3.12a4.81,4.81,0,0,1,3.45,1.45l-.78,1a3.78,3.78,0,0,0-2.67-1.11c-1.33,0-2.2.67-2.2,1.73s1,1.57,1.94,2l1.68.72c1.36.6,2.42,1.4,2.42,3.14s-1.54,3.33-4,3.33A5.6,5.6,0,0,1,102.56,67.41Z"/><text class="cls-3" transform="translate(73.55 90.1)">2.59%</text><rect class="cls-1" x="128.03" y="28.26" width="63.93" height="71.41"/><text class="cls-2" transform="translate(143.53 49.94)">新興<tspan x="-7.8" y="20.04">企業債</tspan></text><text class="cls-3" transform="translate(137.65 90.1)">8.73%</text><rect class="cls-6" x="192.14" y="28.26" width="63.93" height="71.41"/><text class="cls-2" transform="translate(207.64 49.94)">美國<tspan x="-7.8" y="20.04">高收益</tspan></text><text class="cls-3" transform="translate(197.31 90.1)">17.49%</text><rect class="cls-7" x="256.24" y="28.26" width="63.93" height="71.41"/><text class="cls-2" transform="translate(271.74 49.94)">地方<tspan x="-7.8" y="20.04">政府債</tspan></text><text class="cls-3" transform="translate(265.86 90.1)">3.55%</text><rect class="cls-8" x="145.73" y="-145.73" width="28.26" height="319.71" transform="translate(173.99 -145.73) rotate(90)"/><text class="cls-9" transform="translate(14.17 21.09)">2019</text><text class="cls-9" transform="translate(78.1 21.09)">2018</text><text class="cls-9" transform="translate(142.03 21.09)">2017</text><text class="cls-9" transform="translate(205.96 21.09)">2016</text><text class="cls-9" transform="translate(269.89 21.09)">2015</text><line class="cls-10" x1="319.65" y1="100.02" y2="100.02"/><rect class="cls-11" y="100.52" width="63.93" height="71.41"/><text class="cls-2" transform="translate(14.64 122.2)">歐洲<tspan x="-7.8" y="20.04">高收益</tspan></text><text class="cls-3" transform="translate(4.3 162.36)">14.66%</text><rect class="cls-12" x="63.93" y="100.52" width="63.93" height="71.41"/><text class="cls-2" transform="translate(71.63 122.2)">機構類<tspan x="0" y="20.04">政府債</tspan></text><text class="cls-3" transform="translate(73.55 162.36)">2.09%</text><rect class="cls-6" x="128.03" y="100.52" width="63.93" height="71.41"/><text class="cls-2" transform="translate(143.53 122.2)">美國<tspan x="-7.8" y="20.04">高收益</tspan></text><text class="cls-3" transform="translate(137.65 162.36)">7.17%</text><rect class="cls-1" x="192.14" y="100.52" width="63.93" height="71.41"/><text class="cls-2" transform="translate(207.64 122.2)">新興<tspan x="-7.8" y="20.04">企業債</tspan></text><text class="cls-3" transform="translate(197.75 162.36)"><tspan class="cls-13">1</tspan><tspan x="8.02" y="0">1.89%</tspan></text><rect class="cls-4" x="256.24" y="100.52" width="63.93" height="71.41"/><path class="cls-5" d="M277.1,118.62h-4.29l-1.14,3.58h-1.5l4-11.73h1.65l4,11.73h-1.57Zm-.37-1.19-.56-1.79c-.43-1.33-.8-2.61-1.19-4h-.06c-.37,1.38-.75,2.64-1.17,4l-.57,1.79Z"/><path class="cls-5" d="M281,110.47h3.49c2.39,0,4,.8,4,2.86a2.56,2.56,0,0,1-1.72,2.55V116a2.71,2.71,0,0,1,2.4,2.8c0,2.3-1.83,3.44-4.45,3.44H281Zm3.23,5c2,0,2.84-.75,2.84-1.93,0-1.38-1-1.89-2.77-1.89h-1.81v3.82Zm.31,5.56c2,0,3.2-.72,3.2-2.31s-1.15-2.11-3.2-2.11h-2.05V121Z"/><path class="cls-5" d="M290.29,120.66l.88-1a4.62,4.62,0,0,0,3.25,1.45c1.54,0,2.47-.77,2.47-1.92s-.85-1.58-1.95-2.08l-1.7-.73a3.33,3.33,0,0,1-2.39-3c0-1.81,1.57-3.13,3.7-3.13A4.84,4.84,0,0,1,298,111.7l-.78,1a3.79,3.79,0,0,0-2.68-1.11c-1.33,0-2.19.67-2.19,1.73s1,1.57,1.94,2l1.68.72c1.36.6,2.41,1.4,2.41,3.14s-1.53,3.33-4,3.33A5.6,5.6,0,0,1,290.29,120.66Z"/><path class="cls-5" d="M303.67,109.51h1.06l-4.79,15.56h-1.07Z"/><path class="cls-5" d="M273,129.47h1.79l2.25,6.27c.28.82.55,1.64.84,2.45H278c.27-.81.53-1.63.8-2.45l2.24-6.27h1.79V141.2h-1.39v-6.5c0-1,.11-2.43.19-3.45h-.06l-.93,2.67-2.23,6.1h-1l-2.22-6.1-.93-2.67h-.07c.07,1,.18,2.44.18,3.45v6.5H273Z"/><path class="cls-5" d="M285.61,129.47h3.49c2.38,0,4,.8,4,2.86a2.55,2.55,0,0,1-1.73,2.55V135a2.7,2.7,0,0,1,2.4,2.8c0,2.3-1.82,3.44-4.45,3.44h-3.74Zm3.23,5c2,0,2.83-.75,2.83-1.93,0-1.38-.94-1.89-2.77-1.89h-1.8v3.82Zm.3,5.56c2,0,3.21-.72,3.21-2.31s-1.16-2.11-3.21-2.11h-2V140Z"/><path class="cls-5" d="M294.87,139.66l.88-1a4.6,4.6,0,0,0,3.25,1.45c1.54,0,2.47-.77,2.47-1.92s-.85-1.58-2-2.08l-1.69-.73a3.33,3.33,0,0,1-2.39-3c0-1.81,1.57-3.13,3.7-3.13a4.86,4.86,0,0,1,3.46,1.46l-.79,1a3.76,3.76,0,0,0-2.67-1.11c-1.33,0-2.19.67-2.19,1.73s1,1.57,1.93,1.95l1.68.72c1.36.6,2.42,1.4,2.42,3.14s-1.54,3.33-4,3.33A5.57,5.57,0,0,1,294.87,139.66Z"/><text class="cls-3" transform="translate(270.31 162.36)">0.8%</text><line class="cls-10" x1="319.65" y1="172.28" y2="172.28"/><rect class="cls-6" y="172.78" width="63.93" height="71.41"/><text class="cls-2" transform="translate(14.64 194.46)">美國<tspan x="-7.8" y="20.04">高收益</tspan></text><text class="cls-3" transform="translate(4.3 234.62)">14.41%</text><rect class="cls-14" x="63.93" y="172.78" width="63.93" height="71.41"/><text class="cls-2" transform="translate(71.63 194.46)">超國家<tspan x="0" y="20.04">機構債</tspan></text><text class="cls-3" transform="translate(73.55 234.62)">2.08%</text><rect class="cls-11" x="128.03" y="172.78" width="63.93" height="71.41"/><text class="cls-2" transform="translate(143.53 194.46)">歐洲<tspan x="-7.8" y="20.04">高收益</tspan></text><text class="cls-3" transform="translate(137.65 234.62)">6.82%</text><rect class="cls-11" x="192.14" y="172.78" width="63.93" height="71.41"/><text class="cls-2" transform="translate(207.64 194.46)">歐洲<tspan x="-7.8" y="20.04">高收益</tspan></text><text class="cls-3" transform="translate(201.75 234.62)">9.07%</text><rect class="cls-11" x="256.24" y="172.78" width="63.93" height="71.41"/><text class="cls-2" transform="translate(271.74 194.46)">歐洲<tspan x="-7.8" y="20.04">高收益</tspan></text><text class="cls-3" transform="translate(265.86 234.62)">0.76%</text><line class="cls-10" x1="319.65" y1="244.54" y2="244.54"/><rect class="cls-15" y="245.04" width="63.93" height="71.41"/><text class="cls-2" transform="translate(14.64 266.72)">美國<tspan x="-7.8" y="20.04">投資級</tspan></text><text class="cls-3" transform="translate(4.3 306.88)">14.23%</text><rect class="cls-7" x="63.93" y="245.04" width="63.93" height="71.41"/><text class="cls-2" transform="translate(79.43 266.72)">地方<tspan x="-7.8" y="20.04">政府債</tspan></text><text class="cls-3" transform="translate(78 306.88)">1.4%</text><rect class="cls-15" x="128.03" y="245.04" width="63.93" height="71.41"/><text class="cls-2" transform="translate(143.53 266.72)">美國<tspan x="-7.8" y="20.04">投資級</tspan></text><text class="cls-3" transform="translate(137.65 306.88)">5.58%</text><rect class="cls-15" x="192.14" y="245.04" width="63.93" height="71.41"/><text class="cls-2" transform="translate(207.64 266.72)">美國<tspan x="-7.8" y="20.04">投資級</tspan></text><text class="cls-3" transform="translate(201.75 306.88)">5.96%</text><rect class="cls-12" x="256.24" y="245.04" width="63.93" height="71.41"/><text class="cls-2" transform="translate(263.94 266.72)">機構類<tspan x="0" y="20.04">政府債</tspan></text><text class="cls-3" transform="translate(265.86 306.88)">0.44%</text><line class="cls-10" x1="319.65" y1="316.8" y2="316.8"/><rect class="cls-7" y="317.3" width="63.93" height="71.41"/><text class="cls-2" transform="translate(14.64 338.98)">地方<tspan x="-7.8" y="20.04">政府債</tspan></text><text class="cls-3" transform="translate(4.3 379.14)">13.69%</text><rect class="cls-15" x="63.93" y="317.3" width="63.93" height="71.41"/><text class="cls-2" transform="translate(79.43 338.98)">美國<tspan x="-7.8" y="20.04">投資級</tspan></text><text class="cls-3" transform="translate(73.55 379.14)">0.38%</text><rect class="cls-7" x="128.03" y="317.3" width="63.93" height="71.41"/><text class="cls-2" transform="translate(143.53 338.98)">地方<tspan x="-7.8" y="20.04">政府債</tspan></text><text class="cls-3" transform="translate(137.65 379.14)">4.37%</text><rect class="cls-16" x="192.14" y="317.3" width="63.93" height="71.41"/><text class="cls-2" transform="translate(207.64 338.98)">歐洲<tspan x="-7.8" y="20.04">投資級</tspan></text><text class="cls-3" transform="translate(201.75 379.14)">4.75%</text><rect class="cls-14" x="256.24" y="317.3" width="63.93" height="71.41"/><text class="cls-2" transform="translate(263.94 338.98)">超國家<tspan x="0" y="20.04">機構債</tspan></text><text class="cls-3" transform="translate(265.86 379.14)">0.18%</text><line class="cls-10" x1="319.65" y1="389.06" y2="389.06"/><rect class="cls-14" y="389.56" width="63.93" height="71.41"/><text class="cls-2" transform="translate(6.84 411.24)">超國家<tspan x="0" y="20.04">機構債</tspan></text><text class="cls-3" transform="translate(8.75 451.4)">9.74%</text><rect class="cls-1" x="63.93" y="389.56" width="63.93" height="71.41"/><text class="cls-2" transform="translate(79.43 411.24)">新興<tspan x="-7.8" y="20.04">企業債</tspan></text><text class="cls-3" transform="translate(75.33 451.4)">-3.2%</text><rect class="cls-12" x="128.03" y="389.56" width="63.93" height="71.41"/><text class="cls-2" transform="translate(135.73 411.24)">機構類<tspan x="0" y="20.04">政府債</tspan></text><text class="cls-3" transform="translate(142.1 451.4)">3.8%</text><rect class="cls-4" x="192.14" y="389.56" width="63.93" height="71.41"/><path class="cls-5" d="M213,407.65H208.7l-1.13,3.59h-1.51l4-11.73h1.65l4,11.73h-1.57Zm-.36-1.18-.56-1.8c-.44-1.32-.81-2.6-1.19-4h-.06c-.37,1.37-.76,2.64-1.17,4l-.58,1.8Z"/><path class="cls-5" d="M216.93,399.51h3.49c2.38,0,4,.8,4,2.86a2.56,2.56,0,0,1-1.73,2.55V405a2.7,2.7,0,0,1,2.4,2.8c0,2.3-1.82,3.44-4.45,3.44h-3.74Zm3.23,5c2,0,2.83-.75,2.83-1.94,0-1.37-.94-1.89-2.77-1.89h-1.8v3.83Zm.3,5.55c2,0,3.21-.72,3.21-2.3s-1.16-2.11-3.21-2.11h-2v4.41Z"/><path class="cls-5" d="M226.19,409.7l.88-1a4.61,4.61,0,0,0,3.25,1.46c1.54,0,2.47-.77,2.47-1.92s-.85-1.59-2-2.08l-1.69-.74a3.32,3.32,0,0,1-2.39-3c0-1.81,1.57-3.12,3.7-3.12a4.82,4.82,0,0,1,3.46,1.46l-.79.94a3.8,3.8,0,0,0-2.67-1.1c-1.33,0-2.19.67-2.19,1.73s1,1.56,1.93,1.95l1.68.72c1.36.59,2.42,1.39,2.42,3.14s-1.54,3.33-4,3.33A5.61,5.61,0,0,1,226.19,409.7Z"/><path class="cls-5" d="M239.57,398.54h1.05l-4.78,15.56h-1.07Z"/><path class="cls-5" d="M208.91,418.51h1.79l2.26,6.27c.27.82.54,1.63.83,2.45h.08c.28-.82.53-1.63.8-2.45l2.24-6.27h1.8v11.73h-1.4v-6.5c0-1,.12-2.43.2-3.46h-.07l-.93,2.67-2.22,6.1h-1l-2.23-6.1-.93-2.67h-.06c.06,1,.18,2.45.18,3.46v6.5h-1.35Z"/><path class="cls-5" d="M221.5,418.51H225c2.39,0,4,.8,4,2.86a2.57,2.57,0,0,1-1.73,2.55V424a2.7,2.7,0,0,1,2.4,2.8c0,2.3-1.83,3.44-4.45,3.44H221.5Zm3.24,5c2,0,2.83-.75,2.83-1.94,0-1.37-.94-1.89-2.77-1.89H223v3.83Zm.3,5.55c2,0,3.2-.72,3.2-2.3s-1.15-2.11-3.2-2.11h-2v4.41Z"/><path class="cls-5" d="M230.77,428.7l.88-1a4.61,4.61,0,0,0,3.25,1.46c1.53,0,2.46-.77,2.46-1.92s-.85-1.59-2-2.08l-1.7-.74a3.31,3.31,0,0,1-2.38-3c0-1.81,1.57-3.12,3.69-3.12a4.78,4.78,0,0,1,3.46,1.46l-.78.94a3.82,3.82,0,0,0-2.68-1.1c-1.32,0-2.19.67-2.19,1.73s1,1.56,1.94,1.95l1.68.72c1.36.59,2.42,1.39,2.42,3.14s-1.54,3.33-4,3.33A5.61,5.61,0,0,1,230.77,428.7Z"/><text class="cls-3" transform="translate(206.2 451.4)">2.7%</text><rect class="cls-16" x="256.24" y="389.56" width="63.93" height="71.41"/><text class="cls-2" transform="translate(271.74 411.24)">歐洲<tspan x="-7.8" y="20.04">投資級</tspan></text><text class="cls-3" transform="translate(263.19 451.4)">-0.43%</text><line class="cls-10" x1="319.65" y1="461.32" y2="461.32"/><rect class="cls-16" y="461.82" width="63.93" height="71.41"/><text class="cls-2" transform="translate(14.64 483.5)">歐洲<tspan x="-7.8" y="20.04">投資級</tspan></text><text class="cls-3" transform="translate(8.75 523.66)">9.43%</text><rect class="cls-16" x="63.93" y="461.82" width="63.93" height="71.41"/><text class="cls-2" transform="translate(79.43 483.5)">歐洲<tspan x="-7.8" y="20.04">投資級</tspan></text><text class="cls-3" transform="translate(75.33 523.66)">-0.8%</text><rect class="cls-14" x="128.03" y="461.82" width="63.93" height="71.41"/><text class="cls-2" transform="translate(135.73 483.5)">超國家<tspan x="0" y="20.04">機構債</tspan></text><text class="cls-3" transform="translate(137.65 523.66)">3.78%</text><rect class="cls-14" x="192.14" y="461.82" width="63.93" height="71.41"/><text class="cls-2" transform="translate(199.84 483.5)">超國家<tspan x="0" y="20.04">機構債</tspan></text><text class="cls-3" transform="translate(201.75 523.66)">2.66%</text><rect class="cls-15" x="256.24" y="461.82" width="63.93" height="71.41"/><text class="cls-2" transform="translate(271.74 483.5)">美國<tspan x="-7.8" y="20.04">投資級</tspan></text><text class="cls-3" transform="translate(263.19 523.66)">-0.63%</text><line class="cls-10" x1="319.65" y1="533.57" y2="533.57"/><rect class="cls-12" y="534.08" width="63.93" height="71.41"/><text class="cls-2" transform="translate(6.84 555.76)">機構類<tspan x="0" y="20.04">政府債</tspan></text><text class="cls-3" transform="translate(8.75 595.92)">9.39%</text><rect class="cls-6" x="63.93" y="534.08" width="63.93" height="71.41"/><text class="cls-2" transform="translate(79.43 555.76)">美國<tspan x="-7.8" y="20.04">高收益</tspan></text><text class="cls-3" transform="translate(70.88 595.92)">-1.63%</text><rect class="cls-16" x="128.03" y="534.08" width="63.93" height="71.41"/><text class="cls-2" transform="translate(143.53 555.76)">歐洲<tspan x="-7.8" y="20.04">投資級</tspan></text><text class="cls-3" transform="translate(137.65 595.92)">2.72%</text><rect class="cls-12" x="192.14" y="534.08" width="63.93" height="71.41"/><text class="cls-2" transform="translate(199.84 555.76)">機構類<tspan x="0" y="20.04">政府債</tspan></text><text class="cls-3" transform="translate(201.75 595.92)">2.57%</text><rect class="cls-1" x="256.24" y="534.08" width="63.93" height="71.41"/><text class="cls-2" transform="translate(271.74 555.76)">新興<tspan x="-7.8" y="20.04">企業債</tspan></text><text class="cls-3" transform="translate(263.19 595.92)">-0.85%</text><line class="cls-10" x1="319.65" y1="605.83" y2="605.83"/><rect class="cls-4" y="606.33" width="63.93" height="71.41"/><path class="cls-5" d="M20,624.43H15.7L14.57,628H13.06l4-11.74H18.7l4,11.74H21.11Zm-.37-1.18-.56-1.8c-.43-1.33-.8-2.61-1.18-4h-.06c-.37,1.38-.76,2.64-1.17,4l-.58,1.8Z"/><path class="cls-5" d="M23.93,616.28h3.49c2.38,0,4,.8,4,2.87a2.54,2.54,0,0,1-1.73,2.54v.08a2.71,2.71,0,0,1,2.4,2.8c0,2.31-1.82,3.45-4.45,3.45H23.93Zm3.23,5c2,0,2.83-.76,2.83-1.94,0-1.38-.94-1.89-2.77-1.89H25.41v3.83Zm.3,5.55c2,0,3.2-.72,3.2-2.3s-1.15-2.12-3.2-2.12H25.41v4.42Z"/><path class="cls-5" d="M33.19,626.48l.88-1a4.61,4.61,0,0,0,3.25,1.46c1.54,0,2.46-.77,2.46-1.92s-.84-1.59-2-2.08l-1.7-.74a3.33,3.33,0,0,1-2.38-3c0-1.81,1.57-3.12,3.7-3.12a4.77,4.77,0,0,1,3.45,1.46l-.78.94a3.8,3.8,0,0,0-2.67-1.1c-1.33,0-2.2.67-2.2,1.72s1,1.57,1.94,2l1.68.72c1.36.59,2.42,1.39,2.42,3.13s-1.54,3.33-4,3.33A5.6,5.6,0,0,1,33.19,626.48Z"/><path class="cls-5" d="M46.57,615.32h1l-4.78,15.56H41.77Z"/><path class="cls-5" d="M15.91,635.28H17.7L20,641.56c.27.81.54,1.63.83,2.45h.08c.27-.82.53-1.64.8-2.45l2.24-6.28h1.8V647h-1.4v-6.5c0-1,.12-2.44.2-3.46h-.07l-.93,2.67-2.22,6.1h-1l-2.23-6.1-.93-2.67h-.06c.06,1,.17,2.45.17,3.46V647H15.91Z"/><path class="cls-5" d="M28.5,635.28H32c2.39,0,4,.8,4,2.87a2.55,2.55,0,0,1-1.73,2.54v.08a2.72,2.72,0,0,1,2.4,2.8c0,2.31-1.83,3.45-4.45,3.45H28.5Zm3.24,5c2,0,2.83-.76,2.83-1.94,0-1.38-1-1.89-2.77-1.89H30v3.83Zm.3,5.55c2,0,3.2-.72,3.2-2.3s-1.15-2.12-3.2-2.12H30v4.42Z"/><path class="cls-5" d="M37.77,645.48l.88-1a4.59,4.59,0,0,0,3.25,1.46c1.53,0,2.46-.77,2.46-1.92s-.85-1.59-2-2.08l-1.7-.74a3.32,3.32,0,0,1-2.38-3c0-1.81,1.56-3.12,3.69-3.12a4.78,4.78,0,0,1,3.46,1.46l-.78.94a3.82,3.82,0,0,0-2.68-1.1c-1.33,0-2.19.67-2.19,1.72s1,1.57,1.94,2l1.68.72c1.36.59,2.41,1.39,2.41,3.13s-1.53,3.33-4,3.33A5.59,5.59,0,0,1,37.77,645.48Z"/><text class="cls-3" transform="translate(8.75 668.18)">5.89%</text><rect class="cls-11" x="63.93" y="606.33" width="63.93" height="71.41"/><text class="cls-2" transform="translate(79.43 628.02)">歐洲<tspan x="-7.8" y="20.04">高收益</tspan></text><text class="cls-3" transform="translate(70.88 668.18)">-3.47%</text><rect class="cls-4" x="128.03" y="606.33" width="63.93" height="71.41"/><path class="cls-5" d="M148.89,624.43H144.6L143.46,628H142l4-11.74h1.65l4,11.74H150Zm-.37-1.18-.56-1.8c-.43-1.33-.8-2.61-1.18-4h-.07c-.37,1.38-.75,2.64-1.17,4l-.57,1.8Z"/><path class="cls-5" d="M152.82,616.28h3.49c2.39,0,4,.8,4,2.87a2.55,2.55,0,0,1-1.73,2.54v.08a2.71,2.71,0,0,1,2.4,2.8c0,2.31-1.83,3.45-4.45,3.45h-3.75Zm3.24,5c2,0,2.83-.76,2.83-1.94,0-1.38-.95-1.89-2.77-1.89h-1.81v3.83Zm.3,5.55c2,0,3.2-.72,3.2-2.3s-1.15-2.12-3.2-2.12h-2.05v4.42Z"/><path class="cls-5" d="M162.09,626.48l.88-1a4.61,4.61,0,0,0,3.25,1.46c1.53,0,2.46-.77,2.46-1.92s-.85-1.59-2-2.08l-1.7-.74a3.32,3.32,0,0,1-2.38-3c0-1.81,1.57-3.12,3.69-3.12a4.78,4.78,0,0,1,3.46,1.46l-.78.94a3.82,3.82,0,0,0-2.68-1.1c-1.32,0-2.19.67-2.19,1.72s1,1.57,1.94,2l1.68.72c1.36.59,2.42,1.39,2.42,3.13s-1.54,3.33-4,3.33A5.6,5.6,0,0,1,162.09,626.48Z"/><path class="cls-5" d="M175.46,615.32h1.06l-4.79,15.56h-1.07Z"/><path class="cls-5" d="M144.81,635.28h1.79l2.26,6.28c.27.81.54,1.63.83,2.45h.08c.27-.82.53-1.64.8-2.45l2.24-6.28h1.79V647h-1.39v-6.5c0-1,.11-2.44.19-3.46h-.06l-.93,2.67-2.22,6.1h-1l-2.22-6.1-.93-2.67H146c.06,1,.17,2.45.17,3.46V647h-1.34Z"/><path class="cls-5" d="M157.4,635.28h3.49c2.38,0,4,.8,4,2.87a2.54,2.54,0,0,1-1.73,2.54v.08a2.71,2.71,0,0,1,2.4,2.8c0,2.31-1.82,3.45-4.45,3.45H157.4Zm3.23,5c2,0,2.84-.76,2.84-1.94,0-1.38-.95-1.89-2.77-1.89h-1.81v3.83Zm.31,5.55c2,0,3.2-.72,3.2-2.3s-1.15-2.12-3.2-2.12h-2.05v4.42Z"/><path class="cls-5" d="M166.66,645.48l.88-1a4.63,4.63,0,0,0,3.25,1.46c1.54,0,2.47-.77,2.47-1.92s-.85-1.59-2-2.08l-1.69-.74a3.33,3.33,0,0,1-2.39-3c0-1.81,1.57-3.12,3.7-3.12a4.8,4.8,0,0,1,3.46,1.46l-.79.94a3.8,3.8,0,0,0-2.67-1.1c-1.33,0-2.19.67-2.19,1.72s1,1.57,1.93,2l1.68.72c1.37.59,2.42,1.39,2.42,3.13s-1.53,3.33-4,3.33A5.63,5.63,0,0,1,166.66,645.48Z"/><text class="cls-3" transform="translate(137.65 668.18)">2.66%</text><rect class="cls-7" x="192.14" y="606.33" width="63.93" height="71.41"/><text class="cls-2" transform="translate(207.64 628.02)">地方<tspan x="-7.8" y="20.04">政府債</tspan></text><text class="cls-3" transform="translate(201.75 668.18)">0.44%</text><rect class="cls-6" x="256.24" y="606.33" width="63.93" height="71.41"/><text class="cls-2" transform="translate(271.74 628.02)">美國<tspan x="-7.8" y="20.04">高收益</tspan></text><text class="cls-3" transform="translate(263.19 668.18)">-4.64%</text><line class="cls-10" y1="28.26" y2="676.57"/><line class="cls-10" x1="63.93" y1="28.26" x2="63.93" y2="676.57"/><line class="cls-10" x1="127.86" y1="28.26" x2="127.86" y2="676.57"/><line class="cls-10" x1="191.79" y1="28.26" x2="191.79" y2="676.57"/><line class="cls-10" x1="255.72" y1="28.26" x2="255.72" y2="676.57"/><line class="cls-10" x1="319.65" y1="28.26" x2="319.65" y2="676.57"/></svg>