<svg id="bg" xmlns="http://www.w3.org/2000/svg" viewBox="0 0 320 360"><defs><style>.cls-1,.cls-4{font-size:16px;fill:#333;}.cls-1{font-family:ArialMT, Arial;}.cls-2{fill:none;stroke:#ccc;stroke-miterlimit:10;}.cls-3{fill:#ccc;}.cls-4{isolation:isolate;font-family:NotoSansCJKtc-Regular-B5pc-H, Noto Sans CJK TC;}.cls-5{fill:#2955b2;}.cls-6{fill:#002a5e;}.cls-7{fill:#f699ba;}.cls-8{fill:#7f58a5;}.cls-9{fill:#14e6f0;}.cls-10{fill:#df536a;}.cls-11{fill:#001938;}.cls-12{fill:#c12b5d;}</style></defs><text class="cls-1" transform="translate(217.9 36.42)">0.40%</text><polyline class="cls-2" points="159.75 47.47 159.75 32.6 211.25 32.6"/><circle class="cls-3" cx="211.25" cy="32.6" r="2.82"/><text class="cls-1" transform="translate(266.78 89.04)">40.81%</text><line class="cls-2" x1="239.37" y1="85.22" x2="260.66" y2="85.22"/><circle class="cls-3" cx="260.66" cy="85.22" r="2.82"/><text class="cls-1" transform="translate(0 138.05)">18.38%</text><circle class="cls-3" cx="27.13" cy="145.21" r="2.82"/><text class="cls-1" transform="translate(1.22 241.97)">28.41%</text><line class="cls-2" x1="93.88" y1="235.33" x2="65.48" y2="235.33"/><circle class="cls-3" cx="65.48" cy="235.33" r="2.82"/><text class="cls-1" transform="translate(1.22 76.1)">6.52%</text><line class="cls-2" x1="104.25" y1="69.47" x2="55.48" y2="69.47"/><circle class="cls-3" cx="55.48" cy="69.47" r="2.82"/><text class="cls-1" transform="translate(1.22 52.35)">4.33%</text><text class="cls-1" transform="translate(1.22 29.79)">1.15%</text><polyline class="cls-2" points="55.48 45.72 134.77 45.72 136.82 53.11"/><circle class="cls-3" cx="55.48" cy="45.72" r="2.82"/><polyline class="cls-2" points="55.48 26.97 152.1 26.97 154.15 51.64"/><circle class="cls-3" cx="55.48" cy="26.97" r="2.82"/><g id="北美"><text class="cls-4" transform="translate(30.97 307.11)">歐洲</text></g><circle id="Ellipse_942" data-name="Ellipse 942" class="cls-5" cx="16.97" cy="299.11" r="6"/><g id="英國"><text class="cls-4" transform="translate(110.82 307.11)">北美</text></g><circle id="Ellipse_942-2" data-name="Ellipse 942-2" class="cls-6" cx="96.82" cy="299.11" r="6"/><g id="歐洲"><text class="cls-4" transform="translate(191.9 307.11)">英國</text></g><circle id="Ellipse_942-3" data-name="Ellipse 942-3" class="cls-7" cx="177.9" cy="299.11" r="6"/><g id="中南美"><text class="cls-4" transform="translate(269.97 307.11)">中南美</text></g><circle id="Ellipse_942-4" data-name="Ellipse 942-4" class="cls-8" cx="255.97" cy="299.11" r="6"/><g id="亞洲"><text class="cls-4" transform="translate(30.97 334.69)">亞洲</text></g><circle id="Ellipse_942-5" data-name="Ellipse 942-5" class="cls-9" cx="16.97" cy="326.69" r="6"/><g id="非洲"><text class="cls-4" transform="translate(110.82 334.69)">非洲</text></g><circle id="Ellipse_942-6" data-name="Ellipse 942-6" class="cls-10" cx="96.82" cy="326.69" r="6"/><g id="其他"><text class="cls-4" transform="translate(191.9 334.69)">其他</text></g><circle id="Ellipse_942-7" data-name="Ellipse 942-7" class="cls-11" cx="177.9" cy="326.69" r="6"/><path class="cls-11" d="M161.22,77.65h.18V53c-.91,0-2.69,0-3.6.07l.86,24.66C159.51,77.67,160.37,77.65,161.22,77.65Z"/><path class="cls-12" d="M158.66,77.7,157.8,53c-2.62.09-4.57.22-7.17.5l2.57,24.51C155,77.87,156.83,77.75,158.66,77.7Z"/><path class="cls-9" d="M153.2,78.05l-2.57-24.51a100.57,100.57,0,0,0-27.83,6.94L132,83.28A78,78,0,0,1,153.2,78.05Z"/><path class="cls-8" d="M132,83.28l-9.21-22.8A96.42,96.42,0,0,0,88.54,83.15l17.36,17.36A78.43,78.43,0,0,1,132,83.28Z"/><path class="cls-7" d="M82.85,156a78.12,78.12,0,0,1,23.05-55.51L88.54,83.15C59,112.73,50.21,153.89,65.2,192.94l22.86-8.78A78.19,78.19,0,0,1,82.85,156Z"/><path class="cls-6" d="M161.22,234.39a78.4,78.4,0,0,1-73.16-50.23L65.2,192.94A103,103,0,0,0,219,241.44l-13.85-20.53A78,78,0,0,1,161.22,234.39Z"/><path class="cls-5" d="M161.4,53V77.65a78.37,78.37,0,0,1,43.77,143.26L219,241.44C248.83,221.33,264.44,192,264.44,156A103,103,0,0,0,161.4,53Z"/><polyline class="cls-2" points="27.13 145.21 27.13 153.89 52.66 153.89"/></svg>