<svg id="bg" xmlns="http://www.w3.org/2000/svg" viewBox="0 0 320 320"><defs><style>.cls-1{fill:#0074b7;}.cls-2{fill:#df536a;}.cls-3{fill:#4f3398;}.cls-4{fill:#a446ba;}.cls-5{fill:#871962;}.cls-6{fill:#ff90a1;}.cls-7{fill:#002a5e;}.cls-10,.cls-8{isolation:isolate;fill:#fff;font-family:NotoSansCJKtc-Bold-B5pc-H, Noto Sans CJK TC;}.cls-8{font-size:14px;}.cls-9{letter-spacing:-0.02em;}.cls-10{font-size:16px;}</style></defs><path class="cls-1" d="M158.64,5.3a42.43,42.43,0,1,0,42.43,42.43A42.43,42.43,0,0,0,158.64,5.3Z"/><path class="cls-2" d="M314.7,160a42.43,42.43,0,1,1-42.43-42.43A42.43,42.43,0,0,1,314.7,160Z"/><path class="cls-3" d="M314.7,160a42.43,42.43,0,1,1-42.43-42.43A42.43,42.43,0,0,1,314.7,160Z"/><path class="cls-2" d="M5.3,160a42.43,42.43,0,1,0,42.43-42.43A42.43,42.43,0,0,0,5.3,160Z"/><path class="cls-4" d="M160,314.7a42.43,42.43,0,1,1,42.43-42.43A42.43,42.43,0,0,1,160,314.7Z"/><path class="cls-5" d="M50.61,269.39a42.43,42.43,0,1,1,60,0A42.44,42.44,0,0,1,50.61,269.39Z"/><path class="cls-1" d="M269.39,50.61a42.43,42.43,0,1,0,0,60A42.44,42.44,0,0,0,269.39,50.61Z"/><path class="cls-6" d="M50.61,50.61a42.43,42.43,0,1,1,0,60A42.44,42.44,0,0,1,50.61,50.61Z"/><path class="cls-3" d="M269.39,269.39a42.43,42.43,0,1,0-60,0A42.44,42.44,0,0,0,269.39,269.39Z"/><path class="cls-7" d="M229,159.9a69,69,0,1,1-69-69A69,69,0,0,1,229,159.9Z"/><text class="cls-8" transform="translate(145.25 41.96)">美元<tspan x="-14" y="18">投資級債</tspan></text><text class="cls-8" transform="translate(125 272.27)">新興市場債</text><text class="cls-8" transform="translate(225.36 73.66)">美元<tspan x="-14" y="18">高收益債</tspan></text><text class="cls-8" transform="translate(62.64 73.66)">A<tspan class="cls-9" x="8.97" y="0">B</tspan><tspan x="18.24" y="0">S/</tspan><tspan x="1.22" y="18">M</tspan><tspan class="cls-9" x="13.18" y="18">B</tspan><tspan x="22.45" y="18">S</tspan></text><text class="cls-8" transform="translate(258.27 155.9)">歐洲<tspan x="-14" y="18">投資級債</tspan></text><text class="cls-8" transform="translate(226.73 235.97)">歐洲<tspan x="-14" y="18">高收益債</tspan></text><text class="cls-8" transform="translate(59.61 226.34)">州政債<tspan x="0" y="18">市政債</tspan><tspan x="1.9" y="36">~10%</tspan></text><text class="cls-8" transform="translate(26.73 155.9)">可轉債<tspan x="1.9" y="18">~10%</tspan></text><text class="cls-10" transform="translate(111.25 154.34)">投資等級信評<tspan x="0" y="21">複合債券組合</tspan></text></svg>