<svg id="bg" xmlns="http://www.w3.org/2000/svg" viewBox="0 0 320 360"><defs><style>.cls-1{fill:#002a5e;}.cls-2{fill:#f699ba;}.cls-3{fill:#2955b2;}.cls-4{fill:#7f58a5;}.cls-5{fill:#14e6f0;}.cls-6{fill:#c12b5d;}.cls-7{fill:#001938;}.cls-11,.cls-8{font-size:16px;fill:#333;}.cls-8{font-family:ArialMT, Arial;}.cls-9{fill:none;stroke:#ccc;stroke-miterlimit:10;}.cls-10{fill:#ccc;}.cls-11{isolation:isolate;font-family:NotoSansCJKtc-Regular-B5pc-H, Noto Sans CJK TC;}.cls-12{fill:#df536a;}</style></defs><path class="cls-1" d="M160.72,52.62A103.22,103.22,0,0,1,261.57,177.79l-25.21-5.49a77.4,77.4,0,0,0-75.64-93.88Z"/><path class="cls-2" d="M261.57,177.79A103.19,103.19,0,0,1,181.4,257l-5.17-25.28a77.41,77.41,0,0,0,60.13-59.37Z"/><path class="cls-3" d="M181.4,257A103.21,103.21,0,0,1,88.18,82.41l18.14,18.35a77.41,77.41,0,0,0,69.91,130.91Z"/><path class="cls-4" d="M88.18,82.41a103.37,103.37,0,0,1,35.26-22.83l9.32,24.07a77.41,77.41,0,0,0-26.44,17.11Z"/><path class="cls-5" d="M123.44,59.58a103.37,103.37,0,0,1,27.24-6.47l2.51,25.68a77.27,77.27,0,0,0-20.43,4.86Z"/><path class="cls-6" d="M150.68,53.11q3.72-.37,7.47-.46l.64,25.79c-1.87,0-3.74.17-5.6.35Z"/><path class="cls-7" d="M158.15,52.65c.86,0,1.71,0,2.57,0v25.8l-1.93,0Z"/><text class="cls-8" transform="translate(217.4 36.42)">0.40%</text><polyline class="cls-9" points="165.35 47.47 165.35 32.6 210.75 32.6"/><circle class="cls-10" cx="210.75" cy="32.6" r="2.82"/><text class="cls-8" transform="translate(266.28 89.04)">28.41%</text><line class="cls-9" x1="238.87" y1="85.22" x2="260.15" y2="85.22"/><circle class="cls-10" cx="260.15" cy="85.22" r="2.82"/><text class="cls-8" transform="translate(266.28 236.12)">18.38%</text><line class="cls-9" x1="231.76" y1="232.31" x2="260.15" y2="232.31"/><circle class="cls-10" cx="260.15" cy="232.31" r="2.82"/><text class="cls-8" transform="translate(0.72 241.97)">40.81%</text><line class="cls-9" x1="93.37" y1="235.33" x2="64.98" y2="235.33"/><circle class="cls-10" cx="64.98" cy="235.33" r="2.82"/><text class="cls-8" transform="translate(0.72 76.1)">6.52%</text><line class="cls-9" x1="103.75" y1="69.47" x2="54.98" y2="69.47"/><circle class="cls-10" cx="54.98" cy="69.47" r="2.82"/><text class="cls-8" transform="translate(0.72 52.35)">4.33%</text><text class="cls-8" transform="translate(0.72 29.79)">1.15%</text><polyline class="cls-9" points="54.98 45.72 134.27 45.72 136.31 53.11"/><circle class="cls-10" cx="54.98" cy="45.72" r="2.82"/><polyline class="cls-9" points="54.98 26.97 151.6 26.97 153.65 51.64"/><circle class="cls-10" cx="54.98" cy="26.97" r="2.82"/><g id="北美"><text class="cls-11" transform="translate(30.47 307.11)">北美</text></g><circle id="Ellipse_942" data-name="Ellipse 942" class="cls-1" cx="16.47" cy="299.11" r="6"/><g id="英國"><text class="cls-11" transform="translate(110.31 307.11)">英國</text></g><circle id="Ellipse_942-2" data-name="Ellipse 942-2" class="cls-2" cx="96.32" cy="299.11" r="6"/><g id="歐洲"><text class="cls-11" transform="translate(191.4 307.11)">歐洲</text></g><circle id="Ellipse_942-3" data-name="Ellipse 942-3" class="cls-3" cx="177.4" cy="299.11" r="6"/><g id="中南美"><text class="cls-11" transform="translate(269.46 307.11)">中南美</text></g><circle id="Ellipse_942-4" data-name="Ellipse 942-4" class="cls-4" cx="255.47" cy="299.11" r="6"/><g id="亞洲"><text class="cls-11" transform="translate(30.47 334.69)">亞洲</text></g><circle id="Ellipse_942-5" data-name="Ellipse 942-5" class="cls-5" cx="16.47" cy="326.69" r="6"/><g id="非洲"><text class="cls-11" transform="translate(110.31 334.69)">非洲</text></g><circle id="Ellipse_942-6" data-name="Ellipse 942-6" class="cls-12" cx="96.32" cy="326.69" r="6"/><g id="其他"><text class="cls-11" transform="translate(191.4 334.69)">其他</text></g><circle id="Ellipse_942-7" data-name="Ellipse 942-7" class="cls-7" cx="177.4" cy="326.69" r="6"/></svg>