<svg id="bg" xmlns="http://www.w3.org/2000/svg" viewBox="0 0 320 520"><defs><style>.cls-1,.cls-2,.cls-3,.cls-4{isolation:isolate;}.cls-2,.cls-3,.cls-4{font-size:16px;}.cls-2,.cls-3{font-family:ArialMT, Arial;}.cls-2{letter-spacing:-0.01em;}.cls-3{letter-spacing:0em;}.cls-4{fill:#002a5e;font-family:NotoSansCJKtc-Bold-B5pc-H, Noto Sans CJK TC;}.cls-10,.cls-5,.cls-6{fill:none;}.cls-5{stroke:#d9d9d9;stroke-linejoin:round;}.cls-7{fill:#df536a;}.cls-8{fill:#00796d;}.cls-9{fill:#bae659;}.cls-10{stroke:#333;stroke-miterlimit:10;stroke-width:3px;}</style></defs><g id="Group_5199" data-name="Group 5199"><g id="Group_5198" data-name="Group 5198"><g id="Group"><g id="_" data-name=" " class="cls-1"><text class="cls-2" transform="translate(63.59 14.68)">-20</text></g></g></g></g><g id="Group_5201" data-name="Group 5201"><g id="Group_5200" data-name="Group 5200"><g class="cls-1"><text class="cls-3" transform="translate(131.21 14.68)">0</text></g></g></g><g id="Group_5205" data-name="Group 5205"><g id="Group_5204" data-name="Group 5204"><g class="cls-1"><text class="cls-3" transform="translate(180.1 14.68)">20</text></g></g></g><g id="Group_5205-2" data-name="Group 5205"><g id="Group_5204-2" data-name="Group 5204"><g class="cls-1"><text class="cls-3" transform="translate(209.7 14.68)">30</text></g></g></g><g id="Group_5205-3" data-name="Group 5205"><g id="Group_5204-3" data-name="Group 5204"><g class="cls-1"><text class="cls-3" transform="translate(152.7 14.68)">10</text></g></g></g><g id="Group_5205-4" data-name="Group 5205"><g id="Group_5204-4" data-name="Group 5204"><g class="cls-1"><text class="cls-3" transform="translate(93.7 14.68)">-10</text></g></g></g><g id="Group_5205-5" data-name="Group 5205"><g id="Group_5204-5" data-name="Group 5204"><g class="cls-1"><text class="cls-3" transform="translate(30.2 14.68)">(%)</text></g></g></g><g id="Group_5209" data-name="Group 5209"><g id="Group_5208" data-name="Group 5208"><g class="cls-1"><text class="cls-3" transform="translate(238.4 14.68)">40</text></g></g></g><g id="Group_5209-2" data-name="Group 5209"><g id="Group_5208-2" data-name="Group 5208"><g class="cls-1"><text class="cls-3" transform="translate(266.65 14.68)">50</text></g></g></g><g id="Group_5209-3" data-name="Group 5209"><g id="Group_5208-3" data-name="Group 5208"><g class="cls-1"><text class="cls-3" transform="translate(292.83 14.68)">60</text></g></g></g><g id="Group_5213" data-name="Group 5213"><g id="Group_5212" data-name="Group 5212"><g id="企" class="cls-1"><text class="cls-4" transform="translate(4.72 88.1)">一個月</text></g></g></g><g id="Group_5213-2" data-name="Group 5213"><g id="Group_5212-2" data-name="Group 5212"><g id="企-2" data-name="企" class="cls-1"><text class="cls-4" transform="translate(4.72 162.3)">三個月</text></g></g></g><g id="Group_5213-3" data-name="Group 5213"><g id="Group_5212-3" data-name="Group 5212"><g id="企-3" data-name="企" class="cls-1"><text class="cls-4" transform="translate(4.72 474.09)">三年</text></g></g></g><g id="Group_5213-4" data-name="Group 5213"><g id="Group_5212-4" data-name="Group 5212"><g id="企-4" data-name="企" class="cls-1"><text class="cls-4" transform="translate(4.72 239.9)">六個月</text></g></g></g><g id="Group_5213-5" data-name="Group 5213"><g id="Group_5212-5" data-name="Group 5212"><g id="企-5" data-name="企" class="cls-1"><text class="cls-4" transform="translate(4.72 319.34)">一年</text></g></g></g><g id="Group_5213-6" data-name="Group 5213"><g id="Group_5212-6" data-name="Group 5212"><g id="企-6" data-name="企"><text class="cls-4" transform="translate(4.72 394.55)">二年</text></g></g></g><path class="cls-5" d="M77.2,27.36V520.82"/><path class="cls-5" d="M190.7,27.36V520.82"/><path class="cls-5" d="M219.07,27.36V520.82"/><path class="cls-5" d="M275.82,27.36V520.82"/><path class="cls-5" d="M162.32,27.36V520.82"/><path class="cls-5" d="M105.57,27.36V520.82"/><path class="cls-5" d="M247.45,27.36V520.82"/><path class="cls-5" d="M304.2,27.36V520.82"/><path class="cls-6" d="M133.7,70.21v-16h2a1.94,1.94,0,0,1,2,1.88V68.32a2,2,0,0,1-2,1.89Z"/><path class="cls-7" d="M133.7,70.21v-16h2a1.94,1.94,0,0,1,2,1.88V68.32a2,2,0,0,1-2,1.89Z"/><path class="cls-6" d="M133.7,148.37v-16h17a1.94,1.94,0,0,1,2,1.88v12.25a1.94,1.94,0,0,1-2,1.88Z"/><path class="cls-7" d="M133.7,148.37v-16h17a1.94,1.94,0,0,1,2,1.88v12.25a1.94,1.94,0,0,1-2,1.88Z"/><path class="cls-6" d="M133.7,225.59v-16h26a1.94,1.94,0,0,1,2,1.88v12.25a1.94,1.94,0,0,1-2,1.88Z"/><path class="cls-7" d="M133.7,225.59v-16h26a1.94,1.94,0,0,1,2,1.88v12.25a1.94,1.94,0,0,1-2,1.88Z"/><path class="cls-6" d="M133.7,303.75v-16h80a2,2,0,0,1,2,1.89v12.24a1.94,1.94,0,0,1-2,1.88Z"/><path class="cls-7" d="M133.7,303.75v-16h80a2,2,0,0,1,2,1.89v12.24a1.94,1.94,0,0,1-2,1.88Z"/><path class="cls-6" d="M133.7,381V365h126a1.94,1.94,0,0,1,2,1.88v12.24a2,2,0,0,1-2,1.89Z"/><path class="cls-7" d="M133.7,381V365h126a1.94,1.94,0,0,1,2,1.88v12.24a2,2,0,0,1-2,1.89Z"/><path class="cls-6" d="M133.7,459.14v-16h141a1.94,1.94,0,0,1,2,1.88v12.24a2,2,0,0,1-2,1.89Z"/><path class="cls-7" d="M133.7,459.14v-16h141a1.94,1.94,0,0,1,2,1.88v12.24a2,2,0,0,1-2,1.89Z"/><path class="cls-6" d="M133.7,87.16v-16h13a1.94,1.94,0,0,1,2,1.88V85.27a2,2,0,0,1-2,1.89Z"/><path class="cls-8" d="M133.7,87.16v-16h13a1.94,1.94,0,0,1,2,1.88V85.27a2,2,0,0,1-2,1.89Z"/><path class="cls-6" d="M133.7,165.32v-16h14a1.94,1.94,0,0,1,2,1.88v12.25a1.94,1.94,0,0,1-2,1.88Z"/><path class="cls-8" d="M133.7,165.32v-16h14a1.94,1.94,0,0,1,2,1.88v12.25a1.94,1.94,0,0,1-2,1.88Z"/><path class="cls-6" d="M133.7,242.54v-16h14a2,2,0,0,1,2,1.89v12.24a1.94,1.94,0,0,1-2,1.88Z"/><path class="cls-8" d="M133.7,242.54v-16h14a2,2,0,0,1,2,1.89v12.24a1.94,1.94,0,0,1-2,1.88Z"/><path class="cls-6" d="M133.7,320.7v-16h16a1.94,1.94,0,0,1,2,1.88v12.24a1.94,1.94,0,0,1-2,1.88Z"/><path class="cls-8" d="M133.7,320.7v-16h16a1.94,1.94,0,0,1,2,1.88v12.24a1.94,1.94,0,0,1-2,1.88Z"/><path class="cls-6" d="M133.7,397.93v-16h38a1.94,1.94,0,0,1,2,1.88V396a2,2,0,0,1-2,1.89Z"/><path class="cls-8" d="M133.7,397.93v-16h38a1.94,1.94,0,0,1,2,1.88V396a2,2,0,0,1-2,1.89Z"/><path class="cls-6" d="M133.7,476.09v-16h55a1.94,1.94,0,0,1,2,1.88v12.25a1.94,1.94,0,0,1-2,1.88Z"/><path class="cls-8" d="M133.7,476.09v-16h55a1.94,1.94,0,0,1,2,1.88v12.25a1.94,1.94,0,0,1-2,1.88Z"/><path class="cls-6" d="M133.7,104.11v-16h-18a1.94,1.94,0,0,0-2,1.88v12.24a1.94,1.94,0,0,0,2,1.89Z"/><path class="cls-9" d="M133.7,104.11v-16h-18a1.94,1.94,0,0,0-2,1.88v12.24a1.94,1.94,0,0,0,2,1.89Z"/><path class="cls-6" d="M133.7,182.27v-16h-38a2,2,0,0,0-2,1.89v12.24a1.94,1.94,0,0,0,2,1.88Z"/><path class="cls-9" d="M133.7,182.27v-16h-38a2,2,0,0,0-2,1.89v12.24a1.94,1.94,0,0,0,2,1.88Z"/><path class="cls-6" d="M133.7,259.49v-16h-23a2,2,0,0,0-2,1.89v12.24a1.94,1.94,0,0,0,2,1.88Z"/><path class="cls-9" d="M133.7,259.49v-16h-23a2,2,0,0,0-2,1.89v12.24a1.94,1.94,0,0,0,2,1.88Z"/><path class="cls-6" d="M133.7,337.66v-16h24a1.94,1.94,0,0,1,2,1.88v12.24a2,2,0,0,1-2,1.89Z"/><path class="cls-9" d="M133.7,337.66v-16h24a1.94,1.94,0,0,1,2,1.88v12.24a2,2,0,0,1-2,1.89Z"/><path class="cls-6" d="M133.7,414.88v-16h72a1.94,1.94,0,0,1,2,1.88V413a2,2,0,0,1-2,1.89Z"/><path class="cls-9" d="M133.7,414.88v-16h72a1.94,1.94,0,0,1,2,1.88V413a2,2,0,0,1-2,1.89Z"/><path class="cls-6" d="M133.7,493V477h99a1.94,1.94,0,0,1,2,1.88v12.25a1.94,1.94,0,0,1-2,1.88Z"/><path class="cls-9" d="M133.7,493V477h99a1.94,1.94,0,0,1,2,1.88v12.25a1.94,1.94,0,0,1-2,1.88Z"/><path class="cls-10" d="M134,27.36V520.82"/></svg>