<svg id="bg" xmlns="http://www.w3.org/2000/svg" viewBox="0 0 320 360"><defs><style>.cls-1,.cls-4{font-size:16px;fill:#333;}.cls-1{font-family:ArialMT, Arial;}.cls-2{fill:none;stroke:#ccc;stroke-miterlimit:10;}.cls-3{fill:#ccc;}.cls-4{isolation:isolate;font-family:NotoSansCJKtc-Regular-B5pc-H, Noto Sans CJK TC;}.cls-5{fill:#002a5e;}.cls-6{fill:#f699ba;}.cls-7{fill:#2955b2;}.cls-8{fill:#7f58a5;}.cls-9{fill:#14e6f0;}.cls-10{fill:#df536a;}.cls-11{fill:#001938;}.cls-12{fill:#c12b5d;}</style></defs><text class="cls-1" transform="translate(217.4 36.42)">0.40%</text><polyline class="cls-2" points="159.25 47.47 159.25 32.6 210.75 32.6"/><circle class="cls-3" cx="210.75" cy="32.6" r="2.82"/><text class="cls-1" transform="translate(266.28 89.04)">40.81%</text><line class="cls-2" x1="238.87" y1="85.22" x2="260.15" y2="85.22"/><circle class="cls-3" cx="260.15" cy="85.22" r="2.82"/><text class="cls-1" transform="translate(-0.5 138.05)">18.38%</text><circle class="cls-3" cx="26.63" cy="145.21" r="2.82"/><text class="cls-1" transform="translate(0.72 241.97)">28.41%</text><line class="cls-2" x1="93.37" y1="235.33" x2="64.98" y2="235.33"/><circle class="cls-3" cx="64.98" cy="235.33" r="2.82"/><text class="cls-1" transform="translate(0.72 76.1)">6.52%</text><line class="cls-2" x1="103.75" y1="69.47" x2="54.98" y2="69.47"/><circle class="cls-3" cx="54.98" cy="69.47" r="2.82"/><text class="cls-1" transform="translate(0.72 52.35)">4.33%</text><text class="cls-1" transform="translate(0.72 29.79)">1.15%</text><polyline class="cls-2" points="54.98 45.72 134.27 45.72 136.31 53.11"/><circle class="cls-3" cx="54.98" cy="45.72" r="2.82"/><polyline class="cls-2" points="54.98 26.97 151.6 26.97 153.65 51.64"/><circle class="cls-3" cx="54.98" cy="26.97" r="2.82"/><g id="北美"><text class="cls-4" transform="translate(30.47 307.11)">北美</text></g><circle id="Ellipse_942" data-name="Ellipse 942" class="cls-5" cx="16.47" cy="299.11" r="6"/><g id="英國"><text class="cls-4" transform="translate(110.31 307.11)">英國</text></g><circle id="Ellipse_942-2" data-name="Ellipse 942-2" class="cls-6" cx="96.32" cy="299.11" r="6"/><g id="歐洲"><text class="cls-4" transform="translate(191.4 307.11)">歐洲</text></g><circle id="Ellipse_942-3" data-name="Ellipse 942-3" class="cls-7" cx="177.4" cy="299.11" r="6"/><g id="中南美"><text class="cls-4" transform="translate(269.46 307.11)">中南美</text></g><circle id="Ellipse_942-4" data-name="Ellipse 942-4" class="cls-8" cx="255.47" cy="299.11" r="6"/><g id="亞洲"><text class="cls-4" transform="translate(30.47 334.69)">亞洲</text></g><circle id="Ellipse_942-5" data-name="Ellipse 942-5" class="cls-9" cx="16.47" cy="326.69" r="6"/><g id="非洲"><text class="cls-4" transform="translate(110.31 334.69)">非洲</text></g><circle id="Ellipse_942-6" data-name="Ellipse 942-6" class="cls-10" cx="96.32" cy="326.69" r="6"/><g id="其他"><text class="cls-4" transform="translate(191.4 334.69)">其他</text></g><circle id="Ellipse_942-7" data-name="Ellipse 942-7" class="cls-11" cx="177.4" cy="326.69" r="6"/><path class="cls-11" d="M160.72,77.65h.17V53c-.91,0-2.68,0-3.59.07l.86,24.66C159,77.67,159.86,77.65,160.72,77.65Z"/><path class="cls-12" d="M158.16,77.7,157.3,53c-2.62.09-4.57.23-7.18.5l2.58,24.51C154.5,77.87,156.32,77.75,158.16,77.7Z"/><path class="cls-9" d="M152.7,78.05l-2.58-24.51a100.57,100.57,0,0,0-27.83,6.94l9.22,22.8A78,78,0,0,1,152.7,78.05Z"/><path class="cls-8" d="M131.51,83.28l-9.22-22.8A96.6,96.6,0,0,0,88,83.15l17.36,17.36A78.58,78.58,0,0,1,131.51,83.28Z"/><path class="cls-6" d="M82.35,156a78.15,78.15,0,0,1,23-55.51L88,83.15C58.46,112.73,49.71,153.89,64.7,192.94l22.86-8.78A78.19,78.19,0,0,1,82.35,156Z"/><path class="cls-5" d="M160.72,234.39a78.4,78.4,0,0,1-73.16-50.23L64.7,192.94a103,103,0,0,0,153.81,48.5l-13.84-20.53A78,78,0,0,1,160.72,234.39Z"/><path class="cls-7" d="M160.89,53V77.65a78.37,78.37,0,0,1,43.78,143.26l13.84,20.53C248.33,221.33,263.93,192,263.93,156A103,103,0,0,0,160.89,53Z"/><polyline class="cls-2" points="26.63 145.21 26.63 153.89 52.16 153.89"/></svg>