<svg id="bg" xmlns="http://www.w3.org/2000/svg" viewBox="0 0 1120 482"><defs><style>.cls-1{fill:#0074b7;}.cls-2{fill:#df536a;}.cls-3{fill:#4f3398;}.cls-4{fill:#a446ba;}.cls-5{fill:#871962;}.cls-6{fill:#ff90a1;}.cls-7{fill:#002a5e;}.cls-8{isolation:isolate;}.cls-9{fill:#fff;}</style></defs><path class="cls-1" d="M557.88-.5a66.24,66.24,0,1,0,66.23,66.24A66.24,66.24,0,0,0,557.88-.5Z"/><path class="cls-2" d="M801.5,241a66.24,66.24,0,1,1-66.24-66.23A66.24,66.24,0,0,1,801.5,241Z"/><path class="cls-3" d="M801.5,241a66.24,66.24,0,1,1-66.24-66.23A66.24,66.24,0,0,1,801.5,241Z"/><path class="cls-2" d="M318.5,241a66.24,66.24,0,1,0,66.24-66.23A66.24,66.24,0,0,0,318.5,241Z"/><path class="cls-4" d="M560,482.5a66.24,66.24,0,1,1,66.23-66.24A66.24,66.24,0,0,1,560,482.5Z"/><path class="cls-5" d="M389.24,411.76a66.23,66.23,0,1,1,93.66,0A66.22,66.22,0,0,1,389.24,411.76Z"/><path class="cls-1" d="M730.76,70.24a66.23,66.23,0,1,0,0,93.66A66.22,66.22,0,0,0,730.76,70.24Z"/><path class="cls-6" d="M389.24,70.24a66.23,66.23,0,1,1,0,93.66A66.22,66.22,0,0,1,389.24,70.24Z"/><path class="cls-3" d="M730.76,411.76a66.23,66.23,0,1,0-93.66,0A66.22,66.22,0,0,0,730.76,411.76Z"/><path class="cls-7" d="M667.73,240.84A107.73,107.73,0,1,1,560,133.11,107.73,107.73,0,0,1,667.73,240.84Z"/><g class="cls-8"><path class="cls-9" d="M551.61,53.86a56.55,56.55,0,0,1,6.5,2.64l-1,1.84a58.53,58.53,0,0,0-7.2-3.13l.81-1.35h-.65c-.86,2.21-2.79,3.63-7.59,4.42a5.53,5.53,0,0,0-1.07-1.92c3.62-.49,5.31-1.3,6.16-2.5H542.2V52h6.06c.06-.29.11-.62.15-.94h-6.63V49.25h6.92v-1h-5.33v-1.8h5.33v-.92h-6.36V43.68h3.42a10.35,10.35,0,0,0-1-1.58l1.91-.76A7.85,7.85,0,0,1,548,43.45l-.52.23h4a16.91,16.91,0,0,0,1.28-2.34l2.3.6c-.39.63-.81,1.22-1.2,1.74h3.45v1.89h-6.37v.92h5.51v1.8h-5.51v1h7.17V51.1h-7.4c0,.32-.09.63-.15.94h7v1.82Z"/><path class="cls-9" d="M573.45,56c.59,0,.7-.47.79-3.06a6.14,6.14,0,0,0,2,.9c-.22,3.22-.76,4.16-2.59,4.16h-2.16c-2,0-2.56-.69-2.56-2.79V49.7h-2.7c-.33,3.74-1.15,6.82-5.46,8.57a6,6,0,0,0-1.33-1.75c3.75-1.4,4.25-3.84,4.47-6.82h-4.07V47.61h16.06V49.7h-4.76v5.51c0,.68.11.79.71.79Zm.77-11.18H561.44V42.75h12.78Z"/><path class="cls-9" d="M527.81,74.6v4.29c0,1-.19,1.57-.81,1.87a5.68,5.68,0,0,1-2.71.4,7.49,7.49,0,0,0-.62-2c.72,0,1.46,0,1.7,0s.34-.09.34-.34V75.16l-1.82.47-.56-2,2.38-.52V69.89h-2.15v-2h2.15V64.49h2.1v3.42h1.89v2h-1.89v2.64l1.32-.32.27,2Zm11.38-1.83a11.21,11.21,0,0,1-3.08,5.2,15.76,15.76,0,0,0,4.16,1.37,11.16,11.16,0,0,0-1.35,2,14.67,14.67,0,0,1-4.64-1.94,17.22,17.22,0,0,1-4.9,1.92,9.65,9.65,0,0,0-1-2A14.74,14.74,0,0,0,532.5,78,13.35,13.35,0,0,1,530,74.5l.67-.24h-1v-2h7.82l.38-.09Zm-9-.74a8.22,8.22,0,0,0-1.42-1.53A3.44,3.44,0,0,0,531.18,67V65.06h6.36V69c0,.52,0,.74.29.74h1a4.65,4.65,0,0,0,1-.13c0,.54.09,1.28.16,1.78a3.47,3.47,0,0,1-1.14.13h-1.2c-1.77,0-2.15-.76-2.15-2.56V67l-2.32,0A5,5,0,0,1,530.21,72Zm1.87,2.23a8.55,8.55,0,0,0,2.22,2.52,8.63,8.63,0,0,0,2.08-2.52Z"/><path class="cls-9" d="M552.87,67.69c1,1,2.88,1.41,5.31,1.53A7.06,7.06,0,0,0,557,70.93a8.57,8.57,0,0,1-4.72-1.82c-.69.8-2.18,1.5-5.21,1.84a5.89,5.89,0,0,0-.72-1.17h-4.77V68.14H547v1.1c3.44-.36,3.89-1.17,3.89-1.84v-.27h-1.08a7.66,7.66,0,0,1-1.26,1.55,10.39,10.39,0,0,0-1.59-1.1,7.17,7.17,0,0,0,2.11-3.2l1.87.41c-.09.27-.19.54-.3.79h5.11l.33-.09,1.45.45a15.7,15.7,0,0,1-1.65,2.85l-1.66-.61a10.78,10.78,0,0,0,.63-1.05h-2v.56Zm.49,10.59c1.65.61,3.42,1.33,4.48,1.85l-1.92,1.15a33.85,33.85,0,0,0-4.69-2.12l1.1-.88h-5.08l1.57.72a23.92,23.92,0,0,1-5.62,2.34,13.79,13.79,0,0,0-1.58-1.57,20.29,20.29,0,0,0,4.91-1.49h-2.59V71h12v7.31Zm-6.75-11.35H542V65.37h4.61ZM546,73h7.8v-.77H546Zm0,2h7.8v-.77H546Zm0,2h7.8v-.81H546Z"/><path class="cls-9" d="M561.89,76.59A20.6,20.6,0,0,1,561.1,81a8.47,8.47,0,0,0-1.61-.56,14.78,14.78,0,0,0,.74-4.1Zm-2.38-6.88a2.23,2.23,0,0,0,1-1,20.93,20.93,0,0,0,2.14-4.33l2,.79a24,24,0,0,1-2.43,4.25l1.26-.09a20.37,20.37,0,0,0,1.3-2.38l1.78,1.13a29.7,29.7,0,0,1-3.75,5.24l1.89-.27a12.41,12.41,0,0,0-.5-1.2l1.44-.54a14.23,14.23,0,0,1,1.3,3.58l-1.57.63a7.67,7.67,0,0,0-.18-.88c-3.82.68-4.48.83-4.88,1.06a15.89,15.89,0,0,0-.68-1.89,3.31,3.31,0,0,0,1.46-1.19,16.11,16.11,0,0,0,1.17-1.46,6.29,6.29,0,0,0-2.09.42A18.31,18.31,0,0,0,559.51,69.71Zm4.25,6.48a32.73,32.73,0,0,1,.47,3.58l-1.55.4a31,31,0,0,0-.38-3.62Zm12.17-5.51a18.36,18.36,0,0,1-2.39,6.77,8.1,8.1,0,0,0,2.75,2,7.78,7.78,0,0,0-1.42,1.78,8.69,8.69,0,0,1-2.61-2,11.76,11.76,0,0,1-2.58,2.16,7.64,7.64,0,0,0-1.35-1.6A8.92,8.92,0,0,0,571,77.43a17.64,17.64,0,0,1-1.4-3.1,16.1,16.1,0,0,1-2.22,6.88,10.24,10.24,0,0,0-1.84-1.33,7.53,7.53,0,0,0,.76-1.26l-1.24.45a25.36,25.36,0,0,0-.83-2.9l1.42-.47c.31.81.63,1.8.83,2.56,1.21-2.76,1.46-6.59,1.48-11h-1.5v-2h6.12l.31-.09,1.5.2c-.18,1.55-.51,3.37-.81,4.93h.66l.34-.07ZM570,67.26c0,1-.06,2-.09,3h1.64c.19-1,.37-2.07.52-3Zm.77,4.93a13.16,13.16,0,0,0,1.41,3.42,15.8,15.8,0,0,0,1.33-3.42Z"/><path class="cls-9" d="M583.11,65.12a30,30,0,0,1-1.55,3.33V81.27h-2.09V71.71a16.86,16.86,0,0,1-1.31,1.53,14.56,14.56,0,0,0-1.1-2.2,18.91,18.91,0,0,0,4.07-6.55ZM588,78.93a15.49,15.49,0,0,1-4.12,2.41,11.49,11.49,0,0,0-1.69-1.48,12.38,12.38,0,0,0,3.76-1.69Zm-.72-12.25h-3.94V65.35h3.94v-.88h2.16v.88h4.11v1.33h-4.11v.6h3.73v1.26h-3.73v.61h4.72v1.42H582.52V69.15h4.71v-.61h-3.56V67.28h3.56ZM591,78.12a21.28,21.28,0,0,1,3.24,2.21l-1.93,1.12A19.28,19.28,0,0,0,589,78.94l1.85-.82h-7.09v-7H593v7Zm-5.17-4.94h5v-.7h-5Zm0,1.8h5v-.72h-5Zm0,1.8h5v-.72h-5Z"/></g><g class="cls-8"><path class="cls-9" d="M518.75,412.77a17.62,17.62,0,0,1-1.82,3.69,13.45,13.45,0,0,0-1.41-1,13,13,0,0,0,1.59-3.19Zm2.52-1v6H519.2v-6h-3.35v-1.8h3.35v-1.39h-3.46v-1.76h1.74a10.59,10.59,0,0,0-.52-1.88l1.48-.36H516V402.8h3.08c-.16-.49-.36-1-.54-1.43l2.14-.52c.27.6.59,1.33.81,1.95h2.57v1.74h-2.25l1.46.29c-.27.68-.54,1.39-.81,1.95h1.87v1.76h-3.07v1.39h2.79v1.8Zm-2.6-7.19a9.12,9.12,0,0,1,.6,1.87l-1.3.37h2.59a20.5,20.5,0,0,0,.78-2.24Zm13.71,4.38H530.7v8.84h-2.09v-8.84h-1.67v.21c0,2.65-.24,6.36-1.77,8.66a8,8,0,0,0-1.65-1.27,7.36,7.36,0,0,0,.81-1.75l-1.28.79a21.44,21.44,0,0,0-1.41-2.7l1.41-.76a20.07,20.07,0,0,1,1.35,2.36,19.59,19.59,0,0,0,.56-5.33v-6.41a25,25,0,0,0,5.45-1.53l1.64,1.57a28,28,0,0,1-5.11,1.35v2.83h5.44Z"/><path class="cls-9" d="M550.18,413.65h-5.06c1.73.81,3.56,1.77,4.68,2.45l-1.42,1.64a40.55,40.55,0,0,0-4.94-2.81l1-1.28H539l1.6,1.3a33.92,33.92,0,0,1-5.56,2.86,18.69,18.69,0,0,0-1.21-1.6,23.17,23.17,0,0,0,4.94-2.56h-4.94v-2h1.3l-.25-9.43a20,20,0,0,0,3-1.14l.9,1.75v-1h6.53v9.83h1.82c0-.5,0-1,.09-1.58h-1.51v-1.7h1.58c0-.5,0-1,0-1.54H545.8v-1.72h1.53c0-.57,0-1.11,0-1.67h-1.6v-1.73h3.47c0,3.15-.16,7.15-.32,9.94h1.28Zm-13.29-2h1.84V403c-.69.2-1.37.39-2.06.56l.06,1.62h1.56v1.71h-1.53l0,1.53h1.51v1.71h-1.46Zm3.33-8.23v8.23h3.49v-8.23Zm3.06,2.23h-2.65v-1.31h2.67Zm-2.57.89h2.59v4.05h-2.59Zm.88,2.82h.81v-1.6h-.81Z"/><path class="cls-9" d="M561.06,405.53v2h5.8v6.07c0,1.06-.21,1.65-1,2a8.16,8.16,0,0,1-3.17.36,7.43,7.43,0,0,0-.72-2.11c.9.06,2,.06,2.23,0s.4-.07.4-.31v-3.94h-3.57v8.1h-2.23v-8.1H555.5V416h-2.16v-8.41h5.49v-2h-7v-2.09h7.22c-.27-.64-.61-1.38-.92-2l2.12-.66c.45.83,1,1.91,1.36,2.64h6.64v2.09Z"/><path class="cls-9" d="M579.25,410c-.15.29-.33.58-.51.87h7.31s0,.48,0,.74c-.26,3.51-.55,4.95-1,5.47a1.68,1.68,0,0,1-1.19.61,11.25,11.25,0,0,1-1.82,0,4.16,4.16,0,0,0-.48-1.68,11.79,11.79,0,0,0,1.27.06.61.61,0,0,0,.54-.2c.26-.27.47-1.19.67-3.37h-.7a12.78,12.78,0,0,1-3.6,5.33,6.08,6.08,0,0,0-1.52-1.19,9.8,9.8,0,0,0,3.35-4.14h-1.06a13.76,13.76,0,0,1-4.21,4.52,6.38,6.38,0,0,0-1.41-1.26,10.72,10.72,0,0,0,3.68-3.26h-1.08a11.1,11.1,0,0,1-2.09,1.77,7.6,7.6,0,0,0-1.41-1.26c-1.29.65-2.59,1.29-3.69,1.83l-.79-2.16c.61-.23,1.37-.54,2.21-.88v-5.08h-1.8v-2h1.8v-3.55h2v3.55h1.69v2h-1.69V411l1.44-.63.37,1.53a8.61,8.61,0,0,0,1.66-1.91h-2v-1.8h11.32V410Zm5.94-2.48h-8.52v-6.09h8.52Zm-2-4.61h-4.65v.86h4.65Zm0,2.27h-4.65v.86h4.65Z"/><path class="cls-9" d="M593.28,401.64a30.05,30.05,0,0,1-1.54,3.33v12.82h-2.09v-9.56a17.14,17.14,0,0,1-1.32,1.53,14,14,0,0,0-1.1-2.19A18.57,18.57,0,0,0,591.3,401Zm4.85,13.81a15.47,15.47,0,0,1-4.13,2.42,10.07,10.07,0,0,0-1.69-1.48,12.51,12.51,0,0,0,3.76-1.69Zm-.72-12.24h-3.95v-1.33h3.95V401h2.16v.88h4.1v1.33h-4.1v.59h3.72v1.26h-3.72v.62h4.72v1.42h-11.6v-1.42h4.72v-.62h-3.57V403.8h3.57Zm3.76,11.43a22,22,0,0,1,3.24,2.22L602.48,418a19.39,19.39,0,0,0-3.29-2.5l1.85-.83H594v-6.95h9.25v6.95ZM596,409.71h5V409h-5Zm0,1.8h5v-.72h-5Zm0,1.8h5v-.72h-5Z"/></g><g class="cls-8"><path class="cls-9" d="M676.68,103.33a59.11,59.11,0,0,1,6.5,2.65l-1,1.84a60.74,60.74,0,0,0-7.2-3.14l.81-1.35h-.65c-.87,2.22-2.79,3.64-7.6,4.43a5.5,5.5,0,0,0-1.06-1.92c3.62-.49,5.31-1.3,6.16-2.51h-5.37v-1.82h6.07c0-.28.11-.61.14-.93h-6.62V98.72h6.91v-1h-5.33V96h5.33v-.92H667.4V93.16h3.43a9.88,9.88,0,0,0-1-1.58l1.91-.76a8.2,8.2,0,0,1,1.35,2.11l-.53.23h4a15.83,15.83,0,0,0,1.27-2.34l2.31.59c-.4.63-.81,1.23-1.21,1.75h3.46v1.89H676V96h5.5v1.8H676v1h7.16v1.86h-7.4c0,.32-.09.63-.14.93h7v1.82Z"/><path class="cls-9" d="M698.51,105.48c.6,0,.7-.47.79-3.07a6.11,6.11,0,0,0,2,.91c-.22,3.22-.76,4.15-2.6,4.15h-2.16c-2,0-2.55-.68-2.55-2.79V99.17h-2.71c-.32,3.75-1.15,6.83-5.45,8.57a6.16,6.16,0,0,0-1.33-1.74c3.74-1.41,4.25-3.84,4.46-6.83h-4.07V97.09h16.06v2.08h-4.75v5.51c0,.69.11.8.7.8Zm.78-11.19H686.5V92.22h12.79Z"/><path class="cls-9" d="M664.82,115.64v1.8h-15.9v-1.8h6.93c-.14-.43-.29-.88-.43-1.26l2.21-.54c.2.56.49,1.22.71,1.8Zm-.42,13.18c0,.93-.23,1.31-.92,1.58a9.45,9.45,0,0,1-2.86.22,6.62,6.62,0,0,0-.63-1.51h-5.15v.75h-2v-4.75h7.83v4h1.19c.25,0,.36-.08.36-.31v-4.36H651.49v6.32h-2.07v-8h15ZM662.67,122H651.31v-3.86h11.36Zm-2.25-2.42h-7v1h7Zm-1.62,7h-4v1h4Z"/><path class="cls-9" d="M682.22,119.33A21,21,0,0,1,680,126.1a10.18,10.18,0,0,0,3.44,2.86,7.27,7.27,0,0,0-1.46,1.77,11.57,11.57,0,0,1-3.22-2.83,11.87,11.87,0,0,1-3.57,2.95,9.25,9.25,0,0,0-1.38-1.74,10.1,10.1,0,0,0,3.74-3,19.17,19.17,0,0,1-1.71-3.92,11.56,11.56,0,0,1-.94,1.29,10.78,10.78,0,0,0-1.29-1.67v9h-2.13v-4.65c-2.86,1-3.45,1.33-3.85,1.66a7.65,7.65,0,0,0-.83-2,1.34,1.34,0,0,0,.67-1.28v-8.68h2.11v8.78l1.9-.57v-9.87h2.13v7.1c1.4-1.75,2.23-4.49,2.66-7.39l2.18.36c-.18,1-.38,2-.63,3h5.49v2Zm-5.06,0c0,.16-.12.32-.18.49a19.65,19.65,0,0,0,1.71,4.32,16.9,16.9,0,0,0,1.41-4.81Z"/><path class="cls-9" d="M701.11,128.33v1.89H684.68v-1.89h2.07v-5.08l-.72.33a8.23,8.23,0,0,0-1.22-1.77,21.11,21.11,0,0,0,5.24-2.41l1.49,1.06a31.09,31.09,0,0,1-4.5,2.65h12v5.22Zm-.24-9.09h-16v-1.89h4.25a20.09,20.09,0,0,0-1.59-2.59l1.82-.8a13.19,13.19,0,0,1,1.87,2.88l-1,.51h5.24l-1-.34a19.12,19.12,0,0,0,1.66-3.05l2.18.65c-.62,1-1.28,2-1.84,2.74h4.32Zm-12.22,9.09h1.49v-3.42h-1.49Zm3.45-3.42v3.42h1.5v-3.42Zm3.33-5.53a52.42,52.42,0,0,1,5.6,2.27l-1.19,1.69a51,51,0,0,0-5.52-2.46Zm.13,5.53v3.42h1.53v-3.42Z"/><path class="cls-9" d="M708.18,114.59a32.1,32.1,0,0,1-1.55,3.33v12.82h-2.09v-9.56a15.65,15.65,0,0,1-1.32,1.53,14.86,14.86,0,0,0-1.09-2.19A18.86,18.86,0,0,0,706.2,114ZM713,128.4a15.41,15.41,0,0,1-4.12,2.42,10.56,10.56,0,0,0-1.7-1.48,12.69,12.69,0,0,0,3.77-1.69Zm-.72-12.24h-3.94v-1.33h3.94V114h2.16v.88h4.1v1.33h-4.1v.59h3.73V118h-3.73v.62h4.72v1.42h-11.6v-1.42h4.72V118h-3.57v-1.26h3.57Zm3.76,11.43a22,22,0,0,1,3.24,2.22l-1.92,1.11a19.92,19.92,0,0,0-3.3-2.5l1.86-.83h-7.1v-7h9.26v7Zm-5.17-4.93h5.05V122h-5.05Zm0,1.8h5.05v-.72h-5.05Zm0,1.8h5.05v-.72h-5.05Z"/></g><g class="cls-8"><path class="cls-9" d="M420.37,102.79h-4.32l-.94,3.42h-2.7l4.27-13.32h3.13l4.28,13.32H421.3Zm-.58-2.07-.4-1.46c-.41-1.38-.77-2.91-1.17-4.35h-.07c-.34,1.46-.74,3-1.13,4.35l-.4,1.46Z"/><path class="cls-9" d="M425.66,92.89h4.41c2.73,0,4.82.79,4.82,3.28a3,3,0,0,1-1.82,2.88v.09a3,3,0,0,1,2.51,3.15c0,2.68-2.24,3.92-5.17,3.92h-4.75Zm4.21,5.42c1.69,0,2.43-.68,2.43-1.75s-.79-1.64-2.39-1.64h-1.59v3.39Zm.31,5.85c1.81,0,2.8-.65,2.8-2s-1-1.84-2.8-1.84h-1.86v3.87Z"/><path class="cls-9" d="M436.69,104.52l1.53-1.83a5.27,5.27,0,0,0,3.39,1.47c1.38,0,2.12-.59,2.12-1.53s-.81-1.3-2-1.8l-1.78-.76a3.84,3.84,0,0,1-2.7-3.58c0-2.18,1.91-3.85,4.61-3.85A5.93,5.93,0,0,1,446,94.35L444.68,96a4.23,4.23,0,0,0-2.82-1.1c-1.17,0-1.93.53-1.93,1.41s1,1.3,2.09,1.75l1.75.73a3.69,3.69,0,0,1,2.68,3.62c0,2.18-1.82,4-4.9,4A7.12,7.12,0,0,1,436.69,104.52Z"/><path class="cls-9" d="M451.88,91.72h1.77l-4.47,17.77h-1.76Z"/><path class="cls-9" d="M415.69,115.89h3l2.27,6.23c.28.83.54,1.71.81,2.57h.09c.28-.86.52-1.74.81-2.57l2.21-6.23h3v13.32h-2.43v-5.56c0-1.26.2-3.11.33-4.37h-.08l-1.08,3.13-2,5.6H421l-2.07-5.6-1.06-3.13h-.07c.12,1.26.34,3.11.34,4.37v5.56h-2.4Z"/><path class="cls-9" d="M431.07,115.89h4.41c2.73,0,4.82.79,4.82,3.28a3,3,0,0,1-1.82,2.88v.09a3,3,0,0,1,2.51,3.15c0,2.68-2.24,3.92-5.17,3.92h-4.75Zm4.21,5.42c1.69,0,2.43-.68,2.43-1.75s-.79-1.64-2.4-1.64h-1.58v3.39Zm.3,5.85c1.82,0,2.81-.65,2.81-2s-1-1.84-2.81-1.84h-1.85v3.87Z"/><path class="cls-9" d="M442.1,127.52l1.53-1.83a5.22,5.22,0,0,0,3.38,1.47c1.39,0,2.13-.59,2.13-1.53s-.81-1.3-2-1.8l-1.78-.76a3.84,3.84,0,0,1-2.7-3.58c0-2.18,1.91-3.85,4.61-3.85a5.89,5.89,0,0,1,4.17,1.71L450.09,119a4.23,4.23,0,0,0-2.82-1.1c-1.17,0-1.93.53-1.93,1.41s1,1.3,2.09,1.75l1.75.73a3.69,3.69,0,0,1,2.68,3.62c0,2.18-1.82,4-4.9,4A7.12,7.12,0,0,1,442.1,127.52Z"/></g><g class="cls-8"><path class="cls-9" d="M731.27,226.1c0,.35,0,.72,0,1.1.63,3.44,1.57,5.55,3.53,7.33a5,5,0,0,0-1.31,1.66,12.21,12.21,0,0,1-3-4.68,11.07,11.07,0,0,1-2.82,4.68,8.5,8.5,0,0,0-.85-1.12,11.25,11.25,0,0,1-1.87.11h-3.44c-2.32,0-3.12-.88-3.12-3.4v-9.89h-.55v-1.8h9v1.8h-6.53v10c0,1.15.27,1.53,1.15,1.53h3.62a9,9,0,0,0,1.78-.18l.07.64c2.14-2.52,2.4-5.72,2.4-7.81V224.7h1.94Zm-10.53,1.75h2.77v4.56h-2.77Zm5.15-.92h-4.52v-4.12h4.52Zm-4.14,4.22h.73v-2h-.73Zm2.52-7.08H722.9v1.62h1.37Zm2.57,8.35H724v-4.53h2.86Zm-1.06-3.27H725v2h.79Zm3.58-5.28a13,13,0,0,1-1.53,3.39,10.57,10.57,0,0,0-1.67-1.12,15.38,15.38,0,0,0,2.21-6.84l2,.3c-.11.8-.26,1.57-.44,2.33h3.35l.31-.08,1.37.42a43.94,43.94,0,0,1-1.46,5.13l-1.6-.52a29.14,29.14,0,0,0,.79-3Z"/><path class="cls-9" d="M738.77,227.69a22,22,0,0,0-2.95-1.84l1.19-1.56a24.41,24.41,0,0,1,3,1.67Zm1.41,2.52c-.6,1.93-1.39,4-2.13,5.76l-1.94-1.1a52,52,0,0,0,2.34-5.78Zm-.72-7.22a20,20,0,0,0-3-1.93l1.26-1.56a20,20,0,0,1,3,1.76ZM752,219.78v16.37H750V229l-.86.41a14.94,14.94,0,0,0-.92-2.48v8.66h-2V229l-1.08.45a22.27,22.27,0,0,0-.79-2.82c-.06,3.31-.4,6.79-2.31,9.56a7.47,7.47,0,0,0-1.83-1.24,11.63,11.63,0,0,0,2-5.75l-1.17.44a19.08,19.08,0,0,0-1.1-4.27l1.51-.54a17.38,17.38,0,0,1,.88,2.52c0-.52,0-1,0-1.53v-6h2v5.44l.94-.36c.34.79.66,1.69.93,2.54v-7.28h2v4.74l.61-.27c.4.74.81,1.6,1.17,2.41v-7.24Z"/><path class="cls-9" d="M704.25,252.47v4.29c0,1-.2,1.56-.81,1.87a5.75,5.75,0,0,1-2.72.39,7.15,7.15,0,0,0-.61-1.94c.72,0,1.46,0,1.69,0s.34-.09.34-.34V253l-1.82.47-.55-2.06,2.37-.52v-3.17H700v-2h2.14v-3.42h2.11v3.42h1.89v2h-1.89v2.65l1.31-.32.27,2Zm11.38-1.84a11.33,11.33,0,0,1-3.08,5.21,15.64,15.64,0,0,0,4.16,1.37,10.48,10.48,0,0,0-1.35,2,14.84,14.84,0,0,1-4.65-1.95,17,17,0,0,1-4.89,1.93,9.18,9.18,0,0,0-1.05-2,14.64,14.64,0,0,0,4.16-1.37,13,13,0,0,1-2.48-3.48l.66-.23h-1v-2h7.81l.38-.09Zm-9-.73a7.62,7.62,0,0,0-1.42-1.53c2.13-1,2.4-2.27,2.4-3.52v-1.92H714v3.92c0,.53,0,.74.29.74h1a4.51,4.51,0,0,0,1-.12c0,.54.09,1.27.16,1.78a3.47,3.47,0,0,1-1.13.12h-1.21c-1.76,0-2.14-.75-2.14-2.55v-1.91l-2.32,0A5,5,0,0,1,706.64,249.9Zm1.88,2.23a8.64,8.64,0,0,0,2.21,2.52,8.51,8.51,0,0,0,2.09-2.52Z"/><path class="cls-9" d="M729.31,245.56c1,.95,2.88,1.4,5.31,1.53a6.91,6.91,0,0,0-1.19,1.71,8.6,8.6,0,0,1-4.72-1.82c-.68.79-2.18,1.49-5.2,1.84a5.37,5.37,0,0,0-.72-1.17H718V246h5.44v1.1c3.44-.37,3.89-1.18,3.89-1.84V245h-1.09a7.88,7.88,0,0,1-1.26,1.55,9.64,9.64,0,0,0-1.58-1.1,7.31,7.31,0,0,0,2.11-3.21l1.87.42c-.09.27-.2.54-.31.79h5.12l.32-.09,1.46.45a16.07,16.07,0,0,1-1.66,2.85l-1.65-.62c.19-.29.43-.66.63-1h-2v.56Zm.48,10.58c1.66.62,3.42,1.34,4.49,1.86l-1.93,1.15a33,33,0,0,0-4.68-2.12l1.1-.89h-5.08l1.57.72a23.1,23.1,0,0,1-5.62,2.34,14.69,14.69,0,0,0-1.59-1.56,20.82,20.82,0,0,0,4.92-1.5h-2.59v-7.31h12v7.31ZM723,244.8h-4.61v-1.57H723Zm-.59,6.09h7.79v-.78h-7.79Zm0,2h7.79v-.78h-7.79Zm0,2h7.79v-.81h-7.79Z"/><path class="cls-9" d="M738.32,254.45a19.21,19.21,0,0,1-.79,4.39,8.36,8.36,0,0,0-1.6-.55,15.3,15.3,0,0,0,.74-4.11ZM736,247.57c.36-.1.66-.43,1-1a20.57,20.57,0,0,0,2.14-4.34l2,.79a24.64,24.64,0,0,1-2.43,4.25l1.26-.09a20.85,20.85,0,0,0,1.29-2.37L743,246a29.5,29.5,0,0,1-3.74,5.24l1.89-.27a12.63,12.63,0,0,0-.5-1.21l1.44-.54a14.64,14.64,0,0,1,1.29,3.59l-1.56.63a8.25,8.25,0,0,0-.18-.89c-3.82.69-4.49.83-4.88,1.07a16.1,16.1,0,0,0-.69-1.89,3.32,3.32,0,0,0,1.46-1.19,15.8,15.8,0,0,0,1.17-1.46,6.52,6.52,0,0,0-2.09.41A18.91,18.91,0,0,0,736,247.57Zm4.25,6.49a32.26,32.26,0,0,1,.46,3.58l-1.54.39a30.84,30.84,0,0,0-.38-3.61Zm12.17-5.51a18.25,18.25,0,0,1-2.4,6.77,8.38,8.38,0,0,0,2.76,2,7.66,7.66,0,0,0-1.43,1.78,9,9,0,0,1-2.61-2.05,12,12,0,0,1-2.57,2.16,7.45,7.45,0,0,0-1.35-1.61,9.13,9.13,0,0,0,2.65-2.28,18.41,18.41,0,0,1-1.41-3.1,16.24,16.24,0,0,1-2.21,6.88,11,11,0,0,0-1.84-1.33,7.53,7.53,0,0,0,.76-1.26l-1.25.45a23.31,23.31,0,0,0-.82-2.9l1.42-.47c.3.81.63,1.8.83,2.56,1.2-2.76,1.46-6.59,1.47-11h-1.49v-2H749l.31-.09,1.49.2c-.18,1.54-.5,3.36-.81,4.93h.67l.34-.07Zm-5.93-3.43c0,1-.05,2.06-.09,3H748c.2-1,.38-2.07.52-3Zm.78,4.94a13.44,13.44,0,0,0,1.4,3.42,15,15,0,0,0,1.33-3.42Z"/><path class="cls-9" d="M759.55,243a33.09,33.09,0,0,1-1.55,3.33v12.82h-2.09v-9.56a15.65,15.65,0,0,1-1.32,1.53,14.86,14.86,0,0,0-1.09-2.19,18.86,18.86,0,0,0,4.07-6.56Zm4.84,13.81a15.12,15.12,0,0,1-4.12,2.41,11,11,0,0,0-1.7-1.47,13,13,0,0,0,3.77-1.69Zm-.72-12.24h-3.94v-1.33h3.94v-.89h2.16v.89h4.11v1.33h-4.11v.59h3.73v1.26h-3.73V247h4.72v1.42H759V247h4.72v-.62H760.1v-1.26h3.57ZM767.43,256a22,22,0,0,1,3.24,2.22l-1.92,1.11a19.92,19.92,0,0,0-3.3-2.5l1.86-.83h-7.1V249h9.26V256Zm-5.17-4.93h5v-.7h-5Zm0,1.8h5v-.72h-5Zm0,1.8h5v-.72h-5Z"/></g><g class="cls-8"><path class="cls-9" d="M682,351.11c0,.34,0,.72,0,1.09.63,3.44,1.57,5.55,3.53,7.33a5.13,5.13,0,0,0-1.32,1.66,12.31,12.31,0,0,1-3-4.68,10.94,10.94,0,0,1-2.83,4.68,9.29,9.29,0,0,0-.84-1.12,11.25,11.25,0,0,1-1.87.11H672.3c-2.33,0-3.12-.88-3.12-3.4v-9.89h-.56v-1.8h9v1.8h-6.54v10c0,1.15.27,1.53,1.16,1.53h3.61a8.45,8.45,0,0,0,1.79-.18l.07.65c2.14-2.52,2.39-5.73,2.39-7.82V349.7H682Zm-10.54,1.74h2.78v4.56H671.5Zm5.15-.92h-4.51v-4.12h4.51Zm-4.14,4.22h.74v-2h-.74Zm2.52-7.08h-1.36v1.62H675Zm2.58,8.36h-2.86v-4.54h2.86Zm-1.06-3.28h-.8v2h.8Zm3.58-5.28a13,13,0,0,1-1.53,3.39,11.41,11.41,0,0,0-1.68-1.12,15.38,15.38,0,0,0,2.22-6.84l1.94.31a22.07,22.07,0,0,1-.43,2.32H684l.31-.07,1.37.41a46,46,0,0,1-1.46,5.13l-1.61-.52a28.29,28.29,0,0,0,.8-3Z"/><path class="cls-9" d="M689.54,352.69a22.62,22.62,0,0,0-2.95-1.84l1.19-1.56a24.41,24.41,0,0,1,3,1.67Zm1.41,2.52c-.6,1.93-1.39,4-2.13,5.76l-1.94-1.1a54.62,54.62,0,0,0,2.34-5.77Zm-.72-7.22a21.1,21.1,0,0,0-3-1.93l1.26-1.56a20.88,20.88,0,0,1,3,1.76Zm12.56-3.2v16.36h-2V354l-.86.42A16.66,16.66,0,0,0,699,352v8.66h-2V354l-1.08.45a23.66,23.66,0,0,0-.79-2.83c-.06,3.31-.4,6.79-2.31,9.56a7.76,7.76,0,0,0-1.83-1.24,11.63,11.63,0,0,0,2-5.74l-1.17.43a19.22,19.22,0,0,0-1.1-4.27l1.51-.54a17.81,17.81,0,0,1,.88,2.52c0-.52,0-1,0-1.53v-6h2v5.44l.93-.36c.34.79.67,1.69.94,2.54v-7.27h2v4.73l.61-.27c.4.74.81,1.6,1.17,2.41v-7.23Z"/><path class="cls-9" d="M667,369v1.8H651.06V369H658c-.15-.43-.29-.88-.43-1.26l2.21-.54c.2.56.49,1.22.7,1.8Zm-.41,13.18c0,.93-.23,1.31-.92,1.58a9.48,9.48,0,0,1-2.86.22,7.1,7.1,0,0,0-.63-1.51H657v.75h-2V378.5h7.83v4H664c.25,0,.36-.08.36-.31v-4.36H653.63v6.32h-2.07v-8h15Zm-1.73-6.84H653.45v-3.86h11.36ZM662.56,373h-7v1h7Zm-1.62,7h-4v1h4Z"/><path class="cls-9" d="M684.36,372.72a20.89,20.89,0,0,1-2.23,6.77,10.18,10.18,0,0,0,3.44,2.86,7.27,7.27,0,0,0-1.46,1.77,11.43,11.43,0,0,1-3.22-2.83,12,12,0,0,1-3.57,2.95,8.92,8.92,0,0,0-1.39-1.74,10.06,10.06,0,0,0,3.75-3,19.17,19.17,0,0,1-1.71-3.92,11.56,11.56,0,0,1-.94,1.29,10.78,10.78,0,0,0-1.29-1.67v9h-2.13v-4.65c-2.86,1-3.46,1.33-3.85,1.66a8.43,8.43,0,0,0-.83-2,1.34,1.34,0,0,0,.67-1.28V369.3h2.1v8.79l1.91-.58v-9.87h2.13v7.1c1.4-1.75,2.23-4.49,2.66-7.39l2.18.36c-.18,1-.38,2-.63,3h5.49v2Zm-5.06,0c0,.16-.12.32-.18.49a19.65,19.65,0,0,0,1.71,4.32,16.9,16.9,0,0,0,1.41-4.81Z"/><path class="cls-9" d="M703.24,381.72v1.89H686.82v-1.89h2.07v-5.08l-.72.33A8.23,8.23,0,0,0,687,375.2a21.11,21.11,0,0,0,5.24-2.41l1.49,1.06a31.09,31.09,0,0,1-4.5,2.65h12v5.22Zm-.23-9.09h-16v-1.89h4.25a20.09,20.09,0,0,0-1.59-2.59l1.82-.8a13,13,0,0,1,1.87,2.89l-1,.5h5.24l-1-.34a19.12,19.12,0,0,0,1.66-3l2.17.65c-.61,1-1.27,2-1.83,2.74H703Zm-12.23,9.09h1.5V378.3h-1.5Zm3.46-3.42v3.42h1.49V378.3Zm3.33-5.53a52.42,52.42,0,0,1,5.6,2.27l-1.19,1.7a48.45,48.45,0,0,0-5.53-2.47Zm.13,5.53v3.42h1.53V378.3Z"/><path class="cls-9" d="M710.31,368a31.05,31.05,0,0,1-1.54,3.34v12.82h-2.09v-9.57a17.14,17.14,0,0,1-1.32,1.53,14,14,0,0,0-1.1-2.19,18.71,18.71,0,0,0,4.07-6.56Zm4.85,13.81a15.47,15.47,0,0,1-4.13,2.42,10.54,10.54,0,0,0-1.69-1.48A12.51,12.51,0,0,0,713.1,381Zm-.72-12.24h-4v-1.33h4v-.88h2.16v.88h4.1v1.33h-4.1v.6h3.72v1.26H716.6V372h4.71v1.42H709.72V372h4.72v-.61h-3.57v-1.26h3.57ZM718.2,381a22,22,0,0,1,3.24,2.22l-1.93,1.12a18.89,18.89,0,0,0-3.29-2.51l1.85-.83H711v-7h9.25v7ZM713,376.05h5v-.7h-5Zm0,1.8h5v-.72h-5Zm0,1.8h5v-.72h-5Z"/></g><g class="cls-8"><path class="cls-9" d="M416.69,334a21.58,21.58,0,0,1,1.49,4.57l-1.82.86a18.62,18.62,0,0,0-1.06-4c0,3.71-.45,7.79-3.85,10.64a8.53,8.53,0,0,0-1.55-1.68,8.88,8.88,0,0,0,3.06-5.74l-1.51.72a34.77,34.77,0,0,0-1.35-4.72l1.67-.72a32.56,32.56,0,0,1,1.3,3.78,22.65,22.65,0,0,0,.11-2.45v-5.69h2.12v5Zm8.78-4.49v16.39h-2.14v-7.55l-1.6.89a20.47,20.47,0,0,0-1.46-4v9.67h-2.09V330h2.09v4.54l1.31-.65a22.7,22.7,0,0,1,1.75,3.94v-8.3Z"/><path class="cls-9" d="M443.35,334.57a21,21,0,0,1-2.09,6.93,8.67,8.67,0,0,0,3.37,2.77,7.64,7.64,0,0,0-1.46,1.84,9.78,9.78,0,0,1-3.23-2.74,11.36,11.36,0,0,1-3.67,2.79,8.36,8.36,0,0,0-1.21-1.89,9.08,9.08,0,0,0,3.68-2.79,20.49,20.49,0,0,1-1.48-4,8.61,8.61,0,0,1-.63.88,10.28,10.28,0,0,0-1-1v.16h-2.05v3.69l2.54-.54.18,2c-3,.69-6.14,1.37-8.45,1.9l-.38-2.18.94-.17v-7.67h1.93v7.33l1.15-.21v-9.28h-3.6v-2.05h8.24v2.05h-2.55v3.15h2.05V336a17.76,17.76,0,0,0,2.23-6.71l2.13.32c-.16,1-.4,2-.65,3h5.11v2Zm-4.74.23a21.71,21.71,0,0,0,1.37,4.54,17.88,17.88,0,0,0,1.21-4.77H438.7Z"/><path class="cls-9" d="M451.35,329.94a30.92,30.92,0,0,1-1.54,3.33v12.82h-2.09v-9.56a17.14,17.14,0,0,1-1.32,1.53,13.68,13.68,0,0,0-1.1-2.2,18.67,18.67,0,0,0,4.07-6.55Zm4.85,13.81a15.71,15.71,0,0,1-4.13,2.41,11.06,11.06,0,0,0-1.69-1.48,12.27,12.27,0,0,0,3.76-1.69Zm-.72-12.24h-4v-1.34h4v-.88h2.16v.88h4.1v1.34h-4.1v.59h3.72v1.26h-3.72V334h4.72v1.42h-11.6V334h4.72v-.61h-3.57V332.1h3.57Zm3.76,11.43a21.28,21.28,0,0,1,3.24,2.21l-1.93,1.12a19.39,19.39,0,0,0-3.29-2.5l1.85-.83H452V336h9.25v6.95ZM454.07,338h5v-.7h-5Zm0,1.81h5v-.72h-5Zm0,1.8h5v-.72h-5Z"/><path class="cls-9" d="M419.13,356.83v2h5.8v6.07c0,1.06-.21,1.66-1,2a8.16,8.16,0,0,1-3.17.36,7.26,7.26,0,0,0-.72-2.1c.9.05,2,.05,2.23,0s.4-.07.4-.3v-3.95h-3.57V369H416.9v-8.11h-3.33v6.32h-2.16v-8.41h5.49v-2h-7v-2.09h7.22c-.27-.65-.61-1.39-.92-2l2.12-.67c.45.83,1.05,1.91,1.36,2.65h6.64v2.09Z"/><path class="cls-9" d="M443.35,357.57a21,21,0,0,1-2.09,6.93,8.67,8.67,0,0,0,3.37,2.77,7.64,7.64,0,0,0-1.46,1.84,9.78,9.78,0,0,1-3.23-2.74,11.36,11.36,0,0,1-3.67,2.79,8.36,8.36,0,0,0-1.21-1.89,9.08,9.08,0,0,0,3.68-2.79,20.49,20.49,0,0,1-1.48-4,8.61,8.61,0,0,1-.63.88,10.28,10.28,0,0,0-1-1v.16h-2.05v3.69l2.54-.54.18,2c-3,.69-6.14,1.37-8.45,1.9l-.38-2.18.94-.17v-7.67h1.93v7.33l1.15-.21v-9.28h-3.6v-2.05h8.24v2.05h-2.55v3.15h2.05V359a17.76,17.76,0,0,0,2.23-6.71l2.13.32c-.16,1-.4,2-.65,3h5.11v2Zm-4.74.23a21.71,21.71,0,0,0,1.37,4.54,17.88,17.88,0,0,0,1.21-4.77H438.7Z"/><path class="cls-9" d="M451.35,352.94a30.92,30.92,0,0,1-1.54,3.33v12.82h-2.09v-9.56a17.14,17.14,0,0,1-1.32,1.53,13.68,13.68,0,0,0-1.1-2.2,18.67,18.67,0,0,0,4.07-6.55Zm4.85,13.81a15.71,15.71,0,0,1-4.13,2.41,11.06,11.06,0,0,0-1.69-1.48,12.27,12.27,0,0,0,3.76-1.69Zm-.72-12.24h-4v-1.34h4v-.88h2.16v.88h4.1v1.34h-4.1v.59h3.72v1.26h-3.72V357h4.72v1.42h-11.6V357h4.72v-.61h-3.57V355.1h3.57Zm3.76,11.43a21.28,21.28,0,0,1,3.24,2.21l-1.93,1.12a19.39,19.39,0,0,0-3.29-2.5l1.85-.83H452V359h9.25v6.95ZM454.07,361h5v-.7h-5Zm0,1.81h5v-.72h-5Zm0,1.8h5v-.72h-5Z"/><path class="cls-9" d="M415,384c-.56,0-1.06.4-1.49,1.19l-1.39-1.05c.94-1.47,1.94-2,2.93-2,1.66,0,2.42,1.58,3.53,1.58.58,0,1.07-.39,1.5-1.17l1.38,1.05a3.53,3.53,0,0,1-2.91,2C416.89,385.55,416.15,384,415,384Z"/><path class="cls-9" d="M423.59,388.42h2.86V380H424v-1.64a8.58,8.58,0,0,0,3.09-1.11h2v11.18h2.5v2.14h-8Z"/><path class="cls-9" d="M433.51,383.84c0-4.61,1.8-6.86,4.51-6.86s4.51,2.27,4.51,6.86-1.8,7-4.51,7S433.51,388.43,433.51,383.84Zm6.51,0c0-3.72-.86-4.8-2-4.8s-2,1.08-2,4.8.86,4.9,2,4.9S440,387.59,440,383.84Z"/><path class="cls-9" d="M443.89,381.18c0-2.67,1.33-4.2,3.24-4.2s3.26,1.53,3.26,4.2-1.35,4.25-3.26,4.25S443.89,383.86,443.89,381.18Zm4.63,0c0-2-.61-2.7-1.39-2.7s-1.37.74-1.37,2.7.6,2.75,1.37,2.75S448.52,383.14,448.52,381.18Zm6.3-4.2h1.57l-7.26,13.83h-1.55Zm-1.24,9.58c0-2.68,1.35-4.21,3.24-4.21s3.26,1.53,3.26,4.21-1.37,4.25-3.26,4.25S453.58,389.23,453.58,386.56Zm4.63,0c0-2-.62-2.72-1.39-2.72s-1.39.76-1.39,2.72.61,2.74,1.39,2.74S458.21,388.52,458.21,386.56Z"/></g><g class="cls-8"><path class="cls-9" d="M374.88,222.72h-2.07v10.73c0,1.3-.31,1.93-1.15,2.29a12.25,12.25,0,0,1-4.07.39,9.73,9.73,0,0,0-.89-2.27c1.28.08,2.85.06,3.28.06s.58-.13.58-.51V222.72h-11.9v-2.16h16.22Zm-12.48,9v1.37h-2.09v-8.33H368v7Zm0-4.93v2.88h3.42v-2.88Z"/><path class="cls-9" d="M391.08,230.71h2.05v1.57h-2.05v2c0,.92-.15,1.37-.83,1.64a8.43,8.43,0,0,1-2.79.27,6.6,6.6,0,0,0-.52-1.67l-.72.45a8.56,8.56,0,0,0-1.55-2.2l.88-.52h-1.69v1h-2.78v2.85h-1.89v-2.85h-2.9v-1.87h2.9v-1.08h-2.3v-6.5h2.3v-.94h-2.64v-1.85h2.64v-1.71h1.89v1.71h2.56v1.85h-2.56v.94h2.4v6.5h-2.4v1.08h2.78v-.74h5.27V230h1.95Zm-12.66-4.28h1v-1.06h-1Zm0,2.46h1v-1.06h-1Zm3.51-3.52h-1.1v1.06h1.1Zm0,2.46h-1.1v1.06h1.1Zm1.91.63c1,0,2.23,0,3.6-.05v-.79h-3.13v-4.83h3.13v-.67H384v-1.56h3.44v-1.19h1.82v1.19h3.62v1.56h-3.62v.67h3.29v4.83h-.75a11.49,11.49,0,0,1,1.44,2.07l-1.5.74a5.9,5.9,0,0,0-.34-.64c-2.7.1-5.47.17-7.45.2Zm2.14-3.81h1.46v-.71H386Zm1.46,1.81v-.72H386v.72Zm1.69,5.82h-2.7a7.64,7.64,0,0,1,1.32,1.75l-.74.46c.72,0,1.55,0,1.78,0s.34-.07.34-.27Zm.13-8.34v.71h1.53v-.71Zm1.53,1.8h-1.53v.72h1.53Zm-1.53,2.63,1.15,0c-.14-.18-.29-.34-.43-.5l.5-.23h-1.22Z"/><path class="cls-9" d="M400,220a29.2,29.2,0,0,1-1.55,3.33v12.82h-2.09v-9.56a15.6,15.6,0,0,1-1.31,1.53,15,15,0,0,0-1.1-2.19,18.86,18.86,0,0,0,4.07-6.56Zm4.84,13.81a15,15,0,0,1-4.12,2.41,11.43,11.43,0,0,0-1.69-1.47,12.88,12.88,0,0,0,3.76-1.69Zm-.72-12.24H400.2v-1.33h3.94v-.89h2.16v.89h4.11v1.33H406.3v.59H410v1.26H406.3V224H411v1.42H399.43V224h4.71v-.62h-3.56v-1.26h3.56ZM407.91,233a22,22,0,0,1,3.24,2.22l-1.93,1.11a19.8,19.8,0,0,0-3.29-2.5l1.85-.83h-7.09V226h9.25V233Zm-5.17-4.93h5v-.7h-5Zm0,1.8h5v-.72h-5Zm0,1.8h5v-.72h-5Z"/><path class="cls-9" d="M363.69,251c-.56,0-1.07.4-1.5,1.19l-1.38-1c.93-1.48,1.94-2,2.93-2,1.66,0,2.41,1.59,3.53,1.59.58,0,1.06-.4,1.49-1.17l1.39,1c-.92,1.46-1.94,2-2.92,2C365.56,252.6,364.82,251,363.69,251Z"/><path class="cls-9" d="M372.25,255.46h2.87V247H372.7v-1.64a8.57,8.57,0,0,0,3.1-1.11h2v11.18h2.51v2.14h-8Z"/><path class="cls-9" d="M382.17,250.89c0-4.61,1.8-6.86,4.52-6.86s4.5,2.26,4.5,6.86-1.8,7-4.5,7S382.17,255.48,382.17,250.89Zm6.52,0c0-3.73-.86-4.81-2-4.81s-2,1.08-2,4.81.87,4.89,2,4.89S388.69,254.63,388.69,250.89Z"/><path class="cls-9" d="M392.56,248.22c0-2.66,1.33-4.19,3.24-4.19s3.26,1.53,3.26,4.19-1.35,4.25-3.26,4.25S392.56,250.9,392.56,248.22Zm4.63,0c0-2-.62-2.7-1.39-2.7s-1.37.74-1.37,2.7S395,251,395.8,251,397.19,250.18,397.19,248.22Zm6.3-4.19h1.56l-7.25,13.82h-1.55Zm-1.25,9.58c0-2.69,1.36-4.22,3.25-4.22s3.25,1.53,3.25,4.22-1.36,4.24-3.25,4.24S402.24,256.27,402.24,253.61Zm4.63,0c0-2-.61-2.72-1.38-2.72s-1.39.75-1.39,2.72.61,2.73,1.39,2.73S406.87,255.57,406.87,253.61Z"/></g><g class="cls-8"><path class="cls-9" d="M498.92,225.89v5.24c0,1.27-.24,1.91-1,2.28a6.92,6.92,0,0,1-3.32.49,8.88,8.88,0,0,0-.75-2.38c.88,0,1.78,0,2.07,0s.42-.11.42-.41v-4.56l-2.23.57-.68-2.51c.84-.17,1.83-.39,2.91-.63v-3.88h-2.62V217.7h2.62v-4.18h2.57v4.18h2.31v2.42h-2.31v3.24l1.61-.4.33,2.4Zm13.91-2.25a13.73,13.73,0,0,1-3.77,6.36,19.26,19.26,0,0,0,5.09,1.68,12.61,12.61,0,0,0-1.65,2.42,17.93,17.93,0,0,1-5.68-2.38,20.62,20.62,0,0,1-6,2.35,11.64,11.64,0,0,0-1.28-2.39,17.85,17.85,0,0,0,5.08-1.68,16.16,16.16,0,0,1-3-4.24l.81-.29h-1.28V223h9.55l.47-.11Zm-11-.9a10.25,10.25,0,0,0-1.74-1.87c2.6-1.19,2.93-2.77,2.93-4.29v-2.35h7.76V219c0,.64,0,.91.36.91h1.18a5.32,5.32,0,0,0,1.24-.16c0,.66.11,1.56.19,2.18a4.35,4.35,0,0,1-1.38.15h-1.48c-2.15,0-2.62-.92-2.62-3.12v-2.33l-2.83,0A6.16,6.16,0,0,1,501.85,222.74Zm2.29,2.73a10.51,10.51,0,0,0,2.7,3.08,10.46,10.46,0,0,0,2.56-3.08Z"/><path class="cls-9" d="M529.55,217.44c1.18,1.17,3.52,1.72,6.49,1.87a8.25,8.25,0,0,0-1.45,2.09,10.54,10.54,0,0,1-5.77-2.22c-.84,1-2.66,1.82-6.36,2.24a7.1,7.1,0,0,0-.88-1.43h-5.83v-2h6.65v1.34c4.2-.44,4.75-1.43,4.75-2.24v-.33h-1.32a9.82,9.82,0,0,1-1.54,1.89,12.55,12.55,0,0,0-1.94-1.34,8.87,8.87,0,0,0,2.58-3.92l2.28.51c-.11.33-.24.66-.37,1h6.25l.4-.11,1.78.54a18.54,18.54,0,0,1-2,3.48l-2-.75a12.87,12.87,0,0,0,.77-1.27h-2.44v.68Zm.59,12.94c2,.75,4.18,1.63,5.48,2.26l-2.35,1.41a41.44,41.44,0,0,0-5.73-2.59l1.35-1.08h-6.21l1.92.88a29.06,29.06,0,0,1-6.87,2.86,16.78,16.78,0,0,0-1.94-1.92,24.75,24.75,0,0,0,6-1.82h-3.17v-8.94h14.72v8.94Zm-8.25-13.86h-5.63V214.6h5.63Zm-.73,7.43h9.53V223h-9.53Zm0,2.42h9.53v-.94h-9.53Zm0,2.47h9.53v-1h-9.53Z"/><path class="cls-9" d="M558,214.91v2.22h-4a12.64,12.64,0,0,1,1.43,1.54l-1.38,1.21H557v2.22h-7.79v1.28h6.45v2H539.93v-2h6.51V222.1h-7.72v-2.22h5.46a20.18,20.18,0,0,0-2.07-2.07l.77-.68h-1.56a15.05,15.05,0,0,1-2.07,2.38,17.12,17.12,0,0,0-1.74-1.78,12.27,12.27,0,0,0,3.3-4.4l2.31.68c-.13.3-.29.59-.42.9h4.89v2.22h-3.08a9.92,9.92,0,0,1,1.38,1.37l-1.52,1.38h2.07V218.8h1.61c-.31-.24-.64-.46-.88-.61a11.87,11.87,0,0,0,2.75-4.86l2.37.57c-.11.33-.19.68-.33,1Zm-4.51,12h4.16V229h-4.16v2.71c0,1.25-.28,1.78-1.23,2.07a16.08,16.08,0,0,1-4.09.28,8.25,8.25,0,0,0-.64-2.11c1.08.07,2.46.07,2.79,0s.47-.08.47-.39V229h-6.85a33.71,33.71,0,0,1,2.91,2.66l-1.94,1.52a37.49,37.49,0,0,0-3.34-3.28l1.27-.9H538v-2.13h12.74v-1.08h2.7Zm0-7a25,25,0,0,0-1.78-2l.9-.75h-1.67a12.6,12.6,0,0,1-1.74,2.53v.22Z"/><path class="cls-9" d="M562.57,228.31a24.64,24.64,0,0,1-1,5.37,10.27,10.27,0,0,0-2-.68,18.29,18.29,0,0,0,.9-5Zm-2.91-8.41a2.69,2.69,0,0,0,1.28-1.18,25.82,25.82,0,0,0,2.62-5.31l2.4,1a30.1,30.1,0,0,1-3,5.19l1.54-.11a24.65,24.65,0,0,0,1.58-2.9l2.18,1.39a36.87,36.87,0,0,1-4.58,6.4L566,224c-.2-.53-.39-1-.61-1.48l1.76-.66a18,18,0,0,1,1.58,4.38l-1.91.77a9.88,9.88,0,0,0-.22-1.08c-4.67.84-5.48,1-6,1.3a20.18,20.18,0,0,0-.83-2.31,4,4,0,0,0,1.78-1.45,19.08,19.08,0,0,0,1.43-1.78,8,8,0,0,0-2.55.5A20.53,20.53,0,0,0,559.66,219.9Zm5.2,7.93a41.09,41.09,0,0,1,.57,4.37l-1.89.49a39.39,39.39,0,0,0-.47-4.43Zm14.87-6.74a22.38,22.38,0,0,1-2.93,8.28,10.18,10.18,0,0,0,3.37,2.42,9.59,9.59,0,0,0-1.74,2.17,10.66,10.66,0,0,1-3.19-2.5,14.64,14.64,0,0,1-3.15,2.64,8.86,8.86,0,0,0-1.65-2,11.05,11.05,0,0,0,3.24-2.8,22.65,22.65,0,0,1-1.72-3.78,19.78,19.78,0,0,1-2.7,8.4,13.26,13.26,0,0,0-2.25-1.62,9.84,9.84,0,0,0,.93-1.54l-1.52.55a30.79,30.79,0,0,0-1-3.55l1.73-.57c.38,1,.77,2.2,1,3.13,1.47-3.37,1.78-8.06,1.8-13.45h-1.83v-2.46h7.49l.37-.11,1.83.24c-.22,1.89-.62,4.11-1,6h.81l.42-.09Zm-7.24-4.18c0,1.28-.07,2.51-.11,3.7h2c.25-1.17.47-2.53.64-3.7Zm1,6a16,16,0,0,0,1.71,4.18,17.83,17.83,0,0,0,1.63-4.18Z"/><path class="cls-9" d="M588.35,214.31a34.3,34.3,0,0,1-1.63,3.9v15.95h-2.37V222.32c-.53.75-1.08,1.48-1.61,2.09a17.14,17.14,0,0,0-1.34-2.57,23.56,23.56,0,0,0,4.62-8.23Zm13.53,2.62v2.14H587.74v-2.14H594a19.92,19.92,0,0,0-1.37-2.62l2.23-.83a17.44,17.44,0,0,1,1.6,2.9l-1.25.55ZM589,226.7h11.64V234h-2.31v-.62h-7.11v.68H589Zm11.35-4.42h-11v-2.05h11Zm-11,1.14h11v2.05h-11Zm1.89,5.37v2.49h7.11v-2.49Z"/><path class="cls-9" d="M611.94,219.22h-8.23v-2.07h3.5a20.88,20.88,0,0,0-1.3-2.77l1.89-.95a27.25,27.25,0,0,1,1.5,2.93l-1.37.79h4Zm-7.35,3v-2H611v2Zm6.44,2.95h-6.44v-2H611Zm0,7.72h-4.4v.93h-2V226.2h6.45Zm-4.4-4.57v2.46H609v-2.46Zm17.47-1.7h-4.84v7.48h-2.58v-7.48h-4.84v-2.48h4.84V217H612.6V214.6h11.13V217h-4.44v7.07h4.84ZM614.88,218a24.1,24.1,0,0,1,1,5l-2.2.52a26.31,26.31,0,0,0-.88-5.12Zm5.07,5a36,36,0,0,0,1.18-5.24l2.49.51c-.55,1.84-1.17,3.89-1.67,5.21Z"/><path class="cls-9" d="M513.07,257a10.83,10.83,0,0,1-3.21,3.85,22.67,22.67,0,0,0,4.4,1.06,10,10,0,0,0-1.54,2.22,19.39,19.39,0,0,1-5.39-1.74,24.24,24.24,0,0,1-6,1.85,10.64,10.64,0,0,0-1.21-2.11A23.54,23.54,0,0,0,505,261a10.18,10.18,0,0,1-1.38-1.23,17,17,0,0,1-1.57,1,18.64,18.64,0,0,0-1.8-1.74,12.71,12.71,0,0,0,1.83-1,15.2,15.2,0,0,1-1-1.61l-1.18,1.59c-.29-.46-.75-1.15-1.24-1.83v8h-2.37V256.4a19.83,19.83,0,0,1-1.83,1.91,11.35,11.35,0,0,0-1.23-2.57,17.76,17.76,0,0,0,4.64-6.08h-4.07v-2.33h3.15a25.75,25.75,0,0,0-1.34-2.68l2.06-.93a21.32,21.32,0,0,1,1.57,2.86l-1.48.75h1.39l.46-.11,1.39,1-.07.2a15.1,15.1,0,0,0,2.73-4.82l2.55.64c-.18.46-.35.92-.55,1.41h8v2.18h-9.19c-.18.3-.38.59-.58.9h8.67v6.62H507.7c-.2.33-.4.66-.62,1H511l.42-.11Zm-9.88-1.36c.18.33.4.66.59,1a12.05,12.05,0,0,0,1.13-1.28h-2.56v-4.62l-.13.13a17.18,17.18,0,0,0-1.78-1.32,28.63,28.63,0,0,1-1.83,3.52v.18c.11.11.25.22.4.37.48-.66,1-1.45,1.32-2l1.58,1.54c-.66.57-1.21,1.17-1.69,1.65.48.53.95,1,1.12,1.19l-.31.39Zm1.63-4.4H510v-.9h-5.17Zm0,2.46H510v-.92h-5.17Zm.5,4.58a13.63,13.63,0,0,0,2.09,1.47,8.74,8.74,0,0,0,2-1.58h-3.94Z"/><path class="cls-9" d="M528.36,244.71c-.24.33-.49.66-.73,1a24.76,24.76,0,0,0,8.72,5.2,7.72,7.72,0,0,0-1.81,2.39c-1-.5-2.13-1-3.17-1.62v1.43h-11V252a30.34,30.34,0,0,1-3,1.6,11,11,0,0,0-1.91-2.39c4-1.61,8.21-4.27,10.52-7.71ZM518.94,255h14.19v9.08h-2.79v-.87h-8.71v1h-2.69Zm2.69,2.31v3.47h8.71v-3.47Zm8.22-6.6a27.37,27.37,0,0,1-3.82-3.15,28.46,28.46,0,0,1-3.63,3.15Z"/><path class="cls-9" d="M544.51,244.38a36.29,36.29,0,0,1-1.9,4.07v15.67h-2.55V252.44a20.31,20.31,0,0,1-1.61,1.87,17.72,17.72,0,0,0-1.34-2.69,23,23,0,0,0,5-8Zm5.91,16.88a18.55,18.55,0,0,1-5,2.95,14.44,14.44,0,0,0-2.07-1.81,15.47,15.47,0,0,0,4.6-2.06Zm-.88-15h-4.81v-1.63h4.81v-1.08h2.64v1.08h5v1.63h-5V247h4.56v1.54h-4.56v.75H558v1.74H543.78v-1.74h5.76v-.75h-4.35V247h4.35Zm4.6,14a26,26,0,0,1,4,2.71l-2.35,1.36a23.71,23.71,0,0,0-4-3.06l2.27-1h-8.67v-8.49h11.31v8.49Zm-6.31-6H554v-.86h-6.16Zm0,2.2H554v-.88h-6.16Zm0,2.2H554v-.88h-6.16Z"/><path class="cls-9" d="M575,253.12a14.21,14.21,0,0,0,5.39,2.51,10,10,0,0,0-1.67,2.15,15,15,0,0,1-2.62-1.07c-.24,3.87-.55,5.63-1.16,6.31a2.52,2.52,0,0,1-1.74.84,17.78,17.78,0,0,1-2.86.06,5.78,5.78,0,0,0-.75-2.46,19.5,19.5,0,0,0,2.31.09,1,1,0,0,0,.79-.25c.31-.33.53-1.36.73-3.78h-4.34c-.55,3-2,5.26-6.73,6.53a7.3,7.3,0,0,0-1.47-2.24c3.8-.86,5-2.27,5.45-4.29h-2.83v-.95a17.45,17.45,0,0,1-2.47,1.3,7.22,7.22,0,0,0-1.61-2.2,16.92,16.92,0,0,0,4.45-2.55h-3.83v-2.36h6.1a15,15,0,0,0,.92-1.38h-5.68v-2.31h3.13a16.71,16.71,0,0,0-1.41-2.2l2.09-1a12,12,0,0,1,1.76,2.7l-1,.51h2.18a15.14,15.14,0,0,0,.81-3.57l2.77.27a26.41,26.41,0,0,1-.79,3.3h1.89a25.5,25.5,0,0,0,1.7-3.06l2.44.75c-.53.81-1.08,1.6-1.58,2.31h2.79v2.31h-8.14c-.24.48-.48.92-.75,1.38H579.6v2.36Zm-7.39,0a15.62,15.62,0,0,1-2.09,2h8.25a13.22,13.22,0,0,1-2-2Z"/><path class="cls-9" d="M588.62,257.32a8.68,8.68,0,0,0-.2-1.08c-4.73.71-5.52.86-6,1.13a21.6,21.6,0,0,0-.84-2.36,3.71,3.71,0,0,0,1.81-1.41,21.46,21.46,0,0,0,1.47-1.78,9,9,0,0,0-2.62.49,20.38,20.38,0,0,0-.79-2.23c.46-.11.83-.53,1.32-1.19a25.2,25.2,0,0,0,2.82-5.41l2.31,1a32.45,32.45,0,0,1-3.15,5.28l1.63-.11a29.75,29.75,0,0,0,1.6-2.86l2.18,1.39a40.12,40.12,0,0,1-4.73,6.42l2.51-.31c-.15-.57-.35-1.12-.53-1.62l1.92-.62a30.12,30.12,0,0,1,1.38,4.6Zm-4.07,1.1a23.28,23.28,0,0,1-1,5.39,11.8,11.8,0,0,0-2.05-.72,20.25,20.25,0,0,0,.88-5Zm2.59-.46a40.85,40.85,0,0,1,.62,4.75l-2.11.44a42.14,42.14,0,0,0-.51-4.79Zm2.44-.66a25.56,25.56,0,0,1,1.06,3.48l-2,.7a20.21,20.21,0,0,0-.93-3.56Zm12.48,4.14v2.35H589.54v-2.33h1.69V244.74h9.44v16.7Zm-8.45-14.35v3.17h4.58v-3.17Zm4.58,5.52h-4.58v3.19h4.58Zm-4.58,8.85,4.58,0v-3.33h-4.58Z"/><path class="cls-9" d="M616.36,244.71c-.24.33-.49.66-.73,1a24.76,24.76,0,0,0,8.72,5.2,7.72,7.72,0,0,0-1.81,2.39c-1-.5-2.13-1-3.17-1.62v1.43h-11V252a30.34,30.34,0,0,1-3,1.6,11,11,0,0,0-1.91-2.39c4-1.61,8.21-4.27,10.52-7.71ZM606.94,255h14.19v9.08h-2.79v-.87h-8.71v1h-2.69Zm2.69,2.31v3.47h8.71v-3.47Zm8.22-6.6a27.37,27.37,0,0,1-3.82-3.15,28.46,28.46,0,0,1-3.63,3.15Z"/></g></svg>