<svg xmlns="http://www.w3.org/2000/svg" width="172.351" height="172.352" viewBox="0 0 172.351 172.352">
  <g id="Group_9897" data-name="Group 9897" transform="translate(1920 8475)">
    <g id="Group_6705" data-name="Group 6705" transform="translate(-2416.37 -8632.561)">
      <g id="Group_6695" data-name="Group 6695">
        <path id="Path_8182" data-name="Path 8182" d="M573.928,321.2a77.988,77.988,0,0,1,0-154.922v-8.714a86.654,86.654,0,0,0,0,172.351Z" fill="#00796d"/>
        <path id="Path_8183" data-name="Path 8183" d="M591.163,157.561v8.714a77.987,77.987,0,0,1,0,154.922v8.715a86.654,86.654,0,0,0,0-172.351" fill="#00796d"/>
      </g>
      <g id="Group_6704" data-name="Group 6704">
        <rect id="Rectangle_1480" data-name="Rectangle 1480" width="62.073" height="100.411" rx="7.125" transform="translate(551.509 192.058)" fill="#00796d"/>
        <rect id="Rectangle_1481" data-name="Rectangle 1481" width="51.754" height="81.964" transform="translate(556.669 199.176)" fill="#fff"/>
        <circle id="Ellipse_745" data-name="Ellipse 745" cx="2.678" cy="2.678" r="2.678" transform="translate(579.868 284.435)" fill="#fff"/>
        <g id="Group_6697" data-name="Group 6697">
          <g id="Group_6696" data-name="Group 6696">
            <path id="Path_8184" data-name="Path 8184" d="M582.545,247.116a3.472,3.472,0,1,0,3.484,3.471A3.481,3.481,0,0,0,582.545,247.116Z" fill="#00796d"/>
          </g>
        </g>
        <g id="Group_6699" data-name="Group 6699">
          <g id="Group_6698" data-name="Group 6698">
            <path id="Path_8185" data-name="Path 8185" d="M591.035,242.387a12.031,12.031,0,0,0-16.976-.023,2.344,2.344,0,0,0,3.317,3.314,7.324,7.324,0,0,1,10.334.013,2.344,2.344,0,1,0,3.325-3.3Z" fill="#00796d"/>
          </g>
        </g>
        <g id="Group_6701" data-name="Group 6701">
          <g id="Group_6700" data-name="Group 6700">
            <path id="Path_8186" data-name="Path 8186" d="M601.953,231.506a27.513,27.513,0,0,0-38.813-.019,2.343,2.343,0,0,0,3.319,3.309,22.8,22.8,0,0,1,32.171.017,2.344,2.344,0,0,0,3.323-3.307Z" fill="#00796d"/>
          </g>
        </g>
        <g id="Group_6703" data-name="Group 6703">
          <g id="Group_6702" data-name="Group 6702">
            <path id="Path_8187" data-name="Path 8187" d="M596.356,237.083a19.577,19.577,0,0,0-27.618-.02,2.344,2.344,0,0,0,3.318,3.312,14.867,14.867,0,0,1,20.977.015,2.344,2.344,0,1,0,3.323-3.307Z" fill="#00796d"/>
          </g>
        </g>
        <rect id="Rectangle_1482" data-name="Rectangle 1482" width="16.436" height="1.815" transform="translate(574.328 194.827)" fill="#fff"/>
      </g>
    </g>
  </g>
</svg>
