<svg id="bg" xmlns="http://www.w3.org/2000/svg" viewBox="0 0 545 450"><defs><style>.cls-1,.cls-11,.cls-3,.cls-4,.cls-5,.cls-6,.cls-7{fill:none;}.cls-1{stroke:#888;stroke-width:0.5px;}.cls-1,.cls-3,.cls-5,.cls-6,.cls-7{stroke-linejoin:round;}.cls-2{fill:#f3f3f3;}.cls-3{stroke:#d9d9d9;}.cls-4{stroke:#333;}.cls-11,.cls-4{stroke-miterlimit:10;}.cls-4,.cls-5,.cls-6,.cls-7{stroke-width:3px;}.cls-5{stroke:#df536a;}.cls-5,.cls-6,.cls-7{stroke-linecap:round;}.cls-6{stroke:#00796d;}.cls-7{stroke:#bae659;}.cls-12,.cls-13,.cls-14,.cls-8,.cls-9{isolation:isolate;}.cls-12,.cls-13,.cls-9{font-size:18px;}.cls-14,.cls-9{fill:#333;}.cls-9{font-family:ArialMT, Arial;letter-spacing:0em;}.cls-10,.cls-13{fill:#002a5e;}.cls-11{stroke:#002a5e;}.cls-12{fill:#fff;}.cls-12,.cls-14{font-family:NotoSansCJKtc-Regular-B5pc-H, Noto Sans CJK TC;}.cls-13{font-family:Arial-BoldMT, Arial;font-weight:700;}.cls-14{font-size:20px;}</style></defs><g id="Group_5667" data-name="Group 5667"><g id="Group_5666" data-name="Group 5666"><path id="Path_7451" data-name="Path 7451" class="cls-1" d="M42.51,265.14v8.59m11.33-8.59v8.59m10.7-8.59v8.59m10.69-8.59v8.59m10.7-8.59v8.59m11.33-8.59v8.59M108,265.14v8.59m10.7-8.59v8.59M130,265.14v8.59m10.7-8.59v8.59m10.69-8.59v8.59m10.7-8.59v8.59m11.33-8.59v8.59m10.7-8.59v8.59m10.69-8.59v8.59m11.33-8.59v8.59m10.7-8.59v8.59m10.69-8.59v8.59m10.7-8.59v8.59m11.33-8.59v8.59m10.7-8.59v8.59m10.69-8.59v8.59m11.33-8.59v8.59m10.7-8.59v8.59m10.7-8.59v8.59m10.69-8.59v8.59m11.33-8.59v8.59m10.7-8.59v8.59m10.7-8.59v8.59m11.32-8.59v8.59m10.7-8.59v8.59m10.7-8.59v8.59m10.69-8.59v8.59m11.33-8.59v8.59m10.7-8.59v8.59m10.7-8.59v8.59m11.32-8.59v8.59m10.7-8.59v8.59m10.7-8.59v8.59m10.7-8.59v8.59M478,265.14v8.59m10.7-8.59v8.59m10.7-8.59v8.59m11.32-8.59v8.59m10.7-8.59v8.59"/></g></g><g id="Group_5808" data-name="Group 5808"><path id="Path_7529" data-name="Path 7529" class="cls-2" d="M220,40.64h23.91v261.5H220Z"/></g><g id="Group_5659" data-name="Group 5659"><g id="Group_5658" data-name="Group 5658"><path id="Path_7443" data-name="Path 7443" class="cls-3" d="M42.51,227.14H521.38m-478.87-37H521.38m-478.87-37H521.38m-478.87-37H521.38m-478.87-37H521.38m-478.87-38H521.38"/></g></g><g id="Group_5665" data-name="Group 5665"><g id="Group_5664" data-name="Group 5664"><path id="Path_7449" data-name="Path 7449" class="cls-4" d="M42.51,265.14H521.38"/></g></g><g id="Group_5669" data-name="Group 5669"><g id="Group_5668" data-name="Group 5668"><path id="Path_7453" data-name="Path 7453" class="cls-5" d="M43.77,265.14l1.89-1h4.4l2.52-1h1.89l2.51,1,1.89,1,2.52-2h4.4l1.89-2,1.89-2,2.52-1,1.88-1h2.52l1.89-3,2.52-2h1.88l2.52,2,1.89-1,2.52-2h3.77l2.52-2h1.89l2.51-1,1.89-1,2.52,2,1.89,1,2.51-1,1.89-1,2.52-2,1.89-1,1.88-1h2.52l1.89-1,2.52-1h1.88l2.52,2,1.89-1,2.52-2,1.88-1h2.52l1.89-1,2.51,1,1.89,1,1.89-1,2.52-1h1.89l2.51-1,1.89,1h4.4l2.52,1,1.89-2,2.52-2,1.88-1,1.89-1,2.52-1,1.89,1,2.51-1,1.89-1H181l1.89-1,2.51,1,1.89,1h2.52l1.89-1,2.51-1,1.89-1,1.89,1,2.52-1h1.88l2.52,1,1.89,1,2.52-2,1.88,1,2.52,1,1.89,1,2.52-1,1.88,7,1.89,8,2.52-1,1.89-4,2.51-1,1.89,2,2.52-1,1.89-4,2.51-4,1.89-3,2.52-4,1.89-2,1.88-3,2.52-1,1.89-2h2.52l1.88-2h2.52l1.89-2,2.52-2,1.88,2,2.52-2,1.89-3,2.51-2,1.89-1,1.89-1,2.52,2H281l1.89-2h2.52l1.89-2,2.51-1,1.89,1,2.52-2,1.88,1,1.89,2,2.52-4,1.89,3,2.51-3,1.89-4,2.52-2h1.89l2.51-1h1.89l2.52-1,1.89-4,2.51-1,1.89-2,1.89-2,2.52-1,1.88-1,2.52,1,1.89-1,2.52-1,1.88-3,2.52,3,1.89,4,2.52-2,1.88,1,1.89-1,2.52-3h4.4l1.89-2,2.52-2h1.89l2.51-2,1.89-2,2.52-1h1.89l1.88-2,2.52,2,1.89-2,2.52-1,1.88,1,2.52-4h6.29l2.52,1,1.89,3,2.51-2,1.89,2,1.89,1,2.52-2h1.89l2.51,1h1.89l2.52-1,1.89-5,2.51-2h1.89l2.52-3,1.88-4,1.89-1h2.52l1.89,1,2.51,4,1.89-2,2.52-1,1.89-2h2.51l1.89-2,2.52-2h1.89l1.88-1,2.52-2h1.89l2.52-1h1.88l2.52-1,1.89,1,2.52,2h6.29l2.52,1,1.88-2h4.41l1.89,2h2.51l1.89-1,2.52-5,1.89-1,2.51-4,1.89-2,2.52-1,1.89-5,1.88-2,2.52-4,1.89,1,2.52-1h1.88l2.52-2,1.89-4h2.52l1.88,17"/></g></g><g id="Group_5671" data-name="Group 5671"><g id="Group_5670" data-name="Group 5670"><path id="Path_7455" data-name="Path 7455" class="cls-6" d="M43.77,265.14l1.89-1,2.51-1,1.89,2,2.52-2h1.89l2.51-1,1.89-2,2.52-2,1.89-2,2.51,1,1.89,1,1.89-2h2.52l1.88-1h4.41l2.52-3,1.88,1,2.52,3h1.89l2.52-3,1.88,2h1.89l2.52-1,1.89-1,2.51-1,1.89-1,2.52,3h4.4l1.89-1,2.52-2h3.77l2.52,1,1.89-1,2.52-1,1.88,1h2.52l1.89-1,2.52-1,1.88-1,2.52,1,1.89-1,2.51,1,1.89,1,1.89-1,2.52-1,1.89,1h2.51l1.89,1h6.92l1.89-2,2.52-1,1.88-1h1.89l2.52-1,1.89,1h2.51l1.89-2h4.41l2.51,1h1.89l2.52-2,1.89-1,2.51-1,1.89-1,1.89-3h2.52l1.88-2,2.52-2h1.89l2.52,2,1.88,1,2.52-1,1.89-1,2.52-1h3.77l2.52-6,1.89-4,2.51,4h1.89l2.52-2,1.89,2,2.51,1H242l1.89-1,1.88-1h2.52l1.89-2,2.52,3,1.88-1,2.52-1,1.89,1,2.52-1,1.88-2,2.52-2,1.89-1,2.51-2h3.78l2.52,1,1.89,2h6.92l1.89-1,2.51-2h1.89l2.52-2,1.88-3,1.89-3,2.52,1,1.89-1,2.51-1h1.89l2.52,1,1.89,1,2.51-2,1.89-2h2.52l1.89-1h2.51l1.89,1h1.89l2.52-1,1.88,1,2.52,1,1.89-1h2.52l1.88-1,2.52,2,1.89,1,2.52,1h1.88l1.89-1h4.41l2.51,1,1.89-1,2.52-1,1.89,1,2.51-1,1.89-1h4.41l1.88-1h2.52l1.89-1,2.52-1h1.88l2.52-4,1.89,2h4.4l2.52,1,1.89,1,2.51-1h1.89l1.89-2,2.52,1h1.89l2.51,1,1.89-3,2.52-2h6.29l2.52-3h1.88l1.89,1h2.52l1.89,1,2.51,4h4.41l1.89-1h2.51l1.89-1,2.52-1,1.89,1,1.88-1,2.52-1,1.89,1h6.92l1.89,2,2.52,1,1.88-1,2.52,1,1.89-1h4.4l1.89-1,2.52,1,1.89,1,2.51-1,1.89-3,2.52-1,1.89,1,2.51-3h1.89l2.52-3,1.89-2,1.88,1,2.52-5,1.89,1h4.4l2.52,1,1.89-4,2.52-4,1.88-4"/></g></g><g id="Group_5673" data-name="Group 5673"><g id="Group_5672" data-name="Group 5672"><path id="Path_7457" data-name="Path 7457" class="cls-7" d="M43.77,265.14l1.89,1,2.51,1,1.89-3,2.52,5h1.89l2.51,5,1.89,5h2.52l1.89,7,2.51-5,1.89-3,1.89,3,2.52,2,1.88,1,2.52-1,1.89-4,2.52-4h1.88l2.52-1,1.89-2,2.52,1,1.88-4h1.89l2.52-4,1.89-1,2.51-1,1.89,1,2.52,1,1.89-1,2.51-1,1.89,2h2.52l1.89-1,1.88-1,2.52-3,1.89-2,2.52,2,1.88-2,2.52,1,1.89,2,2.52-2,1.88-1,2.52-3,1.89,1h2.51l1.89,1,1.89-3h2.52l1.89-2h2.51l1.89-1,2.52-2,1.88,3h2.52l1.89-1,2.52-2,1.88-2,1.89-3,2.52-2,1.89-1,2.51-1,1.89,2,2.52-1,1.89-5,2.51-3,1.89,2,2.52,3,1.89-2,2.51-3,1.89-2,1.89,5h2.52l1.88,7,2.52,3h1.89l2.52-4,1.88-1,2.52,8,1.89,1,2.52-2,1.88,9,1.89,13,2.52,5h1.89l2.51,5,1.89,7,2.52-5,1.89-5,2.51-4h1.89l2.52-5,1.89-2,1.88-3,2.52,1,1.89-4,2.52-2,1.88,3,2.52-2,1.89-5,2.52-1,1.88,7,2.52,4,1.89-5,2.51,3,1.89-6,1.89-4,2.52,1,1.89-6,2.51-2,1.89-4,2.52,1,1.89-3,2.51,1,1.89,2,2.52,2,1.88,5,1.89,6,2.52-9h1.89l2.51-1,1.89-4,2.52-4,1.89-3,2.51,1,1.89,6,2.52-4,1.89-1,2.51-3,1.89-2,1.89,2,2.52-1,1.88-1,2.52-5,1.89-2,2.52-4,1.88-2,2.52-3,1.89,2,2.52-6,1.88,3,1.89-3,2.52-6,1.89-4,2.51-4,1.89,5,2.52-6,1.89-1,2.51-1,1.89-3,2.52-3,1.89,2,1.88-6,2.52,2,1.89-4,2.52-4,1.88,1,2.52,5,1.89-9,2.52,3,1.88-2,2.52-2,1.89,3,2.51-3,1.89,10,1.89,4,2.52-13h1.89l2.51,3,1.89,8h2.52l1.89-10,2.51-1,1.89-3h2.52l1.88-6h4.41l1.89,3,2.51-6,1.89-3,2.52-4,1.89-7h2.51l1.89-2,2.52-2,1.89-2,1.88-4h2.52l1.89-4,2.52-5,1.88-6,2.52-2,1.89-13,2.52,9,1.88,6,2.52-1,1.89-5,2.52-1,1.88-9,1.89-7,2.52-1,1.89,16,2.51-4,1.89,20,2.52-16,1.89-7,2.51-4,1.89-10,2.52,16,1.89-16,1.88-3,2.52,4,1.89-5,2.52-5,1.88-9,2.52-8h1.89l2.52,23,1.88,30"/></g></g><g id="Group_5675" data-name="Group 5675"><g id="Group_5674" data-name="Group 5674"><g id="Group"><g id="_-5" data-name=" -5" class="cls-8"><text class="cls-9" transform="translate(10.72 305.64)">-50</text></g></g></g></g><g id="Group_5679" data-name="Group 5679"><g id="Group_5678" data-name="Group 5678"><g id="_0-2" data-name=" 0-2" class="cls-8"><text class="cls-9" transform="translate(25.04 268.64)">0</text></g></g></g><g id="Group_5683" data-name="Group 5683"><g id="Group_5682" data-name="Group 5682"><g id="_50" data-name=" 50" class="cls-8"><text class="cls-9" transform="translate(16.09 231.64)">50</text></g></g></g><g id="Group_5687" data-name="Group 5687"><g id="Group_5686" data-name="Group 5686"><g id="Group-3"><g id="_10" data-name=" 10" class="cls-8"><text class="cls-9" transform="translate(7.15 193.64)">100</text></g></g></g></g><g id="Group_5691" data-name="Group 5691"><g id="Group_5690" data-name="Group 5690"><g id="Group-5"><g id="_15" data-name=" 15" class="cls-8"><text class="cls-9" transform="translate(7.15 156.64)">150</text></g></g></g></g><g id="Group_5695" data-name="Group 5695"><g id="Group_5694" data-name="Group 5694"><g id="Group-7"><g id="_20" data-name=" 20" class="cls-8"><text class="cls-9" transform="translate(7.15 119.64)">200</text></g></g></g></g><g id="Group_5699" data-name="Group 5699"><g id="Group_5698" data-name="Group 5698"><g id="Group-9"><g id="_25-2" data-name=" 25-2" class="cls-8"><text class="cls-9" transform="translate(7.15 82.64)">250</text></g></g></g></g><g id="Group_5703" data-name="Group 5703"><g id="Group_5702" data-name="Group 5702"><g id="Group-11"><g id="_30" data-name=" 30" class="cls-8"><text class="cls-9" transform="translate(7.15 45.64)">300</text></g></g></g></g><g id="Group_5703-2" data-name="Group 5703"><g id="Group_5702-2" data-name="Group 5702"><g id="Group-11-2" data-name="Group-11"><g id="_30-2" data-name=" 30" class="cls-8"><text class="cls-9" transform="translate(10.72 23.84)">(%)</text></g></g></g></g><line class="cls-3" x1="42.51" y1="302.14" x2="521.38" y2="302.14"/><circle class="cls-10" cx="231.99" cy="64.3" r="3.16"/><line class="cls-11" x1="231.99" y1="34.95" x2="231.99" y2="64.3"/><rect class="cls-10" x="186.52" y="13.13" width="90.93" height="25.71" rx="12.86"/><g id="Group_5213" data-name="Group 5213"><g id="Group_5212" data-name="Group 5212"><g id="企" class="cls-8"><text class="cls-12" transform="translate(196.41 32.17)">金融危機</text></g></g></g><line class="cls-1" x1="42.51" y1="265.14" x2="42.51" y2="273.73"/><line class="cls-1" x1="227.51" y1="265.14" x2="227.51" y2="273.73"/><line class="cls-1" x1="521.38" y1="265.14" x2="521.38" y2="273.73"/><g id="Group_5681" data-name="Group 5681"><g id="Group_5680" data-name="Group 5680"><g id="_25" data-name=" 25" class="cls-8"><text class="cls-13" transform="translate(57.82 392.29) rotate(-90)">12/1/2001</text></g></g></g><g id="Group_5681-2" data-name="Group 5681"><g id="Group_5680-2" data-name="Group 5680"><g id="_25-2-2" data-name=" 25" class="cls-8"><text class="cls-13" transform="translate(96.74 382.28) rotate(-90)">9/1/2003</text></g></g></g><g id="Group_5681-3" data-name="Group 5681"><g id="Group_5680-3" data-name="Group 5680"><g id="_25-3" data-name=" 25" class="cls-8"><text class="cls-13" transform="translate(141.21 382.28) rotate(-90)">6/1/2005</text></g></g></g><g id="Group_5681-4" data-name="Group 5681"><g id="Group_5680-4" data-name="Group 5680"><g id="_25-4" data-name=" 25" class="cls-8"><text class="cls-13" transform="translate(188.22 382.28) rotate(-90)">3/1/2007</text></g></g></g><g id="Group_5681-5" data-name="Group 5681"><g id="Group_5680-5" data-name="Group 5680"><g id="_25-5" data-name=" 25" class="cls-8"><text class="cls-13" transform="translate(238.24 392.29) rotate(-90)">12/1/2008</text></g></g></g><g id="Group_5681-6" data-name="Group 5681"><g id="Group_5680-6" data-name="Group 5680"><g id="_25-6" data-name=" 25" class="cls-8"><text class="cls-13" transform="translate(281.47 382.28) rotate(-90)">9/1/2010</text></g></g></g><g id="Group_5681-7" data-name="Group 5681"><g id="Group_5680-7" data-name="Group 5680"><g id="_25-7" data-name=" 25" class="cls-8"><text class="cls-13" transform="translate(329.2 382.28) rotate(-90)">6/1/2012</text></g></g></g><g id="Group_5681-8" data-name="Group 5681"><g id="Group_5680-8" data-name="Group 5680"><g id="_25-8" data-name=" 25" class="cls-8"><text class="cls-13" transform="translate(376.93 382.28) rotate(-90)">3/1/2014</text></g></g></g><g id="Group_5681-9" data-name="Group 5681"><g id="Group_5680-9" data-name="Group 5680"><g id="_25-9" data-name=" 25" class="cls-8"><text class="cls-13" transform="translate(424.66 392.29) rotate(-90)">12/1/2015</text></g></g></g><g id="Group_5681-10" data-name="Group 5681"><g id="Group_5680-10" data-name="Group 5680"><g id="_25-10" data-name=" 25" class="cls-8"><text class="cls-13" transform="translate(472.39 382.28) rotate(-90)">9/1/2017</text></g></g></g><g id="Group_5681-11" data-name="Group 5681"><g id="Group_5680-11" data-name="Group 5680"><g id="_25-11" data-name=" 25" class="cls-8"><text class="cls-13" transform="translate(520.12 392.29) rotate(-90)">3/31/2019</text></g></g></g><line id="Line_1068" data-name="Line 1068" class="cls-6" x1="210.88" y1="421.36" x2="224.88" y2="421.36"/><line id="Line_1069" data-name="Line 1069" class="cls-5" x1="12.19" y1="420.36" x2="26.19" y2="420.36"/><line id="Line_1104" data-name="Line 1104" class="cls-7" x1="366.31" y1="421.36" x2="380.31" y2="421.36"/><g id="環球收息債券指數" class="cls-8"><text class="cls-14" transform="translate(33.19 429.86)">環球收息債券指數</text></g><g id="美國公債指數" class="cls-8"><text class="cls-14" transform="translate(230.19 429.86)">美國公債指數</text></g><g id="美國S_P500指數" data-name="美國S P500指數" class="cls-8"><text class="cls-14" transform="translate(384.19 429.86)">美國</text><text class="cls-14" transform="translate(424.19 429.86)">S&amp;P500</text><text class="cls-14" transform="translate(495.67 429.86)">指數</text></g></svg>