<svg id="bg" xmlns="http://www.w3.org/2000/svg" viewBox="0 0 545 450"><defs><style>.cls-1,.cls-11,.cls-3,.cls-4,.cls-5,.cls-6,.cls-7{fill:none;}.cls-1{stroke:#888;stroke-width:0.5px;}.cls-1,.cls-3,.cls-5,.cls-6,.cls-7{stroke-linejoin:round;}.cls-2{fill:#f3f3f3;}.cls-3{stroke:#d9d9d9;}.cls-4{stroke:#333;}.cls-11,.cls-4{stroke-miterlimit:10;}.cls-4,.cls-5,.cls-6,.cls-7{stroke-width:3px;}.cls-5{stroke:#df536a;}.cls-5,.cls-6,.cls-7{stroke-linecap:round;}.cls-6{stroke:#00796d;}.cls-7{stroke:#bae659;}.cls-8{isolation:isolate;}.cls-9{fill:#333;}.cls-10{fill:#002a5e;}.cls-11{stroke:#002a5e;}.cls-12{fill:#fff;}</style></defs><g id="Group_5667" data-name="Group 5667"><g id="Group_5666" data-name="Group 5666"><path id="Path_7451" data-name="Path 7451" class="cls-1" d="M42.51,265.14v8.59m11.33-8.59v8.59m10.7-8.59v8.59m10.69-8.59v8.59m10.7-8.59v8.59m11.33-8.59v8.59M108,265.14v8.59m10.7-8.59v8.59M130,265.14v8.59m10.7-8.59v8.59m10.69-8.59v8.59m10.7-8.59v8.59m11.33-8.59v8.59m10.7-8.59v8.59m10.69-8.59v8.59m11.33-8.59v8.59m10.7-8.59v8.59m10.69-8.59v8.59m10.7-8.59v8.59m11.33-8.59v8.59m10.7-8.59v8.59m10.69-8.59v8.59m11.33-8.59v8.59m10.7-8.59v8.59m10.7-8.59v8.59m10.69-8.59v8.59m11.33-8.59v8.59m10.7-8.59v8.59m10.7-8.59v8.59m11.32-8.59v8.59m10.7-8.59v8.59m10.7-8.59v8.59m10.69-8.59v8.59m11.33-8.59v8.59m10.7-8.59v8.59m10.7-8.59v8.59m11.32-8.59v8.59m10.7-8.59v8.59m10.7-8.59v8.59m10.7-8.59v8.59M478,265.14v8.59m10.7-8.59v8.59m10.7-8.59v8.59m11.32-8.59v8.59m10.7-8.59v8.59"/></g></g><g id="Group_5808" data-name="Group 5808"><path id="Path_7529" data-name="Path 7529" class="cls-2" d="M220,40.64h23.91v261.5H220Z"/></g><g id="Group_5659" data-name="Group 5659"><g id="Group_5658" data-name="Group 5658"><path id="Path_7443" data-name="Path 7443" class="cls-3" d="M42.51,227.14H521.38m-478.87-37H521.38m-478.87-37H521.38m-478.87-37H521.38m-478.87-37H521.38m-478.87-38H521.38"/></g></g><g id="Group_5665" data-name="Group 5665"><g id="Group_5664" data-name="Group 5664"><path id="Path_7449" data-name="Path 7449" class="cls-4" d="M42.51,265.14H521.38"/></g></g><g id="Group_5669" data-name="Group 5669"><g id="Group_5668" data-name="Group 5668"><path id="Path_7453" data-name="Path 7453" class="cls-5" d="M43.77,265.14l1.89-1h4.4l2.52-1h1.89l2.51,1,1.89,1,2.52-2h4.4l1.89-2,1.89-2,2.52-1,1.88-1h2.52l1.89-3,2.52-2h1.88l2.52,2,1.89-1,2.52-2h3.77l2.52-2h1.89l2.51-1,1.89-1,2.52,2,1.89,1,2.51-1,1.89-1,2.52-2,1.89-1,1.88-1h2.52l1.89-1,2.52-1h1.88l2.52,2,1.89-1,2.52-2,1.88-1h2.52l1.89-1,2.51,1,1.89,1,1.89-1,2.52-1h1.89l2.51-1,1.89,1h4.4l2.52,1,1.89-2,2.52-2,1.88-1,1.89-1,2.52-1,1.89,1,2.51-1,1.89-1H181l1.89-1,2.51,1,1.89,1h2.52l1.89-1,2.51-1,1.89-1,1.89,1,2.52-1h1.88l2.52,1,1.89,1,2.52-2,1.88,1,2.52,1,1.89,1,2.52-1,1.88,7,1.89,8,2.52-1,1.89-4,2.51-1,1.89,2,2.52-1,1.89-4,2.51-4,1.89-3,2.52-4,1.89-2,1.88-3,2.52-1,1.89-2h2.52l1.88-2h2.52l1.89-2,2.52-2,1.88,2,2.52-2,1.89-3,2.51-2,1.89-1,1.89-1,2.52,2H281l1.89-2h2.52l1.89-2,2.51-1,1.89,1,2.52-2,1.88,1,1.89,2,2.52-4,1.89,3,2.51-3,1.89-4,2.52-2h1.89l2.51-1h1.89l2.52-1,1.89-4,2.51-1,1.89-2,1.89-2,2.52-1,1.88-1,2.52,1,1.89-1,2.52-1,1.88-3,2.52,3,1.89,4,2.52-2,1.88,1,1.89-1,2.52-3h4.4l1.89-2,2.52-2h1.89l2.51-2,1.89-2,2.52-1h1.89l1.88-2,2.52,2,1.89-2,2.52-1,1.88,1,2.52-4h6.29l2.52,1,1.89,3,2.51-2,1.89,2,1.89,1,2.52-2h1.89l2.51,1h1.89l2.52-1,1.89-5,2.51-2h1.89l2.52-3,1.88-4,1.89-1h2.52l1.89,1,2.51,4,1.89-2,2.52-1,1.89-2h2.51l1.89-2,2.52-2h1.89l1.88-1,2.52-2h1.89l2.52-1h1.88l2.52-1,1.89,1,2.52,2h6.29l2.52,1,1.88-2h4.41l1.89,2h2.51l1.89-1,2.52-5,1.89-1,2.51-4,1.89-2,2.52-1,1.89-5,1.88-2,2.52-4,1.89,1,2.52-1h1.88l2.52-2,1.89-4h2.52l1.88,17"/></g></g><g id="Group_5671" data-name="Group 5671"><g id="Group_5670" data-name="Group 5670"><path id="Path_7455" data-name="Path 7455" class="cls-6" d="M43.77,265.14l1.89-1,2.51-1,1.89,2,2.52-2h1.89l2.51-1,1.89-2,2.52-2,1.89-2,2.51,1,1.89,1,1.89-2h2.52l1.88-1h4.41l2.52-3,1.88,1,2.52,3h1.89l2.52-3,1.88,2h1.89l2.52-1,1.89-1,2.51-1,1.89-1,2.52,3h4.4l1.89-1,2.52-2h3.77l2.52,1,1.89-1,2.52-1,1.88,1h2.52l1.89-1,2.52-1,1.88-1,2.52,1,1.89-1,2.51,1,1.89,1,1.89-1,2.52-1,1.89,1h2.51l1.89,1h6.92l1.89-2,2.52-1,1.88-1h1.89l2.52-1,1.89,1h2.51l1.89-2h4.41l2.51,1h1.89l2.52-2,1.89-1,2.51-1,1.89-1,1.89-3h2.52l1.88-2,2.52-2h1.89l2.52,2,1.88,1,2.52-1,1.89-1,2.52-1h3.77l2.52-6,1.89-4,2.51,4h1.89l2.52-2,1.89,2,2.51,1H242l1.89-1,1.88-1h2.52l1.89-2,2.52,3,1.88-1,2.52-1,1.89,1,2.52-1,1.88-2,2.52-2,1.89-1,2.51-2h3.78l2.52,1,1.89,2h6.92l1.89-1,2.51-2h1.89l2.52-2,1.88-3,1.89-3,2.52,1,1.89-1,2.51-1h1.89l2.52,1,1.89,1,2.51-2,1.89-2h2.52l1.89-1h2.51l1.89,1h1.89l2.52-1,1.88,1,2.52,1,1.89-1h2.52l1.88-1,2.52,2,1.89,1,2.52,1h1.88l1.89-1h4.41l2.51,1,1.89-1,2.52-1,1.89,1,2.51-1,1.89-1h4.41l1.88-1h2.52l1.89-1,2.52-1h1.88l2.52-4,1.89,2h4.4l2.52,1,1.89,1,2.51-1h1.89l1.89-2,2.52,1h1.89l2.51,1,1.89-3,2.52-2h6.29l2.52-3h1.88l1.89,1h2.52l1.89,1,2.51,4h4.41l1.89-1h2.51l1.89-1,2.52-1,1.89,1,1.88-1,2.52-1,1.89,1h6.92l1.89,2,2.52,1,1.88-1,2.52,1,1.89-1h4.4l1.89-1,2.52,1,1.89,1,2.51-1,1.89-3,2.52-1,1.89,1,2.51-3h1.89l2.52-3,1.89-2,1.88,1,2.52-5,1.89,1h4.4l2.52,1,1.89-4,2.52-4,1.88-4"/></g></g><g id="Group_5673" data-name="Group 5673"><g id="Group_5672" data-name="Group 5672"><path id="Path_7457" data-name="Path 7457" class="cls-7" d="M43.77,265.14l1.89,1,2.51,1,1.89-3,2.52,5h1.89l2.51,5,1.89,5h2.52l1.89,7,2.51-5,1.89-3,1.89,3,2.52,2,1.88,1,2.52-1,1.89-4,2.52-4h1.88l2.52-1,1.89-2,2.52,1,1.88-4h1.89l2.52-4,1.89-1,2.51-1,1.89,1,2.52,1,1.89-1,2.51-1,1.89,2h2.52l1.89-1,1.88-1,2.52-3,1.89-2,2.52,2,1.88-2,2.52,1,1.89,2,2.52-2,1.88-1,2.52-3,1.89,1h2.51l1.89,1,1.89-3h2.52l1.89-2h2.51l1.89-1,2.52-2,1.88,3h2.52l1.89-1,2.52-2,1.88-2,1.89-3,2.52-2,1.89-1,2.51-1,1.89,2,2.52-1,1.89-5,2.51-3,1.89,2,2.52,3,1.89-2,2.51-3,1.89-2,1.89,5h2.52l1.88,7,2.52,3h1.89l2.52-4,1.88-1,2.52,8,1.89,1,2.52-2,1.88,9,1.89,13,2.52,5h1.89l2.51,5,1.89,7,2.52-5,1.89-5,2.51-4h1.89l2.52-5,1.89-2,1.88-3,2.52,1,1.89-4,2.52-2,1.88,3,2.52-2,1.89-5,2.52-1,1.88,7,2.52,4,1.89-5,2.51,3,1.89-6,1.89-4,2.52,1,1.89-6,2.51-2,1.89-4,2.52,1,1.89-3,2.51,1,1.89,2,2.52,2,1.88,5,1.89,6,2.52-9h1.89l2.51-1,1.89-4,2.52-4,1.89-3,2.51,1,1.89,6,2.52-4,1.89-1,2.51-3,1.89-2,1.89,2,2.52-1,1.88-1,2.52-5,1.89-2,2.52-4,1.88-2,2.52-3,1.89,2,2.52-6,1.88,3,1.89-3,2.52-6,1.89-4,2.51-4,1.89,5,2.52-6,1.89-1,2.51-1,1.89-3,2.52-3,1.89,2,1.88-6,2.52,2,1.89-4,2.52-4,1.88,1,2.52,5,1.89-9,2.52,3,1.88-2,2.52-2,1.89,3,2.51-3,1.89,10,1.89,4,2.52-13h1.89l2.51,3,1.89,8h2.52l1.89-10,2.51-1,1.89-3h2.52l1.88-6h4.41l1.89,3,2.51-6,1.89-3,2.52-4,1.89-7h2.51l1.89-2,2.52-2,1.89-2,1.88-4h2.52l1.89-4,2.52-5,1.88-6,2.52-2,1.89-13,2.52,9,1.88,6,2.52-1,1.89-5,2.52-1,1.88-9,1.89-7,2.52-1,1.89,16,2.51-4,1.89,20,2.52-16,1.89-7,2.51-4,1.89-10,2.52,16,1.89-16,1.88-3,2.52,4,1.89-5,2.52-5,1.88-9,2.52-8h1.89l2.52,23,1.88,30"/></g></g><g id="Group_5675" data-name="Group 5675"><g id="Group_5674" data-name="Group 5674"><g id="Group"><g id="_-5" data-name=" -5" class="cls-8"><g class="cls-8"><path class="cls-9" d="M11.29,301.77v-1.59h4.86v1.59Z"/><path class="cls-9" d="M17.51,302.26l1.66-.14A3,3,0,0,0,20,304a2.36,2.36,0,0,0,1.62.61,2.53,2.53,0,0,0,1.94-.87,3.26,3.26,0,0,0,.79-2.28,3,3,0,0,0-.76-2.14,2.66,2.66,0,0,0-2-.78,2.77,2.77,0,0,0-1.38.35,2.63,2.63,0,0,0-1,.9l-1.49-.19L19,292.93h6.41v1.51H20.31l-.7,3.46a4.22,4.22,0,0,1,2.44-.81,3.88,3.88,0,0,1,2.85,1.17,4.1,4.1,0,0,1,1.16,3,4.69,4.69,0,0,1-1,3,4.09,4.09,0,0,1-3.39,1.57,4.16,4.16,0,0,1-2.87-1A3.84,3.84,0,0,1,17.51,302.26Z"/><path class="cls-9" d="M27.58,299.28a11.63,11.63,0,0,1,.47-3.68,4.6,4.6,0,0,1,1.39-2.14,3.56,3.56,0,0,1,2.34-.76,3.79,3.79,0,0,1,1.82.42,3.52,3.52,0,0,1,1.29,1.2,6.38,6.38,0,0,1,.8,1.92,12.88,12.88,0,0,1,.29,3,11.83,11.83,0,0,1-.47,3.66,4.59,4.59,0,0,1-1.39,2.16,3.61,3.61,0,0,1-2.34.76,3.55,3.55,0,0,1-2.93-1.34Q27.58,302.91,27.58,299.28Zm1.62,0q0,3.18.75,4.23a2.17,2.17,0,0,0,1.83,1.05,2.2,2.2,0,0,0,1.83-1.06c.5-.7.74-2.11.74-4.22s-.24-3.53-.74-4.23a2.21,2.21,0,0,0-1.85-1,2,2,0,0,0-1.74.92A8.24,8.24,0,0,0,29.2,299.28Z"/></g></g></g></g></g><g id="Group_5679" data-name="Group 5679"><g id="Group_5678" data-name="Group 5678"><g id="_0-2" data-name=" 0-2" class="cls-8"><g class="cls-8"><path class="cls-9" d="M25.79,262.28a11.63,11.63,0,0,1,.47-3.68,4.6,4.6,0,0,1,1.39-2.14A3.56,3.56,0,0,1,30,255.7a3.79,3.79,0,0,1,1.82.42,3.52,3.52,0,0,1,1.29,1.2,6.38,6.38,0,0,1,.8,1.92,12.88,12.88,0,0,1,.29,3,11.83,11.83,0,0,1-.47,3.66,4.59,4.59,0,0,1-1.39,2.16,3.61,3.61,0,0,1-2.34.76,3.55,3.55,0,0,1-2.93-1.34Q25.79,265.91,25.79,262.28Zm1.62,0q0,3.18.75,4.23A2.17,2.17,0,0,0,30,267.56a2.21,2.21,0,0,0,1.83-1.06c.5-.7.74-2.11.74-4.22s-.24-3.53-.74-4.23A2.22,2.22,0,0,0,30,257a2,2,0,0,0-1.74.92C27.68,258.72,27.41,260.17,27.41,262.28Z"/></g></g></g></g><g id="Group_5683" data-name="Group 5683"><g id="Group_5682" data-name="Group 5682"><g id="_50" data-name=" 50" class="cls-8"><g class="cls-8"><path class="cls-9" d="M16.84,228.26l1.66-.14a3,3,0,0,0,.86,1.83,2.36,2.36,0,0,0,1.62.61,2.5,2.5,0,0,0,1.93-.87,3.21,3.21,0,0,0,.79-2.28,3,3,0,0,0-.76-2.14,2.64,2.64,0,0,0-2-.78,2.77,2.77,0,0,0-1.38.35,2.6,2.6,0,0,0-1,.9l-1.49-.19,1.25-6.62h6.41v1.51H19.64l-.7,3.46a4.2,4.2,0,0,1,2.44-.81,3.84,3.84,0,0,1,2.84,1.17,4.06,4.06,0,0,1,1.16,3,4.69,4.69,0,0,1-1,3A4.05,4.05,0,0,1,21,231.86a4.16,4.16,0,0,1-2.87-1A3.84,3.84,0,0,1,16.84,228.26Z"/><path class="cls-9" d="M26.91,225.28a11.63,11.63,0,0,1,.47-3.68,4.52,4.52,0,0,1,1.39-2.14,3.56,3.56,0,0,1,2.34-.76,3.82,3.82,0,0,1,1.82.42,3.52,3.52,0,0,1,1.29,1.2,6.64,6.64,0,0,1,.8,1.92,12.88,12.88,0,0,1,.29,3,11.83,11.83,0,0,1-.47,3.66,4.59,4.59,0,0,1-1.39,2.16,3.61,3.61,0,0,1-2.34.76,3.54,3.54,0,0,1-2.93-1.34Q26.9,228.91,26.91,225.28Zm1.62,0c0,2.12.25,3.53.74,4.23a2.12,2.12,0,0,0,3.67,0c.49-.7.74-2.11.74-4.22s-.25-3.53-.74-4.23a2.22,2.22,0,0,0-1.85-1,2,2,0,0,0-1.74.92C28.8,221.72,28.53,223.17,28.53,225.28Z"/></g></g></g></g><g id="Group_5687" data-name="Group 5687"><g id="Group_5686" data-name="Group 5686"><g id="Group-3"><g id="_10" data-name=" 10" class="cls-8"><g class="cls-8"><path class="cls-9" d="M13.85,193.64H12.27V183.56a8.59,8.59,0,0,1-1.5,1.09,10.81,10.81,0,0,1-1.66.81v-1.53a9.67,9.67,0,0,0,2.32-1.51,5.79,5.79,0,0,0,1.4-1.72h1Z"/><path class="cls-9" d="M18,187.28a11.93,11.93,0,0,1,.47-3.68,4.53,4.53,0,0,1,1.4-2.14,3.51,3.51,0,0,1,2.33-.76,3.79,3.79,0,0,1,1.82.42,3.52,3.52,0,0,1,1.29,1.2,6.38,6.38,0,0,1,.8,1.92,12.88,12.88,0,0,1,.29,3,11.87,11.87,0,0,1-.46,3.66,4.68,4.68,0,0,1-1.4,2.16,3.61,3.61,0,0,1-2.34.76,3.55,3.55,0,0,1-2.93-1.34Q18,190.91,18,187.28Zm1.62,0q0,3.18.75,4.23a2.11,2.11,0,0,0,3.66,0c.5-.7.75-2.11.75-4.22s-.25-3.53-.75-4.23a2.21,2.21,0,0,0-1.85-1,2.05,2.05,0,0,0-1.74.92A8.24,8.24,0,0,0,19.58,187.28Z"/><path class="cls-9" d="M28,187.28a11.93,11.93,0,0,1,.47-3.68,4.61,4.61,0,0,1,1.4-2.14,3.55,3.55,0,0,1,2.33-.76,3.76,3.76,0,0,1,1.82.42,3.48,3.48,0,0,1,1.3,1.2,6.64,6.64,0,0,1,.8,1.92,12.88,12.88,0,0,1,.29,3,11.83,11.83,0,0,1-.47,3.66,4.66,4.66,0,0,1-1.39,2.16,3.62,3.62,0,0,1-2.35.76,3.53,3.53,0,0,1-2.92-1.34Q28,190.91,28,187.28Zm1.63,0c0,2.12.25,3.53.74,4.23a2.12,2.12,0,0,0,3.67,0c.49-.7.74-2.11.74-4.22s-.25-3.53-.74-4.23a2.22,2.22,0,0,0-1.85-1,2,2,0,0,0-1.74.92C29.92,183.72,29.65,185.17,29.65,187.28Z"/></g></g></g></g></g><g id="Group_5691" data-name="Group 5691"><g id="Group_5690" data-name="Group 5690"><g id="Group-5"><g id="_15" data-name=" 15" class="cls-8"><g class="cls-8"><path class="cls-9" d="M13.85,156.64H12.27V146.56a8.59,8.59,0,0,1-1.5,1.09,10.81,10.81,0,0,1-1.66.81v-1.53a9.67,9.67,0,0,0,2.32-1.51,5.79,5.79,0,0,0,1.4-1.72h1Z"/><path class="cls-9" d="M18,153.26l1.66-.14a3,3,0,0,0,.86,1.83,2.36,2.36,0,0,0,1.62.61,2.51,2.51,0,0,0,1.93-.87,3.21,3.21,0,0,0,.79-2.28,3,3,0,0,0-.76-2.14,2.64,2.64,0,0,0-2-.78,2.77,2.77,0,0,0-1.38.35,2.6,2.6,0,0,0-1,.9l-1.49-.19,1.25-6.62H25.9v1.51H20.75l-.69,3.46a4.17,4.17,0,0,1,2.43-.81,3.85,3.85,0,0,1,2.85,1.17,4.1,4.1,0,0,1,1.16,3,4.69,4.69,0,0,1-1,3,4.05,4.05,0,0,1-3.38,1.57,4.16,4.16,0,0,1-2.87-1A3.8,3.8,0,0,1,18,153.26Z"/><path class="cls-9" d="M28,150.28a11.93,11.93,0,0,1,.47-3.68,4.61,4.61,0,0,1,1.4-2.14,3.55,3.55,0,0,1,2.33-.76,3.76,3.76,0,0,1,1.82.42,3.48,3.48,0,0,1,1.3,1.2,6.64,6.64,0,0,1,.8,1.92,12.88,12.88,0,0,1,.29,3,11.83,11.83,0,0,1-.47,3.66,4.66,4.66,0,0,1-1.39,2.16,3.62,3.62,0,0,1-2.35.76,3.53,3.53,0,0,1-2.92-1.34Q28,153.91,28,150.28Zm1.63,0c0,2.12.25,3.53.74,4.23a2.12,2.12,0,0,0,3.67,0c.49-.7.74-2.11.74-4.22s-.25-3.53-.74-4.23a2.22,2.22,0,0,0-1.85-1,2,2,0,0,0-1.74.92C29.92,146.72,29.65,148.17,29.65,150.28Z"/></g></g></g></g></g><g id="Group_5695" data-name="Group 5695"><g id="Group_5694" data-name="Group 5694"><g id="Group-7"><g id="_20" data-name=" 20" class="cls-8"><g class="cls-8"><path class="cls-9" d="M16.21,118.12v1.52H7.69a2.74,2.74,0,0,1,.19-1.1,5.73,5.73,0,0,1,1-1.72A17,17,0,0,1,11,114.87a17.59,17.59,0,0,0,2.84-2.73,3.25,3.25,0,0,0,.73-1.9,2.12,2.12,0,0,0-.67-1.59,2.42,2.42,0,0,0-1.75-.64,2.51,2.51,0,0,0-1.83.68,2.56,2.56,0,0,0-.69,1.9L8,110.43a4,4,0,0,1,1.26-2.78,4.29,4.29,0,0,1,2.92-1,4.07,4.07,0,0,1,2.94,1,3.36,3.36,0,0,1,1.08,2.55,3.74,3.74,0,0,1-.32,1.52,5.81,5.81,0,0,1-1,1.57,26.11,26.11,0,0,1-2.43,2.27c-1,.79-1.56,1.34-1.83,1.62a4.67,4.67,0,0,0-.67.86Z"/><path class="cls-9" d="M18,113.28a11.93,11.93,0,0,1,.47-3.68,4.53,4.53,0,0,1,1.4-2.14,3.51,3.51,0,0,1,2.33-.76,3.79,3.79,0,0,1,1.82.42,3.52,3.52,0,0,1,1.29,1.2,6.38,6.38,0,0,1,.8,1.92,12.88,12.88,0,0,1,.29,3,11.87,11.87,0,0,1-.46,3.66,4.68,4.68,0,0,1-1.4,2.16,3.61,3.61,0,0,1-2.34.76,3.55,3.55,0,0,1-2.93-1.34Q18,116.92,18,113.28Zm1.62,0q0,3.18.75,4.23a2.11,2.11,0,0,0,3.66,0c.5-.7.75-2.11.75-4.22s-.25-3.53-.75-4.23a2.21,2.21,0,0,0-1.85-1,2.05,2.05,0,0,0-1.74.92A8.24,8.24,0,0,0,19.58,113.28Z"/><path class="cls-9" d="M28,113.28a11.93,11.93,0,0,1,.47-3.68,4.61,4.61,0,0,1,1.4-2.14,3.55,3.55,0,0,1,2.33-.76,3.76,3.76,0,0,1,1.82.42,3.48,3.48,0,0,1,1.3,1.2,6.64,6.64,0,0,1,.8,1.92,12.88,12.88,0,0,1,.29,3,11.83,11.83,0,0,1-.47,3.66,4.66,4.66,0,0,1-1.39,2.16,3.62,3.62,0,0,1-2.35.76,3.53,3.53,0,0,1-2.92-1.34Q28,116.92,28,113.28Zm1.63,0c0,2.12.25,3.53.74,4.23a2.12,2.12,0,0,0,3.67,0c.49-.7.74-2.11.74-4.22s-.25-3.53-.74-4.23a2.22,2.22,0,0,0-1.85-1,2,2,0,0,0-1.74.92C29.92,109.72,29.65,111.17,29.65,113.28Z"/></g></g></g></g></g><g id="Group_5699" data-name="Group 5699"><g id="Group_5698" data-name="Group 5698"><g id="Group-9"><g id="_25-2" data-name=" 25-2" class="cls-8"><g class="cls-8"><path class="cls-9" d="M16.21,81.12v1.52H7.69a2.74,2.74,0,0,1,.19-1.1,5.73,5.73,0,0,1,1-1.72A17,17,0,0,1,11,77.87a17.59,17.59,0,0,0,2.84-2.73,3.25,3.25,0,0,0,.73-1.9,2.12,2.12,0,0,0-.67-1.59A2.42,2.42,0,0,0,12.14,71a2.51,2.51,0,0,0-1.83.68,2.56,2.56,0,0,0-.69,1.9L8,73.43a4,4,0,0,1,1.26-2.78,4.29,4.29,0,0,1,2.92-1,4.07,4.07,0,0,1,2.94,1,3.36,3.36,0,0,1,1.08,2.55,3.74,3.74,0,0,1-.32,1.52,5.81,5.81,0,0,1-1,1.57,26.11,26.11,0,0,1-2.43,2.27c-1,.79-1.56,1.34-1.83,1.62a4.67,4.67,0,0,0-.67.86Z"/><path class="cls-9" d="M18,79.26l1.66-.14A3,3,0,0,0,20.48,81a2.36,2.36,0,0,0,1.62.61A2.51,2.51,0,0,0,24,80.69a3.21,3.21,0,0,0,.79-2.28,3,3,0,0,0-.76-2.14,2.64,2.64,0,0,0-2-.78,2.77,2.77,0,0,0-1.38.35,2.6,2.6,0,0,0-1,.9l-1.49-.19,1.25-6.62H25.9v1.51H20.75l-.69,3.46a4.17,4.17,0,0,1,2.43-.81,3.85,3.85,0,0,1,2.85,1.17,4.1,4.1,0,0,1,1.16,3,4.69,4.69,0,0,1-1,3,4.05,4.05,0,0,1-3.38,1.57,4.16,4.16,0,0,1-2.87-1A3.8,3.8,0,0,1,18,79.26Z"/><path class="cls-9" d="M28,76.28a11.93,11.93,0,0,1,.47-3.68,4.61,4.61,0,0,1,1.4-2.14,3.55,3.55,0,0,1,2.33-.76,3.76,3.76,0,0,1,1.82.42,3.48,3.48,0,0,1,1.3,1.2,6.64,6.64,0,0,1,.8,1.92,12.88,12.88,0,0,1,.29,3A11.83,11.83,0,0,1,36,79.94a4.66,4.66,0,0,1-1.39,2.16,3.62,3.62,0,0,1-2.35.76,3.53,3.53,0,0,1-2.92-1.34Q28,79.92,28,76.28Zm1.63,0c0,2.12.25,3.53.74,4.23a2.12,2.12,0,0,0,3.67,0c.49-.7.74-2.11.74-4.22s-.25-3.53-.74-4.23a2.22,2.22,0,0,0-1.85-1,2,2,0,0,0-1.74.92C29.92,72.72,29.65,74.17,29.65,76.28Z"/></g></g></g></g></g><g id="Group_5703" data-name="Group 5703"><g id="Group_5702" data-name="Group 5702"><g id="Group-11"><g id="_30" data-name=" 30" class="cls-8"><g class="cls-8"><path class="cls-9" d="M7.9,42.24,9.48,42A3.56,3.56,0,0,0,10.41,44a2.29,2.29,0,0,0,1.6.6,2.54,2.54,0,0,0,1.88-.78,2.56,2.56,0,0,0,.77-1.91,2.44,2.44,0,0,0-.71-1.8,2.48,2.48,0,0,0-1.81-.71,4.49,4.49,0,0,0-1.12.18l.18-1.39.25,0a3.26,3.26,0,0,0,1.82-.53A1.8,1.8,0,0,0,14.08,36a1.89,1.89,0,0,0-.59-1.44A2.09,2.09,0,0,0,12,34a2.15,2.15,0,0,0-1.54.58,3,3,0,0,0-.79,1.74L8.06,36a4.06,4.06,0,0,1,1.32-2.47,3.82,3.82,0,0,1,2.56-.87,4.23,4.23,0,0,1,1.94.45,3.34,3.34,0,0,1,1.36,1.24,3.19,3.19,0,0,1,.47,1.66,2.73,2.73,0,0,1-.45,1.52,3,3,0,0,1-1.33,1.09,3,3,0,0,1,1.78,1.09,3.36,3.36,0,0,1,.63,2.08,3.79,3.79,0,0,1-1.23,2.86A4.34,4.34,0,0,1,12,45.87a4,4,0,0,1-2.82-1A3.89,3.89,0,0,1,7.9,42.24Z"/><path class="cls-9" d="M18,39.28a11.93,11.93,0,0,1,.47-3.68,4.53,4.53,0,0,1,1.4-2.14,3.51,3.51,0,0,1,2.33-.76,3.79,3.79,0,0,1,1.82.42,3.52,3.52,0,0,1,1.29,1.2,6.38,6.38,0,0,1,.8,1.92,12.88,12.88,0,0,1,.29,3,11.87,11.87,0,0,1-.46,3.66,4.68,4.68,0,0,1-1.4,2.16,3.61,3.61,0,0,1-2.34.76,3.55,3.55,0,0,1-2.93-1.34Q18,42.92,18,39.28Zm1.62,0q0,3.18.75,4.23a2.11,2.11,0,0,0,3.66,0c.5-.7.75-2.11.75-4.22s-.25-3.53-.75-4.23a2.21,2.21,0,0,0-1.85-1,2.05,2.05,0,0,0-1.74.92A8.24,8.24,0,0,0,19.58,39.28Z"/><path class="cls-9" d="M28,39.28a11.93,11.93,0,0,1,.47-3.68,4.61,4.61,0,0,1,1.4-2.14,3.55,3.55,0,0,1,2.33-.76,3.76,3.76,0,0,1,1.82.42,3.48,3.48,0,0,1,1.3,1.2,6.64,6.64,0,0,1,.8,1.92,12.88,12.88,0,0,1,.29,3A11.83,11.83,0,0,1,36,42.94a4.66,4.66,0,0,1-1.39,2.16,3.62,3.62,0,0,1-2.35.76,3.53,3.53,0,0,1-2.92-1.34Q28,42.92,28,39.28Zm1.63,0c0,2.12.25,3.53.74,4.23a2.12,2.12,0,0,0,3.67,0c.49-.7.74-2.11.74-4.22s-.25-3.53-.74-4.23a2.22,2.22,0,0,0-1.85-1,2,2,0,0,0-1.74.92C29.92,35.72,29.65,37.17,29.65,39.28Z"/></g></g></g></g></g><g id="Group_5703-2" data-name="Group 5703"><g id="Group_5702-2" data-name="Group 5702"><g id="Group-11-2" data-name="Group-11"><g id="_30-2" data-name=" 30" class="cls-8"><g class="cls-8"><path class="cls-9" d="M14.93,27.63a15.74,15.74,0,0,1-2.22-3.87,12.24,12.24,0,0,1-.23-8.6,17,17,0,0,1,2.45-4.43h1.13Q15,12.56,14.65,13.34a15.43,15.43,0,0,0-.84,2.54,14.72,14.72,0,0,0-.38,3.3,15.91,15.91,0,0,0,2.63,8.45Z"/><path class="cls-9" d="M17.81,14.05a3.89,3.89,0,0,1,.7-2.35,2.33,2.33,0,0,1,2-1,2.61,2.61,0,0,1,2,.87,3.65,3.65,0,0,1,.79,2.54,3.65,3.65,0,0,1-.8,2.52,2.59,2.59,0,0,1-2,.89,2.51,2.51,0,0,1-1.95-.87A3.84,3.84,0,0,1,17.81,14.05Zm2.75-2.23a1.19,1.19,0,0,0-1,.51,3.26,3.26,0,0,0-.39,1.88,2.86,2.86,0,0,0,.4,1.74,1.2,1.2,0,0,0,2,0,3.23,3.23,0,0,0,.39-1.87,3,3,0,0,0-.39-1.75A1.22,1.22,0,0,0,20.56,11.82Zm0,12.49,7.05-13.58H28.9l-7,13.58Zm5.57-3.49a3.9,3.9,0,0,1,.7-2.36,2.33,2.33,0,0,1,2-1,2.61,2.61,0,0,1,2,.87,3.63,3.63,0,0,1,.79,2.54,3.65,3.65,0,0,1-.8,2.52,2.58,2.58,0,0,1-2,.88,2.51,2.51,0,0,1-1.95-.87A3.83,3.83,0,0,1,26.14,20.82Zm2.76-2.23a1.21,1.21,0,0,0-1,.51A3.25,3.25,0,0,0,27.52,21a2.93,2.93,0,0,0,.4,1.74,1.19,1.19,0,0,0,1,.51,1.2,1.2,0,0,0,1-.51,3.21,3.21,0,0,0,.39-1.86,2.93,2.93,0,0,0-.39-1.75A1.21,1.21,0,0,0,28.9,18.59Z"/><path class="cls-9" d="M35.05,27.63H33.91a15.82,15.82,0,0,0,2.63-8.45,14.06,14.06,0,0,0-.38-3.28,13.63,13.63,0,0,0-.83-2.53,28.64,28.64,0,0,0-1.42-2.64h1.14a17,17,0,0,1,2.44,4.43,12.09,12.09,0,0,1-.23,8.6A16.38,16.38,0,0,1,35.05,27.63Z"/></g></g></g></g></g><line class="cls-3" x1="42.51" y1="302.14" x2="521.38" y2="302.14"/><circle class="cls-10" cx="231.99" cy="64.3" r="3.16"/><line class="cls-11" x1="231.99" y1="34.95" x2="231.99" y2="64.3"/><rect class="cls-10" x="186.52" y="13.13" width="90.93" height="25.71" rx="12.86"/><g id="Group_5213" data-name="Group 5213"><g id="Group_5212" data-name="Group 5212"><g id="ä¼" class="cls-8"><g class="cls-8"><path class="cls-12" d="M206.06,23.71v2.44h6.29v1.23h-6.29v4.39h7.1V33H197.69V31.77h7V27.38H198.5V26.15h6.18V23.71h-3.89v-1A20.65,20.65,0,0,1,197.92,24a4.57,4.57,0,0,0-.9-1.23c3.35-1.09,6.67-3.2,8.38-5.86l1.22.57c-.13.2-.29.43-.45.65a19.53,19.53,0,0,0,7.69,4.64,4.84,4.84,0,0,0-.94,1.18,21.73,21.73,0,0,1-2.9-1.39v1.12Zm-4.95,4.06A15.15,15.15,0,0,1,202.84,31l-1.17.48A14.56,14.56,0,0,0,200,28.22Zm8.7-5.31a21,21,0,0,1-4.38-3.38,18.61,18.61,0,0,1-4.21,3.38Zm-2.11,8.63a20.8,20.8,0,0,0,1.87-3.32l1.26.49a31.27,31.27,0,0,1-2.12,3.26Z"/><path class="cls-12" d="M215.44,17.89h8.44v1.17h-8.44Zm8.17,14.17c0,.58-.11.88-.5,1.08a5.71,5.71,0,0,1-1.93.18,3.73,3.73,0,0,0-.34-1h1.42c.18,0,.24-.07.24-.25V25.78h-5.73V33.5h-1.08V24.73h7.92ZM223,23.72H216.3V20.09H223Zm-2.85,5.84v3.49h-1V29.56h-1.86v-.92h2.45A16.45,16.45,0,0,0,221,26.08l.9.36c-.38.72-.79,1.53-1.19,2.2h1.26v.92Zm1.64-8.5h-4.34v1.69h4.34Zm-3.49,5.09a10.38,10.38,0,0,1,1,2.09l-.81.31a9.85,9.85,0,0,0-1-2.13Zm12.37,7.4a12.23,12.23,0,0,0-.31-1.47c-2.09.39-4.25.75-5.87,1.08l-.32-1.24c.83-.11,1.85-.27,3-.47v-4h-2.67V20.66h2.67V17.24h1.19v3.42H231v6.77h-2.61v3.86l1.73-.31c-.24-.78-.53-1.59-.81-2.29l1-.25a23.57,23.57,0,0,1,1.49,4.81Zm-5.19-7.29h1.75V21.81H225.5Zm4.41-4.45h-1.65v4.45h1.65Z"/><path class="cls-12" d="M249.43,22v1.24H236.84v2c0,2.48-.43,5.94-2.75,8.25a4.27,4.27,0,0,0-1-.9c2.18-2.15,2.45-5.12,2.45-7.35v-3c-.45.36-.9.72-1.39,1.06a5.28,5.28,0,0,0-.9-1A14,14,0,0,0,238.1,17l1.46.29a11,11,0,0,1-.92,1.5h6.09l.23-.09.94.7c-.45.77-1.1,1.74-1.66,2.59Zm-6.61,0c.34-.59.77-1.35,1.13-2h-6.19a16.25,16.25,0,0,1-1.91,2Zm3.91,10c1.13,0,1.33-.34,1.45-2.33a4.21,4.21,0,0,0,1.25.53c-.22,2.39-.65,3-2.65,3h-5.11c-2.27,0-2.94-.39-2.94-2.12V25h8.05s0,.36,0,.52c-.16,2.61-.32,3.69-.73,4.12a1.55,1.55,0,0,1-1.12.43,23.14,23.14,0,0,1-2.5,0,3.76,3.76,0,0,0-.36-1.18c1,.09,1.94.09,2.25.09s.52,0,.65-.14.36-.94.48-2.66H240v5c0,.72.25.9,1.67.9Z"/><path class="cls-12" d="M255.38,26.71c-.18-.48-.58-1.33-.95-2.09v8.92h-1.17V25a19.61,19.61,0,0,1-1.7,4.71,8.39,8.39,0,0,0-.57-1.29,23.18,23.18,0,0,0,2.16-6.58h-1.8V20.55h1.91V17.1h1.17v3.45h1.42v1.26h-1.42V23c.39.64,1.37,2.31,1.6,2.74Zm11,1.33a10.64,10.64,0,0,1-2.21,2.89,2.55,2.55,0,0,0,1.87,1.29c.38,0,.61-.65.75-1.94a3.88,3.88,0,0,0,.9.68c-.34,2-.9,2.63-1.62,2.58a3.65,3.65,0,0,1-2.84-1.84,15.21,15.21,0,0,1-3.15,1.75,4.65,4.65,0,0,0-.72-.85,13.56,13.56,0,0,0,3.35-1.87,17.59,17.59,0,0,1-1.05-3.3h-2.93v.27a3.1,3.1,0,0,1,0,.42,26.71,26.71,0,0,1,2.48,2.14l-.82.81c-.42-.43-1.12-1.1-1.82-1.69a7,7,0,0,1-2.65,4.19,4,4,0,0,0-.88-.81,6,6,0,0,0,2.56-5.08v-.25h-1.37V26.35h5.25a70.47,70.47,0,0,1-.77-9.11h1.15a61.54,61.54,0,0,0,.8,9.11h2.57a12.8,12.8,0,0,0-1.6-1.15l.68-.63a12.16,12.16,0,0,1,1.87,1.3l-.46.48h1.49v1.08h-4.34a15.06,15.06,0,0,0,.78,2.47,8.68,8.68,0,0,0,1.6-2.27ZM260,25.34c-.06-.21-.13-.46-.2-.75a14.08,14.08,0,0,0-3.24.61,5.21,5.21,0,0,0-.31-1c.25-.05.56-.36.92-.81.18-.22.65-.85,1.15-1.62a7.78,7.78,0,0,0-1.92.38,6.21,6.21,0,0,0-.31-1c.22-.06.43-.29.67-.67a14.81,14.81,0,0,0,1.51-3.09l1,.32a18.94,18.94,0,0,1-1.8,3.26l1.42-.15c.21-.39.43-.79.61-1.2l1,.38a24.11,24.11,0,0,1-2.7,4l1.75-.24c-.13-.39-.27-.77-.42-1.13l.85-.24a17.4,17.4,0,0,1,.92,2.67Zm6.5-.3c-.06-.22-.13-.51-.24-.81a14.59,14.59,0,0,0-3.26.63,10.12,10.12,0,0,0-.36-1.05c.29,0,.56-.36.9-.79a13.6,13.6,0,0,0,1.08-1.6,6.57,6.57,0,0,0-1.81.36,7.64,7.64,0,0,0-.35-1c.22,0,.42-.25.63-.59a13.45,13.45,0,0,0,1.3-2.83l1,.31a18.16,18.16,0,0,1-1.57,2.95l1.32-.15a11.1,11.1,0,0,0,.63-1.24l1,.38a24.39,24.39,0,0,1-2.63,4l1.8-.25c-.14-.36-.28-.74-.43-1.08l.81-.23a19,19,0,0,1,1,2.66Z"/></g></g></g></g><line class="cls-1" x1="42.51" y1="265.14" x2="42.51" y2="273.73"/><line class="cls-1" x1="227.51" y1="265.14" x2="227.51" y2="273.73"/><line class="cls-1" x1="521.38" y1="265.14" x2="521.38" y2="273.73"/><g id="Group_5681" data-name="Group 5681"><g id="Group_5680" data-name="Group 5680"><g id="_25" data-name=" 25" class="cls-8"><g class="cls-8"><path class="cls-10" d="M57.82,385.2v2.47h-9.3a8.73,8.73,0,0,1,1.87,3.19H48.15a7.2,7.2,0,0,0-1.2-2.1,4.61,4.61,0,0,0-2.06-1.55v-2Z"/><path class="cls-10" d="M55.53,373.17h2.29v8.66a6.06,6.06,0,0,1-2.46-.84,16.38,16.38,0,0,1-3.09-2.78,17.81,17.81,0,0,0-2.11-2,2.71,2.71,0,0,0-1.51-.51,1.73,1.73,0,0,0-1.27.44,1.66,1.66,0,0,0-.45,1.23,1.63,1.63,0,0,0,.47,1.23,2.39,2.39,0,0,0,1.55.53l-.25,2.46a4.08,4.08,0,0,1-2.93-1.38,4.63,4.63,0,0,1-.88-2.9,4.23,4.23,0,0,1,1-3,3.41,3.41,0,0,1,2.56-1.09,4.66,4.66,0,0,1,1.66.31,7.06,7.06,0,0,1,1.65,1,15.63,15.63,0,0,1,1.64,1.62c.72.78,1.19,1.27,1.42,1.48a4.67,4.67,0,0,0,.69.51Z"/><path class="cls-10" d="M58,372.29,44.72,369.1v-1.85L58,370.47Z"/><path class="cls-10" d="M57.82,360.18v2.47h-9.3a8.65,8.65,0,0,1,1.87,3.19H48.15a7.2,7.2,0,0,0-1.2-2.1,4.61,4.61,0,0,0-2.06-1.55v-2Z"/><path class="cls-10" d="M58,357.28l-13.32-3.19v-1.85L58,355.46Z"/><path class="cls-10" d="M55.53,343.15h2.29v8.66a6.08,6.08,0,0,1-2.46-.85,16,16,0,0,1-3.09-2.78,17.42,17.42,0,0,0-2.11-2,2.71,2.71,0,0,0-1.51-.51,1.73,1.73,0,0,0-1.27.44,1.87,1.87,0,0,0,0,2.46,2.39,2.39,0,0,0,1.55.52l-.25,2.47a4.08,4.08,0,0,1-2.93-1.38,4.65,4.65,0,0,1-.88-2.9,4.21,4.21,0,0,1,1-3,3.37,3.37,0,0,1,2.56-1.09,4.45,4.45,0,0,1,1.66.31,7.06,7.06,0,0,1,1.65,1,15.63,15.63,0,0,1,1.64,1.62c.72.78,1.19,1.27,1.42,1.48a4.56,4.56,0,0,0,.69.5Z"/><path class="cls-10" d="M44.89,337.3a3.51,3.51,0,0,1,1.33-2.92q1.59-1.26,5.25-1.26t5.25,1.27A3.5,3.5,0,0,1,58,337.3a3.7,3.7,0,0,1-1.44,3c-1,.76-2.68,1.15-5.16,1.15s-4.17-.42-5.24-1.27A3.54,3.54,0,0,1,44.89,337.3Zm2,0a1.23,1.23,0,0,0,.29.8,1.88,1.88,0,0,0,1,.55,14.25,14.25,0,0,0,3.23.25,14.41,14.41,0,0,0,3.12-.22,2.21,2.21,0,0,0,1.12-.58,1.23,1.23,0,0,0,.29-.8,1.27,1.27,0,0,0-.29-.8,2,2,0,0,0-1-.54,14,14,0,0,0-3.22-.26,14.23,14.23,0,0,0-3.12.23,2.3,2.3,0,0,0-1.13.58A1.22,1.22,0,0,0,46.93,337.3Z"/><path class="cls-10" d="M44.89,327.29a3.51,3.51,0,0,1,1.33-2.92q1.59-1.26,5.25-1.26t5.25,1.27A3.5,3.5,0,0,1,58,327.29a3.7,3.7,0,0,1-1.44,3c-1,.76-2.68,1.15-5.16,1.15s-4.17-.43-5.24-1.27A3.54,3.54,0,0,1,44.89,327.29Zm2,0a1.23,1.23,0,0,0,.29.8,1.88,1.88,0,0,0,1,.55,14.25,14.25,0,0,0,3.23.25,13.61,13.61,0,0,0,3.12-.23,2.14,2.14,0,0,0,1.12-.57,1.23,1.23,0,0,0,.29-.8,1.25,1.25,0,0,0-.29-.8,2,2,0,0,0-1-.54,14,14,0,0,0-3.22-.26,14.23,14.23,0,0,0-3.12.23,2.22,2.22,0,0,0-1.13.58A1.2,1.2,0,0,0,46.93,327.29Z"/><path class="cls-10" d="M57.82,315.14v2.47h-9.3a8.57,8.57,0,0,1,1.87,3.19H48.15a7,7,0,0,0-1.2-2.1,4.56,4.56,0,0,0-2.06-1.56v-2Z"/></g></g></g></g><g id="Group_5681-2" data-name="Group 5681"><g id="Group_5680-2" data-name="Group 5680"><g id="_25-2-2" data-name=" 25" class="cls-8"><g class="cls-8"><path class="cls-10" d="M93.76,381.46l-.26-2.39a1.69,1.69,0,0,0,1.08-.46,1.36,1.36,0,0,0,.35-1,1.57,1.57,0,0,0-.7-1.3,6,6,0,0,0-2.92-.69A3,3,0,0,1,92.39,378a3.48,3.48,0,0,1-1.17,2.62,4.26,4.26,0,0,1-3.06,1.11A4.34,4.34,0,0,1,85,380.54a3.93,3.93,0,0,1-1.2-3,4,4,0,0,1,1.52-3.22q1.52-1.26,5-1.26t5.1,1.31A4.24,4.24,0,0,1,97,377.82a3.62,3.62,0,0,1-.8,2.44A3.88,3.88,0,0,1,93.76,381.46Zm-5.39-5.59a2.81,2.81,0,0,0-1.86.55,1.63,1.63,0,0,0-.66,1.27,1.42,1.42,0,0,0,.54,1.14,2.77,2.77,0,0,0,1.77.45,2.81,2.81,0,0,0,1.84-.49,1.54,1.54,0,0,0,.58-1.23,1.53,1.53,0,0,0-.56-1.2A2.44,2.44,0,0,0,88.37,375.87Z"/><path class="cls-10" d="M97,372.29,83.64,369.1v-1.85L97,370.47Z"/><path class="cls-10" d="M96.74,360.18v2.47H87.43a8.54,8.54,0,0,1,1.88,3.19H87.07a7.5,7.5,0,0,0-1.21-2.1,4.5,4.5,0,0,0-2.06-1.55v-2Z"/><path class="cls-10" d="M97,357.28l-13.32-3.19v-1.85L97,355.46Z"/><path class="cls-10" d="M94.45,343.15h2.29v8.66a6,6,0,0,1-2.46-.85,16,16,0,0,1-3.09-2.78,17.42,17.42,0,0,0-2.11-2,2.73,2.73,0,0,0-1.51-.51,1.73,1.73,0,0,0-1.27.44,1.87,1.87,0,0,0,0,2.46,2.36,2.36,0,0,0,1.54.52l-.24,2.47a4.06,4.06,0,0,1-2.93-1.38,4.66,4.66,0,0,1-.89-2.9,4.22,4.22,0,0,1,1-3,3.37,3.37,0,0,1,2.56-1.09,4.45,4.45,0,0,1,1.66.31,7.06,7.06,0,0,1,1.65,1,16.68,16.68,0,0,1,1.64,1.62c.71.78,1.19,1.27,1.42,1.48a4.56,4.56,0,0,0,.69.5Z"/><path class="cls-10" d="M83.8,337.3a3.52,3.52,0,0,1,1.34-2.92c1.06-.84,2.8-1.26,5.25-1.26s4.19.42,5.25,1.27A3.5,3.5,0,0,1,97,337.3a3.7,3.7,0,0,1-1.44,3c-1,.76-2.69,1.15-5.16,1.15s-4.17-.42-5.24-1.27A3.52,3.52,0,0,1,83.8,337.3Zm2,0a1.23,1.23,0,0,0,.29.8,1.88,1.88,0,0,0,1,.55,14.25,14.25,0,0,0,3.23.25,14.24,14.24,0,0,0,3.11-.22,2.21,2.21,0,0,0,1.13-.58,1.22,1.22,0,0,0,.28-.8,1.26,1.26,0,0,0-.28-.8,1.94,1.94,0,0,0-1-.54,13.84,13.84,0,0,0-3.21-.26,14.23,14.23,0,0,0-3.12.23,2.3,2.3,0,0,0-1.13.58A1.22,1.22,0,0,0,85.85,337.3Z"/><path class="cls-10" d="M83.8,327.29a3.52,3.52,0,0,1,1.34-2.92c1.06-.84,2.8-1.26,5.25-1.26s4.19.42,5.25,1.27A3.5,3.5,0,0,1,97,327.29a3.7,3.7,0,0,1-1.44,3c-1,.76-2.69,1.15-5.16,1.15s-4.17-.43-5.24-1.27A3.52,3.52,0,0,1,83.8,327.29Zm2,0a1.23,1.23,0,0,0,.29.8,1.88,1.88,0,0,0,1,.55,14.25,14.25,0,0,0,3.23.25,13.45,13.45,0,0,0,3.11-.23,2.14,2.14,0,0,0,1.13-.57,1.22,1.22,0,0,0,.28-.8,1.24,1.24,0,0,0-.28-.8,1.94,1.94,0,0,0-1-.54,13.84,13.84,0,0,0-3.21-.26,14.23,14.23,0,0,0-3.12.23,2.22,2.22,0,0,0-1.13.58A1.2,1.2,0,0,0,85.85,327.29Z"/><path class="cls-10" d="M93.32,321.55l-.29-2.4a2.25,2.25,0,0,0,1.4-.61,1.68,1.68,0,0,0,.48-1.21,1.66,1.66,0,0,0-.58-1.29,2.21,2.21,0,0,0-1.56-.52,2.09,2.09,0,0,0-1.48.5,1.59,1.59,0,0,0-.54,1.22,4.43,4.43,0,0,0,.18,1.13l-2-.27a2.14,2.14,0,0,0-.44-1.53,1.53,1.53,0,0,0-1.22-.53,1.34,1.34,0,0,0-1.43,1.42,1.5,1.5,0,0,0,.44,1.08,2,2,0,0,0,1.29.54l-.39,2.28a5.14,5.14,0,0,1-1.87-.72,3.3,3.3,0,0,1-1.1-1.33,4.58,4.58,0,0,1-.4-1.92A3.85,3.85,0,0,1,85,314.47a2.94,2.94,0,0,1,4.86.95,3,3,0,0,1,1.06-1.77,3.11,3.11,0,0,1,2-.67,3.9,3.9,0,0,1,2.9,1.24A4.31,4.31,0,0,1,97,317.31a4.22,4.22,0,0,1-1,2.9A4,4,0,0,1,93.32,321.55Z"/></g></g></g></g><g id="Group_5681-3" data-name="Group 5681"><g id="Group_5680-3" data-name="Group 5680"><g id="_25-3" data-name=" 25" class="cls-8"><g class="cls-8"><path class="cls-10" d="M131.48,373.15l.26,2.39a1.8,1.8,0,0,0-1.09.45,1.37,1.37,0,0,0-.35,1,1.61,1.61,0,0,0,.7,1.32,6,6,0,0,0,2.93.69,2.89,2.89,0,0,1-1.09-2.3A3.5,3.5,0,0,1,134,374a4.28,4.28,0,0,1,3-1.1,4.37,4.37,0,0,1,3.17,1.16,4.22,4.22,0,0,1-.32,6.19q-1.51,1.25-5,1.25c-2.36,0-4.06-.43-5.11-1.31a4.22,4.22,0,0,1-1.56-3.4,3.59,3.59,0,0,1,.82-2.43A3.82,3.82,0,0,1,131.48,373.15Zm5.39,5.59a2.76,2.76,0,0,0,1.85-.55,1.62,1.62,0,0,0,.66-1.26,1.45,1.45,0,0,0-.54-1.15,2.7,2.7,0,0,0-1.75-.45,2.84,2.84,0,0,0-1.85.49,1.58,1.58,0,0,0,0,2.43A2.41,2.41,0,0,0,136.87,378.74Z"/><path class="cls-10" d="M141.43,372.29,128.1,369.1v-1.85l13.33,3.22Z"/><path class="cls-10" d="M141.21,360.18v2.47H131.9a8.52,8.52,0,0,1,1.87,3.19h-2.24a7.2,7.2,0,0,0-1.2-2.1,4.61,4.61,0,0,0-2.06-1.55v-2Z"/><path class="cls-10" d="M141.43,357.28l-13.33-3.19v-1.85l13.33,3.22Z"/><path class="cls-10" d="M138.91,343.15h2.3v8.66a6.07,6.07,0,0,1-2.47-.85,16.64,16.64,0,0,1-3.09-2.78,16.68,16.68,0,0,0-2.11-2,2.71,2.71,0,0,0-1.51-.51,1.75,1.75,0,0,0-1.27.44,1.7,1.7,0,0,0-.44,1.23,1.66,1.66,0,0,0,.46,1.23,2.39,2.39,0,0,0,1.55.52l-.25,2.47a4,4,0,0,1-2.92-1.38,4.66,4.66,0,0,1-.89-2.9,4.17,4.17,0,0,1,1-3,3.36,3.36,0,0,1,2.56-1.09,4.36,4.36,0,0,1,1.65.31,6.67,6.67,0,0,1,1.65,1,15.63,15.63,0,0,1,1.64,1.62c.72.78,1.19,1.27,1.43,1.48a4.06,4.06,0,0,0,.68.5Z"/><path class="cls-10" d="M128.27,337.3a3.52,3.52,0,0,1,1.34-2.92q1.57-1.26,5.24-1.26t5.26,1.27a3.5,3.5,0,0,1,1.32,2.91,3.68,3.68,0,0,1-1.45,3c-1,.76-2.68,1.15-5.15,1.15s-4.18-.42-5.24-1.27A3.52,3.52,0,0,1,128.27,337.3Zm2,0a1.22,1.22,0,0,0,.28.8,1.92,1.92,0,0,0,1,.55,14.15,14.15,0,0,0,3.22.25,14.41,14.41,0,0,0,3.12-.22,2.3,2.3,0,0,0,1.13-.58,1.22,1.22,0,0,0,.28-.8,1.27,1.27,0,0,0-.29-.8,2,2,0,0,0-1-.54,20.58,20.58,0,0,0-6.33,0,2.3,2.3,0,0,0-1.14.58A1.21,1.21,0,0,0,130.32,337.3Z"/><path class="cls-10" d="M128.27,327.29a3.52,3.52,0,0,1,1.34-2.92q1.57-1.26,5.24-1.26t5.26,1.27a3.5,3.5,0,0,1,1.32,2.91,3.68,3.68,0,0,1-1.45,3c-1,.76-2.68,1.15-5.15,1.15s-4.18-.43-5.24-1.27A3.52,3.52,0,0,1,128.27,327.29Zm2,0a1.22,1.22,0,0,0,.28.8,1.92,1.92,0,0,0,1,.55,14.15,14.15,0,0,0,3.22.25,13.61,13.61,0,0,0,3.12-.23,2.22,2.22,0,0,0,1.13-.57,1.22,1.22,0,0,0,.28-.8,1.25,1.25,0,0,0-.29-.8,2,2,0,0,0-1-.54,20.58,20.58,0,0,0-6.33,0,2.22,2.22,0,0,0-1.14.58A1.19,1.19,0,0,0,130.32,327.29Z"/><path class="cls-10" d="M137.89,321.42l-.25-2.46a2.11,2.11,0,0,0,1.32-.62,1.7,1.7,0,0,0,.49-1.2,1.67,1.67,0,0,0-.63-1.31,2.84,2.84,0,0,0-1.89-.53,2.56,2.56,0,0,0-1.78.53,1.75,1.75,0,0,0-.6,1.38,2.54,2.54,0,0,0,.94,1.91l-.29,2-6.7-1.26v-6.53h2.31V318l2.19.38a3.79,3.79,0,0,1,.78-4.47,4.31,4.31,0,0,1,3.1-1.14,4.62,4.62,0,0,1,2.84.92,4.09,4.09,0,0,1,1.71,3.49,4.33,4.33,0,0,1-1,2.91A3.92,3.92,0,0,1,137.89,321.42Z"/></g></g></g></g><g id="Group_5681-4" data-name="Group 5681"><g id="Group_5680-4" data-name="Group 5680"><g id="_25-4" data-name=" 25" class="cls-8"><g class="cls-8"><path class="cls-10" d="M184.8,381.6l-.29-2.39a2.33,2.33,0,0,0,1.4-.61,1.71,1.71,0,0,0,.48-1.22,1.66,1.66,0,0,0-.58-1.29,2.3,2.3,0,0,0-1.57-.52,2.09,2.09,0,0,0-1.47.5,1.59,1.59,0,0,0-.55,1.22,4.09,4.09,0,0,0,.19,1.14l-2-.27a2.14,2.14,0,0,0-.43-1.53,1.54,1.54,0,0,0-1.23-.53,1.34,1.34,0,0,0-1.42,1.41,1.51,1.51,0,0,0,.44,1.09,2.08,2.08,0,0,0,1.28.54l-.38,2.28a5.07,5.07,0,0,1-1.87-.72,3.19,3.19,0,0,1-1.1-1.34,4.43,4.43,0,0,1-.4-1.92,3.83,3.83,0,0,1,1.16-2.91,3,3,0,0,1,2.14-.91,3,3,0,0,1,2.71,1.85,3.05,3.05,0,0,1,1.06-1.77,3.13,3.13,0,0,1,2-.66,3.86,3.86,0,0,1,2.89,1.24,4.61,4.61,0,0,1,.19,6A3.94,3.94,0,0,1,184.8,381.6Z"/><path class="cls-10" d="M188.44,372.29l-13.33-3.19v-1.85l13.33,3.22Z"/><path class="cls-10" d="M188.22,360.18v2.47h-9.31a8.52,8.52,0,0,1,1.87,3.19h-2.24a7.2,7.2,0,0,0-1.2-2.1,4.61,4.61,0,0,0-2.06-1.55v-2Z"/><path class="cls-10" d="M188.44,357.28l-13.33-3.19v-1.85l13.33,3.22Z"/><path class="cls-10" d="M185.92,343.15h2.3v8.66a6.07,6.07,0,0,1-2.47-.85,16.64,16.64,0,0,1-3.09-2.78,17.42,17.42,0,0,0-2.11-2,2.71,2.71,0,0,0-1.51-.51,1.75,1.75,0,0,0-1.27.44,1.7,1.7,0,0,0-.44,1.23,1.66,1.66,0,0,0,.46,1.23,2.39,2.39,0,0,0,1.55.52l-.25,2.47a4,4,0,0,1-2.92-1.38,4.6,4.6,0,0,1-.89-2.9,4.17,4.17,0,0,1,1-3,3.35,3.35,0,0,1,2.55-1.09,4.38,4.38,0,0,1,1.66.31,6.67,6.67,0,0,1,1.65,1,15.63,15.63,0,0,1,1.64,1.62c.72.78,1.19,1.27,1.43,1.48a4.06,4.06,0,0,0,.68.5Z"/><path class="cls-10" d="M175.28,337.3a3.51,3.51,0,0,1,1.33-2.92q1.59-1.26,5.25-1.26t5.26,1.27a3.5,3.5,0,0,1,1.32,2.91,3.71,3.71,0,0,1-1.45,3c-1,.76-2.68,1.15-5.15,1.15s-4.18-.42-5.24-1.27A3.52,3.52,0,0,1,175.28,337.3Zm2.05,0a1.22,1.22,0,0,0,.28.8,1.88,1.88,0,0,0,1,.55,14.15,14.15,0,0,0,3.22.25,14.41,14.41,0,0,0,3.12-.22,2.3,2.3,0,0,0,1.13-.58,1.27,1.27,0,0,0,0-1.6,2,2,0,0,0-1-.54,20.58,20.58,0,0,0-6.33,0,2.3,2.3,0,0,0-1.14.58A1.21,1.21,0,0,0,177.33,337.3Z"/><path class="cls-10" d="M175.28,327.29a3.51,3.51,0,0,1,1.33-2.92q1.59-1.26,5.25-1.26t5.26,1.27a3.5,3.5,0,0,1,1.32,2.91,3.71,3.71,0,0,1-1.45,3c-1,.76-2.68,1.15-5.15,1.15s-4.18-.43-5.24-1.27A3.52,3.52,0,0,1,175.28,327.29Zm2.05,0a1.22,1.22,0,0,0,.28.8,1.88,1.88,0,0,0,1,.55,14.15,14.15,0,0,0,3.22.25,13.61,13.61,0,0,0,3.12-.23,2.22,2.22,0,0,0,1.13-.57,1.28,1.28,0,0,0,.28-.8,1.25,1.25,0,0,0-.29-.8,2,2,0,0,0-1-.54,20.58,20.58,0,0,0-6.33,0,2.22,2.22,0,0,0-1.14.58A1.19,1.19,0,0,0,177.33,327.29Z"/><path class="cls-10" d="M177.8,321.46h-2.29V313h1.79a13.33,13.33,0,0,0,2.95,2.13,17.43,17.43,0,0,0,4.1,1.65,15.24,15.24,0,0,0,3.87.55v2.39a16.66,16.66,0,0,1-5.45-1.11,18.11,18.11,0,0,1-5-2.78Z"/></g></g></g></g><g id="Group_5681-5" data-name="Group 5681"><g id="Group_5680-5" data-name="Group 5680"><g id="_25-5" data-name=" 25" class="cls-8"><g class="cls-8"><path class="cls-10" d="M238.24,385.2v2.47h-9.3a8.6,8.6,0,0,1,1.87,3.19h-2.24a7.2,7.2,0,0,0-1.2-2.1,4.61,4.61,0,0,0-2.06-1.55v-2Z"/><path class="cls-10" d="M236,373.17h2.29v8.66a6.06,6.06,0,0,1-2.46-.84,16.38,16.38,0,0,1-3.09-2.78,17.81,17.81,0,0,0-2.11-2,2.71,2.71,0,0,0-1.51-.51,1.75,1.75,0,0,0-1.27.44,1.66,1.66,0,0,0-.44,1.23,1.63,1.63,0,0,0,.46,1.23,2.39,2.39,0,0,0,1.55.53l-.25,2.46a4,4,0,0,1-2.92-1.38,4.58,4.58,0,0,1-.89-2.9,4.19,4.19,0,0,1,1-3,3.37,3.37,0,0,1,2.55-1.09,4.62,4.62,0,0,1,1.66.31,7.06,7.06,0,0,1,1.65,1,15.63,15.63,0,0,1,1.64,1.62c.72.78,1.19,1.27,1.43,1.48a4.15,4.15,0,0,0,.68.51Z"/><path class="cls-10" d="M238.46,372.29l-13.32-3.19v-1.85l13.32,3.22Z"/><path class="cls-10" d="M238.24,360.18v2.47h-9.3a8.52,8.52,0,0,1,1.87,3.19h-2.24a7.2,7.2,0,0,0-1.2-2.1,4.61,4.61,0,0,0-2.06-1.55v-2Z"/><path class="cls-10" d="M238.46,357.28l-13.32-3.19v-1.85l13.32,3.22Z"/><path class="cls-10" d="M236,343.15h2.29v8.66a6.08,6.08,0,0,1-2.46-.85,16,16,0,0,1-3.09-2.78,17.42,17.42,0,0,0-2.11-2,2.71,2.71,0,0,0-1.51-.51,1.75,1.75,0,0,0-1.27.44,1.91,1.91,0,0,0,0,2.46,2.39,2.39,0,0,0,1.55.52l-.25,2.47a4,4,0,0,1-2.92-1.38,4.6,4.6,0,0,1-.89-2.9,4.17,4.17,0,0,1,1-3,3.34,3.34,0,0,1,2.55-1.09,4.41,4.41,0,0,1,1.66.31,7.06,7.06,0,0,1,1.65,1,15.63,15.63,0,0,1,1.64,1.62c.72.78,1.19,1.27,1.43,1.48a4.06,4.06,0,0,0,.68.5Z"/><path class="cls-10" d="M225.31,337.3a3.51,3.51,0,0,1,1.33-2.92q1.59-1.26,5.25-1.26t5.26,1.27a3.49,3.49,0,0,1,1.31,2.91,3.7,3.7,0,0,1-1.44,3c-1,.76-2.68,1.15-5.16,1.15s-4.17-.42-5.23-1.27A3.52,3.52,0,0,1,225.31,337.3Zm2.05,0a1.22,1.22,0,0,0,.28.8,1.88,1.88,0,0,0,1,.55,14.25,14.25,0,0,0,3.23.25,14.41,14.41,0,0,0,3.12-.22,2.3,2.3,0,0,0,1.13-.58,1.27,1.27,0,0,0,0-1.6,2,2,0,0,0-1-.54,14,14,0,0,0-3.22-.26,14.23,14.23,0,0,0-3.12.23,2.3,2.3,0,0,0-1.13.58A1.21,1.21,0,0,0,227.36,337.3Z"/><path class="cls-10" d="M225.31,327.29a3.51,3.51,0,0,1,1.33-2.92q1.59-1.26,5.25-1.26t5.26,1.27a3.49,3.49,0,0,1,1.31,2.91,3.7,3.7,0,0,1-1.44,3c-1,.76-2.68,1.15-5.16,1.15s-4.17-.43-5.23-1.27A3.52,3.52,0,0,1,225.31,327.29Zm2.05,0a1.22,1.22,0,0,0,.28.8,1.88,1.88,0,0,0,1,.55,14.25,14.25,0,0,0,3.23.25,13.61,13.61,0,0,0,3.12-.23,2.22,2.22,0,0,0,1.13-.57,1.28,1.28,0,0,0,.28-.8,1.25,1.25,0,0,0-.29-.8,2,2,0,0,0-1-.54,14,14,0,0,0-3.22-.26,14.23,14.23,0,0,0-3.12.23,2.22,2.22,0,0,0-1.13.58A1.19,1.19,0,0,0,227.36,327.29Z"/><path class="cls-10" d="M231.29,319.34a2.87,2.87,0,0,1-1.11,1.39,2.91,2.91,0,0,1-1.55.44,3.11,3.11,0,0,1-2.38-1,4.81,4.81,0,0,1,0-5.71,3.09,3.09,0,0,1,2.38-1,2.84,2.84,0,0,1,1.6.47,2.94,2.94,0,0,1,1.06,1.31,3.44,3.44,0,0,1,1.26-1.63,3.35,3.35,0,0,1,1.91-.56,3.89,3.89,0,0,1,2.9,1.14,4.16,4.16,0,0,1,1.11,3,4.53,4.53,0,0,1-.92,2.92,3.6,3.6,0,0,1-3,1.38,3.67,3.67,0,0,1-1.92-.52A3.36,3.36,0,0,1,231.29,319.34Zm-2.48-.51a1.43,1.43,0,0,0,1.56-1.53,1.61,1.61,0,0,0-2.69-1.13,1.72,1.72,0,0,0,0,2.24A1.51,1.51,0,0,0,228.81,318.83Zm5.51.23a2.3,2.3,0,0,0,1.6-.53,1.75,1.75,0,0,0,0-2.57,2.31,2.31,0,0,0-1.59-.5,2,2,0,0,0-1.45.51,1.67,1.67,0,0,0-.55,1.29,1.54,1.54,0,0,0,.62,1.35A2.28,2.28,0,0,0,234.32,319.06Z"/></g></g></g></g><g id="Group_5681-6" data-name="Group 5681"><g id="Group_5680-6" data-name="Group 5680"><g id="_25-6" data-name=" 25" class="cls-8"><g class="cls-8"><path class="cls-10" d="M278.49,381.46l-.26-2.39a1.69,1.69,0,0,0,1.08-.46,1.36,1.36,0,0,0,.35-1,1.57,1.57,0,0,0-.7-1.3,6,6,0,0,0-2.92-.69,3,3,0,0,1,1.08,2.33A3.48,3.48,0,0,1,276,380.6a4.26,4.26,0,0,1-3.06,1.11,4.34,4.34,0,0,1-3.16-1.17,4.21,4.21,0,0,1,.32-6.18q1.51-1.26,5-1.26t5.1,1.31a4.24,4.24,0,0,1,1.56,3.41,3.62,3.62,0,0,1-.8,2.44A3.88,3.88,0,0,1,278.49,381.46Zm-5.39-5.59a2.81,2.81,0,0,0-1.86.55,1.63,1.63,0,0,0-.66,1.27,1.42,1.42,0,0,0,.54,1.14,2.77,2.77,0,0,0,1.77.45,2.81,2.81,0,0,0,1.84-.49,1.54,1.54,0,0,0,.58-1.23,1.53,1.53,0,0,0-.56-1.2A2.44,2.44,0,0,0,273.1,375.87Z"/><path class="cls-10" d="M281.69,372.29l-13.32-3.19v-1.85l13.32,3.22Z"/><path class="cls-10" d="M281.47,360.18v2.47h-9.31a8.54,8.54,0,0,1,1.88,3.19H271.8a7.44,7.44,0,0,0-1.2-2.1,4.58,4.58,0,0,0-2.07-1.55v-2Z"/><path class="cls-10" d="M281.69,357.28l-13.32-3.19v-1.85l13.32,3.22Z"/><path class="cls-10" d="M279.18,343.15h2.29v8.66A6,6,0,0,1,279,351a16,16,0,0,1-3.09-2.78,17.42,17.42,0,0,0-2.11-2,2.73,2.73,0,0,0-1.51-.51,1.73,1.73,0,0,0-1.27.44,1.87,1.87,0,0,0,0,2.46,2.37,2.37,0,0,0,1.55.52l-.25,2.47a4.06,4.06,0,0,1-2.93-1.38,4.66,4.66,0,0,1-.89-2.9,4.22,4.22,0,0,1,1-3,3.37,3.37,0,0,1,2.56-1.09,4.45,4.45,0,0,1,1.66.31,7.06,7.06,0,0,1,1.65,1,16.68,16.68,0,0,1,1.64,1.62c.71.78,1.19,1.27,1.42,1.48a4.56,4.56,0,0,0,.69.5Z"/><path class="cls-10" d="M268.53,337.3a3.52,3.52,0,0,1,1.34-2.92c1.06-.84,2.8-1.26,5.25-1.26s4.19.42,5.25,1.27a3.5,3.5,0,0,1,1.32,2.91,3.7,3.7,0,0,1-1.44,3c-1,.76-2.69,1.15-5.16,1.15s-4.17-.42-5.24-1.27A3.52,3.52,0,0,1,268.53,337.3Zm2.05,0a1.23,1.23,0,0,0,.29.8,1.88,1.88,0,0,0,1,.55,21.52,21.52,0,0,0,6.34,0,2.21,2.21,0,0,0,1.13-.58,1.22,1.22,0,0,0,.28-.8,1.26,1.26,0,0,0-.28-.8,1.94,1.94,0,0,0-1-.54,13.84,13.84,0,0,0-3.21-.26,14.23,14.23,0,0,0-3.12.23,2.3,2.3,0,0,0-1.13.58A1.22,1.22,0,0,0,270.58,337.3Z"/><path class="cls-10" d="M281.47,325.15v2.47h-9.31a8.46,8.46,0,0,1,1.88,3.19H271.8a7.18,7.18,0,0,0-1.2-2.1,4.53,4.53,0,0,0-2.07-1.56v-2Z"/><path class="cls-10" d="M268.53,317.28a3.51,3.51,0,0,1,1.34-2.92c1.06-.84,2.8-1.26,5.25-1.26s4.19.42,5.25,1.26a3.52,3.52,0,0,1,1.32,2.92,3.67,3.67,0,0,1-1.44,3q-1.46,1.15-5.16,1.16c-2.42,0-4.17-.43-5.24-1.27A3.52,3.52,0,0,1,268.53,317.28Zm2.05,0a1.23,1.23,0,0,0,.29.8,1.88,1.88,0,0,0,1,.55,14.25,14.25,0,0,0,3.23.25,13.45,13.45,0,0,0,3.11-.23,2.14,2.14,0,0,0,1.13-.57,1.22,1.22,0,0,0,.28-.8,1.24,1.24,0,0,0-.28-.8,1.94,1.94,0,0,0-1-.54,13.84,13.84,0,0,0-3.21-.26,14.23,14.23,0,0,0-3.12.23,2.22,2.22,0,0,0-1.13.58A1.2,1.2,0,0,0,270.58,317.28Z"/></g></g></g></g><g id="Group_5681-7" data-name="Group 5681"><g id="Group_5680-7" data-name="Group 5680"><g id="_25-7" data-name=" 25" class="cls-8"><g class="cls-8"><path class="cls-10" d="M319.47,373.15l.27,2.39a1.75,1.75,0,0,0-1.09.45,1.32,1.32,0,0,0-.35,1,1.61,1.61,0,0,0,.7,1.32,6,6,0,0,0,2.93.69,2.89,2.89,0,0,1-1.09-2.3A3.52,3.52,0,0,1,322,374a4.3,4.3,0,0,1,3-1.1,4.4,4.4,0,0,1,3.18,1.16,4.24,4.24,0,0,1-.32,6.19q-1.52,1.25-5,1.25c-2.37,0-4.07-.43-5.11-1.31a4.23,4.23,0,0,1-1.57-3.4,3.6,3.6,0,0,1,.83-2.43A3.82,3.82,0,0,1,319.47,373.15Zm5.39,5.59a2.81,2.81,0,0,0,1.86-.55,1.61,1.61,0,0,0,.65-1.26,1.44,1.44,0,0,0-.53-1.15,2.75,2.75,0,0,0-1.76-.45,2.81,2.81,0,0,0-1.84.49,1.57,1.57,0,0,0,0,2.43A2.43,2.43,0,0,0,324.86,378.74Z"/><path class="cls-10" d="M329.42,372.29,316.1,369.1v-1.85l13.32,3.22Z"/><path class="cls-10" d="M329.2,360.18v2.47h-9.31a8.54,8.54,0,0,1,1.88,3.19h-2.24a7.44,7.44,0,0,0-1.2-2.1,4.58,4.58,0,0,0-2.07-1.55v-2Z"/><path class="cls-10" d="M329.42,357.28l-13.32-3.19v-1.85l13.32,3.22Z"/><path class="cls-10" d="M326.91,343.15h2.29v8.66a6,6,0,0,1-2.46-.85,16,16,0,0,1-3.09-2.78,17.42,17.42,0,0,0-2.11-2,2.73,2.73,0,0,0-1.51-.51,1.73,1.73,0,0,0-1.27.44,1.87,1.87,0,0,0,0,2.46,2.37,2.37,0,0,0,1.55.52l-.25,2.47a4.06,4.06,0,0,1-2.93-1.38,4.66,4.66,0,0,1-.89-2.9,4.22,4.22,0,0,1,1-3,3.37,3.37,0,0,1,2.56-1.09,4.45,4.45,0,0,1,1.66.31,7.06,7.06,0,0,1,1.65,1,16.68,16.68,0,0,1,1.64,1.62c.71.78,1.19,1.27,1.42,1.48a4.56,4.56,0,0,0,.69.5Z"/><path class="cls-10" d="M316.26,337.3a3.52,3.52,0,0,1,1.34-2.92c1.06-.84,2.8-1.26,5.25-1.26s4.19.42,5.25,1.27a3.5,3.5,0,0,1,1.32,2.91,3.7,3.7,0,0,1-1.44,3c-1,.76-2.69,1.15-5.16,1.15s-4.17-.42-5.24-1.27A3.52,3.52,0,0,1,316.26,337.3Zm2.05,0a1.23,1.23,0,0,0,.29.8,1.88,1.88,0,0,0,1,.55,21.52,21.52,0,0,0,6.34,0,2.21,2.21,0,0,0,1.13-.58,1.22,1.22,0,0,0,.28-.8,1.26,1.26,0,0,0-.28-.8,1.94,1.94,0,0,0-1-.54,13.84,13.84,0,0,0-3.21-.26,14.23,14.23,0,0,0-3.12.23,2.3,2.3,0,0,0-1.13.58A1.22,1.22,0,0,0,318.31,337.3Z"/><path class="cls-10" d="M329.2,325.15v2.47h-9.31a8.46,8.46,0,0,1,1.88,3.19h-2.24a7.18,7.18,0,0,0-1.2-2.1,4.53,4.53,0,0,0-2.07-1.56v-2Z"/><path class="cls-10" d="M326.91,313.12h2.29v8.65a5.87,5.87,0,0,1-2.46-.84,16,16,0,0,1-3.09-2.78,18.73,18.73,0,0,0-2.11-2,2.72,2.72,0,0,0-1.51-.5,1.69,1.69,0,0,0-1.27.44,1.62,1.62,0,0,0-.45,1.22,1.67,1.67,0,0,0,.47,1.24,2.37,2.37,0,0,0,1.55.52l-.25,2.46a4,4,0,0,1-2.93-1.38,4.64,4.64,0,0,1-.89-2.9,4.19,4.19,0,0,1,1-3,3.37,3.37,0,0,1,2.56-1.09,4.45,4.45,0,0,1,1.66.31,7.06,7.06,0,0,1,1.65,1A17.5,17.5,0,0,1,324.8,316c.71.78,1.19,1.28,1.42,1.49a5.38,5.38,0,0,0,.69.5Z"/></g></g></g></g><g id="Group_5681-8" data-name="Group 5681"><g id="Group_5680-8" data-name="Group 5680"><g id="_25-8" data-name=" 25" class="cls-8"><g class="cls-8"><path class="cls-10" d="M373.51,381.6l-.29-2.39a2.3,2.3,0,0,0,1.4-.61,1.71,1.71,0,0,0,.48-1.22,1.66,1.66,0,0,0-.58-1.29,2.26,2.26,0,0,0-1.56-.52,2.14,2.14,0,0,0-1.48.5,1.61,1.61,0,0,0-.54,1.22,4.43,4.43,0,0,0,.18,1.14l-2-.27a2.19,2.19,0,0,0-.43-1.53,1.54,1.54,0,0,0-1.23-.53,1.41,1.41,0,0,0-1,.39,1.36,1.36,0,0,0-.38,1,1.47,1.47,0,0,0,.44,1.09,2.08,2.08,0,0,0,1.28.54l-.39,2.28a5.14,5.14,0,0,1-1.87-.72,3.17,3.17,0,0,1-1.09-1.34,4.43,4.43,0,0,1-.4-1.92,3.79,3.79,0,0,1,1.16-2.91,3,3,0,0,1,2.14-.91,3.05,3.05,0,0,1,2.71,1.85,3.05,3.05,0,0,1,1.06-1.77,3.11,3.11,0,0,1,2-.66,3.86,3.86,0,0,1,2.89,1.24,4.29,4.29,0,0,1,1.19,3.08,4.23,4.23,0,0,1-1,2.9A3.94,3.94,0,0,1,373.51,381.6Z"/><path class="cls-10" d="M377.15,372.29l-13.32-3.19v-1.85l13.32,3.22Z"/><path class="cls-10" d="M376.93,360.18v2.47h-9.3a8.65,8.65,0,0,1,1.87,3.19h-2.24a7.2,7.2,0,0,0-1.2-2.1,4.61,4.61,0,0,0-2.06-1.55v-2Z"/><path class="cls-10" d="M377.15,357.28l-13.32-3.19v-1.85l13.32,3.22Z"/><path class="cls-10" d="M374.64,343.15h2.29v8.66a6,6,0,0,1-2.46-.85,16,16,0,0,1-3.09-2.78,17.42,17.42,0,0,0-2.11-2,2.71,2.71,0,0,0-1.51-.51,1.73,1.73,0,0,0-1.27.44,1.87,1.87,0,0,0,0,2.46,2.39,2.39,0,0,0,1.55.52l-.25,2.47a4.06,4.06,0,0,1-2.93-1.38,4.65,4.65,0,0,1-.88-2.9,4.21,4.21,0,0,1,1-3,3.37,3.37,0,0,1,2.56-1.09,4.45,4.45,0,0,1,1.66.31,7.06,7.06,0,0,1,1.65,1,16.68,16.68,0,0,1,1.64,1.62c.71.78,1.19,1.27,1.42,1.48a4.56,4.56,0,0,0,.69.5Z"/><path class="cls-10" d="M364,337.3a3.51,3.51,0,0,1,1.33-2.92q1.59-1.26,5.25-1.26t5.25,1.27a3.5,3.5,0,0,1,1.32,2.91,3.7,3.7,0,0,1-1.44,3c-1,.76-2.69,1.15-5.16,1.15s-4.17-.42-5.24-1.27A3.51,3.51,0,0,1,364,337.3Zm2,0a1.23,1.23,0,0,0,.29.8,1.88,1.88,0,0,0,1,.55,21.52,21.52,0,0,0,6.34,0,2.21,2.21,0,0,0,1.13-.58,1.22,1.22,0,0,0,.28-.8,1.26,1.26,0,0,0-.28-.8,2,2,0,0,0-1-.54,14,14,0,0,0-3.22-.26,14.23,14.23,0,0,0-3.12.23,2.3,2.3,0,0,0-1.13.58A1.22,1.22,0,0,0,366,337.3Z"/><path class="cls-10" d="M376.93,325.15v2.47h-9.3a8.57,8.57,0,0,1,1.87,3.19h-2.24a7,7,0,0,0-1.2-2.1,4.56,4.56,0,0,0-2.06-1.56v-2Z"/><path class="cls-10" d="M376.93,316.61h-2.59v5.28h-2.16L364,316.3v-2.08h8.17v-1.6h2.17v1.6h2.59Zm-4.76,0h-4.4l4.4,3Z"/></g></g></g></g><g id="Group_5681-9" data-name="Group 5681"><g id="Group_5680-9" data-name="Group 5680"><g id="_25-9" data-name=" 25" class="cls-8"><g class="cls-8"><path class="cls-10" d="M424.66,385.2v2.47h-9.3a8.73,8.73,0,0,1,1.87,3.19H415a7.2,7.2,0,0,0-1.2-2.1,4.61,4.61,0,0,0-2.06-1.55v-2Z"/><path class="cls-10" d="M422.37,373.17h2.29v8.66a6,6,0,0,1-2.46-.84,16.38,16.38,0,0,1-3.09-2.78,17.81,17.81,0,0,0-2.11-2,2.71,2.71,0,0,0-1.51-.51,1.73,1.73,0,0,0-1.27.44,1.66,1.66,0,0,0-.45,1.23,1.63,1.63,0,0,0,.47,1.23,2.39,2.39,0,0,0,1.55.53l-.25,2.46a4.06,4.06,0,0,1-2.93-1.38,4.63,4.63,0,0,1-.88-2.9,4.23,4.23,0,0,1,1-3,3.41,3.41,0,0,1,2.56-1.09,4.66,4.66,0,0,1,1.66.31,7.06,7.06,0,0,1,1.65,1,16.68,16.68,0,0,1,1.64,1.62c.71.78,1.19,1.27,1.42,1.48a4.67,4.67,0,0,0,.69.51Z"/><path class="cls-10" d="M424.88,372.29l-13.32-3.19v-1.85l13.32,3.22Z"/><path class="cls-10" d="M424.66,360.18v2.47h-9.3a8.65,8.65,0,0,1,1.87,3.19H415a7.2,7.2,0,0,0-1.2-2.1,4.61,4.61,0,0,0-2.06-1.55v-2Z"/><path class="cls-10" d="M424.88,357.28l-13.32-3.19v-1.85l13.32,3.22Z"/><path class="cls-10" d="M422.37,343.15h2.29v8.66a6,6,0,0,1-2.46-.85,16,16,0,0,1-3.09-2.78,17.42,17.42,0,0,0-2.11-2,2.71,2.71,0,0,0-1.51-.51,1.73,1.73,0,0,0-1.27.44,1.87,1.87,0,0,0,0,2.46,2.39,2.39,0,0,0,1.55.52l-.25,2.47a4.06,4.06,0,0,1-2.93-1.38,4.65,4.65,0,0,1-.88-2.9,4.21,4.21,0,0,1,1-3,3.37,3.37,0,0,1,2.56-1.09,4.45,4.45,0,0,1,1.66.31,7.06,7.06,0,0,1,1.65,1,16.68,16.68,0,0,1,1.64,1.62c.71.78,1.19,1.27,1.42,1.48a4.56,4.56,0,0,0,.69.5Z"/><path class="cls-10" d="M411.73,337.3a3.51,3.51,0,0,1,1.33-2.92c1.06-.84,2.8-1.26,5.25-1.26s4.19.42,5.25,1.27a3.5,3.5,0,0,1,1.32,2.91,3.7,3.7,0,0,1-1.44,3c-1,.76-2.69,1.15-5.16,1.15s-4.17-.42-5.24-1.27A3.51,3.51,0,0,1,411.73,337.3Zm2,0a1.23,1.23,0,0,0,.29.8,1.88,1.88,0,0,0,1,.55,21.52,21.52,0,0,0,6.34,0,2.21,2.21,0,0,0,1.13-.58,1.22,1.22,0,0,0,.28-.8,1.26,1.26,0,0,0-.28-.8,2,2,0,0,0-1-.54,14,14,0,0,0-3.22-.26,14.23,14.23,0,0,0-3.12.23,2.3,2.3,0,0,0-1.13.58A1.22,1.22,0,0,0,413.77,337.3Z"/><path class="cls-10" d="M424.66,325.15v2.47h-9.3a8.57,8.57,0,0,1,1.87,3.19H415a7,7,0,0,0-1.2-2.1,4.56,4.56,0,0,0-2.06-1.56v-2Z"/><path class="cls-10" d="M421.35,321.42l-.26-2.46a2.16,2.16,0,0,0,1.33-.62,1.74,1.74,0,0,0,.49-1.2,1.67,1.67,0,0,0-.63-1.31,2.85,2.85,0,0,0-1.9-.53,2.58,2.58,0,0,0-1.78.53,1.77,1.77,0,0,0-.59,1.38,2.5,2.5,0,0,0,.94,1.91l-.29,2L412,319.86v-6.53h2.32V318l2.18.38a3.79,3.79,0,0,1-.41-1.69,3.69,3.69,0,0,1,1.2-2.78,4.3,4.3,0,0,1,3.1-1.14,4.62,4.62,0,0,1,2.84.92,4.11,4.11,0,0,1,1.7,3.49,4.33,4.33,0,0,1-1,2.91A3.88,3.88,0,0,1,421.35,321.42Z"/></g></g></g></g><g id="Group_5681-10" data-name="Group 5681"><g id="Group_5680-10" data-name="Group 5680"><g id="_25-10" data-name=" 25" class="cls-8"><g class="cls-8"><path class="cls-10" d="M469.41,381.46l-.26-2.39a1.69,1.69,0,0,0,1.08-.46,1.32,1.32,0,0,0,.35-1,1.57,1.57,0,0,0-.7-1.3,6,6,0,0,0-2.92-.69A3,3,0,0,1,468,378a3.48,3.48,0,0,1-1.17,2.62,4.26,4.26,0,0,1-3.05,1.11,4.33,4.33,0,0,1-3.16-1.17,3.93,3.93,0,0,1-1.2-3,4,4,0,0,1,1.51-3.22c1-.84,2.68-1.26,5-1.26s4.05.44,5.1,1.31a4.24,4.24,0,0,1,1.56,3.41,3.62,3.62,0,0,1-.8,2.44A3.88,3.88,0,0,1,469.41,381.46ZM464,375.87a2.81,2.81,0,0,0-1.86.55,1.63,1.63,0,0,0-.66,1.27,1.42,1.42,0,0,0,.54,1.14,3.7,3.7,0,0,0,3.61,0,1.54,1.54,0,0,0,.58-1.23,1.53,1.53,0,0,0-.56-1.2A2.44,2.44,0,0,0,464,375.87Z"/><path class="cls-10" d="M472.61,372.29l-13.32-3.19v-1.85l13.32,3.22Z"/><path class="cls-10" d="M472.39,360.18v2.47h-9.3a8.65,8.65,0,0,1,1.87,3.19h-2.24a7.2,7.2,0,0,0-1.2-2.1,4.61,4.61,0,0,0-2.06-1.55v-2Z"/><path class="cls-10" d="M472.61,357.28l-13.32-3.19v-1.85l13.32,3.22Z"/><path class="cls-10" d="M470.1,343.15h2.29v8.66a6,6,0,0,1-2.46-.85,16,16,0,0,1-3.09-2.78,17.42,17.42,0,0,0-2.11-2,2.71,2.71,0,0,0-1.51-.51,1.73,1.73,0,0,0-1.27.44,1.87,1.87,0,0,0,0,2.46,2.39,2.39,0,0,0,1.55.52l-.25,2.47a4.08,4.08,0,0,1-2.93-1.38,4.65,4.65,0,0,1-.88-2.9,4.21,4.21,0,0,1,1-3,3.37,3.37,0,0,1,2.56-1.09,4.45,4.45,0,0,1,1.66.31,7.06,7.06,0,0,1,1.65,1,15.63,15.63,0,0,1,1.64,1.62c.71.78,1.19,1.27,1.42,1.48a4.56,4.56,0,0,0,.69.5Z"/><path class="cls-10" d="M459.46,337.3a3.51,3.51,0,0,1,1.33-2.92q1.59-1.26,5.25-1.26t5.25,1.27a3.5,3.5,0,0,1,1.32,2.91,3.7,3.7,0,0,1-1.44,3c-1,.76-2.68,1.15-5.16,1.15s-4.17-.42-5.24-1.27A3.54,3.54,0,0,1,459.46,337.3Zm2,0a1.23,1.23,0,0,0,.29.8,1.88,1.88,0,0,0,1,.55,14.25,14.25,0,0,0,3.23.25,14.41,14.41,0,0,0,3.12-.22,2.21,2.21,0,0,0,1.12-.58,1.23,1.23,0,0,0,.29-.8,1.27,1.27,0,0,0-.29-.8,2,2,0,0,0-1-.54,14,14,0,0,0-3.22-.26,14.23,14.23,0,0,0-3.12.23,2.3,2.3,0,0,0-1.13.58A1.22,1.22,0,0,0,461.5,337.3Z"/><path class="cls-10" d="M472.39,325.15v2.47h-9.3a8.57,8.57,0,0,1,1.87,3.19h-2.24a7,7,0,0,0-1.2-2.1,4.56,4.56,0,0,0-2.06-1.56v-2Z"/><path class="cls-10" d="M462,321.46h-2.3V313h1.8a13.1,13.1,0,0,0,2.95,2.13,17.35,17.35,0,0,0,4.09,1.65,15.36,15.36,0,0,0,3.87.55v2.39a16.71,16.71,0,0,1-5.45-1.11,18,18,0,0,1-5-2.78Z"/></g></g></g></g><g id="Group_5681-11" data-name="Group 5681"><g id="Group_5680-11" data-name="Group 5680"><g id="_25-11" data-name=" 25" class="cls-8"><g class="cls-8"><path class="cls-10" d="M510.39,373.15l.27,2.39a1.78,1.78,0,0,0-1.09.45,1.32,1.32,0,0,0-.35,1,1.61,1.61,0,0,0,.7,1.32,6,6,0,0,0,2.93.69,2.89,2.89,0,0,1-1.09-2.3,3.52,3.52,0,0,1,1.17-2.65,4.3,4.3,0,0,1,3-1.1,4.4,4.4,0,0,1,3.18,1.16,4.24,4.24,0,0,1-.32,6.19q-1.51,1.25-5,1.25c-2.36,0-4.07-.43-5.11-1.31a4.22,4.22,0,0,1-1.56-3.4,3.59,3.59,0,0,1,.82-2.43A3.82,3.82,0,0,1,510.39,373.15Zm5.39,5.59a2.81,2.81,0,0,0,1.86-.55,1.62,1.62,0,0,0,.66-1.26,1.45,1.45,0,0,0-.54-1.15,2.73,2.73,0,0,0-1.76-.45,2.81,2.81,0,0,0-1.84.49,1.59,1.59,0,0,0,0,2.43A2.43,2.43,0,0,0,515.78,378.74Z"/><path class="cls-10" d="M520.34,372.29,507,369.1v-1.85l13.32,3.22Z"/><path class="cls-10" d="M520.12,360.18v2.47h-9.3a8.65,8.65,0,0,1,1.87,3.19h-2.24a7.2,7.2,0,0,0-1.2-2.1,4.61,4.61,0,0,0-2.06-1.55v-2Z"/><path class="cls-10" d="M520.34,357.28,507,354.09v-1.85l13.32,3.22Z"/><path class="cls-10" d="M517.83,343.15h2.29v8.66a6,6,0,0,1-2.46-.85,16,16,0,0,1-3.09-2.78,17.42,17.42,0,0,0-2.11-2,2.71,2.71,0,0,0-1.51-.51,1.73,1.73,0,0,0-1.27.44,1.87,1.87,0,0,0,0,2.46,2.39,2.39,0,0,0,1.55.52l-.25,2.47a4.08,4.08,0,0,1-2.93-1.38,4.65,4.65,0,0,1-.88-2.9,4.21,4.21,0,0,1,1-3,3.37,3.37,0,0,1,2.56-1.09,4.45,4.45,0,0,1,1.66.31,7.06,7.06,0,0,1,1.65,1,15.63,15.63,0,0,1,1.64,1.62c.71.78,1.19,1.27,1.42,1.48a4.56,4.56,0,0,0,.69.5Z"/><path class="cls-10" d="M507.19,337.3a3.51,3.51,0,0,1,1.33-2.92q1.59-1.26,5.25-1.26t5.25,1.27a3.5,3.5,0,0,1,1.32,2.91,3.7,3.7,0,0,1-1.44,3c-1,.76-2.68,1.15-5.16,1.15s-4.17-.42-5.24-1.27A3.54,3.54,0,0,1,507.19,337.3Zm2,0a1.23,1.23,0,0,0,.29.8,1.88,1.88,0,0,0,1,.55,14.25,14.25,0,0,0,3.23.25,14.41,14.41,0,0,0,3.12-.22,2.21,2.21,0,0,0,1.12-.58,1.23,1.23,0,0,0,.29-.8,1.27,1.27,0,0,0-.29-.8,2,2,0,0,0-1-.54,14,14,0,0,0-3.22-.26,14.23,14.23,0,0,0-3.12.23,2.3,2.3,0,0,0-1.13.58A1.22,1.22,0,0,0,509.23,337.3Z"/><path class="cls-10" d="M520.12,325.15v2.47h-9.3a8.57,8.57,0,0,1,1.87,3.19h-2.24a7,7,0,0,0-1.2-2.1,4.56,4.56,0,0,0-2.06-1.56v-2Z"/><path class="cls-10" d="M517.14,321.4l-.26-2.39a1.69,1.69,0,0,0,1.08-.45,1.34,1.34,0,0,0,.35-1,1.59,1.59,0,0,0-.7-1.3,5.87,5.87,0,0,0-2.92-.68,2.93,2.93,0,0,1,1.08,2.32,3.5,3.5,0,0,1-1.17,2.63,4.29,4.29,0,0,1-3.05,1.1,4.36,4.36,0,0,1-3.16-1.16,4.23,4.23,0,0,1,.31-6.19c1-.83,2.68-1.25,5-1.25s4,.43,5.1,1.31a4.24,4.24,0,0,1,1.56,3.41,3.64,3.64,0,0,1-.8,2.44A3.87,3.87,0,0,1,517.14,321.4Zm-5.39-5.59a2.86,2.86,0,0,0-1.86.55,1.63,1.63,0,0,0-.66,1.27,1.42,1.42,0,0,0,.54,1.14,3.7,3.7,0,0,0,3.61,0,1.58,1.58,0,0,0,0-2.43A2.5,2.5,0,0,0,511.75,315.81Z"/></g></g></g></g><line id="Line_1068" data-name="Line 1068" class="cls-6" x1="210.88" y1="421.36" x2="224.88" y2="421.36"/><line id="Line_1069" data-name="Line 1069" class="cls-5" x1="12.19" y1="420.36" x2="26.19" y2="420.36"/><line id="Line_1104" data-name="Line 1104" class="cls-7" x1="366.31" y1="421.36" x2="380.31" y2="421.36"/><g id="ç’°çƒæ”¶æ¯å‚µåˆ¸æŒ‡æ•¸" class="cls-8"><g class="cls-8"><path class="cls-9" d="M39.47,427.55c-1.86.58-3.8,1.2-5.34,1.66l-.3-1.35c.66-.16,1.44-.39,2.3-.65v-5.62H34.27v-1.32h1.86v-4.44H34.07v-1.34h5.34v1.34h-2v4.44h1.74v1.32H37.45v5.24l1.86-.58Zm12.39-.93a27.1,27.1,0,0,1-2.78,1.54,8.07,8.07,0,0,0,3.42,1.9,4.12,4.12,0,0,0-.9,1.14,9,9,0,0,1-5.66-5.63,15.18,15.18,0,0,1-2.44,1.74v2.31l3.34-.76a6.6,6.6,0,0,0,0,1.09c-3.82,1-4.38,1.17-4.73,1.37a4,4,0,0,0-.52-1.1,1.27,1.27,0,0,0,.67-1.24v-1a18.41,18.41,0,0,1-2.17.89,4,4,0,0,0-.86-1,16.39,16.39,0,0,0,5.15-2.38h-3v-4.1h9.43v4.1H47.16a7.87,7.87,0,0,0,1.18,1.92,20.86,20.86,0,0,0,2.5-1.64Zm.22-6.37h-12V419h12ZM51.4,418H40.87v-4.2H51.4ZM44,414.91H42.14v2H44Zm-1.26,9.42H49.4v-1.88H42.76ZM47,414.91h-2v2h2Zm3.06,0h-2v2h2Z"/><path class="cls-9" d="M60.65,427.28c-2.22.69-4.58,1.43-6.38,2L54,427.87l2.62-.75v-5.51H54.33v-1.4h2.24v-4.34h-2.4v-1.4h6.1v1.4H58v4.34h2v1.4H58v5.08l2.46-.78ZM72,419.79a43.89,43.89,0,0,1-3.48,4.3,11.43,11.43,0,0,0,4.08,4.74,3.54,3.54,0,0,0-.94,1.12,12.64,12.64,0,0,1-4.62-6v5.6c0,.91-.24,1.33-.78,1.57a7.81,7.81,0,0,1-3,.32A6,6,0,0,0,62.7,430c1.16,0,2.18,0,2.48,0s.44-.12.44-.46v-4.72c-1.64,1.66-3.34,3.31-4.71,4.59L60,428.12c1.36-1.13,3.57-3.09,5.63-4.95V418H60.77v-1.38h4.85v-3.46h1.44v3.46H72.3V418H67.06v.72a24.82,24.82,0,0,0,1,4.18,29.27,29.27,0,0,0,2.68-3.78Zm-9.8-.58a15.89,15.89,0,0,1,2.18,3.7l-1.22.58a17.37,17.37,0,0,0-2.13-3.74Zm8.16-2.88a11.5,11.5,0,0,0-2.36-2.2l.86-.78a14.25,14.25,0,0,1,2.4,2.08Z"/><path class="cls-9" d="M79.69,413.43h1.47v18H79.69v-5.55c-3.64,1.34-4.22,1.62-4.6,1.95a6.25,6.25,0,0,0-.6-1.37,1.49,1.49,0,0,0,.68-1.34v-9.78h1.46v10.14l3.06-1Zm11.07,5a23,23,0,0,1-2.66,7.88,11.88,11.88,0,0,0,4.32,3.83,5,5,0,0,0-1,1.22,12.5,12.5,0,0,1-4.12-3.79,13.92,13.92,0,0,1-4.58,3.89,7.71,7.71,0,0,0-1-1.22,12.29,12.29,0,0,0,4.72-4,24.06,24.06,0,0,1-2.4-5.7,13.89,13.89,0,0,1-1.58,2.56,9.29,9.29,0,0,0-1.07-1.24c1.72-2,2.77-5.28,3.33-8.74l1.52.26c-.22,1.24-.52,2.46-.84,3.62h6.84v1.4Zm-5.94.3a25,25,0,0,0,2.42,6.2,21.24,21.24,0,0,0,2-6.5H84.94Z"/><path class="cls-9" d="M94.17,429.8a19.64,19.64,0,0,0,2-4.05l1.3.56a36.2,36.2,0,0,1-2,4.13Zm8.49-5.37H97.11V415h4.65a14.43,14.43,0,0,0,.75-2.06l1.73.3a14.46,14.46,0,0,1-.94,1.76h6v9.46h-6.48a15.57,15.57,0,0,1,2.68,3l-1.2.74a15.84,15.84,0,0,0-2.67-3.14Zm3.2,5.23c1.06,0,1.24-.3,1.34-2.33a3.81,3.81,0,0,0,1.38.57c-.2,2.54-.68,3.14-2.62,3.14h-4.57c-2.32,0-2.92-.42-2.92-2v-3.26H100V429c0,.54.22.64,1.52.64Zm-7.31-11.91h9.23v-1.6H98.55Zm0,2.74h9.23v-1.6H98.55Zm0,2.74h9.23v-1.6H98.55Zm11.19,2.2a15.28,15.28,0,0,1,2.28,4l-1.38.63a16.43,16.43,0,0,0-2.22-4Z"/><path class="cls-9" d="M119.89,413.57a28.54,28.54,0,0,1-2,4.1v13.67h-1.44V419.93a21.86,21.86,0,0,1-2.06,2.48,9.75,9.75,0,0,0-.84-1.42,22.28,22.28,0,0,0,4.94-7.84Zm5,15.21a17.15,17.15,0,0,1-4.71,2.6,7.8,7.8,0,0,0-1.16-1,14.49,14.49,0,0,0,4.47-2.1Zm7.42-10.45v1.08h-13v-1.08h5.81v-1.08h-4.41v-1h4.41v-1h-4.93v-1h4.93v-1.1h1.48v1.1h5.12v1h-5.12v1h4.6v1h-4.6v1.08ZM131,427.9H120.85v-7.51H131Zm-1.46-6.51h-7.26v1.22h7.26Zm0,2.1h-7.26v1.24h7.26Zm0,2.12h-7.26v1.26h7.26Zm-1.14,2.55a25.92,25.92,0,0,1,3.9,2.52l-1.32.82a27.21,27.21,0,0,0-3.9-2.71Z"/><path class="cls-9" d="M147,421.33a11.9,11.9,0,0,0,5.64,3.3,5.28,5.28,0,0,0-1,1.24,13.32,13.32,0,0,1-3.14-1.5v0c-.26,4.05-.54,5.63-1.1,6.21a1.81,1.81,0,0,1-1.32.58,20.91,20.91,0,0,1-2.68,0,3.36,3.36,0,0,0-.44-1.4,22.32,22.32,0,0,0,2.46.12,1,1,0,0,0,.74-.2c.36-.37.6-1.59.82-4.57h-4.84c-.55,3-1.91,5.13-6.13,6.29a4.41,4.41,0,0,0-.86-1.26c3.78-.92,5-2.65,5.46-5h-3.1v-.72a19.63,19.63,0,0,1-2.64,1.48,3.85,3.85,0,0,0-.94-1.22,15.28,15.28,0,0,0,4.88-3.3h-4.3V420H140a14.15,14.15,0,0,0,1.32-2h-5.56v-1.32h3.32a13.29,13.29,0,0,0-1.62-2.46l1.18-.6a13.54,13.54,0,0,1,1.74,2.5l-1.08.56h2.62a14.48,14.48,0,0,0,1-3.56l1.56.16a20.81,20.81,0,0,1-.9,3.4h2.38a20.47,20.47,0,0,0,1.92-3l1.36.46a22.12,22.12,0,0,1-1.8,2.54h3.22V418h-7.64a15.93,15.93,0,0,1-1.16,2h10.16v1.34Zm.66,2.4a11.06,11.06,0,0,1-2.34-2.4h-4.49a15.42,15.42,0,0,1-2.44,2.4Z"/><path class="cls-9" d="M161,423.09l-2.5.76v5.75c0,.86-.2,1.24-.72,1.5a7,7,0,0,1-2.64.26,5.59,5.59,0,0,0-.46-1.38h2c.28,0,.38-.08.38-.38v-5.29c-1,.28-1.9.56-2.7.8l-.44-1.46c.86-.22,2-.52,3.14-.86v-4.22h-2.84v-1.42H157v-4h1.46v4h2.26v1.42h-2.26v3.78c.76-.2,1.54-.44,2.3-.68Zm3.63-2.14c-2,0-2.59-.62-2.59-2.34v-5.42h1.47v2.4h8v1.3h-8v1.76c0,.74.22,1,1.1,1h5.24a14.36,14.36,0,0,0,2.2-.14c.06.4.12,1,.18,1.3a13.42,13.42,0,0,1-2.3.12Zm-2.57,1.7h9.37v8.65h-1.46v-.84h-6.48v.92H162Zm1.43,1.28v2h6.48v-2Zm6.48,5.31v-2.11h-6.48v2.11Z"/><path class="cls-9" d="M183,426.25a4.35,4.35,0,0,1-1.73,2.65,18.18,18.18,0,0,1,2.31,1.17l-1,.87a19.48,19.48,0,0,0-2.46-1.3,20.28,20.28,0,0,1-5.6,1.72,4.37,4.37,0,0,0-.62-1,21,21,0,0,0,4.82-1.33,23.19,23.19,0,0,0-3.08-1.09c.32-.41.68-.85,1-1.32l-2.36.11-.14-1.1c.9,0,2-.08,3.24-.12.3-.54.62-1.06.9-1.58H175v-3.26h3.78v-.82h-3.22v-2.16h-1.34v-1.14h1.34v-2h3.22v-1.4H180v1.4h3.41v2h1.36v1.14h-1.36v2.16H180v.82h3.89v3.26h-4.23a14.12,14.12,0,0,1-.84,1.5c1,0,2-.1,3-.16v-.94h1.23v.88l1-.06,0,1Zm-6.67-3.32h2.5v-1.24h-2.5Zm.56-7.38v1.06h1.94v-1.06Zm1.94,3.26v-1.2h-1.94v1.2Zm-.7,7.7c-.2.32-.42.62-.62.9.82.26,1.68.58,2.5.92a3.88,3.88,0,0,0,1.69-2Zm1.88-11v1.06h2.08v-1.06Zm2.08,3.26v-1.2H180v1.2ZM180,421.69v1.24h2.56v-1.24Zm10.89-3.42a28.73,28.73,0,0,1-1.82,7.66,9.84,9.84,0,0,0,3.38,4.17,4.6,4.6,0,0,0-.9,1.06,10,10,0,0,1-3.14-3.79,11.87,11.87,0,0,1-3.62,4.13,4.58,4.58,0,0,0-.82-1.12,10.42,10.42,0,0,0,3.76-4.51,27,27,0,0,1-1.46-5.28,13.24,13.24,0,0,1-1.06,2.2,11.65,11.65,0,0,0-1-.9c1.32-2.1,2.1-5.34,2.56-8.62l1.26.2c-.16,1.16-.38,2.34-.64,3.46h4.88v1.34Zm-3.84,0a33.44,33.44,0,0,0,1.34,5.92,28.23,28.23,0,0,0,1.16-5.92Z"/></g></g><g id="ç¾Žåœ‹å…¬å‚µæŒ‡æ•¸" class="cls-8"><g class="cls-8"><path class="cls-9" d="M249.12,421.83v1.32h-8.34c-.06.54-.14,1.06-.24,1.54h8.26V426h-8.62c-.94,2.75-3.09,4.45-8.33,5.35a5.3,5.3,0,0,0-.78-1.35c4.62-.66,6.58-1.94,7.48-4h-6.72v-1.3H239a11.74,11.74,0,0,0,.27-1.54h-7.85v-1.32h8v-1.68h-6.23v-1.3h6.23v-1.62h-7.33v-1.34h4.22a11.1,11.1,0,0,0-1.54-2.32l1.28-.52a9.82,9.82,0,0,1,1.76,2.52l-.72.32h5.27a22.39,22.39,0,0,0,1.72-2.84l1.52.46a27.38,27.38,0,0,1-1.6,2.38h4.26v1.34H240.9v1.62h6.4v1.3h-6.4v1.68Zm-8.18,4.38a50.15,50.15,0,0,1,8.16,4l-.7,1.28a47.45,47.45,0,0,0-8.1-4.15Z"/><path class="cls-9" d="M268.5,414v17.41H267v-.92H253.31v.92h-1.42V414ZM267,429.18V415.39H253.31v13.79Zm-6.78-3.05c-2.08.4-4.21.82-5.85,1.12l-.2-1.12c1.52-.24,3.74-.64,6-1Zm5-5.82a15.52,15.52,0,0,1-2.22,4.9c.42,1.06,1,1.74,1.62,1.84.28.08.48-.78.62-2.06a3.74,3.74,0,0,0,1,.66c-.26,2.18-.94,3-2,2.59a3.26,3.26,0,0,1-2.08-1.95,12.08,12.08,0,0,1-2.65,2.3,6.92,6.92,0,0,0-.88-.93,10.64,10.64,0,0,0,3-2.63,28.53,28.53,0,0,1-1.1-5.9h-6.13V418h6c-.06-.7-.12-1.4-.16-2.12h1.28c0,.72.08,1.42.12,2.12H266v1.12h-4.26a29.15,29.15,0,0,0,.74,4.6,13.76,13.76,0,0,0,1.48-3.68Zm-5.69.08v3.88h-4.42v-3.88Zm-1.08.94h-2.3v2h2.3Zm6.37-3.54a8.09,8.09,0,0,0-2.14-1.4l.7-.74a8.53,8.53,0,0,1,2.16,1.36Z"/><path class="cls-9" d="M278.18,414.21a26.78,26.78,0,0,1-5.87,8.5,11.11,11.11,0,0,0-1.32-1.2,20.82,20.82,0,0,0,5.56-7.8Zm5.62,9.5a62.09,62.09,0,0,1,4.48,6.73l-1.48.82c-.28-.56-.66-1.2-1.08-1.93-10.37.73-11.47.79-12.25,1.07a8.92,8.92,0,0,0-.58-1.58c.54-.12,1.12-.79,1.88-1.73a44.49,44.49,0,0,0,5.05-7.88l1.66.7a52.51,52.51,0,0,1-5.87,8.58l9.25-.52c-.78-1.24-1.68-2.54-2.48-3.6Zm.42-10.08a14.53,14.53,0,0,0,5.3,7.7,7.85,7.85,0,0,0-1.16,1.38,16.68,16.68,0,0,1-5.26-7.58h-3.72v-1.5Z"/><path class="cls-9" d="M296.89,413.57a28.54,28.54,0,0,1-2,4.1v13.67h-1.44V419.93a21.86,21.86,0,0,1-2.06,2.48,9.75,9.75,0,0,0-.84-1.42,22.28,22.28,0,0,0,4.94-7.84Zm5,15.21a17.15,17.15,0,0,1-4.71,2.6,7.8,7.8,0,0,0-1.16-1,14.49,14.49,0,0,0,4.47-2.1Zm7.42-10.45v1.08h-13v-1.08h5.81v-1.08h-4.41v-1h4.41v-1h-4.93v-1h4.93v-1.1h1.48v1.1h5.12v1h-5.12v1h4.6v1h-4.6v1.08ZM308,427.9H297.85v-7.51H308Zm-1.46-6.51h-7.26v1.22h7.26Zm0,2.1h-7.26v1.24h7.26Zm0,2.12h-7.26v1.26h7.26Zm-1.14,2.55a25.92,25.92,0,0,1,3.9,2.52l-1.32.82a27.21,27.21,0,0,0-3.9-2.71Z"/><path class="cls-9" d="M318,423.09l-2.5.76v5.75c0,.86-.2,1.24-.72,1.5a7,7,0,0,1-2.64.26,5.59,5.59,0,0,0-.46-1.38h2c.28,0,.38-.08.38-.38v-5.29c-1,.28-1.9.56-2.7.8l-.44-1.46c.86-.22,2-.52,3.14-.86v-4.22h-2.84v-1.42H314v-4h1.46v4h2.26v1.42h-2.26v3.78c.76-.2,1.54-.44,2.3-.68Zm3.63-2.14c-2,0-2.59-.62-2.59-2.34v-5.42h1.47v2.4h8v1.3h-8v1.76c0,.74.22,1,1.1,1h5.24a14.36,14.36,0,0,0,2.2-.14c.06.4.12,1,.18,1.3a13.42,13.42,0,0,1-2.3.12Zm-2.57,1.7h9.37v8.65h-1.46v-.84h-6.48v.92H319Zm1.43,1.28v2h6.48v-2Zm6.48,5.31v-2.11h-6.48v2.11Z"/><path class="cls-9" d="M340,426.25a4.35,4.35,0,0,1-1.73,2.65,18.18,18.18,0,0,1,2.31,1.17l-1,.87a19.48,19.48,0,0,0-2.46-1.3,20.28,20.28,0,0,1-5.6,1.72,4.37,4.37,0,0,0-.62-1,21,21,0,0,0,4.82-1.33,23.19,23.19,0,0,0-3.08-1.09c.32-.41.68-.85,1-1.32l-2.36.11-.14-1.1c.9,0,2-.08,3.24-.12.3-.54.62-1.06.9-1.58H332v-3.26h3.78v-.82h-3.22v-2.16h-1.34v-1.14h1.34v-2h3.22v-1.4H337v1.4h3.41v2h1.36v1.14h-1.36v2.16H337v.82h3.89v3.26h-4.23a14.12,14.12,0,0,1-.84,1.5c1,0,2-.1,3-.16v-.94h1.23v.88l1-.06,0,1Zm-6.67-3.32h2.5v-1.24h-2.5Zm.56-7.38v1.06h1.94v-1.06Zm1.94,3.26v-1.2h-1.94v1.2Zm-.7,7.7c-.2.32-.42.62-.62.9.82.26,1.68.58,2.5.92a3.88,3.88,0,0,0,1.69-2Zm1.88-11v1.06h2.08v-1.06Zm2.08,3.26v-1.2H337v1.2ZM337,421.69v1.24h2.56v-1.24Zm10.89-3.42a28.73,28.73,0,0,1-1.82,7.66,9.84,9.84,0,0,0,3.38,4.17,4.6,4.6,0,0,0-.9,1.06,10,10,0,0,1-3.14-3.79,11.87,11.87,0,0,1-3.62,4.13,4.58,4.58,0,0,0-.82-1.12,10.42,10.42,0,0,0,3.76-4.51,27,27,0,0,1-1.46-5.28,13.24,13.24,0,0,1-1.06,2.2,11.65,11.65,0,0,0-1-.9c1.32-2.1,2.1-5.34,2.56-8.62l1.26.2c-.16,1.16-.38,2.34-.64,3.46h4.88v1.34Zm-3.84,0a33.44,33.44,0,0,0,1.34,5.92,28.23,28.23,0,0,0,1.16-5.92Z"/></g></g><g id="ç¾Žåœ‹S_P500æŒ‡æ•¸" data-name="ç¾Žåœ‹S P500æŒ‡æ•¸" class="cls-8"><g class="cls-8"><path class="cls-9" d="M403.12,421.83v1.32h-8.34c-.06.54-.14,1.06-.24,1.54h8.26V426h-8.62c-.94,2.75-3.09,4.45-8.33,5.35a5.3,5.3,0,0,0-.78-1.35c4.62-.66,6.58-1.94,7.48-4h-6.72v-1.3H393a11.74,11.74,0,0,0,.27-1.54h-7.85v-1.32h8v-1.68h-6.23v-1.3h6.23v-1.62h-7.33v-1.34h4.22a11.1,11.1,0,0,0-1.54-2.32l1.28-.52a9.82,9.82,0,0,1,1.76,2.52l-.72.32h5.27a22.39,22.39,0,0,0,1.72-2.84l1.52.46a27.38,27.38,0,0,1-1.6,2.38h4.26v1.34H394.9v1.62h6.4v1.3h-6.4v1.68Zm-8.18,4.38a50.15,50.15,0,0,1,8.16,4l-.7,1.28a47.45,47.45,0,0,0-8.1-4.15Z"/><path class="cls-9" d="M422.5,414v17.41H421v-.92H407.31v.92h-1.42V414ZM421,429.18V415.39H407.31v13.79Zm-6.78-3.05c-2.08.4-4.21.82-5.85,1.12l-.2-1.12c1.52-.24,3.74-.64,6-1Zm5-5.82a15.52,15.52,0,0,1-2.22,4.9c.42,1.06,1,1.74,1.62,1.84.28.08.48-.78.62-2.06a3.74,3.74,0,0,0,1,.66c-.26,2.18-.94,3-2,2.59a3.26,3.26,0,0,1-2.08-1.95,12.08,12.08,0,0,1-2.65,2.3,6.92,6.92,0,0,0-.88-.93,10.64,10.64,0,0,0,3-2.63,28.53,28.53,0,0,1-1.1-5.9h-6.13V418h6c-.06-.7-.12-1.4-.16-2.12h1.28c0,.72.08,1.42.12,2.12H420v1.12h-4.26a29.15,29.15,0,0,0,.74,4.6,13.76,13.76,0,0,0,1.48-3.68Zm-5.69.08v3.88h-4.42v-3.88Zm-1.08.94h-2.3v2h2.3Zm6.37-3.54a8.09,8.09,0,0,0-2.14-1.4l.7-.74a8.53,8.53,0,0,1,2.16,1.36Z"/></g><g class="cls-8"><path class="cls-9" d="M425.13,427.94l1.1-1.27a5.72,5.72,0,0,0,4.06,1.82c1.92,0,3.09-1,3.09-2.4s-1.07-2-2.45-2.6l-2.12-.92c-1.36-.58-3-1.62-3-3.76s2-3.9,4.62-3.9a6,6,0,0,1,4.33,1.82l-1,1.18a4.79,4.79,0,0,0-3.35-1.38c-1.66,0-2.74.84-2.74,2.16s1.28,2,2.42,2.44l2.1.9c1.71.74,3,1.74,3,3.92s-1.92,4.17-5,4.17A7,7,0,0,1,425.13,427.94Z"/><path class="cls-9" d="M448.9,430.12a10.93,10.93,0,0,1-3.35-1.68,6.15,6.15,0,0,1-4.24,1.68c-2.66,0-4.46-1.71-4.46-4.07,0-2,1.38-3.2,2.88-4.24a7.79,7.79,0,0,1-1-3.42,3.31,3.31,0,0,1,3.38-3.48,2.7,2.7,0,0,1,2.88,2.9c0,1.92-1.68,3.16-3.3,4.34a17.87,17.87,0,0,0,3.72,4.14,12.51,12.51,0,0,0,2.08-4.34h1.69a16,16,0,0,1-2.56,5.25,8.85,8.85,0,0,0,2.74,1.39Zm-7.37-1.46a4.33,4.33,0,0,0,2.8-1.19,22.3,22.3,0,0,1-3.86-4.38c-1,.84-1.84,1.72-1.84,2.86A2.71,2.71,0,0,0,441.53,428.66Zm-.48-7.71c1.34-.9,2.5-1.8,2.5-3.1,0-.86-.4-1.62-1.4-1.62a1.89,1.89,0,0,0-1.8,2.12A6.11,6.11,0,0,0,441.05,421Z"/><path class="cls-9" d="M451.73,415.19h4.18c3.3,0,5.51,1.1,5.51,4.3S459.21,424,456,424h-2.42v5.83h-1.86Zm4,7.34c2.58,0,3.8-.94,3.8-3s-1.3-2.8-3.88-2.8h-2.1v5.84Z"/><path class="cls-9" d="M462.93,428.17l.9-1.2a4.79,4.79,0,0,0,3.6,1.62,3.16,3.16,0,0,0,3.12-3.46c0-2.1-1.2-3.34-3-3.34a4,4,0,0,0-2.44.86l-1-.6.46-6.86h7.14v1.56h-5.54l-.36,4.24a4.21,4.21,0,0,1,2.18-.58c2.44,0,4.42,1.44,4.42,4.66a4.77,4.77,0,0,1-4.8,5.05A6.2,6.2,0,0,1,462.93,428.17Z"/><path class="cls-9" d="M474.45,422.47c0-5.1,1.78-7.56,4.58-7.56s4.56,2.48,4.56,7.56-1.78,7.65-4.56,7.65S474.45,427.57,474.45,422.47Zm7.36,0c0-4.28-1.12-6.08-2.78-6.08s-2.8,1.8-2.8,6.08,1.12,6.19,2.8,6.19S481.81,426.79,481.81,422.47Z"/><path class="cls-9" d="M485.55,422.47c0-5.1,1.78-7.56,4.58-7.56s4.56,2.48,4.56,7.56-1.78,7.65-4.56,7.65S485.55,427.57,485.55,422.47Zm7.36,0c0-4.28-1.12-6.08-2.78-6.08s-2.8,1.8-2.8,6.08,1.12,6.19,2.8,6.19S492.91,426.79,492.91,422.47Z"/></g><g class="cls-8"><path class="cls-9" d="M503.43,423.09l-2.5.76v5.75c0,.86-.2,1.24-.72,1.5a7,7,0,0,1-2.64.26,5.59,5.59,0,0,0-.46-1.38h2c.28,0,.38-.08.38-.38v-5.29c-1,.28-1.9.56-2.7.8l-.44-1.46c.86-.22,2-.52,3.14-.86v-4.22h-2.84v-1.42h2.84v-4h1.46v4h2.26v1.42h-2.26v3.78c.76-.2,1.54-.44,2.3-.68Zm3.62-2.14c-2,0-2.58-.62-2.58-2.34v-5.42h1.46v2.4H514v1.3h-8.05v1.76c0,.74.22,1,1.1,1h5.25a14.36,14.36,0,0,0,2.2-.14c.06.4.12,1,.18,1.3a13.42,13.42,0,0,1-2.3.12Zm-2.56,1.7h9.37v8.65H512.4v-.84h-6.49v.92h-1.42Zm1.42,1.28v2h6.49v-2Zm6.49,5.31v-2.11h-6.49v2.11Z"/><path class="cls-9" d="M525.43,426.25a4.37,4.37,0,0,1-1.72,2.65,18.68,18.68,0,0,1,2.3,1.17l-1,.87a19.48,19.48,0,0,0-2.46-1.3,20.28,20.28,0,0,1-5.6,1.72,4.37,4.37,0,0,0-.62-1,21,21,0,0,0,4.82-1.33,23.19,23.19,0,0,0-3.08-1.09c.32-.41.68-.85,1-1.32l-2.36.11-.14-1.1c.9,0,2-.08,3.24-.12.3-.54.62-1.06.9-1.58h-3.26v-3.26h3.78v-.82h-3.22v-2.16h-1.34v-1.14h1.34v-2h3.22v-1.4h1.18v1.4h3.4v2h1.36v1.14h-1.36v2.16h-3.4v.82h3.88v3.26h-4.22a14.12,14.12,0,0,1-.84,1.5c1,0,2-.1,3-.16v-.94h1.22v.88l1-.06,0,1Zm-6.66-3.32h2.5v-1.24h-2.5Zm.56-7.38v1.06h1.94v-1.06Zm1.94,3.26v-1.2h-1.94v1.2Zm-.7,7.7c-.2.32-.42.62-.62.9.82.26,1.68.58,2.5.92a3.81,3.81,0,0,0,1.68-2Zm1.88-11v1.06h2.08v-1.06Zm2.08,3.26v-1.2h-2.08v1.2Zm-2.08,2.88v1.24H525v-1.24Zm10.89-3.42a28.73,28.73,0,0,1-1.82,7.66,9.84,9.84,0,0,0,3.38,4.17,4.6,4.6,0,0,0-.9,1.06,10,10,0,0,1-3.14-3.79,11.8,11.8,0,0,1-3.63,4.13,4.58,4.58,0,0,0-.82-1.12,10.44,10.44,0,0,0,3.77-4.51,25.66,25.66,0,0,1-1.46-5.28,14.08,14.08,0,0,1-1.07,2.2,11.65,11.65,0,0,0-1-.9c1.32-2.1,2.11-5.34,2.57-8.62l1.26.2c-.16,1.16-.38,2.34-.64,3.46h4.88v1.34Zm-3.85,0a34.33,34.33,0,0,0,1.35,5.92,28.23,28.23,0,0,0,1.16-5.92Z"/></g></g></svg>