<svg id="bg" xmlns="http://www.w3.org/2000/svg" viewBox="0 0 545 450"><defs><style>.cls-1{isolation:isolate;}.cls-2{fill:#333;}.cls-3,.cls-4,.cls-9{fill:none;}.cls-3{stroke:#d9d9d9;stroke-linejoin:round;}.cls-5{fill:#df536a;}.cls-6{fill:#00796d;}.cls-7{fill:#bae659;}.cls-8{fill:#002a5e;}.cls-9{stroke:#333;stroke-miterlimit:10;stroke-width:3px;}</style></defs><g id="Group_5699" data-name="Group 5699"><g id="Group_5698" data-name="Group 5698"><g id="Group-9"><g id="_25-2" data-name=" 25-2" class="cls-1"><g class="cls-1"><path class="cls-2" d="M19.9,86.83,18.32,87a3,3,0,0,0-.59-1.35,2.08,2.08,0,0,0-1.59-.68,2.17,2.17,0,0,0-1.32.42,3.58,3.58,0,0,0-1.18,1.59,8.22,8.22,0,0,0-.45,3,3.66,3.66,0,0,1,1.4-1.29,3.77,3.77,0,0,1,1.73-.42A3.6,3.6,0,0,1,19,89.36a4.2,4.2,0,0,1,1.12,3,5,5,0,0,1-.53,2.26,3.88,3.88,0,0,1-1.43,1.59,3.94,3.94,0,0,1-2.08.55,4,4,0,0,1-3.22-1.45c-.84-1-1.25-2.57-1.25-4.79,0-2.49.46-4.31,1.38-5.44a4,4,0,0,1,3.24-1.47,3.46,3.46,0,0,1,3.66,3.21Zm-6.46,5.55a3.62,3.62,0,0,0,.34,1.56,2.62,2.62,0,0,0,1,1.14,2.4,2.4,0,0,0,1.3.39,2.26,2.26,0,0,0,1.73-.8,3.2,3.2,0,0,0,.72-2.2,3,3,0,0,0-.71-2.11,2.37,2.37,0,0,0-1.8-.77,2.46,2.46,0,0,0-1.82.77A2.82,2.82,0,0,0,13.44,92.38Z"/><path class="cls-2" d="M21.75,90.2a11.93,11.93,0,0,1,.47-3.68,4.64,4.64,0,0,1,1.4-2.15A3.6,3.6,0,0,1,26,83.62a3.76,3.76,0,0,1,1.82.42,3.47,3.47,0,0,1,1.3,1.2,6.58,6.58,0,0,1,.8,1.91,13,13,0,0,1,.29,3,11.83,11.83,0,0,1-.47,3.66A4.58,4.58,0,0,1,28.3,96a3.57,3.57,0,0,1-2.35.76A3.52,3.52,0,0,1,23,95.44Q21.76,93.84,21.75,90.2Zm1.63,0c0,2.12.25,3.52.74,4.22a2.13,2.13,0,0,0,3.67,0c.49-.7.74-2.11.74-4.22s-.25-3.53-.74-4.23a2.23,2.23,0,0,0-1.85-1,2,2,0,0,0-1.74.92C23.65,86.64,23.38,88.09,23.38,90.2Z"/><path class="cls-2" d="M11.69,121.68l1.66-.14a2.92,2.92,0,0,0,.86,1.82,2.28,2.28,0,0,0,1.62.61,2.5,2.5,0,0,0,1.93-.86,3.21,3.21,0,0,0,.79-2.28,2.93,2.93,0,0,0-.76-2.14,2.66,2.66,0,0,0-2-.78,2.77,2.77,0,0,0-1.38.35,2.71,2.71,0,0,0-1,.9L12,119l1.25-6.61h6.4v1.51H14.48l-.69,3.46a4.17,4.17,0,0,1,2.43-.81,3.85,3.85,0,0,1,2.85,1.17,4.1,4.1,0,0,1,1.16,3,4.69,4.69,0,0,1-1,3,4.07,4.07,0,0,1-3.38,1.56,4.15,4.15,0,0,1-2.87-1A3.84,3.84,0,0,1,11.69,121.68Z"/><path class="cls-2" d="M21.75,118.7a11.93,11.93,0,0,1,.47-3.68,4.64,4.64,0,0,1,1.4-2.15,3.6,3.6,0,0,1,2.33-.75,3.76,3.76,0,0,1,1.82.42,3.47,3.47,0,0,1,1.3,1.2,6.58,6.58,0,0,1,.8,1.91,13,13,0,0,1,.29,3,11.83,11.83,0,0,1-.47,3.66,4.58,4.58,0,0,1-1.39,2.15,3.57,3.57,0,0,1-2.35.76A3.52,3.52,0,0,1,23,123.94Q21.76,122.34,21.75,118.7Zm1.63,0c0,2.12.25,3.52.74,4.22a2.13,2.13,0,0,0,3.67,0c.49-.7.74-2.11.74-4.22s-.25-3.53-.74-4.23a2.23,2.23,0,0,0-1.85-1,2,2,0,0,0-1.74.92C23.65,115.14,23.38,116.59,23.38,118.7Z"/><path class="cls-2" d="M16.76,153.55v-3.08H11.17V149l5.88-8.35h1.29V149h1.74v1.45H18.34v3.08Zm0-4.53v-5.81l-4,5.81Z"/><path class="cls-2" d="M21.75,147.2a11.93,11.93,0,0,1,.47-3.68,4.64,4.64,0,0,1,1.4-2.15,3.6,3.6,0,0,1,2.33-.75,3.76,3.76,0,0,1,1.82.42,3.47,3.47,0,0,1,1.3,1.2,6.58,6.58,0,0,1,.8,1.91,13,13,0,0,1,.29,3,11.83,11.83,0,0,1-.47,3.66A4.58,4.58,0,0,1,28.3,153a3.57,3.57,0,0,1-2.35.76A3.52,3.52,0,0,1,23,152.44Q21.76,150.84,21.75,147.2Zm1.63,0c0,2.12.25,3.52.74,4.22a2.13,2.13,0,0,0,3.67,0c.49-.7.74-2.11.74-4.22s-.25-3.53-.74-4.23a2.23,2.23,0,0,0-1.85-1,2,2,0,0,0-1.74.92C23.65,143.64,23.38,145.09,23.38,147.2Z"/><path class="cls-2" d="M11.7,178.65l1.58-.21a3.46,3.46,0,0,0,.93,1.94,2.24,2.24,0,0,0,1.59.59,2.55,2.55,0,0,0,1.89-.77,2.62,2.62,0,0,0,.77-1.92,2.4,2.4,0,0,0-.72-1.79,2.45,2.45,0,0,0-1.81-.71,4.36,4.36,0,0,0-1.11.18l.17-1.39h.26a3.28,3.28,0,0,0,1.82-.52,1.81,1.81,0,0,0,.81-1.63,1.93,1.93,0,0,0-.59-1.44,2.11,2.11,0,0,0-1.52-.57,2.14,2.14,0,0,0-1.54.58,2.89,2.89,0,0,0-.79,1.74l-1.59-.28A4.17,4.17,0,0,1,13.17,170a3.84,3.84,0,0,1,2.56-.87,4.23,4.23,0,0,1,1.94.45,3.22,3.22,0,0,1,1.83,2.9,2.73,2.73,0,0,1-.45,1.52,3.13,3.13,0,0,1-1.32,1.09,3,3,0,0,1,1.77,1.09,3.34,3.34,0,0,1,.63,2.08,3.81,3.81,0,0,1-1.23,2.86,4.32,4.32,0,0,1-3.11,1.17,4,4,0,0,1-2.81-1A3.85,3.85,0,0,1,11.7,178.65Z"/><path class="cls-2" d="M21.75,175.7a11.93,11.93,0,0,1,.47-3.68,4.64,4.64,0,0,1,1.4-2.15,3.6,3.6,0,0,1,2.33-.75,3.76,3.76,0,0,1,1.82.42,3.47,3.47,0,0,1,1.3,1.2,6.58,6.58,0,0,1,.8,1.91,13,13,0,0,1,.29,3,11.83,11.83,0,0,1-.47,3.66,4.58,4.58,0,0,1-1.39,2.15,3.57,3.57,0,0,1-2.35.76A3.52,3.52,0,0,1,23,180.94Q21.76,179.34,21.75,175.7Zm1.63,0c0,2.12.25,3.52.74,4.22a2.13,2.13,0,0,0,3.67,0c.49-.7.74-2.11.74-4.22s-.25-3.53-.74-4.23a2.23,2.23,0,0,0-1.85-1,2,2,0,0,0-1.74.92C23.65,172.14,23.38,173.59,23.38,175.7Z"/><path class="cls-2" d="M20,209v1.52H11.49a2.69,2.69,0,0,1,.18-1.09,5.82,5.82,0,0,1,1-1.72,17,17,0,0,1,2.07-2,17.59,17.59,0,0,0,2.84-2.73,3.27,3.27,0,0,0,.74-1.9,2.14,2.14,0,0,0-.67-1.59,2.44,2.44,0,0,0-1.76-.64,2.51,2.51,0,0,0-1.83.68,2.64,2.64,0,0,0-.69,1.9l-1.63-.17A4,4,0,0,1,13,198.57a4.32,4.32,0,0,1,2.93-.95,4.06,4.06,0,0,1,2.93,1A3.36,3.36,0,0,1,20,201.19a3.91,3.91,0,0,1-.31,1.53,6,6,0,0,1-1.05,1.57,25.25,25.25,0,0,1-2.44,2.27,24.36,24.36,0,0,0-1.83,1.62,5.53,5.53,0,0,0-.67.85Z"/><path class="cls-2" d="M21.75,204.2a11.93,11.93,0,0,1,.47-3.68,4.64,4.64,0,0,1,1.4-2.15,3.6,3.6,0,0,1,2.33-.75,3.76,3.76,0,0,1,1.82.42,3.47,3.47,0,0,1,1.3,1.2,6.58,6.58,0,0,1,.8,1.91,13,13,0,0,1,.29,3,11.83,11.83,0,0,1-.47,3.66A4.58,4.58,0,0,1,28.3,210a3.57,3.57,0,0,1-2.35.76A3.52,3.52,0,0,1,23,209.44Q21.76,207.84,21.75,204.2Zm1.63,0c0,2.12.25,3.52.74,4.22a2.13,2.13,0,0,0,3.67,0c.49-.7.74-2.11.74-4.22s-.25-3.53-.74-4.23a2.23,2.23,0,0,0-1.85-1,2,2,0,0,0-1.74.92C23.65,200.64,23.38,202.09,23.38,204.2Z"/><path class="cls-2" d="M17.65,239.05H16.06V229a7.88,7.88,0,0,1-1.49,1.09,10.14,10.14,0,0,1-1.67.82v-1.53a9.29,9.29,0,0,0,2.32-1.51,6.14,6.14,0,0,0,1.41-1.72h1Z"/><path class="cls-2" d="M21.75,232.7a11.93,11.93,0,0,1,.47-3.68,4.64,4.64,0,0,1,1.4-2.15,3.6,3.6,0,0,1,2.33-.75,3.76,3.76,0,0,1,1.82.42,3.47,3.47,0,0,1,1.3,1.2,6.58,6.58,0,0,1,.8,1.91,13,13,0,0,1,.29,3,11.83,11.83,0,0,1-.47,3.66,4.58,4.58,0,0,1-1.39,2.15,3.57,3.57,0,0,1-2.35.76A3.52,3.52,0,0,1,23,237.94Q21.76,236.34,21.75,232.7Zm1.63,0c0,2.12.25,3.52.74,4.22a2.13,2.13,0,0,0,3.67,0c.49-.7.74-2.11.74-4.22s-.25-3.53-.74-4.23a2.23,2.23,0,0,0-1.85-1,2,2,0,0,0-1.74.92C23.65,229.14,23.38,230.59,23.38,232.7Z"/><path class="cls-2" d="M21.75,261.2a11.93,11.93,0,0,1,.47-3.68,4.64,4.64,0,0,1,1.4-2.15,3.6,3.6,0,0,1,2.33-.75,3.76,3.76,0,0,1,1.82.42,3.47,3.47,0,0,1,1.3,1.2,6.58,6.58,0,0,1,.8,1.91,13,13,0,0,1,.29,3.05,11.83,11.83,0,0,1-.47,3.66A4.58,4.58,0,0,1,28.3,267a3.57,3.57,0,0,1-2.35.76A3.52,3.52,0,0,1,23,266.44Q21.76,264.84,21.75,261.2Zm1.63,0c0,2.12.25,3.52.74,4.22a2.13,2.13,0,0,0,3.67,0c.49-.7.74-2.11.74-4.22s-.25-3.53-.74-4.23a2.23,2.23,0,0,0-1.85-1,2,2,0,0,0-1.74.92C23.65,257.64,23.38,259.09,23.38,261.2Z"/><path class="cls-2" d="M5.46,292.19V290.6h4.86v1.59Z"/><path class="cls-2" d="M17.65,296.05H16.07V286a8.33,8.33,0,0,1-1.5,1.09,10.14,10.14,0,0,1-1.67.82v-1.53a9.29,9.29,0,0,0,2.32-1.51,6.14,6.14,0,0,0,1.41-1.72h1Z"/><path class="cls-2" d="M21.75,289.7a11.93,11.93,0,0,1,.47-3.68,4.64,4.64,0,0,1,1.4-2.15,3.6,3.6,0,0,1,2.33-.75,3.76,3.76,0,0,1,1.82.42,3.47,3.47,0,0,1,1.3,1.2,6.58,6.58,0,0,1,.8,1.91,13,13,0,0,1,.29,3.05,11.83,11.83,0,0,1-.47,3.66,4.58,4.58,0,0,1-1.39,2.15,3.57,3.57,0,0,1-2.35.76A3.52,3.52,0,0,1,23,294.94Q21.76,293.34,21.75,289.7Zm1.63,0c0,2.12.25,3.52.74,4.22a2.13,2.13,0,0,0,3.67,0c.49-.7.74-2.11.74-4.22s-.25-3.53-.74-4.23a2.23,2.23,0,0,0-1.85-1,2,2,0,0,0-1.74.92C23.65,286.14,23.38,287.59,23.38,289.7Z"/><path class="cls-2" d="M5.46,320.69V319.1h4.86v1.59Z"/><path class="cls-2" d="M20,323v1.52H11.49a2.69,2.69,0,0,1,.18-1.09,5.82,5.82,0,0,1,1-1.72,17,17,0,0,1,2.07-1.95,17.59,17.59,0,0,0,2.84-2.73,3.27,3.27,0,0,0,.74-1.9,2.11,2.11,0,0,0-.67-1.59,2.44,2.44,0,0,0-1.76-.64,2.47,2.47,0,0,0-1.82.68,2.61,2.61,0,0,0-.7,1.9l-1.63-.17A4.08,4.08,0,0,1,13,312.57a4.32,4.32,0,0,1,2.93-.95,4.06,4.06,0,0,1,2.93,1A3.36,3.36,0,0,1,20,315.19a3.92,3.92,0,0,1-.32,1.53,6,6,0,0,1-1.05,1.57,25.25,25.25,0,0,1-2.44,2.27,24.36,24.36,0,0,0-1.83,1.62,5.53,5.53,0,0,0-.67.85Z"/><path class="cls-2" d="M21.75,318.2a11.93,11.93,0,0,1,.47-3.68,4.64,4.64,0,0,1,1.4-2.15,3.6,3.6,0,0,1,2.33-.75,3.76,3.76,0,0,1,1.82.42,3.47,3.47,0,0,1,1.3,1.2,6.58,6.58,0,0,1,.8,1.91,13,13,0,0,1,.29,3.05,11.83,11.83,0,0,1-.47,3.66A4.58,4.58,0,0,1,28.3,324a3.57,3.57,0,0,1-2.35.76A3.52,3.52,0,0,1,23,323.44Q21.76,321.84,21.75,318.2Zm1.63,0c0,2.12.25,3.52.74,4.22a2.13,2.13,0,0,0,3.67,0c.49-.7.74-2.11.74-4.22s-.25-3.53-.74-4.23a2.23,2.23,0,0,0-1.85-1,2,2,0,0,0-1.74.92C23.65,314.64,23.38,316.09,23.38,318.2Z"/></g></g></g></g></g><g id="Group_5703" data-name="Group 5703"><g id="Group_5702" data-name="Group 5702"><g id="Group-11"><g id="_30" data-name=" 30" class="cls-1"><g class="cls-1"><path class="cls-2" d="M11,70.15a15.74,15.74,0,0,1-2.22-3.87,12.21,12.21,0,0,1-.23-8.59A17,17,0,0,1,11,53.26h1.13q-1.07,1.83-1.41,2.61a15.32,15.32,0,0,0-.84,2.53,14.88,14.88,0,0,0-.38,3.31,15.88,15.88,0,0,0,2.63,8.44Z"/><path class="cls-2" d="M13.91,56.57a3.84,3.84,0,0,1,.7-2.34,2.3,2.3,0,0,1,2-1,2.61,2.61,0,0,1,2,.87,4.42,4.42,0,0,1,0,5.06,2.58,2.58,0,0,1-2,.88,2.51,2.51,0,0,1-2-.87A3.84,3.84,0,0,1,13.91,56.57Zm2.75-2.22a1.19,1.19,0,0,0-1,.51,3.23,3.23,0,0,0-.39,1.87,2.87,2.87,0,0,0,.4,1.75,1.2,1.2,0,0,0,2,0A3.21,3.21,0,0,0,18,56.61a3,3,0,0,0-.39-1.76A1.24,1.24,0,0,0,16.66,54.35Zm0,12.49,7-13.58H25L18,66.84Zm5.57-3.5a3.85,3.85,0,0,1,.7-2.35,2.33,2.33,0,0,1,2-1,2.63,2.63,0,0,1,2,.86A4.44,4.44,0,0,1,27,66a2.62,2.62,0,0,1-2,.88A2.49,2.49,0,0,1,23,66,3.82,3.82,0,0,1,22.24,63.34ZM25,61.12a1.21,1.21,0,0,0-1,.51,3.23,3.23,0,0,0-.39,1.87,2.93,2.93,0,0,0,.4,1.74,1.19,1.19,0,0,0,1,.51,1.2,1.2,0,0,0,1-.51,3.21,3.21,0,0,0,.39-1.86A3,3,0,0,0,26,61.62,1.23,1.23,0,0,0,25,61.12Z"/><path class="cls-2" d="M31.15,70.15H30a15.79,15.79,0,0,0,2.63-8.44,13.93,13.93,0,0,0-.38-3.28,13.39,13.39,0,0,0-.83-2.53A28.64,28.64,0,0,0,30,53.26h1.14a17,17,0,0,1,2.44,4.43,12.06,12.06,0,0,1-.23,8.59A16.38,16.38,0,0,1,31.15,70.15Z"/></g></g></g></g></g><path class="cls-3" d="M41.59,316.55H535.05"/><path class="cls-3" d="M41.59,203.05H535.05"/><path class="cls-3" d="M41.59,231.43H535.05"/><path class="cls-3" d="M41.59,146.3H535.05"/><path class="cls-3" d="M41.59,89.55H535.05"/><path class="cls-3" d="M41.59,117.93H535.05"/><path class="cls-3" d="M41.59,174.68H535.05"/><path class="cls-3" d="M41.59,288.18H535.05"/><path class="cls-4" d="M84.44,260.05h-16v-2a1.94,1.94,0,0,1,1.88-2H82.55a2,2,0,0,1,1.89,2Z"/><path class="cls-5" d="M84.44,260.05h-16v-2a1.94,1.94,0,0,1,1.88-2H82.55a2,2,0,0,1,1.89,2Z"/><path class="cls-4" d="M162.6,260.05h-16v-17a1.94,1.94,0,0,1,1.88-2h12.25a1.94,1.94,0,0,1,1.88,2Z"/><path class="cls-5" d="M162.6,260.05h-16v-17a1.94,1.94,0,0,1,1.88-2h12.25a1.94,1.94,0,0,1,1.88,2Z"/><path class="cls-4" d="M239.82,260.05h-16v-26a1.94,1.94,0,0,1,1.88-2h12.25a1.94,1.94,0,0,1,1.88,2Z"/><path class="cls-5" d="M239.82,260.05h-16v-26a1.94,1.94,0,0,1,1.88-2h12.25a1.94,1.94,0,0,1,1.88,2Z"/><path class="cls-4" d="M318,260.05H302v-80a2,2,0,0,1,1.89-2H316.1a1.94,1.94,0,0,1,1.88,2Z"/><path class="cls-5" d="M318,260.05H302v-80a2,2,0,0,1,1.89-2H316.1a1.94,1.94,0,0,1,1.88,2Z"/><path class="cls-4" d="M395.21,260.05h-16v-126a1.94,1.94,0,0,1,1.88-2h12.24a2,2,0,0,1,1.89,2Z"/><path class="cls-5" d="M395.21,260.05h-16v-126a1.94,1.94,0,0,1,1.88-2h12.24a2,2,0,0,1,1.89,2Z"/><path class="cls-4" d="M473.37,260.05h-16v-141a1.94,1.94,0,0,1,1.88-2h12.24a2,2,0,0,1,1.89,2Z"/><path class="cls-5" d="M473.37,260.05h-16v-141a1.94,1.94,0,0,1,1.88-2h12.24a2,2,0,0,1,1.89,2Z"/><path class="cls-4" d="M101.39,260.05h-16v-13a1.94,1.94,0,0,1,1.88-2H99.5a2,2,0,0,1,1.89,2Z"/><path class="cls-6" d="M101.39,260.05h-16v-13a1.94,1.94,0,0,1,1.88-2H99.5a2,2,0,0,1,1.89,2Z"/><path class="cls-4" d="M179.55,260.05h-16v-14a1.94,1.94,0,0,1,1.88-2h12.25a1.94,1.94,0,0,1,1.88,2Z"/><path class="cls-6" d="M179.55,260.05h-16v-14a1.94,1.94,0,0,1,1.88-2h12.25a1.94,1.94,0,0,1,1.88,2Z"/><path class="cls-4" d="M256.77,260.05h-16v-14a2,2,0,0,1,1.89-2h12.24a1.94,1.94,0,0,1,1.88,2Z"/><path class="cls-6" d="M256.77,260.05h-16v-14a2,2,0,0,1,1.89-2h12.24a1.94,1.94,0,0,1,1.88,2Z"/><path class="cls-4" d="M334.93,260.05h-16v-16a1.94,1.94,0,0,1,1.88-2h12.24a1.94,1.94,0,0,1,1.88,2Z"/><path class="cls-6" d="M334.93,260.05h-16v-16a1.94,1.94,0,0,1,1.88-2h12.24a1.94,1.94,0,0,1,1.88,2Z"/><path class="cls-4" d="M412.16,260.05h-16v-38a1.94,1.94,0,0,1,1.88-2h12.24a2,2,0,0,1,1.89,2Z"/><path class="cls-6" d="M412.16,260.05h-16v-38a1.94,1.94,0,0,1,1.88-2h12.24a2,2,0,0,1,1.89,2Z"/><path class="cls-4" d="M490.32,260.05h-16v-55a1.94,1.94,0,0,1,1.88-2h12.25a1.94,1.94,0,0,1,1.88,2Z"/><path class="cls-6" d="M490.32,260.05h-16v-55a1.94,1.94,0,0,1,1.88-2h12.25a1.94,1.94,0,0,1,1.88,2Z"/><path class="cls-4" d="M118.34,260.05h-16v18a1.94,1.94,0,0,0,1.88,2h12.24a2,2,0,0,0,1.89-2Z"/><path class="cls-7" d="M118.34,260.05h-16v18a1.94,1.94,0,0,0,1.88,2h12.24a2,2,0,0,0,1.89-2Z"/><path class="cls-4" d="M196.5,260.05h-16v38a2,2,0,0,0,1.89,2h12.24a1.94,1.94,0,0,0,1.88-2Z"/><path class="cls-7" d="M196.5,260.05h-16v38a2,2,0,0,0,1.89,2h12.24a1.94,1.94,0,0,0,1.88-2Z"/><path class="cls-4" d="M273.72,260.05h-16v23a2,2,0,0,0,1.89,2h12.24a1.94,1.94,0,0,0,1.88-2Z"/><path class="cls-7" d="M273.72,260.05h-16v23a2,2,0,0,0,1.89,2h12.24a1.94,1.94,0,0,0,1.88-2Z"/><path class="cls-4" d="M351.89,260.05h-16v-24a1.94,1.94,0,0,1,1.88-2H350a2,2,0,0,1,1.89,2Z"/><path class="cls-7" d="M351.89,260.05h-16v-24a1.94,1.94,0,0,1,1.88-2H350a2,2,0,0,1,1.89,2Z"/><path class="cls-4" d="M429.11,260.05h-16v-72a1.94,1.94,0,0,1,1.88-2h12.24a2,2,0,0,1,1.89,2Z"/><path class="cls-7" d="M429.11,260.05h-16v-72a1.94,1.94,0,0,1,1.88-2h12.24a2,2,0,0,1,1.89,2Z"/><path class="cls-4" d="M507.27,260.05h-16v-99a1.94,1.94,0,0,1,1.88-2h12.25a1.94,1.94,0,0,1,1.88,2Z"/><path class="cls-7" d="M507.27,260.05h-16v-99a1.94,1.94,0,0,1,1.88-2h12.25a1.94,1.94,0,0,1,1.88,2Z"/><path class="cls-8" d="M80.8,336.91v1.72H64.32v-1.72Zm18.6,9.77v-.55h-9V347H89.08V330.27h11.64v16.41Zm-11.88.39H86v-9.61a11.27,11.27,0,0,1-1.49,2l-1-1.33q2.66-3.12,3.59-8.91l1.64.63c.21.21.13.34-.23.39a31.35,31.35,0,0,1-1.17,4.37c.62.06.7.24.23.55Zm5.7-8.29v2.5h3.52v-2.5Zm-2.81-7v12.89h9V331.75Zm5.24,2.58h3v1.49h-3v1.71h2.42v5.63H96.74v-.63H93.22v.94H91.9v-5.94h2.18v-1.71H91.19v-1.49h2.89v-2h1.49c.41.05.44.21.08.47ZM116.9,341h-7.43q0,3.36-3.43,6.33l-1.33-1.48a6.76,6.76,0,0,0,3.2-6.1v-9.53h10.55v15.39c0,.83-.44,1.25-1.33,1.25h-1.88l-.31-1.72h1.64a.28.28,0,0,0,.32-.31Zm-7.43-1.72h7.43v-2.81h-7.43Zm0-4.53h7.43v-2.81h-7.43Z"/><path class="cls-8" d="M160.15,331.36v1.72h-14v-1.72ZM159.06,339H147.19V337.3h11.87Zm-14.37,4.61h16.87v1.72H144.69Zm35.07,3.05v-.55h-9V347h-1.33V330.27h11.64v16.41Zm-11.87.39h-1.56v-9.61a11.77,11.77,0,0,1-1.49,2l-1-1.33q2.65-3.12,3.59-8.91l1.64.63c.21.21.13.34-.23.39a30.21,30.21,0,0,1-1.18,4.37c.63.06.71.24.24.55Zm5.7-8.29v2.5h3.52v-2.5Zm-2.81-7v12.89h9V331.75Zm5.23,2.58h3v1.49h-3v1.71h2.43v5.63h-1.33v-.63h-3.52v.94h-1.33v-5.94h2.19v-1.71h-2.89v-1.49h2.89v-2h1.49c.41.05.44.21.07.47ZM197.26,341h-7.42c0,2.24-1.14,4.35-3.44,6.33l-1.32-1.48a6.76,6.76,0,0,0,3.2-6.1v-9.53h10.55v15.39c0,.83-.45,1.25-1.33,1.25h-1.88l-.31-1.72H197a.27.27,0,0,0,.31-.31Zm-7.42-1.72h7.42v-2.81h-7.42Zm0-4.53h7.42v-2.81h-7.42Z"/><path class="cls-8" d="M227.67,338.08q-2.43,6.48-6.1,8.52l-1.09-1.72q3.83-2.26,5.63-8l1.79.78C228.11,337.9,228,338,227.67,338.08Zm4.84-1.09q2.34,5.24,5.94,7.42l-1,1.87a17.06,17.06,0,0,1-6.48-8.67Zm-2.19-7c.63.11.66.32.08.63v3H238v1.72H221.11v-1.72h7.5V330Zm25.79,16.65v-.55h-9V347h-1.33V330.27h11.64v16.41Zm-11.88.39h-1.56v-9.61a11.27,11.27,0,0,1-1.49,2l-1-1.33q2.66-3.12,3.59-8.91l1.64.63c.21.21.13.34-.23.39a31.35,31.35,0,0,1-1.17,4.37c.62.06.7.24.23.55Zm5.7-8.29v2.5h3.52v-2.5Zm-2.81-7v12.89h9V331.75Zm5.24,2.58h3v1.49h-3v1.71h2.42v5.63h-1.33v-.63h-3.52v.94h-1.32v-5.94h2.18v-1.71H247.9v-1.49h2.89v-2h1.49c.41.05.44.21.08.47ZM273.61,341h-7.43q0,3.36-3.43,6.33l-1.33-1.48a6.76,6.76,0,0,0,3.2-6.1v-9.53h10.55v15.39c0,.83-.44,1.25-1.33,1.25H272l-.32-1.72h1.64a.28.28,0,0,0,.32-.31Zm-7.43-1.72h7.43v-2.81h-7.43Zm0-4.53h7.43v-2.81h-7.43Z"/><path class="cls-8" d="M324.13,336.91v1.72H307.64v-1.72Zm8.2-3.59a14.73,14.73,0,0,1-3.67,4.29l-1.1-1.4a11.81,11.81,0,0,0,4.38-6.8l1.8.47c.2.21.13.34-.24.39l-.62,1.56h11v1.49h-5.7V336h4.69v1.49h-4.69V341h6.56v1.49h-6.56v4.68h-1.56v-4.68h-9V341h3.52v-5h5.47v-2.65Zm.39,7.65h3.91v-3.51h-3.91Z"/><path class="cls-8" d="M399,332.07v1.71H386.14v-1.71Zm1.95,10.62v1.72H384v-1.72Zm7.89-9.37a14.73,14.73,0,0,1-3.67,4.29l-1.09-1.4a11.84,11.84,0,0,0,4.37-6.8l1.8.47c.21.21.13.34-.23.39l-.63,1.56h11v1.49h-5.71V336h4.69v1.49h-4.69V341h6.57v1.49h-6.57v4.68h-1.56v-4.68h-9V341h3.51v-5h5.47v-2.65Zm.39,7.65h3.91v-3.51h-3.91Z"/><path class="cls-8" d="M480.11,331.36v1.72h-14v-1.72ZM479,339H467.15V337.3H479Zm-14.37,4.61h16.87v1.72H464.65Zm24.68-10.31a14.73,14.73,0,0,1-3.67,4.29l-1.09-1.4a11.84,11.84,0,0,0,4.37-6.8l1.8.47c.21.21.13.34-.23.39l-.63,1.56h11v1.49h-5.71V336h4.69v1.49h-4.69V341h6.57v1.49h-6.57v4.68h-1.56v-4.68h-9V341h3.51v-5h5.47v-2.65Zm.39,7.65h3.91v-3.51h-3.91Z"/><path class="cls-9" d="M41.59,259.8H535.05"/><g id="環球收息債券指數" class="cls-1"><g class="cls-1"><path class="cls-2" d="M33.16,425.06c-1.86.58-3.8,1.2-5.34,1.66l-.31-1.36c.67-.16,1.45-.38,2.31-.64V419.1H28v-1.32h1.87v-4.44H27.76V412H33.1v1.34h-2v4.44h1.74v1.32H31.14v5.24l1.86-.58Zm12.38-.94a27.1,27.1,0,0,1-2.78,1.54,8.07,8.07,0,0,0,3.42,1.9,4.12,4.12,0,0,0-.9,1.14,9,9,0,0,1-5.66-5.62,15.18,15.18,0,0,1-2.44,1.74v2.3l3.34-.76a6.72,6.72,0,0,0,0,1.1c-3.82,1-4.38,1.16-4.72,1.36a4.27,4.27,0,0,0-.52-1.1,1.26,1.26,0,0,0,.66-1.24v-1a17.52,17.52,0,0,1-2.16.88,4.17,4.17,0,0,0-.86-1A16.34,16.34,0,0,0,38.06,423h-3v-4.1H44.5V423H40.84A7.87,7.87,0,0,0,42,424.88a20.86,20.86,0,0,0,2.5-1.64Zm.22-6.36h-12v-1.22h12Zm-.68-2.22H34.56v-4.2H45.08Zm-7.38-3.12H35.82v2H37.7Zm-1.26,9.42h6.64V420H36.44Zm4.28-9.42h-2v2h2Zm3.06,0h-2v2h2Z"/><path class="cls-2" d="M54.34,424.78c-2.22.7-4.58,1.44-6.39,2l-.31-1.44,2.62-.76v-5.5H48v-1.4h2.25v-4.34H47.85V412H54v1.4h-2.3v4.34h2v1.4h-2v5.08l2.46-.78ZM65.7,417.3a43.89,43.89,0,0,1-3.48,4.3,11.43,11.43,0,0,0,4.08,4.74,3.43,3.43,0,0,0-.94,1.12,12.64,12.64,0,0,1-4.62-6V427c0,.9-.24,1.32-.78,1.56a7.81,7.81,0,0,1-3,.32,6,6,0,0,0-.54-1.44c1.16,0,2.18,0,2.48,0s.44-.12.44-.46v-4.72c-1.64,1.66-3.34,3.3-4.7,4.58l-.92-1.28c1.36-1.12,3.56-3.08,5.62-4.94v-5.2H54.46V414.1H59.3v-3.46h1.44v3.46H66v1.38H60.74v.72a24.82,24.82,0,0,0,1,4.18,29.27,29.27,0,0,0,2.68-3.78Zm-9.8-.58a15.89,15.89,0,0,1,2.18,3.7l-1.22.58a17.29,17.29,0,0,0-2.12-3.74Zm8.16-2.88a11.5,11.5,0,0,0-2.36-2.2l.86-.78a14.25,14.25,0,0,1,2.4,2.08Z"/><path class="cls-2" d="M73.38,410.94h1.46v18H73.38v-5.54c-3.64,1.34-4.22,1.62-4.6,1.94a6.39,6.39,0,0,0-.6-1.36,1.49,1.49,0,0,0,.68-1.34v-9.78h1.46V423l3.06-1Zm11.06,5a23,23,0,0,1-2.66,7.88,11.76,11.76,0,0,0,4.32,3.82,5,5,0,0,0-1,1.22A12.57,12.57,0,0,1,81,425a14,14,0,0,1-4.58,3.88,6.72,6.72,0,0,0-1-1.22,12.26,12.26,0,0,0,4.72-4,24.06,24.06,0,0,1-2.4-5.7,13.89,13.89,0,0,1-1.58,2.56,10,10,0,0,0-1.06-1.24c1.72-2,2.76-5.28,3.32-8.74l1.52.26c-.22,1.24-.52,2.46-.84,3.62h6.84v1.4Zm-5.94.3a25,25,0,0,0,2.42,6.2,21.24,21.24,0,0,0,2-6.5H78.62Z"/><path class="cls-2" d="M87.85,427.3a19.12,19.12,0,0,0,2-4l1.3.56a35.27,35.27,0,0,1-2,4.12Zm8.49-5.36H90.8v-9.46h4.64a14.54,14.54,0,0,0,.76-2.06l1.72.3a14.46,14.46,0,0,1-.94,1.76h6v9.46H96.46a15.57,15.57,0,0,1,2.68,3l-1.2.74a15.76,15.76,0,0,0-2.66-3.14Zm3.2,5.22c1.06,0,1.24-.3,1.34-2.32a3.79,3.79,0,0,0,1.38.56c-.2,2.54-.68,3.14-2.62,3.14H95.08c-2.32,0-2.92-.42-2.92-2v-3.26h1.48v3.24c0,.54.22.64,1.52.64Zm-7.3-11.9h9.22v-1.6H92.24Zm0,2.74h9.22v-1.6H92.24Zm0,2.74h9.22v-1.6H92.24Zm11.18,2.2a15.4,15.4,0,0,1,2.28,4l-1.38.64a16.08,16.08,0,0,0-2.22-4Z"/><path class="cls-2" d="M113.58,411.08a28.54,28.54,0,0,1-2,4.1v13.66h-1.44v-11.4a21.86,21.86,0,0,1-2.06,2.48,10.86,10.86,0,0,0-.85-1.42,22.16,22.16,0,0,0,5-7.84Zm5,15.2a17.24,17.24,0,0,1-4.7,2.6,8.39,8.39,0,0,0-1.16-1,14.21,14.21,0,0,0,4.46-2.1ZM126,415.84v1.08H113v-1.08h5.8v-1.08h-4.4v-1h4.4v-1h-4.92v-1h4.92v-1.1h1.48v1.1h5.12v1h-5.12v1h4.6v1h-4.6v1.08Zm-1.3,9.56H114.54v-7.5h10.14Zm-1.46-6.5H116v1.22h7.26Zm0,2.1H116v1.24h7.26Zm0,2.12H116v1.26h7.26Zm-1.14,2.54a27.58,27.58,0,0,1,3.9,2.52l-1.32.82a27.23,27.23,0,0,0-3.9-2.7Z"/><path class="cls-2" d="M140.64,418.84a11.9,11.9,0,0,0,5.64,3.3,5.28,5.28,0,0,0-1,1.24,13.32,13.32,0,0,1-3.14-1.5v0c-.26,4-.54,5.62-1.1,6.2a1.81,1.81,0,0,1-1.32.58,20.91,20.91,0,0,1-2.68,0,3.36,3.36,0,0,0-.44-1.4,22.32,22.32,0,0,0,2.46.12,1,1,0,0,0,.74-.2c.36-.36.6-1.58.82-4.56h-4.84c-.54,3-1.9,5.12-6.12,6.28a4.41,4.41,0,0,0-.86-1.26c3.78-.92,5-2.64,5.46-5h-3.1v-.72a19.16,19.16,0,0,1-2.65,1.48,3.82,3.82,0,0,0-.93-1.22,15.28,15.28,0,0,0,4.88-3.3h-4.3V417.5h5.46a14.15,14.15,0,0,0,1.32-2h-5.56v-1.32h3.32a13.29,13.29,0,0,0-1.62-2.46l1.18-.6a13.54,13.54,0,0,1,1.74,2.5l-1.08.56h2.62a14.9,14.9,0,0,0,.94-3.56l1.56.16a20.81,20.81,0,0,1-.9,3.4h2.38a20.47,20.47,0,0,0,1.92-3l1.36.46a22.12,22.12,0,0,1-1.8,2.54h3.22v1.32h-7.64a14.82,14.82,0,0,1-1.16,2h10.16v1.34Zm.66,2.4a11.06,11.06,0,0,1-2.34-2.4h-4.48a15.42,15.42,0,0,1-2.44,2.4Z"/><path class="cls-2" d="M154.64,420.6l-2.5.76v5.74c0,.86-.2,1.24-.72,1.5a7,7,0,0,1-2.64.26,6,6,0,0,0-.46-1.38c.9,0,1.74,0,2,0s.38-.08.38-.38v-5.28l-2.71.8-.44-1.46c.87-.22,2-.52,3.15-.86v-4.22h-2.85v-1.42h2.85v-4h1.46v4h2.26v1.42h-2.26v3.78c.76-.2,1.54-.44,2.3-.68Zm3.62-2.14c-2,0-2.58-.62-2.58-2.34V410.7h1.46v2.4h8v1.3h-8v1.76c0,.74.22,1,1.1,1h5.24a14.36,14.36,0,0,0,2.2-.14c.06.4.12,1,.18,1.3a13.42,13.42,0,0,1-2.3.12Zm-2.56,1.7h9.36v8.64H163.6V428h-6.48v.92H155.7Zm1.42,1.28v2h6.48v-2Zm6.48,5.3v-2.1h-6.48v2.1Z"/><path class="cls-2" d="M176.64,423.76a4.33,4.33,0,0,1-1.72,2.64,18.6,18.6,0,0,1,2.3,1.18l-1,.86a22.48,22.48,0,0,0-2.46-1.3,20.28,20.28,0,0,1-5.6,1.72,4.41,4.41,0,0,0-.63-1,20.49,20.49,0,0,0,4.83-1.32,24.79,24.79,0,0,0-3.08-1.1c.32-.4.68-.84,1-1.32l-2.37.12-.13-1.1c.9,0,2-.08,3.24-.12.3-.54.62-1.06.9-1.58H168.7v-3.26h3.78v-.82h-3.22V415.2h-1.35v-1.14h1.35v-2h3.22v-1.4h1.18V412h3.4v2h1.36v1.14h-1.36v2.16h-3.4v.82h3.88v3.26h-4.22a14.12,14.12,0,0,1-.84,1.5c1,0,2-.1,3-.16v-.94h1.22v.88l1-.06,0,1ZM170,420.44h2.5V419.2H170Zm.56-7.38v1.06h1.94v-1.06Zm1.94,3.26v-1.2h-1.94v1.2Zm-.7,7.7c-.2.32-.42.62-.62.9.82.26,1.68.58,2.5.92a3.85,3.85,0,0,0,1.68-2Zm1.88-11v1.06h2.08v-1.06Zm2.08,3.26v-1.2h-2.08v1.2Zm-2.08,2.88v1.24h2.56V419.2Zm10.88-3.42a28.73,28.73,0,0,1-1.82,7.66,9.87,9.87,0,0,0,3.38,4.16,4.6,4.6,0,0,0-.9,1.06,10,10,0,0,1-3.14-3.78,11.92,11.92,0,0,1-3.62,4.12,4.58,4.58,0,0,0-.82-1.12,10.34,10.34,0,0,0,3.76-4.5,27,27,0,0,1-1.46-5.28,13.24,13.24,0,0,1-1.06,2.2,11.65,11.65,0,0,0-1-.9c1.32-2.1,2.1-5.34,2.56-8.62l1.26.2c-.16,1.16-.38,2.34-.64,3.46h4.88v1.34Zm-3.84,0A33.44,33.44,0,0,0,182,421.7a28.23,28.23,0,0,0,1.16-5.92Z"/></g></g><g id="美國公債指數" class="cls-1"><g class="cls-1"><path class="cls-2" d="M243.8,419.34v1.32h-8.34c-.06.54-.14,1.06-.24,1.54h8.26v1.3h-8.62c-.94,2.74-3.08,4.44-8.33,5.34a5,5,0,0,0-.77-1.34c4.62-.66,6.58-1.94,7.48-4h-6.73v-1.3h7.15a11.76,11.76,0,0,0,.26-1.54h-7.85v-1.32h8v-1.68h-6.22v-1.3h6.22v-1.62h-7.32V413.4H231a11.1,11.1,0,0,0-1.54-2.32l1.28-.52a9.82,9.82,0,0,1,1.76,2.52l-.72.32H237a22.39,22.39,0,0,0,1.72-2.84l1.52.46a27.38,27.38,0,0,1-1.6,2.38h4.26v1.34h-7.36v1.62H242v1.3h-6.4v1.68Zm-8.18,4.38a50.17,50.17,0,0,1,8.16,4l-.7,1.28a47.46,47.46,0,0,0-8.1-4.14Z"/><path class="cls-2" d="M263.18,411.54v17.4h-1.46V428H248v.92h-1.43v-17.4Zm-1.46,15.14V412.9H248v13.78Zm-6.78-3c-2.08.4-4.2.82-5.84,1.12l-.2-1.12c1.52-.24,3.74-.64,6-1Zm5-5.82a15.52,15.52,0,0,1-2.22,4.9c.42,1.06,1,1.74,1.62,1.84.28.08.48-.78.62-2.06a3.74,3.74,0,0,0,1,.66c-.26,2.18-.94,3-2,2.58a3.22,3.22,0,0,1-2.08-1.94,12.54,12.54,0,0,1-2.64,2.3,7.68,7.68,0,0,0-.88-.94,10.55,10.55,0,0,0,3-2.62,28.53,28.53,0,0,1-1.1-5.9H249.1v-1.12h6c-.06-.7-.12-1.4-.16-2.12h1.28c0,.72.08,1.42.12,2.12h4.36v1.12h-4.26a29.15,29.15,0,0,0,.74,4.6,13.76,13.76,0,0,0,1.48-3.68Zm-5.68.08v3.88H249.8V417.9Zm-1.08.94h-2.3v2h2.3Zm6.36-3.54a8.09,8.09,0,0,0-2.14-1.4l.7-.74a8.53,8.53,0,0,1,2.16,1.36Z"/><path class="cls-2" d="M272.86,411.72a26.6,26.6,0,0,1-5.86,8.5,12,12,0,0,0-1.32-1.2,20.82,20.82,0,0,0,5.56-7.8Zm5.62,9.5a62,62,0,0,1,4.48,6.72l-1.48.82c-.28-.56-.66-1.2-1.08-1.92-10.36.72-11.46.78-12.24,1.06a9.22,9.22,0,0,0-.58-1.58c.54-.12,1.12-.78,1.88-1.72a44.6,44.6,0,0,0,5-7.88l1.66.7A52.48,52.48,0,0,1,270.3,426l9.24-.52c-.78-1.24-1.68-2.54-2.48-3.6Zm.42-10.08a14.53,14.53,0,0,0,5.3,7.7,7.85,7.85,0,0,0-1.16,1.38,16.68,16.68,0,0,1-5.26-7.58h-3.72v-1.5Z"/><path class="cls-2" d="M291.58,411.08a28.54,28.54,0,0,1-2,4.1v13.66h-1.44v-11.4a21.86,21.86,0,0,1-2.06,2.48,10.86,10.86,0,0,0-.85-1.42,22.16,22.16,0,0,0,5-7.84Zm5,15.2a17.24,17.24,0,0,1-4.7,2.6,8.39,8.39,0,0,0-1.16-1,14.21,14.21,0,0,0,4.46-2.1ZM304,415.84v1.08H291v-1.08h5.8v-1.08h-4.4v-1h4.4v-1h-4.92v-1h4.92v-1.1h1.48v1.1h5.12v1h-5.12v1h4.6v1h-4.6v1.08Zm-1.3,9.56H292.54v-7.5h10.14Zm-1.46-6.5H294v1.22h7.26Zm0,2.1H294v1.24h7.26Zm0,2.12H294v1.26h7.26Zm-1.14,2.54a27.58,27.58,0,0,1,3.9,2.52l-1.32.82a27.23,27.23,0,0,0-3.9-2.7Z"/><path class="cls-2" d="M312.64,420.6l-2.5.76v5.74c0,.86-.2,1.24-.72,1.5a7,7,0,0,1-2.64.26,6,6,0,0,0-.46-1.38c.9,0,1.74,0,2,0s.38-.08.38-.38v-5.28l-2.71.8-.44-1.46c.87-.22,2-.52,3.15-.86v-4.22h-2.85v-1.42h2.85v-4h1.46v4h2.26v1.42h-2.26v3.78c.76-.2,1.54-.44,2.3-.68Zm3.62-2.14c-2,0-2.58-.62-2.58-2.34V410.7h1.46v2.4h8v1.3h-8v1.76c0,.74.22,1,1.1,1h5.24a14.36,14.36,0,0,0,2.2-.14c.06.4.12,1,.18,1.3a13.42,13.42,0,0,1-2.3.12Zm-2.56,1.7h9.36v8.64H321.6V428h-6.48v.92H313.7Zm1.42,1.28v2h6.48v-2Zm6.48,5.3v-2.1h-6.48v2.1Z"/><path class="cls-2" d="M334.64,423.76a4.33,4.33,0,0,1-1.72,2.64,18.6,18.6,0,0,1,2.3,1.18l-1,.86a22.48,22.48,0,0,0-2.46-1.3,20.28,20.28,0,0,1-5.6,1.72,4.41,4.41,0,0,0-.63-1,20.49,20.49,0,0,0,4.83-1.32,24.79,24.79,0,0,0-3.08-1.1c.32-.4.68-.84,1-1.32l-2.37.12-.13-1.1c.9,0,2-.08,3.24-.12.3-.54.62-1.06.9-1.58H326.7v-3.26h3.78v-.82h-3.22V415.2h-1.35v-1.14h1.35v-2h3.22v-1.4h1.18V412h3.4v2h1.36v1.14h-1.36v2.16h-3.4v.82h3.88v3.26h-4.22a14.12,14.12,0,0,1-.84,1.5c1,0,2-.1,3-.16v-.94h1.22v.88l1-.06,0,1ZM328,420.44h2.5V419.2H328Zm.56-7.38v1.06h1.94v-1.06Zm1.94,3.26v-1.2h-1.94v1.2Zm-.7,7.7c-.2.32-.42.62-.62.9.82.26,1.68.58,2.5.92a3.85,3.85,0,0,0,1.68-2Zm1.88-11v1.06h2.08v-1.06Zm2.08,3.26v-1.2h-2.08v1.2Zm-2.08,2.88v1.24h2.56V419.2Zm10.88-3.42a28.73,28.73,0,0,1-1.82,7.66,9.87,9.87,0,0,0,3.38,4.16,4.6,4.6,0,0,0-.9,1.06,10,10,0,0,1-3.14-3.78,11.92,11.92,0,0,1-3.62,4.12,4.58,4.58,0,0,0-.82-1.12,10.34,10.34,0,0,0,3.76-4.5,27,27,0,0,1-1.46-5.28,13.24,13.24,0,0,1-1.06,2.2,11.65,11.65,0,0,0-1-.9c1.32-2.1,2.1-5.34,2.56-8.62l1.26.2c-.16,1.16-.38,2.34-.64,3.46h4.88v1.34Zm-3.84,0A33.44,33.44,0,0,0,340,421.7a28.23,28.23,0,0,0,1.16-5.92Z"/></g></g><g id="美國S_P500指數" data-name="美國S P500指數" class="cls-1"><g class="cls-1"><path class="cls-2" d="M403.8,419.34v1.32h-8.34c-.06.54-.14,1.06-.24,1.54h8.26v1.3h-8.62c-.94,2.74-3.08,4.44-8.33,5.34a5,5,0,0,0-.77-1.34c4.62-.66,6.58-1.94,7.48-4h-6.73v-1.3h7.15a11.76,11.76,0,0,0,.26-1.54h-7.85v-1.32h8v-1.68h-6.22v-1.3h6.22v-1.62h-7.32V413.4H391a11.1,11.1,0,0,0-1.54-2.32l1.28-.52a9.82,9.82,0,0,1,1.76,2.52l-.72.32H397a22.39,22.39,0,0,0,1.72-2.84l1.52.46a27.38,27.38,0,0,1-1.6,2.38h4.26v1.34h-7.36v1.62H402v1.3h-6.4v1.68Zm-8.18,4.38a50.17,50.17,0,0,1,8.16,4l-.7,1.28a47.46,47.46,0,0,0-8.1-4.14Z"/><path class="cls-2" d="M423.18,411.54v17.4h-1.46V428H408v.92h-1.43v-17.4Zm-1.46,15.14V412.9H408v13.78Zm-6.78-3c-2.08.4-4.2.82-5.84,1.12l-.2-1.12c1.52-.24,3.74-.64,6-1Zm5-5.82a15.52,15.52,0,0,1-2.22,4.9c.42,1.06,1,1.74,1.62,1.84.28.08.48-.78.62-2.06a3.74,3.74,0,0,0,1,.66c-.26,2.18-.94,3-2,2.58a3.22,3.22,0,0,1-2.08-1.94,12.54,12.54,0,0,1-2.64,2.3,7.68,7.68,0,0,0-.88-.94,10.55,10.55,0,0,0,3-2.62,28.53,28.53,0,0,1-1.1-5.9H409.1v-1.12h6c-.06-.7-.12-1.4-.16-2.12h1.28c0,.72.08,1.42.12,2.12h4.36v1.12h-4.26a29.15,29.15,0,0,0,.74,4.6,13.76,13.76,0,0,0,1.48-3.68Zm-5.68.08v3.88H409.8V417.9Zm-1.08.94h-2.3v2h2.3Zm6.36-3.54a8.09,8.09,0,0,0-2.14-1.4l.7-.74a8.53,8.53,0,0,1,2.16,1.36Z"/></g><g class="cls-1"><path class="cls-2" d="M425.82,425.44l1.1-1.26A5.76,5.76,0,0,0,431,426c1.92,0,3.08-1,3.08-2.4s-1.06-2-2.44-2.6l-2.12-.92c-1.36-.58-3-1.62-3-3.76s2-3.9,4.63-3.9a6,6,0,0,1,4.32,1.82l-1,1.18a4.75,4.75,0,0,0-3.34-1.38c-1.66,0-2.74.84-2.74,2.16s1.28,2,2.42,2.44l2.1.9c1.7.74,3,1.74,3,3.92s-1.92,4.16-5,4.16A7,7,0,0,1,425.82,425.44Z"/><path class="cls-2" d="M449.58,427.62a10.89,10.89,0,0,1-3.34-1.68,6.11,6.11,0,0,1-4.24,1.68c-2.67,0-4.47-1.7-4.47-4.06,0-2,1.38-3.2,2.88-4.24a7.79,7.79,0,0,1-1-3.42,3.32,3.32,0,0,1,3.39-3.48,2.7,2.7,0,0,1,2.88,2.9c0,1.92-1.68,3.16-3.3,4.34a17.87,17.87,0,0,0,3.72,4.14,12.51,12.51,0,0,0,2.08-4.34h1.68a15.8,15.8,0,0,1-2.56,5.24,8.9,8.9,0,0,0,2.74,1.4Zm-7.36-1.46A4.37,4.37,0,0,0,445,425a22.3,22.3,0,0,1-3.86-4.38c-1,.84-1.85,1.72-1.85,2.86A2.71,2.71,0,0,0,442.22,426.16Zm-.48-7.7c1.34-.9,2.5-1.8,2.5-3.1,0-.86-.4-1.62-1.4-1.62a1.89,1.89,0,0,0-1.81,2.12A6.14,6.14,0,0,0,441.74,418.46Z"/><path class="cls-2" d="M452.41,412.7h4.19c3.3,0,5.5,1.1,5.5,4.3s-2.2,4.54-5.4,4.54h-2.42v5.82h-1.87Zm4,7.34c2.58,0,3.8-.94,3.8-3s-1.3-2.8-3.88-2.8h-2.1V420Z"/><path class="cls-2" d="M463.61,425.68l.9-1.2a4.83,4.83,0,0,0,3.61,1.62,3.17,3.17,0,0,0,3.12-3.46c0-2.1-1.2-3.34-3-3.34a4,4,0,0,0-2.45.86l-1-.6.46-6.86h7.15v1.56h-5.55l-.36,4.24a4.27,4.27,0,0,1,2.19-.58c2.44,0,4.42,1.44,4.42,4.66a4.76,4.76,0,0,1-4.8,5A6.24,6.24,0,0,1,463.61,425.68Z"/><path class="cls-2" d="M475.13,420c0-5.1,1.78-7.56,4.59-7.56s4.56,2.48,4.56,7.56-1.78,7.64-4.56,7.64S475.13,425.08,475.13,420Zm7.37,0c0-4.28-1.12-6.08-2.78-6.08s-2.81,1.8-2.81,6.08,1.12,6.18,2.81,6.18S482.5,424.3,482.5,420Z"/><path class="cls-2" d="M486.23,420c0-5.1,1.78-7.56,4.58-7.56s4.57,2.48,4.57,7.56-1.78,7.64-4.57,7.64S486.23,425.08,486.23,420Zm7.37,0c0-4.28-1.12-6.08-2.79-6.08S488,415.7,488,420s1.12,6.18,2.8,6.18S493.6,424.3,493.6,420Z"/></g><g class="cls-1"><path class="cls-2" d="M504.12,420.6l-2.5.76v5.74c0,.86-.21,1.24-.73,1.5a7,7,0,0,1-2.64.26,5.59,5.59,0,0,0-.46-1.38c.9,0,1.74,0,2,0s.38-.08.38-.38v-5.28c-1,.28-1.9.56-2.7.8l-.44-1.46c.86-.22,2-.52,3.14-.86v-4.22h-2.84v-1.42h2.84v-4h1.47v4h2.26v1.42h-2.26v3.78c.76-.2,1.54-.44,2.3-.68Zm3.62-2.14c-2,0-2.58-.62-2.58-2.34V410.7h1.46v2.4h8v1.3h-8v1.76c0,.74.22,1,1.1,1H513a14.36,14.36,0,0,0,2.2-.14c.06.4.12,1,.18,1.3a13.42,13.42,0,0,1-2.3.12Zm-2.56,1.7h9.36v8.64h-1.46V428H506.6v.92h-1.42Zm1.42,1.28v2h6.48v-2Zm6.48,5.3v-2.1H506.6v2.1Z"/><path class="cls-2" d="M526.12,423.76a4.33,4.33,0,0,1-1.72,2.64,18.6,18.6,0,0,1,2.3,1.18l-1,.86a22.48,22.48,0,0,0-2.46-1.3,20.48,20.48,0,0,1-5.61,1.72,4.37,4.37,0,0,0-.62-1,20.53,20.53,0,0,0,4.82-1.32,24.79,24.79,0,0,0-3.08-1.1c.32-.4.68-.84,1-1.32l-2.36.12-.14-1.1c.9,0,2-.08,3.24-.12.3-.54.62-1.06.9-1.58h-3.26v-3.26H522v-.82h-3.22V415.2h-1.34v-1.14h1.34v-2H522v-1.4h1.19V412h3.4v2h1.36v1.14h-1.36v2.16h-3.4v.82H527v3.26H522.8a14.24,14.24,0,0,1-.85,1.5c1,0,2-.1,3-.16v-.94h1.22v.88l1-.06,0,1Zm-6.67-3.32H522V419.2h-2.5Zm.56-7.38v1.06H522v-1.06Zm1.94,3.26v-1.2H520v1.2Zm-.7,7.7c-.2.32-.42.62-.62.9.82.26,1.69.58,2.51.92a3.85,3.85,0,0,0,1.68-2Zm1.89-11v1.06h2.08v-1.06Zm2.08,3.26v-1.2h-2.08v1.2Zm-2.08,2.88v1.24h2.56V419.2ZM534,415.78a28.73,28.73,0,0,1-1.82,7.66,9.87,9.87,0,0,0,3.38,4.16,4.6,4.6,0,0,0-.9,1.06,10,10,0,0,1-3.14-3.78,11.92,11.92,0,0,1-3.62,4.12,4.58,4.58,0,0,0-.82-1.12,10.34,10.34,0,0,0,3.76-4.5,27,27,0,0,1-1.46-5.28,13.24,13.24,0,0,1-1.06,2.2,11.65,11.65,0,0,0-1-.9c1.32-2.1,2.1-5.34,2.56-8.62l1.26.2c-.16,1.16-.38,2.34-.64,3.46h4.88v1.34Zm-3.84,0a33.44,33.44,0,0,0,1.34,5.92,28.23,28.23,0,0,0,1.16-5.92Z"/></g></g><circle id="Ellipse_877" data-name="Ellipse 877" class="cls-5" cx="12.87" cy="419.36" r="6"/><circle id="Ellipse_878" data-name="Ellipse 878" class="cls-6" cx="213.87" cy="419.36" r="6"/><circle id="Ellipse_880" data-name="Ellipse 880" class="cls-7" cx="373.87" cy="419.36" r="6"/></svg>