<svg id="bg" xmlns="http://www.w3.org/2000/svg" viewBox="0 0 1120 480.44"><defs><style>.cls-1,.cls-5{font-size:20px;}.cls-1{font-family:Arial-BoldMT, Arial;font-weight:700;}.cls-2{fill:none;stroke:#ccc;stroke-miterlimit:10;}.cls-3{fill:#ccc;}.cls-4,.cls-5{isolation:isolate;}.cls-5{fill:#333;font-family:NotoSansCJKtc-Regular-B5pc-H, Noto Sans CJK TC;}.cls-6{fill:#002a5e;}.cls-7{fill:#f699ba;}.cls-8{fill:#2955b2;}.cls-9{fill:#7f58a5;}.cls-10{fill:#14e6f0;}.cls-11{fill:#df536a;}.cls-12{fill:#001938;}.cls-13{fill:#c12b5d;}</style></defs><text class="cls-1" transform="translate(901.11 221.2)">40.81%</text><text class="cls-1" transform="translate(153.67 382.44)">28.41%</text><text class="cls-1" transform="translate(163.44 158.22)">6.52%</text><text class="cls-1" transform="translate(163.44 67.13)">4.33%</text><text class="cls-1" transform="translate(334.09 38.63)">1.15%</text><text class="cls-1" transform="translate(864.08 41.7)">0.40%</text><line class="cls-2" x1="732" y1="215.77" x2="885.84" y2="215.77"/><line class="cls-2" x1="232.58" y1="377.34" x2="478.16" y2="377.34"/><polyline class="cls-2" points="557.93 49.13 557.93 34.27 845.25 34.27"/><polyline class="cls-2" points="462.78 83.92 282.27 83.92 234.96 131.24"/><line class="cls-2" x1="517.21" y1="58.13" x2="234.96" y2="58.13"/><circle class="cls-3" cx="234.96" cy="58.13" r="5.1"/><circle class="cls-3" cx="409.55" cy="32.34" r="5.1"/><circle class="cls-3" cx="845.25" cy="34.26" r="5.1"/><circle class="cls-3" cx="885.84" cy="215.77" r="5.1"/><circle class="cls-3" cx="234.96" cy="131.06" r="5.1"/><circle class="cls-3" cx="236.85" cy="377.34" r="5.1"/><text class="cls-1" transform="translate(153.67 204.36)">18.38%</text><line class="cls-2" x1="232.58" y1="195.96" x2="389.58" y2="195.96"/><circle class="cls-3" cx="236.85" cy="195.96" r="5.1"/><polyline class="cls-2" points="549.95 58.13 549.95 32.34 409.55 32.34"/><g id="北美" class="cls-4"><text class="cls-5" transform="translate(270 463.2)">北美</text></g><circle id="Ellipse_942" data-name="Ellipse 942" class="cls-6" cx="256" cy="455.2" r="6"/><g id="英國" class="cls-4"><text class="cls-5" transform="translate(360 463.2)">英國</text></g><circle id="Ellipse_942-2" data-name="Ellipse 942-2" class="cls-7" cx="346" cy="455.2" r="6"/><g id="歐洲" class="cls-4"><text class="cls-5" transform="translate(450 463.2)">歐洲</text></g><circle id="Ellipse_942-3" data-name="Ellipse 942-3" class="cls-8" cx="436" cy="455.2" r="6"/><g id="中南美" class="cls-4"><text class="cls-5" transform="translate(540 463.2)">中南美</text></g><circle id="Ellipse_942-4" data-name="Ellipse 942-4" class="cls-9" cx="526" cy="455.2" r="6"/><g id="亞洲" class="cls-4"><text class="cls-5" transform="translate(650 463.2)">亞洲</text></g><circle id="Ellipse_942-5" data-name="Ellipse 942-5" class="cls-10" cx="636" cy="455.2" r="6"/><g id="非洲" class="cls-4"><text class="cls-5" transform="translate(740 463.2)">非洲</text></g><circle id="Ellipse_942-6" data-name="Ellipse 942-6" class="cls-11" cx="726" cy="455.2" r="6"/><g id="其他" class="cls-4"><text class="cls-5" transform="translate(830 463.2)">其他</text></g><circle id="Ellipse_942-7" data-name="Ellipse 942-7" class="cls-12" cx="816" cy="455.2" r="6"/><path class="cls-12" d="M560,98.93h.28V59.3c-1.46,0-4.31.05-5.78.1L555.89,99C557.25,99,558.62,98.93,560,98.93Z"/><path class="cls-13" d="M555.89,99,554.5,59.4c-4.2.14-7.34.36-11.52.8l4.14,39.39C550,99.29,552.94,99.1,555.89,99Z"/><path class="cls-10" d="M547.12,99.59,543,60.2a162,162,0,0,0-44.71,11.15L513.07,108A125.12,125.12,0,0,1,547.12,99.59Z"/><path class="cls-9" d="M513.07,108l-14.8-36.63c-22,8.9-38.22,19.62-55,36.43l27.89,27.88A126.07,126.07,0,0,1,513.07,108Z"/><path class="cls-7" d="M434.11,224.83a125.51,125.51,0,0,1,37-89.17l-27.89-27.88c-47.51,47.51-61.57,113.63-37.49,176.36L442.48,270A125.63,125.63,0,0,1,434.11,224.83Z"/><path class="cls-6" d="M560,350.72A125.94,125.94,0,0,1,442.48,270l-36.73,14.1A165.54,165.54,0,0,0,652.84,362l-22.24-33A125.31,125.31,0,0,1,560,350.72Z"/><path class="cls-8" d="M560.28,59.3V98.94A125.9,125.9,0,0,1,630.6,329.07l22.24,33c47.9-32.3,73-79.45,73-137.22A165.51,165.51,0,0,0,560.28,59.3Z"/></svg>