<svg id="bg" xmlns="http://www.w3.org/2000/svg" viewBox="0 0 1120 480.44"><defs><style>.cls-1,.cls-5{font-size:20px;}.cls-1{font-family:Arial-BoldMT, Arial;font-weight:700;}.cls-2{fill:none;stroke:#ccc;stroke-miterlimit:10;}.cls-3{fill:#ccc;}.cls-4,.cls-5{isolation:isolate;}.cls-5{fill:#333;font-family:NotoSansCJKtc-Regular-B5pc-H, Noto Sans CJK TC;}.cls-6{fill:#2955b2;}.cls-7{fill:#002a5e;}.cls-8{fill:#f699ba;}.cls-9{fill:#7f58a5;}.cls-10{fill:#14e6f0;}.cls-11{fill:#df536a;}.cls-12{fill:#001938;}.cls-13{fill:#c12b5d;}</style></defs><text class="cls-1" transform="translate(900.87 221.21)">40.81%</text><text class="cls-1" transform="translate(153.44 382.44)">28.41%</text><text class="cls-1" transform="translate(163.21 158.22)">6.52%</text><text class="cls-1" transform="translate(163.21 67.13)">4.33%</text><text class="cls-1" transform="translate(333.85 38.63)">1.15%</text><text class="cls-1" transform="translate(863.84 41.7)">0.40%</text><line class="cls-2" x1="731.76" y1="215.77" x2="885.6" y2="215.77"/><line class="cls-2" x1="232.35" y1="377.34" x2="477.92" y2="377.34"/><polyline class="cls-2" points="557.69 49.13 557.69 34.27 845.02 34.27"/><polyline class="cls-2" points="462.55 83.92 282.04 83.92 234.72 131.24"/><line class="cls-2" x1="516.98" y1="58.13" x2="234.72" y2="58.13"/><circle class="cls-3" cx="234.72" cy="58.13" r="5.1"/><circle class="cls-3" cx="409.32" cy="32.34" r="5.1"/><circle class="cls-3" cx="845.02" cy="34.27" r="5.1"/><circle class="cls-3" cx="885.6" cy="215.77" r="5.1"/><circle class="cls-3" cx="234.72" cy="131.06" r="5.1"/><circle class="cls-3" cx="236.61" cy="377.34" r="5.1"/><text class="cls-1" transform="translate(153.44 204.36)">18.38%</text><line class="cls-2" x1="232.35" y1="195.96" x2="389.34" y2="195.96"/><circle class="cls-3" cx="236.61" cy="195.96" r="5.1"/><polyline class="cls-2" points="549.72 58.13 549.72 32.34 409.32 32.34"/><g id="北美" class="cls-4"><text class="cls-5" transform="translate(269.76 463.2)">歐洲</text></g><circle id="Ellipse_942" data-name="Ellipse 942" class="cls-6" cx="255.76" cy="455.2" r="6"/><g id="英國" class="cls-4"><text class="cls-5" transform="translate(359.76 463.2)">北美</text></g><circle id="Ellipse_942-2" data-name="Ellipse 942-2" class="cls-7" cx="345.76" cy="455.2" r="6"/><g id="歐洲" class="cls-4"><text class="cls-5" transform="translate(449.76 463.2)">英國</text></g><circle id="Ellipse_942-3" data-name="Ellipse 942-3" class="cls-8" cx="435.76" cy="455.2" r="6"/><g id="中南美" class="cls-4"><text class="cls-5" transform="translate(539.76 463.2)">中南美</text></g><circle id="Ellipse_942-4" data-name="Ellipse 942-4" class="cls-9" cx="525.76" cy="455.2" r="6"/><g id="亞洲" class="cls-4"><text class="cls-5" transform="translate(649.76 463.2)">亞洲</text></g><circle id="Ellipse_942-5" data-name="Ellipse 942-5" class="cls-10" cx="635.76" cy="455.2" r="6"/><g id="非洲" class="cls-4"><text class="cls-5" transform="translate(739.76 463.2)">非洲</text></g><circle id="Ellipse_942-6" data-name="Ellipse 942-6" class="cls-11" cx="725.76" cy="455.2" r="6"/><g id="其他" class="cls-4"><text class="cls-5" transform="translate(829.76 463.2)">其他</text></g><circle id="Ellipse_942-7" data-name="Ellipse 942-7" class="cls-12" cx="815.76" cy="455.2" r="6"/><path class="cls-12" d="M559.76,98.94H560V59.3c-1.46,0-4.31.05-5.77.1L555.65,99C557,99,558.39,98.94,559.76,98.94Z"/><path class="cls-13" d="M555.65,99,554.27,59.4c-4.2.15-7.35.37-11.53.8l4.14,39.39Q551.23,99.14,555.65,99Z"/><path class="cls-10" d="M546.88,99.59,542.74,60.2A161.89,161.89,0,0,0,498,71.35L512.84,108A125.05,125.05,0,0,1,546.88,99.59Z"/><path class="cls-9" d="M512.84,108,498,71.35c-22,8.9-38.23,19.62-55,36.43l27.89,27.89A125.89,125.89,0,0,1,512.84,108Z"/><path class="cls-8" d="M433.87,224.83a125.47,125.47,0,0,1,37-89.16L443,107.78c-47.51,47.51-61.56,113.63-37.48,176.36L442.24,270A125.59,125.59,0,0,1,433.87,224.83Z"/><path class="cls-7" d="M559.76,350.72A125.94,125.94,0,0,1,442.24,270l-36.72,14.1A165.5,165.5,0,0,0,652.6,362l-22.24-33A125.23,125.23,0,0,1,559.76,350.72Z"/><path class="cls-6" d="M560,59.3V98.94a125.89,125.89,0,0,1,70.32,230.13l22.24,33c47.9-32.3,73-79.45,73-137.22A165.52,165.52,0,0,0,560,59.3Z"/></svg>