<svg id="bg" xmlns="http://www.w3.org/2000/svg" viewBox="0 0 1120 480.44"><defs><style>.cls-1{fill:#002a5e;}.cls-2{fill:#f699ba;}.cls-3{fill:#2955b2;}.cls-4{fill:#7f58a5;}.cls-5{fill:#14e6f0;}.cls-6{fill:#c12b5d;}.cls-7{fill:#001938;}.cls-8{fill:none;stroke:#ccc;stroke-miterlimit:10;}.cls-9{fill:#ccc;}.cls-10{isolation:isolate;}.cls-11{fill:#333;}.cls-12{fill:#df536a;}</style></defs><path d="M911.23,128.2v2.55h-9.62a6.57,6.57,0,0,1,.93-2.74,18.4,18.4,0,0,1,3.09-3.43,19.06,19.06,0,0,0,2.28-2.35,3,3,0,0,0,.56-1.68,1.91,1.91,0,0,0-.49-1.41,1.83,1.83,0,0,0-1.36-.49,1.81,1.81,0,0,0-1.37.52,2.69,2.69,0,0,0-.59,1.72l-2.73-.28a4.47,4.47,0,0,1,1.53-3.25,5.15,5.15,0,0,1,3.23-1,4.67,4.67,0,0,1,3.33,1.14,3.77,3.77,0,0,1,1.21,2.84,5,5,0,0,1-.35,1.84,7.58,7.58,0,0,1-1.1,1.83,17.89,17.89,0,0,1-1.8,1.83c-.86.79-1.41,1.32-1.64,1.58a4.47,4.47,0,0,0-.56.76Z"/><path d="M915.44,123a3.1,3.1,0,0,1-2-3,3.5,3.5,0,0,1,1.12-2.65,5.37,5.37,0,0,1,6.35,0,3.47,3.47,0,0,1,1.13,2.65,3.09,3.09,0,0,1-.52,1.77A3.3,3.3,0,0,1,920,123a3.83,3.83,0,0,1,1.81,1.39,3.72,3.72,0,0,1,.62,2.12,4.28,4.28,0,0,1-1.27,3.22,4.57,4.57,0,0,1-3.36,1.24,5.09,5.09,0,0,1-3.25-1,4,4,0,0,1-1.54-3.32,4.07,4.07,0,0,1,.58-2.14A3.71,3.71,0,0,1,915.44,123Zm.31,3.36a2.5,2.5,0,0,0,.58,1.77,1.95,1.95,0,0,0,2.86,0,2.55,2.55,0,0,0,.55-1.77,2.29,2.29,0,0,0-.56-1.61,1.87,1.87,0,0,0-1.44-.61,1.72,1.72,0,0,0-1.5.69A2.51,2.51,0,0,0,915.75,126.39Zm.25-6.13a1.72,1.72,0,0,0,.47,1.28,1.64,1.64,0,0,0,1.23.46,1.69,1.69,0,0,0,1.25-.46,1.75,1.75,0,0,0,.47-1.29A1.7,1.7,0,0,0,919,119a1.67,1.67,0,0,0-1.23-.47,1.62,1.62,0,0,0-1.73,1.71Z"/><path d="M924.79,130.75V128h2.74v2.74Z"/><path d="M935.14,130.75v-2.88h-5.86v-2.4l6.21-9.09h2.31v9.08h1.78v2.41H937.8v2.88Zm0-5.29v-4.9l-3.29,4.9Z"/><path d="M947.91,130.75h-2.75V120.41a9.4,9.4,0,0,1-3.54,2.08V120a8.22,8.22,0,0,0,2.33-1.33,5.09,5.09,0,0,0,1.73-2.29h2.23Z"/><path d="M952,120a4.15,4.15,0,0,1,.84-2.85,2.94,2.94,0,0,1,2.29-.93,3,3,0,0,1,2.34.92,5.22,5.22,0,0,1,0,5.71,2.94,2.94,0,0,1-2.29.93,3,3,0,0,1-2.34-.92A4.16,4.16,0,0,1,952,120Zm2.14,0a3.61,3.61,0,0,0,.32,1.87.77.77,0,0,0,.67.36.8.8,0,0,0,.69-.36,5.8,5.8,0,0,0,0-3.74.8.8,0,0,0-.69-.36.78.78,0,0,0-.67.35A3.68,3.68,0,0,0,954.17,120Zm3.08,11.35h-2l7.63-15.11h2Zm4.44-3.76a4.11,4.11,0,0,1,.84-2.85,3.35,3.35,0,0,1,4.63,0,4.11,4.11,0,0,1,.84,2.85,4.16,4.16,0,0,1-.84,2.86,2.94,2.94,0,0,1-2.29.93,3,3,0,0,1-2.34-.93A4.16,4.16,0,0,1,961.69,127.54Zm2.13,0a3.54,3.54,0,0,0,.33,1.86.76.76,0,0,0,.67.36.74.74,0,0,0,.67-.35,3.61,3.61,0,0,0,.33-1.87,3.79,3.79,0,0,0-.32-1.88.79.79,0,0,0-.68-.35.76.76,0,0,0-.67.35A3.65,3.65,0,0,0,963.82,127.53Z"/><path d="M909,344.87h-2.74V334.53a9.52,9.52,0,0,1-3.55,2.08v-2.49a7.89,7.89,0,0,0,2.34-1.33,5.07,5.07,0,0,0,1.72-2.29H909Z"/><path d="M915.44,337.15a3.17,3.17,0,0,1-1.55-1.24,3.24,3.24,0,0,1-.49-1.72,3.5,3.5,0,0,1,1.12-2.65,5.37,5.37,0,0,1,6.35,0,3.47,3.47,0,0,1,1.13,2.65,3.09,3.09,0,0,1-.52,1.77,3.23,3.23,0,0,1-1.45,1.19,3.85,3.85,0,0,1,1.81,1.4,3.69,3.69,0,0,1,.62,2.11,4.3,4.3,0,0,1-1.27,3.23,4.61,4.61,0,0,1-3.36,1.24,5,5,0,0,1-3.25-1,4,4,0,0,1-1.54-3.32,4.06,4.06,0,0,1,.58-2.13A3.67,3.67,0,0,1,915.44,337.15Zm.31,3.37a2.53,2.53,0,0,0,.58,1.77,1.89,1.89,0,0,0,1.45.63,1.83,1.83,0,0,0,1.41-.61,2.53,2.53,0,0,0,.55-1.76,2.33,2.33,0,0,0-.56-1.62,1.87,1.87,0,0,0-1.44-.61,1.72,1.72,0,0,0-1.5.69A2.57,2.57,0,0,0,915.75,340.52Zm.25-6.13a1.7,1.7,0,0,0,.47,1.27,1.64,1.64,0,0,0,1.23.46,1.69,1.69,0,0,0,1.25-.46,1.74,1.74,0,0,0,.47-1.28,1.71,1.71,0,0,0-.46-1.24,1.72,1.72,0,0,0-3,1.25Z"/><path d="M924.79,344.87v-2.74h2.74v2.74Z"/><path d="M929.66,341.07l2.66-.32a2.51,2.51,0,0,0,.68,1.56,1.9,1.9,0,0,0,1.35.53,1.84,1.84,0,0,0,1.43-.64,2.49,2.49,0,0,0,.58-1.74,2.32,2.32,0,0,0-.55-1.64,1.8,1.8,0,0,0-1.36-.61,4.71,4.71,0,0,0-1.26.21l.3-2.24a2.42,2.42,0,0,0,1.7-.48,1.73,1.73,0,0,0,.59-1.36,1.48,1.48,0,0,0-1.58-1.59,1.7,1.7,0,0,0-1.2.49,2.3,2.3,0,0,0-.6,1.43l-2.53-.43a5.65,5.65,0,0,1,.79-2.08,3.7,3.7,0,0,1,1.49-1.22,5.07,5.07,0,0,1,2.13-.44,4.28,4.28,0,0,1,3.25,1.29,3.27,3.27,0,0,1-1.06,5.39,3.31,3.31,0,0,1,2,1.18,3.44,3.44,0,0,1,.74,2.22,4.31,4.31,0,0,1-1.38,3.21,4.77,4.77,0,0,1-3.43,1.33,4.7,4.7,0,0,1-3.22-1.12A4.44,4.44,0,0,1,929.66,341.07Z"/><path d="M943.24,337.15a3.17,3.17,0,0,1-1.55-1.24,3.23,3.23,0,0,1-.48-1.72,3.49,3.49,0,0,1,1.11-2.65,5.37,5.37,0,0,1,6.35,0,3.47,3.47,0,0,1,1.13,2.65,3.09,3.09,0,0,1-.52,1.77,3.23,3.23,0,0,1-1.45,1.19,3.8,3.8,0,0,1,1.81,1.4,3.69,3.69,0,0,1,.62,2.11,4.3,4.3,0,0,1-1.27,3.23,4.61,4.61,0,0,1-3.36,1.24,5,5,0,0,1-3.25-1,4,4,0,0,1-1.53-3.32,4.15,4.15,0,0,1,.57-2.13A3.71,3.71,0,0,1,943.24,337.15Zm.31,3.37a2.53,2.53,0,0,0,.58,1.77,1.89,1.89,0,0,0,1.45.63,1.81,1.81,0,0,0,1.41-.61,2.53,2.53,0,0,0,.55-1.76,2.28,2.28,0,0,0-.56-1.62,1.87,1.87,0,0,0-1.44-.61,1.72,1.72,0,0,0-1.5.69A2.57,2.57,0,0,0,943.55,340.52Zm.25-6.13a1.7,1.7,0,0,0,.47,1.27,1.66,1.66,0,0,0,1.23.46,1.61,1.61,0,0,0,1.72-1.74,1.58,1.58,0,0,0-1.69-1.7,1.7,1.7,0,0,0-1.26.47A1.67,1.67,0,0,0,943.8,334.39Z"/><path d="M952,334.09a4.15,4.15,0,0,1,.84-2.85,2.94,2.94,0,0,1,2.29-.93,3,3,0,0,1,2.34.93,5.2,5.2,0,0,1,0,5.7,2.94,2.94,0,0,1-2.29.93,3,3,0,0,1-2.34-.92A4.16,4.16,0,0,1,952,334.09Zm2.14,0a3.68,3.68,0,0,0,.32,1.88.78.78,0,0,0,.67.35.82.82,0,0,0,.69-.35,3.94,3.94,0,0,0,.31-1.88,3.81,3.81,0,0,0-.31-1.86.8.8,0,0,0-.69-.36.76.76,0,0,0-.67.35A3.63,3.63,0,0,0,954.17,334.07Zm3.08,11.35h-2l7.63-15.11h2Zm4.44-3.76a4.15,4.15,0,0,1,.84-2.85,3.35,3.35,0,0,1,4.63,0,5.27,5.27,0,0,1,0,5.71,2.94,2.94,0,0,1-2.29.93,3,3,0,0,1-2.34-.93A4.16,4.16,0,0,1,961.69,341.66Zm2.13,0a3.61,3.61,0,0,0,.33,1.87.81.81,0,0,0,1.34,0,3.65,3.65,0,0,0,.33-1.88,3.72,3.72,0,0,0-.32-1.87.77.77,0,0,0-.68-.36.75.75,0,0,0-.67.36A3.58,3.58,0,0,0,963.82,341.65Z"/><path d="M158,335.41v-2.89h-5.86v-2.4l6.21-9.09h2.31v9.08h1.77v2.41h-1.77v2.89Zm0-5.3v-4.89l-3.29,4.89Z"/><path d="M168.39,321a3.91,3.91,0,0,1,3.25,1.49q1.4,1.75,1.4,5.83t-1.41,5.84a3.91,3.91,0,0,1-3.24,1.46A4.1,4.1,0,0,1,165,334q-1.28-1.6-1.28-5.72t1.41-5.82A3.89,3.89,0,0,1,168.39,321Zm0,2.28a1.38,1.38,0,0,0-.89.31,2.14,2.14,0,0,0-.6,1.14,22.74,22.74,0,0,0,0,7.05,2.4,2.4,0,0,0,.64,1.25,1.33,1.33,0,0,0,.88.31,1.38,1.38,0,0,0,.89-.31,2.17,2.17,0,0,0,.61-1.14,16.13,16.13,0,0,0,.28-3.57,15.52,15.52,0,0,0-.26-3.47,2.41,2.41,0,0,0-.64-1.26A1.33,1.33,0,0,0,168.39,323.31Z"/><path d="M175.46,335.41v-2.75h2.75v2.75Z"/><path d="M182.79,327.68a3.21,3.21,0,0,1-1.55-1.23,3.28,3.28,0,0,1-.49-1.73,3.46,3.46,0,0,1,1.12-2.64,5.33,5.33,0,0,1,6.35,0,3.43,3.43,0,0,1,1.13,2.64,3,3,0,0,1-.52,1.77,3.23,3.23,0,0,1-1.45,1.19,3.91,3.91,0,0,1,1.81,1.4,3.72,3.72,0,0,1,.62,2.12,4.29,4.29,0,0,1-1.27,3.22,4.57,4.57,0,0,1-3.36,1.24,5,5,0,0,1-3.25-1,4,4,0,0,1-1.54-3.32,4.06,4.06,0,0,1,.58-2.13A3.67,3.67,0,0,1,182.79,327.68Zm.31,3.37a2.52,2.52,0,0,0,.58,1.77,1.89,1.89,0,0,0,1.45.63,1.83,1.83,0,0,0,1.41-.61,2.51,2.51,0,0,0,.55-1.76,2.33,2.33,0,0,0-.56-1.62,1.91,1.91,0,0,0-1.44-.61,1.71,1.71,0,0,0-1.5.7A2.51,2.51,0,0,0,183.1,331.05Zm.25-6.13a1.74,1.74,0,0,0,.47,1.28,1.89,1.89,0,0,0,2.48,0,1.74,1.74,0,0,0,.47-1.28,1.71,1.71,0,1,0-3.42,0Z"/><path d="M198.58,335.41h-2.75V325.06a9.4,9.4,0,0,1-3.54,2.08v-2.49a7.76,7.76,0,0,0,2.33-1.33,5,5,0,0,0,1.73-2.29h2.23Z"/><path d="M202.7,324.62a4.15,4.15,0,0,1,.84-2.85,3,3,0,0,1,2.29-.92,3,3,0,0,1,2.34.92,5.22,5.22,0,0,1,0,5.71,3,3,0,0,1-2.29.92,3,3,0,0,1-2.34-.92A4.14,4.14,0,0,1,202.7,324.62Zm2.14,0a3.63,3.63,0,0,0,.32,1.87.78.78,0,0,0,.67.35.81.81,0,0,0,.69-.35,3.89,3.89,0,0,0,.31-1.87,3.83,3.83,0,0,0-.31-1.87.79.79,0,0,0-.69-.36.78.78,0,0,0-.67.35A3.65,3.65,0,0,0,204.84,324.61ZM207.92,336h-2l7.63-15.1h2Zm4.44-3.76a4.15,4.15,0,0,1,.84-2.85,3.35,3.35,0,0,1,4.63,0,5.27,5.27,0,0,1,0,5.71,2.94,2.94,0,0,1-2.29.93,3,3,0,0,1-2.34-.93A4.14,4.14,0,0,1,212.36,332.19Zm2.13,0a3.58,3.58,0,0,0,.33,1.87.81.81,0,0,0,1.34,0,3.65,3.65,0,0,0,.33-1.88,3.74,3.74,0,0,0-.32-1.87.77.77,0,0,0-.68-.35.74.74,0,0,0-.67.35A3.61,3.61,0,0,0,214.49,332.18Z"/><path d="M173.59,147.41l-2.66.29a1.94,1.94,0,0,0-.5-1.21,1.5,1.5,0,0,0-1.07-.39,1.8,1.8,0,0,0-1.47.78,6.66,6.66,0,0,0-.76,3.25,3.25,3.25,0,0,1,2.55-1.21,3.91,3.91,0,0,1,2.95,1.31,4.77,4.77,0,0,1,1.22,3.38,4.85,4.85,0,0,1-1.29,3.53,4.7,4.7,0,0,1-6.87-.36q-1.4-1.68-1.4-5.52t1.46-5.68a4.69,4.69,0,0,1,3.78-1.73,4,4,0,0,1,2.7.91A4.31,4.31,0,0,1,173.59,147.41Zm-6.22,6a3.09,3.09,0,0,0,.61,2.06,1.8,1.8,0,0,0,1.41.73,1.6,1.6,0,0,0,1.27-.6,3,3,0,0,0,.51-2,3.14,3.14,0,0,0-.55-2,1.75,1.75,0,0,0-2.7,0A2.7,2.7,0,0,0,167.37,153.4Z"/><path d="M176,158.22v-2.74h2.75v2.74Z"/><path d="M181,154.54l2.74-.28a2.31,2.31,0,0,0,.69,1.47,1.88,1.88,0,0,0,1.33.54,1.85,1.85,0,0,0,1.45-.7,3.18,3.18,0,0,0,.6-2.11,2.9,2.9,0,0,0-.59-2,2,2,0,0,0-1.54-.66,2.8,2.8,0,0,0-2.12,1l-2.23-.32,1.41-7.45H190v2.57h-5.18l-.43,2.43a4.19,4.19,0,0,1,5,.87,4.75,4.75,0,0,1,1.27,3.45,5.13,5.13,0,0,1-1,3.15,4.54,4.54,0,0,1-3.87,1.89,4.8,4.8,0,0,1-3.23-1.06A4.34,4.34,0,0,1,181,154.54Z"/><path d="M201.36,155.67v2.55h-9.62a6.73,6.73,0,0,1,.94-2.74,18,18,0,0,1,3.09-3.43A19.5,19.5,0,0,0,198,149.7a3,3,0,0,0,.57-1.68,2,2,0,0,0-.49-1.41,1.9,1.9,0,0,0-1.37-.49,1.79,1.79,0,0,0-1.36.52,2.63,2.63,0,0,0-.59,1.72l-2.73-.28a4.47,4.47,0,0,1,1.53-3.25,5.12,5.12,0,0,1,3.22-1,4.67,4.67,0,0,1,3.33,1.14,3.74,3.74,0,0,1,1.21,2.84,5,5,0,0,1-.34,1.84,7.58,7.58,0,0,1-1.1,1.83,17.89,17.89,0,0,1-1.8,1.83c-.87.79-1.41,1.32-1.64,1.58a4.56,4.56,0,0,0-.57.76Z"/><path d="M203.24,147.44a4.15,4.15,0,0,1,.84-2.85,3,3,0,0,1,2.29-.93,3,3,0,0,1,2.34.92,5.22,5.22,0,0,1,0,5.71,2.94,2.94,0,0,1-2.29.93,3,3,0,0,1-2.34-.92A4.16,4.16,0,0,1,203.24,147.44Zm2.14,0a3.61,3.61,0,0,0,.32,1.87.77.77,0,0,0,.67.36.79.79,0,0,0,.69-.36,5.8,5.8,0,0,0,0-3.74.79.79,0,0,0-.69-.36.78.78,0,0,0-.67.35A3.68,3.68,0,0,0,205.38,147.42Zm3.08,11.35h-2l7.63-15.11h2ZM212.9,155a4.11,4.11,0,0,1,.84-2.85,3.35,3.35,0,0,1,4.63,0,4.11,4.11,0,0,1,.84,2.85,4.16,4.16,0,0,1-.84,2.86,2.94,2.94,0,0,1-2.29.93,3,3,0,0,1-2.34-.93A4.16,4.16,0,0,1,212.9,155Zm2.13,0a3.54,3.54,0,0,0,.33,1.86.76.76,0,0,0,.67.36.74.74,0,0,0,.67-.35A3.61,3.61,0,0,0,217,155a3.79,3.79,0,0,0-.32-1.88.79.79,0,0,0-.68-.35.76.76,0,0,0-.67.35A3.65,3.65,0,0,0,215,155Z"/><path d="M169.67,67.13V64.25h-5.86V61.84L170,52.75h2.3v9.08h1.78v2.42h-1.78v2.88Zm0-5.3V56.94l-3.29,4.89Z"/><path d="M176,67.13V64.38h2.75v2.75Z"/><path d="M180.87,63.33l2.66-.32a2.56,2.56,0,0,0,.68,1.55,1.88,1.88,0,0,0,1.35.54,1.84,1.84,0,0,0,1.43-.65,2.49,2.49,0,0,0,.58-1.74,2.34,2.34,0,0,0-.55-1.64,1.79,1.79,0,0,0-1.36-.6,4.64,4.64,0,0,0-1.26.2l.3-2.23a2.47,2.47,0,0,0,1.7-.49,1.71,1.71,0,0,0,.59-1.36,1.57,1.57,0,0,0-.43-1.15,1.54,1.54,0,0,0-1.14-.43,1.67,1.67,0,0,0-1.21.49,2.28,2.28,0,0,0-.6,1.42l-2.53-.43a5.59,5.59,0,0,1,.8-2.07,3.51,3.51,0,0,1,1.48-1.22,4.92,4.92,0,0,1,2.13-.45A4.28,4.28,0,0,1,188.74,54a3.27,3.27,0,0,1-1.06,5.39,3.36,3.36,0,0,1,2,1.18,3.44,3.44,0,0,1,.74,2.22A4.28,4.28,0,0,1,189,66a5.14,5.14,0,0,1-6.65.21A4.41,4.41,0,0,1,180.87,63.33Z"/><path d="M192,63.33l2.65-.32a2.57,2.57,0,0,0,.69,1.55,1.93,1.93,0,0,0,2.78-.11,2.54,2.54,0,0,0,.58-1.74,2.35,2.35,0,0,0-.56-1.64,1.78,1.78,0,0,0-1.36-.6,4.64,4.64,0,0,0-1.26.2l.31-2.23a2.48,2.48,0,0,0,1.7-.49,1.71,1.71,0,0,0,.58-1.36A1.48,1.48,0,0,0,196.54,55a1.63,1.63,0,0,0-1.2.49,2.28,2.28,0,0,0-.61,1.42l-2.53-.43a5.59,5.59,0,0,1,.8-2.07,3.51,3.51,0,0,1,1.48-1.22,5,5,0,0,1,2.14-.45A4.26,4.26,0,0,1,199.86,54a3.27,3.27,0,0,1-1.06,5.39,3.36,3.36,0,0,1,2,1.18,3.44,3.44,0,0,1,.74,2.22A4.28,4.28,0,0,1,200.13,66a5.14,5.14,0,0,1-6.65.21A4.36,4.36,0,0,1,192,63.33Z"/><path d="M203.24,56.35a4.16,4.16,0,0,1,.84-2.86,3.37,3.37,0,0,1,4.63,0,4.14,4.14,0,0,1,.85,2.86,4.15,4.15,0,0,1-.85,2.85,2.93,2.93,0,0,1-2.29.92,3,3,0,0,1-2.34-.92A4.13,4.13,0,0,1,203.24,56.35Zm2.14,0a3.63,3.63,0,0,0,.32,1.87.76.76,0,0,0,.67.35.78.78,0,0,0,.69-.35,3.89,3.89,0,0,0,.31-1.87,3.83,3.83,0,0,0-.31-1.87.79.79,0,0,0-.69-.36.78.78,0,0,0-.67.35A3.65,3.65,0,0,0,205.38,56.33Zm3.08,11.34h-2l7.63-15.1h2Zm4.44-3.76a4.15,4.15,0,0,1,.84-2.85,3.35,3.35,0,0,1,4.63,0,4.15,4.15,0,0,1,.84,2.85,4.14,4.14,0,0,1-.84,2.86,2.94,2.94,0,0,1-2.29.93,3,3,0,0,1-2.34-.93A4.14,4.14,0,0,1,212.9,63.91Zm2.13,0a3.56,3.56,0,0,0,.33,1.87.81.81,0,0,0,1.34,0A3.63,3.63,0,0,0,217,63.9a3.74,3.74,0,0,0-.32-1.87.77.77,0,0,0-.68-.35.74.74,0,0,0-.67.35A3.61,3.61,0,0,0,215,63.9Z"/><path d="M342,38.63h-2.74V28.29a9.66,9.66,0,0,1-3.55,2.08V27.88A8,8,0,0,0,338,26.54a5,5,0,0,0,1.72-2.29H342Z"/><path d="M346.65,38.63V35.89h2.74v2.74Z"/><path d="M358.64,38.63H355.9V28.29a9.66,9.66,0,0,1-3.55,2.08V27.88a8,8,0,0,0,2.34-1.34,5,5,0,0,0,1.72-2.29h2.23Z"/><path d="M362.78,35l2.74-.29a2.27,2.27,0,0,0,.69,1.47A1.87,1.87,0,0,0,369,36a3.18,3.18,0,0,0,.6-2.11,2.88,2.88,0,0,0-.59-2,2,2,0,0,0-1.54-.66,2.77,2.77,0,0,0-2.12,1L363.11,32l1.41-7.45h7.25v2.57H366.6l-.43,2.43a4.19,4.19,0,0,1,5,.87,4.75,4.75,0,0,1,1.27,3.44,5.16,5.16,0,0,1-1,3.16,4.54,4.54,0,0,1-3.87,1.89,4.84,4.84,0,0,1-3.24-1.06A4.37,4.37,0,0,1,362.78,35Z"/><path d="M373.88,27.85a4.15,4.15,0,0,1,.85-2.85,2.94,2.94,0,0,1,2.29-.93,3,3,0,0,1,2.34.92,4.16,4.16,0,0,1,.84,2.86,4.15,4.15,0,0,1-.84,2.85,3,3,0,0,1-2.29.93,3,3,0,0,1-2.34-.93A4.11,4.11,0,0,1,373.88,27.85Zm2.14,0a3.61,3.61,0,0,0,.33,1.87.75.75,0,0,0,.67.35.77.77,0,0,0,.68-.35,3.74,3.74,0,0,0,.32-1.87A3.74,3.74,0,0,0,377.7,26a.82.82,0,0,0-1.35,0A3.65,3.65,0,0,0,376,27.83Zm3.09,11.35h-2l7.62-15.11h2Zm4.43-3.76a4.11,4.11,0,0,1,.85-2.86,3,3,0,0,1,2.31-.92,3,3,0,0,1,2.32.92,4.16,4.16,0,0,1,.84,2.86,4.16,4.16,0,0,1-.84,2.86,3,3,0,0,1-2.29.93,3,3,0,0,1-2.34-.93A4.11,4.11,0,0,1,383.54,35.42Zm2.14,0a3.67,3.67,0,0,0,.32,1.86.79.79,0,0,0,.68.36.75.75,0,0,0,.67-.35,3.63,3.63,0,0,0,.32-1.87,3.82,3.82,0,0,0-.31-1.88.79.79,0,0,0-.68-.35.78.78,0,0,0-.68.35A3.79,3.79,0,0,0,385.68,35.41Z"/><path d="M869.56,27.32a4,4,0,0,1,3.26,1.48c.93,1.18,1.39,3.12,1.39,5.84s-.47,4.65-1.4,5.83a3.92,3.92,0,0,1-3.25,1.47,4.12,4.12,0,0,1-3.37-1.61q-1.28-1.61-1.27-5.72c0-2.7.46-4.64,1.4-5.82A3.91,3.91,0,0,1,869.56,27.32Zm0,2.28a1.35,1.35,0,0,0-.88.31,2,2,0,0,0-.61,1.14,15.73,15.73,0,0,0-.28,3.59A15.65,15.65,0,0,0,868,38.1a2.4,2.4,0,0,0,.64,1.25,1.42,1.42,0,0,0,1.77,0,2.17,2.17,0,0,0,.61-1.14,15.53,15.53,0,0,0,.28-3.57,15.7,15.7,0,0,0-.25-3.47,2.52,2.52,0,0,0-.64-1.26A1.36,1.36,0,0,0,869.56,29.6Z"/><path d="M876.63,41.7V39h2.75V41.7Z"/><path d="M887,41.7V38.81h-5.86v-2.4l6.21-9.09h2.3V36.4h1.78v2.41h-1.78V41.7Zm0-5.3V31.51l-3.3,4.89Z"/><path d="M897.37,27.32a3.94,3.94,0,0,1,3.25,1.48c.93,1.18,1.4,3.12,1.4,5.84s-.47,4.65-1.41,5.83a3.91,3.91,0,0,1-3.24,1.47A4.09,4.09,0,0,1,894,40.33c-.86-1.07-1.28-3-1.28-5.72s.47-4.64,1.4-5.82A3.92,3.92,0,0,1,897.37,27.32Zm0,2.28a1.36,1.36,0,0,0-.89.31,2.17,2.17,0,0,0-.61,1.14,15.73,15.73,0,0,0-.28,3.59,15.65,15.65,0,0,0,.25,3.46,2.47,2.47,0,0,0,.64,1.25,1.36,1.36,0,0,0,.89.31,1.4,1.4,0,0,0,.89-.31,2.1,2.1,0,0,0,.6-1.14,15.53,15.53,0,0,0,.28-3.57,15.7,15.7,0,0,0-.25-3.47,2.44,2.44,0,0,0-.64-1.26A1.35,1.35,0,0,0,897.37,29.6Z"/><path d="M903.87,30.91a4.1,4.1,0,0,1,.85-2.85,2.92,2.92,0,0,1,2.29-.92,3,3,0,0,1,2.33.92,4.08,4.08,0,0,1,.85,2.85,4.11,4.11,0,0,1-.85,2.86,3.36,3.36,0,0,1-4.62,0A4.09,4.09,0,0,1,903.87,30.91Zm2.14,0a3.76,3.76,0,0,0,.32,1.88.84.84,0,0,0,1.36,0,3.79,3.79,0,0,0,.31-1.88,3.7,3.7,0,0,0-.31-1.86.77.77,0,0,0-.68-.36.79.79,0,0,0-.68.35A3.74,3.74,0,0,0,906,30.89Zm3.09,11.35h-2l7.63-15.1h2Zm4.43-3.76a4.15,4.15,0,0,1,.84-2.85,3.35,3.35,0,0,1,4.63,0,4.1,4.1,0,0,1,.85,2.85,4.09,4.09,0,0,1-.85,2.86,2.93,2.93,0,0,1-2.29.93,3,3,0,0,1-2.34-.93A4.14,4.14,0,0,1,913.53,38.48Zm2.14,0a3.61,3.61,0,0,0,.32,1.87.82.82,0,0,0,1.35,0,3.79,3.79,0,0,0,.32-1.88,3.77,3.77,0,0,0-.31-1.87.78.78,0,0,0-.69-.35.75.75,0,0,0-.67.35A3.63,3.63,0,0,0,915.67,38.47Z"/><path class="cls-1" d="M560,58.51A166.47,166.47,0,0,1,722.65,260.39L682,251.53A124.85,124.85,0,0,0,560,100.12Z"/><path class="cls-2" d="M722.65,260.39a166.46,166.46,0,0,1-129.3,127.66L585,347.28a124.84,124.84,0,0,0,97-95.75Z"/><path class="cls-3" d="M593.35,388.05A166.46,166.46,0,0,1,443,106.55l29.25,29.61A124.84,124.84,0,0,0,585,347.28Z"/><path class="cls-4" d="M443,106.55a166.52,166.52,0,0,1,56.87-36.81l15,38.81a124.75,124.75,0,0,0-42.65,27.61Z"/><path class="cls-5" d="M499.88,69.74A166.47,166.47,0,0,1,543.81,59.3l4,41.41a124.93,124.93,0,0,0-32.94,7.84Z"/><path class="cls-6" d="M543.81,59.3q6-.59,12-.74l1,41.6q-4.53.12-9,.55Z"/><path class="cls-7" d="M555.85,58.56c1.39,0,2.77-.05,4.15-.05v41.61c-1,0-2.07,0-3.11,0Z"/><line class="cls-8" x1="693.76" y1="125.88" x2="885.84" y2="125.88"/><line class="cls-8" x1="693.76" y1="339.44" x2="885.84" y2="339.44"/><line class="cls-8" x1="230.69" y1="319.79" x2="415.74" y2="319.79"/><polyline class="cls-8" points="557.93 49.13 557.93 34.27 845.25 34.27"/><polyline class="cls-8" points="462.78 83.92 282.27 83.92 234.96 131.24"/><line class="cls-8" x1="517.21" y1="58.13" x2="234.96" y2="58.13"/><circle class="cls-9" cx="234.96" cy="58.13" r="5.1"/><circle class="cls-9" cx="409.55" cy="32.34" r="5.1"/><circle class="cls-9" cx="845.25" cy="34.26" r="5.1"/><circle class="cls-9" cx="885.84" cy="125.88" r="5.1"/><circle class="cls-9" cx="885.84" cy="339.44" r="5.1"/><circle class="cls-9" cx="234.96" cy="131.06" r="5.1"/><circle class="cls-9" cx="234.96" cy="319.79" r="5.1"/><polyline class="cls-8" points="549.95 58.13 549.95 32.34 409.55 32.34"/><g id="北美" class="cls-10"><g class="cls-10"><path class="cls-11" d="M279.44,459.79l.26,1.29c-2.86,1.24-6,2.54-8.26,3.44l-.68-1.46c1.44-.51,3.5-1.27,5.66-2.1v-8h-5.06v-1.46h5.06v-4.68h1.52v13.55Zm6.66,2.69c.9,0,1-1,1.14-4.79a4.15,4.15,0,0,0,1.42.72c-.16,4.11-.52,5.53-2.44,5.53h-2.68c-1.72,0-2.22-.58-2.22-2.66V446.85h1.5v4.64h5.58V453h-5.58v8.34c0,1,.14,1.19.9,1.19Z"/><path class="cls-11" d="M308.92,455.17v1.32h-8.34c-.06.54-.14,1.06-.24,1.54h8.26v1.31H300c-.94,2.74-3.08,4.44-8.32,5.34a5.09,5.09,0,0,0-.78-1.34c4.62-.67,6.58-1.95,7.48-4h-6.72V458h7.14a11.76,11.76,0,0,0,.26-1.54H291.2v-1.32h8v-1.68H293v-1.3h6.22v-1.62H291.9v-1.34h4.22a11.1,11.1,0,0,0-1.54-2.32l1.28-.52a9.82,9.82,0,0,1,1.76,2.52l-.72.32h5.26a22.39,22.39,0,0,0,1.72-2.84l1.52.46a27.38,27.38,0,0,1-1.6,2.38h4.26v1.34H300.7v1.62h6.4v1.3h-6.4v1.68Zm-8.18,4.38a50.15,50.15,0,0,1,8.16,4l-.7,1.28a47.45,47.45,0,0,0-8.1-4.15Z"/></g></g><circle id="Ellipse_942" data-name="Ellipse 942" class="cls-1" cx="256" cy="455.2" r="6"/><g id="英國" class="cls-10"><g class="cls-10"><path class="cls-11" d="M379,457.55v1.38h-8.7c-.74,2.36-2.86,4.45-8.56,5.83a5.82,5.82,0,0,0-.88-1.22c5.1-1.14,7.08-2.79,7.88-4.61H361v-1.38h2.24v-4.94h5.9v-1.94h1.48v1.94h6.22v4.94Zm-13.7-7.78h-3.72v-1.3h3.72v-2h1.46v2h2.74v1.3h-2.74v2h-1.46Zm3.8,7.78a10.54,10.54,0,0,0,.08-1.36v-2.26H364.7v3.62Zm1.92,1.86a49.77,49.77,0,0,1,8,4.07l-.74,1.24a51.4,51.4,0,0,0-7.94-4.26Zm2.46-9.66h-3v-1.3h3v-2h1.48v2h3.62v1.3h-3.62v1.94h-1.48Zm-2.82,6.44a10.54,10.54,0,0,1-.08,1.36h4.82v-3.62h-4.74Z"/><path class="cls-11" d="M398.3,447.37v17.41h-1.46v-.92H383.12v.92H381.7V447.37Zm-1.46,15.15V448.73H383.12v13.79Zm-6.78-3c-2.08.41-4.2.82-5.84,1.12l-.2-1.12c1.52-.24,3.74-.64,6-1Zm5-5.82a15.52,15.52,0,0,1-2.22,4.9c.42,1.06,1,1.74,1.62,1.84.28.08.48-.78.62-2.06a3.74,3.74,0,0,0,1,.66c-.26,2.18-.94,3-2,2.59a3.26,3.26,0,0,1-2.08-1.95,12.26,12.26,0,0,1-2.64,2.3,7.61,7.61,0,0,0-.88-.93,10.74,10.74,0,0,0,3-2.63,28.53,28.53,0,0,1-1.1-5.9h-6.12v-1.12h6c-.06-.7-.12-1.4-.16-2.12h1.28c0,.72.08,1.42.12,2.12h4.36v1.12h-4.26a29.15,29.15,0,0,0,.74,4.6,13.76,13.76,0,0,0,1.48-3.68Zm-5.68.08v3.88h-4.42v-3.88Zm-1.08.94H386v2h2.3Zm6.36-3.54a8.09,8.09,0,0,0-2.14-1.4l.7-.74a8.53,8.53,0,0,1,2.16,1.36Z"/></g></g><circle id="Ellipse_942-2" data-name="Ellipse 942-2" class="cls-2" cx="346" cy="455.2" r="6"/><g id="歐洲" class="cls-10"><g class="cls-10"><path class="cls-11" d="M465.18,453.57c0,.5,0,1,0,1.58.64,3.94,1.7,6.32,3.92,8.41a3.34,3.34,0,0,0-.94,1.16,13.37,13.37,0,0,1-3.48-6.05,12.78,12.78,0,0,1-3.28,6.05,4.79,4.79,0,0,0-1-1.1l0,0c-.4,0-1,.06-1.62.06h-4.34c-2.1,0-2.86-.74-2.86-3V448.77h-.68v-1.28h9.7v1.28H452.9v12c0,1.21.38,1.63,1.44,1.63h4.48a12,12,0,0,0,1.8-.14,9.27,9.27,0,0,0,.14,1c2.8-3.11,3-7,3-9.65v-1.34h1.38ZM453.64,456h3v5h-3Zm5.78-1.34H454.3v-4.48h5.12ZM454.48,460h1.34v-3.06h-1.34Zm3.76-8.88h-2.8v2.5h2.8Zm2.2,9.86H457.3v-5h3.14Zm-.9-4h-1.4v3h1.4Zm3.52-6a15.75,15.75,0,0,1-1.76,4,7.45,7.45,0,0,0-1.2-.82c1.32-1.84,2.1-4.74,2.56-7.76l1.36.22c-.16,1-.34,2-.58,3h4.68l.24-.08.94.32a36.31,36.31,0,0,1-1.42,5.16l-1.12-.38a28.2,28.2,0,0,0,1-3.66Z"/><path class="cls-11" d="M474.2,455.13a24,24,0,0,0-3.36-2l.84-1.08a23.68,23.68,0,0,1,3.38,1.9Zm-3,8.57a57.72,57.72,0,0,0,2.74-6.37l1.2.8c-.74,2.08-1.74,4.53-2.6,6.35Zm3.66-13.77a18.88,18.88,0,0,0-3.2-2.2l.88-1.06a20.4,20.4,0,0,1,3.22,2.08Zm3.3-3h1.4v6.94c0,3.9-.3,7.81-2.88,10.89a7.73,7.73,0,0,0-1.24-.88c2.44-2.85,2.72-6.43,2.72-10Zm-1.34,10.52a23.27,23.27,0,0,0-1.36-4.74l1.12-.38a25.79,25.79,0,0,1,1.44,4.7Zm3.9-5.06a19.41,19.41,0,0,1,1.36,4.42l-1.08.4a23.56,23.56,0,0,0-1.28-4.46Zm7.48-5.48v17.83h-1.42v-8l-1,.48a25.18,25.18,0,0,0-1.9-4.46v11.51h-1.4V447.19h1.4v5.26l.9-.36a22.89,22.89,0,0,1,2,4.44v-9.64Z"/></g></g><circle id="Ellipse_942-3" data-name="Ellipse 942-3" class="cls-3" cx="436" cy="455.2" r="6"/><g id="中南美" class="cls-10"><g class="cls-10"><path class="cls-11" d="M558,450v9.36h-1.52v-1.14h-5.74v6.49h-1.54v-6.49h-5.72v1.24H542V450h7.18v-3.56h1.54V450Zm-8.8,6.76v-5.3h-5.72v5.3Zm7.28,0v-5.3h-5.74v5.3Z"/><path class="cls-11" d="M570.6,449.85c-.1.74-.22,1.48-.32,2.12h7.42v11c0,.88-.22,1.28-.86,1.5a12,12,0,0,1-3.38.24,7,7,0,0,0-.54-1.34c1.26.06,2.48.06,2.82,0s.46-.12.46-.44v-9.65H563.82v11.37h-1.46V452h6.5c.1-.62.18-1.36.26-2.12h-7.84v-1.4h8c.06-.72.12-1.42.14-2l1.6.18c-.06.58-.14,1.22-.22,1.84h8v1.4Zm.06,11v3.53h-1.42v-3.53h-4.3v-1.24h4.3v-2h-3.88v-1.22h2.1a9.57,9.57,0,0,0-1.1-2.36l1.18-.3A9.3,9.3,0,0,1,568.7,456l-1.08.34h3.58a23.55,23.55,0,0,0,1.14-2.74l1.34.3c-.38.84-.78,1.7-1.16,2.44h2.26v1.22h-4.12v2h4.46v1.24Z"/><path class="cls-11" d="M598.92,455.17v1.32h-8.34c-.06.54-.14,1.06-.24,1.54h8.26v1.31H590c-.94,2.74-3.08,4.44-8.32,5.34a5.09,5.09,0,0,0-.78-1.34c4.62-.67,6.58-1.95,7.48-4h-6.72V458h7.14a11.76,11.76,0,0,0,.26-1.54H581.2v-1.32h8v-1.68H583v-1.3h6.22v-1.62H581.9v-1.34h4.22a11.1,11.1,0,0,0-1.54-2.32l1.28-.52a9.82,9.82,0,0,1,1.76,2.52l-.72.32h5.26a22.39,22.39,0,0,0,1.72-2.84l1.52.46a27.38,27.38,0,0,1-1.6,2.38h4.26v1.34H590.7v1.62h6.4v1.3h-6.4v1.68Zm-8.18,4.38a50.15,50.15,0,0,1,8.16,4l-.7,1.28a47.45,47.45,0,0,0-8.1-4.15Z"/></g></g><circle id="Ellipse_942-4" data-name="Ellipse 942-4" class="cls-4" cx="526" cy="455.2" r="6"/><g id="亞洲" class="cls-10"><g class="cls-10"><path class="cls-11" d="M668.92,462.5v1.36H651.08V462.5H657v-3.59h-4.5v-6.68H657v-3.12h-5.4v-1.38h16.82v1.38h-5.58v3.1h4.6v6.68h-.72v0h-3.88v3.59Zm-10.46-4.89v4.89h3v-4.91H666v-4.1h-4.54v-4.38h-3v4.42H654v4.08Z"/><path class="cls-11" d="M674.2,455.13a24,24,0,0,0-3.36-2l.84-1.08a23.68,23.68,0,0,1,3.38,1.9Zm-3,8.57a57.72,57.72,0,0,0,2.74-6.37l1.2.8c-.74,2.08-1.74,4.53-2.6,6.35Zm3.66-13.77a18.88,18.88,0,0,0-3.2-2.2l.88-1.06a20.4,20.4,0,0,1,3.22,2.08Zm3.3-3h1.4v6.94c0,3.9-.3,7.81-2.88,10.89a7.73,7.73,0,0,0-1.24-.88c2.44-2.85,2.72-6.43,2.72-10Zm-1.34,10.52a23.27,23.27,0,0,0-1.36-4.74l1.12-.38a25.79,25.79,0,0,1,1.44,4.7Zm3.9-5.06a19.41,19.41,0,0,1,1.36,4.42l-1.08.4a23.56,23.56,0,0,0-1.28-4.46Zm7.48-5.48v17.83h-1.42v-8l-1,.48a25.18,25.18,0,0,0-1.9-4.46v11.51h-1.4V447.19h1.4v5.26l.9-.36a22.89,22.89,0,0,1,2,4.44v-9.64Z"/></g></g><circle id="Ellipse_942-5" data-name="Ellipse 942-5" class="cls-5" cx="636" cy="455.2" r="6"/><g id="非洲" class="cls-10"><g class="cls-10"><path class="cls-11" d="M747,446.57h1.46v9.28c0,2.8-.76,6.89-5.56,9.11a7,7,0,0,0-1.06-1.12,7.83,7.83,0,0,0,4.48-4.39l-4.92.94-.32-1.48c1.48-.2,3.54-.56,5.68-.92a9.84,9.84,0,0,0,.24-2.14v-.54h-5.1V454H747v-3.06h-5.38v-1.4H747Zm12.06,13.32H753v4.85h-1.48V446.57H753v2.92h5.72v1.4H753V454h5.32v1.38H753v3.16h6.06Z"/><path class="cls-11" d="M764.2,455.13a24,24,0,0,0-3.36-2l.84-1.08a23.68,23.68,0,0,1,3.38,1.9Zm-3,8.57a57.72,57.72,0,0,0,2.74-6.37l1.2.8c-.74,2.08-1.74,4.53-2.6,6.35Zm3.66-13.77a18.88,18.88,0,0,0-3.2-2.2l.88-1.06a20.4,20.4,0,0,1,3.22,2.08Zm3.3-3h1.4v6.94c0,3.9-.3,7.81-2.88,10.89a7.73,7.73,0,0,0-1.24-.88c2.44-2.85,2.72-6.43,2.72-10Zm-1.34,10.52a23.27,23.27,0,0,0-1.36-4.74l1.12-.38a25.79,25.79,0,0,1,1.44,4.7Zm3.9-5.06a19.41,19.41,0,0,1,1.36,4.42l-1.08.4a23.56,23.56,0,0,0-1.28-4.46Zm7.48-5.48v17.83h-1.42v-8l-1,.48a25.18,25.18,0,0,0-1.9-4.46v11.51h-1.4V447.19h1.4v5.26l.9-.36a22.89,22.89,0,0,1,2,4.44v-9.64Z"/></g></g><circle id="Ellipse_942-6" data-name="Ellipse 942-6" class="cls-12" cx="726" cy="455.2" r="6"/><g id="其他" class="cls-10"><g class="cls-10"><path class="cls-11" d="M838.56,461.74a35.58,35.58,0,0,1-6.62,3,9.94,9.94,0,0,0-1-1.14,25.82,25.82,0,0,0,6.28-2.75Zm10.26-1.28H831.16v-1.39h3.66v-8.88h-3.1v-1.4h3.1v-2.3h1.46v2.3h7.4v-2.3h1.48v2.3h3.2v1.4h-3.2v8.88h3.66Zm-12.54-10.27v2h7.4v-2Zm0,5.42h7.4v-2.16h-7.4Zm0,3.46h7.4v-2.18h-7.4Zm6.18,1.85a48.45,48.45,0,0,1,6.42,2.76l-1.32,1a40.71,40.71,0,0,0-6.1-2.8Z"/><path class="cls-11" d="M856.76,447a30,30,0,0,1-2.08,4.36V464.7h-1.42V453.51a18.61,18.61,0,0,1-2,2.4,7.68,7.68,0,0,0-.84-1.44,22.55,22.55,0,0,0,4.94-7.94Zm9.52,16.23c1.2,0,1.42-.54,1.58-2.89a4.52,4.52,0,0,0,1.36.57c-.26,2.78-.72,3.66-2.9,3.66h-5.26c-2.36,0-3.06-.56-3.06-2.76v-6.57l-2,.76-.56-1.3,2.54-1v-5.2h1.4v4.66l2.94-1.16v-5.48h1.36v5l3.32-1.28.28-.22,1.1.34-.06.28c-.06,2.88-.26,6.7-.58,9.06l-1.22-.36c.2-1.88.32-4.94.36-7.54L863.7,453v7.32h-1.36v-6.78l-2.94,1.16v7.11c0,1.16.28,1.42,1.68,1.42Z"/></g></g><circle id="Ellipse_942-7" data-name="Ellipse 942-7" class="cls-7" cx="816" cy="455.2" r="6"/></svg>